# https://github.com/mikedh/trimesh
v 0.00889466 0.00235356 0.03969039
v 0.00890547 0.00243112 0.02524830
v 0.00892574 0.01228685 0.03977796
v -0.01994916 0.01217594 0.03966382
v -0.01994161 0.00247904 0.02525293
v -0.01995161 0.00240867 0.03968678
v 0.00889726 0.01210756 0.02524119
v -0.01271061 0.01220111 0.03975971
v -0.01994855 0.01201049 0.02524186
v 0.00892194 0.01218292 0.03254540
f 1 2 3
f 5 2 1
f 6 1 3
f 6 5 1
f 8 6 3
f 8 3 4
f 8 4 6
f 9 6 4
f 9 5 6
f 9 4 3
f 9 3 7
f 9 7 2
f 9 2 5
f 10 7 3
f 10 3 2
f 10 2 7

