# https://github.com/mikedh/trimesh
v -0.21467347 0.00312240 -0.09735634
v -0.21466827 0.00317668 -0.12617400
v -0.21466068 0.01216779 -0.09735577
v -0.22914023 0.01218083 -0.09737815
v -0.22911059 0.00311430 -0.12618198
v -0.22908408 0.01216813 -0.12620154
v -0.22909996 0.00308313 -0.09735877
v -0.21466070 0.01212141 -0.12620110
v -0.22911609 0.01219331 -0.11897738
v -0.22909994 0.00307905 -0.10457031
f 1 2 3
f 5 2 1
f 7 1 3
f 7 3 4
f 7 4 5
f 8 3 2
f 8 2 5
f 8 5 6
f 9 4 3
f 9 8 6
f 9 3 8
f 9 6 5
f 9 5 4
f 10 7 5
f 10 5 1
f 10 1 7

