# https://github.com/mikedh/trimesh
v 0.18197758 0.00239401 -0.03243973
v 0.18197369 0.00249313 -0.05406266
v 0.18197404 0.01217799 -0.03245167
v 0.15313066 0.01187233 -0.03244930
v 0.15312952 0.00240143 -0.03964599
v 0.15313401 0.01155727 -0.05407542
v 0.18197575 0.01183149 -0.05408044
v 0.15312951 0.00237418 -0.03243456
v 0.15312652 0.00247554 -0.05405874
v 0.18197488 0.01207287 -0.03966154
f 5 2 1
f 6 4 3
f 7 1 2
f 8 5 1
f 8 1 3
f 8 3 4
f 9 4 6
f 9 8 4
f 9 5 8
f 9 2 5
f 9 7 2
f 9 6 7
f 10 7 6
f 10 6 3
f 10 3 1
f 10 1 7

