# https://github.com/mikedh/trimesh
v 0.07378832 0.00222173 0.03968765
v 0.07378467 0.00228559 0.02525269
v 0.07384575 0.01221881 0.03979314
v 0.05216613 0.01220065 0.03966348
v 0.05218262 0.00225623 0.02525391
v 0.07380152 0.01208947 0.02524094
v 0.05218212 0.00220896 0.03968246
v 0.07384138 0.01213144 0.03249068
v 0.05216543 0.01205541 0.02524132
v 0.06663588 0.01217370 0.03979229
f 1 2 3
f 5 2 1
f 6 4 3
f 7 5 1
f 8 6 3
f 8 3 2
f 8 2 6
f 9 4 6
f 9 7 4
f 9 5 7
f 9 6 2
f 9 2 5
f 10 3 4
f 10 4 7
f 10 7 1
f 10 1 3

