# https://github.com/mikedh/trimesh
v 0.15312813 0.00208378 0.06130031
v 0.15312623 0.00229979 0.00361608
v 0.15318269 0.01269004 0.06138588
v 0.12430006 0.01254951 0.06135471
v 0.12430117 0.00214250 0.06132577
v 0.12428141 0.01208294 0.00360683
v 0.15312791 0.01211097 0.00360627
v 0.12426941 0.01220055 0.01807070
v 0.12429834 0.00237678 0.00361437
v 0.15316791 0.01219279 0.01807486
f 1 2 3
f 5 2 1
f 5 1 3
f 5 3 4
f 7 6 3
f 8 5 4
f 8 4 3
f 8 3 6
f 9 2 5
f 9 8 6
f 9 5 8
f 9 7 2
f 9 6 7
f 10 7 3
f 10 3 2
f 10 2 7

