{"scene":0,"scenes":[{"nodes":[0]}],"asset":{"version":"2.0","generator":"https://github.com/mikedh/trimesh"},"accessors":[{"componentType":5125,"type":"SCALAR","bufferView":0,"count":32646,"max":[32342],"min":[0]},{"componentType":5126,"type":"VEC3","byteOffset":0,"bufferView":1,"count":32343,"max":[0.29038193821907043,0.375,3.8984947823369065e-18],"min":[-0.29038193821907043,-0.375,-0.01580805517733097]},{"componentType":5126,"type":"VEC2","byteOffset":0,"bufferView":3,"count":32343,"max":[0.9995429515838623,0.9994138479232788],"min":[0.0004570384044200182,0.0005861520767211914]}],"meshes":[{"name":"geometry_0.001","extras":{"units":"meters","from_gltf_primitive":false,"name":"geometry_0.001","node":"geometry_0.002"},"primitives":[{"attributes":{"POSITION":1,"TEXCOORD_0":2},"indices":0,"mode":4,"material":0}]}],"images":[{"bufferView":2,"mimeType":"image/png"}],"textures":[{"source":0}],"materials":[{"pbrMetallicRoughness":{"baseColorTexture":{"index":0}},"name":"Material_0.001","doubleSided":false}],"nodes":[{"name":"world","children":[1]},{"name":"geometry_0.001","mesh":0}],"buffers":[{"uri":"gltf_buffer_0.bin","byteLength":130584},{"uri":"gltf_buffer_1.bin","byteLength":388116},{"uri":"gltf_buffer_2.bin","byteLength":761204},{"uri":"gltf_buffer_3.bin","byteLength":258744}],"bufferViews":[{"buffer":0,"byteOffset":0,"byteLength":130584},{"buffer":1,"byteOffset":0,"byteLength":388116},{"buffer":2,"byteOffset":0,"byteLength":761204},{"buffer":3,"byteOffset":0,"byteLength":258744}]}