# https://github.com/mikedh/trimesh
v -0.26521978 0.00331314 -0.16226462
v -0.26523023 0.00329233 -0.18389519
v -0.26514652 0.01197003 -0.18389435
v -0.28820287 0.01315447 -0.16224491
v -0.28831836 0.00206785 -0.16944315
v -0.26514644 0.01196472 -0.16225805
v -0.28840272 0.00215152 -0.16225619
v -0.28830568 0.00214332 -0.18388891
v -0.27295461 0.01219582 -0.18389879
v -0.28816685 0.01313693 -0.18387945
f 1 2 3
f 5 2 1
f 6 1 3
f 6 3 4
f 6 4 1
f 7 5 1
f 7 1 4
f 8 2 5
f 8 5 7
f 9 3 2
f 9 2 8
f 10 8 7
f 10 7 4
f 10 9 8
f 10 4 3
f 10 3 9

