# https://github.com/mikedh/trimesh
v 0.28972843 0.00074264 0.37377843
v 0.28858702 0.00142910 0.19831894
v 0.28981858 0.01440767 0.37376019
v 0.00889469 0.01508340 0.37498620
v 0.00889916 0.00034509 0.37417866
v 0.28865697 0.01368337 0.19834140
v 0.28993970 0.01199601 0.32826460
v 0.28988584 0.01434365 0.33552315
v 0.00887623 0.01350334 0.19834514
v 0.28975680 0.00102051 0.32829349
v 0.00889561 0.00181093 0.19832218
f 1 3 4
f 5 2 1
f 5 1 4
f 7 3 1
f 7 2 6
f 8 6 4
f 8 4 3
f 8 7 6
f 8 3 7
f 9 5 4
f 9 4 6
f 10 7 1
f 10 1 2
f 10 2 7
f 11 2 5
f 11 5 9
f 11 9 6
f 11 6 2

