# https://github.com/mikedh/trimesh
v 0.17476340 0.00235339 -0.01080995
v 0.17476604 0.00239986 -0.03243971
v 0.17483230 0.01221192 -0.01079407
v 0.15312940 0.01201461 -0.01081643
v 0.15311908 0.00233824 -0.01802637
v 0.17476328 0.01211573 -0.03245134
v 0.15311909 0.00233432 -0.01081483
v 0.17483675 0.01218735 -0.01800410
v 0.15313066 0.01187233 -0.03244930
v 0.16760812 0.01213880 -0.01078582
v 0.15312951 0.00237418 -0.03243456
f 5 2 1
f 7 5 1
f 7 4 5
f 8 1 2
f 8 3 1
f 8 2 6
f 8 6 4
f 8 4 3
f 9 5 4
f 9 4 6
f 9 6 2
f 10 7 1
f 10 1 3
f 10 3 4
f 10 4 7
f 11 9 2
f 11 2 5
f 11 5 9

