# https://github.com/mikedh/trimesh
v 0.12428691 0.00228740 0.03969576
v 0.12429868 0.00234171 0.02524374
v 0.12427524 0.01235307 0.03974200
v 0.07384575 0.01221881 0.03979314
v 0.07378832 0.00222173 0.03968765
v 0.10984725 0.01226393 0.02528685
v 0.12427152 0.01224207 0.02528154
v 0.07380152 0.01208947 0.02524094
v 0.08107155 0.01214302 0.02527533
v 0.07378467 0.00228559 0.02525269
f 1 2 3
f 1 3 4
f 5 2 1
f 5 1 4
f 6 4 3
f 7 6 3
f 7 3 2
f 8 5 4
f 8 7 2
f 8 6 7
f 9 8 4
f 9 4 6
f 9 6 8
f 10 8 2
f 10 2 5
f 10 5 8

