# https://github.com/mikedh/trimesh
v -0.26521330 0.00329696 -0.34250091
v -0.26528418 0.00342257 -0.35705437
v -0.26515012 0.01163263 -0.34254350
v -0.28888588 0.01330922 -0.34273667
v -0.28912271 0.00158722 -0.35694070
v -0.27586748 0.01308202 -0.35696773
v -0.27575582 0.01302784 -0.34254573
v -0.26514140 0.01151171 -0.35696094
v -0.28901274 0.00161659 -0.34267962
v -0.28891512 0.01345146 -0.35693601
v -0.28935623 0.00503353 -0.35684966
f 5 2 1
f 7 1 3
f 7 3 6
f 8 1 2
f 8 3 1
f 8 6 3
f 8 2 6
f 9 5 1
f 9 7 4
f 9 1 7
f 10 7 6
f 10 4 7
f 10 6 2
f 10 2 5
f 11 9 4
f 11 5 9
f 11 10 5
f 11 4 10

