# https://github.com/mikedh/trimesh
v -0.14974912 0.00277792 0.00361541
v -0.14974466 0.00277369 -0.03243453
v -0.14975863 0.01204158 0.00360644
v -0.17148375 0.01229416 0.00363047
v -0.17138089 0.00282152 0.00360764
v -0.17139307 0.01209911 -0.03245117
v -0.16426763 0.01220209 0.00362779
v -0.14976040 0.01182214 -0.03244932
v -0.17149856 0.01215400 -0.02518707
v -0.17137931 0.00282443 -0.03242865
v -0.16427321 0.01214621 -0.01077467
v -0.14975967 0.01196750 -0.01081601
f 1 2 3
f 5 2 1
f 5 1 4
f 7 1 3
f 7 3 4
f 7 4 1
f 8 3 2
f 8 2 6
f 9 8 6
f 9 5 4
f 10 6 2
f 10 2 5
f 10 9 6
f 10 5 9
f 11 9 4
f 11 4 3
f 12 11 3
f 12 3 8
f 12 8 9
f 12 9 11

