# https://github.com/mikedh/trimesh
v -0.09206080 0.00259534 0.03971044
v -0.09205825 0.00271204 0.02526609
v -0.09206490 0.01216332 0.03966418
v -0.13534655 0.01224762 0.03978322
v -0.13535611 0.00258103 0.03972288
v -0.13533551 0.01204672 0.02524186
v -0.09929912 0.01220037 0.03978749
v -0.09206625 0.01192485 0.02524363
v -0.13538772 0.01214783 0.03255400
v -0.13534450 0.00273276 0.02529176
v -0.10648789 0.01198535 0.02524209
f 1 2 3
f 5 2 1
f 7 1 3
f 7 5 1
f 7 4 5
f 8 3 2
f 8 7 3
f 9 5 4
f 9 7 6
f 9 4 7
f 10 6 2
f 10 2 5
f 10 9 6
f 10 5 9
f 11 6 7
f 11 7 8
f 11 8 2
f 11 2 6

