# https://github.com/mikedh/trimesh
v -0.17137931 0.00282443 -0.03242865
v -0.17137977 0.00293480 -0.05405260
v -0.17149934 0.01210106 -0.03239822
v -0.18592287 0.01232105 -0.03240413
v -0.18580444 0.00288706 -0.03963995
v -0.17139513 0.01190482 -0.05408332
v -0.18580343 0.00285526 -0.03242957
v -0.17149025 0.01204069 -0.03960215
v -0.18581619 0.01206955 -0.05408500
v -0.18579728 0.00297569 -0.05405255
v -0.18590391 0.01216005 -0.04677941
f 5 2 1
f 6 1 2
f 6 3 1
f 7 1 3
f 7 3 4
f 7 5 1
f 7 4 5
f 8 6 4
f 8 4 3
f 8 3 6
f 9 6 2
f 10 5 4
f 10 9 2
f 10 2 5
f 11 4 6
f 11 6 9
f 11 10 4
f 11 9 10

