# https://github.com/mikedh/trimesh
v 0.28294411 0.00157774 -0.22720235
v 0.28298060 0.00118540 -0.35696783
v 0.28302122 0.01335955 -0.35699884
v 0.26130302 0.01178382 -0.22716178
v 0.26135945 0.00260599 -0.22714260
v 0.26126003 0.00303890 -0.35705687
v 0.28322173 0.01302537 -0.22722090
v 0.26853221 0.01162605 -0.35710435
v 0.27646128 0.01313949 -0.35696921
v 0.26130589 0.01165624 -0.35697104
f 5 2 1
f 6 5 4
f 6 2 5
f 7 5 1
f 7 4 5
f 7 1 2
f 7 2 3
f 8 3 2
f 8 2 6
f 9 7 3
f 9 4 7
f 9 3 8
f 10 8 6
f 10 6 4
f 10 9 8
f 10 4 9

