# https://github.com/mikedh/trimesh
v 0.19639821 0.00239020 -0.03242712
v 0.19639556 0.00249437 -0.05406432
v 0.19646318 0.01230437 -0.03234659
v 0.18203621 0.01217929 -0.03237752
v 0.18197369 0.00249313 -0.05406266
v 0.18197758 0.00239401 -0.03243973
v 0.19639866 0.01190711 -0.05408117
v 0.18197575 0.01183149 -0.05408044
v 0.18203330 0.01207494 -0.03955441
v 0.19644423 0.01218861 -0.03952046
f 1 2 3
f 5 2 1
f 6 1 3
f 6 3 4
f 6 5 1
f 8 6 4
f 8 5 6
f 8 7 2
f 8 2 5
f 9 8 4
f 9 4 3
f 10 7 8
f 10 3 2
f 10 2 7
f 10 9 3
f 10 8 9

