# https://github.com/mikedh/trimesh
v 0.12429868 0.00234171 0.02524374
v 0.12429834 0.00237678 0.00361437
v 0.12427152 0.01224207 0.02528154
v 0.08827431 0.01219554 0.02526834
v 0.08821647 0.00234770 0.00361290
v 0.08822099 0.00232909 0.02524662
v 0.12428141 0.01208294 0.00360683
v 0.08822468 0.01206600 0.00360681
v 0.10985478 0.01215808 0.01087636
v 0.08826947 0.01212172 0.01087295
v 0.12427482 0.01214772 0.01088200
v 0.10985815 0.01211087 0.00360640
f 5 2 1
f 6 1 3
f 6 3 4
f 6 5 1
f 7 1 2
f 7 3 1
f 7 2 5
f 8 6 4
f 8 5 6
f 9 4 3
f 10 8 4
f 10 4 9
f 11 3 7
f 12 10 9
f 12 8 10
f 12 7 5
f 12 5 8
f 12 11 7
f 12 9 3
f 12 3 11

