# https://github.com/mikedh/trimesh
v 0.22526232 0.00237588 -0.03241955
v 0.22525897 0.00252028 -0.05405586
v 0.22525540 0.01239265 -0.03238620
v 0.19646318 0.01230437 -0.03234659
v 0.19639556 0.00249437 -0.05406432
v 0.22525820 0.01213836 -0.04674264
v 0.19639821 0.00239020 -0.03242712
v 0.22524395 0.01200693 -0.05408326
v 0.19639866 0.01190711 -0.05408117
v 0.21803218 0.01198812 -0.05408255
v 0.19644102 0.01204636 -0.04673278
f 1 3 4
f 5 2 1
f 6 1 2
f 6 3 1
f 7 5 1
f 7 1 4
f 8 6 2
f 8 2 5
f 9 7 4
f 9 5 7
f 9 8 5
f 10 6 8
f 10 4 3
f 10 3 6
f 10 8 9
f 11 10 9
f 11 9 4
f 11 4 10

