# https://github.com/mikedh/trimesh
v -0.22909926 0.00308521 -0.08293173
v -0.22909847 0.00327068 -0.14779788
v -0.22912879 0.01214273 -0.08294797
v -0.25077266 0.01228672 -0.08294178
v -0.25072087 0.00299924 -0.10456509
v -0.22908506 0.01192800 -0.14783362
v -0.25072445 0.00299937 -0.08293377
v -0.22912529 0.01208934 -0.13333688
v -0.25071946 0.01204092 -0.14783438
v -0.25072514 0.00321502 -0.14778323
v -0.25076295 0.01213876 -0.14052784
f 1 3 4
f 5 2 1
f 6 1 2
f 6 3 1
f 7 5 1
f 7 1 4
f 8 4 3
f 8 3 6
f 9 6 2
f 10 7 4
f 10 5 7
f 10 9 2
f 10 2 5
f 11 8 6
f 11 6 9
f 11 4 8
f 11 10 4
f 11 9 10

