# https://github.com/mikedh/trimesh
v 0.10030564 0.04607143 0.03812203
v 0.09863615 0.04526972 0.03452005
v 0.08410468 0.06907192 0.03742526
v 0.06257162 0.08873261 0.03877794
v 0.06397718 0.04647248 0.01113026
v 0.08474439 0.06970894 0.03929767
v 0.09370498 0.05869690 0.03929052
v 0.09341562 0.04757268 0.03665942
v 0.07312712 0.05611425 0.01547587
v 0.07753938 0.07590130 0.03752339
v 0.09798544 0.04944665 0.03711431
v 0.06425820 0.08782761 0.03929463
v 0.06473664 0.08004598 0.03660448
v 0.08042088 0.04510330 0.01497033
v 0.08636754 0.05826643 0.02865331
v 0.06235218 0.06564542 0.01478534
v 0.09881577 0.04987417 0.03899469
v 0.09793337 0.04709531 0.03488342
v 0.06389399 0.08042604 0.02864494
v 0.07791292 0.07661399 0.03921388
v 0.06722254 0.04546384 0.00780154
v 0.08842303 0.06027825 0.03315043
v 0.07970873 0.05154401 0.01766860
v 0.06202124 0.08802375 0.03695816
v 0.09617196 0.04492696 0.03046023
v 0.09290819 0.05358809 0.03306151
v 0.06630992 0.06936299 0.01983061
v 0.06321034 0.04591579 0.00650010
v 0.06446858 0.05633162 0.01079590
v 0.07104123 0.04952953 0.01107165
v 0.07974492 0.04710358 0.01536715
v 0.07754173 0.05804577 0.01999731
v 0.06218269 0.07455133 0.02137076
v 0.07043063 0.08052108 0.03556041
v 0.08869616 0.04904258 0.02445461
v 0.09297521 0.05816717 0.03757507
v 0.09540712 0.04682578 0.03089180
v 0.06396245 0.07390754 0.02209542
v 0.06435298 0.06509048 0.01547814
v 0.06281179 0.05006383 0.00764921
v 0.07322620 0.05163976 0.01324775
v 0.06480311 0.04981454 0.00827810
v 0.06216279 0.08117746 0.02805665
v 0.06374679 0.08711468 0.03752119
v 0.08632082 0.04910916 0.02214185
v 0.06256585 0.05674483 0.01014484
v 0.06696893 0.04756156 0.00837525
f 5 2 1
f 7 3 6
f 8 5 1
f 10 6 3
f 12 7 6
f 13 4 5
f 13 5 8
f 13 12 4
f 13 8 12
f 15 10 3
f 17 11 7
f 17 1 11
f 17 7 12
f 17 12 8
f 17 8 1
f 18 11 1
f 18 1 2
f 20 12 6
f 20 6 10
f 20 10 12
f 22 15 3
f 22 3 7
f 24 5 4
f 24 4 12
f 25 18 2
f 25 21 14
f 25 2 5
f 25 5 21
f 26 11 18
f 26 15 22
f 27 10 15
f 28 21 5
f 28 5 24
f 30 14 21
f 31 9 23
f 31 14 30
f 32 23 9
f 32 27 15
f 32 9 27
f 33 16 24
f 34 12 10
f 34 10 19
f 35 25 14
f 36 7 11
f 36 11 26
f 36 26 22
f 36 22 7
f 37 26 18
f 37 18 25
f 37 25 35
f 37 35 15
f 37 15 26
f 38 19 10
f 38 10 27
f 38 27 33
f 39 27 9
f 39 33 27
f 39 16 33
f 39 29 16
f 39 9 29
f 40 28 24
f 41 30 29
f 41 29 9
f 41 31 30
f 41 9 31
f 42 29 30
f 42 21 28
f 42 28 40
f 43 33 24
f 43 24 19
f 43 38 33
f 43 19 38
f 44 24 12
f 44 12 34
f 44 34 19
f 44 19 24
f 45 32 15
f 45 15 35
f 45 23 32
f 45 31 23
f 45 35 14
f 45 14 31
f 46 40 24
f 46 24 16
f 46 16 29
f 46 42 40
f 46 29 42
f 47 42 30
f 47 30 21
f 47 21 42

