# https://github.com/mikedh/trimesh
v 0.04922373 -0.10471964 0.06487313
v 0.08567162 -0.07482192 0.05857592
v 0.05065169 -0.08533519 0.03179588
v 0.08433318 -0.07399559 0.05416779
v 0.06607821 -0.09179375 0.05058444
v 0.05106097 -0.10123983 0.06562481
v 0.07379913 -0.09036245 0.06564835
v 0.08286202 -0.07705694 0.04798964
v 0.04853344 -0.09257229 0.03255122
v 0.05113022 -0.09946627 0.06242744
v 0.05953344 -0.09873688 0.05976274
v 0.05498994 -0.10170649 0.06571279
v 0.07472921 -0.08579526 0.06454968
v 0.07520428 -0.08741264 0.05745374
v 0.07990864 -0.08499075 0.06359693
v 0.05116835 -0.08162591 0.02110205
v 0.04857205 -0.08339350 0.02158726
v 0.06160212 -0.08727560 0.03529805
v 0.05066992 -0.09876797 0.04593575
v 0.07476000 -0.08806792 0.06571271
v 0.04982203 -0.10328560 0.06554999
v 0.05952289 -0.09957362 0.06436609
v 0.07271007 -0.08498964 0.04634375
v 0.07090759 -0.09196078 0.06207581
v 0.08214482 -0.08067900 0.05498066
v 0.04913660 -0.08217829 0.02064083
v 0.07655858 -0.07758311 0.03868308
v 0.04854378 -0.10403334 0.05951676
v 0.05042312 -0.08510894 0.02429558
v 0.05727142 -0.09629927 0.04838621
v 0.05060300 -0.09197288 0.03314748
v 0.07199275 -0.08906999 0.06555923
v 0.08531288 -0.07652492 0.06047762
v 0.05094113 -0.10390119 0.06541212
v 0.07506465 -0.08498467 0.05073479
v 0.06387953 -0.08952489 0.04182218
v 0.06379367 -0.09423948 0.05290550
v 0.07160124 -0.09199833 0.06468318
v 0.08047566 -0.07698021 0.04355860
v 0.05796752 -0.08173220 0.02542730
v 0.04874707 -0.09956229 0.04581922
v 0.05737094 -0.09851031 0.05508291
v 0.05045506 -0.10317436 0.05976476
v 0.04860245 -0.08580319 0.02403971
v 0.08058117 -0.08361989 0.06316260
v 0.07790265 -0.08328918 0.06354923
v 0.08160919 -0.08253107 0.06201739
v 0.07964140 -0.08284649 0.05515088
v 0.08183081 -0.07827401 0.04850342
v 0.06835318 -0.08516231 0.03970986
v 0.05719275 -0.08516003 0.02880054
v 0.05288903 -0.09856908 0.04830959
v 0.05068194 -0.08280239 0.02203861
v 0.07951279 -0.07820418 0.04414392
v 0.05728613 -0.08296371 0.02635522
v 0.05935029 -0.08723438 0.03318626
v 0.07259219 -0.08280141 0.04176120
f 3 2 4
f 8 4 2
f 10 6 2
f 10 2 3
f 13 2 6
f 17 10 3
f 20 12 7
f 20 6 12
f 20 7 15
f 21 12 6
f 21 17 1
f 21 6 10
f 21 10 17
f 22 7 12
f 22 1 11
f 25 15 14
f 26 3 4
f 26 4 16
f 26 17 3
f 27 16 4
f 28 17 9
f 28 1 17
f 31 18 19
f 32 20 13
f 32 13 6
f 32 6 20
f 33 2 13
f 33 25 8
f 33 8 2
f 34 21 1
f 34 12 21
f 34 22 12
f 34 1 22
f 35 14 5
f 35 5 23
f 36 23 5
f 36 30 19
f 36 19 18
f 37 24 11
f 37 5 14
f 37 14 24
f 37 36 5
f 37 30 36
f 38 7 22
f 38 22 11
f 38 11 24
f 38 15 7
f 38 24 14
f 38 14 15
f 39 27 4
f 39 4 8
f 40 27 18
f 40 16 27
f 40 29 16
f 41 28 9
f 41 31 19
f 41 9 31
f 42 37 11
f 42 30 37
f 43 11 1
f 43 1 28
f 43 42 11
f 43 28 42
f 44 29 9
f 44 9 17
f 45 33 20
f 45 20 15
f 45 15 33
f 46 33 13
f 46 13 20
f 46 20 33
f 47 33 15
f 47 15 25
f 47 25 33
f 48 35 25
f 48 25 14
f 48 14 35
f 49 35 23
f 49 8 25
f 49 25 35
f 50 23 36
f 50 36 18
f 50 18 27
f 51 31 9
f 51 9 29
f 52 42 28
f 52 19 30
f 52 30 42
f 52 41 19
f 52 28 41
f 53 16 29
f 53 29 44
f 53 26 16
f 53 44 17
f 53 17 26
f 54 39 8
f 54 8 49
f 54 49 23
f 54 27 39
f 55 51 29
f 55 29 40
f 55 40 51
f 56 51 40
f 56 40 18
f 56 18 31
f 56 31 51
f 57 54 23
f 57 23 50
f 57 50 27
f 57 27 54

