# https://github.com/mikedh/trimesh
v -0.10150101 0.05118534 0.05842979
v -0.06836317 0.07876800 0.04009035
v -0.09302165 0.06825550 0.06813863
v -0.08373970 0.08073482 0.06277092
v -0.09558760 0.05607954 0.04164912
v -0.07849107 0.07991757 0.05827897
v -0.09153780 0.06898729 0.06670934
v -0.08991677 0.05381471 0.03957895
v -0.07941680 0.07586401 0.04188132
v -0.09774031 0.06470996 0.06212917
v -0.06900097 0.07962913 0.04182140
v -0.08913057 0.07262918 0.06654785
v -0.09887851 0.05213610 0.04341069
v -0.08368483 0.06138541 0.03896915
v -0.09900848 0.06304177 0.06552631
v -0.08619397 0.07141362 0.04642103
v -0.08309252 0.07945601 0.05700843
v -0.09249278 0.07227822 0.06771050
v -0.10083599 0.05093099 0.05634295
v -0.09734316 0.05258416 0.04083482
v -0.09758212 0.05808226 0.04860543
v -0.06915740 0.07742993 0.03927388
v -0.10165195 0.05545810 0.06266518
v -0.09089553 0.06261930 0.04188438
v -0.08398010 0.07600521 0.05067602
v -0.08859361 0.07597183 0.06195695
v -0.09102239 0.07296438 0.06778511
v -0.09402443 0.07038455 0.06815359
v -0.10105059 0.05204851 0.04804649
v -0.09800942 0.05392570 0.04382524
v -0.09528013 0.06258091 0.05061050
v -0.09484474 0.06635415 0.06800133
v -0.08181096 0.07365891 0.04206699
v -0.08595112 0.07874468 0.06283559
v -0.09081747 0.07393190 0.06401901
v -0.08438312 0.07843156 0.05744114
v -0.08621086 0.07370708 0.05081394
v -0.09137848 0.07377501 0.06679431
v -0.09783691 0.06574915 0.06655488
v -0.10164516 0.05242883 0.05004127
v -0.10016166 0.05382649 0.04844211
v -0.10075602 0.05422301 0.05040378
v -0.09068330 0.06476546 0.04431611
v -0.09068421 0.07149656 0.05755864
v -0.09526975 0.06447342 0.06645666
v -0.09535718 0.06586067 0.06777906
v -0.08937527 0.07588886 0.06506640
v -0.09538798 0.05811849 0.04402850
f 7 1 2
f 7 3 1
f 7 6 3
f 7 2 6
f 8 2 1
f 11 6 2
f 11 4 6
f 11 2 9
f 12 6 4
f 12 3 6
f 17 11 9
f 17 4 11
f 19 13 8
f 19 8 1
f 20 8 13
f 20 14 8
f 20 9 14
f 22 14 9
f 22 9 2
f 22 2 8
f 22 8 14
f 24 20 5
f 25 17 9
f 27 12 4
f 27 3 12
f 28 27 18
f 28 3 27
f 29 19 1
f 29 13 19
f 30 20 13
f 30 5 20
f 30 21 5
f 30 13 29
f 32 23 1
f 32 3 28
f 33 9 20
f 33 20 24
f 33 25 9
f 33 16 25
f 35 26 10
f 36 17 25
f 36 25 26
f 36 26 34
f 36 34 4
f 36 4 17
f 37 26 25
f 37 25 16
f 37 16 31
f 38 27 4
f 38 18 27
f 38 28 18
f 39 10 15
f 39 28 38
f 39 38 35
f 39 35 10
f 40 29 1
f 40 1 23
f 40 23 15
f 40 15 10
f 41 30 29
f 41 21 30
f 42 31 21
f 42 10 31
f 42 40 10
f 42 21 41
f 42 41 29
f 42 29 40
f 43 31 16
f 43 24 5
f 43 33 24
f 43 16 33
f 44 31 10
f 44 10 26
f 44 37 31
f 44 26 37
f 45 32 1
f 45 1 3
f 45 3 32
f 46 15 23
f 46 23 32
f 46 39 15
f 46 32 28
f 46 28 39
f 47 38 4
f 47 4 34
f 47 34 26
f 47 26 35
f 47 35 38
f 48 43 5
f 48 5 21
f 48 21 31
f 48 31 43

