# https://github.com/mikedh/trimesh
v -0.01859062 -0.11342312 0.06432007
v -0.01681324 -0.10598380 0.03942162
v -0.01747139 -0.09991841 0.03765001
v -0.04754079 -0.09050882 0.03777381
v -0.04357658 -0.10330656 0.05069146
v -0.04363171 -0.09182832 0.03679962
v -0.01904291 -0.11015887 0.06360377
v -0.01690426 -0.11325085 0.05939300
v -0.01999098 -0.09883317 0.03686693
v -0.04641746 -0.09701846 0.03933621
v -0.01793325 -0.10888215 0.06029706
v -0.04826064 -0.10086179 0.06292313
v -0.01675078 -0.10815853 0.04386376
v -0.03267429 -0.11019638 0.06197197
v -0.03031315 -0.10313724 0.03953888
v -0.02475549 -0.11158898 0.06817114
v -0.04697420 -0.10531230 0.06339312
v -0.04856940 -0.09220368 0.04137692
v -0.02031074 -0.10906525 0.06225313
v -0.02339705 -0.11252220 0.06189569
v -0.03711208 -0.10103246 0.03959734
v -0.01905042 -0.10564019 0.03960218
v -0.03499831 -0.10558586 0.04832047
v -0.02120155 -0.11078979 0.06581698
v -0.04584861 -0.10343281 0.05501804
v -0.04141220 -0.10567493 0.05511927
v -0.03037329 -0.10985281 0.06740138
v -0.02986171 -0.11141004 0.06750150
v -0.02062690 -0.11336839 0.06574610
v -0.03720203 -0.10332013 0.04414430
v -0.01906176 -0.10776650 0.04398301
v -0.02580565 -0.11009205 0.05517476
v -0.02676590 -0.11023746 0.06765838
v -0.04619301 -0.09830155 0.04184361
v -0.04396754 -0.10574746 0.05947736
v -0.03220070 -0.11070537 0.06663578
v -0.02381450 -0.11284114 0.06702266
v -0.01681457 -0.11062216 0.05048298
v -0.02124581 -0.11243664 0.05966251
v -0.04468588 -0.10607549 0.06298671
v -0.02469272 -0.11163212 0.06812982
v -0.01894566 -0.11017524 0.05050541
f 9 3 2
f 9 6 4
f 9 4 3
f 10 4 6
f 11 3 4
f 11 8 3
f 11 7 1
f 11 1 8
f 12 11 4
f 13 2 3
f 13 3 8
f 15 9 2
f 15 6 9
f 18 12 4
f 18 4 10
f 18 17 12
f 18 10 17
f 19 12 7
f 19 7 11
f 19 11 12
f 21 10 6
f 21 6 15
f 22 15 2
f 22 2 13
f 24 1 7
f 24 7 12
f 26 23 14
f 27 12 17
f 28 27 17
f 28 16 27
f 28 14 20
f 29 20 8
f 29 8 1
f 29 24 16
f 29 1 24
f 30 10 21
f 30 21 15
f 30 26 5
f 30 23 26
f 31 22 13
f 31 15 22
f 31 30 15
f 31 23 30
f 32 20 14
f 32 14 23
f 33 24 12
f 33 16 24
f 33 27 16
f 33 12 27
f 34 25 17
f 34 17 10
f 34 5 25
f 34 30 5
f 34 10 30
f 35 25 5
f 35 17 25
f 35 5 26
f 35 26 14
f 36 28 17
f 36 17 14
f 36 14 28
f 37 28 20
f 37 20 29
f 37 16 28
f 38 31 13
f 38 13 8
f 39 8 20
f 39 20 32
f 39 38 8
f 40 35 14
f 40 14 17
f 40 17 35
f 41 37 29
f 41 29 16
f 41 16 37
f 42 32 23
f 42 23 31
f 42 31 38
f 42 39 32
f 42 38 39

