# https://github.com/mikedh/trimesh
v 0.06430774 0.05626620 0.01560756
v 0.06288290 0.05475730 0.00941285
v 0.06218269 0.07455133 0.02137076
v 0.03873384 0.07736452 0.01801316
v 0.04275748 0.05548466 0.00866845
v 0.04188899 0.07233185 0.01056429
v 0.06377297 0.07649878 0.03088595
v 0.06453625 0.05902053 0.01734863
v 0.05741335 0.06745245 0.01334126
v 0.04215036 0.07487203 0.01223200
v 0.04252121 0.05508805 0.00364899
v 0.06202520 0.07724267 0.03009846
v 0.06448528 0.07517905 0.02989874
v 0.06188351 0.06728141 0.01554928
v 0.05100498 0.06328797 0.00876675
v 0.03820239 0.07635029 0.01700167
v 0.05089939 0.07185690 0.01327496
v 0.05135783 0.05469028 0.00595320
v 0.06221174 0.05862369 0.01083404
v 0.04205127 0.06793659 0.00823472
v 0.04632286 0.07418035 0.01307335
v 0.05755798 0.06307290 0.01095757
v 0.05730888 0.07396366 0.01771484
v 0.05825547 0.05464130 0.00772630
v 0.04438887 0.06135130 0.00625174
v 0.04409600 0.06769664 0.00875282
v 0.04219284 0.06153518 0.00584754
v 0.04423392 0.07196119 0.01109373
v 0.05295116 0.07406017 0.01556902
v 0.05807094 0.05676439 0.00841663
v 0.05112184 0.05673709 0.00649183
f 5 2 1
f 7 5 1
f 7 4 5
f 8 1 2
f 8 2 3
f 10 4 3
f 12 7 3
f 12 3 4
f 12 4 7
f 13 7 1
f 13 1 8
f 13 8 3
f 13 3 7
f 14 3 2
f 16 10 6
f 16 4 10
f 16 11 5
f 16 5 4
f 18 5 11
f 19 14 2
f 19 9 14
f 20 16 6
f 21 6 10
f 22 17 9
f 22 15 17
f 22 9 19
f 22 19 2
f 23 14 9
f 23 3 14
f 24 2 5
f 24 5 18
f 24 18 11
f 25 20 15
f 26 17 15
f 26 15 20
f 27 11 16
f 27 16 20
f 27 25 11
f 27 20 25
f 28 21 17
f 28 6 21
f 28 17 26
f 28 26 20
f 28 20 6
f 29 23 9
f 29 9 17
f 29 17 21
f 29 21 10
f 29 10 3
f 29 3 23
f 30 22 2
f 30 2 24
f 30 15 22
f 30 25 15
f 31 24 11
f 31 11 25
f 31 30 24
f 31 25 30

