# https://github.com/mikedh/trimesh
v 0.11922619 0.01065461 0.06308802
v 0.11901889 0.01118556 0.06191553
v 0.10940700 0.04725690 0.06486408
v 0.10153237 0.05542997 0.06022203
v 0.11321836 0.01171362 0.05376895
v 0.10551704 0.04769686 0.06458476
v 0.11831296 0.01916103 0.06542968
v 0.11737709 0.01120890 0.05454176
v 0.10600125 0.05318802 0.06409485
v 0.11660007 0.01029835 0.06203184
v 0.10233000 0.05158017 0.06061383
v 0.11881889 0.01648631 0.06422953
v 0.11627091 0.02647401 0.06586510
v 0.10507935 0.04038849 0.05330879
v 0.10714078 0.05132462 0.06467296
v 0.10244179 0.05466736 0.06157072
v 0.11606121 0.02144172 0.06557962
v 0.10297032 0.05167076 0.06239356
v 0.11856207 0.01561476 0.06204541
v 0.11409218 0.02958130 0.05462197
v 0.11197014 0.01687163 0.05371254
v 0.10293410 0.04622160 0.05415384
v 0.10685766 0.05168636 0.06191073
v 0.10426886 0.05416706 0.06308652
v 0.11475181 0.01920672 0.06371336
v 0.11498749 0.02712125 0.06571645
v 0.11717553 0.01916245 0.06531149
v 0.11375590 0.03362683 0.05910334
v 0.10763502 0.04521956 0.05488207
v 0.10532735 0.05407484 0.06138376
v 0.11589380 0.02725920 0.06192807
v 0.11147893 0.04038202 0.05976936
v 0.11134049 0.03736380 0.05478715
v 0.10913149 0.04705581 0.06205259
f 8 2 1
f 10 8 1
f 10 5 8
f 11 5 10
f 12 7 1
f 12 1 2
f 15 9 6
f 15 13 3
f 15 6 13
f 17 7 13
f 18 11 10
f 18 10 6
f 18 16 4
f 18 4 11
f 19 12 2
f 19 2 8
f 20 12 19
f 20 19 8
f 21 8 5
f 21 5 14
f 21 20 8
f 21 14 20
f 22 11 4
f 22 14 5
f 22 5 11
f 23 15 3
f 23 9 15
f 24 4 16
f 24 16 18
f 24 18 6
f 24 6 9
f 25 17 6
f 25 6 10
f 25 10 17
f 26 17 13
f 26 13 6
f 26 6 17
f 27 17 10
f 27 10 1
f 27 1 7
f 27 7 17
f 28 3 13
f 29 14 22
f 29 22 4
f 30 9 23
f 30 24 9
f 30 4 24
f 30 29 4
f 30 23 29
f 31 28 13
f 31 13 7
f 31 7 12
f 31 12 20
f 31 20 28
f 32 3 28
f 33 20 14
f 33 14 29
f 33 32 28
f 33 28 20
f 34 23 3
f 34 3 32
f 34 32 33
f 34 33 29
f 34 29 23

