# https://github.com/mikedh/trimesh
v -0.10981169 0.03145776 0.04596872
v -0.07454545 0.03203001 0.00914532
v -0.10556488 0.03341547 0.04824660
v -0.10164516 0.05242883 0.05004127
v -0.09087725 0.04238434 0.02439000
v -0.09665068 0.05343613 0.04915512
v -0.11122526 0.03200612 0.04985982
v -0.10075669 0.03147989 0.03027757
v -0.07620041 0.03288948 0.01513047
v -0.08871573 0.05293239 0.02896658
v -0.10193991 0.04921325 0.04644843
v -0.10973586 0.03578721 0.05041196
v -0.08466042 0.03156556 0.01497691
v -0.09073269 0.05441799 0.04131169
v -0.09519601 0.04467172 0.03088216
v -0.07452187 0.04578514 0.01351729
v -0.10911062 0.03559102 0.04850424
v -0.09972830 0.05126700 0.04410609
v -0.10323268 0.04980889 0.05031811
v -0.08900710 0.03593073 0.01986482
v -0.07630791 0.03185240 0.00999489
v -0.10501699 0.03133995 0.03698926
v -0.07628563 0.04701411 0.02009542
v -0.09119450 0.05148194 0.03067768
v -0.09772998 0.03587740 0.02878270
v -0.08434370 0.04492544 0.01982751
v -0.10199103 0.04486510 0.04206524
v -0.10915113 0.03331306 0.04623857
v -0.07592858 0.03606984 0.01089579
v -0.09748027 0.04011343 0.03089811
v -0.07395521 0.04314838 0.01218552
v -0.09308383 0.05134324 0.03307775
v -0.07787787 0.04498871 0.01520178
v -0.08006767 0.04256470 0.01564935
v -0.10436580 0.03349274 0.03732220
v -0.07995645 0.03591459 0.01327648
v -0.10020992 0.03356590 0.03068191
v -0.09971284 0.04686815 0.03976697
v -0.07404816 0.03634038 0.01005671
v -0.07578344 0.04279497 0.01310083
v -0.08447171 0.03360935 0.01550984
v -0.07771169 0.04047704 0.01337757
f 9 6 3
f 9 3 7
f 9 7 1
f 9 1 2
f 12 7 3
f 12 3 6
f 14 10 4
f 14 4 6
f 17 7 12
f 18 11 4
f 18 4 10
f 19 12 6
f 19 6 4
f 19 4 11
f 19 17 12
f 19 11 17
f 20 13 8
f 21 2 1
f 21 1 13
f 22 13 1
f 22 8 13
f 23 14 6
f 23 6 9
f 23 16 10
f 23 10 14
f 24 10 5
f 24 5 15
f 25 20 8
f 25 5 20
f 26 5 10
f 26 20 5
f 27 11 18
f 28 1 7
f 28 7 17
f 28 27 1
f 28 17 11
f 28 11 27
f 29 2 21
f 30 15 5
f 30 5 25
f 31 23 9
f 31 16 23
f 32 18 10
f 32 10 24
f 32 24 15
f 33 26 10
f 33 10 16
f 34 20 26
f 34 26 33
f 35 22 1
f 35 1 27
f 36 29 21
f 36 21 13
f 37 30 25
f 37 25 8
f 37 35 30
f 37 8 22
f 37 22 35
f 38 15 30
f 38 32 15
f 38 27 18
f 38 18 32
f 38 35 27
f 38 30 35
f 39 31 9
f 39 9 2
f 39 2 29
f 39 29 31
f 40 33 16
f 40 16 31
f 41 13 20
f 41 20 34
f 41 36 13
f 41 34 36
f 42 34 33
f 42 33 40
f 42 36 34
f 42 29 36
f 42 40 31
f 42 31 29

