# https://github.com/mikedh/trimesh
v -0.07634434 -0.01883821 0.01232409
v -0.07451340 -0.01837941 0.00702461
v -0.07617847 0.02109459 0.01256394
v -0.08430863 0.02073798 0.01719945
v -0.08270398 -0.01822365 0.01089624
v -0.08451052 -0.01851720 0.01694552
v -0.07623664 0.02041912 0.00799090
v -0.08336222 0.02047825 0.01180693
v -0.07444176 0.02056405 0.00718757
v -0.07818464 0.01815869 0.00863839
v -0.08082078 0.02108408 0.01494851
v -0.08069114 0.02040116 0.01022894
v -0.07840160 -0.01600196 0.00860873
v -0.08263086 0.01800655 0.01095231
v -0.07631553 -0.01824459 0.00780043
f 1 2 3
f 1 3 4
f 5 2 1
f 6 5 1
f 6 1 4
f 8 6 4
f 8 5 6
f 9 3 2
f 10 9 2
f 10 7 9
f 11 8 4
f 11 4 3
f 11 9 8
f 11 3 9
f 12 9 7
f 12 8 9
f 12 7 10
f 13 10 2
f 14 5 8
f 14 12 10
f 14 8 12
f 14 13 5
f 14 10 13
f 15 13 2
f 15 2 5
f 15 5 13

