# https://github.com/mikedh/trimesh
v -0.04322744 -0.10597299 0.06262232
v -0.04641746 -0.09701846 0.03933621
v -0.04818156 -0.08952823 0.03678001
v -0.08337202 -0.07276735 0.05358873
v -0.07066938 -0.09177891 0.06210518
v -0.07194689 -0.08223627 0.04098974
v -0.04923946 -0.10152041 0.06620749
v -0.06193770 -0.09422379 0.05061938
v -0.05719950 -0.09168705 0.03982457
v -0.08221977 -0.07182612 0.04942990
v -0.07953225 -0.08045705 0.05077999
v -0.04410968 -0.10362223 0.06246327
v -0.05496705 -0.10127299 0.06687651
v -0.04611235 -0.10185481 0.05026354
v -0.05739898 -0.08448009 0.03720950
v -0.06817082 -0.08724805 0.04410434
v -0.05729599 -0.09401746 0.04411531
v -0.08009471 -0.08425209 0.06493238
v -0.04712921 -0.10307454 0.06559557
v -0.05054688 -0.10324092 0.06185951
v -0.05918156 -0.08368132 0.03771649
v -0.06630703 -0.08736881 0.04200531
v -0.07304390 -0.08316971 0.04391245
v -0.07063525 -0.08737366 0.04847437
v -0.04825085 -0.09632107 0.03959123
v -0.05951283 -0.09171644 0.04209484
v -0.07958814 -0.08273680 0.05749297
v -0.07139334 -0.09243336 0.06716977
v -0.07608444 -0.08516776 0.06615214
v -0.04514879 -0.10344913 0.06375944
v -0.05106033 -0.10327222 0.06690089
v -0.06412144 -0.09442281 0.05491406
v -0.04821545 -0.10311957 0.05760294
v -0.07105415 -0.08348565 0.04171448
v -0.05277884 -0.09620890 0.04412464
v -0.08340377 -0.07527407 0.05804818
v -0.05499460 -0.10120221 0.06396303
v -0.07453217 -0.08827709 0.06803182
v -0.04658296 -0.10466715 0.06515040
v -0.05240725 -0.10130836 0.06819542
v -0.04622040 -0.10396538 0.05736466
v -0.08116985 -0.08181384 0.06374794
v -0.05273051 -0.10046058 0.06801869
v -0.07332664 -0.09048617 0.06805004
v -0.04433203 -0.10557454 0.06345650
v -0.07844493 -0.08408834 0.06574985
v -0.07769564 -0.08648791 0.06667554
f 1 2 3
f 7 3 4
f 9 3 2
f 10 4 3
f 11 10 6
f 11 4 10
f 12 1 3
f 12 3 7
f 14 2 1
f 15 9 6
f 15 3 9
f 15 10 3
f 17 14 8
f 21 15 6
f 21 6 10
f 21 10 15
f 22 6 9
f 23 11 6
f 24 16 8
f 24 23 16
f 24 11 23
f 25 9 2
f 25 2 14
f 26 17 8
f 26 8 16
f 26 16 22
f 26 22 9
f 26 25 17
f 26 9 25
f 27 5 18
f 27 24 5
f 27 11 24
f 28 18 5
f 30 12 7
f 30 7 19
f 30 19 1
f 30 1 12
f 31 20 1
f 32 8 20
f 32 24 8
f 32 5 24
f 32 28 5
f 33 20 8
f 33 8 14
f 34 22 16
f 34 6 22
f 34 23 6
f 34 16 23
f 35 25 14
f 35 14 17
f 35 17 25
f 36 4 11
f 36 7 4
f 37 13 28
f 37 31 13
f 37 20 31
f 37 32 20
f 37 28 32
f 40 28 13
f 40 13 31
f 40 39 19
f 40 31 39
f 41 33 14
f 41 14 1
f 41 1 20
f 41 20 33
f 42 27 18
f 42 36 11
f 42 11 27
f 43 36 29
f 43 7 36
f 43 29 38
f 43 38 40
f 43 40 19
f 43 19 7
f 44 40 38
f 44 28 40
f 45 39 31
f 45 31 1
f 45 1 19
f 45 19 39
f 46 29 36
f 46 36 42
f 46 38 29
f 46 42 18
f 47 44 38
f 47 18 28
f 47 28 44
f 47 46 18
f 47 38 46

