# https://github.com/mikedh/trimesh
v 0.05920908 -0.06264135 0.01664213
v 0.05961877 -0.05907139 0.01523385
v 0.00116526 -0.05084942 0.00727434
v 0.05796074 -0.06135597 0.01020189
v 0.04621655 -0.04968081 0.00065950
v 0.00116781 -0.06234980 0.00131052
v 0.05919390 -0.05133214 0.01114705
v 0.05761883 -0.06309535 0.01585740
v 0.00135665 -0.06280434 0.00806362
v 0.03054551 -0.06000894 0.00132460
v 0.00114265 -0.05082708 0.00182006
v 0.05599765 -0.05022962 0.00582443
v 0.05864766 -0.05059296 0.00653024
v 0.00356973 -0.06258760 0.00122924
v 0.00122514 -0.06027175 0.00775076
v 0.03711103 -0.05778149 0.00132431
v 0.05954432 -0.05437834 0.01255701
v 0.05798752 -0.05673147 0.00831212
v 0.05329606 -0.06138076 0.00851157
v 0.04100980 -0.05547513 0.00142467
f 1 2 3
f 4 2 1
f 7 3 2
f 8 4 1
f 9 1 3
f 9 8 1
f 11 6 3
f 11 3 5
f 12 5 3
f 12 3 7
f 13 2 4
f 13 12 7
f 13 5 12
f 14 5 10
f 14 11 5
f 14 6 11
f 14 9 6
f 14 8 9
f 15 9 3
f 15 3 6
f 15 6 9
f 16 10 5
f 17 13 7
f 17 7 2
f 17 2 13
f 18 13 4
f 18 4 5
f 18 5 13
f 19 4 8
f 19 8 14
f 19 14 10
f 19 10 16
f 19 5 4
f 20 19 16
f 20 16 5
f 20 5 19

