# https://github.com/mikedh/trimesh
v -0.04027671 -0.05071360 0.00903362
v -0.04011224 -0.05051304 0.00343814
v -0.04041344 0.02535617 0.00716059
v -0.05194743 0.02534730 0.00779708
v -0.05192547 -0.03465973 0.00804999
v -0.05183227 0.02529473 0.00243092
v -0.04705960 -0.05053634 0.00992096
v -0.04037206 0.02533483 0.00201494
v -0.05169795 -0.03447513 0.00298807
v -0.04702953 -0.05051903 0.00469423
v -0.04684014 -0.04573473 0.00371910
v -0.04219576 -0.05032025 0.00369939
f 1 2 3
f 6 5 4
f 7 1 3
f 7 3 4
f 7 4 5
f 8 3 2
f 8 6 4
f 8 4 3
f 9 5 6
f 9 8 2
f 9 6 8
f 10 2 1
f 10 1 7
f 10 7 5
f 10 5 9
f 11 10 9
f 11 9 2
f 12 11 2
f 12 2 10
f 12 10 11

