# https://github.com/mikedh/trimesh
v -0.07083730 0.02085555 0.01073102
v -0.05875952 0.03220641 0.00386635
v -0.05905521 0.03238791 0.00916957
v -0.07535220 0.04635830 0.01911470
v -0.07374676 0.03161765 0.00871494
v -0.05918355 0.04641530 0.01157304
v -0.06968637 0.02053644 0.00540291
v -0.07608621 0.02335639 0.01287410
v -0.05820467 0.04321507 0.00574179
v -0.06483127 0.03633088 0.00630908
v -0.07529027 0.02081696 0.01209228
v -0.07602026 0.04212330 0.01773813
v -0.07362531 0.04517438 0.01275654
v -0.07157357 0.02270890 0.00630395
v -0.07168984 0.02046702 0.00612739
v -0.07444176 0.02056405 0.00718757
v -0.07182797 0.04719828 0.01728334
v -0.05862519 0.04590828 0.00655468
v -0.07357178 0.04059816 0.01105139
v -0.06257897 0.04078601 0.00651016
v -0.06202650 0.04679121 0.01257083
v -0.06467106 0.04527326 0.00851618
v -0.06022097 0.04311432 0.00633242
v -0.07131951 0.03617305 0.00877748
v -0.06690890 0.04291228 0.00869092
f 1 3 4
f 6 4 3
f 7 2 3
f 7 3 1
f 9 6 3
f 9 3 2
f 10 2 7
f 10 9 2
f 11 1 4
f 11 4 8
f 12 8 4
f 13 12 4
f 14 10 7
f 14 5 10
f 15 7 1
f 15 1 11
f 15 14 7
f 16 12 5
f 16 8 12
f 16 5 14
f 16 14 15
f 16 15 11
f 16 11 8
f 17 13 4
f 17 4 6
f 18 6 9
f 18 13 17
f 19 5 12
f 19 12 13
f 20 9 10
f 21 18 17
f 21 17 6
f 21 6 18
f 22 13 18
f 22 18 20
f 23 20 18
f 23 18 9
f 23 9 20
f 24 10 5
f 24 5 19
f 25 19 13
f 25 13 22
f 25 24 19
f 25 22 20
f 25 20 10
f 25 10 24

