# https://github.com/mikedh/trimesh
v 0.03258227 -0.11122841 0.06549328
v 0.04913660 -0.08217829 0.02064083
v 0.05062174 -0.10073037 0.06466060
v 0.03337914 -0.08283825 0.01533821
v 0.03286401 -0.10157785 0.03709935
v 0.05065169 -0.08533519 0.03179588
v 0.03330349 -0.10737496 0.06465991
v 0.03311486 -0.08421718 0.01643139
v 0.04845030 -0.09886894 0.04378441
v 0.03989012 -0.08186085 0.01653794
v 0.03406551 -0.08469170 0.02268971
v 0.03283629 -0.09715090 0.03043065
v 0.04922373 -0.10471964 0.06487313
v 0.03502017 -0.10775941 0.05503346
v 0.04847761 -0.08981036 0.02866217
v 0.04652963 -0.08164627 0.01892229
v 0.03948822 -0.08327853 0.01754609
v 0.03284342 -0.10378650 0.04147762
v 0.04608436 -0.10593256 0.06173726
v 0.04832456 -0.09433392 0.03511052
v 0.03936025 -0.08981323 0.02419060
v 0.03275339 -0.10832869 0.05496271
v 0.04160004 -0.09865756 0.03732272
v 0.04620285 -0.10088229 0.04631793
v 0.04642308 -0.10585559 0.06350511
v 0.03430101 -0.11055415 0.06378373
v 0.04829824 -0.10349393 0.05737768
v 0.03718860 -0.09444991 0.02863290
v 0.04611992 -0.08518347 0.02217351
v 0.03472417 -0.10116182 0.03735139
v 0.04601643 -0.09412448 0.03307379
v 0.03475589 -0.10331109 0.04170097
v 0.04389010 -0.10548220 0.05768671
v 0.03286951 -0.11105835 0.06408093
v 0.04596975 -0.10312334 0.05281430
v 0.04386839 -0.09193807 0.02876715
v 0.04857205 -0.08339350 0.02158726
v 0.04611872 -0.08287322 0.01986838
v 0.03503637 -0.09673483 0.03072677
v 0.04156583 -0.10083713 0.04172823
f 7 1 3
f 8 7 4
f 8 1 7
f 9 6 3
f 11 3 6
f 11 7 3
f 11 4 7
f 11 10 4
f 12 1 8
f 13 9 3
f 13 3 1
f 15 2 6
f 16 6 2
f 16 11 6
f 16 10 11
f 17 8 4
f 17 4 10
f 17 10 16
f 18 12 5
f 18 1 12
f 20 15 6
f 20 6 9
f 21 8 17
f 22 18 14
f 22 1 18
f 23 20 9
f 25 19 13
f 25 13 1
f 26 14 19
f 26 25 1
f 26 19 25
f 27 9 13
f 27 13 19
f 27 24 9
f 28 12 8
f 28 8 21
f 29 21 17
f 30 18 5
f 31 15 20
f 31 20 23
f 32 24 14
f 32 14 18
f 32 30 23
f 32 18 30
f 33 19 14
f 34 22 14
f 34 14 26
f 34 26 1
f 34 1 22
f 35 27 19
f 35 24 27
f 35 19 33
f 35 33 14
f 35 14 24
f 36 28 21
f 36 31 28
f 36 15 31
f 36 29 15
f 36 21 29
f 37 29 2
f 37 2 15
f 37 15 29
f 38 16 2
f 38 2 29
f 38 29 17
f 38 17 16
f 39 23 30
f 39 31 23
f 39 28 31
f 39 12 28
f 39 30 5
f 39 5 12
f 40 32 23
f 40 23 9
f 40 9 24
f 40 24 32

