# https://github.com/mikedh/trimesh
v 0.04263217 0.04615318 0.00744332
v 0.04365706 0.04705803 0.00100978
v 0.04242673 0.07556760 0.01804851
v 0.02217787 0.07962489 0.01565410
v 0.01961722 0.04612251 0.00204433
v 0.03294489 0.07669988 0.01081002
v 0.01956351 0.04614581 0.00713364
v 0.04356742 0.07059808 0.01505738
v 0.04049200 0.04625970 0.00188585
v 0.03350188 0.07852517 0.01717003
v 0.01934919 0.07505755 0.00797458
v 0.04215036 0.07487203 0.01223200
v 0.01946159 0.07773230 0.00931590
v 0.03472846 0.05742353 0.00135037
v 0.01965286 0.07861753 0.01466777
v 0.02685814 0.05933142 0.00148387
v 0.04146562 0.05356033 0.00101723
v 0.02622504 0.07467317 0.00850541
v 0.01960237 0.06379787 0.00329827
v 0.04188899 0.07233185 0.01056429
v 0.03528836 0.07211481 0.00860291
v 0.01944823 0.07044411 0.00600338
v 0.03953873 0.07432116 0.01104066
f 7 1 3
f 7 3 4
f 7 5 1
f 8 1 2
f 8 3 1
f 9 5 2
f 9 2 1
f 9 1 5
f 10 6 4
f 10 4 3
f 11 5 7
f 12 3 8
f 12 10 3
f 12 6 10
f 12 8 2
f 13 4 6
f 15 13 11
f 15 11 7
f 15 7 4
f 15 4 13
f 16 2 5
f 16 11 14
f 17 16 14
f 17 2 16
f 18 13 6
f 18 14 11
f 18 11 13
f 19 16 5
f 20 12 2
f 20 2 17
f 21 18 6
f 21 14 18
f 21 20 17
f 21 17 14
f 22 19 5
f 22 5 11
f 22 11 16
f 22 16 19
f 23 6 12
f 23 12 20
f 23 21 6
f 23 20 21

