# https://github.com/mikedh/trimesh
v 0.06424930 0.07733824 0.03260359
v 0.06284777 0.07544369 0.02272167
v 0.06202124 0.08802375 0.03695816
v 0.01959883 0.10368550 0.03583258
v 0.01946159 0.07773230 0.00931590
v 0.03944155 0.09205558 0.02651556
v 0.06405251 0.07920035 0.03507542
v 0.04215036 0.07487203 0.01223200
v 0.05484225 0.08276047 0.02431873
v 0.04423524 0.09736991 0.03690295
v 0.02588471 0.08981797 0.01969590
v 0.03063700 0.10182560 0.03675783
v 0.01980815 0.07973581 0.01543669
v 0.05786386 0.07479995 0.01872486
v 0.05931384 0.08722517 0.03307237
v 0.04624291 0.08283468 0.01975954
v 0.01909444 0.09900763 0.02833715
v 0.03276192 0.08304864 0.01537687
v 0.03478008 0.09850952 0.03295152
v 0.02030283 0.09744709 0.03389949
v 0.06227926 0.07683485 0.02348395
v 0.04812244 0.09171398 0.03085244
v 0.04613257 0.08724330 0.02419076
v 0.04884794 0.07635573 0.01545700
v 0.05066287 0.08062583 0.01982909
v 0.01930456 0.08584548 0.01492219
v 0.03283163 0.09430770 0.02656085
v 0.01931351 0.10181803 0.03256485
v 0.01932718 0.07939220 0.01023176
v 0.05490230 0.08055334 0.02206533
v 0.06164045 0.08725506 0.03534771
v 0.05286361 0.08938763 0.03090571
v 0.03700732 0.09633664 0.03089047
v 0.04885947 0.07496874 0.01450661
v 0.04400244 0.07861292 0.01544221
v 0.02366375 0.08543773 0.01536605
v 0.02356517 0.09644099 0.02640956
v 0.02135141 0.09867984 0.02853257
v 0.02367643 0.10112426 0.03272050
v 0.03344154 0.07604381 0.01049149
v 0.05735043 0.07629775 0.01973187
v 0.04384859 0.09645084 0.03516844
v 0.04167520 0.07660658 0.01321529
v 0.02602022 0.07890985 0.01094255
v 0.02575459 0.09191095 0.02193685
v 0.03046457 0.10097309 0.03512783
v 0.02625645 0.07729309 0.00997814
f 1 2 3
f 7 1 3
f 8 1 5
f 12 7 3
f 12 4 7
f 12 3 10
f 13 5 1
f 13 1 7
f 14 2 1
f 14 1 8
f 18 11 6
f 18 6 16
f 19 12 10
f 20 13 7
f 20 7 4
f 20 4 13
f 21 2 14
f 21 9 15
f 23 16 6
f 23 6 22
f 25 24 16
f 25 14 24
f 25 16 23
f 26 17 11
f 27 6 11
f 28 17 13
f 28 13 4
f 29 5 13
f 29 13 17
f 29 17 26
f 30 9 21
f 30 25 23
f 30 23 9
f 31 21 15
f 31 15 3
f 31 3 2
f 31 2 21
f 32 15 9
f 32 23 22
f 32 9 23
f 32 22 10
f 32 10 3
f 32 3 15
f 33 22 6
f 33 27 19
f 33 6 27
f 34 24 14
f 34 14 8
f 35 18 16
f 35 16 24
f 36 26 11
f 36 11 18
f 37 11 17
f 38 19 27
f 38 37 17
f 38 27 37
f 39 28 4
f 39 4 12
f 39 19 38
f 39 38 17
f 39 17 28
f 40 8 5
f 41 30 21
f 41 21 14
f 41 14 25
f 41 25 30
f 42 33 19
f 42 19 10
f 42 10 22
f 42 22 33
f 43 34 8
f 43 24 34
f 43 35 24
f 43 8 40
f 43 40 18
f 43 18 35
f 44 29 26
f 44 26 36
f 44 36 18
f 44 18 40
f 45 37 27
f 45 27 11
f 45 11 37
f 46 39 12
f 46 12 19
f 46 19 39
f 47 44 40
f 47 40 5
f 47 5 29
f 47 29 44

