# https://github.com/mikedh/trimesh
v 0.03349791 0.10167097 0.04724164
v 0.03377831 0.10370533 0.05355833
v -0.01805378 0.10830477 0.05827140
v -0.00870593 0.11604432 0.06534992
v 0.01905452 0.11021602 0.05057357
v 0.03265420 0.10917843 0.06571960
v 0.03374580 0.10642271 0.06231662
v -0.01783930 0.10566862 0.04902241
v -0.01855493 0.11155287 0.06417038
v 0.02600528 0.11278883 0.06405114
v 0.03297820 0.10627107 0.04791509
v -0.01807966 0.10628777 0.05118396
v -0.01684219 0.11050213 0.05044338
v -0.00294409 0.11463014 0.06786661
v -0.01809802 0.10979534 0.06247542
v 0.01173451 0.11470139 0.06197656
v 0.03284124 0.11054183 0.06194569
v 0.00114339 0.10634476 0.04721337
v -0.01839836 0.11352086 0.06408942
v 0.00258765 0.11577324 0.06782884
v 0.02125004 0.11250377 0.05969885
v 0.00115462 0.11069238 0.04805758
v 0.03209627 0.11135734 0.06563110
v 0.02252329 0.10371497 0.04646321
v -0.01191421 0.11492689 0.06241407
v -0.00293536 0.11574568 0.06791677
v 0.01059109 0.11522223 0.06402033
v 0.00247362 0.11455771 0.06787227
v 0.01469981 0.11016293 0.04832513
v 0.02618731 0.11282443 0.06523644
v -0.01046594 0.11558396 0.06410228
v -0.01667189 0.11254450 0.05723346
v -0.01468856 0.11238192 0.05515203
f 7 1 2
f 7 3 1
f 11 2 1
f 11 5 10
f 11 7 2
f 12 8 1
f 12 1 3
f 12 3 9
f 13 8 12
f 14 9 6
f 15 7 6
f 15 6 9
f 15 9 3
f 15 3 7
f 17 11 10
f 17 6 7
f 17 7 11
f 19 13 12
f 19 12 9
f 21 16 10
f 21 10 5
f 21 5 16
f 22 4 16
f 22 18 8
f 22 8 13
f 23 17 10
f 23 6 17
f 23 20 6
f 24 11 1
f 24 1 8
f 24 8 18
f 24 18 22
f 26 4 19
f 26 20 4
f 26 19 9
f 26 9 14
f 27 16 4
f 27 4 20
f 27 10 16
f 28 14 6
f 28 6 20
f 28 26 14
f 28 20 26
f 29 22 16
f 29 16 5
f 29 5 11
f 29 24 22
f 29 11 24
f 30 23 10
f 30 20 23
f 30 27 20
f 30 10 27
f 31 25 19
f 31 19 4
f 31 4 22
f 32 13 19
f 32 19 25
f 33 22 13
f 33 32 25
f 33 13 32
f 33 31 22
f 33 25 31

