# https://github.com/mikedh/trimesh
v 0.06048407 0.09338953 0.04547203
v 0.06083888 0.09401774 0.04753219
v 0.00106159 0.09998213 0.03535916
v 0.00115393 0.11047771 0.04738728
v 0.03274484 0.10566109 0.04596548
v 0.00105477 0.10601860 0.04641434
v 0.04608620 0.10086376 0.04608481
v 0.02367370 0.10842330 0.04815331
v 0.01218226 0.10549950 0.03723555
v 0.00098088 0.10178113 0.03879901
v 0.05995720 0.09477279 0.04816065
v 0.03297820 0.10627107 0.04791509
v 0.00079305 0.10617433 0.03694025
v 0.01920562 0.10768756 0.04394903
v 0.04159930 0.09864317 0.03736346
v 0.05960033 0.09414433 0.04610734
v 0.04622790 0.10148072 0.04806758
v 0.02688539 0.09644617 0.03453666
v 0.00775485 0.10793231 0.04151519
v 0.02350194 0.10771322 0.04610636
v 0.02604022 0.10316464 0.03725997
v 0.03931311 0.10075365 0.03969635
v 0.05066028 0.09441063 0.03723469
v 0.00112824 0.10824180 0.04140099
v 0.03488804 0.10106953 0.03734875
v 0.03489075 0.10322811 0.04167814
v 0.05136961 0.09353326 0.03635232
f 1 2 3
f 10 3 2
f 10 2 6
f 11 6 2
f 11 4 6
f 11 8 4
f 11 2 1
f 12 7 5
f 12 5 8
f 13 3 10
f 13 10 6
f 13 6 4
f 14 4 8
f 16 11 1
f 16 7 11
f 17 11 7
f 17 7 12
f 17 12 8
f 17 8 11
f 18 13 9
f 18 3 13
f 18 1 3
f 19 9 13
f 19 14 9
f 19 4 14
f 20 14 8
f 20 8 5
f 20 5 14
f 21 14 5
f 21 9 14
f 21 18 9
f 22 7 15
f 23 15 7
f 23 16 1
f 23 7 16
f 24 19 13
f 24 13 4
f 24 4 19
f 25 18 21
f 25 22 15
f 26 5 7
f 26 7 22
f 26 22 25
f 26 25 21
f 26 21 5
f 27 15 23
f 27 25 15
f 27 18 25
f 27 23 1
f 27 1 18

