# https://github.com/mikedh/trimesh
v 0.11359766 0.02066259 0.04741204
v 0.11225904 0.02050495 0.04354553
v 0.11129592 0.03518791 0.05071217
v 0.10242573 0.04702240 0.05365460
v 0.09047117 0.02133479 0.02014382
v 0.11472300 0.02485299 0.05468140
v 0.11135335 0.03113651 0.04612750
v 0.11036990 0.02070258 0.04952121
v 0.10763502 0.04521956 0.05488207
v 0.11134346 0.02714226 0.04385083
v 0.11375468 0.02939225 0.05245829
v 0.08999035 0.02048297 0.01410809
v 0.11097038 0.02560534 0.05378112
v 0.10460436 0.04481729 0.04613101
v 0.11420328 0.02513514 0.05228762
v 0.11235003 0.03576578 0.05484940
v 0.08855966 0.02066227 0.01309317
v 0.10047239 0.02033385 0.02384385
v 0.10702704 0.04498829 0.05287274
v 0.11409218 0.02958130 0.05462197
v 0.08746985 0.04536065 0.02106274
v 0.09389212 0.02039208 0.01722704
v 0.10904546 0.02258492 0.03724519
v 0.08767833 0.02724447 0.01417535
v 0.09070509 0.04714669 0.03208992
v 0.09781759 0.04480920 0.03281399
v 0.09574486 0.02424446 0.01982894
v 0.10927570 0.02044351 0.03717835
v 0.10889017 0.02911401 0.03966449
v 0.09367406 0.02241259 0.01737751
v 0.10023549 0.02902622 0.02652479
v 0.08751146 0.04077327 0.01868299
v 0.10463959 0.02490348 0.03084661
v 0.09787593 0.02433255 0.02203215
v 0.10443514 0.03099621 0.03322632
v 0.09540127 0.04019371 0.02658656
v 0.09136785 0.02904580 0.01758773
v 0.10023876 0.02238162 0.02413394
v 0.09550876 0.03569652 0.02435606
v 0.09299096 0.04465038 0.02640684
v 0.09978985 0.03788333 0.03093258
v 0.09098746 0.03581948 0.01982660
v 0.08880792 0.04043571 0.01968778
v 0.09763220 0.04247349 0.03083646
v 0.08881361 0.04461155 0.02193647
f 8 2 1
f 8 1 6
f 10 1 2
f 11 10 7
f 11 1 10
f 13 8 6
f 13 4 5
f 13 5 8
f 13 9 4
f 13 6 9
f 14 3 7
f 14 4 9
f 15 11 6
f 15 6 1
f 15 1 11
f 16 11 7
f 16 7 3
f 16 3 9
f 16 9 6
f 17 12 8
f 17 8 5
f 18 2 8
f 19 14 9
f 19 9 3
f 19 3 14
f 20 16 6
f 20 6 11
f 20 11 16
f 22 18 8
f 22 8 12
f 23 10 2
f 24 17 5
f 24 12 17
f 25 5 4
f 25 24 5
f 25 21 24
f 26 14 7
f 26 21 25
f 26 25 4
f 26 4 14
f 28 23 2
f 28 2 18
f 29 7 10
f 29 10 23
f 29 26 7
f 30 22 12
f 30 12 24
f 30 27 18
f 30 18 22
f 32 24 21
f 33 28 18
f 33 23 28
f 33 29 23
f 34 18 27
f 35 26 29
f 35 33 31
f 35 29 33
f 37 30 24
f 37 24 32
f 37 27 30
f 38 33 18
f 38 31 33
f 38 34 31
f 38 18 34
f 39 31 34
f 39 36 31
f 39 34 27
f 40 21 26
f 41 35 31
f 41 31 36
f 42 37 32
f 42 27 37
f 42 39 27
f 43 36 39
f 43 40 36
f 43 32 21
f 43 42 32
f 43 39 42
f 44 40 26
f 44 36 40
f 44 41 36
f 44 26 35
f 44 35 41
f 45 43 21
f 45 21 40
f 45 40 43

