# https://github.com/mikedh/trimesh
v -0.04079282 0.10006975 0.04923267
v -0.01783930 0.10566862 0.04902241
v -0.02644811 0.10919293 0.06656454
v -0.02401128 0.11274284 0.06689839
v -0.03732355 0.10573577 0.05052693
v -0.01893146 0.11022622 0.06374496
v -0.01822738 0.10881526 0.06044536
v -0.03623372 0.10152160 0.04877344
v -0.01684219 0.11050213 0.05044338
v -0.04181934 0.10628201 0.06154272
v -0.02501704 0.11131916 0.06807254
v -0.02485755 0.10376947 0.04885105
v -0.02035554 0.10893470 0.06230575
v -0.03979801 0.10466980 0.05010540
v -0.02348819 0.11243925 0.06196315
v -0.01839836 0.11352086 0.06408942
v -0.01676985 0.11306750 0.05941917
v -0.04089642 0.10362251 0.05798187
v -0.02126226 0.11024048 0.06547574
v -0.02867981 0.11002865 0.06782437
v -0.02724383 0.10449109 0.05331417
v -0.02038225 0.10686734 0.05569946
v -0.03710522 0.10820173 0.05935526
v -0.04142995 0.10148743 0.05326188
v -0.02586672 0.11005886 0.05515194
v -0.02068172 0.11333404 0.06567839
v -0.02695968 0.11030347 0.06791123
v -0.03308415 0.10852556 0.06587363
v -0.02808371 0.11143529 0.06784721
v -0.02503606 0.10437681 0.05109204
v -0.03927949 0.10578653 0.05278573
v -0.03270872 0.11020684 0.06195453
v -0.01901253 0.11009927 0.05055124
v -0.02126759 0.11232143 0.05972542
v -0.02478786 0.11184155 0.06803545
v -0.03226080 0.11054213 0.06659677
v -0.03578242 0.10924484 0.06444295
v -0.03413473 0.10914894 0.06578986
v -0.03394391 0.10980931 0.06574394
f 9 2 8
f 12 8 2
f 12 1 8
f 13 3 1
f 13 1 7
f 13 7 6
f 14 8 1
f 14 9 8
f 14 5 9
f 17 7 2
f 17 2 9
f 17 15 16
f 17 16 6
f 17 6 7
f 19 6 16
f 19 13 6
f 19 3 13
f 21 7 1
f 21 1 12
f 22 12 2
f 22 2 7
f 22 7 21
f 24 14 1
f 24 10 14
f 24 18 10
f 24 1 3
f 24 3 18
f 26 19 16
f 26 16 15
f 26 15 4
f 27 19 11
f 27 3 19
f 27 20 3
f 27 11 20
f 28 18 3
f 28 3 20
f 28 10 18
f 29 20 11
f 30 22 21
f 30 21 12
f 30 12 22
f 31 14 10
f 31 10 23
f 31 5 14
f 32 4 15
f 32 15 25
f 32 25 5
f 32 31 23
f 32 5 31
f 33 9 5
f 33 5 25
f 34 17 9
f 34 33 25
f 34 9 33
f 34 25 15
f 34 15 17
f 35 26 4
f 35 11 19
f 35 19 26
f 35 29 11
f 35 4 29
f 36 20 29
f 36 29 4
f 36 4 32
f 37 32 23
f 37 23 10
f 37 36 32
f 38 28 20
f 38 20 36
f 38 10 28
f 39 37 10
f 39 36 37
f 39 38 36
f 39 10 38

