# https://github.com/mikedh/trimesh
v 0.06350048 -0.05085441 0.01259151
v 0.06283002 -0.05016650 0.00752569
v 0.06353083 0.00919501 0.00170403
v 0.04962484 0.02535550 0.00663956
v 0.04963058 -0.03468170 0.00699336
v 0.05890439 0.02536288 0.00714619
v 0.06463929 -0.01871365 0.00042001
v 0.05919390 -0.05133214 0.01114705
v 0.06367857 0.00929352 0.00675788
v 0.05896693 0.02538057 0.00169874
v 0.06430783 -0.04203261 0.01038663
v 0.05381792 -0.03568127 0.00100246
v 0.05787276 -0.03637131 0.00053209
v 0.04967428 -0.03469701 0.00209575
v 0.06184535 -0.03121392 0.00117846
v 0.05864766 -0.05059296 0.00653024
v 0.04962938 0.02535817 0.00221553
f 6 4 1
f 8 2 1
f 8 1 4
f 8 4 5
f 9 6 1
f 9 7 3
f 10 4 6
f 10 3 7
f 10 9 3
f 10 6 9
f 11 1 2
f 11 2 7
f 11 9 1
f 11 7 9
f 15 13 7
f 15 7 2
f 15 2 13
f 16 13 2
f 16 12 13
f 16 14 12
f 16 2 8
f 16 8 5
f 16 5 14
f 17 13 12
f 17 10 7
f 17 7 13
f 17 12 14
f 17 4 10
f 17 14 5
f 17 5 4

