# https://github.com/mikedh/trimesh
v -0.01715537 -0.10542033 0.03849116
v -0.01680039 -0.09711154 0.02609408
v -0.01747599 -0.07695297 0.01364295
v -0.04701763 -0.07574450 0.01563740
v -0.04592288 -0.09190895 0.03083353
v -0.01695414 -0.07956886 0.01025483
v -0.01694537 -0.10451074 0.03678562
v -0.03035991 -0.08531792 0.01734112
v -0.04818156 -0.08952823 0.03678001
v -0.01724077 -0.07601250 0.00847036
v -0.01784880 -0.09914286 0.03662561
v -0.01685485 -0.08362834 0.01287206
v -0.03257137 -0.09870471 0.03306327
v -0.03723101 -0.08322094 0.01764545
v -0.04803685 -0.07742171 0.02296893
v -0.04703815 -0.09628321 0.03845821
v -0.03073743 -0.07509839 0.00992605
v -0.02383161 -0.10434258 0.03901449
v -0.01692553 -0.09286544 0.02125956
v -0.02134264 -0.10131464 0.03286860
v -0.04615112 -0.07871917 0.01738546
v -0.03698231 -0.09192111 0.02655090
v -0.04837748 -0.08756192 0.03420659
v -0.03662869 -0.09871658 0.03526519
v -0.03970921 -0.07499420 0.01241116
v -0.02155147 -0.07931072 0.01078881
v -0.03051749 -0.07682589 0.01090273
v -0.04438944 -0.09758326 0.03899271
v -0.02366872 -0.10343141 0.03727027
v -0.02129544 -0.08552325 0.01525873
v -0.02819211 -0.09658498 0.02857800
v -0.01698041 -0.10194780 0.03254926
v -0.03467365 -0.09637663 0.03091140
v -0.03041141 -0.09208085 0.02426687
v -0.04629195 -0.09452631 0.03495346
v -0.03294348 -0.10213601 0.03906108
v -0.04445165 -0.07521109 0.01424929
v -0.04162233 -0.07866955 0.01550341
v -0.01907134 -0.08345982 0.01315195
v -0.02348512 -0.08979748 0.01973778
v -0.02588503 -0.09889519 0.03088379
v -0.02117554 -0.09449157 0.02409831
v -0.03920976 -0.09887153 0.03731739
v -0.03267052 -0.10121230 0.03727193
v -0.03958720 -0.09974212 0.03912772
v -0.03941796 -0.07653821 0.01329200
v -0.04400998 -0.07677223 0.01509489
f 7 6 3
f 10 3 6
f 11 7 3
f 11 1 7
f 11 3 9
f 12 7 2
f 12 6 7
f 15 9 3
f 16 4 5
f 17 10 6
f 17 3 10
f 18 11 9
f 18 1 11
f 19 12 2
f 21 14 5
f 21 5 4
f 22 5 14
f 23 15 4
f 23 9 15
f 23 16 9
f 23 4 16
f 25 15 3
f 25 3 17
f 26 17 6
f 26 6 12
f 27 8 14
f 27 25 17
f 27 17 26
f 28 18 9
f 28 9 16
f 29 7 1
f 29 1 18
f 29 20 7
f 29 13 20
f 30 12 19
f 30 8 27
f 32 20 2
f 32 2 7
f 32 7 20
f 33 5 22
f 33 24 5
f 33 13 24
f 33 31 13
f 33 22 31
f 34 22 14
f 34 14 8
f 34 31 22
f 35 16 5
f 35 5 24
f 36 29 18
f 37 4 15
f 37 15 25
f 38 14 21
f 38 27 14
f 39 27 26
f 39 26 12
f 39 30 27
f 39 12 30
f 40 30 19
f 40 8 30
f 40 34 8
f 41 20 13
f 41 13 31
f 41 31 2
f 41 2 20
f 42 19 2
f 42 2 31
f 42 40 19
f 42 31 34
f 42 34 40
f 43 35 24
f 43 16 35
f 44 36 24
f 44 24 13
f 44 13 29
f 44 29 36
f 45 36 18
f 45 18 28
f 45 28 16
f 45 16 43
f 45 43 24
f 45 24 36
f 46 37 25
f 46 25 27
f 46 27 38
f 47 38 21
f 47 21 4
f 47 4 37
f 47 46 38
f 47 37 46

