# https://github.com/mikedh/trimesh
v 0.08812787 -0.05183172 0.03222788
v 0.10712041 -0.02769088 0.03586656
v 0.10051694 -0.02859180 0.03420974
v 0.06383452 -0.02785743 0.00849894
v 0.07560805 -0.04277295 0.01090324
v 0.09505830 -0.04230517 0.03474121
v 0.08631067 -0.04919354 0.02213158
v 0.06425545 -0.05157181 0.01318565
v 0.08257130 -0.02722351 0.01049854
v 0.08928966 -0.05109671 0.03311729
v 0.10548828 -0.03385794 0.03682236
v 0.06231239 -0.02922296 0.00051560
v 0.07796179 -0.04969173 0.01521945
v 0.06413665 -0.02692801 0.00092254
v 0.09622448 -0.02711392 0.02140162
v 0.10174354 -0.04109743 0.03634972
v 0.06283002 -0.05016650 0.00752569
v 0.07584176 -0.03617229 0.00884101
v 0.08869886 -0.03593676 0.01762186
v 0.10518490 -0.02727182 0.03250736
v 0.06294212 -0.02746060 0.00035928
v 0.09176456 -0.02708476 0.01728265
v 0.09532588 -0.04035351 0.02658452
v 0.10333999 -0.03843449 0.03675574
v 0.07109625 -0.04960701 0.01102548
v 0.08663773 -0.04037780 0.01769023
v 0.08238203 -0.02930227 0.01082041
v 0.10485549 -0.02915505 0.03278965
v 0.09146531 -0.02927774 0.01768517
v 0.09994262 -0.04032038 0.03274117
v 0.09556269 -0.03573252 0.02442848
v 0.07129806 -0.04302951 0.00882920
v 0.07991287 -0.04725537 0.01556650
v 0.10468691 -0.03347608 0.03514766
v 0.09586908 -0.02914276 0.02181247
v 0.09993989 -0.03351461 0.02839217
v 0.06475218 -0.04991100 0.00822519
v 0.08409151 -0.04476542 0.01762831
v 0.10249594 -0.03799627 0.03499363
v 0.10225620 -0.03567585 0.03298964
f 3 2 4
f 6 3 4
f 10 6 4
f 10 8 1
f 10 4 8
f 11 2 3
f 11 3 6
f 13 7 1
f 13 1 8
f 16 10 1
f 16 1 7
f 16 6 10
f 17 8 4
f 17 4 12
f 17 13 8
f 20 14 4
f 20 4 2
f 20 15 14
f 21 12 4
f 21 4 14
f 21 18 12
f 21 14 9
f 22 9 14
f 22 14 15
f 24 11 6
f 24 6 16
f 25 5 13
f 25 13 17
f 26 23 7
f 27 9 22
f 27 21 9
f 27 18 21
f 27 19 26
f 27 26 5
f 27 5 18
f 28 20 2
f 28 15 20
f 29 22 15
f 29 27 22
f 29 19 27
f 30 16 7
f 30 7 23
f 31 26 19
f 31 23 26
f 32 18 5
f 32 5 25
f 32 12 18
f 33 13 5
f 33 5 26
f 34 28 2
f 34 2 11
f 34 11 24
f 35 29 15
f 35 19 29
f 35 31 19
f 36 30 23
f 36 23 31
f 36 31 35
f 36 35 15
f 36 15 28
f 37 32 25
f 37 25 17
f 37 17 12
f 37 12 32
f 38 33 26
f 38 26 7
f 38 7 13
f 38 13 33
f 39 34 24
f 39 24 16
f 39 16 30
f 40 30 36
f 40 39 30
f 40 34 39
f 40 36 28
f 40 28 34

