# https://github.com/mikedh/trimesh
v -0.08149637 -0.08272243 0.06347371
v -0.08056459 -0.07929968 0.05029404
v -0.09660093 -0.05356393 0.04921152
v -0.10411956 -0.05259364 0.05686366
v -0.09081395 -0.07402001 0.06400231
v -0.10164014 -0.05251583 0.05005065
v -0.09316540 -0.06798613 0.06817117
v -0.08319136 -0.07028376 0.04890329
v -0.08854951 -0.07611171 0.06207057
v -0.10308034 -0.05199834 0.05274061
v -0.10127742 -0.05362123 0.06081307
v -0.09405094 -0.07016566 0.06803321
v -0.08072445 -0.08160942 0.05689136
v -0.08489804 -0.07560216 0.06175530
v -0.08636132 -0.06617638 0.04874068
v -0.08949446 -0.07590675 0.06541754
v -0.09540305 -0.06264358 0.05060640
v -0.09169920 -0.06909906 0.06699156
v -0.09186008 -0.07106293 0.06797808
v -0.09780669 -0.06585578 0.06662737
v -0.08184751 -0.07828647 0.05061668
v -0.08203570 -0.08211991 0.06270514
v -0.09131862 -0.07376132 0.06677405
v -0.08639934 -0.07377092 0.05063241
v -0.09992397 -0.05600917 0.05076884
v -0.09767720 -0.06487576 0.06219013
v -0.08909882 -0.07282213 0.06633375
v -0.10141306 -0.05559424 0.06285119
v -0.09473465 -0.06628739 0.06804288
v -0.08202536 -0.08061316 0.05738106
v -0.09073224 -0.07163643 0.05750769
v -0.10312217 -0.05446196 0.05707750
v -0.09925122 -0.06336053 0.06545130
v -0.09525950 -0.06572389 0.06771746
v -0.09533348 -0.06478481 0.05500809
v -0.10218734 -0.05366957 0.05297426
f 10 3 6
f 11 10 4
f 11 3 10
f 13 8 1
f 13 2 8
f 14 1 8
f 15 6 3
f 15 11 8
f 15 3 11
f 15 8 2
f 16 5 9
f 17 6 15
f 18 11 7
f 18 8 11
f 18 14 8
f 18 1 14
f 19 1 7
f 19 7 12
f 20 5 16
f 21 2 13
f 22 13 1
f 22 16 9
f 22 1 16
f 23 16 1
f 23 20 16
f 23 12 20
f 23 19 12
f 23 1 19
f 24 17 15
f 24 15 2
f 24 2 21
f 24 21 9
f 25 10 6
f 25 6 17
f 26 9 5
f 26 5 20
f 27 18 7
f 27 7 1
f 27 1 18
f 28 11 4
f 29 20 12
f 29 12 7
f 29 7 11
f 29 11 28
f 30 21 13
f 30 9 21
f 30 22 9
f 30 13 22
f 31 24 9
f 31 17 24
f 31 9 26
f 32 4 10
f 32 25 17
f 32 17 26
f 33 28 4
f 33 20 28
f 33 4 32
f 33 32 26
f 33 26 20
f 34 29 28
f 34 28 20
f 34 20 29
f 35 31 26
f 35 26 17
f 35 17 31
f 36 32 10
f 36 10 25
f 36 25 32

