# https://github.com/mikedh/trimesh
v 0.11625984 -0.02750335 0.06372597
v 0.11873423 -0.01856253 0.06481709
v 0.11825819 0.00794579 0.06518692
v 0.11097038 0.02560534 0.05378112
v 0.11609448 -0.00893900 0.04817989
v 0.11381062 -0.02769789 0.06447238
v 0.11422125 -0.02762591 0.05455155
v 0.11959787 0.00771818 0.06548581
v 0.11487172 -0.02728403 0.06574461
v 0.11596355 -0.01322875 0.05041313
v 0.11073988 -0.02790903 0.05399219
v 0.11845995 -0.00232434 0.05710108
v 0.11961214 -0.00618246 0.06577224
v 0.11632085 -0.02638912 0.06577941
v 0.11466566 -0.01576864 0.04782532
v 0.11873031 -0.01787464 0.06426805
v 0.11201299 -0.02760244 0.06059269
v 0.11316738 0.02515792 0.04766368
v 0.11834728 -0.00676264 0.05724091
v 0.10910755 0.02524272 0.04753829
v 0.11607463 0.00868900 0.04813018
v 0.11472300 0.02485299 0.05468140
v 0.11826806 -0.01332180 0.05990526
v 0.11012531 -0.01626665 0.04718359
v 0.11847423 0.01079516 0.05945582
v 0.11377903 0.02514336 0.05016978
v 0.11929402 0.00988944 0.06391227
v 0.11592605 0.01314892 0.05050643
f 7 2 1
f 8 4 3
f 9 3 4
f 9 4 6
f 9 8 3
f 9 6 1
f 11 7 1
f 11 1 6
f 13 8 9
f 13 12 8
f 14 9 1
f 14 1 2
f 14 13 9
f 14 2 13
f 15 10 7
f 15 5 10
f 15 7 11
f 16 10 5
f 16 2 7
f 16 7 10
f 16 13 2
f 17 11 6
f 17 6 4
f 19 5 12
f 19 12 13
f 19 13 16
f 20 17 4
f 20 11 17
f 20 4 18
f 21 12 5
f 21 5 15
f 21 15 18
f 22 4 8
f 23 19 16
f 23 16 5
f 23 5 19
f 24 20 18
f 24 18 15
f 24 15 11
f 24 11 20
f 25 12 21
f 26 18 4
f 26 4 22
f 26 22 25
f 27 8 12
f 27 12 25
f 27 25 22
f 27 22 8
f 28 25 21
f 28 21 18
f 28 26 25
f 28 18 26

