# https://github.com/mikedh/trimesh
v 0.03067520 -0.10198425 0.03683685
v 0.03283769 -0.08560637 0.01753718
v 0.03360815 -0.06264332 0.00949789
v 0.01966778 -0.06265294 0.00865373
v 0.01912841 -0.09911532 0.02828479
v 0.02186502 -0.06158204 0.00080666
v 0.03430312 -0.09428584 0.03438634
v 0.03272594 -0.09210947 0.02416495
v 0.01993835 -0.09844295 0.03486804
v 0.03326983 -0.06174334 0.00434925
v 0.01936849 -0.06312058 0.00147249
v 0.02585369 -0.08991875 0.01975813
v 0.03270548 -0.09901045 0.03295020
v 0.03329076 -0.10092085 0.03614940
v 0.01960739 -0.10385085 0.03579135
v 0.03282423 -0.07680845 0.01090022
v 0.03383313 -0.06540007 0.01044486
v 0.02837833 -0.06105810 0.00189387
v 0.01960589 -0.06187664 0.00086521
v 0.02350966 -0.09659750 0.02651141
v 0.01920802 -0.08588869 0.01486297
v 0.02361753 -0.10122211 0.03273683
v 0.01924716 -0.10192040 0.03238165
v 0.03283446 -0.07247487 0.00862943
v 0.03045943 -0.09651690 0.02866219
v 0.01928543 -0.07943241 0.01031335
v 0.02366348 -0.08551034 0.01538883
v 0.03042106 -0.10105464 0.03509275
v 0.03308753 -0.06614951 0.00597344
v 0.02126066 -0.09882668 0.02856803
v 0.02816745 -0.09884938 0.03094168
v 0.02382918 -0.07913284 0.01079890
f 7 3 4
f 9 7 4
f 9 1 7
f 11 5 4
f 12 2 8
f 14 8 2
f 14 2 7
f 14 13 8
f 14 7 1
f 15 1 9
f 16 7 2
f 17 10 3
f 17 3 7
f 17 16 10
f 17 7 16
f 18 6 4
f 18 4 3
f 18 3 10
f 19 11 4
f 19 4 6
f 19 6 11
f 20 12 8
f 20 5 12
f 21 12 5
f 21 5 11
f 23 15 9
f 23 9 4
f 23 4 5
f 23 22 15
f 23 5 22
f 24 16 6
f 24 6 18
f 25 20 8
f 25 8 13
f 26 21 11
f 26 11 6
f 27 16 2
f 27 2 12
f 27 12 21
f 28 14 1
f 28 1 15
f 28 15 22
f 28 13 14
f 29 24 18
f 29 18 10
f 29 10 16
f 29 16 24
f 30 5 20
f 30 20 25
f 30 22 5
f 31 25 13
f 31 30 25
f 31 22 30
f 31 28 22
f 31 13 28
f 32 26 6
f 32 6 16
f 32 16 27
f 32 27 21
f 32 21 26

