# https://github.com/mikedh/trimesh
v 0.03348618 -0.05081442 0.00757221
v 0.04967428 -0.03469701 0.00209575
v 0.04967832 0.03925730 0.00705059
v 0.00117490 0.05540446 0.00719836
v 0.00114265 -0.05082708 0.00182006
v 0.04278091 0.04618976 0.00165254
v 0.04263217 0.04615318 0.00744332
v 0.04963058 -0.03468170 0.00699336
v 0.03348007 -0.05086837 0.00192296
v 0.00116526 -0.05084942 0.00727434
v 0.04969183 0.03923653 0.00155695
v 0.00115745 0.05530521 0.00201186
v 0.01956122 0.05537498 0.00746345
v 0.01962463 0.05534402 0.00189381
f 7 3 6
f 8 1 2
f 8 2 3
f 8 7 1
f 8 3 7
f 9 2 1
f 10 4 5
f 10 9 1
f 10 5 9
f 11 6 3
f 11 3 2
f 11 2 9
f 11 9 5
f 12 5 4
f 12 11 5
f 12 6 11
f 13 1 7
f 13 10 1
f 13 4 10
f 13 7 6
f 14 12 4
f 14 4 13
f 14 13 6
f 14 6 12

