# https://github.com/mikedh/trimesh
v -0.07617847 0.02109459 0.01256394
v -0.07444176 0.02056405 0.00718757
v -0.07620041 0.03288948 0.01513047
v -0.10592159 0.03168302 0.03892717
v -0.10856677 0.02052370 0.03867575
v -0.09110749 0.03120918 0.01996451
v -0.07408973 0.02506933 0.00760077
v -0.10757054 0.02031770 0.03685625
v -0.09914179 0.03285589 0.03723615
v -0.07454545 0.03203001 0.00914532
v -0.08496606 0.02036424 0.01279313
v -0.07623664 0.02041912 0.00799090
v -0.10218482 0.02109213 0.03704620
v -0.10771122 0.02712096 0.03923154
v -0.09549650 0.03133918 0.02434084
v -0.08042952 0.02493634 0.01076423
v -0.09158418 0.02026150 0.01753366
v -0.10244420 0.03139576 0.03276085
v -0.07594828 0.02493497 0.00850448
v -0.08691406 0.02688597 0.01538105
v -0.10026181 0.02023979 0.02627487
v -0.09547838 0.02469144 0.02202984
v -0.10501699 0.03133995 0.03698926
v -0.10442719 0.02476559 0.03292669
v -0.08484403 0.02263545 0.01308149
v -0.07813982 0.03165619 0.01090763
v -0.09138856 0.02252763 0.01780249
v -0.10027921 0.02926426 0.02882366
v -0.10673418 0.02684453 0.03745754
v -0.10511147 0.02040323 0.03259336
v -0.10005490 0.02253227 0.02654609
f 7 1 2
f 7 3 1
f 9 1 3
f 10 3 7
f 12 2 1
f 12 1 8
f 12 7 2
f 13 8 1
f 13 5 8
f 13 1 9
f 14 8 5
f 14 5 13
f 14 13 9
f 14 9 4
f 15 9 3
f 15 10 6
f 15 3 10
f 16 12 11
f 17 11 12
f 18 4 9
f 18 9 15
f 19 16 10
f 19 10 7
f 19 7 12
f 19 12 16
f 21 17 12
f 21 12 8
f 22 15 6
f 22 17 21
f 23 14 4
f 23 4 18
f 25 20 16
f 25 16 11
f 25 11 17
f 26 20 6
f 26 6 10
f 26 10 16
f 26 16 20
f 27 6 20
f 27 22 6
f 27 17 22
f 27 25 17
f 27 20 25
f 28 18 15
f 28 15 22
f 28 24 18
f 29 23 18
f 29 14 23
f 29 18 24
f 30 21 8
f 30 29 24
f 30 8 14
f 30 14 29
f 31 28 22
f 31 22 21
f 31 24 28
f 31 30 24
f 31 21 30

