# https://github.com/mikedh/trimesh
v -0.11328376 0.03130251 0.06410291
v -0.09474916 0.05638765 0.04891296
v -0.09313695 0.06200704 0.05668546
v -0.09982297 0.06247445 0.06489302
v -0.11122526 0.03200612 0.04985982
v -0.09448929 0.06295180 0.04919597
v -0.10701210 0.04676793 0.06772351
v -0.10620941 0.03274920 0.04903909
v -0.10459405 0.05369831 0.05995817
v -0.10792834 0.04067091 0.06438553
v -0.11235748 0.03157657 0.05259645
v -0.10479839 0.03560943 0.04872294
v -0.09987011 0.05596109 0.05074955
v -0.09995938 0.06050305 0.05968550
v -0.10941535 0.04728635 0.06747914
v -0.10800079 0.04281684 0.06655568
v -0.11178040 0.03171124 0.06211841
v -0.10650702 0.04479595 0.05291798
v -0.10055756 0.04485800 0.04876465
v -0.10003777 0.06215843 0.06465827
v -0.09785883 0.06027242 0.05287886
v -0.10780953 0.04946422 0.06804458
v -0.11602546 0.03143435 0.06511074
v -0.10876096 0.04315727 0.06753259
v -0.11380382 0.03378510 0.05961405
v -0.10884443 0.03790307 0.05074712
v -0.10215139 0.05369595 0.05308295
v -0.10732058 0.05120783 0.06703436
v -0.10610523 0.05010705 0.06763500
v -0.10984061 0.04551140 0.06796729
v -0.10669126 0.04926311 0.05972535
v -0.11435443 0.03184841 0.05951000
v -0.10897845 0.04712534 0.06432520
v -0.11170127 0.03341455 0.05277057
v -0.10682721 0.05172321 0.06401870
f 6 3 2
f 6 4 3
f 7 3 4
f 8 2 3
f 11 8 1
f 11 5 8
f 12 2 8
f 12 8 5
f 12 5 6
f 13 6 5
f 16 10 3
f 16 3 7
f 17 8 3
f 17 3 10
f 17 1 8
f 17 16 1
f 17 10 16
f 19 12 6
f 19 6 2
f 19 2 12
f 20 14 9
f 20 4 6
f 20 6 14
f 21 13 9
f 21 9 14
f 21 14 6
f 21 6 13
f 23 11 1
f 24 16 7
f 24 1 16
f 24 23 1
f 26 18 13
f 26 13 5
f 26 5 18
f 27 18 9
f 27 9 13
f 27 13 18
f 28 4 20
f 28 22 4
f 28 15 22
f 29 22 7
f 29 7 4
f 29 4 22
f 30 22 15
f 30 15 23
f 30 23 24
f 30 24 7
f 30 7 22
f 31 9 18
f 31 18 25
f 32 25 11
f 32 11 23
f 32 23 25
f 33 25 23
f 33 23 15
f 34 25 18
f 34 18 5
f 34 5 11
f 34 11 25
f 35 28 20
f 35 20 9
f 35 9 31
f 35 31 25
f 35 25 33
f 35 33 15
f 35 15 28

