# https://github.com/mikedh/trimesh
v -0.11622515 -0.03032036 0.06459851
v -0.10086387 -0.03031866 0.03760116
v -0.11343641 0.02855092 0.06579233
v -0.11597853 0.03180792 0.06401221
v -0.11123336 0.01367224 0.04164714
v -0.11931814 0.00384676 0.06803431
v -0.11389565 -0.02891607 0.06611471
v -0.10918160 -0.02048649 0.03964727
v -0.09914179 0.03285589 0.03723615
v -0.11719730 0.02478974 0.06803294
v -0.11598904 0.01084522 0.05279625
v -0.11200038 -0.02970627 0.06262074
v -0.11734669 -0.02492215 0.06788193
v -0.10708979 -0.02938176 0.03954118
v -0.10923414 0.02016691 0.03969820
v -0.09983171 0.03090489 0.03674155
v -0.11178040 0.03171124 0.06211841
v -0.11633730 0.03019088 0.06596607
v -0.11851516 0.01128505 0.06354249
v -0.11474456 0.02671999 0.06748332
v -0.11375860 -0.00907259 0.04616544
v -0.10202806 -0.03059992 0.03945449
v -0.11662313 -0.02872227 0.06662877
v -0.11157152 -0.02923774 0.04845045
v -0.10674273 0.03105918 0.03983903
v -0.11133570 0.02697103 0.04620299
v -0.10010408 0.03335971 0.03884197
v -0.11482345 0.03043605 0.06572588
v -0.11882558 0.00972666 0.06478389
v -0.11847122 0.00904795 0.06159950
v -0.11618379 0.02655363 0.06778866
v -0.11509444 -0.02685318 0.06753413
v -0.11357729 0.01114500 0.04619813
v -0.11132944 -0.01351421 0.04188986
v -0.11841680 -0.01112156 0.06195976
v -0.10900115 -0.02707002 0.04185216
v -0.10926437 0.02706450 0.04176711
v -0.10902686 0.03118778 0.04407144
v -0.11908863 0.00778490 0.06649670
v -0.11624744 -0.02660343 0.06781437
v -0.11129578 -0.02695729 0.04642765
v -0.11908440 -0.00955903 0.06559423
v -0.11599232 -0.01099853 0.05278512
v -0.11923794 -0.00578822 0.06778543
v -0.11367140 -0.02953914 0.05493092
f 12 7 1
f 12 2 9
f 12 9 3
f 12 3 7
f 13 10 6
f 14 8 2
f 15 8 5
f 16 9 2
f 16 2 8
f 16 8 15
f 17 3 9
f 18 4 10
f 20 7 3
f 22 12 1
f 22 2 12
f 22 14 2
f 22 1 14
f 23 13 1
f 23 1 7
f 24 14 1
f 25 16 15
f 25 9 16
f 26 11 4
f 27 17 9
f 27 4 17
f 27 9 25
f 28 17 4
f 28 4 18
f 28 3 17
f 28 20 3
f 29 10 4
f 29 4 19
f 30 19 4
f 30 4 11
f 30 29 19
f 31 18 10
f 31 10 20
f 31 28 18
f 31 20 28
f 32 7 20
f 32 23 7
f 33 21 11
f 33 5 21
f 33 26 5
f 33 11 26
f 34 21 5
f 34 5 8
f 36 8 14
f 36 14 24
f 37 25 15
f 37 15 5
f 37 5 26
f 38 26 4
f 38 37 26
f 38 25 37
f 38 27 25
f 38 4 27
f 39 6 10
f 39 10 29
f 39 30 6
f 39 29 30
f 40 13 23
f 40 23 32
f 40 10 13
f 40 32 20
f 40 20 10
f 41 21 34
f 41 34 8
f 41 36 24
f 41 8 36
f 42 6 30
f 42 30 35
f 42 35 1
f 42 1 13
f 43 35 30
f 43 30 11
f 43 11 21
f 43 21 41
f 43 1 35
f 44 42 13
f 44 13 6
f 44 6 42
f 45 43 41
f 45 41 24
f 45 24 1
f 45 1 43

