# https://github.com/mikedh/trimesh
v -0.05222567 -0.03499119 0.00813033
v -0.05169795 -0.03447513 0.00298807
v -0.05210251 0.03939719 0.00893898
v -0.05891330 0.03923951 0.01006810
v -0.07460413 -0.02983882 0.01346033
v -0.06049135 0.02951605 0.00385314
v -0.05903790 -0.03478053 0.00923873
v -0.07051115 0.03235743 0.01237990
v -0.05162081 0.03888843 0.00355529
v -0.07379898 -0.01144631 0.00628574
v -0.07381040 -0.02950267 0.00836344
v -0.06731554 0.00676274 0.00378947
v -0.05851269 0.03891980 0.00484192
v -0.07529027 0.02081696 0.01209228
v -0.05817643 -0.03419604 0.00397244
v -0.06503463 0.02054612 0.00390702
v -0.05595450 0.03648721 0.00388239
v -0.06989182 0.03196792 0.00718569
v -0.06500719 -0.02061581 0.00391453
v -0.05377467 0.03873414 0.00382152
v -0.06713472 0.03169727 0.00616978
v -0.07444176 0.02056405 0.00718757
v -0.06929506 -0.02945652 0.00646270
v -0.06730913 -0.00687516 0.00385011
v -0.06929334 0.02937564 0.00645903
v -0.07392861 0.01136589 0.00627821
v -0.07159198 -0.02279988 0.00635556
f 1 2 3
f 5 1 3
f 7 2 1
f 7 1 5
f 8 5 3
f 8 3 4
f 9 3 2
f 11 7 5
f 12 9 2
f 13 4 3
f 13 3 9
f 13 8 4
f 14 5 8
f 14 11 5
f 14 10 11
f 15 2 7
f 15 7 11
f 16 6 9
f 16 9 12
f 17 9 6
f 17 6 13
f 18 14 8
f 18 8 13
f 19 2 15
f 20 17 13
f 20 13 9
f 20 9 17
f 21 18 13
f 21 13 6
f 22 10 14
f 22 14 18
f 23 19 15
f 23 15 11
f 24 19 10
f 24 10 12
f 24 12 2
f 24 2 19
f 25 21 6
f 25 6 16
f 25 16 22
f 25 22 18
f 25 18 21
f 26 12 10
f 26 10 22
f 26 22 16
f 26 16 12
f 27 23 11
f 27 11 10
f 27 10 19
f 27 19 23

