# https://github.com/mikedh/trimesh
v -0.06210394 -0.05398133 0.01503552
v -0.05820108 -0.05016324 0.00768661
v -0.05904222 -0.03013915 0.00879965
v -0.07549422 -0.03029790 0.01404116
v -0.07338383 -0.05191611 0.01526121
v -0.06725464 -0.02956865 0.00575403
v -0.07554478 -0.05359873 0.02357992
v -0.05937209 -0.05359552 0.01374569
v -0.05863053 -0.05288264 0.00875737
v -0.05883531 -0.03003538 0.00352730
v -0.07381040 -0.02950267 0.00836344
v -0.07390730 -0.05423376 0.02272108
v -0.07614730 -0.05170563 0.02278209
v -0.06905030 -0.04753844 0.01102009
v -0.05811626 -0.04330036 0.00578710
v -0.07595238 -0.03507138 0.01548619
v -0.06473742 -0.05215775 0.01076571
v -0.07352431 -0.04072966 0.01104642
v -0.06690315 -0.04307741 0.00880907
v -0.06029192 -0.04997298 0.00832772
v -0.07340942 -0.04729940 0.01327661
v -0.06243698 -0.04082349 0.00654875
v -0.07135591 -0.03621889 0.00881464
v -0.06022943 -0.04314259 0.00641023
v -0.07356191 -0.03178747 0.00869415
v -0.06715391 -0.03177793 0.00617846
f 7 3 4
f 8 2 3
f 9 8 1
f 9 2 8
f 10 6 3
f 11 4 3
f 11 3 6
f 12 7 5
f 12 1 8
f 12 8 3
f 12 3 7
f 12 9 1
f 12 5 9
f 13 7 4
f 13 5 7
f 15 10 3
f 15 3 2
f 15 6 10
f 16 13 4
f 16 4 11
f 17 9 5
f 17 5 14
f 18 16 11
f 19 14 18
f 20 2 9
f 20 9 17
f 20 17 14
f 20 14 19
f 21 18 14
f 21 14 5
f 21 5 13
f 21 13 16
f 21 16 18
f 22 6 15
f 22 20 19
f 23 19 18
f 23 22 19
f 24 15 2
f 24 2 20
f 24 22 15
f 24 20 22
f 25 23 18
f 25 18 11
f 25 11 6
f 26 6 22
f 26 22 23
f 26 25 6
f 26 23 25

