# https://github.com/mikedh/trimesh
v -0.04703815 -0.09628321 0.03845821
v -0.04640110 -0.09278705 0.03243467
v -0.04781419 -0.06302018 0.01349691
v -0.09115209 -0.05311880 0.04038587
v -0.08698709 -0.06775659 0.04150059
v -0.04818156 -0.08952823 0.03678001
v -0.04667165 -0.09543835 0.03670344
v -0.06030302 -0.09080686 0.04128188
v -0.06421582 -0.06290357 0.01569220
v -0.04675450 -0.06614077 0.00989085
v -0.05086249 -0.09492640 0.03935583
v -0.07105415 -0.08348565 0.04171448
v -0.08692487 -0.05199047 0.02613341
v -0.04669473 -0.07976711 0.01856265
v -0.05053094 -0.08956925 0.03079006
v -0.09005294 -0.05233133 0.02979316
v -0.05863053 -0.05288264 0.00875737
v -0.07292263 -0.06688730 0.02427783
v -0.04648820 -0.07488348 0.01478543
v -0.05029369 -0.09411929 0.03759170
v -0.04839078 -0.09213063 0.03288396
v -0.06396029 -0.08278932 0.03323406
v -0.08989837 -0.06363474 0.04117806
v -0.06270044 -0.05239904 0.01007356
v -0.06010537 -0.05425862 0.01430459
v -0.04724223 -0.06224917 0.00831356
v -0.07727575 -0.07152933 0.03331537
v -0.07946475 -0.06483679 0.02877697
v -0.07551577 -0.05395519 0.01774040
v -0.05733870 -0.07195108 0.01779466
v -0.05723248 -0.08726539 0.03324580
v -0.06403081 -0.08754039 0.03986707
v -0.08847133 -0.06250273 0.03768915
v -0.05092697 -0.06566399 0.01101661
v -0.08633678 -0.06718882 0.03973404
v -0.07045387 -0.08279373 0.03997298
v -0.07517877 -0.07142662 0.03110664
v -0.08630789 -0.05368998 0.02669370
v -0.07507918 -0.05834834 0.01998939
v -0.06424236 -0.05863046 0.01346817
v -0.07598817 -0.05203568 0.01701795
v -0.06395630 -0.06949804 0.02003552
v -0.05497752 -0.07609962 0.01982282
v -0.05068632 -0.07633672 0.01766142
v -0.05481815 -0.08521668 0.02878072
v -0.06455926 -0.08821482 0.04149258
v -0.08858774 -0.05573624 0.03102753
v -0.05285658 -0.07191162 0.01544201
v -0.06243689 -0.05436139 0.01072373
v -0.07957821 -0.06924369 0.03330540
v -0.06169651 -0.08054248 0.02868100
v -0.07975378 -0.05603124 0.02212058
v -0.06632848 -0.06073761 0.01564751
v -0.06205805 -0.06075705 0.01346611
v -0.06162413 -0.07402641 0.02219698
v -0.05065427 -0.06992574 0.01334718
v -0.07291219 -0.06914116 0.02656981
v -0.07736089 -0.06489178 0.02673719
f 6 3 4
f 6 4 1
f 7 6 1
f 7 3 6
f 10 7 2
f 10 3 7
f 11 1 4
f 11 4 8
f 11 7 1
f 12 4 5
f 15 14 2
f 16 4 13
f 19 10 2
f 19 2 14
f 20 11 8
f 20 8 15
f 20 7 11
f 21 15 2
f 21 2 7
f 21 20 15
f 21 7 20
f 23 5 4
f 23 4 16
f 24 13 4
f 24 4 17
f 25 17 4
f 25 4 3
f 25 3 17
f 26 17 3
f 26 3 10
f 31 15 8
f 32 31 8
f 32 22 31
f 33 23 16
f 34 26 10
f 35 27 12
f 35 12 5
f 35 5 23
f 35 23 33
f 36 27 22
f 36 12 27
f 36 22 32
f 37 22 27
f 38 16 13
f 41 13 24
f 42 18 9
f 42 9 30
f 44 19 14
f 44 43 30
f 44 14 43
f 45 31 22
f 45 15 31
f 45 43 14
f 45 14 15
f 46 32 8
f 46 36 32
f 46 12 36
f 46 8 4
f 46 4 12
f 47 33 16
f 47 38 28
f 47 16 38
f 48 30 9
f 48 44 30
f 48 19 44
f 49 24 17
f 49 17 26
f 49 26 34
f 49 41 24
f 49 40 41
f 50 27 35
f 50 37 27
f 50 28 18
f 50 18 37
f 50 47 28
f 50 35 33
f 50 33 47
f 51 22 37
f 51 45 22
f 51 43 45
f 52 39 18
f 52 38 13
f 52 29 39
f 52 41 29
f 52 13 41
f 53 39 29
f 53 9 18
f 53 18 39
f 53 40 9
f 53 41 40
f 53 29 41
f 54 9 40
f 54 48 9
f 54 34 48
f 54 49 34
f 54 40 49
f 55 42 30
f 55 30 43
f 55 43 51
f 55 51 18
f 55 18 42
f 56 48 34
f 56 19 48
f 56 34 10
f 56 10 19
f 57 51 37
f 57 37 18
f 57 18 51
f 58 52 18
f 58 18 28
f 58 28 38
f 58 38 52

