# https://github.com/mikedh/trimesh
v -0.10210821 -0.01871340 0.03684065
v -0.08355429 -0.01837815 0.01142360
v -0.08539416 0.02090184 0.01799812
v -0.10856677 0.02052370 0.03867575
v -0.10473009 -0.01579974 0.03077140
v -0.09372309 0.00881826 0.01751958
v -0.10218482 0.02109213 0.03704620
v -0.08565842 -0.01875477 0.01789298
v -0.10263809 -0.01807416 0.02843966
v -0.10993751 -0.01377868 0.03900027
v -0.08336222 0.02047825 0.01180693
v -0.10242066 0.00441569 0.02625646
v -0.10884450 -0.01831854 0.03849673
v -0.09365473 -0.00895144 0.01744419
v -0.11007296 0.01346414 0.03912906
v -0.09141448 0.00441386 0.01528235
v -0.10239157 0.02023775 0.02875994
v -0.10687292 -0.01109541 0.03303880
v -0.10024216 -0.00910168 0.02405709
v -0.10034649 -0.01869738 0.03424121
v -0.10702242 -0.01798765 0.03509549
v -0.08923902 -0.01800771 0.01524864
v -0.08698648 0.01347793 0.01314358
v -0.09140212 -0.00447301 0.01523804
v -0.09158418 0.02026150 0.01753366
v -0.10038763 0.02120277 0.03424930
v -0.09806186 0.01092148 0.02193060
v -0.10664295 0.02013238 0.03504167
v -0.10697850 0.00880759 0.03287876
v -0.10243204 -0.00454258 0.02634185
v -0.09577722 -0.01139538 0.01962652
v -0.10908564 -0.01350391 0.03733102
v -0.08710244 -0.01359534 0.01310134
v -0.08918620 0.01793512 0.01531521
v -0.10027371 0.00894339 0.02412827
v -0.09575781 0.01092239 0.01961927
v -0.10910585 0.01328693 0.03737135
v -0.10453915 0.01570069 0.03066412
v -0.09799776 -0.01137292 0.02185833
v -0.08515573 -0.01818997 0.01245631
v -0.08496606 0.02036424 0.01279313
f 7 1 3
f 8 3 1
f 9 2 8
f 10 1 7
f 11 8 2
f 11 3 8
f 13 9 8
f 13 1 10
f 15 10 7
f 15 7 4
f 19 9 5
f 19 12 6
f 19 6 14
f 20 13 8
f 20 8 1
f 20 1 13
f 21 5 9
f 21 9 13
f 21 18 5
f 22 2 9
f 23 11 2
f 23 16 6
f 24 14 6
f 24 6 16
f 24 16 23
f 26 17 4
f 26 4 7
f 26 25 17
f 26 7 3
f 26 3 11
f 26 11 25
f 27 17 25
f 28 15 4
f 28 4 17
f 29 10 15
f 30 12 19
f 30 29 12
f 30 18 29
f 30 19 5
f 30 5 18
f 31 19 14
f 31 22 9
f 31 14 22
f 32 21 13
f 32 13 10
f 32 18 21
f 32 29 18
f 32 10 29
f 33 22 14
f 33 14 24
f 33 24 23
f 33 23 2
f 34 23 6
f 34 6 25
f 35 27 6
f 35 6 12
f 35 17 27
f 36 27 25
f 36 25 6
f 36 6 27
f 37 29 15
f 37 15 28
f 37 28 29
f 38 29 28
f 38 28 17
f 38 17 35
f 38 35 12
f 38 12 29
f 39 31 9
f 39 9 19
f 39 19 31
f 40 33 2
f 40 2 22
f 40 22 33
f 41 34 25
f 41 25 11
f 41 11 23
f 41 23 34

