# https://github.com/mikedh/trimesh
v 0.11466566 -0.01576864 0.04782532
v 0.11411514 -0.01559743 0.04608595
v 0.11359766 0.02066259 0.04741204
v 0.10921244 0.02115994 0.04652385
v 0.09458598 -0.01630917 0.02329644
v 0.11412132 0.01784286 0.04795734
v 0.10467515 -0.01585454 0.02833750
v 0.10994459 -0.01651630 0.04660693
v 0.09409214 0.02091153 0.02364095
v 0.11366754 0.00654059 0.04185395
v 0.09570712 -0.01641455 0.02465534
v 0.09526557 0.02107048 0.02503086
v 0.10285003 -0.01583985 0.02583485
v 0.11367581 -0.00662305 0.04190054
v 0.11355086 0.01317336 0.04394252
v 0.10240610 0.02020711 0.02624724
v 0.10910002 -0.01349371 0.03493077
v 0.10906452 0.00435194 0.03284590
v 0.10682563 0.02020795 0.03273159
v 0.11364110 -0.01331684 0.04401558
v 0.10915269 -0.00215382 0.03288026
v 0.10689874 0.01120898 0.03070968
v 0.11142676 0.02041154 0.04159799
v 0.11136545 0.00638368 0.03737349
v 0.10690391 -0.01123140 0.03079619
f 6 3 4
f 7 2 1
f 8 6 4
f 8 1 6
f 8 7 1
f 9 8 4
f 9 5 8
f 10 6 1
f 11 8 5
f 11 7 8
f 12 9 4
f 12 4 3
f 13 5 9
f 13 11 5
f 13 7 11
f 14 10 1
f 14 1 2
f 15 3 6
f 15 6 10
f 16 9 12
f 16 13 9
f 16 12 3
f 17 2 7
f 20 17 14
f 20 14 2
f 20 2 17
f 21 13 18
f 21 14 17
f 21 18 10
f 21 10 14
f 22 18 13
f 22 13 16
f 22 19 18
f 22 16 19
f 23 15 10
f 23 3 15
f 23 19 16
f 23 16 3
f 24 10 18
f 24 18 19
f 24 23 10
f 24 19 23
f 25 7 13
f 25 13 21
f 25 21 17
f 25 17 7

