# https://github.com/mikedh/trimesh
v 0.05715925 -0.08414982 0.03502805
v 0.06461580 -0.07828172 0.03433703
v 0.03396928 -0.06330599 0.00977744
v 0.03326983 -0.06174334 0.00434925
v 0.05731618 -0.07407841 0.01763483
v 0.06442842 -0.06362012 0.02029241
v 0.03362618 -0.08355666 0.02145526
v 0.06243676 -0.08192986 0.03677827
v 0.06252051 -0.06128771 0.01227702
v 0.05067750 -0.08067021 0.01997546
v 0.06217082 -0.08127299 0.02799721
v 0.04857234 -0.06969071 0.01086233
v 0.05263734 -0.08472052 0.03215871
v 0.06169618 -0.07610743 0.02214306
v 0.05748561 -0.06754905 0.01330028
v 0.05120435 -0.06160488 0.00787790
v 0.05291827 -0.07412092 0.01551782
v 0.03305842 -0.08174187 0.01434699
v 0.03621163 -0.08427123 0.02310197
v 0.05736427 -0.08086147 0.02399833
v 0.06184492 -0.06745770 0.01550726
v 0.03974604 -0.07001991 0.00873690
v 0.05796074 -0.06135597 0.01020189
v 0.03308753 -0.06614951 0.00597344
v 0.04396482 -0.07864648 0.01541780
v 0.06177178 -0.07823697 0.02428944
v 0.06218249 -0.06309954 0.01308782
v 0.04874093 -0.06557950 0.00878151
v 0.04422228 -0.07227246 0.01105369
v 0.04234454 -0.06162109 0.00580458
v 0.05526709 -0.06536644 0.01099864
v 0.03299618 -0.07933204 0.01263536
v 0.03725785 -0.08110820 0.01505378
v 0.04189328 -0.07661546 0.01322705
v 0.04221547 -0.06354149 0.00642324
v 0.05097272 -0.06354646 0.00855413
v 0.05759121 -0.06328482 0.01095426
v 0.03515671 -0.07909702 0.01296599
v 0.03539472 -0.06598361 0.00625830
f 6 3 2
f 7 3 4
f 8 2 3
f 8 7 1
f 8 3 7
f 9 4 3
f 9 3 6
f 11 2 8
f 11 9 6
f 11 6 2
f 11 8 1
f 13 11 1
f 14 9 11
f 17 5 10
f 17 15 5
f 17 12 15
f 18 10 13
f 19 13 1
f 19 1 7
f 19 18 13
f 19 7 18
f 20 13 10
f 20 11 13
f 20 10 5
f 20 5 14
f 21 14 5
f 21 9 14
f 21 5 15
f 23 4 9
f 24 7 4
f 25 17 10
f 26 20 14
f 26 14 11
f 26 11 20
f 27 21 15
f 27 9 21
f 29 12 17
f 29 28 12
f 29 22 28
f 30 23 16
f 30 4 23
f 31 15 12
f 31 12 28
f 32 18 7
f 32 7 24
f 32 24 22
f 33 25 10
f 33 10 18
f 34 29 17
f 34 17 25
f 34 25 33
f 35 30 16
f 35 28 22
f 35 4 30
f 36 31 28
f 36 16 23
f 36 23 31
f 36 35 16
f 36 28 35
f 37 27 15
f 37 15 31
f 37 9 27
f 37 31 23
f 37 23 9
f 38 32 22
f 38 22 29
f 38 29 34
f 38 34 33
f 38 33 18
f 38 18 32
f 39 35 22
f 39 22 24
f 39 24 4
f 39 4 35

