# https://github.com/mikedh/trimesh
v -0.04041344 0.02535617 0.00716059
v -0.02652368 0.03917736 0.00196059
v -0.02690417 0.05551162 0.00811057
v -0.05910602 0.05559038 0.01439282
v -0.05851269 0.03891980 0.00484192
v -0.02655700 0.03922920 0.00728425
v -0.05183227 0.02529473 0.00243092
v -0.02643514 0.05509087 0.00294639
v -0.02669036 0.04849765 0.00777588
v -0.04037206 0.02533483 0.00201494
v -0.05194743 0.02534730 0.00779708
v -0.05146732 0.04104218 0.00381950
v -0.05775239 0.05422431 0.00884296
v -0.05486926 0.05600565 0.01305511
v -0.05942669 0.03962475 0.01024562
v -0.05949926 0.05135251 0.01304801
v -0.04893259 0.05465645 0.00619770
v -0.05805852 0.04538878 0.00626129
v -0.03774985 0.05487518 0.00394758
f 6 4 1
f 6 1 2
f 8 2 7
f 8 6 2
f 9 3 4
f 9 4 6
f 9 8 3
f 9 6 8
f 10 7 2
f 10 2 1
f 10 1 7
f 11 7 1
f 11 1 4
f 12 8 7
f 12 7 5
f 14 4 3
f 14 3 8
f 14 13 4
f 15 11 4
f 15 5 7
f 15 7 11
f 16 13 5
f 16 4 13
f 16 15 4
f 16 5 15
f 17 12 5
f 17 13 14
f 18 17 5
f 18 5 13
f 18 13 17
f 19 8 12
f 19 12 17
f 19 17 14
f 19 14 8

