# https://github.com/mikedh/trimesh
v 0.06263377 -0.08879108 0.03870978
v 0.09790666 -0.05071581 0.03817621
v 0.06468069 -0.08001649 0.03679971
v 0.05919390 -0.05133214 0.01114705
v 0.07302640 -0.06044615 0.01780062
v 0.09100917 -0.05196057 0.03662530
v 0.08388657 -0.06941898 0.03747161
v 0.05796074 -0.06135597 0.01020189
v 0.08025508 -0.04984736 0.01705590
v 0.09624962 -0.04980560 0.03461011
v 0.09631993 -0.05441223 0.03905071
v 0.06395706 -0.08050413 0.02860171
v 0.06210043 -0.08807812 0.03705270
v 0.06475218 -0.04991100 0.00822519
v 0.08624392 -0.05817262 0.02866474
v 0.08459980 -0.07000059 0.03932144
v 0.09558700 -0.05153842 0.03506744
v 0.06434477 -0.08788449 0.03915524
v 0.06214404 -0.07237065 0.01925648
v 0.05864766 -0.05059296 0.00653024
v 0.09162233 -0.04969632 0.02809701
v 0.07340790 -0.05185372 0.01325208
v 0.07732012 -0.05829926 0.01988049
v 0.08631503 -0.06482882 0.03509616
v 0.09369636 -0.05865936 0.03937450
v 0.07754829 -0.07596195 0.03744187
v 0.06382730 -0.08723965 0.03760040
v 0.06413050 -0.06510296 0.01533788
v 0.06395555 -0.07174753 0.01998858
v 0.06217082 -0.08127299 0.02799721
v 0.05822081 -0.05470414 0.00758802
v 0.07376026 -0.04987934 0.01261139
v 0.09308274 -0.05349404 0.03310485
v 0.07523046 -0.05397976 0.01556992
v 0.06234755 -0.05428855 0.00886762
v 0.09096148 -0.05153792 0.02866839
v 0.07802421 -0.07665943 0.03920602
v 0.07044926 -0.08052658 0.03537204
v 0.07074253 -0.06271333 0.01775179
v 0.05999711 -0.06095903 0.01087080
v 0.06448369 -0.05198078 0.00887353
v 0.09297984 -0.05805104 0.03761729
v 0.07977383 -0.05159139 0.01766442
f 1 3 4
f 6 4 3
f 10 6 2
f 10 4 6
f 11 2 6
f 13 1 4
f 13 4 8
f 14 4 10
f 17 10 2
f 17 2 11
f 18 11 6
f 18 6 3
f 18 3 1
f 20 4 14
f 21 14 10
f 24 23 15
f 24 16 7
f 25 18 16
f 25 11 18
f 25 16 24
f 26 7 16
f 26 24 7
f 27 13 12
f 27 18 1
f 27 1 13
f 28 19 8
f 29 26 12
f 30 13 8
f 30 8 19
f 30 12 13
f 30 29 12
f 30 19 29
f 31 20 14
f 31 8 4
f 31 4 20
f 32 21 9
f 32 14 21
f 32 9 22
f 33 24 15
f 33 17 11
f 33 21 10
f 33 10 17
f 34 22 9
f 34 5 22
f 35 31 14
f 35 8 31
f 36 15 23
f 36 33 15
f 36 21 33
f 37 26 16
f 37 16 18
f 38 18 27
f 38 37 18
f 38 26 37
f 38 27 12
f 38 12 26
f 39 28 22
f 39 22 5
f 39 5 23
f 39 23 24
f 39 24 26
f 39 26 29
f 39 29 19
f 39 19 28
f 40 28 8
f 40 22 28
f 40 35 22
f 40 8 35
f 41 32 22
f 41 14 32
f 41 35 14
f 41 22 35
f 42 25 24
f 42 24 33
f 42 33 11
f 42 11 25
f 43 23 5
f 43 5 34
f 43 34 9
f 43 36 23
f 43 9 21
f 43 21 36

