# https://github.com/mikedh/trimesh
v 0.08939095 0.02093026 0.01901888
v 0.08748607 0.02042260 0.01228766
v 0.08978258 0.04665388 0.03045976
v 0.06700615 0.04699676 0.01274717
v 0.06359305 0.02079605 0.00725646
v 0.08422533 0.04476361 0.01766039
v 0.09034758 0.04455419 0.02982279
v 0.08500763 0.01998884 0.01056766
v 0.06397718 0.04647248 0.01113026
v 0.08858135 0.04715319 0.02931012
v 0.08648778 0.04472687 0.01978968
v 0.08244989 0.02936078 0.01092581
v 0.06321034 0.04591579 0.00650010
v 0.07781569 0.04491069 0.01315793
v 0.08658474 0.04036282 0.01768566
v 0.06286341 0.04328635 0.00582622
v 0.06271856 0.02954545 0.00057834
v 0.08668106 0.03367108 0.01525790
v 0.07564224 0.03618848 0.00870869
v 0.06661339 0.02038450 0.00074523
v 0.07571578 0.04269763 0.01094847
v 0.06381693 0.02085144 0.00001118
v 0.06921113 0.04522219 0.00856060
f 7 1 2
f 7 5 1
f 7 3 5
f 8 2 1
f 8 1 5
f 9 5 3
f 10 9 3
f 10 4 9
f 11 3 7
f 11 10 3
f 11 6 10
f 12 2 8
f 13 9 4
f 14 10 6
f 14 4 10
f 14 13 4
f 15 11 7
f 15 6 11
f 15 14 6
f 16 5 9
f 16 9 13
f 17 16 13
f 17 5 16
f 18 15 7
f 18 7 2
f 18 2 12
f 18 14 15
f 20 12 8
f 20 8 5
f 20 19 12
f 20 17 19
f 21 18 12
f 21 14 18
f 21 12 19
f 22 20 5
f 22 5 17
f 22 17 20
f 23 13 14
f 23 14 21
f 23 17 13
f 23 21 19
f 23 19 17

