# https://github.com/mikedh/trimesh
v 0.06367857 0.00929352 0.00675788
v 0.06468820 0.01396008 0.00053614
v 0.06356143 0.05545112 0.01479705
v 0.04275748 0.05548466 0.00866845
v 0.04269932 0.03922085 0.00209868
v 0.04263355 0.03922824 0.00712299
v 0.06438720 0.05146446 0.01324269
v 0.05889915 0.00919331 0.00203301
v 0.05895723 0.00915383 0.00652742
v 0.05702208 0.05646219 0.01305665
v 0.04194617 0.05423584 0.00197127
v 0.04230862 0.05249649 0.00063124
v 0.06353083 0.00919501 0.00170403
v 0.04962938 0.02535817 0.00221553
v 0.04245587 0.05121861 0.00788169
v 0.06215802 0.05402531 0.00877872
v 0.04962484 0.02535550 0.00663956
v 0.06188714 0.03339995 0.00158801
v 0.05671645 0.03971661 0.00152696
f 7 1 2
f 7 3 1
f 9 1 3
f 9 3 6
f 10 6 3
f 10 4 6
f 11 5 6
f 11 4 10
f 12 8 5
f 12 2 8
f 12 5 11
f 13 8 2
f 13 2 1
f 13 9 8
f 13 1 9
f 14 6 5
f 14 5 8
f 15 11 6
f 15 6 4
f 15 4 11
f 16 11 10
f 16 10 3
f 16 12 11
f 16 3 7
f 16 7 2
f 17 9 6
f 17 6 14
f 17 14 8
f 17 8 9
f 18 16 2
f 18 2 12
f 19 18 12
f 19 12 16
f 19 16 18

