# https://github.com/mikedh/trimesh
v -0.01029785 0.07985121 0.00956431
v -0.01023917 0.08156707 0.01057032
v -0.01048451 0.09803143 0.03272387
v -0.02644088 0.10343450 0.03827029
v -0.05817834 0.07728968 0.02314272
v -0.01018471 0.09464131 0.02175058
v -0.01050847 0.08180535 0.01566118
v -0.03304582 0.07730265 0.01191769
v -0.05997668 0.08237796 0.03682750
v -0.01015617 0.09020929 0.01733891
v -0.06018139 0.08020875 0.03419956
v -0.02644850 0.07811345 0.01085873
v -0.03701359 0.09197687 0.02656382
v -0.02456235 0.09816687 0.03729199
v -0.05547218 0.07702779 0.02107306
v -0.05788139 0.09064777 0.03909083
v -0.01464786 0.08133440 0.01094137
v -0.02362936 0.08768183 0.01763480
v -0.02354379 0.09433206 0.02427401
v -0.03722708 0.08300653 0.01771549
v -0.04576132 0.09179078 0.03097404
v -0.03284503 0.10197733 0.03908961
v -0.01473028 0.07970085 0.01002935
v -0.01910357 0.08338965 0.01307101
v -0.01228313 0.09006230 0.01746454
v -0.03252575 0.09857499 0.03288861
v -0.02594255 0.10153927 0.03487277
v -0.04602778 0.07858167 0.01756237
v -0.02814329 0.08093685 0.01321504
v -0.05500303 0.08280830 0.02679482
v -0.03960286 0.09955298 0.03913092
v -0.01228340 0.09446981 0.02186690
v -0.03472720 0.09644095 0.03095391
v -0.03254102 0.10107699 0.03728128
v -0.02823045 0.10107883 0.03503539
v -0.05485403 0.07832002 0.02194427
v -0.03279878 0.07897085 0.01302221
v -0.04663000 0.07712769 0.01664270
v -0.05697823 0.08729636 0.03339156
v -0.03014115 0.09428316 0.02659859
v -0.03925937 0.09870610 0.03740364
v -0.05763601 0.07868063 0.02413318
v -0.05734470 0.08982668 0.03726117
f 6 4 3
f 7 1 2
f 7 2 3
f 9 7 3
f 10 6 3
f 10 3 2
f 11 1 7
f 11 8 1
f 11 7 9
f 12 1 8
f 14 9 3
f 14 3 4
f 15 11 5
f 15 8 11
f 16 11 9
f 16 5 11
f 16 9 14
f 17 2 1
f 19 18 13
f 20 13 18
f 22 16 14
f 22 14 4
f 23 17 1
f 23 1 12
f 23 12 17
f 24 2 17
f 24 17 12
f 25 6 10
f 25 24 18
f 25 10 2
f 25 2 24
f 27 4 6
f 27 19 26
f 28 13 20
f 28 21 13
f 29 20 18
f 29 18 24
f 29 24 12
f 29 12 8
f 31 21 16
f 31 16 22
f 32 6 25
f 32 27 6
f 32 19 27
f 32 25 18
f 32 18 19
f 33 26 19
f 33 13 21
f 34 22 4
f 34 31 22
f 35 27 26
f 35 4 27
f 35 34 4
f 35 26 34
f 36 28 15
f 36 21 28
f 36 30 21
f 37 29 8
f 37 20 29
f 38 8 15
f 38 15 28
f 38 37 8
f 38 28 20
f 38 20 37
f 39 5 16
f 39 21 30
f 40 33 19
f 40 19 13
f 40 13 33
f 41 26 33
f 41 34 26
f 41 31 34
f 41 33 21
f 41 21 31
f 42 36 15
f 42 15 5
f 42 30 36
f 42 39 30
f 42 5 39
f 43 39 16
f 43 16 21
f 43 21 39

