# https://github.com/mikedh/trimesh
v 0.02613628 -0.11290648 0.06536420
v 0.03429160 -0.09708980 0.03880371
v 0.03384635 -0.10622427 0.06251590
v -0.01747139 -0.09991841 0.03765001
v 0.00116376 -0.10626335 0.03696887
v 0.03364878 -0.09518980 0.03543898
v -0.01813044 -0.10980512 0.06242999
v 0.03281263 -0.10571510 0.04601852
v 0.00108172 -0.10001928 0.03537626
v -0.00270914 -0.11454174 0.06773873
v -0.01675078 -0.10815853 0.04386376
v 0.03212536 -0.11135690 0.06572337
v 0.01462993 -0.11032405 0.04826213
v 0.03286401 -0.10157785 0.03709935
v 0.02700832 -0.09661242 0.03463598
v 0.02938810 -0.10868537 0.06579887
v -0.01772960 -0.10093517 0.03928435
v -0.01681324 -0.10598380 0.03942162
v -0.01766773 -0.11374984 0.06265627
v 0.03264779 -0.11047963 0.06203977
v 0.00285025 -0.11558169 0.06786417
v 0.02591119 -0.11241699 0.06216495
v -0.01031140 -0.11578160 0.06389644
v 0.01459484 -0.10558267 0.03740151
v 0.03308419 -0.10826545 0.06538788
v -0.01017151 -0.10802632 0.04169248
v -0.01811708 -0.10837101 0.05841491
v 0.00292318 -0.11467314 0.06790500
v 0.02357962 -0.10782962 0.04617302
v 0.00862522 -0.11626069 0.06531781
v 0.03267082 -0.10774698 0.05273212
v -0.01659795 -0.11276715 0.05724067
v -0.00293873 -0.11580088 0.06766245
v 0.01231840 -0.10798909 0.04162528
v -0.01462749 -0.11019930 0.04832678
v 0.01462876 -0.11256567 0.05507915
v 0.02128968 -0.10559685 0.03959443
v 0.01049615 -0.11572695 0.06413771
v -0.01175166 -0.11509397 0.06203185
v -0.00871969 -0.11529801 0.06538427
v 0.02596273 -0.10336607 0.03732913
v 0.03045999 -0.10346808 0.03950530
v 0.03041222 -0.10547501 0.04384713
v 0.01902648 -0.10788858 0.04388107
v 0.01189652 -0.11503403 0.06227627
v -0.01460161 -0.11253805 0.05527403
f 6 3 2
f 7 6 4
f 7 3 6
f 8 2 3
f 9 5 4
f 14 6 2
f 14 2 8
f 15 5 9
f 15 6 14
f 15 9 4
f 15 4 6
f 16 3 7
f 16 7 10
f 17 7 4
f 18 4 5
f 18 17 4
f 19 10 7
f 19 18 11
f 19 17 18
f 20 8 3
f 21 1 12
f 22 20 12
f 22 12 1
f 24 15 14
f 24 5 15
f 25 16 12
f 25 3 16
f 25 20 3
f 25 12 20
f 26 18 5
f 26 11 18
f 26 13 23
f 27 19 7
f 27 7 17
f 27 17 19
f 28 16 10
f 28 10 21
f 28 21 12
f 28 12 16
f 29 8 22
f 30 23 13
f 30 1 21
f 31 22 8
f 31 8 20
f 31 20 22
f 32 19 11
f 33 21 10
f 33 10 19
f 33 30 21
f 33 23 30
f 34 5 24
f 34 26 5
f 34 13 26
f 35 11 26
f 35 32 11
f 36 29 22
f 36 13 29
f 36 30 13
f 37 34 24
f 38 22 1
f 38 1 30
f 39 23 19
f 39 19 32
f 39 35 26
f 39 26 23
f 40 33 19
f 40 19 23
f 40 23 33
f 41 37 24
f 41 24 14
f 42 14 8
f 42 41 14
f 42 37 41
f 43 8 29
f 43 42 8
f 43 37 42
f 44 29 13
f 44 13 34
f 44 34 37
f 44 43 29
f 44 37 43
f 45 36 22
f 45 22 38
f 45 38 30
f 45 30 36
f 46 39 32
f 46 32 35
f 46 35 39

