# https://github.com/mikedh/trimesh
v 0.11422125 -0.02762591 0.05455155
v 0.11390848 -0.02761114 0.05228715
v 0.11615139 -0.01608906 0.05432729
v 0.11365662 -0.02531143 0.05016409
v 0.08767457 -0.02735020 0.01416424
v 0.11411514 -0.01559743 0.04608595
v 0.09068454 -0.02836944 0.02231668
v 0.10234012 -0.02692948 0.02831997
v 0.08783662 -0.01599192 0.01182181
v 0.10986367 -0.02805796 0.05111106
v 0.10916365 -0.02713355 0.03953447
v 0.09622448 -0.02711392 0.02140162
v 0.08939212 -0.01583924 0.01289266
v 0.08773293 -0.01816642 0.01211513
v 0.11182834 -0.01709938 0.05366199
v 0.11154684 -0.02512347 0.04392459
v 0.10688415 -0.02710603 0.03516294
v 0.10285003 -0.01583985 0.02583485
v 0.09558086 -0.02452802 0.01986191
v 0.08923943 -0.01811593 0.01311003
v 0.11073988 -0.02790903 0.05399219
v 0.09112916 -0.01652632 0.01969095
v 0.10907743 -0.02256351 0.03732730
v 0.10678222 -0.02032676 0.03275037
v 0.08911214 -0.02705098 0.01523018
v 0.09653383 -0.01591838 0.01883507
v 0.10254739 -0.02032054 0.02645823
v 0.10452364 -0.02482525 0.03071996
v 0.10735831 -0.01582399 0.03242641
f 1 2 3
f 6 3 2
f 6 2 4
f 10 7 2
f 10 2 1
f 12 7 5
f 13 9 3
f 13 3 6
f 14 5 7
f 14 7 9
f 15 3 9
f 16 4 2
f 16 2 11
f 16 6 4
f 17 11 2
f 17 2 7
f 17 12 8
f 17 7 12
f 18 13 6
f 20 5 14
f 20 14 9
f 20 9 13
f 21 10 1
f 21 1 3
f 21 3 15
f 21 15 7
f 21 7 10
f 22 15 9
f 22 9 7
f 22 7 15
f 23 16 11
f 23 6 16
f 23 11 17
f 24 23 17
f 25 19 12
f 25 12 5
f 25 20 19
f 25 5 20
f 26 13 18
f 26 20 13
f 26 19 20
f 27 8 12
f 27 12 19
f 27 26 18
f 27 19 26
f 28 24 17
f 28 17 8
f 28 27 24
f 28 8 27
f 29 18 6
f 29 6 23
f 29 23 24
f 29 27 18
f 29 24 27

