# https://github.com/mikedh/trimesh
v 0.08959390 -0.02799324 0.02114454
v 0.09021265 -0.02339104 0.02044138
v 0.08939095 0.02093026 0.01901888
v 0.06359305 0.02079605 0.00725646
v 0.06294212 -0.02746060 0.00035928
v 0.08767457 -0.02735020 0.01416424
v 0.06383452 -0.02785743 0.00849894
v 0.06661339 0.02038450 0.00074523
v 0.08824988 -0.02831160 0.02002066
v 0.08694162 0.01339471 0.01084459
v 0.06381693 0.02085144 0.00001118
v 0.08748607 0.02042260 0.01228766
v 0.08691674 -0.01352497 0.01083326
v 0.06805881 0.01324249 0.00101616
v 0.06641109 0.02107019 0.00798344
v 0.08273613 0.01574085 0.00862086
v 0.08786012 0.02108415 0.01784122
v 0.08257130 -0.02722351 0.01049854
v 0.06842778 -0.01589852 0.00150474
v 0.08500763 0.01998884 0.01056766
v 0.08459889 -0.02239024 0.01083213
v 0.08261020 -0.01583217 0.00863082
v 0.08700358 -0.02481977 0.01312682
v 0.06605484 -0.02440280 0.00143657
f 1 2 3
f 1 3 4
f 6 2 1
f 7 1 4
f 7 4 5
f 9 6 1
f 9 5 6
f 9 7 5
f 9 1 7
f 11 5 4
f 12 3 2
f 12 8 11
f 13 2 6
f 13 12 2
f 13 10 12
f 14 11 8
f 14 5 11
f 15 11 4
f 15 4 3
f 16 14 8
f 16 10 13
f 16 13 14
f 17 12 11
f 17 3 12
f 17 15 3
f 17 11 15
f 18 6 5
f 19 5 14
f 20 12 10
f 20 10 16
f 20 16 8
f 20 8 12
f 21 6 18
f 22 19 14
f 22 14 13
f 22 13 21
f 22 21 18
f 23 21 13
f 23 13 6
f 23 6 21
f 24 5 19
f 24 19 22
f 24 22 18
f 24 18 5

