# https://github.com/mikedh/trimesh
v 0.09798135 -0.03461505 0.02661646
v 0.10158963 -0.02732097 0.02738395
v 0.09296114 0.02125729 0.02254037
v 0.09047117 0.02133479 0.02014382
v 0.08783662 -0.01599192 0.01182181
v 0.09905603 -0.03405607 0.02762276
v 0.09803246 -0.02251873 0.02181365
v 0.09112916 -0.01652632 0.01969095
v 0.09598930 0.01101751 0.01762128
v 0.09804973 -0.03359987 0.02613634
v 0.10150176 0.02049122 0.02515750
v 0.09697505 -0.03415885 0.02513004
v 0.08765736 0.01815315 0.01204798
v 0.09592719 -0.01127817 0.01763587
v 0.10108814 -0.02944022 0.02776847
v 0.09801042 -0.02923860 0.02410362
v 0.09368982 0.00676472 0.01525409
v 0.09143284 0.02035225 0.01524381
v 0.08939212 -0.01583924 0.01289266
v 0.10348395 0.00671792 0.02536284
v 0.10010847 -0.02903590 0.02638432
v 0.10008630 -0.02243352 0.02400489
v 0.10047239 0.02033385 0.02384385
v 0.08919777 0.01798186 0.01312157
v 0.08855966 0.02066227 0.01309317
v 0.09364047 -0.00673175 0.01523111
v 0.10240268 0.00658654 0.02391864
v 0.09945212 -0.02819533 0.02531017
v 0.10344932 -0.00683617 0.02539411
v 0.09801245 -0.01131885 0.01964125
v 0.10017831 0.01110712 0.02196437
v 0.10241989 -0.00680972 0.02405777
f 1 3 4
f 6 3 1
f 8 1 4
f 8 4 5
f 10 6 1
f 11 3 6
f 11 4 3
f 12 8 5
f 12 1 8
f 12 10 1
f 13 5 4
f 15 6 10
f 15 11 6
f 17 5 13
f 19 14 7
f 19 7 16
f 19 16 12
f 19 12 5
f 20 15 2
f 20 11 15
f 21 2 15
f 21 12 16
f 21 15 10
f 21 10 12
f 22 16 7
f 23 9 18
f 24 17 13
f 24 18 9
f 24 9 17
f 25 13 4
f 25 4 11
f 25 23 18
f 25 11 23
f 25 24 13
f 25 18 24
f 26 14 19
f 26 19 5
f 26 5 17
f 27 17 9
f 27 23 11
f 27 11 20
f 27 26 17
f 28 21 16
f 28 2 21
f 28 22 2
f 28 16 22
f 29 20 2
f 29 2 22
f 29 27 20
f 30 22 7
f 30 7 14
f 30 14 26
f 30 26 27
f 31 27 9
f 31 9 23
f 31 23 27
f 32 29 22
f 32 22 30
f 32 30 27
f 32 27 29

