# https://github.com/mikedh/trimesh
v -0.06938440 -0.08467323 0.05118620
v -0.06157412 -0.08367634 0.03999352
v -0.06206547 -0.08450952 0.04182048
v -0.09115209 -0.05311880 0.04038587
v -0.08407284 -0.07154275 0.04197639
v -0.09542433 -0.06211155 0.04976335
v -0.06238299 -0.08245777 0.03914720
v -0.07353643 -0.08126639 0.04154452
v -0.09250244 -0.05889701 0.04888030
v -0.09199792 -0.06113024 0.04123509
v -0.07816161 -0.08146454 0.05031708
v -0.07085307 -0.08365817 0.05167043
v -0.09199805 -0.05370561 0.04208935
v -0.08836501 -0.06948003 0.04630064
v -0.09000305 -0.05394890 0.03955132
v -0.07722568 -0.07826606 0.04194668
v -0.09354137 -0.06512339 0.05060933
v -0.09423383 -0.06126449 0.04570908
v -0.09114355 -0.06270536 0.04188410
v -0.07723373 -0.08052617 0.04633260
v -0.09299465 -0.06467118 0.04854556
v -0.09070300 -0.06492681 0.04415318
v -0.09329910 -0.06285207 0.04616399
f 1 3 4
f 3 2 4
f 7 4 2
f 8 2 3
f 8 3 1
f 8 7 2
f 9 1 4
f 10 8 5
f 10 7 8
f 11 8 1
f 12 1 9
f 12 11 1
f 13 9 4
f 13 6 9
f 15 10 4
f 15 4 7
f 15 7 10
f 16 5 8
f 17 12 9
f 17 9 6
f 17 11 12
f 17 14 11
f 18 6 13
f 18 13 4
f 18 4 10
f 19 10 5
f 19 5 14
f 20 16 8
f 20 8 11
f 20 11 14
f 20 14 5
f 20 5 16
f 21 17 6
f 21 14 17
f 22 19 14
f 22 10 19
f 23 14 21
f 23 22 14
f 23 18 10
f 23 10 22
f 23 21 6
f 23 6 18

