# https://github.com/mikedh/trimesh
v -0.10005174 -0.06217442 0.06354896
v -0.09012642 -0.06146390 0.03885329
v -0.08918880 -0.05336120 0.03785773
v -0.11620417 -0.02927962 0.06651536
v -0.10428426 -0.04475787 0.04631928
v -0.10718470 -0.04730331 0.06814563
v -0.09046175 -0.06169854 0.04991181
v -0.09519495 -0.06031187 0.04633096
v -0.10677668 -0.05176446 0.06410901
v -0.10708979 -0.02938176 0.03954118
v -0.10321720 -0.05216454 0.06446482
v -0.11200038 -0.02970627 0.06262074
v -0.09742409 -0.05141145 0.03959292
v -0.11588902 -0.03159095 0.06396496
v -0.10926592 -0.04742740 0.06814288
v -0.10443196 -0.05385750 0.05976784
v -0.09093466 -0.05296203 0.03134282
v -0.09974062 -0.03079009 0.03673099
v -0.11492124 -0.02915811 0.06643426
v -0.10207059 -0.04917303 0.04637443
v -0.09312000 -0.06028298 0.04207765
v -0.10205552 -0.04251211 0.04002218
v -0.11114922 -0.03777930 0.05729413
v -0.10940246 -0.02933092 0.04390117
v -0.10894924 -0.04712192 0.06416649
v -0.11667716 -0.02956491 0.06575001
v -0.10726842 -0.05131996 0.06728878
v -0.10000258 -0.06060018 0.05962589
v -0.09020158 -0.05468578 0.03196334
v -0.09094559 -0.04981835 0.03677255
v -0.09976670 -0.05143160 0.04419042
v -0.10425418 -0.04260920 0.04392656
v -0.10437354 -0.05124796 0.05535439
v -0.09208790 -0.05227672 0.03211373
v -0.10890647 -0.03798192 0.05091559
v -0.11616257 -0.03100984 0.06510517
v -0.10620972 -0.05039543 0.06770441
v -0.10657250 -0.03129445 0.03966696
v -0.09148376 -0.05401091 0.03285513
v -0.10886110 -0.03119601 0.04410821
v -0.10778701 -0.04950066 0.06813611
v -0.09134359 -0.06061887 0.03956632
v -0.09321014 -0.05394553 0.03518564
f 7 1 2
f 7 2 3
f 8 2 1
f 11 7 6
f 11 6 1
f 11 1 7
f 12 6 7
f 15 6 4
f 16 1 9
f 18 12 7
f 18 7 3
f 18 17 10
f 19 4 6
f 19 6 12
f 19 18 10
f 19 12 18
f 21 2 8
f 24 19 10
f 24 4 19
f 25 15 14
f 25 9 15
f 25 14 23
f 26 15 4
f 26 24 14
f 26 4 24
f 27 15 9
f 27 9 1
f 28 16 8
f 28 8 1
f 28 1 16
f 29 17 3
f 29 3 2
f 30 18 3
f 30 3 17
f 30 17 18
f 31 20 13
f 31 8 20
f 31 21 8
f 31 13 21
f 32 20 5
f 32 13 20
f 32 22 13
f 33 5 20
f 33 23 5
f 33 16 9
f 33 25 23
f 33 9 25
f 33 20 8
f 33 8 16
f 34 13 22
f 34 10 17
f 35 23 14
f 35 32 5
f 35 5 23
f 36 26 14
f 36 14 15
f 36 15 26
f 37 1 6
f 38 24 10
f 38 22 32
f 38 34 22
f 38 10 34
f 39 34 17
f 39 17 29
f 39 29 2
f 40 35 14
f 40 14 24
f 40 32 35
f 40 38 32
f 40 24 38
f 41 27 1
f 41 1 37
f 41 15 27
f 41 37 6
f 41 6 15
f 42 39 2
f 42 2 21
f 43 13 34
f 43 34 39
f 43 39 42
f 43 42 21
f 43 21 13

