# https://github.com/mikedh/trimesh
v -0.08494789 0.07844619 0.06259318
v -0.03161393 0.09630428 0.03695761
v -0.05143496 0.10084628 0.06759282
v -0.03810940 0.10760328 0.06209367
v -0.06621253 0.08728587 0.04191624
v -0.03137773 0.10264927 0.04924500
v -0.06670604 0.07956223 0.03942157
v -0.03070924 0.10253665 0.03877291
v -0.06850909 0.09431548 0.06431293
v -0.04923605 0.10154807 0.06627189
v -0.07928808 0.08096200 0.06238635
v -0.07665603 0.07777721 0.04082740
v -0.04353398 0.10321767 0.05059046
v -0.03044964 0.10589298 0.04599949
v -0.07327667 0.09034845 0.06816666
v -0.05091613 0.10317295 0.06676936
v -0.08279652 0.07706375 0.05022965
v -0.05788139 0.09064777 0.03909083
v -0.06200017 0.09409998 0.05058611
v -0.03052683 0.10391787 0.04138131
v -0.03094789 0.10720656 0.04994936
v -0.08224669 0.08241622 0.06385611
v -0.07613949 0.08517337 0.06610141
v -0.05099139 0.10186436 0.06775109
v -0.05045736 0.10323759 0.06193543
v -0.06908908 0.09414625 0.06571208
v -0.08058015 0.07704494 0.04581064
v -0.07071780 0.08724480 0.04858748
v -0.07566575 0.07929190 0.04137421
v -0.05540199 0.08510576 0.03675166
v -0.04614162 0.09845629 0.04187571
v -0.05958138 0.09151119 0.04209403
v -0.03719584 0.10323313 0.04418479
v -0.04343081 0.10536187 0.05747488
v -0.08001941 0.08469794 0.06560581
v -0.08202651 0.08057410 0.05744856
v -0.07719410 0.08351259 0.06451116
v -0.07469130 0.08838410 0.06810827
v -0.05505527 0.10019551 0.06805305
v -0.05495156 0.10091459 0.06207957
v -0.04469179 0.10593990 0.06298684
v -0.05514245 0.10110272 0.06709269
v -0.07718969 0.08044351 0.04627841
v -0.06613758 0.08956404 0.04615135
v -0.07058810 0.08511511 0.04406296
v -0.04827648 0.09630258 0.03985592
v -0.05493652 0.09610762 0.04626568
v -0.03269083 0.10539342 0.04625975
v -0.03722066 0.10083607 0.03970500
v -0.08183842 0.07815141 0.05058730
v -0.07272013 0.08949391 0.05986731
v -0.05268802 0.09399215 0.03977144
v -0.04820686 0.09839083 0.04395620
v -0.07963266 0.07817445 0.04626604
v -0.07961323 0.08275936 0.05763557
f 10 6 4
f 10 4 3
f 10 3 6
f 11 2 6
f 11 7 2
f 11 1 7
f 11 6 3
f 14 6 2
f 17 7 1
f 20 14 2
f 20 2 8
f 21 4 6
f 21 6 14
f 23 1 11
f 24 3 4
f 24 4 16
f 26 9 22
f 26 25 9
f 27 12 7
f 27 7 17
f 28 9 19
f 29 18 12
f 29 5 18
f 29 12 27
f 30 18 8
f 30 8 2
f 30 2 7
f 30 7 12
f 30 12 18
f 32 18 5
f 33 13 21
f 33 31 13
f 33 20 8
f 34 21 13
f 34 4 21
f 34 13 19
f 34 19 25
f 35 22 1
f 35 26 22
f 35 15 26
f 36 17 1
f 36 1 22
f 37 23 11
f 37 11 3
f 37 3 23
f 38 23 3
f 38 15 35
f 38 35 1
f 38 1 23
f 39 24 16
f 39 15 38
f 39 38 3
f 39 3 24
f 40 25 19
f 40 19 9
f 40 9 25
f 41 25 16
f 41 16 4
f 41 34 25
f 41 4 34
f 42 16 25
f 42 25 26
f 42 39 16
f 42 26 15
f 42 15 39
f 44 28 19
f 44 32 5
f 44 19 32
f 45 5 29
f 45 44 5
f 45 28 44
f 45 43 28
f 45 29 43
f 46 8 18
f 47 19 13
f 47 32 19
f 48 14 20
f 48 20 33
f 48 33 21
f 48 21 14
f 49 33 8
f 49 31 33
f 49 46 31
f 49 8 46
f 50 36 28
f 50 17 36
f 50 28 43
f 51 22 9
f 51 9 28
f 52 46 18
f 52 18 32
f 52 32 47
f 52 47 31
f 52 31 46
f 53 47 13
f 53 13 31
f 53 31 47
f 54 50 43
f 54 27 17
f 54 17 50
f 54 43 29
f 54 29 27
f 55 36 22
f 55 22 51
f 55 51 28
f 55 28 36

