# https://github.com/mikedh/trimesh
v 0.06405251 0.07920035 0.03507542
v 0.06473664 0.08004598 0.03660448
v 0.05911208 0.09533673 0.06092810
v 0.03615502 0.09571027 0.03741272
v 0.05982283 0.08989631 0.03737640
v 0.03630146 0.09383752 0.03467390
v 0.06472414 0.09298411 0.06089915
v 0.06202124 0.08802375 0.03695816
v 0.06173362 0.09197531 0.04385415
v 0.03581324 0.09470245 0.03567865
v 0.05539867 0.09202253 0.03718178
v 0.06255075 0.07999021 0.03445520
v 0.06367298 0.09485584 0.06064400
v 0.06166794 0.08979698 0.03948979
f 6 1 3
f 7 1 2
f 7 3 1
f 8 2 1
f 8 7 2
f 9 7 8
f 10 6 3
f 10 3 4
f 11 8 6
f 11 5 8
f 11 6 10
f 11 10 4
f 11 9 5
f 12 8 1
f 12 1 6
f 12 6 8
f 13 4 3
f 13 3 7
f 13 7 9
f 13 11 4
f 13 9 11
f 14 9 8
f 14 8 5
f 14 5 9

