# https://github.com/mikedh/trimesh
v -0.05862519 0.04590828 0.00655468
v -0.05794750 0.05220589 0.00821366
v -0.05788139 0.09064777 0.03909083
v -0.05837423 0.09146803 0.04087277
v -0.09734316 0.05258416 0.04083482
v -0.05978073 0.04695418 0.01189963
v -0.08060399 0.04523038 0.01710229
v -0.07059190 0.08256869 0.03982974
v -0.08870896 0.05461683 0.03875127
v -0.06928914 0.04536158 0.01050008
v -0.08985133 0.04651285 0.03265136
v -0.07115184 0.08330791 0.04167016
v -0.06455249 0.08813603 0.04148916
v -0.07731415 0.06928197 0.03121812
v -0.06056217 0.08323338 0.03848814
v -0.09646653 0.05432610 0.04120265
v -0.06410116 0.06276130 0.01563531
v -0.06265777 0.04549780 0.00777978
v -0.09217981 0.04544122 0.02764552
v -0.06033369 0.09066806 0.04127620
v -0.06393435 0.08277818 0.03324222
v -0.08616644 0.06709527 0.03992812
v -0.09376068 0.05852146 0.04142740
v -0.07537882 0.04947995 0.01548027
v -0.06202210 0.06067943 0.01347458
v -0.06000301 0.05197576 0.00889165
v -0.07362531 0.04517438 0.01275654
v -0.09316705 0.04595700 0.02910051
v -0.07969247 0.05582886 0.02210510
v -0.06165585 0.07387177 0.02227809
v -0.05769970 0.08800689 0.03484481
v -0.08690406 0.06744556 0.04148923
v -0.06632629 0.06056815 0.01563181
v -0.06243962 0.04758752 0.00834194
v -0.06899357 0.04743162 0.01103869
v -0.09322845 0.05367678 0.03533168
v -0.08196421 0.04926745 0.01999708
v -0.08849039 0.05570905 0.03104457
v -0.06167569 0.08044745 0.02879263
v -0.06387706 0.06937681 0.01999308
v -0.05786091 0.07023664 0.01698050
v -0.05987942 0.08986002 0.03959575
v -0.05934537 0.08737523 0.03542682
v -0.09315127 0.05806539 0.03982854
v -0.07518737 0.05804537 0.02000795
v -0.07327134 0.04724094 0.01336729
v -0.09653507 0.05208884 0.03902294
v -0.09094538 0.04916059 0.02875035
v -0.08021116 0.04729813 0.01771014
v -0.08847094 0.06019863 0.03539749
v -0.05990097 0.06972844 0.01768776
v -0.09573146 0.05386202 0.03950379
f 1 2 3
f 6 1 3
f 6 3 4
f 11 9 5
f 11 6 9
f 11 1 6
f 13 8 12
f 15 9 6
f 15 6 4
f 15 4 9
f 16 5 9
f 18 2 1
f 18 1 11
f 19 18 11
f 20 4 3
f 20 16 9
f 20 9 4
f 21 8 13
f 21 14 8
f 22 12 8
f 22 8 14
f 23 13 12
f 23 20 13
f 23 16 20
f 26 25 2
f 27 10 18
f 27 7 24
f 27 19 7
f 27 18 19
f 28 19 11
f 28 11 5
f 31 3 2
f 32 23 12
f 32 12 22
f 33 17 25
f 34 18 10
f 34 26 2
f 34 2 18
f 35 25 26
f 35 33 25
f 35 24 33
f 35 10 27
f 35 34 10
f 35 26 34
f 37 7 19
f 38 14 29
f 39 30 14
f 39 14 21
f 39 21 31
f 40 14 30
f 40 17 33
f 41 2 25
f 41 25 17
f 41 31 2
f 41 39 31
f 41 30 39
f 42 20 3
f 42 3 31
f 42 13 20
f 43 31 21
f 43 21 13
f 43 42 31
f 43 13 42
f 44 32 22
f 44 23 32
f 44 16 23
f 45 33 24
f 45 40 33
f 45 29 14
f 45 14 40
f 45 37 29
f 45 24 37
f 46 35 27
f 46 27 24
f 46 24 35
f 47 36 28
f 47 28 5
f 48 37 19
f 48 29 37
f 48 38 29
f 48 19 28
f 48 28 36
f 48 36 38
f 49 37 24
f 49 24 7
f 49 7 37
f 50 22 14
f 50 14 38
f 50 44 22
f 50 38 36
f 50 36 44
f 51 40 30
f 51 30 41
f 51 41 17
f 51 17 40
f 52 44 36
f 52 16 44
f 52 36 47
f 52 47 5
f 52 5 16

