# https://github.com/mikedh/trimesh
v 0.01993001 0.09819576 0.03491349
v 0.01947571 0.09611404 0.02488609
v 0.01935099 0.10423118 0.03678130
v -0.01472399 0.11084054 0.05031935
v -0.03117739 0.09704640 0.03797519
v -0.00783094 0.10342114 0.03306307
v 0.00117344 0.10709202 0.04931971
v 0.00791668 0.10339526 0.03273876
v -0.03034353 0.10310836 0.03963992
v -0.02167879 0.09569475 0.02526165
v 0.00115440 0.11136269 0.05015061
v -0.03137773 0.10264927 0.04924500
v 0.01669464 0.10109137 0.03057628
v 0.00105303 0.09800219 0.02512160
v -0.01227918 0.10565291 0.03736751
v -0.02635553 0.09610032 0.02720613
v 0.00112824 0.10824180 0.04140099
v -0.03153639 0.09903080 0.04159485
v -0.03094789 0.10720656 0.04994936
v -0.02620689 0.10839063 0.05043815
v 0.01930056 0.10329758 0.03503445
v -0.01448733 0.10115121 0.03074688
v 0.01923732 0.09711432 0.02600454
v -0.01905187 0.10767335 0.04393480
v 0.00115462 0.11069238 0.04805758
v -0.01020439 0.10794552 0.04155180
v -0.02593944 0.09893779 0.03062948
v 0.01909444 0.09900763 0.02833715
v -0.02575161 0.10313679 0.03735486
v -0.01464069 0.11017856 0.04822411
v -0.03044964 0.10589298 0.04599949
v -0.01908075 0.09882958 0.02861727
v -0.02606173 0.09706184 0.02827387
v -0.02353255 0.10094859 0.03291496
v -0.02145608 0.09654817 0.02628248
v -0.01912799 0.10321370 0.03525526
f 1 2 3
f 5 2 1
f 7 1 3
f 10 2 5
f 11 7 3
f 12 5 1
f 12 1 7
f 14 6 8
f 14 2 10
f 14 8 13
f 16 10 5
f 16 5 9
f 17 3 8
f 17 8 6
f 17 6 15
f 18 9 5
f 18 5 12
f 19 18 12
f 19 9 18
f 20 11 4
f 20 19 12
f 20 4 19
f 20 12 7
f 20 7 11
f 21 13 8
f 21 8 3
f 21 3 2
f 22 14 10
f 22 6 14
f 22 15 6
f 23 14 13
f 23 2 14
f 25 11 3
f 25 3 17
f 26 17 15
f 26 25 17
f 26 15 24
f 27 16 9
f 28 21 2
f 28 2 23
f 28 23 13
f 28 13 21
f 29 24 15
f 29 9 24
f 29 27 9
f 30 24 19
f 30 19 4
f 30 26 24
f 30 25 26
f 30 4 11
f 30 11 25
f 31 24 9
f 31 9 19
f 31 19 24
f 32 27 22
f 32 22 10
f 33 10 16
f 33 16 27
f 34 22 27
f 34 27 29
f 35 32 10
f 35 27 32
f 35 33 27
f 35 10 33
f 36 34 29
f 36 29 15
f 36 15 22
f 36 22 34

