# https://github.com/mikedh/trimesh
v 0.01924130 -0.10446269 0.03672600
v 0.01912841 -0.09911532 0.02828479
v 0.01967625 -0.07418606 0.01213110
v -0.01747599 -0.07695297 0.01364295
v -0.01673329 -0.10352384 0.03507283
v 0.00110214 -0.08586946 0.01297542
v -0.01784880 -0.09914286 0.03662561
v 0.01993835 -0.09844295 0.03486804
v 0.00116376 -0.10626335 0.03696887
v 0.01928543 -0.07943241 0.01031335
v -0.01685485 -0.08362834 0.01287206
v 0.00099030 -0.10096428 0.03718584
v 0.01017684 -0.10346980 0.03281778
v -0.01245007 -0.10652346 0.03901568
v 0.01463694 -0.09014857 0.01761799
v 0.01954895 -0.07598401 0.00851335
v -0.00787962 -0.09676291 0.02407943
v -0.01724077 -0.07601250 0.00847036
v -0.01682467 -0.09906263 0.02852352
v 0.01679279 -0.10128158 0.03069264
v 0.00115695 -0.10722215 0.03876086
v -0.01715537 -0.10542033 0.03849116
v -0.00782176 -0.10342278 0.03283743
v 0.01918326 -0.08353201 0.01307159
v 0.00567617 -0.09898028 0.02618068
v 0.01987003 -0.07513128 0.01265219
v 0.01468922 -0.07711380 0.00852942
v -0.01228135 -0.09011331 0.01747786
v -0.01470918 -0.07528790 0.00775421
v 0.01905564 -0.10351498 0.03501037
v -0.01229634 -0.10568375 0.03740603
v -0.01446887 -0.10115345 0.03077614
v 0.01013760 -0.08794219 0.01517245
v 0.01231321 -0.09678336 0.02412474
v -0.00327359 -0.09900677 0.02629531
v 0.00111893 -0.09905276 0.02617435
v 0.01462871 -0.08144815 0.01092718
v -0.01012115 -0.08779202 0.01519916
v -0.01230277 -0.09214918 0.01959168
v 0.01504030 -0.07425567 0.01160389
v 0.01479446 -0.07526965 0.00761379
v -0.01468793 -0.07710820 0.00860015
v 0.01458530 -0.09447957 0.02196259
v 0.00334493 -0.08588171 0.01304373
v -0.01465913 -0.08149179 0.01099001
v -0.00106673 -0.08588860 0.01304321
v -0.01695414 -0.07956886 0.01025483
f 7 3 4
f 8 1 2
f 8 3 7
f 12 8 7
f 12 1 8
f 14 12 7
f 16 8 2
f 18 11 7
f 18 7 4
f 19 7 11
f 21 13 1
f 21 9 13
f 21 1 12
f 21 12 14
f 22 14 7
f 22 19 5
f 22 7 19
f 24 2 15
f 24 16 2
f 24 10 16
f 25 20 13
f 26 16 3
f 26 3 8
f 26 8 16
f 27 16 10
f 28 19 11
f 29 18 4
f 30 20 2
f 30 2 1
f 30 1 13
f 30 13 20
f 31 21 14
f 31 9 21
f 31 23 9
f 31 22 5
f 31 14 22
f 32 5 19
f 32 19 17
f 32 31 5
f 32 23 31
f 33 24 15
f 34 2 20
f 34 20 25
f 34 33 15
f 34 25 33
f 35 32 17
f 35 23 32
f 36 25 13
f 36 13 9
f 36 9 23
f 36 23 35
f 36 33 25
f 36 6 33
f 36 35 17
f 36 28 6
f 36 17 28
f 37 27 10
f 37 10 24
f 37 24 33
f 38 28 11
f 39 28 17
f 39 17 19
f 39 19 28
f 40 29 4
f 40 4 3
f 41 16 27
f 41 29 40
f 41 40 3
f 41 3 16
f 42 27 6
f 42 18 29
f 42 41 27
f 42 29 41
f 43 34 15
f 43 15 2
f 43 2 34
f 44 37 33
f 44 33 6
f 44 6 27
f 44 27 37
f 45 38 11
f 45 42 6
f 46 6 28
f 46 28 38
f 46 45 6
f 46 38 45
f 47 45 11
f 47 11 18
f 47 18 42
f 47 42 45

