{"scene":0,"scenes":[{"nodes":[0]}],"asset":{"version":"2.0","generator":"https://github.com/mikedh/trimesh"},"accessors":[{"componentType":5125,"type":"SCALAR","bufferView":0,"count":59508,"max":[59483],"min":[0]},{"componentType":5126,"type":"VEC3","byteOffset":0,"bufferView":1,"count":59484,"max":[0.11999999731779099,0.06892953813076019,0.11649546027183533],"min":[-0.11999999731779099,0.0,-0.11649546027183533]},{"componentType":5126,"type":"VEC2","byteOffset":0,"bufferView":3,"count":59484,"max":[0.999541699886322,0.9995458722114563],"min":[0.0004582951369229704,0.00045412778854370117]}],"meshes":[{"name":"geometry_0.002","extras":{"units":"meters","from_gltf_primitive":false,"name":"geometry_0.002","node":"geometry_0.001"},"primitives":[{"attributes":{"POSITION":1,"TEXCOORD_0":2},"indices":0,"mode":4,"material":0}]}],"images":[{"bufferView":2,"mimeType":"image/png"}],"textures":[{"source":0}],"materials":[{"pbrMetallicRoughness":{"baseColorTexture":{"index":0}},"name":"Material_0.002","doubleSided":false}],"nodes":[{"name":"world","children":[1]},{"name":"geometry_0.002","mesh":0}],"buffers":[{"uri":"gltf_buffer_0.bin","byteLength":238032},{"uri":"gltf_buffer_1.bin","byteLength":713808},{"uri":"gltf_buffer_2.bin","byteLength":1460748},{"uri":"gltf_buffer_3.bin","byteLength":475872}],"bufferViews":[{"buffer":0,"byteOffset":0,"byteLength":238032},{"buffer":1,"byteOffset":0,"byteLength":713808},{"buffer":2,"byteOffset":0,"byteLength":1460748},{"buffer":3,"byteOffset":0,"byteLength":475872}]}