# https://github.com/mikedh/trimesh
v 0.01946159 0.07773230 0.00931590
v 0.01932718 0.07939220 0.01023176
v 0.01971450 0.09722517 0.03325732
v -0.01039132 0.09693306 0.03111625
v -0.01029785 0.07985121 0.00956431
v 0.01027342 0.09787179 0.02547787
v 0.00116207 0.07915406 0.01362035
v 0.01924875 0.09501802 0.02360053
v 0.00114140 0.07824630 0.00841265
v 0.01521209 0.09793530 0.03279013
v -0.01025515 0.09771258 0.02543473
v 0.01980815 0.07973581 0.01543669
v -0.01050847 0.08180535 0.01566118
v 0.01926321 0.08344481 0.01298020
v 0.01468555 0.08128343 0.01086311
v -0.00337624 0.08573635 0.01301093
v 0.02019117 0.09654382 0.03232466
v -0.01055722 0.08977110 0.02232226
v -0.01012584 0.09660426 0.02407488
v 0.01009892 0.08779902 0.01528326
v 0.00330641 0.08566866 0.01302374
v -0.01023917 0.08156707 0.01057032
v -0.01058353 0.09614408 0.03003862
v 0.01028364 0.09659898 0.02408284
v 0.01454706 0.09215203 0.01966388
v -0.01014084 0.08776364 0.01518820
v 0.01460372 0.09436877 0.02197995
f 8 6 3
f 9 7 5
f 9 1 7
f 10 4 3
f 10 3 6
f 11 10 6
f 11 4 10
f 12 7 1
f 12 3 4
f 13 5 7
f 13 12 4
f 13 7 12
f 14 1 2
f 15 2 1
f 15 1 9
f 15 14 2
f 17 8 3
f 17 3 12
f 17 12 1
f 17 14 8
f 17 1 14
f 18 11 5
f 18 5 13
f 19 11 6
f 20 14 15
f 21 15 9
f 21 9 16
f 21 20 15
f 22 16 9
f 22 9 5
f 23 18 13
f 23 13 4
f 23 4 11
f 23 11 18
f 24 19 6
f 24 16 19
f 25 8 14
f 25 14 20
f 25 20 21
f 25 21 16
f 25 16 24
f 26 19 16
f 26 16 22
f 26 11 19
f 26 22 5
f 26 5 11
f 27 25 24
f 27 24 6
f 27 6 8
f 27 8 25

