# https://github.com/mikedh/trimesh
v 0.09918297 -0.05142368 0.05146702
v 0.11515442 -0.03296758 0.06248297
v 0.10820074 -0.04261431 0.06397918
v 0.11381062 -0.02769789 0.06447238
v 0.08853713 -0.04141830 0.01997475
v 0.11595914 -0.02748265 0.06551592
v 0.09084808 -0.04251922 0.02931705
v 0.10491766 -0.04963532 0.05265828
v 0.11108191 -0.04217897 0.06420604
v 0.10768824 -0.02727813 0.03677076
v 0.09100917 -0.05196057 0.03662530
v 0.10133670 -0.02803773 0.03507827
v 0.11164793 -0.04138235 0.06314716
v 0.11201299 -0.02760244 0.06059269
v 0.11195045 -0.02739659 0.04583409
v 0.09550592 -0.04925059 0.03294018
v 0.10722080 -0.04265246 0.06249188
v 0.08729753 -0.04981532 0.02351998
v 0.09779810 -0.05201732 0.04871543
v 0.11133768 -0.03526759 0.05057113
v 0.11422125 -0.02762591 0.05455155
v 0.09766579 -0.04252920 0.03090978
v 0.08750510 -0.04541116 0.02101824
v 0.11127117 -0.04038550 0.05978530
v 0.11378009 -0.03370703 0.05710828
v 0.11131135 -0.03150362 0.04634105
v 0.08981941 -0.04096891 0.02096639
v 0.09309262 -0.04474889 0.02651978
v 0.11377840 -0.03175357 0.05468860
v 0.10679351 -0.03142459 0.03734551
v 0.10451715 -0.04909952 0.05084380
v 0.08886606 -0.04485650 0.02200860
v 0.09539455 -0.04698403 0.03089551
v 0.08867384 -0.04921575 0.02448039
f 6 4 3
f 9 6 3
f 9 2 6
f 9 3 1
f 9 1 8
f 12 5 7
f 12 10 5
f 13 9 8
f 13 2 9
f 14 4 6
f 14 6 10
f 14 10 12
f 14 12 7
f 14 7 4
f 15 10 6
f 17 11 1
f 17 1 3
f 17 3 4
f 17 4 7
f 17 7 11
f 18 16 11
f 19 8 1
f 19 1 11
f 19 16 8
f 19 11 16
f 21 15 6
f 21 6 2
f 23 18 11
f 23 11 7
f 23 7 5
f 24 13 8
f 24 8 20
f 25 2 13
f 25 24 20
f 25 13 24
f 26 10 15
f 27 5 10
f 28 27 22
f 29 21 2
f 29 2 25
f 29 15 21
f 29 26 15
f 29 25 20
f 29 20 26
f 30 10 26
f 30 27 10
f 30 22 27
f 30 26 16
f 30 16 22
f 31 26 20
f 31 20 8
f 31 8 16
f 31 16 26
f 32 23 5
f 32 5 27
f 32 27 28
f 33 28 22
f 33 22 16
f 34 32 28
f 34 18 23
f 34 23 32
f 34 28 33
f 34 33 16
f 34 16 18

