# https://github.com/mikedh/trimesh
v -0.02690417 0.05551162 0.00811057
v -0.02643514 0.05509087 0.00294639
v -0.02672039 0.07907514 0.01634339
v -0.05528051 0.07991517 0.02973010
v -0.05840476 0.05489072 0.00931734
v -0.05885606 0.07843102 0.03114261
v -0.05571961 0.05444475 0.00820852
v -0.05068011 0.07635673 0.01779809
v -0.05986113 0.05633522 0.01504235
v -0.02623457 0.07718871 0.01027181
v -0.04406437 0.07012524 0.01095509
v -0.05748762 0.07630670 0.02184113
v -0.05091111 0.06545123 0.01097799
v -0.03937869 0.07636736 0.01326040
v -0.02857469 0.06816614 0.00632802
v -0.05959085 0.07703771 0.03026205
v -0.05729222 0.07181279 0.01777487
v -0.05312871 0.05873727 0.00887180
v -0.05283570 0.07188817 0.01554630
v -0.03056383 0.07253502 0.00847685
v -0.02627716 0.06823099 0.00613282
v -0.04676423 0.05477868 0.00570082
v -0.05784018 0.05886458 0.01066402
v -0.05491222 0.07609879 0.01987783
v -0.04405221 0.06554713 0.00881494
v -0.05068278 0.06980560 0.01334684
v -0.03049273 0.07666142 0.01079834
v -0.02635301 0.05943557 0.00365706
v -0.03322148 0.05494523 0.00343881
v -0.04658665 0.05678421 0.00623997
v -0.04194621 0.06122879 0.00651145
v -0.02858754 0.05936516 0.00381783
v -0.03318108 0.05718622 0.00382332
f 1 2 3
f 6 1 3
f 6 3 4
f 7 2 1
f 9 7 1
f 9 5 7
f 10 8 4
f 10 4 3
f 10 3 2
f 12 6 4
f 12 4 8
f 14 8 10
f 16 12 9
f 16 6 12
f 16 9 1
f 16 1 6
f 17 5 9
f 17 9 12
f 18 7 5
f 19 14 11
f 19 8 14
f 19 17 8
f 21 20 10
f 21 15 20
f 23 5 17
f 23 18 5
f 23 13 18
f 23 19 13
f 23 17 19
f 24 17 12
f 24 12 8
f 24 8 17
f 25 18 13
f 25 13 11
f 25 11 20
f 26 19 11
f 26 11 13
f 26 13 19
f 27 14 10
f 27 10 20
f 27 20 11
f 27 11 14
f 28 21 10
f 28 10 2
f 29 2 7
f 29 7 22
f 29 28 2
f 30 22 7
f 30 7 18
f 31 25 20
f 31 20 15
f 31 22 30
f 31 30 18
f 31 18 25
f 32 15 21
f 32 21 28
f 32 28 29
f 33 29 22
f 33 22 31
f 33 32 29
f 33 31 15
f 33 15 32

