# https://github.com/mikedh/trimesh
v 0.06503309 0.09430219 0.06202666
v 0.06259653 0.09312098 0.04785614
v 0.05963177 0.09862055 0.05969141
v 0.03263609 0.11114572 0.06547484
v 0.03396048 0.10123120 0.04640232
v 0.04159256 0.10354906 0.04826140
v 0.05332783 0.10249880 0.06547966
v 0.06180514 0.09628456 0.05523770
v 0.04602290 0.09678746 0.04631909
v 0.03332375 0.10754605 0.06447349
v 0.04609055 0.10576777 0.06180110
v 0.03297820 0.10627107 0.04791509
v 0.05938191 0.09938837 0.06408797
v 0.05285746 0.09849478 0.04818358
v 0.05693184 0.09715710 0.06413352
v 0.05125716 0.10122946 0.06564595
v 0.05279339 0.10069847 0.05510958
v 0.05092033 0.10379028 0.06510045
v 0.03479943 0.11002738 0.06218596
v 0.06147189 0.09785918 0.06278991
v 0.06167840 0.09388814 0.04843827
v 0.03374580 0.10642271 0.06231662
v 0.05626909 0.09979049 0.06554818
v 0.04992443 0.10336022 0.06559235
v 0.05047734 0.10309035 0.05974171
v 0.04590056 0.10307505 0.05279005
v 0.04631697 0.10581007 0.06360645
v 0.03503227 0.10581669 0.04820136
v 0.03284124 0.11054183 0.06194569
v 0.03412595 0.11056939 0.06499050
v 0.05572136 0.10073816 0.06548416
f 8 1 2
f 9 2 1
f 12 10 4
f 12 5 10
f 12 9 5
f 12 6 9
f 13 3 11
f 14 9 6
f 14 2 9
f 15 9 1
f 15 5 9
f 16 4 10
f 16 10 15
f 17 3 8
f 17 8 14
f 18 4 7
f 18 13 11
f 18 7 13
f 19 11 6
f 20 8 3
f 20 3 13
f 20 13 1
f 20 1 8
f 21 14 8
f 21 8 2
f 21 2 14
f 22 15 10
f 22 10 5
f 22 5 15
f 23 15 1
f 23 1 13
f 23 16 15
f 24 7 4
f 24 4 16
f 24 23 7
f 24 16 23
f 25 17 11
f 25 11 3
f 25 3 17
f 26 17 14
f 26 14 6
f 26 6 11
f 26 11 17
f 27 18 11
f 27 4 18
f 28 19 6
f 28 6 12
f 29 12 4
f 29 4 19
f 29 28 12
f 29 19 28
f 30 19 4
f 30 11 19
f 30 27 11
f 30 4 27
f 31 23 13
f 31 13 7
f 31 7 23

