# https://github.com/mikedh/trimesh
v 0.01957373 -0.07599368 0.01307632
v 0.01932998 -0.07510149 0.00805549
v 0.01966778 -0.06265294 0.00865373
v -0.01063365 -0.06252048 0.00847039
v -0.01039000 -0.07625336 0.01257678
v 0.01960589 -0.06187664 0.00086521
v -0.01025176 -0.07543856 0.00736175
v 0.01971635 -0.07000058 0.01039426
v 0.00351669 -0.06415395 0.00138952
v -0.01064169 -0.07007240 0.01022809
v 0.01241979 -0.07273072 0.00633788
v -0.01023229 -0.06207271 0.00236114
v 0.01936849 -0.06312058 0.00147249
v -0.01003546 -0.06604910 0.00354692
v 0.00356973 -0.06258760 0.00122924
f 1 3 4
f 5 1 4
f 6 4 3
f 6 1 2
f 7 2 1
f 7 1 5
f 8 6 3
f 8 3 1
f 8 1 6
f 10 7 5
f 10 5 4
f 11 2 7
f 11 7 9
f 12 4 6
f 12 10 4
f 12 7 10
f 13 11 9
f 13 9 6
f 13 6 2
f 13 2 11
f 14 12 9
f 14 9 7
f 14 7 12
f 15 12 6
f 15 6 9
f 15 9 12

