# https://github.com/mikedh/trimesh
v 0.05919390 -0.05133214 0.01114705
v 0.05938822 -0.04906375 0.01047985
v 0.05939590 -0.03482216 0.00820996
v 0.03347582 -0.03467792 0.00694564
v 0.03916113 -0.05222387 0.00073587
v 0.05837174 -0.03438170 0.00031907
v 0.03348618 -0.05081442 0.00757221
v 0.05821963 -0.05010738 0.00629372
v 0.03345160 -0.03465973 0.00225923
v 0.05698945 -0.03478180 0.00767883
v 0.05467651 -0.05178582 0.01031086
v 0.04816436 -0.04923653 0.00148803
v 0.03348007 -0.05086837 0.00192296
v 0.05717148 -0.03799478 0.00095899
v 0.05448907 -0.04218329 0.00140675
f 1 2 3
f 1 3 4
f 6 3 2
f 7 1 4
f 8 6 2
f 8 2 1
f 8 1 5
f 9 6 5
f 9 4 6
f 9 7 4
f 10 6 4
f 10 4 3
f 10 3 6
f 11 7 5
f 11 5 1
f 11 1 7
f 12 8 5
f 12 5 6
f 13 9 5
f 13 5 7
f 13 7 9
f 14 12 6
f 14 6 8
f 15 14 8
f 15 8 12
f 15 12 14

