# https://github.com/mikedh/trimesh
v -0.07640640 -0.05435602 0.02485823
v -0.07383367 -0.04994117 0.01461875
v -0.07634434 -0.01883821 0.01232409
v -0.10884450 -0.01831854 0.03849673
v -0.09666660 -0.05222958 0.03894308
v -0.09181802 -0.01807810 0.01719413
v -0.10210821 -0.01871340 0.03684065
v -0.07276354 -0.03007984 0.01255785
v -0.07425540 -0.05250808 0.01613873
v -0.07451340 -0.01837941 0.00702461
v -0.10036780 -0.02909157 0.02864826
v -0.08801435 -0.05415624 0.03699675
v -0.07829508 -0.03172442 0.01088891
v -0.07402366 -0.03640489 0.01006779
v -0.07325159 -0.02327562 0.01154303
v -0.10702242 -0.01798765 0.03509549
v -0.10538016 -0.03379497 0.03919353
v -0.09099301 -0.04934405 0.02870529
v -0.10787853 -0.02510520 0.03909025
v -0.08515573 -0.01818997 0.01245631
v -0.08878538 -0.03606048 0.01973570
v -0.07411368 -0.02511565 0.00769601
v -0.07795688 -0.04040056 0.01331180
v -0.07631553 -0.01824459 0.00780043
v -0.10263809 -0.01807416 0.02843966
v -0.09972004 -0.03789506 0.03302609
v -0.09308252 -0.05157140 0.03295852
v -0.10668460 -0.02033800 0.03518329
v -0.10430723 -0.02497989 0.03289132
v -0.08687368 -0.02705000 0.01531111
v -0.09556335 -0.02457362 0.02206216
v -0.09763437 -0.03569936 0.02883936
v -0.08196220 -0.04930560 0.01989828
v -0.07591089 -0.03616322 0.01092517
v -0.08043986 -0.02492069 0.01075983
v -0.10445585 -0.03360295 0.03745350
v -0.09583459 -0.05182753 0.03727542
v -0.10689504 -0.02490034 0.03728765
v -0.10237449 -0.02016577 0.02866038
v -0.08439137 -0.03375579 0.01538950
v -0.08916556 -0.02935220 0.01763980
v -0.10005172 -0.02260021 0.02631184
v -0.08214627 -0.04479526 0.01769516
v -0.07769807 -0.05164177 0.01790516
v -0.07599830 -0.02492678 0.00853403
v -0.08482071 -0.02288046 0.01307225
v -0.08015125 -0.03600166 0.01327074
v -0.08434151 -0.04047417 0.01774354
v -0.09131292 -0.02260010 0.01774344
v -0.07554725 -0.04950096 0.01549053
f 9 1 5
f 9 8 1
f 9 2 8
f 12 5 1
f 14 8 2
f 15 10 3
f 15 8 10
f 15 3 7
f 15 7 12
f 15 12 1
f 15 1 8
f 16 4 7
f 19 12 7
f 19 7 4
f 19 5 12
f 19 17 5
f 22 10 8
f 22 8 14
f 22 14 13
f 23 14 2
f 24 6 16
f 24 20 6
f 24 10 22
f 24 16 7
f 24 7 3
f 24 3 10
f 25 16 6
f 27 9 5
f 27 26 18
f 28 19 4
f 28 4 16
f 28 16 25
f 29 28 25
f 31 21 11
f 32 21 18
f 32 11 21
f 32 26 11
f 32 18 26
f 34 23 13
f 34 13 14
f 34 14 23
f 35 20 24
f 36 11 26
f 36 29 11
f 36 17 19
f 36 5 17
f 37 27 5
f 37 26 27
f 37 36 26
f 37 5 36
f 38 19 28
f 38 28 29
f 38 36 19
f 38 29 36
f 39 29 25
f 39 11 29
f 40 30 13
f 41 21 31
f 41 30 40
f 42 25 6
f 42 6 31
f 42 39 25
f 42 31 11
f 42 11 39
f 43 33 18
f 43 18 21
f 44 27 18
f 44 18 33
f 44 9 27
f 44 33 43
f 45 35 24
f 45 24 22
f 45 22 13
f 45 13 35
f 46 20 35
f 46 30 6
f 46 6 20
f 46 35 13
f 46 13 30
f 47 40 13
f 47 13 23
f 47 43 40
f 47 23 43
f 48 41 40
f 48 21 41
f 48 43 21
f 48 40 43
f 49 41 31
f 49 31 6
f 49 6 30
f 49 30 41
f 50 43 23
f 50 23 2
f 50 44 43
f 50 2 9
f 50 9 44

