# https://github.com/mikedh/trimesh
v 0.01956122 0.05537498 0.00746345
v 0.01962463 0.05534402 0.00189381
v 0.01965286 0.07861753 0.01466777
v -0.02696669 0.08176326 0.01831088
v -0.02643514 0.05509087 0.00294639
v 0.01973728 0.07508105 0.01268281
v -0.02690417 0.05551162 0.00811057
v 0.00110668 0.08007368 0.00934887
v -0.02702909 0.08017092 0.01715598
v -0.01050847 0.08180535 0.01566118
v 0.01946159 0.07773230 0.00931590
v -0.00787807 0.06599428 0.00396466
v -0.02623457 0.07718871 0.01027181
v -0.02624399 0.07973202 0.01188383
v -0.02456877 0.08193349 0.01792104
v 0.00115709 0.08092701 0.01468893
v 0.01960237 0.06379787 0.00329827
v -0.02627716 0.06823099 0.00613282
v -0.01466549 0.07703874 0.00865673
v 0.00109300 0.07279549 0.00586510
v -0.02635301 0.05943557 0.00365706
v -0.02382577 0.07908722 0.01100208
v -0.02393455 0.07469278 0.00862437
v 0.01476252 0.07701379 0.00849041
v 0.00109929 0.07728755 0.00791475
v -0.01007477 0.07264126 0.00633784
v -0.01713092 0.06374440 0.00394562
v 0.01934919 0.07505755 0.00797458
v 0.01241301 0.07265900 0.00637494
v 0.01944823 0.07044411 0.00600338
f 1 3 4
f 5 2 1
f 6 1 2
f 6 3 1
f 7 5 1
f 7 1 4
f 9 7 4
f 9 5 7
f 11 8 3
f 11 3 6
f 12 2 5
f 14 10 8
f 14 13 9
f 14 9 4
f 15 4 3
f 15 3 10
f 15 14 4
f 15 10 14
f 16 10 3
f 16 3 8
f 16 8 10
f 17 11 6
f 17 6 2
f 17 2 12
f 18 9 13
f 20 17 12
f 21 5 9
f 21 9 18
f 22 14 8
f 22 8 19
f 22 19 13
f 22 13 14
f 23 19 18
f 23 18 13
f 23 13 19
f 24 8 11
f 25 19 8
f 25 8 24
f 26 20 12
f 26 12 18
f 26 18 19
f 26 25 20
f 26 19 25
f 27 21 18
f 27 18 12
f 27 12 5
f 27 5 21
f 28 24 11
f 29 17 20
f 29 25 24
f 29 20 25
f 29 24 28
f 30 28 11
f 30 11 17
f 30 29 28
f 30 17 29

