# https://github.com/mikedh/trimesh
v 0.10938292 0.04599737 0.06122869
v 0.10763502 0.04521956 0.05488207
v 0.08873537 0.07617899 0.05985509
v 0.06215377 0.09704387 0.06244596
v 0.09452488 0.04679338 0.03749159
v 0.09353973 0.07206093 0.06504657
v 0.10441305 0.04702733 0.06061622
v 0.09303474 0.06017497 0.03980857
v 0.07704543 0.08786660 0.06491290
v 0.06473664 0.08004598 0.03660448
v 0.10481649 0.05464820 0.06291078
v 0.10109005 0.04525135 0.03881722
v 0.09302592 0.06466715 0.04624366
v 0.07190397 0.08919951 0.06558986
v 0.06588734 0.09221275 0.06201703
v 0.06425820 0.08782761 0.03929463
v 0.10197028 0.05363718 0.05060067
v 0.09086945 0.05196844 0.03676732
v 0.09092414 0.07164940 0.05518492
v 0.07368860 0.09032544 0.06554576
v 0.09628006 0.06830592 0.06471123
v 0.09467557 0.06459517 0.06357446
v 0.06775816 0.09157966 0.06400677
v 0.07726020 0.08496391 0.05533283
v 0.07946160 0.07811229 0.04409490
v 0.06257162 0.08873261 0.03877794
v 0.10532735 0.05407484 0.06138376
v 0.10663393 0.04937133 0.05745728
v 0.09515853 0.06028249 0.04414558
v 0.10518767 0.04517825 0.04808737
v 0.09289682 0.07188549 0.06191399
v 0.07475817 0.08790899 0.06564118
v 0.07076071 0.09175285 0.06547445
v 0.07731896 0.08732767 0.06194547
v 0.08625557 0.07134791 0.04404553
v 0.06838457 0.08485220 0.03962304
v 0.08170842 0.07824316 0.04846273
v 0.06229564 0.09039195 0.04132834
v 0.10771383 0.04980169 0.06170212
v 0.10683868 0.04726537 0.05512727
v 0.10433430 0.05362306 0.05756825
v 0.10027154 0.04724337 0.03927803
v 0.10454381 0.04694290 0.04855225
v 0.09806787 0.06556225 0.06333165
v 0.07135510 0.09199019 0.06501950
v 0.09074671 0.06473129 0.04188747
v 0.08628985 0.07372913 0.04855929
v 0.06830609 0.08953588 0.04859083
v 0.07284405 0.08257408 0.04168402
v 0.10441798 0.04903889 0.05076902
v 0.09749616 0.06477127 0.05982561
v 0.07276575 0.08482158 0.04629920
v 0.06236167 0.09502554 0.05259725
v 0.06379205 0.08959244 0.04182262
v 0.06215173 0.09260374 0.04588071
v 0.06625149 0.09430085 0.05961839
v 0.06401181 0.09415837 0.05290392
v 0.06374153 0.09167047 0.04620595
v 0.07100637 0.09183526 0.06197222
f 7 5 2
f 7 2 1
f 10 5 7
f 11 7 1
f 12 2 5
f 15 10 7
f 15 4 10
f 18 10 8
f 18 8 12
f 18 12 5
f 18 5 10
f 20 6 9
f 21 6 14
f 22 14 7
f 22 7 11
f 22 21 14
f 22 11 21
f 23 14 4
f 23 4 15
f 23 15 7
f 23 7 14
f 26 8 10
f 27 21 11
f 27 17 13
f 29 8 13
f 29 13 17
f 30 2 12
f 31 19 3
f 31 3 6
f 32 20 14
f 32 14 6
f 32 6 20
f 33 4 14
f 33 14 20
f 34 3 24
f 34 9 6
f 34 6 3
f 36 26 16
f 36 8 26
f 37 24 3
f 37 35 25
f 38 26 10
f 38 10 4
f 38 16 26
f 39 27 11
f 39 11 1
f 39 28 27
f 39 1 28
f 40 28 1
f 40 1 2
f 40 2 30
f 41 28 17
f 41 17 27
f 41 27 28
f 42 29 17
f 42 12 8
f 42 8 29
f 43 30 12
f 43 42 17
f 43 12 42
f 44 31 6
f 44 6 21
f 44 21 27
f 44 19 31
f 45 33 20
f 45 4 33
f 45 20 9
f 45 9 34
f 46 35 13
f 46 13 8
f 46 8 36
f 47 19 13
f 47 13 35
f 47 3 19
f 47 37 3
f 47 35 37
f 48 34 24
f 49 25 35
f 49 46 36
f 49 35 46
f 50 17 28
f 50 28 40
f 50 43 17
f 50 40 30
f 50 30 43
f 51 44 27
f 51 27 13
f 51 13 19
f 51 19 44
f 52 48 24
f 52 24 37
f 52 49 48
f 52 37 25
f 52 25 49
f 54 48 49
f 54 16 38
f 54 49 36
f 54 36 16
f 55 38 4
f 55 4 53
f 56 53 4
f 57 34 48
f 57 55 53
f 57 53 56
f 58 48 54
f 58 54 38
f 58 38 55
f 58 57 48
f 58 55 57
f 59 56 4
f 59 4 45
f 59 45 34
f 59 57 56
f 59 34 57

