# https://github.com/mikedh/trimesh
v -0.04330395 -0.07748960 0.02049974
v -0.03970921 -0.07499420 0.01241116
v -0.04039226 -0.03929045 0.00788587
v -0.05903790 -0.03478053 0.00923873
v -0.05808976 -0.06156592 0.01199338
v -0.04743639 -0.07641394 0.02167911
v -0.04057655 -0.07680338 0.01891978
v -0.04037903 -0.05080610 0.00350833
v -0.04270429 -0.03699220 0.00777772
v -0.05953716 -0.06309019 0.01824830
v -0.04648820 -0.07488348 0.01478543
v -0.03995947 -0.05944671 0.00550587
v -0.05868256 -0.03454545 0.00415001
v -0.04741188 -0.03488566 0.00778222
v -0.04716568 -0.03452532 0.00248773
v -0.04415388 -0.07004755 0.01093817
v -0.03982721 -0.06597984 0.00785392
v -0.05993102 -0.06115743 0.01740873
v -0.05795854 -0.04548081 0.00628965
v -0.05618495 -0.03437561 0.00359586
v -0.04629134 -0.07222977 0.01309325
v -0.04175899 -0.07459578 0.01289547
v -0.04651860 -0.06343460 0.00862194
v -0.04911680 -0.04344058 0.00373339
v -0.04196860 -0.06588790 0.00839901
v -0.05553906 -0.06124714 0.01074927
v -0.04429696 -0.05910420 0.00641021
v -0.05598600 -0.03648639 0.00385179
v -0.04697484 -0.04357690 0.00343413
v -0.05770634 -0.05907636 0.01074320
f 6 1 3
f 7 1 2
f 7 2 3
f 7 3 1
f 9 6 3
f 10 6 4
f 11 2 1
f 11 1 6
f 11 10 5
f 11 6 10
f 12 8 3
f 14 4 6
f 14 6 9
f 15 9 3
f 15 3 8
f 15 14 9
f 17 12 3
f 17 3 2
f 17 2 16
f 18 10 4
f 18 4 13
f 18 13 5
f 18 5 10
f 19 5 13
f 20 13 4
f 20 4 14
f 20 14 15
f 21 16 11
f 21 11 5
f 21 5 16
f 22 16 2
f 22 2 11
f 22 11 16
f 25 23 17
f 25 17 16
f 25 16 23
f 26 23 16
f 26 16 5
f 27 12 17
f 27 17 23
f 27 19 24
f 27 24 8
f 27 8 12
f 27 26 19
f 27 23 26
f 28 24 19
f 28 19 13
f 28 13 20
f 28 20 24
f 29 24 20
f 29 20 15
f 29 15 8
f 29 8 24
f 30 26 5
f 30 5 19
f 30 19 26

