# https://github.com/mikedh/trimesh
v 0.00115905 -0.03469463 0.00673799
v 0.00114689 -0.03466304 0.00199745
v 0.00117490 0.05540446 0.00719836
v -0.02654182 0.05534292 0.00804487
v -0.04039361 -0.03469142 0.00757880
v 0.00115745 0.05530521 0.00201186
v -0.04026998 0.03905507 0.00243906
v -0.04040029 0.03921143 0.00776723
v -0.02643514 0.05509087 0.00294639
v -0.04037131 -0.03464086 0.00211984
f 1 2 3
f 1 3 4
f 5 2 1
f 5 1 4
f 6 3 2
f 6 4 3
f 8 5 4
f 8 4 7
f 9 7 4
f 9 4 6
f 9 6 7
f 10 7 6
f 10 6 2
f 10 2 5
f 10 8 7
f 10 5 8

