# https://github.com/mikedh/trimesh
v 0.08311351 -0.08079162 0.05988910
v 0.10962299 -0.04064264 0.05510678
v 0.09755097 -0.06494973 0.05982848
v 0.11108191 -0.04217897 0.06420604
v 0.06810676 -0.07854617 0.03804789
v 0.10678270 -0.05163555 0.06184038
v 0.09139765 -0.06892656 0.06450522
v 0.10362860 -0.04189402 0.05152409
v 0.08870591 -0.06224223 0.03585702
v 0.10901668 -0.04711733 0.06202237
v 0.07596562 -0.07985724 0.05147082
v 0.10760519 -0.04334584 0.06399877
v 0.09366651 -0.07202934 0.06517183
v 0.07802421 -0.07665943 0.03920602
v 0.09523646 -0.06022574 0.04411391
v 0.09884944 -0.04990182 0.03895810
v 0.10223885 -0.05180734 0.04818257
v 0.10937886 -0.04736544 0.06541230
v 0.06931141 -0.08011143 0.04156024
v 0.08916865 -0.07271392 0.06435433
v 0.10560623 -0.04267101 0.05797655
v 0.10237626 -0.05791448 0.05988277
v 0.06901161 -0.07727472 0.03730347
v 0.08621421 -0.07606567 0.05307007
v 0.08859123 -0.06710901 0.04184548
v 0.10847219 -0.04117549 0.05221583
v 0.09552639 -0.05606220 0.03954690
v 0.10656722 -0.04936293 0.05751985
v 0.10713889 -0.05167846 0.06491475
v 0.08277570 -0.07924170 0.05260526
v 0.09013505 -0.07586798 0.06388811
v 0.10193309 -0.05383571 0.05049434
v 0.09198466 -0.05125331 0.03751935
v 0.09079917 -0.07178042 0.05515458
v 0.08781232 -0.06389696 0.03640823
v 0.08402441 -0.07382640 0.04421179
v 0.10886136 -0.04260772 0.05527335
v 0.09093860 -0.06264316 0.03975571
v 0.09803797 -0.05179096 0.03944544
v 0.08787951 -0.07672202 0.06286628
v 0.08854282 -0.07623396 0.05987166
v 0.09508839 -0.06505564 0.05291350
v 0.08830676 -0.05659553 0.03684456
v 0.09300595 -0.07180533 0.06208087
v 0.08626812 -0.07380295 0.04853029
v 0.08184804 -0.07599521 0.04411839
v 0.08990621 -0.06132432 0.03662567
v 0.08404342 -0.07822828 0.05301757
v 0.08617505 -0.07845468 0.06031443
f 8 4 2
f 10 2 4
f 18 10 4
f 18 6 10
f 18 4 12
f 18 12 7
f 18 7 13
f 19 11 7
f 19 1 11
f 19 5 14
f 19 12 5
f 19 7 12
f 20 11 1
f 20 7 11
f 20 13 7
f 21 8 5
f 21 5 12
f 21 12 4
f 21 4 8
f 22 13 3
f 23 14 5
f 23 9 14
f 23 5 8
f 26 16 8
f 26 8 2
f 26 17 16
f 28 10 6
f 28 17 26
f 29 18 13
f 29 6 18
f 29 22 6
f 29 13 22
f 30 19 14
f 30 1 19
f 31 13 20
f 32 6 22
f 32 28 6
f 32 17 28
f 32 15 17
f 32 22 3
f 33 16 9
f 33 23 8
f 33 8 16
f 35 25 14
f 35 14 9
f 36 14 25
f 37 26 2
f 37 2 10
f 37 28 26
f 37 10 28
f 38 27 15
f 38 15 25
f 38 25 35
f 39 27 16
f 39 16 17
f 39 17 15
f 39 15 27
f 40 31 20
f 40 20 1
f 40 1 31
f 41 24 34
f 42 32 3
f 42 15 32
f 42 34 15
f 42 3 34
f 43 33 9
f 43 9 23
f 43 23 33
f 44 34 3
f 44 3 13
f 44 13 31
f 44 41 34
f 44 31 41
f 45 25 15
f 45 15 34
f 45 36 25
f 45 34 24
f 46 30 14
f 46 14 36
f 46 36 45
f 47 27 38
f 47 9 16
f 47 16 27
f 47 38 35
f 47 35 9
f 48 41 30
f 48 24 41
f 48 45 24
f 48 46 45
f 48 30 46
f 49 41 31
f 49 31 1
f 49 1 30
f 49 30 41

