# https://github.com/mikedh/trimesh
v -0.01047612 -0.07718896 0.01304115
v 0.00116781 -0.06234980 0.00131052
v 0.00115905 -0.03469463 0.00673799
v -0.04039361 -0.03469142 0.00757880
v -0.03955385 -0.06796974 0.00868125
v -0.04037131 -0.03464086 0.00211984
v -0.04057655 -0.07680338 0.01891978
v 0.00115582 -0.06236238 0.00796306
v -0.01025176 -0.07543856 0.00736175
v 0.00114689 -0.03466304 0.00199745
v -0.03986516 -0.05255113 0.00367717
v -0.04104622 -0.07502501 0.01775613
v -0.03296633 -0.06592485 0.00645682
v -0.03970921 -0.07499420 0.01241116
v -0.04052321 -0.03958380 0.00793014
v -0.03978165 -0.06142698 0.00612971
v -0.03050424 -0.07252084 0.00862775
v -0.01003546 -0.06604910 0.00354692
v -0.03630330 -0.07742769 0.01784233
v -0.03754589 -0.06362817 0.00640668
v -0.03499511 -0.07475051 0.01078857
v -0.02389965 -0.07475487 0.00869720
v -0.03538421 -0.05699497 0.00395626
v -0.03956680 -0.07240640 0.01084653
v -0.02623928 -0.06144988 0.00405077
f 6 4 3
f 7 1 3
f 7 3 4
f 8 1 2
f 8 2 3
f 8 3 1
f 9 2 1
f 10 6 3
f 10 3 2
f 10 2 6
f 11 6 2
f 12 7 4
f 12 6 11
f 14 7 12
f 15 12 4
f 15 4 6
f 15 6 12
f 16 12 11
f 16 14 12
f 16 5 14
f 18 2 9
f 18 17 13
f 19 9 1
f 19 1 7
f 19 7 14
f 20 5 16
f 20 17 5
f 20 13 17
f 21 5 17
f 21 19 14
f 21 9 19
f 22 18 9
f 22 17 18
f 22 21 17
f 22 9 21
f 23 11 2
f 23 13 20
f 23 20 16
f 23 16 11
f 24 21 14
f 24 14 5
f 24 5 21
f 25 23 2
f 25 2 18
f 25 18 13
f 25 13 23

