# https://github.com/mikedh/trimesh
v 0.06065925 -0.07408678 0.00355466
v 0.07397097 -0.06854653 0.00043547
v 0.07410042 -0.03904779 0.00334061
v 0.04178825 -0.03905045 0.00347886
v 0.04178697 -0.07405677 0.00019451
v 0.04178432 -0.03904717 0.00009106
v 0.07459589 -0.06914683 0.00470829
v 0.06061483 -0.07403079 0.00020240
v 0.04178923 -0.07405789 0.00336455
v 0.07409921 -0.03904837 0.00022048
v 0.07466661 -0.06646668 0.00419814
f 6 4 3
f 7 3 4
f 8 1 5
f 8 7 1
f 8 2 7
f 8 5 6
f 9 5 1
f 9 6 5
f 9 4 6
f 9 7 4
f 9 1 7
f 10 6 3
f 10 8 6
f 10 2 8
f 11 7 2
f 11 2 10
f 11 10 3
f 11 3 7

