# https://github.com/mikedh/trimesh
v -0.06593476 -0.06598285 0.00340082
v -0.06593143 -0.06597709 0.00037116
v -0.06593491 -0.05251682 0.00339557
v -0.09023114 -0.03637543 0.00374116
v -0.09093901 -0.06650827 0.00450757
v -0.08209943 -0.03634640 0.00043547
v -0.07448815 -0.06648028 0.00405575
v -0.06593194 -0.05252099 0.00037597
v -0.08209535 -0.03635324 0.00333740
v -0.09010522 -0.03632984 0.00047599
v -0.09090422 -0.03929697 0.00414242
v -0.08383456 -0.06525321 0.00192940
v -0.08919780 -0.05729161 0.00193913
v -0.08645491 -0.06255115 0.00212509
v -0.08936591 -0.06542352 0.00371224
f 1 2 3
f 7 5 2
f 7 2 1
f 7 1 3
f 8 6 3
f 8 3 2
f 8 2 6
f 9 3 6
f 10 9 6
f 10 4 9
f 10 6 2
f 11 7 3
f 11 5 7
f 11 10 5
f 11 4 10
f 11 9 4
f 11 3 9
f 12 10 2
f 12 2 5
f 13 5 10
f 13 10 12
f 14 13 12
f 15 14 12
f 15 12 5
f 15 5 13
f 15 13 14

