# https://github.com/mikedh/trimesh
v -0.04391931 -0.13185993 0.02098997
v -0.04391460 -0.13191535 0.01701777
v -0.04436763 -0.12247727 0.01224873
v -0.05734615 -0.12150627 0.01438341
v -0.05641579 -0.12753806 0.01737553
v -0.05178778 -0.12620355 0.01551090
v -0.04462709 -0.12329400 0.01867621
v -0.04401747 -0.12684163 0.01430292
v -0.05132046 -0.13039631 0.01855936
v -0.05706854 -0.12356404 0.01535378
v -0.04879797 -0.13066539 0.01733775
v -0.05818959 -0.12318460 0.02101318
v -0.04473495 -0.12640329 0.02022109
v -0.05660709 -0.12726683 0.02070804
v -0.05135500 -0.13036290 0.01932143
v -0.04872409 -0.13052858 0.02062688
f 6 4 3
f 7 3 4
f 8 1 2
f 8 7 1
f 8 3 7
f 8 6 3
f 8 2 6
f 9 2 1
f 10 6 5
f 10 4 6
f 11 6 2
f 11 5 6
f 11 9 5
f 11 2 9
f 12 7 4
f 12 10 5
f 12 4 10
f 13 12 1
f 13 1 7
f 13 7 12
f 14 1 12
f 14 12 5
f 15 9 1
f 15 14 5
f 15 5 9
f 16 15 1
f 16 1 14
f 16 14 15

