# https://github.com/mikedh/trimesh
v -0.07992992 0.06094154 0.00496122
v -0.07934363 0.06056216 0.00053234
v -0.08001220 0.08008134 0.01054251
v -0.10932341 0.07971329 0.02147036
v -0.10936213 0.06079049 0.01674602
v -0.09689872 0.07844009 0.01025519
v -0.07860126 0.07866042 0.00404789
v -0.09438277 0.05992214 0.00443227
v -0.10460414 0.08015411 0.02006524
v -0.10782054 0.05989443 0.00974469
v -0.07876576 0.06814320 0.00140164
v -0.08415480 0.06013699 0.00120588
v -0.08631571 0.07311782 0.00491250
v -0.11005543 0.06389754 0.01785695
v -0.10790622 0.07861996 0.01471922
v -0.10761838 0.07307112 0.01292645
v -0.09421728 0.06241342 0.00495110
v -0.08108333 0.07850116 0.00474230
v -0.08117400 0.06790333 0.00195432
v -0.10986546 0.07459631 0.02053153
v -0.09119895 0.08033300 0.01479350
v -0.10759139 0.06247019 0.01025156
v -0.08378268 0.06523633 0.00208474
f 5 1 3
f 7 3 1
f 8 1 5
f 10 8 5
f 11 7 1
f 11 1 2
f 12 2 1
f 12 1 8
f 12 11 2
f 14 5 3
f 14 3 9
f 14 10 5
f 15 4 9
f 15 10 14
f 15 7 6
f 16 15 6
f 16 10 15
f 17 6 13
f 17 16 6
f 18 13 6
f 18 6 7
f 19 7 11
f 19 18 7
f 19 13 18
f 20 14 9
f 20 9 4
f 20 15 14
f 20 4 15
f 21 15 9
f 21 9 3
f 21 3 7
f 21 7 15
f 22 17 8
f 22 8 10
f 22 10 16
f 22 16 17
f 23 19 11
f 23 11 12
f 23 12 8
f 23 8 17
f 23 17 13
f 23 13 19

