# https://github.com/mikedh/trimesh
v 0.07410286 -0.00134832 0.00328917
v 0.08487555 0.01211540 0.00021487
v 0.08489912 0.04714217 0.00395941
v 0.04178764 0.04713071 0.00327418
v 0.04178344 -0.00134732 0.00005966
v 0.08486421 0.04711830 0.00039130
v 0.04179038 -0.00134898 0.00333861
v 0.08487970 0.01211838 0.00323604
v 0.07410041 -0.00134715 0.00017796
v 0.04178518 0.04712412 0.00023678
v 0.07410038 0.04712303 0.00031784
f 6 3 2
f 7 1 3
f 7 3 4
f 7 4 5
f 8 1 2
f 8 2 3
f 8 3 1
f 9 5 2
f 9 2 1
f 9 7 5
f 9 1 7
f 10 4 3
f 10 5 4
f 10 2 5
f 11 6 2
f 11 2 10
f 11 10 3
f 11 3 6

