# https://github.com/mikedh/trimesh
v 0.09300167 0.01212588 0.00333969
v 0.09292827 0.01211531 0.00022990
v 0.09242240 0.05489824 0.00284605
v 0.08527505 0.05545326 0.00545920
v 0.08487970 0.01211838 0.00323604
v 0.08460477 0.05502849 0.00075752
v 0.09247282 0.05489924 0.00799125
v 0.09366033 0.02848390 0.00412453
v 0.09183681 0.05190465 0.00207365
v 0.08487555 0.01211540 0.00021487
v 0.08941112 0.05469501 0.00179939
f 5 2 1
f 6 4 3
f 6 5 4
f 7 3 4
f 7 5 1
f 7 4 5
f 8 1 2
f 8 2 3
f 8 7 1
f 8 3 7
f 9 3 2
f 9 2 6
f 10 6 2
f 10 2 5
f 10 5 6
f 11 9 6
f 11 6 3
f 11 3 9

