# https://github.com/mikedh/trimesh
v 0.06063889 0.04712952 0.00324641
v 0.06063690 0.04712452 0.00028284
v 0.06068170 0.07680603 0.00382434
v 0.04718130 0.07676421 0.00325510
v 0.04178518 0.04712412 0.00023678
v 0.06062855 0.07674576 0.00039323
v 0.04178764 0.04713071 0.00327418
v 0.04716645 0.07674743 0.00034498
v 0.04178860 0.06867329 0.00324219
v 0.04178397 0.06867016 0.00030687
f 1 2 3
f 5 2 1
f 6 3 2
f 7 1 3
f 7 5 1
f 8 4 3
f 8 3 6
f 8 6 2
f 8 2 5
f 9 7 3
f 9 3 4
f 9 4 8
f 10 9 8
f 10 8 5
f 10 5 7
f 10 7 9

