# https://github.com/mikedh/trimesh
v 0.11265415 -0.07461737 0.02060449
v 0.12136579 -0.06799930 0.01705085
v 0.12137072 -0.06799420 0.02106990
v 0.06063857 -0.06867615 0.00344489
v 0.07854507 -0.07326124 0.00198007
v 0.08146796 -0.06814572 0.00165138
v 0.11318924 -0.06947890 0.01958746
v 0.11951418 -0.07219885 0.02041682
v 0.06065925 -0.07408678 0.00355466
v 0.10517362 -0.06797094 0.00979207
v 0.06061483 -0.07403079 0.00020240
v 0.11550611 -0.07307295 0.01560269
v 0.08120848 -0.07054295 0.00208451
v 0.06063293 -0.06867509 0.00016604
v 0.06368920 -0.07449006 0.00388602
v 0.11948536 -0.07215510 0.01738714
v 0.10247511 -0.07312904 0.01011985
v 0.10504187 -0.07037728 0.01032856
f 6 4 3
f 7 1 3
f 7 3 4
f 7 4 1
f 8 2 3
f 8 3 1
f 9 1 4
f 10 6 3
f 10 3 2
f 11 6 5
f 11 9 4
f 11 5 1
f 12 10 2
f 13 5 6
f 13 6 10
f 14 11 4
f 14 4 6
f 14 6 11
f 15 11 1
f 15 1 9
f 15 9 11
f 16 12 2
f 16 2 8
f 16 8 1
f 16 1 12
f 17 5 13
f 17 12 1
f 17 1 5
f 18 10 12
f 18 12 17
f 18 17 13
f 18 13 10

