# https://github.com/mikedh/trimesh
v 0.04701360 0.10332135 0.00498024
v 0.04780894 0.10497643 0.01197492
v 0.00414920 0.10505617 0.00677907
v 0.00409436 0.12007060 0.01433790
v 0.04660510 0.11561748 0.01000835
v 0.00414630 0.11565503 0.01225425
v 0.04137027 0.10273871 0.00378677
v 0.04782260 0.11045140 0.01441053
v 0.00406310 0.11932522 0.00792813
v 0.04669061 0.10798284 0.00677503
v 0.03649392 0.12013528 0.01686582
v 0.00403136 0.11057591 0.00414211
v 0.02537788 0.11572008 0.00734352
v 0.03597839 0.11305345 0.00726795
v 0.04722881 0.11727029 0.01722955
v 0.01770299 0.12087781 0.01525881
v 0.03598635 0.11844325 0.00966874
v 0.00403988 0.11607498 0.00651184
v 0.00408381 0.10367829 0.00137220
v 0.04129095 0.10502413 0.00467557
v 0.03332509 0.10767757 0.00464397
v 0.02006034 0.11028580 0.00466392
f 6 3 2
f 6 2 4
f 6 4 3
f 7 1 2
f 7 2 3
f 8 2 1
f 8 1 5
f 8 4 2
f 10 5 1
f 12 3 4
f 15 8 5
f 15 5 11
f 15 11 4
f 15 4 8
f 16 9 4
f 16 4 11
f 17 11 5
f 17 16 11
f 17 9 16
f 17 13 9
f 17 14 13
f 17 5 14
f 18 12 4
f 18 4 9
f 19 7 3
f 19 3 12
f 20 10 1
f 20 1 7
f 20 14 5
f 20 5 10
f 21 13 14
f 21 7 19
f 21 20 7
f 21 14 20
f 22 12 18
f 22 19 12
f 22 21 19
f 22 13 21
f 22 18 9
f 22 9 13

