# https://github.com/mikedh/trimesh
v 0.03100922 0.09291020 0.00029746
v 0.03679855 0.09930732 0.00711172
v -0.01746637 0.09294481 0.00320837
v -0.01747643 0.10378322 0.00653293
v 0.02801937 0.10246349 0.00197202
v 0.03644388 0.10381097 0.00918634
v 0.03132706 0.09384462 0.00402914
v 0.03070863 0.10009527 0.00139144
v -0.01732422 0.10277970 0.00136669
v 0.03642000 0.09834582 0.00662856
v 0.02581611 0.09359878 0.00343829
v -0.01768508 0.09659913 0.00369877
v 0.01502242 0.10485088 0.00714702
v -0.01745922 0.09292466 0.00022316
f 6 3 2
f 6 4 3
f 8 2 1
f 8 6 2
f 8 5 6
f 9 5 8
f 9 8 1
f 10 7 1
f 10 1 2
f 10 2 3
f 10 3 7
f 11 7 3
f 11 3 1
f 11 1 7
f 12 3 4
f 12 4 9
f 13 6 5
f 13 5 9
f 13 9 4
f 13 4 6
f 14 9 1
f 14 1 3
f 14 12 9
f 14 3 12

