{"scene":0,"scenes":[{"nodes":[0]}],"asset":{"version":"2.0","generator":"https://github.com/mikedh/trimesh"},"accessors":[{"componentType":5125,"type":"SCALAR","bufferView":0,"count":40746,"max":[40615],"min":[0]},{"componentType":5126,"type":"VEC3","byteOffset":0,"bufferView":1,"count":40616,"max":[0.14000000059604645,0.021982040256261826,0.1400444358587265],"min":[-0.14000000059604645,0.0,-0.1400444358587265]},{"componentType":5126,"type":"VEC2","byteOffset":0,"bufferView":3,"count":40616,"max":[0.9995318055152893,0.9995378851890564],"min":[0.0004681647988036275,0.0004621148109436035]}],"meshes":[{"name":"geometry_0.001","extras":{"units":"meters","from_gltf_primitive":false,"name":"geometry_0.001","node":"geometry_0"},"primitives":[{"attributes":{"POSITION":1,"TEXCOORD_0":2},"indices":0,"mode":4,"material":0}]}],"images":[{"bufferView":2,"mimeType":"image/png"}],"textures":[{"source":0}],"materials":[{"pbrMetallicRoughness":{"baseColorTexture":{"index":0}},"name":"Material_0.001","doubleSided":false}],"nodes":[{"name":"world","children":[1]},{"name":"geometry_0.001","mesh":0}],"buffers":[{"uri":"gltf_buffer_0.bin","byteLength":162984},{"uri":"gltf_buffer_1.bin","byteLength":487392},{"uri":"gltf_buffer_2.bin","byteLength":911612},{"uri":"gltf_buffer_3.bin","byteLength":324928}],"bufferViews":[{"buffer":0,"byteOffset":0,"byteLength":162984},{"buffer":1,"byteOffset":0,"byteLength":487392},{"buffer":2,"byteOffset":0,"byteLength":911612},{"buffer":3,"byteOffset":0,"byteLength":324928}]}