# https://github.com/mikedh/trimesh
v 0.08491959 -0.04985109 0.00384264
v 0.09280329 -0.03363927 0.00034621
v 0.09300167 0.01212588 0.00333969
v 0.07410353 0.01211724 0.00325450
v 0.07409718 -0.04983211 0.00022030
v 0.09292827 0.01211531 0.00022990
v 0.09298838 -0.03367106 0.00392812
v 0.08486253 -0.04981349 0.00032144
v 0.07410290 -0.04982733 0.00334537
v 0.07410097 0.01211694 0.00018796
f 6 2 5
f 7 3 4
f 7 4 1
f 7 6 3
f 7 2 6
f 8 5 2
f 8 1 5
f 8 7 1
f 8 2 7
f 9 5 1
f 9 1 4
f 9 4 5
f 10 4 3
f 10 3 6
f 10 6 5
f 10 5 4

