# https://github.com/mikedh/trimesh
v -0.08316332 -0.06671338 0.00673761
v -0.08229575 -0.06611870 0.00623183
v -0.10198461 -0.06664088 0.01490517
v -0.10691893 -0.05282790 0.01348526
v -0.10529546 -0.06531524 0.00955437
v -0.08881009 -0.06683084 0.00922490
v -0.08936591 -0.06542352 0.00371224
v -0.10667410 -0.06619592 0.01665329
v -0.09982422 -0.05195115 0.00446377
v -0.10739843 -0.05848868 0.01502761
v -0.09435731 -0.06248377 0.00474928
v -0.10531769 -0.05201501 0.00660489
v -0.09130798 -0.05317213 0.00659548
v -0.09015914 -0.05250762 0.00141862
v -0.09178956 -0.06523768 0.00449879
v -0.09967021 -0.05449674 0.00490885
v -0.08522359 -0.05818567 0.00536787
v -0.08253559 -0.06356890 0.00563848
v -0.09965268 -0.06519602 0.00739746
v -0.10496494 -0.05717584 0.00755685
f 3 2 4
f 6 1 2
f 6 2 3
f 6 3 5
f 7 2 1
f 7 6 5
f 7 1 6
f 8 5 3
f 8 3 4
f 10 8 4
f 10 5 8
f 12 4 9
f 12 10 4
f 12 5 10
f 13 9 4
f 14 7 11
f 14 9 13
f 15 11 7
f 15 7 5
f 16 11 5
f 16 14 11
f 16 9 14
f 16 12 9
f 17 13 4
f 17 4 2
f 17 14 13
f 18 2 7
f 18 7 14
f 18 17 2
f 18 14 17
f 19 15 5
f 19 5 11
f 19 11 15
f 20 16 5
f 20 5 12
f 20 12 16

