# https://github.com/mikedh/trimesh
v -0.09682237 0.08042900 0.01701864
v -0.09537400 0.07930802 0.00991609
v -0.09460190 0.08659604 0.01201713
v -0.09432257 0.10233703 0.02092831
v -0.10932341 0.07971329 0.02147036
v -0.10010322 0.07882970 0.01160571
v -0.09683003 0.08859913 0.01964957
v -0.09958844 0.08362202 0.01292818
v -0.10240698 0.08058542 0.01930407
v -0.09658592 0.09923057 0.01760004
v -0.10790622 0.07861996 0.01471922
v -0.09443512 0.10250101 0.01843911
v -0.09682009 0.09428416 0.01572878
v -0.10640153 0.09055861 0.01935048
v -0.09450325 0.09453782 0.01492467
v -0.09689745 0.08634735 0.01281663
v -0.10169575 0.09392337 0.01760711
v -0.10693725 0.08844972 0.01792767
v -0.10619136 0.09041124 0.02031841
v -0.09608048 0.10143984 0.01908234
v -0.09468609 0.10004644 0.01715038
v -0.10759222 0.08101828 0.01538274
v -0.09948735 0.09156713 0.01579388
v -0.09577060 0.10108234 0.02079419
f 1 2 3
f 1 3 4
f 6 2 1
f 6 1 5
f 7 1 4
f 7 4 5
f 8 3 2
f 8 2 6
f 9 7 5
f 9 5 1
f 9 1 7
f 11 8 6
f 11 6 5
f 15 12 4
f 15 4 3
f 15 3 13
f 16 13 3
f 16 3 8
f 17 10 13
f 17 12 10
f 18 11 5
f 18 5 14
f 18 14 17
f 19 14 5
f 19 5 4
f 20 4 12
f 20 17 14
f 20 12 17
f 20 14 19
f 21 10 12
f 21 12 15
f 21 15 13
f 21 13 10
f 22 8 11
f 22 18 17
f 22 11 18
f 23 16 8
f 23 22 17
f 23 8 22
f 23 17 13
f 23 13 16
f 24 20 19
f 24 19 4
f 24 4 20

