# https://github.com/mikedh/trimesh
v 0.10673137 -0.06887158 0.01677860
v 0.10517362 -0.06797094 0.00979207
v 0.10747102 -0.05031278 0.01256528
v 0.07410290 -0.04982733 0.00334537
v 0.07459589 -0.06914683 0.00470829
v 0.09228836 -0.04943882 0.00131079
v 0.10746271 -0.06120259 0.01512177
v 0.09417925 -0.06955918 0.01184379
v 0.10564512 -0.04943360 0.00595708
v 0.07397097 -0.06854653 0.00043547
v 0.10205226 -0.06941652 0.01498827
v 0.09708061 -0.05982227 0.00493595
v 0.10012658 -0.04933155 0.00381565
v 0.07417750 -0.06063829 0.00349496
v 0.07409718 -0.04983211 0.00022030
v 0.08050829 -0.06950466 0.00645710
v 0.08146796 -0.06814572 0.00165138
v 0.09189848 -0.05456467 0.00206022
v 0.09979135 -0.05449727 0.00474004
v 0.09168976 -0.06786961 0.00485431
v 0.08658770 -0.06261417 0.00197173
v 0.10508483 -0.05718431 0.00736010
f 1 3 4
f 5 1 4
f 7 1 2
f 7 3 1
f 9 7 2
f 9 3 7
f 9 4 3
f 11 8 2
f 11 2 1
f 11 1 5
f 11 5 8
f 13 6 4
f 13 4 9
f 14 10 5
f 14 5 4
f 14 4 10
f 15 10 4
f 15 4 6
f 15 6 10
f 16 8 5
f 16 5 10
f 16 2 8
f 17 10 6
f 17 16 10
f 17 2 16
f 18 6 13
f 19 13 9
f 19 2 12
f 19 18 13
f 19 12 18
f 20 12 2
f 20 2 17
f 21 17 6
f 21 6 18
f 21 20 17
f 21 18 12
f 21 12 20
f 22 19 9
f 22 9 2
f 22 2 19

