# https://github.com/mikedh/trimesh
v 0.04717745 0.06867581 0.00324540
v 0.04717078 0.06867055 0.00032065
v 0.03105153 0.09300508 0.00373635
v -0.02826754 0.09303450 0.00356985
v -0.04439451 0.06867264 0.00326456
v 0.03100922 0.09291020 0.00029746
v 0.04721237 0.08489436 0.00377516
v -0.04437412 0.08482662 0.00042103
v -0.04444853 0.08492678 0.00356325
v 0.04716432 0.08483308 0.00038003
v -0.02821746 0.09288660 0.00031634
v -0.04438599 0.06866895 0.00037826
f 5 2 1
f 6 4 3
f 7 1 2
f 7 5 1
f 9 7 3
f 9 3 4
f 9 5 7
f 9 4 8
f 10 6 3
f 10 3 7
f 10 7 2
f 10 2 6
f 11 8 4
f 11 4 6
f 11 6 2
f 12 2 5
f 12 9 8
f 12 5 9
f 12 11 2
f 12 8 11

