# https://github.com/mikedh/trimesh
v -0.02823588 0.08483745 0.00321877
v -0.01745922 0.09292466 0.00022316
v -0.01747643 0.10378322 0.00653293
v -0.06626000 0.10423598 0.01623965
v -0.06568521 0.08450163 0.00246536
v -0.01746637 0.09294481 0.00320837
v -0.02822927 0.08484874 0.00032662
v -0.06628563 0.08535350 0.00817606
v -0.02790940 0.10236718 0.00197278
v -0.01732422 0.10277970 0.00136669
v -0.06009915 0.08414593 0.00130523
v -0.06667065 0.09406768 0.01212428
v -0.06536307 0.10273628 0.00911030
v -0.02036159 0.10475010 0.00725249
v -0.04642630 0.10227462 0.00480267
v -0.03576959 0.09979034 0.00195963
v -0.06666991 0.08862267 0.00969807
v -0.06651685 0.10188884 0.01533058
v -0.06113455 0.10469149 0.01515495
v -0.05707009 0.09698030 0.00487405
v -0.06512811 0.09167129 0.00478111
v -0.05973965 0.10225637 0.00761118
v -0.05188873 0.09189220 0.00205982
v -0.05991163 0.08655283 0.00192157
f 1 3 4
f 6 1 2
f 6 3 1
f 7 2 1
f 10 6 2
f 10 3 6
f 11 2 7
f 11 10 2
f 11 7 1
f 11 8 5
f 11 1 8
f 13 10 9
f 13 5 12
f 14 4 3
f 14 3 10
f 14 10 13
f 15 13 9
f 16 9 10
f 16 10 11
f 16 15 9
f 17 8 1
f 17 1 12
f 17 12 5
f 17 5 8
f 18 12 1
f 18 1 4
f 18 13 12
f 18 4 13
f 19 14 13
f 19 13 4
f 19 4 14
f 21 5 13
f 21 13 20
f 22 20 13
f 22 13 15
f 22 15 20
f 23 20 15
f 23 15 16
f 23 16 11
f 24 21 20
f 24 5 21
f 24 20 23
f 24 23 11
f 24 11 5

