# https://github.com/mikedh/trimesh
v 0.13600453 0.03041895 0.02090254
v 0.13649384 0.03043567 0.01883489
v 0.13124995 0.04644437 0.02091471
v 0.09389957 0.04763771 0.00683917
v 0.10080905 0.03090934 0.00199423
v 0.12695989 0.03132867 0.01970593
v 0.13302391 0.04349702 0.01960948
v 0.10540254 0.03068579 0.00376649
v 0.12365836 0.04756042 0.02023227
v 0.09352843 0.03659893 0.00492364
v 0.13595659 0.03296340 0.01900544
v 0.13328292 0.04092114 0.02063010
v 0.09454437 0.04651379 0.00196158
v 0.11325162 0.03060418 0.00701756
v 0.10192840 0.03126207 0.00732593
v 0.13557356 0.03282134 0.02071871
v 0.13068050 0.04612805 0.01746593
v 0.12105924 0.04654246 0.01283805
v 0.09221287 0.04672554 0.00131622
v 0.09716072 0.04127944 0.00202130
v 0.13285418 0.04342044 0.01894188
v 0.13342508 0.03830653 0.01770471
v 0.09958539 0.04777297 0.00915734
v 0.10230062 0.04647155 0.00489741
v 0.09277646 0.03625986 0.00048607
v 0.10506357 0.03851168 0.00471502
v 0.13484978 0.03067964 0.01724922
v 0.09750446 0.03604958 0.00146684
v 0.11308926 0.03323536 0.00728763
v 0.12373941 0.03853742 0.01279993
f 9 6 1
f 9 1 3
f 9 4 6
f 10 6 4
f 11 1 2
f 12 7 3
f 14 2 1
f 14 1 8
f 15 5 8
f 15 10 5
f 15 6 10
f 15 8 1
f 15 1 6
f 16 11 7
f 16 1 11
f 16 7 12
f 16 12 3
f 16 3 1
f 17 3 7
f 17 9 3
f 18 9 17
f 19 10 4
f 20 19 13
f 21 17 7
f 21 7 11
f 22 11 2
f 22 21 11
f 22 17 21
f 23 4 9
f 23 9 18
f 23 19 4
f 23 18 19
f 24 19 18
f 24 13 19
f 24 20 13
f 25 5 10
f 25 10 19
f 26 8 5
f 26 5 20
f 26 20 24
f 26 24 18
f 27 22 2
f 27 2 14
f 27 17 22
f 28 20 5
f 28 5 25
f 28 25 19
f 28 19 20
f 29 14 8
f 29 8 26
f 29 26 18
f 30 18 17
f 30 17 27
f 30 29 18
f 30 27 14
f 30 14 29

