# https://github.com/mikedh/trimesh
v 0.07471950 -0.08548842 0.00455191
v 0.07341539 -0.08405804 0.00371655
v 0.07435702 -0.07431778 0.00594081
v 0.02293809 -0.07405790 0.00336299
v 0.02294148 -0.08484090 0.00018345
v 0.02294075 -0.08483217 0.00330556
v 0.07366001 -0.07357761 0.00091149
v 0.06544862 -0.08404136 0.00179363
v 0.05016108 -0.08534230 0.00416084
v 0.02293297 -0.07405519 0.00014556
v 0.07331025 -0.07847775 0.00197993
v 0.07058751 -0.08113485 0.00210352
f 6 3 4
f 7 3 1
f 7 4 3
f 8 2 1
f 8 1 5
f 8 5 7
f 9 1 3
f 9 3 6
f 9 6 5
f 9 5 1
f 10 6 4
f 10 5 6
f 10 7 5
f 10 4 7
f 11 7 1
f 11 1 2
f 11 8 7
f 12 11 2
f 12 2 8
f 12 8 11

