# https://github.com/mikedh/trimesh
v -0.09290891 -0.02021064 0.00349279
v -0.09284200 -0.02019762 0.00040778
v -0.09281044 0.02827130 0.00040262
v -0.10966175 0.02845013 0.01078372
v -0.10908211 -0.02020842 0.00931718
v -0.09364703 0.02852031 0.00412990
v -0.10229583 -0.02047456 0.00621798
v -0.10811923 -0.02006215 0.00356836
v -0.09315639 0.02028326 0.00349890
v -0.10752861 0.02858433 0.00971726
v -0.09622779 -0.02036442 0.00407062
v -0.10277162 -0.02005290 0.00165981
v -0.11020874 0.01774640 0.00979504
v -0.10780208 0.02792048 0.00428326
v -0.10248252 0.02530016 0.00194102
v -0.10013672 0.02808846 0.00139384
f 1 2 3
f 5 1 4
f 6 4 1
f 7 1 5
f 8 7 5
f 9 6 1
f 9 1 3
f 9 3 6
f 10 6 3
f 10 4 6
f 11 7 2
f 11 2 1
f 11 1 7
f 12 3 2
f 12 2 7
f 12 7 8
f 13 8 5
f 13 5 4
f 14 4 10
f 14 13 4
f 14 8 13
f 15 12 8
f 15 8 14
f 16 14 10
f 16 10 3
f 16 15 14
f 16 3 12
f 16 12 15

