# https://github.com/mikedh/trimesh
v 0.05187076 -0.12884034 0.02090461
v 0.06391634 -0.11821834 0.02026961
v 0.05309965 -0.09372245 0.00719566
v 0.05246820 -0.09275692 0.00186421
v 0.06192227 -0.12489417 0.01718638
v 0.06391860 -0.09375067 0.01004180
v 0.05200255 -0.09987592 0.00420123
v 0.05327207 -0.12153948 0.01941005
v 0.06184042 -0.12487142 0.02051954
v 0.06281857 -0.09209008 0.00372017
v 0.05196180 -0.12900245 0.01714298
v 0.05455832 -0.09981525 0.00467662
v 0.06415091 -0.10492092 0.01452494
v 0.06260033 -0.11573352 0.01280347
v 0.05656993 -0.12731899 0.02036732
v 0.06254875 -0.10233675 0.00743557
v 0.05461243 -0.11307243 0.01005796
v 0.05977463 -0.12336130 0.01565240
v 0.05654732 -0.12729180 0.01721986
v 0.05991931 -0.09707440 0.00482405
v 0.05200211 -0.11325146 0.00962877
v 0.06266951 -0.09454218 0.00452288
f 7 1 3
f 7 3 4
f 8 1 2
f 8 3 1
f 8 6 3
f 8 2 6
f 9 5 2
f 9 2 1
f 10 4 3
f 10 3 6
f 11 1 7
f 12 7 4
f 13 10 6
f 13 6 2
f 14 2 5
f 14 13 2
f 14 10 13
f 15 9 1
f 15 1 11
f 15 5 9
f 16 14 12
f 16 10 14
f 17 7 12
f 17 12 14
f 18 14 5
f 18 17 14
f 19 15 11
f 19 5 15
f 19 18 5
f 19 11 18
f 20 16 12
f 20 12 4
f 20 4 10
f 21 11 7
f 21 7 17
f 21 18 11
f 21 17 18
f 22 20 10
f 22 10 16
f 22 16 20

