# https://github.com/mikedh/trimesh
v -0.07402587 0.04983165 0.00333678
v -0.07401232 0.04982337 0.00037075
v -0.07445004 0.06091466 0.00373734
v -0.12564567 0.05951314 0.02098246
v -0.12925212 0.04932445 0.01734346
v -0.11795661 0.06106660 0.02049469
v -0.07401209 0.06058710 0.00039046
v -0.09977993 0.04924122 0.00428542
v -0.12125866 0.05053904 0.01965299
v -0.07415799 0.05803063 0.00349569
v -0.11029890 0.06134860 0.01730167
v -0.09207309 0.04940961 0.00154385
v -0.11557665 0.05983230 0.01295422
v -0.12961913 0.04955989 0.02124436
v -0.11310133 0.04926270 0.00986926
v -0.12530844 0.05925163 0.01765868
v -0.08655714 0.05994905 0.00178862
v -0.12757758 0.05647959 0.01878625
v -0.11291145 0.05186923 0.01026484
v -0.12346244 0.05447787 0.01545071
v -0.09693447 0.05714818 0.00480218
v -0.12734920 0.05644544 0.02060064
v -0.12789306 0.05410075 0.01783384
v -0.09182506 0.05194874 0.00187913
v -0.09959675 0.05183387 0.00472705
v -0.10225956 0.05982393 0.00754147
v -0.08915373 0.05724519 0.00203840
f 6 1 3
f 7 1 2
f 9 1 6
f 10 7 3
f 10 3 1
f 10 1 7
f 11 6 3
f 11 3 7
f 12 7 2
f 12 2 1
f 12 1 8
f 13 6 11
f 14 1 9
f 14 8 1
f 14 5 8
f 14 9 6
f 14 6 4
f 15 8 5
f 16 4 6
f 16 6 13
f 17 7 12
f 17 11 7
f 18 5 14
f 18 4 16
f 19 13 8
f 19 8 15
f 20 15 5
f 20 19 15
f 20 13 19
f 20 16 13
f 20 5 16
f 22 18 14
f 22 14 4
f 22 4 18
f 23 18 16
f 23 16 5
f 23 5 18
f 24 17 12
f 24 12 8
f 25 8 13
f 25 24 8
f 25 21 24
f 26 17 21
f 26 13 11
f 26 11 17
f 26 25 13
f 26 21 25
f 27 24 21
f 27 21 17
f 27 17 24

