# https://github.com/mikedh/trimesh
v -0.09039470 0.02833896 0.00351262
v -0.08209560 0.03365956 0.00035962
v -0.08210207 0.03366859 0.00331955
v -0.13039713 0.04886144 0.02085895
v -0.10780208 0.02792048 0.00428326
v -0.08258315 0.05012556 0.00394172
v -0.12902679 0.02852755 0.02006780
v -0.09016564 0.02826928 0.00035939
v -0.08208287 0.04981534 0.00040908
v -0.13663852 0.02781662 0.02091826
v -0.12344692 0.05026183 0.02050124
v -0.08232444 0.04458315 0.00347850
v -0.10013672 0.02808846 0.00139384
v -0.10756598 0.04920318 0.00754156
v -0.11577075 0.05042507 0.01716725
v -0.12925212 0.04932445 0.01734346
v -0.09969629 0.03591344 0.00205920
v -0.09207309 0.04940961 0.00154385
v -0.13278884 0.04342043 0.01878346
v -0.12098692 0.04657904 0.01283186
v -0.10220952 0.04649220 0.00477831
v -0.09450098 0.04658411 0.00182707
v -0.13261066 0.04314167 0.02062473
v -0.13078622 0.04880852 0.01875812
v -0.13168745 0.02789575 0.01525859
v -0.10770107 0.03057236 0.00456679
v -0.13587627 0.03294912 0.01879661
v -0.13553695 0.03289022 0.02077771
v -0.13084564 0.04619822 0.01767023
v -0.12364909 0.03858432 0.01278722
v -0.13702063 0.02788476 0.01857840
v -0.13350561 0.03836960 0.01774318
v -0.13155726 0.03055739 0.01551733
f 7 1 3
f 8 2 3
f 8 3 1
f 8 1 5
f 9 3 2
f 9 2 8
f 10 5 1
f 10 1 7
f 11 10 7
f 11 4 10
f 11 7 3
f 11 3 6
f 12 9 6
f 12 6 3
f 12 3 9
f 13 9 8
f 13 8 5
f 15 11 6
f 15 6 9
f 16 4 11
f 16 11 15
f 17 13 5
f 18 15 9
f 18 16 15
f 18 14 16
f 18 9 13
f 20 16 14
f 21 14 18
f 21 20 14
f 22 18 13
f 22 13 17
f 22 21 18
f 22 17 21
f 24 4 16
f 24 23 4
f 24 19 23
f 25 5 10
f 26 21 17
f 26 17 5
f 26 20 21
f 27 23 19
f 28 10 4
f 28 4 23
f 28 27 10
f 28 23 27
f 29 24 16
f 29 19 24
f 30 16 20
f 30 20 26
f 30 26 5
f 30 5 25
f 31 25 10
f 31 10 27
f 32 27 19
f 32 19 29
f 32 31 27
f 32 29 16
f 32 16 30
f 33 32 30
f 33 30 25
f 33 25 31
f 33 31 32

