# https://github.com/mikedh/trimesh
v 0.13721550 -0.02257375 0.02099932
v 0.13851654 -0.01975179 0.01860956
v 0.13600453 0.03041895 0.02090254
v 0.10749183 0.03126611 0.00980115
v 0.10814849 -0.02272380 0.00378387
v 0.12891868 0.03119224 0.02050736
v 0.13829680 0.01714845 0.02096494
v 0.13706660 -0.02263053 0.01734457
v 0.11025909 -0.02311502 0.00995681
v 0.10867092 0.03084122 0.00513378
v 0.13830982 -0.01716555 0.02068482
v 0.13888372 0.00920279 0.01761120
v 0.10648207 0.03098731 0.00930070
v 0.13159645 -0.02304867 0.02032760
v 0.13484978 0.03067964 0.01724922
v 0.13852487 -0.01974309 0.01943383
v 0.13868189 -0.01187776 0.01758305
v 0.13865751 0.01981354 0.01950022
v 0.12380795 0.00924974 0.01000570
v 0.10814818 0.01732739 0.00365873
v 0.12376535 -0.01195997 0.01003616
v 0.13649384 0.03043567 0.01883489
v 0.13437205 0.01452926 0.01535080
v 0.11578660 0.02258894 0.00731667
v 0.13433359 -0.01723189 0.01548900
v 0.13851080 0.01972869 0.01883703
v 0.13613255 0.02772657 0.01763710
v 0.12906545 0.01456042 0.01274703
v 0.12638601 0.02791131 0.01272062
v 0.11039241 -0.02265948 0.00471328
v 0.11325162 0.03060418 0.00701756
f 6 1 3
f 7 3 1
f 8 2 1
f 9 5 8
f 11 7 1
f 13 5 9
f 13 4 10
f 13 9 6
f 13 6 4
f 14 1 6
f 14 6 9
f 14 9 8
f 14 8 1
f 15 6 3
f 15 10 4
f 15 4 6
f 16 11 1
f 16 1 2
f 17 2 8
f 17 16 2
f 17 12 16
f 18 7 11
f 18 16 12
f 18 11 16
f 18 3 7
f 20 13 10
f 20 5 13
f 21 20 19
f 21 5 20
f 21 19 12
f 21 12 17
f 22 15 3
f 22 3 18
f 23 12 19
f 24 20 10
f 24 19 20
f 25 21 17
f 25 17 8
f 26 22 18
f 26 18 12
f 27 23 15
f 27 12 23
f 27 26 12
f 27 15 22
f 27 22 26
f 28 23 19
f 28 19 24
f 29 28 24
f 29 15 23
f 29 23 28
f 30 25 8
f 30 8 5
f 30 5 21
f 30 21 25
f 31 29 24
f 31 24 10
f 31 10 15
f 31 15 29

