# https://github.com/mikedh/trimesh
v 0.01981889 -0.13860813 0.01947174
v 0.02268499 -0.13718728 0.01698528
v 0.02308636 -0.12874074 0.01873960
v -0.02834509 -0.12846234 0.01912277
v -0.02777715 -0.13652457 0.01717437
v 0.02262524 -0.13713030 0.02101234
v -0.01702282 -0.13826219 0.01713040
v -0.02262447 -0.12686999 0.01161991
v 0.02316053 -0.13181263 0.02039083
v -0.02778221 -0.13636959 0.02083098
v 0.01979866 -0.13865051 0.01848455
v 0.02272285 -0.12686753 0.01169100
v -0.02518884 -0.13414042 0.01546568
v -0.02818265 -0.12769883 0.01258996
v -0.02844513 -0.13154304 0.02058034
v -0.01976208 -0.13869402 0.01851170
v -0.01706015 -0.13836875 0.02056160
v 0.01719763 -0.13836789 0.01727799
v 0.02262280 -0.12908647 0.01271662
v -0.02251495 -0.12907247 0.01266209
v -0.02794267 -0.13199991 0.01464099
v 0.01719214 -0.13845675 0.02044744
v -0.01974375 -0.13864043 0.01940507
v 0.02260662 -0.13428057 0.01525685
f 9 3 4
f 9 6 2
f 11 6 1
f 11 2 6
f 12 9 2
f 12 3 9
f 12 8 4
f 12 4 3
f 13 7 5
f 14 4 8
f 15 5 10
f 15 14 5
f 15 4 14
f 15 9 4
f 15 10 6
f 15 6 9
f 16 10 5
f 16 5 7
f 16 11 1
f 17 6 10
f 18 2 11
f 18 16 7
f 18 11 16
f 19 8 12
f 20 7 13
f 20 19 7
f 20 8 19
f 20 14 8
f 21 13 5
f 21 5 14
f 21 20 13
f 21 14 20
f 22 1 6
f 22 6 17
f 23 17 10
f 23 10 16
f 23 22 17
f 23 16 1
f 23 1 22
f 24 18 7
f 24 7 19
f 24 2 18
f 24 19 12
f 24 12 2

