# https://github.com/mikedh/trimesh
v -0.07135593 0.06062094 0.00345509
v -0.06593259 0.06597341 0.00039324
v -0.06637989 0.09089683 0.01065259
v -0.07952997 0.09038040 0.01440241
v -0.07934363 0.06056216 0.00053234
v -0.07202473 0.09124946 0.01243968
v -0.06595096 0.06598972 0.00340225
v -0.07132112 0.06059163 0.00038479
v -0.07992992 0.06094154 0.00496122
v -0.06531257 0.08929472 0.00397707
v -0.08044003 0.08328169 0.01195886
v -0.06538855 0.08146532 0.00154432
v -0.07840597 0.08903884 0.00741380
v -0.07846048 0.08112544 0.00474059
v -0.07855367 0.07059488 0.00188473
v -0.07309030 0.08632501 0.00493323
v -0.06788800 0.08122755 0.00200690
v -0.06780746 0.08911496 0.00451613
f 6 4 1
f 7 6 1
f 7 3 6
f 8 5 2
f 8 1 5
f 8 7 1
f 8 2 7
f 9 5 1
f 9 1 4
f 10 3 7
f 10 6 3
f 11 9 4
f 11 5 9
f 12 2 5
f 12 10 7
f 12 7 2
f 13 4 6
f 13 6 10
f 13 11 4
f 14 5 11
f 14 11 13
f 15 12 5
f 15 5 14
f 16 14 13
f 17 15 14
f 17 12 15
f 17 14 16
f 17 10 12
f 18 16 13
f 18 13 10
f 18 17 16
f 18 10 17

