# https://github.com/mikedh/trimesh
v 0.10648378 -0.04985084 0.01199434
v 0.10853894 -0.03888656 0.00540126
v 0.10972170 -0.03381754 0.01087945
v 0.08487522 -0.03366179 0.00330121
v 0.08486253 -0.04981349 0.00032144
v 0.10015128 -0.03344609 0.00172669
v 0.10941822 -0.03914777 0.01149429
v 0.10564512 -0.04943360 0.00595708
v 0.08544124 -0.05020614 0.00399964
v 0.10787019 -0.03337912 0.00454003
v 0.08487592 -0.03365851 0.00024363
v 0.09726145 -0.04398981 0.00190917
v 0.10202903 -0.05033648 0.01000393
v 0.09997338 -0.03605601 0.00189711
v 0.10512456 -0.04388553 0.00477061
v 0.09462636 -0.04923939 0.00190360
v 0.10778908 -0.03597749 0.00477315
v 0.10236381 -0.04922294 0.00463519
f 7 3 4
f 7 4 1
f 7 1 2
f 7 2 3
f 8 2 1
f 9 1 4
f 9 4 5
f 10 3 2
f 10 6 4
f 10 4 3
f 11 6 5
f 11 5 4
f 11 4 6
f 12 5 6
f 13 8 1
f 13 1 9
f 13 9 5
f 13 5 8
f 14 6 10
f 14 12 6
f 15 2 8
f 15 14 2
f 15 12 14
f 16 8 5
f 16 5 12
f 17 14 10
f 17 10 2
f 17 2 14
f 18 15 8
f 18 12 15
f 18 16 12
f 18 8 16

