# https://github.com/mikedh/trimesh
v 0.05282834 -0.10960361 0.01364981
v 0.05279213 -0.10956201 0.00827070
v 0.05328002 -0.09939405 0.00937117
v 0.05010963 -0.09871584 0.00834206
v 0.03102350 -0.10909934 0.00936838
v 0.05269165 -0.09850944 0.00887086
v 0.05330496 -0.10505159 0.01171987
v 0.03133885 -0.11015796 0.00990311
v 0.03114902 -0.10684118 0.00836687
v 0.04499815 -0.11024235 0.01222750
f 6 3 2
f 6 2 4
f 7 1 2
f 7 2 3
f 7 3 1
f 8 5 2
f 8 1 3
f 8 6 5
f 8 3 6
f 9 4 2
f 9 2 5
f 9 6 4
f 9 5 6
f 10 8 2
f 10 2 1
f 10 1 8

