# https://github.com/mikedh/trimesh
v 0.05279213 -0.10956201 0.00827070
v 0.05189484 -0.10772320 0.00732816
v 0.05309965 -0.09372245 0.00719566
v -0.01746999 -0.09295904 0.00323260
v -0.01735084 -0.10837646 0.00304561
v -0.01756446 -0.10965000 0.00817727
v 0.05246820 -0.09275692 0.00186421
v 0.01735246 -0.10526070 0.00189932
v -0.01766274 -0.10499724 0.00622551
v 0.05200255 -0.09987592 0.00420123
v 0.04948922 -0.09226451 0.00130316
v 0.03590528 -0.10776289 0.00462797
v -0.01745884 -0.09289883 0.00029301
v 0.04389731 -0.10499549 0.00473610
v 0.03867549 -0.09985498 0.00196422
v -0.01729567 -0.10523933 0.00186500
v 0.04924168 -0.10240669 0.00464246
v 0.03069038 -0.10254392 0.00201021
v 0.04929181 -0.09463246 0.00186368
f 6 1 3
f 6 3 4
f 6 5 1
f 7 3 1
f 9 6 4
f 9 5 6
f 10 7 1
f 10 1 2
f 11 4 3
f 11 3 7
f 12 1 5
f 12 5 8
f 13 11 8
f 13 4 11
f 13 9 4
f 13 5 9
f 14 2 1
f 14 1 12
f 15 14 12
f 16 13 8
f 16 8 5
f 16 5 13
f 17 10 2
f 17 2 14
f 17 14 15
f 18 15 12
f 18 12 8
f 18 8 11
f 18 11 15
f 19 15 11
f 19 11 7
f 19 7 10
f 19 17 15
f 19 10 17

