# https://github.com/mikedh/trimesh
v -0.02778221 -0.13636959 0.02083098
v -0.02777715 -0.13652457 0.01717437
v -0.02821659 -0.10899982 0.00421178
v -0.04403458 -0.10822679 0.00606444
v -0.04351386 -0.13316392 0.01855135
v -0.03584489 -0.12633238 0.01281942
v -0.03372869 -0.10672666 0.00865146
v -0.02790748 -0.11580357 0.00707140
v -0.03547432 -0.13554476 0.01860398
v -0.04381521 -0.12891628 0.01532010
v -0.02855190 -0.11028877 0.00957591
v -0.04473495 -0.12640329 0.02022109
v -0.03578041 -0.13153500 0.01533428
v -0.04374412 -0.11829404 0.01023696
v -0.04084428 -0.13331618 0.01730757
v -0.04086695 -0.13319222 0.02059885
v -0.03107891 -0.10686520 0.00834199
v -0.02856028 -0.12954585 0.01969101
v -0.04485118 -0.11022840 0.01236088
v -0.03058313 -0.11571397 0.00731331
v -0.03278766 -0.13560660 0.01736272
v -0.03540908 -0.13547476 0.01945269
v -0.04391931 -0.13185993 0.02098997
v -0.04111503 -0.11300350 0.00756446
v -0.03289528 -0.13566264 0.02031348
v -0.04346341 -0.13313306 0.01933416
f 7 3 4
f 8 1 2
f 9 2 1
f 11 8 3
f 11 1 8
f 12 10 5
f 13 8 2
f 13 6 8
f 13 10 6
f 14 10 4
f 14 6 10
f 15 9 5
f 15 5 10
f 15 10 13
f 17 11 3
f 17 3 7
f 18 12 1
f 18 1 11
f 18 11 17
f 19 7 4
f 19 4 10
f 19 10 12
f 19 12 18
f 19 18 17
f 19 17 7
f 20 8 6
f 20 6 14
f 20 3 8
f 21 2 9
f 21 9 15
f 21 15 13
f 21 13 2
f 22 9 1
f 23 12 5
f 23 16 1
f 23 1 12
f 24 20 14
f 24 14 4
f 24 4 3
f 24 3 20
f 25 22 1
f 25 1 16
f 25 16 22
f 26 22 16
f 26 5 9
f 26 9 22
f 26 23 5
f 26 16 23

