# https://github.com/mikedh/trimesh
v -0.08001220 0.08008134 0.01054251
v -0.07928322 0.07932987 0.00444576
v -0.08019490 0.09122126 0.01493402
v -0.09570563 0.09035752 0.01981339
v -0.09598395 0.07977200 0.01647864
v -0.07906413 0.08981849 0.00788159
v -0.08661385 0.07867852 0.00664922
v -0.08044003 0.08328169 0.01195886
v -0.08835552 0.09118356 0.01751525
v -0.07863532 0.08664096 0.00664937
v -0.09456735 0.07871005 0.00943466
v -0.09428747 0.08900623 0.01277222
v -0.08639070 0.08902098 0.00988995
v -0.09656089 0.08292233 0.01768823
v -0.08111086 0.08643477 0.00730834
v -0.08639290 0.08117607 0.00731234
v -0.09430710 0.08106025 0.01003841
f 5 3 4
f 7 2 1
f 7 1 5
f 8 5 1
f 8 1 3
f 8 3 5
f 9 4 3
f 9 3 6
f 10 1 2
f 10 6 3
f 10 3 1
f 11 7 5
f 12 9 6
f 12 4 9
f 13 12 6
f 14 11 5
f 14 5 4
f 14 12 11
f 14 4 12
f 15 10 2
f 15 13 6
f 15 6 10
f 16 13 15
f 16 15 2
f 16 2 7
f 17 11 12
f 17 12 13
f 17 13 16
f 17 16 7
f 17 7 11

