# https://github.com/mikedh/trimesh
v -0.09130798 -0.05317213 0.00659548
v -0.08956778 -0.05218713 0.00123738
v -0.09310107 -0.02026899 0.00350785
v -0.13762555 -0.02002067 0.02110680
v -0.13081793 -0.04625832 0.01743395
v -0.13157367 -0.02038385 0.02031353
v -0.09041156 -0.03102796 0.00353125
v -0.11726622 -0.05258675 0.01178900
v -0.10466029 -0.05308696 0.01256297
v -0.12358069 -0.04749368 0.02002543
v -0.09284200 -0.02019762 0.00040778
v -0.09694735 -0.05330883 0.00908621
v -0.13096727 -0.04638846 0.02096757
v -0.10919660 -0.05259589 0.01444191
v -0.09016522 -0.03095774 0.00042635
v -0.11036932 -0.02268878 0.00465081
v -0.10277162 -0.02005290 0.00165981
v -0.13591814 -0.03293256 0.01869802
v -0.10236396 -0.04920223 0.00490300
v -0.12077775 -0.03057297 0.01014991
v -0.13723651 -0.02001131 0.01730742
v -0.13532393 -0.03277899 0.02073491
v -0.13280564 -0.04345909 0.01859158
v -0.10764615 -0.05182750 0.00749641
v -0.09983470 -0.03593204 0.00203632
v -0.12342986 -0.04121505 0.01285352
v -0.11040248 -0.02001141 0.00450463
v -0.11554846 -0.02795214 0.00737734
v -0.13607653 -0.03030834 0.01791169
v -0.13291008 -0.04075412 0.02086297
v -0.09194548 -0.05204842 0.00183060
v -0.10256409 -0.02532494 0.00195383
v -0.12889790 -0.04121347 0.01554656
v -0.11286829 -0.03863572 0.00747459
v -0.13280937 -0.04344696 0.01940352
v -0.10777690 -0.03330181 0.00463892
v -0.11021628 -0.04651945 0.00758604
v -0.11627149 -0.05214598 0.01123562
v -0.11309964 -0.05188369 0.00972459
f 6 3 4
f 7 1 2
f 7 3 1
f 8 2 1
f 9 1 3
f 9 3 6
f 10 6 4
f 10 9 6
f 11 3 7
f 12 9 8
f 12 8 1
f 12 1 9
f 13 10 4
f 13 5 8
f 14 8 9
f 14 9 10
f 14 13 8
f 14 10 13
f 15 11 7
f 15 7 2
f 17 4 3
f 17 3 11
f 17 15 2
f 17 11 15
f 21 18 4
f 22 4 18
f 23 5 13
f 25 17 2
f 27 17 16
f 27 21 4
f 27 4 17
f 28 20 21
f 28 27 16
f 28 21 27
f 29 18 21
f 29 23 18
f 29 5 23
f 29 21 20
f 30 13 4
f 30 4 22
f 31 24 19
f 31 2 8
f 31 8 24
f 31 25 2
f 31 19 25
f 32 16 17
f 32 17 25
f 33 26 8
f 33 8 5
f 33 5 29
f 33 29 20
f 33 20 26
f 34 26 20
f 34 20 28
f 35 23 13
f 35 13 30
f 35 18 23
f 35 30 22
f 35 22 18
f 36 32 25
f 36 16 32
f 36 25 19
f 36 34 28
f 36 28 16
f 37 19 24
f 37 36 19
f 37 34 36
f 38 8 26
f 38 26 34
f 39 38 34
f 39 34 37
f 39 37 24
f 39 24 8
f 39 8 38

