# https://github.com/mikedh/trimesh
v 0.03115674 0.12041437 0.01629463
v 0.03098458 0.11970758 0.00970940
v 0.03104958 0.12806461 0.01988794
v -0.04453354 0.12832511 0.02146335
v -0.04399222 0.11879983 0.01168745
v -0.02516576 0.12637892 0.01271088
v -0.04472447 0.12057945 0.01855817
v 0.03128759 0.12366193 0.01786600
v 0.02811056 0.11878833 0.00899125
v 0.03060518 0.12620435 0.01285773
v -0.03387530 0.12878297 0.02049280
v -0.04384944 0.12644423 0.01519503
v -0.04486374 0.12364991 0.01993507
v -0.02528896 0.11875610 0.00910616
v 0.00931742 0.12371255 0.01000460
v 0.02798914 0.12095236 0.01000337
v -0.03585201 0.12362666 0.01273722
v -0.00653569 0.12374372 0.00998010
f 7 5 1
f 8 1 2
f 8 2 3
f 8 7 1
f 8 3 7
f 9 2 1
f 9 1 5
f 10 3 2
f 11 4 3
f 11 10 6
f 11 3 10
f 12 11 6
f 12 4 11
f 13 7 3
f 13 3 4
f 13 5 7
f 13 12 5
f 13 4 12
f 14 9 5
f 15 6 10
f 16 10 2
f 16 2 9
f 16 15 10
f 16 9 15
f 17 12 6
f 17 6 14
f 17 14 5
f 17 5 12
f 18 14 6
f 18 6 15
f 18 15 9
f 18 9 14

