# https://github.com/mikedh/trimesh
v -0.11029890 0.06134860 0.01730167
v -0.10870953 0.06041080 0.01022160
v -0.10805298 0.06807842 0.01175223
v -0.10810900 0.08673437 0.02130690
v -0.12592280 0.05959150 0.01850294
v -0.12564567 0.05951314 0.02098246
v -0.12399745 0.06001715 0.01705796
v -0.11331711 0.06000732 0.01202710
v -0.11581282 0.06137234 0.01974900
v -0.11943783 0.07235239 0.01910441
v -0.11543261 0.07036775 0.01557325
v -0.11291487 0.06511032 0.01304732
v -0.11045913 0.06959269 0.01954202
v -0.11926177 0.07207573 0.02045555
v -0.12496689 0.06174999 0.01880847
v -0.11975818 0.06984877 0.01771936
v -0.10782007 0.08650875 0.01740474
v -0.11036463 0.06784488 0.01266184
v -0.12480180 0.06154542 0.02070623
v -0.11403441 0.07993016 0.02068290
v -0.12258099 0.06456071 0.01764257
v -0.10790622 0.07861996 0.01471922
v -0.11011457 0.07831315 0.01560086
v -0.11430929 0.08017110 0.01895459
v -0.10937827 0.08564447 0.01799034
v -0.10955444 0.08573661 0.02085714
f 1 2 3
f 1 3 4
f 6 2 1
f 8 6 5
f 8 2 6
f 8 5 7
f 9 6 1
f 9 4 6
f 12 3 2
f 12 2 8
f 12 8 7
f 12 7 11
f 13 9 1
f 13 1 4
f 13 4 9
f 15 10 5
f 15 5 6
f 17 4 3
f 18 12 11
f 18 3 12
f 19 14 10
f 19 6 14
f 19 15 6
f 19 10 15
f 20 14 6
f 20 6 4
f 20 10 14
f 21 7 5
f 21 5 10
f 21 10 16
f 21 16 11
f 21 11 7
f 22 17 3
f 22 18 11
f 22 3 18
f 23 11 16
f 23 16 17
f 23 22 11
f 23 17 22
f 24 16 10
f 24 10 20
f 25 17 16
f 25 16 24
f 25 4 17
f 26 24 20
f 26 20 4
f 26 25 24
f 26 4 25

