# https://github.com/mikedh/trimesh
v -0.02825455 -0.09299039 0.00342123
v -0.02822775 -0.09289379 0.00031988
v -0.02823296 -0.07405728 0.00334402
v -0.05247649 -0.07405709 0.00336627
v -0.05250254 -0.09296090 0.00659777
v -0.02822867 -0.07405261 0.00028235
v -0.03660933 -0.09363924 0.00412507
v -0.05199546 -0.09212068 0.00146934
v -0.05272087 -0.08258368 0.00375578
v -0.05247140 -0.07406168 0.00033810
f 1 2 3
f 5 1 3
f 5 3 4
f 6 3 2
f 6 4 3
f 7 2 1
f 7 1 5
f 8 7 5
f 8 2 7
f 9 8 5
f 9 5 4
f 10 6 2
f 10 2 8
f 10 4 6
f 10 9 4
f 10 8 9

