# https://github.com/mikedh/trimesh
v -0.04439451 0.06867264 0.00326456
v -0.04438599 0.06866895 0.00037826
v -0.04444853 0.08492678 0.00356325
v -0.06628563 0.08535350 0.00817606
v -0.06593132 0.06866860 0.00040494
v -0.04437412 0.08482662 0.00042103
v -0.06596547 0.06870053 0.00352517
v -0.06515116 0.08379828 0.00213533
v -0.04751027 0.08553865 0.00412565
v -0.06676035 0.08046718 0.00643536
v -0.06116853 0.08579743 0.00699689
v -0.06649354 0.07194033 0.00401756
f 1 3 4
f 5 2 1
f 6 1 2
f 6 3 1
f 6 2 5
f 7 5 1
f 7 1 4
f 8 6 5
f 9 4 3
f 9 3 6
f 10 7 4
f 10 8 5
f 10 4 8
f 11 8 4
f 11 6 8
f 11 9 6
f 11 4 9
f 12 10 5
f 12 5 7
f 12 7 10

