# https://github.com/mikedh/trimesh
v -0.06585502 0.09009800 0.00438889
v -0.06521941 0.09719760 0.00690570
v -0.06693267 0.09175520 0.01120654
v -0.06468312 0.12292889 0.02094018
v -0.09509126 0.08977179 0.01335649
v -0.07837563 0.09691936 0.01028908
v -0.07593413 0.08924672 0.00677202
v -0.09640862 0.09101774 0.02026527
v -0.06777274 0.09698301 0.00746337
v -0.07786495 0.11485903 0.01801603
v -0.08368838 0.09173981 0.00997373
v -0.06657839 0.11283627 0.01997273
v -0.09191965 0.08929780 0.01199608
v -0.07570819 0.09165643 0.00756700
v -0.06772682 0.11022311 0.01290879
v -0.09327076 0.10376074 0.02046350
v -0.09150954 0.09952260 0.01574705
v -0.07036961 0.10228060 0.01020663
v -0.06528048 0.12131857 0.01734480
v -0.09043251 0.10602973 0.02061950
v -0.09391122 0.10186577 0.01769933
v -0.08360222 0.09956195 0.01296008
v -0.09163712 0.09171642 0.01276040
v -0.06517645 0.11046701 0.01235365
v -0.06754835 0.12035517 0.01750204
v -0.08028005 0.11432742 0.01918367
v -0.09336917 0.10389978 0.01895719
v -0.09420219 0.09692712 0.01572177
v -0.08572450 0.10946237 0.01816994
v -0.06475179 0.12320064 0.01885057
v -0.07998430 0.11421116 0.02054068
v -0.09052195 0.10633983 0.01882498
v -0.06716840 0.12238522 0.01948211
v -0.07205546 0.11917306 0.02066421
v -0.07216720 0.11955114 0.01937933
v -0.06704482 0.12202390 0.02053323
f 1 2 3
f 3 2 4
f 7 1 3
f 8 7 3
f 9 2 1
f 12 8 3
f 12 3 4
f 12 4 8
f 13 8 5
f 13 7 8
f 13 11 7
f 14 6 9
f 14 11 6
f 14 7 11
f 14 9 1
f 14 1 7
f 18 9 6
f 18 2 9
f 20 16 8
f 20 8 4
f 21 5 8
f 22 6 11
f 22 18 6
f 22 10 15
f 22 15 18
f 23 13 5
f 23 11 13
f 23 22 11
f 23 17 22
f 24 18 15
f 24 2 18
f 24 15 19
f 25 19 15
f 25 15 10
f 27 21 8
f 27 8 16
f 28 21 17
f 28 5 21
f 28 23 5
f 28 17 23
f 29 17 21
f 29 22 17
f 29 10 22
f 29 26 10
f 30 24 19
f 30 4 2
f 30 2 24
f 30 19 25
f 31 26 20
f 31 20 4
f 32 27 16
f 32 16 20
f 32 20 26
f 32 26 29
f 32 29 21
f 32 21 27
f 33 4 30
f 34 31 4
f 35 10 26
f 35 34 33
f 35 26 31
f 35 31 34
f 35 25 10
f 35 33 30
f 35 30 25
f 36 34 4
f 36 4 33
f 36 33 34

