# https://github.com/mikedh/trimesh
v -0.10713861 -0.08005425 0.02043478
v -0.10572354 -0.07901164 0.01356726
v -0.10859440 -0.04696300 0.01304832
v -0.13096727 -0.04638846 0.02096757
v -0.11976528 -0.07237469 0.01863528
v -0.11661874 -0.04695444 0.01044520
v -0.12358069 -0.04749368 0.02002543
v -0.10548995 -0.06275515 0.00902626
v -0.11507704 -0.07805910 0.01741170
v -0.11503796 -0.07801792 0.02096763
v -0.13081793 -0.04625832 0.01743395
v -0.10540849 -0.07338938 0.01177161
v -0.10786745 -0.05333388 0.01402093
v -0.10620989 -0.05245406 0.00704690
v -0.12075402 -0.06242481 0.01563783
v -0.12720155 -0.05639089 0.02073978
v -0.12093817 -0.04660143 0.01248452
v -0.11281112 -0.07571013 0.01562142
v -0.11289729 -0.05447947 0.01018484
v -0.11712277 -0.07496914 0.01745571
v -0.11919125 -0.07194067 0.02068465
v -0.12781977 -0.05668381 0.01858968
v -0.12075429 -0.04923210 0.01284588
v -0.10764247 -0.07318969 0.01262215
v -0.11035023 -0.07846498 0.01535873
v -0.11020980 -0.05979297 0.01019238
v -0.11309964 -0.05188369 0.00972459
v -0.13033475 -0.04873744 0.01780941
v -0.13020534 -0.04863394 0.02083489
v -0.10775697 -0.06248340 0.00982037
v -0.11021906 -0.07038350 0.01295731
f 7 1 3
f 7 3 4
f 7 4 1
f 9 2 1
f 10 1 4
f 10 9 1
f 10 5 9
f 11 4 3
f 12 8 1
f 12 1 2
f 13 3 1
f 13 1 8
f 14 6 3
f 14 13 8
f 14 3 13
f 16 10 4
f 17 11 3
f 17 3 6
f 20 9 5
f 20 18 9
f 20 15 18
f 21 16 5
f 21 5 10
f 21 10 16
f 22 5 16
f 22 20 5
f 22 15 20
f 23 15 11
f 23 11 17
f 23 17 6
f 24 12 2
f 25 2 9
f 25 9 18
f 25 24 2
f 25 18 24
f 26 15 19
f 27 6 14
f 27 26 19
f 27 14 26
f 27 23 6
f 27 19 15
f 27 15 23
f 28 11 15
f 28 15 22
f 28 22 4
f 28 4 11
f 29 22 16
f 29 16 4
f 29 4 22
f 30 8 12
f 30 12 24
f 30 26 14
f 30 14 8
f 31 24 18
f 31 18 15
f 31 15 26
f 31 30 24
f 31 26 30

