# https://github.com/mikedh/trimesh
v 0.03613295 0.12701213 0.01394750
v 0.03596857 0.12911126 0.01498432
v 0.03664106 0.12872724 0.02066433
v -0.01967048 0.13821490 0.02061920
v -0.01186399 0.12905668 0.01272665
v 0.01975853 0.13855274 0.01903777
v 0.03577184 0.13365676 0.01745542
v 0.01199763 0.12905140 0.01266182
v -0.04453354 0.12832511 0.02146335
v 0.01977624 0.13816400 0.02075517
v -0.00388940 0.13889678 0.01767368
v 0.03058609 0.13149153 0.01555781
v -0.01193144 0.12685285 0.01168532
v -0.04362516 0.13127640 0.01749651
v 0.03601603 0.13449576 0.02084678
v 0.00396237 0.13899163 0.01775339
v -0.01189804 0.13434297 0.01534390
v 0.01206976 0.12689016 0.01161957
v -0.03597481 0.12691051 0.01430500
v -0.04394472 0.13202785 0.02093506
v -0.01967521 0.13851319 0.01891821
v 0.03298206 0.13583591 0.01908806
v 0.01460813 0.13427182 0.01545967
v -0.04422608 0.12747091 0.01575590
v -0.02782969 0.13162062 0.01551905
v -0.02766993 0.13624253 0.01794717
v -0.03284533 0.13559419 0.02053095
v 0.02773910 0.13603913 0.01779599
v 0.03290141 0.13549928 0.02059113
v -0.03585724 0.12909573 0.01531734
v -0.03831321 0.13344402 0.01789351
v -0.03277276 0.13577693 0.01874538
v -0.04344092 0.13305214 0.01953458
v -0.04347614 0.13285696 0.01909566
v -0.04083444 0.13319336 0.02073020
f 7 1 2
f 7 3 1
f 9 1 3
f 10 4 9
f 12 2 1
f 12 7 2
f 15 3 7
f 15 10 9
f 15 9 3
f 16 10 6
f 16 8 11
f 16 4 10
f 17 11 8
f 17 8 5
f 18 12 1
f 18 8 12
f 18 1 13
f 18 13 5
f 18 5 8
f 19 13 1
f 19 1 9
f 20 9 4
f 21 16 11
f 21 4 16
f 22 15 7
f 22 6 10
f 23 12 8
f 23 8 16
f 24 19 9
f 24 20 14
f 24 9 20
f 25 5 13
f 25 13 19
f 25 17 5
f 26 21 11
f 26 11 17
f 26 17 25
f 27 20 4
f 27 4 21
f 28 22 7
f 28 6 22
f 28 7 12
f 28 12 23
f 28 23 16
f 28 16 6
f 29 22 10
f 29 10 15
f 29 15 22
f 30 24 14
f 30 19 24
f 30 25 19
f 30 14 25
f 31 26 25
f 31 25 14
f 32 27 21
f 32 21 26
f 32 26 31
f 33 27 32
f 34 31 14
f 34 14 20
f 34 20 33
f 34 33 32
f 34 32 31
f 35 33 20
f 35 20 27
f 35 27 33

