# https://github.com/mikedh/trimesh
v -0.06593491 -0.05251682 0.00339557
v -0.06593194 -0.05252099 0.00037597
v -0.06593259 0.06597341 0.00039324
v -0.07135362 0.06600647 0.00389182
v -0.09289317 -0.03097699 0.00395660
v -0.06595096 0.06598972 0.00340225
v -0.08216604 -0.05255854 0.00364153
v -0.09281044 0.02827130 0.00040262
v -0.09283466 -0.03095463 0.00047233
v -0.09290475 0.02828812 0.00390927
v -0.07128890 0.06595019 0.00042210
v -0.08207427 -0.05252709 0.00045796
v -0.08208287 0.04981534 0.00040908
v -0.08213336 0.04984669 0.00383274
f 1 2 3
f 5 1 4
f 6 1 3
f 6 3 4
f 6 4 1
f 7 2 1
f 7 1 5
f 8 3 2
f 9 7 5
f 9 8 2
f 10 5 4
f 10 9 5
f 10 8 9
f 11 4 3
f 12 9 2
f 12 2 7
f 12 7 9
f 13 11 3
f 13 3 8
f 13 8 10
f 13 4 11
f 14 13 10
f 14 10 4
f 14 4 13

