# https://github.com/mikedh/trimesh
v 0.11845674 0.07319047 0.02088879
v 0.11865960 0.07313450 0.01864806
v 0.09041766 0.10622850 0.01912778
v 0.05960517 0.12582358 0.02078159
v 0.06063512 0.06867009 0.00034947
v 0.09029412 0.10599602 0.02077304
v 0.10621881 0.09034263 0.01894561
v 0.09465713 0.06798655 0.00666641
v 0.06064806 0.06868678 0.00328092
v 0.06004144 0.09447454 0.00434870
v 0.07216305 0.11930707 0.02045769
v 0.11428183 0.08014643 0.01906857
v 0.10610259 0.09029626 0.02063412
v 0.11018452 0.07828133 0.01562804
v 0.10754658 0.07484764 0.01995529
v 0.09619880 0.06904687 0.01354649
v 0.07882751 0.06811798 0.00145069
v 0.06019021 0.08418832 0.00116747
v 0.08021259 0.11422140 0.01922336
v 0.08007884 0.11400846 0.02067932
v 0.11753918 0.07522349 0.01899895
v 0.11410462 0.07998118 0.02078540
v 0.11619969 0.07340127 0.01689332
v 0.08886864 0.10200554 0.01572960
v 0.06138376 0.11578454 0.01966098
v 0.07047489 0.08906328 0.00498308
v 0.05994116 0.12392946 0.01709068
v 0.11736517 0.07517679 0.02075567
v 0.11468250 0.07778364 0.01770965
v 0.08842957 0.10690230 0.01801459
v 0.09946365 0.09148729 0.01569669
v 0.06526269 0.08384928 0.00203607
v 0.06779684 0.10488495 0.01015648
v 0.08639049 0.07306472 0.00498786
v 0.05969005 0.12591517 0.01869161
v 0.10925254 0.08528931 0.01777707
v 0.07788581 0.11465846 0.01794944
v 0.08102823 0.10213148 0.01296887
v 0.06251675 0.09436583 0.00486319
v 0.06005128 0.10801959 0.00946514
v 0.07857468 0.07056548 0.00193086
v 0.09961842 0.08368077 0.01293181
v 0.06180699 0.12512343 0.01918877
v 0.06984440 0.11975157 0.01795739
v 0.07824446 0.11004158 0.01567234
v 0.07585792 0.09952357 0.01034290
v 0.06501469 0.11290872 0.01283462
v 0.06251945 0.10773106 0.00994102
v 0.09699404 0.07838880 0.01029067
v 0.06173540 0.12485728 0.02061480
v 0.07222408 0.11939035 0.01924958
v 0.06443762 0.12248171 0.01779996
v 0.07025480 0.11539094 0.01564599
v 0.09446055 0.07048589 0.00724829
f 6 4 1
f 8 2 1
f 13 12 7
f 13 7 3
f 13 3 6
f 15 1 4
f 16 9 8
f 16 8 1
f 16 15 9
f 16 1 15
f 17 9 5
f 17 8 9
f 18 9 4
f 18 4 10
f 18 5 9
f 18 17 5
f 19 6 3
f 20 11 4
f 20 4 6
f 20 19 11
f 20 6 19
f 21 1 2
f 21 2 12
f 22 13 6
f 22 6 1
f 22 12 13
f 23 2 8
f 23 8 14
f 25 15 4
f 25 4 9
f 25 9 15
f 28 21 12
f 28 12 22
f 28 22 1
f 28 1 21
f 29 12 2
f 29 2 23
f 29 23 14
f 30 3 7
f 30 19 3
f 31 24 30
f 32 18 10
f 32 17 18
f 34 8 17
f 35 10 4
f 36 7 12
f 36 12 29
f 36 29 14
f 36 14 31
f 36 31 30
f 36 30 7
f 37 19 30
f 38 24 31
f 39 32 10
f 39 26 32
f 39 33 26
f 40 35 27
f 40 10 35
f 40 39 10
f 41 32 26
f 41 26 34
f 41 34 17
f 41 17 32
f 42 31 14
f 42 38 31
f 43 35 4
f 44 35 43
f 45 37 30
f 45 30 24
f 45 24 38
f 46 26 33
f 46 33 38
f 46 42 26
f 46 38 42
f 47 40 27
f 47 45 38
f 47 38 33
f 48 33 39
f 48 39 40
f 48 47 33
f 48 40 47
f 49 42 14
f 49 14 8
f 49 34 26
f 49 26 42
f 50 43 4
f 50 4 11
f 50 11 43
f 51 43 11
f 51 11 19
f 51 44 43
f 51 19 37
f 51 37 44
f 52 44 27
f 52 27 35
f 52 35 44
f 53 44 37
f 53 37 45
f 53 45 47
f 53 47 27
f 53 27 44
f 54 49 8
f 54 8 34
f 54 34 49

