# https://github.com/mikedh/trimesh
v 0.03296004 -0.13586295 0.01845626
v 0.05196180 -0.12900245 0.01714298
v 0.05282834 -0.10960361 0.01364981
v 0.00406222 -0.10865555 0.00250099
v 0.02527714 -0.13416214 0.01547238
v 0.05235038 -0.10862711 0.00778673
v 0.00408524 -0.12802501 0.01732904
v 0.03034143 -0.13588257 0.01719471
v 0.05303679 -0.12367446 0.02037723
v 0.04675884 -0.10803331 0.00649522
v 0.00410516 -0.10984044 0.00768668
v 0.00406277 -0.12729935 0.01075920
v 0.03587180 -0.13153222 0.01542033
v 0.04090227 -0.13299160 0.01720030
v 0.02262524 -0.13713030 0.02101234
v 0.05309769 -0.11283139 0.01519947
v 0.02801277 -0.11033726 0.00477887
v 0.05190843 -0.12096608 0.01294530
v 0.00402435 -0.11317751 0.00437247
v 0.02809845 -0.10803921 0.00382985
v 0.04348836 -0.13286607 0.01930313
v 0.05185918 -0.12616551 0.01541550
v 0.02268499 -0.13718728 0.01698528
v 0.02316053 -0.13181263 0.02039083
v 0.01728595 -0.11840088 0.00730419
v 0.05200211 -0.11325146 0.00962877
v 0.03332783 -0.12095153 0.01009194
v 0.00404144 -0.12403289 0.00921973
v 0.04340738 -0.13283341 0.01828819
v 0.03285461 -0.13547219 0.02029989
v 0.05187076 -0.12884034 0.02090461
v 0.04881196 -0.13027192 0.01721894
v 0.04389552 -0.12360768 0.01284333
v 0.02260662 -0.13428057 0.01525685
v 0.01200424 -0.11308054 0.00462932
v 0.04660737 -0.11031864 0.00744769
v 0.04876091 -0.13028046 0.02060137
f 9 2 6
f 9 3 7
f 10 3 6
f 11 7 3
f 11 3 10
f 13 8 5
f 14 1 8
f 14 8 13
f 16 9 6
f 16 6 3
f 16 3 9
f 19 11 4
f 19 7 11
f 20 11 10
f 20 4 11
f 20 10 17
f 22 14 13
f 22 18 6
f 22 6 2
f 23 8 1
f 23 1 15
f 23 5 8
f 23 15 7
f 23 7 12
f 24 15 9
f 24 9 7
f 24 7 15
f 26 10 6
f 26 6 18
f 27 25 17
f 27 13 5
f 28 12 7
f 28 7 19
f 28 25 12
f 29 2 21
f 29 21 1
f 29 1 14
f 30 15 1
f 30 1 21
f 31 21 2
f 31 2 9
f 31 9 15
f 31 15 30
f 32 22 2
f 32 14 22
f 32 29 14
f 32 2 29
f 33 22 13
f 33 18 22
f 33 13 27
f 34 23 12
f 34 5 23
f 34 12 25
f 34 27 5
f 34 25 27
f 35 20 17
f 35 17 25
f 35 4 20
f 35 19 4
f 35 28 19
f 35 25 28
f 36 26 18
f 36 10 26
f 36 18 33
f 36 33 27
f 36 27 17
f 36 17 10
f 37 31 30
f 37 30 21
f 37 21 31

