# https://github.com/mikedh/trimesh
v -0.05732538 -0.12673469 0.02094866
v -0.05218448 -0.12193155 0.01347314
v -0.05247649 -0.07405709 0.00336627
v -0.06638053 -0.07458873 0.00416379
v -0.06490650 -0.12331988 0.01731778
v -0.05199546 -0.09212068 0.00146934
v -0.06660670 -0.11560674 0.01988558
v -0.05254466 -0.12271830 0.01980792
v -0.05724992 -0.12662424 0.01703981
v -0.06591322 -0.07402151 0.00047754
v -0.06504350 -0.10766345 0.01028933
v -0.06476518 -0.12306546 0.02095662
v -0.05556647 -0.12345868 0.02064172
v -0.05190122 -0.11330220 0.00957474
v -0.05708288 -0.11828254 0.01285360
v -0.06182208 -0.12498523 0.01735122
v -0.06067801 -0.07423234 0.00349696
v -0.05247140 -0.07406168 0.00033810
v -0.06517656 -0.08395971 0.00179468
v -0.05188459 -0.09990134 0.00416076
v -0.05195006 -0.11868185 0.01194601
v -0.06235273 -0.11560294 0.01291156
v -0.06193500 -0.12502579 0.02046182
v -0.05448717 -0.11308706 0.01001865
v -0.05979594 -0.08912719 0.00205671
v -0.05446647 -0.09975497 0.00465731
v -0.05461895 -0.09200474 0.00188086
v -0.05973388 -0.09701225 0.00482491
f 7 3 4
f 9 8 1
f 9 2 8
f 10 7 4
f 11 5 7
f 11 7 10
f 12 7 5
f 13 1 8
f 13 12 1
f 13 7 12
f 13 8 3
f 13 3 7
f 15 2 9
f 16 9 1
f 16 15 9
f 16 5 15
f 17 10 4
f 17 4 3
f 17 3 10
f 18 10 3
f 18 3 6
f 18 6 10
f 19 11 10
f 19 10 6
f 20 6 3
f 20 3 14
f 21 14 3
f 21 3 8
f 21 8 2
f 21 2 15
f 22 15 5
f 22 5 11
f 23 12 5
f 23 5 16
f 23 16 1
f 23 1 12
f 24 20 14
f 24 22 11
f 24 15 22
f 24 21 15
f 24 14 21
f 25 19 6
f 26 24 11
f 26 20 24
f 27 25 6
f 27 6 20
f 27 20 26
f 28 11 19
f 28 19 25
f 28 26 11
f 28 27 26
f 28 25 27

