# https://github.com/mikedh/trimesh
v 0.13124995 0.04644437 0.02091471
v 0.13154143 0.04644108 0.01849965
v 0.11952412 0.07209869 0.01894248
v 0.09650719 0.07467561 0.01538750
v 0.09066437 0.04735301 0.00562017
v 0.10754658 0.07484764 0.01995529
v 0.13017232 0.05131825 0.01964677
v 0.09997009 0.04663988 0.00398849
v 0.11931136 0.07204804 0.02074162
v 0.09505765 0.07364866 0.00830497
v 0.12365836 0.04756042 0.02023227
v 0.12786340 0.05403932 0.01773044
v 0.10782328 0.04652444 0.00717832
v 0.11774312 0.07269236 0.01741583
v 0.12756125 0.05663876 0.02045321
v 0.08418957 0.06014067 0.00130157
v 0.12995552 0.05121497 0.01893451
v 0.12955177 0.04672026 0.01697623
v 0.10767945 0.06244658 0.01026561
v 0.10771651 0.07304745 0.01297413
v 0.11990548 0.06976450 0.01770778
v 0.13057500 0.04889498 0.02073799
v 0.09289752 0.04709722 0.00156445
v 0.08603418 0.06958065 0.00935241
v 0.11567526 0.05980716 0.01294856
v 0.09172230 0.06513152 0.00483710
v 0.08460477 0.05502849 0.00075752
v 0.08616289 0.05601309 0.00590569
v 0.08433198 0.06824415 0.00306361
v 0.09971726 0.05181200 0.00487344
v 0.12355705 0.05448751 0.01548567
v 0.11553006 0.07027439 0.01557961
v 0.09980552 0.07318773 0.00993921
v 0.08652844 0.05993483 0.00188959
v 0.08690086 0.05481212 0.00113708
v 0.08913493 0.06784171 0.00458718
v 0.10236386 0.05982029 0.00760200
f 7 1 2
f 8 1 5
f 9 6 1
f 10 4 6
f 11 5 1
f 11 1 6
f 11 6 4
f 11 4 5
f 13 2 1
f 13 1 8
f 14 9 3
f 14 6 9
f 15 7 3
f 15 3 9
f 17 7 2
f 17 2 12
f 17 12 3
f 17 3 7
f 18 12 2
f 18 2 13
f 20 10 6
f 20 6 14
f 21 14 3
f 21 3 12
f 22 15 9
f 22 9 1
f 22 1 7
f 22 7 15
f 23 8 5
f 24 4 10
f 25 19 20
f 27 23 5
f 28 5 4
f 28 4 24
f 28 27 5
f 28 24 16
f 28 16 27
f 29 24 10
f 29 16 24
f 30 25 13
f 30 13 8
f 30 19 25
f 30 8 23
f 31 18 13
f 31 13 25
f 31 12 18
f 31 21 12
f 32 14 21
f 32 31 25
f 32 21 31
f 32 25 20
f 32 20 14
f 33 20 19
f 33 19 26
f 33 10 20
f 34 16 29
f 34 30 23
f 34 26 30
f 35 27 16
f 35 23 27
f 35 34 23
f 35 16 34
f 36 29 10
f 36 34 29
f 36 26 34
f 36 33 26
f 36 10 33
f 37 30 26
f 37 26 19
f 37 19 30

