# https://github.com/mikedh/trimesh
v 0.00404086 0.10289283 0.00111512
v 0.00402505 0.10508059 0.00185374
v 0.00409436 0.12007060 0.01433790
v -0.04472447 0.12057945 0.01855817
v -0.04425159 0.10335427 0.00482633
v 0.00406310 0.11932522 0.00792813
v -0.04462335 0.10419433 0.01104345
v -0.00667284 0.10287682 0.00107866
v -0.03941570 0.12094527 0.01778025
v 0.00414920 0.10505617 0.00677907
v -0.04484620 0.10743651 0.01263203
v -0.03861974 0.10275176 0.00358424
v -0.00665540 0.10506220 0.00183523
v -0.04399222 0.11879983 0.01168745
v 0.00414630 0.11565503 0.01225425
v -0.04492075 0.11832041 0.01758751
v 0.00403988 0.11607498 0.00651184
v -0.03050680 0.10763673 0.00456397
v -0.04389686 0.10790204 0.00673140
v -0.03849481 0.10501128 0.00451448
v -0.02247959 0.11559606 0.00730501
v -0.03583382 0.11822757 0.01017957
v -0.04373564 0.11556480 0.01015131
v -0.01991605 0.11025981 0.00468082
f 6 1 2
f 8 2 1
f 9 4 3
f 9 3 6
f 10 1 6
f 10 7 1
f 11 5 7
f 12 7 5
f 12 8 1
f 12 1 7
f 13 2 8
f 14 9 6
f 14 4 9
f 15 10 6
f 15 6 3
f 15 7 10
f 15 11 7
f 15 3 11
f 16 11 3
f 16 3 4
f 16 5 11
f 16 14 5
f 16 4 14
f 17 13 6
f 17 6 2
f 17 2 13
f 18 13 8
f 18 8 12
f 19 5 14
f 20 18 12
f 20 12 5
f 20 5 19
f 22 18 20
f 22 21 18
f 22 14 6
f 22 6 21
f 23 20 19
f 23 19 14
f 23 22 20
f 23 14 22
f 24 21 6
f 24 6 13
f 24 13 18
f 24 18 21

