# https://github.com/mikedh/trimesh
v 0.00408524 -0.12802501 0.01732904
v 0.00406277 -0.12729935 0.01075920
v 0.00406222 -0.10865555 0.00250099
v -0.02799089 -0.10803717 0.00377935
v -0.02834509 -0.12846234 0.01912277
v -0.01191242 -0.11309391 0.00465867
v 0.00410516 -0.10984044 0.00768668
v -0.01218524 -0.12906053 0.01809229
v -0.02794737 -0.12665694 0.01206336
v 0.00402435 -0.11317751 0.00437247
v -0.02855190 -0.11028877 0.00957591
v 0.00412191 -0.11319782 0.00920007
v -0.02249950 -0.12365799 0.01010944
v 0.00404144 -0.12403289 0.00921973
v -0.02848338 -0.12637785 0.01805134
v -0.02789517 -0.11036720 0.00473882
f 6 4 3
f 7 3 4
f 8 2 1
f 8 1 5
f 9 8 5
f 9 2 8
f 10 6 3
f 11 1 7
f 11 7 4
f 11 4 9
f 12 7 1
f 12 1 2
f 12 2 3
f 12 3 7
f 13 6 2
f 13 2 9
f 14 10 3
f 14 3 2
f 14 2 6
f 14 6 10
f 15 5 1
f 15 1 11
f 15 11 9
f 15 9 5
f 16 13 9
f 16 9 4
f 16 4 6
f 16 6 13

