# https://github.com/mikedh/trimesh
v 0.08551991 0.04750789 0.00416838
v 0.08486421 0.04711830 0.00039130
v 0.08433198 0.06824415 0.00306361
v 0.06064806 0.06868678 0.00328092
v 0.06063889 0.04712952 0.00324641
v 0.06063512 0.06867009 0.00034947
v 0.08514755 0.06886598 0.00876251
v 0.08581303 0.06115941 0.00695151
v 0.08244925 0.04728454 0.00353974
v 0.08124366 0.06786397 0.00202314
v 0.06063690 0.04712452 0.00028284
v 0.08028911 0.06936324 0.00709479
v 0.08381204 0.06519509 0.00216526
v 0.06927580 0.06925816 0.00384574
f 6 5 4
f 7 5 1
f 7 4 5
f 8 1 2
f 8 2 3
f 8 7 1
f 8 3 7
f 9 5 2
f 9 2 1
f 9 1 5
f 10 6 3
f 10 2 6
f 11 6 2
f 11 2 5
f 11 5 6
f 12 4 7
f 12 7 3
f 13 10 3
f 13 3 2
f 13 2 10
f 14 6 4
f 14 4 12
f 14 12 3
f 14 3 6

