# https://github.com/mikedh/trimesh
v 0.06108250 0.11796223 0.02039261
v 0.06034536 0.11656702 0.01335141
v 0.05658176 0.12764746 0.01914636
v 0.03601603 0.13449576 0.02084678
v 0.03098458 0.11970758 0.00970940
v 0.05960517 0.12582358 0.02078159
v 0.03612502 0.11626617 0.00871046
v 0.03140889 0.12147000 0.01682486
v 0.03577184 0.13365676 0.01745542
v 0.05132838 0.13012889 0.01977313
v 0.05933414 0.12519035 0.01777193
v 0.05476693 0.11606386 0.01181423
v 0.03104958 0.12806461 0.01988794
v 0.03665139 0.11790858 0.01587240
v 0.04124220 0.12345972 0.01286949
v 0.04083404 0.13316711 0.02069102
v 0.04350541 0.13301609 0.01963520
v 0.05404269 0.12789321 0.01802180
v 0.03394063 0.12883198 0.02043572
v 0.03085977 0.12727130 0.01342323
v 0.03073392 0.12406443 0.01181687
v 0.03879218 0.11614036 0.00901136
v 0.03598635 0.11844325 0.00966874
v 0.05657068 0.12736820 0.02053912
v 0.03838204 0.13334770 0.01780332
v 0.04335040 0.13276099 0.01889238
v 0.04911500 0.12602485 0.01562204
v 0.04921598 0.12078355 0.01293355
v 0.03863624 0.11829728 0.00997430
v 0.05125088 0.13000785 0.01933493
v 0.05978200 0.12080283 0.01532424
v 0.05453105 0.11821299 0.01279476
f 6 4 1
f 10 6 3
f 11 6 1
f 11 1 2
f 11 3 6
f 12 2 1
f 13 8 1
f 14 1 8
f 14 12 1
f 14 8 5
f 14 5 7
f 16 4 6
f 17 16 10
f 17 4 16
f 18 3 11
f 19 13 1
f 19 1 4
f 19 4 13
f 20 13 4
f 20 4 9
f 20 9 15
f 21 5 8
f 21 8 13
f 21 13 20
f 22 14 7
f 22 12 14
f 23 7 5
f 23 5 21
f 23 21 20
f 23 20 15
f 23 22 7
f 24 16 6
f 24 6 10
f 24 10 16
f 25 9 4
f 25 4 17
f 26 25 17
f 26 18 25
f 27 25 18
f 27 15 9
f 27 9 25
f 27 18 11
f 28 12 22
f 28 15 27
f 29 23 15
f 29 22 23
f 29 28 22
f 29 15 28
f 30 26 17
f 30 17 10
f 30 10 3
f 30 3 18
f 30 18 26
f 31 27 11
f 31 11 2
f 32 28 27
f 32 27 31
f 32 12 28
f 32 31 2
f 32 2 12

