# https://github.com/mikedh/trimesh
v 0.06391860 -0.09375067 0.01004180
v 0.06416455 -0.09140931 0.00916818
v 0.02294075 -0.08483217 0.00330556
v 0.06392310 -0.08566465 0.00694649
v 0.05463094 -0.09190386 0.00199770
v 0.06281857 -0.09209008 0.00372017
v 0.02294880 -0.09293959 0.00339871
v 0.06287967 -0.08419042 0.00139234
v 0.03397160 -0.09356653 0.00408913
v 0.06266381 -0.08658907 0.00194664
v 0.02292331 -0.09287760 0.00020300
v 0.06136521 -0.09394574 0.00940799
v 0.02294148 -0.08484090 0.00018345
f 1 2 3
f 3 2 4
f 6 2 1
f 7 1 3
f 8 3 4
f 8 4 2
f 8 2 6
f 10 8 6
f 10 6 5
f 10 5 8
f 11 7 3
f 11 8 5
f 11 9 7
f 11 5 6
f 12 6 1
f 12 1 7
f 12 7 9
f 12 11 6
f 12 9 11
f 13 11 3
f 13 3 8
f 13 8 11

