# https://github.com/mikedh/trimesh
v -0.04425159 0.10335427 0.00482633
v -0.04389686 0.10790204 0.00673140
v -0.04507844 0.10519601 0.01161363
v -0.04394472 0.13202785 0.02093506
v -0.06457467 0.12260810 0.01807734
v -0.05707915 0.11021344 0.01032929
v -0.04362516 0.13127640 0.01749651
v -0.06657839 0.11283627 0.01997273
v -0.05124407 0.13018897 0.01964899
v -0.05933596 0.12539760 0.01804007
v -0.04645489 0.12630040 0.01559127
v -0.04486374 0.12364991 0.01993507
v -0.06536307 0.10273628 0.00911030
v -0.04619059 0.13090741 0.01794706
v -0.06468312 0.12292889 0.02094018
v -0.06172182 0.12528438 0.01935945
v -0.04384944 0.12644423 0.01519503
v -0.06626000 0.10423598 0.01623965
v -0.06511833 0.10502716 0.00998378
v -0.05461258 0.10259137 0.00660378
v -0.05113185 0.13003706 0.01928881
v -0.05642206 0.12749209 0.02048399
v -0.06656715 0.10743179 0.01768741
v -0.04506576 0.11062628 0.01417472
v -0.05442462 0.10493215 0.00753640
v -0.04868692 0.13038570 0.02092663
v -0.06157418 0.12477129 0.02072122
f 1 2 3
f 3 2 4
f 6 2 1
f 7 4 2
f 10 6 5
f 11 2 6
f 11 10 7
f 11 6 10
f 12 3 4
f 12 4 8
f 13 8 5
f 14 9 4
f 14 4 7
f 14 7 10
f 15 8 4
f 15 5 8
f 16 10 5
f 16 5 15
f 17 11 7
f 17 7 2
f 17 2 11
f 19 13 5
f 19 5 6
f 20 18 13
f 20 1 3
f 20 3 18
f 20 19 6
f 20 13 19
f 21 14 10
f 21 9 14
f 21 16 9
f 21 10 16
f 22 9 16
f 23 18 12
f 23 12 8
f 23 8 13
f 23 13 18
f 24 18 3
f 24 3 12
f 24 12 18
f 25 20 6
f 25 6 1
f 25 1 20
f 26 15 4
f 26 4 9
f 26 9 22
f 27 22 16
f 27 16 15
f 27 26 22
f 27 15 26

