# https://github.com/mikedh/trimesh
v 0.03641051 0.08485342 0.00323979
v 0.04679119 0.09220812 0.00116652
v 0.04732991 0.10400225 0.01142508
v 0.03680503 0.10488543 0.00980602
v 0.03070863 0.10009527 0.00139144
v 0.03101636 0.08483578 0.00322315
v 0.04772952 0.09389330 0.00693191
v 0.04658765 0.10247215 0.00458270
v 0.03085452 0.10306748 0.00792908
v 0.03101168 0.08483773 0.00028905
v 0.03598618 0.09995264 0.00194902
v 0.04784848 0.09958308 0.00944401
v 0.03090797 0.10325179 0.00252657
v 0.03638976 0.08483381 0.00031096
v 0.04665120 0.09464398 0.00182943
f 6 1 3
f 6 3 4
f 7 1 2
f 7 3 1
f 8 4 3
f 9 6 4
f 9 5 6
f 10 6 5
f 11 2 5
f 12 7 2
f 12 2 8
f 12 8 3
f 12 3 7
f 13 4 8
f 13 9 4
f 13 5 9
f 13 11 5
f 13 8 11
f 14 10 5
f 14 5 2
f 14 2 1
f 14 1 6
f 14 6 10
f 15 11 8
f 15 8 2
f 15 2 11

