# https://github.com/mikedh/trimesh
v -0.11015715 -0.02041508 0.00987010
v -0.10811923 -0.02006215 0.00356836
v -0.10966175 0.02845013 0.01078372
v -0.13663852 0.02781662 0.02091826
v -0.13852809 -0.01976124 0.01864856
v -0.10874790 0.02819633 0.00471190
v -0.13157367 -0.02038385 0.02031353
v -0.10806219 0.02002374 0.00362710
v -0.12902679 0.02852755 0.02006780
v -0.13762555 -0.02002067 0.02110680
v -0.13723651 -0.02001131 0.01730742
v -0.13430134 0.01456421 0.01540174
v -0.13620580 0.02773541 0.01765398
v -0.11291010 0.02858976 0.01235394
v -0.13817518 0.01986053 0.02088503
v -0.13857471 -0.01980261 0.01940333
v -0.12091322 0.02788881 0.01010158
v -0.11837721 -0.00397165 0.00729556
v -0.13884589 0.00924470 0.01770111
v -0.13850787 0.01978843 0.01873308
v -0.13828470 -0.01710397 0.02088630
v -0.11561349 0.02519933 0.00738233
v -0.12361203 0.01192702 0.00999749
v -0.12357989 -0.01454382 0.01003965
v -0.13893350 -0.00926954 0.01775161
v -0.13433519 -0.01454238 0.01535866
v -0.11324856 0.02796513 0.00664965
v -0.11033332 0.01996323 0.00458405
v -0.12892040 0.01456909 0.01276383
v -0.11040248 -0.02001141 0.00450463
v -0.11835035 0.00395091 0.00731941
f 1 2 3
f 7 1 3
f 8 6 3
f 8 3 2
f 10 9 4
f 10 7 9
f 11 2 1
f 11 1 7
f 11 7 10
f 13 9 6
f 13 4 9
f 14 3 6
f 14 6 9
f 14 9 7
f 14 7 3
f 15 10 4
f 16 11 10
f 16 5 11
f 17 13 6
f 17 12 13
f 18 8 2
f 19 13 12
f 20 15 4
f 20 4 13
f 20 19 15
f 20 13 19
f 21 16 10
f 21 10 15
f 23 18 12
f 23 17 22
f 25 11 5
f 25 5 16
f 25 16 21
f 25 21 15
f 25 15 19
f 26 19 12
f 26 12 18
f 26 25 19
f 26 18 24
f 26 24 11
f 26 11 25
f 27 22 17
f 27 17 6
f 27 6 22
f 28 22 6
f 28 6 8
f 28 23 22
f 29 23 12
f 29 12 17
f 29 17 23
f 30 24 18
f 30 18 2
f 30 2 11
f 30 11 24
f 31 28 8
f 31 8 18
f 31 18 23
f 31 23 28

