# https://github.com/mikedh/trimesh
v -0.06476518 -0.12306546 0.02095662
v -0.06490650 -0.12331988 0.01731778
v -0.06593143 -0.06597709 0.00037116
v -0.10667410 -0.06619592 0.01665329
v -0.11460158 -0.08030516 0.01851361
v -0.06593476 -0.06598285 0.00340082
v -0.06516149 -0.09188271 0.00431567
v -0.08802292 -0.10891759 0.01880338
v -0.11503796 -0.07801792 0.02096763
v -0.10529546 -0.06531524 0.00955437
v -0.06660670 -0.11560674 0.01988558
v -0.06541897 -0.08158141 0.00130950
v -0.07738165 -0.11677765 0.01928155
v -0.08364012 -0.10751384 0.01558130
v -0.09041894 -0.10611093 0.02046531
v -0.08143527 -0.06546232 0.00137321
v -0.11575809 -0.07860130 0.01860480
v -0.10488066 -0.08033275 0.01972355
v -0.08006217 -0.11418822 0.01762265
v -0.06701813 -0.12227740 0.02053813
v -0.06516302 -0.11847737 0.01493465
v -0.10108479 -0.09591561 0.01766755
v -0.08789147 -0.10895931 0.01928842
v -0.10358508 -0.09319770 0.02044086
v -0.08888731 -0.08897098 0.01037651
v -0.11184207 -0.08281067 0.01745457
v -0.11405229 -0.07998617 0.02048126
v -0.10734009 -0.06932640 0.01770580
v -0.07731664 -0.11681092 0.01857410
v -0.08002319 -0.11419409 0.02053215
v -0.07308645 -0.10228113 0.01026561
v -0.07294590 -0.11549870 0.01574858
v -0.09317462 -0.10380071 0.01773872
v -0.10880622 -0.08793205 0.01855700
v -0.06801769 -0.08147828 0.00179560
v -0.08897789 -0.07043148 0.00487798
v -0.10747732 -0.08361656 0.01577266
v -0.07204047 -0.11943544 0.01752021
v -0.07214109 -0.11939956 0.02037660
v -0.08620990 -0.09158967 0.01037210
v -0.06767463 -0.11824798 0.01552324
v -0.10879923 -0.08786322 0.01938878
v -0.08134299 -0.06805988 0.00184945
v -0.10486844 -0.07837267 0.01302800
v -0.06703370 -0.12220433 0.01734224
v -0.06773139 -0.09169024 0.00491546
v -0.10497723 -0.06778799 0.01008087
f 7 1 2
f 7 6 1
f 10 4 6
f 11 6 4
f 11 1 6
f 12 3 6
f 12 6 7
f 15 1 9
f 16 10 6
f 16 6 3
f 16 3 12
f 17 9 4
f 17 4 10
f 18 9 1
f 18 1 11
f 20 2 1
f 21 7 2
f 23 8 13
f 24 15 9
f 24 23 15
f 24 22 8
f 24 8 23
f 26 17 10
f 26 5 17
f 27 17 5
f 27 9 17
f 27 24 9
f 28 18 11
f 28 11 4
f 28 4 9
f 28 9 18
f 29 13 8
f 29 8 19
f 29 20 13
f 30 23 13
f 30 15 23
f 30 1 15
f 31 7 21
f 32 19 14
f 32 31 21
f 32 14 31
f 33 19 8
f 33 8 22
f 33 14 19
f 34 22 24
f 34 26 22
f 34 5 26
f 35 16 12
f 35 12 7
f 36 10 16
f 36 35 25
f 37 25 22
f 37 22 26
f 38 29 19
f 38 19 32
f 39 30 13
f 39 13 20
f 39 20 1
f 39 1 30
f 40 25 35
f 40 31 14
f 40 14 33
f 40 33 22
f 40 22 25
f 41 32 21
f 42 27 5
f 42 5 34
f 42 34 24
f 42 24 27
f 43 36 16
f 43 16 35
f 43 35 36
f 44 37 26
f 44 36 25
f 44 25 37
f 45 29 38
f 45 2 20
f 45 20 29
f 45 38 32
f 45 32 41
f 45 41 21
f 45 21 2
f 46 7 31
f 46 31 40
f 46 40 35
f 46 35 7
f 47 44 26
f 47 26 10
f 47 10 36
f 47 36 44

