# https://github.com/mikedh/trimesh
v 0.06276221 -0.12406019 0.02094749
v 0.11860470 -0.07327559 0.01723571
v 0.11037502 -0.07486422 0.01982319
v 0.07366001 -0.07357761 0.00091149
v 0.08096061 -0.11018510 0.01548780
v 0.11832369 -0.07317136 0.02102587
v 0.06356026 -0.08245094 0.00579248
v 0.06265273 -0.10791973 0.00966382
v 0.09434512 -0.08365725 0.01034196
v 0.07617449 -0.07348563 0.00143885
v 0.07506452 -0.07503997 0.00639791
v 0.08793369 -0.10887772 0.01938700
v 0.06419768 -0.11601966 0.01938044
v 0.06267186 -0.12391494 0.01677580
v 0.06329202 -0.08477541 0.00159830
v 0.06281857 -0.09209008 0.00372017
v 0.10636668 -0.09030462 0.01731979
v 0.10790861 -0.07329368 0.01226400
v 0.06899928 -0.07710826 0.00541574
v 0.09042785 -0.10614839 0.02045411
v 0.06783926 -0.11305789 0.01292428
v 0.06252174 -0.12098132 0.01510181
v 0.07741939 -0.11675939 0.01848321
v 0.07350139 -0.07612794 0.00144541
v 0.08103977 -0.08900555 0.00765025
v 0.08902462 -0.09696353 0.01306769
v 0.09048479 -0.10617554 0.01741406
v 0.11684345 -0.07742460 0.01921765
v 0.08903320 -0.08101049 0.00765829
v 0.11016566 -0.08095425 0.01553723
v 0.08012398 -0.11423102 0.02046332
v 0.10903654 -0.08791143 0.01916672
v 0.06775615 -0.09961694 0.00764073
v 0.06506669 -0.12069703 0.01564621
v 0.06709138 -0.12221951 0.01718434
v 0.06787877 -0.09177097 0.00480421
v 0.08109035 -0.08100805 0.00501559
v 0.09701123 -0.08895141 0.01309071
v 0.08374632 -0.09428491 0.01030933
v 0.08796903 -0.10888605 0.01848536
v 0.11443960 -0.08019256 0.01755662
v 0.10768568 -0.07575028 0.01288244
v 0.07746900 -0.11670982 0.01940229
v 0.10623845 -0.09045379 0.02037790
v 0.07585272 -0.10773793 0.01292973
v 0.06522560 -0.10771602 0.01018149
v 0.08009900 -0.11422226 0.01734411
v 0.07593794 -0.07586589 0.00193629
v 0.10900035 -0.08794636 0.01849448
v 0.11685762 -0.07738596 0.01846599
v 0.11746047 -0.07522648 0.01726773
v 0.07221344 -0.11943119 0.02029838
v 0.06710428 -0.12221738 0.02047683
v 0.11427013 -0.08007203 0.02051037
v 0.07214230 -0.11933736 0.01718827
v 0.11733217 -0.07517283 0.02083741
f 6 3 1
f 10 4 6
f 11 6 4
f 11 3 6
f 13 7 1
f 13 1 3
f 13 3 7
f 15 7 4
f 16 1 7
f 16 7 15
f 18 10 6
f 18 6 2
f 19 7 3
f 19 3 11
f 19 11 4
f 19 4 7
f 20 6 1
f 22 14 1
f 22 8 21
f 22 16 8
f 22 1 16
f 24 15 4
f 24 4 10
f 27 26 17
f 27 5 26
f 28 2 6
f 29 10 18
f 31 20 1
f 31 12 20
f 33 8 16
f 34 22 21
f 34 21 5
f 34 14 22
f 35 1 14
f 35 14 34
f 36 16 15
f 36 33 16
f 37 29 25
f 37 25 36
f 38 17 26
f 38 30 17
f 39 38 26
f 39 9 38
f 39 29 9
f 39 25 29
f 39 26 5
f 39 36 25
f 40 32 12
f 41 17 30
f 42 18 30
f 42 29 18
f 42 9 29
f 42 38 9
f 42 30 38
f 43 12 31
f 43 40 12
f 43 23 40
f 44 20 12
f 44 12 32
f 44 6 20
f 45 5 21
f 45 21 33
f 45 39 5
f 45 33 36
f 45 36 39
f 46 33 21
f 46 21 8
f 46 8 33
f 47 40 23
f 47 27 40
f 47 5 27
f 48 36 15
f 48 15 24
f 48 37 36
f 48 24 10
f 48 10 29
f 48 29 37
f 49 40 27
f 49 27 17
f 49 32 40
f 49 17 41
f 49 28 32
f 50 2 28
f 50 49 41
f 50 28 49
f 51 41 30
f 51 50 41
f 51 2 50
f 51 30 18
f 51 18 2
f 52 43 31
f 52 31 1
f 53 35 23
f 53 23 43
f 53 43 52
f 53 52 1
f 53 1 35
f 54 44 32
f 54 32 28
f 55 47 23
f 55 23 35
f 55 35 34
f 55 34 5
f 55 5 47
f 56 54 28
f 56 28 6
f 56 6 44
f 56 44 54

