# https://github.com/mikedh/trimesh
v 0.10867319 -0.03354764 0.01031562
v 0.10787019 -0.03337912 0.00454003
v 0.10866112 0.03084912 0.01033094
v 0.09352843 0.03659893 0.00492364
v 0.09280329 -0.03363927 0.00034621
v 0.10260667 0.02268088 0.00188370
v 0.10165891 0.03659637 0.00798218
v 0.10200258 -0.03390316 0.00715753
v 0.10773988 0.03056990 0.00472146
v 0.09277646 0.03625986 0.00048607
v 0.10264194 -0.02538694 0.00192396
v 0.09365834 -0.03381763 0.00411585
v 0.09750446 0.03604958 0.00146684
v 0.09926754 0.03673058 0.00700401
v 0.10015128 -0.03344609 0.00172669
v 0.09981208 0.03324258 0.00187129
v 0.10057906 0.03619972 0.00255126
f 1 2 3
f 7 1 3
f 7 4 1
f 8 5 2
f 8 2 1
f 9 3 2
f 9 2 6
f 9 7 3
f 10 6 5
f 10 5 4
f 11 6 2
f 11 5 6
f 12 8 1
f 12 1 4
f 12 4 5
f 12 5 8
f 13 6 10
f 14 10 4
f 14 4 7
f 15 11 2
f 15 2 5
f 15 5 11
f 16 9 6
f 16 6 13
f 17 7 9
f 17 16 13
f 17 9 16
f 17 14 7
f 17 13 10
f 17 10 14

