# https://github.com/mikedh/trimesh
v 0.11541706 -0.06920954 0.02039730
v 0.13603879 -0.03300845 0.01862832
v 0.13159645 -0.02304867 0.02032760
v 0.10696968 -0.02299964 0.00831513
v 0.10546870 -0.05200835 0.00640313
v 0.13706660 -0.02263053 0.01734457
v 0.10762407 -0.06940055 0.01727814
v 0.12748539 -0.05647699 0.02062694
v 0.13721550 -0.02257375 0.02099932
v 0.10906197 -0.02288306 0.00417308
v 0.13309525 -0.04093921 0.01738978
v 0.12423959 -0.02317312 0.01686366
v 0.10607468 -0.06847578 0.01027788
v 0.10542840 -0.06542512 0.00932986
v 0.13543769 -0.03278778 0.02058638
v 0.12234865 -0.06696364 0.02064519
v 0.10624215 -0.03899613 0.00451954
v 0.11582236 -0.02266658 0.00706446
v 0.13597701 -0.03034717 0.01762936
v 0.13028515 -0.05133916 0.01834363
v 0.11822302 -0.05719230 0.01297792
v 0.12231119 -0.06706756 0.01729049
v 0.11564010 -0.02799959 0.00740245
v 0.13310485 -0.04347952 0.01856832
v 0.13025502 -0.05135961 0.01935119
v 0.11829484 -0.04125353 0.01010434
v 0.10770572 -0.06518703 0.01018602
v 0.12760629 -0.05654328 0.01752199
v 0.11302545 -0.03864418 0.00731011
v 0.13303624 -0.04346580 0.01941092
v 0.11557876 -0.04914849 0.01017867
v 0.12630468 -0.03064295 0.01283343
v 0.10779520 -0.05186266 0.00731312
v 0.11292781 -0.06778847 0.01301470
v 0.11035885 -0.04653431 0.00737807
f 7 1 3
f 9 2 6
f 9 3 1
f 9 4 3
f 12 7 3
f 12 3 4
f 12 4 7
f 13 1 7
f 14 7 4
f 14 4 5
f 14 13 7
f 15 9 8
f 15 2 9
f 16 9 1
f 16 8 9
f 17 5 4
f 17 4 10
f 18 9 6
f 18 10 4
f 18 4 9
f 19 6 2
f 19 2 11
f 22 16 1
f 22 1 13
f 22 20 16
f 23 10 18
f 23 18 6
f 24 20 11
f 24 11 2
f 25 8 16
f 25 16 20
f 25 20 24
f 27 14 5
f 27 13 14
f 28 22 21
f 28 11 20
f 28 20 22
f 29 17 10
f 29 10 23
f 29 23 26
f 30 24 2
f 30 2 15
f 30 25 24
f 30 15 8
f 30 8 25
f 31 26 11
f 31 28 21
f 31 11 28
f 32 19 11
f 32 11 26
f 32 6 19
f 32 26 23
f 32 23 6
f 33 27 5
f 33 21 27
f 33 31 21
f 34 22 13
f 34 13 27
f 34 27 21
f 34 21 22
f 35 29 26
f 35 26 31
f 35 31 33
f 35 17 29
f 35 33 5
f 35 5 17

