# https://github.com/mikedh/trimesh
v 0.06116020 0.07739910 0.00405778
v 0.06681760 0.08867238 0.00951790
v 0.04718130 0.07676421 0.00325510
v 0.03672772 0.09363919 0.00477511
v 0.06014894 0.09217000 0.00354464
v 0.06623097 0.09323763 0.01136735
v 0.06062855 0.07674576 0.00039323
v 0.03641051 0.08485342 0.00323979
v 0.05862460 0.09402037 0.00962472
v 0.06008787 0.08665282 0.00178784
v 0.05806723 0.07701498 0.00349408
v 0.03638976 0.08483381 0.00031096
v 0.03626235 0.09272767 0.00040197
v 0.04716645 0.07674743 0.00034498
v 0.05200347 0.09188839 0.00187847
v 0.05731152 0.08921102 0.00202413
f 1 2 3
f 6 3 2
f 6 2 5
f 7 2 1
f 8 6 4
f 8 3 6
f 9 6 5
f 9 4 6
f 10 5 2
f 10 2 7
f 11 7 1
f 11 1 3
f 11 3 7
f 12 3 8
f 13 9 5
f 13 4 9
f 13 10 7
f 13 7 12
f 13 12 8
f 13 8 4
f 14 12 7
f 14 7 3
f 14 3 12
f 15 13 5
f 15 10 13
f 16 15 5
f 16 5 10
f 16 10 15

