# https://github.com/mikedh/trimesh
v 0.06014894 0.09217000 0.00354464
v 0.06116786 0.09376269 0.01020133
v 0.04772952 0.09389330 0.00693191
v 0.04766411 0.11823933 0.01774349
v 0.05984251 0.11556969 0.01275699
v 0.04784522 0.11592017 0.01677430
v 0.06132033 0.11027202 0.01729831
v 0.04669061 0.10798284 0.00677503
v 0.06066353 0.11719395 0.02006990
v 0.05975050 0.11020031 0.01032272
v 0.04716414 0.09289452 0.00141626
v 0.04676049 0.10013057 0.00373529
v 0.04698111 0.11662774 0.01054720
v 0.05193600 0.09979406 0.00458723
v 0.04678836 0.11345963 0.00907026
v 0.05720059 0.09705189 0.00468328
v 0.05187079 0.10768928 0.00760758
v 0.05448410 0.11284923 0.01027806
v 0.06004144 0.09447454 0.00434870
f 1 2 3
f 6 3 2
f 6 2 4
f 6 4 3
f 7 2 1
f 7 1 5
f 7 4 2
f 9 7 5
f 9 4 7
f 10 5 1
f 11 1 3
f 12 3 4
f 12 4 8
f 12 11 3
f 12 1 11
f 13 9 5
f 13 4 9
f 14 1 12
f 15 8 4
f 15 4 13
f 16 1 14
f 17 14 12
f 17 12 8
f 17 16 14
f 17 10 16
f 17 8 15
f 18 15 13
f 18 13 5
f 18 5 10
f 18 17 15
f 18 10 17
f 19 16 10
f 19 10 1
f 19 1 16

