# https://github.com/mikedh/trimesh
v -0.01756446 -0.10965000 0.00817727
v -0.01735084 -0.10837646 0.00304561
v -0.01746999 -0.09295904 0.00323260
v -0.05199546 -0.09212068 0.00146934
v -0.04403458 -0.10822679 0.00606444
v -0.01745884 -0.09289883 0.00029301
v -0.05216588 -0.10311942 0.01062442
v -0.03391877 -0.11002714 0.01027142
v -0.03063522 -0.10254549 0.00190492
v -0.01736244 -0.10302740 0.00120471
v -0.04445161 -0.10922036 0.01181089
v -0.05301869 -0.09375796 0.00698960
v -0.05217990 -0.10309512 0.00547884
v -0.03584631 -0.10780528 0.00459328
v -0.04650885 -0.09708431 0.00203847
v -0.04377732 -0.10499435 0.00466985
v -0.05179408 -0.09445298 0.00213530
v -0.04914697 -0.10240833 0.00461184
v -0.05188459 -0.09990134 0.00416076
f 1 2 3
f 6 4 3
f 8 5 2
f 8 2 1
f 10 6 3
f 10 3 2
f 10 2 9
f 10 9 4
f 10 4 6
f 11 1 3
f 11 3 7
f 11 8 1
f 11 5 8
f 12 7 3
f 12 3 4
f 13 11 7
f 13 5 11
f 13 12 4
f 13 7 12
f 14 9 2
f 14 2 5
f 15 4 9
f 15 9 14
f 16 15 14
f 16 14 5
f 17 13 4
f 17 4 15
f 18 15 16
f 18 16 5
f 18 5 13
f 19 17 15
f 19 13 17
f 19 18 13
f 19 15 18

