# https://github.com/mikedh/trimesh
v -0.04462709 -0.12329400 0.01867621
v -0.04402587 -0.12144158 0.01169044
v -0.04463270 -0.10152447 0.00822108
v -0.05264328 -0.09857202 0.00873632
v -0.05262354 -0.12293612 0.01402819
v -0.04436225 -0.10361811 0.00420438
v -0.04386713 -0.11051849 0.00699483
v -0.05254466 -0.12271830 0.01980792
v -0.05004322 -0.09878427 0.00821126
v -0.05217990 -0.10309512 0.00547884
v -0.05172526 -0.12096228 0.01294075
v -0.05322668 -0.09951992 0.00928652
v -0.04648725 -0.11035776 0.00739342
v -0.05181496 -0.10772640 0.00731204
v -0.05298396 -0.11824343 0.01783149
v -0.05324610 -0.10508212 0.01181845
f 5 2 1
f 7 1 2
f 7 3 1
f 7 6 3
f 8 5 1
f 9 3 6
f 9 1 3
f 9 4 1
f 10 9 6
f 10 4 9
f 11 2 5
f 12 8 1
f 12 1 4
f 12 10 5
f 12 4 10
f 13 6 7
f 13 7 2
f 13 2 11
f 14 11 5
f 14 5 10
f 14 13 11
f 14 10 6
f 14 6 13
f 15 5 8
f 15 8 12
f 16 15 12
f 16 12 5
f 16 5 15

