# https://github.com/mikedh/trimesh
v 0.05992011 -0.04610345 0.03469754
v 0.07373258 -0.04244595 0.01845962
v 0.07011161 0.01974928 0.03716079
v 0.04765740 0.01976626 0.02995978
v 0.04759616 -0.04602075 0.01990385
v 0.07009616 0.01974849 0.01990385
v 0.04766858 -0.04605431 0.03163497
v 0.07023753 -0.03741156 0.03633944
v 0.05971154 -0.04602075 0.01990385
v 0.04964105 0.01983963 0.03033337
v 0.04759616 0.01974849 0.01990385
v 0.04973582 -0.04617739 0.03207585
v 0.05668541 -0.04619341 0.03384567
f 6 3 2
f 7 1 3
f 7 3 4
f 7 4 5
f 8 1 2
f 8 2 3
f 8 3 1
f 9 5 2
f 9 2 1
f 10 4 3
f 10 3 6
f 11 5 4
f 11 10 6
f 11 4 10
f 11 6 2
f 11 2 5
f 12 7 5
f 12 5 9
f 13 1 7
f 13 7 12
f 13 12 9
f 13 9 1

