# https://github.com/mikedh/trimesh
v 0.05995190 0.01976992 0.03309863
v 0.05968264 0.01973188 0.00247405
v 0.05970373 0.04224307 0.00289757
v 0.00094735 0.04241827 0.02866613
v 0.00087798 0.01975430 0.02763490
v 0.05973938 0.04225376 0.03363999
v 0.00958623 0.01971398 0.00261945
v 0.05134600 0.04241205 0.03184034
v 0.03375910 0.04218898 0.00265538
v 0.00090803 0.04222291 0.00350660
v 0.05102876 0.03874275 0.00264899
v 0.00088746 0.01974003 0.00301245
v 0.01994799 0.03699166 0.00269411
v 0.03893319 0.04218958 0.00265157
v 0.05966863 0.03182472 0.00267027
v 0.00958647 0.02317288 0.00268793
v 0.02685763 0.04044834 0.00266508
v 0.04758021 0.04046566 0.00265701
v 0.05448089 0.03701743 0.00266431
v 0.01650106 0.03354260 0.00269628
f 1 2 3
f 5 1 4
f 6 1 3
f 6 4 1
f 7 2 1
f 7 1 5
f 8 6 3
f 8 3 4
f 8 4 6
f 10 5 4
f 10 4 3
f 10 3 9
f 12 7 5
f 12 5 10
f 14 9 3
f 14 2 9
f 15 3 2
f 16 12 10
f 16 7 12
f 17 13 10
f 17 10 9
f 17 7 13
f 17 9 2
f 17 2 7
f 18 14 3
f 18 3 11
f 18 11 2
f 18 2 14
f 19 11 3
f 19 3 15
f 19 15 2
f 19 2 11
f 20 13 7
f 20 7 16
f 20 16 10
f 20 10 13

