# https://github.com/mikedh/trimesh
v -0.03029801 0.00762035 0.02841043
v -0.03027584 0.00763724 0.00618912
v -0.03019187 0.04224845 0.00547072
v -0.04442762 0.04244204 0.02872969
v -0.04418202 0.00762497 0.03006551
v -0.04412529 0.00763638 0.00665186
v -0.03035368 0.04234091 0.02712129
v -0.03010949 0.01117014 0.00604612
v -0.04411592 0.04224844 0.00649261
v -0.03216620 0.00748721 0.02856660
v -0.03883050 0.02156300 0.00616328
v -0.03709244 0.04225858 0.00606896
f 6 5 4
f 7 3 4
f 7 5 1
f 7 4 5
f 8 1 2
f 8 7 1
f 8 3 7
f 8 2 6
f 9 6 4
f 10 6 2
f 10 2 1
f 10 1 5
f 10 5 6
f 11 8 6
f 11 3 8
f 11 9 3
f 11 6 9
f 12 9 4
f 12 4 3
f 12 3 9

