# https://github.com/mikedh/trimesh
v 0.04760402 -0.02525410 0.03024468
v 0.04759622 -0.02525695 0.00194271
v 0.04765740 0.01976626 0.02995978
v 0.02510590 0.01976707 0.02816666
v 0.02510225 -0.02524856 0.00195896
v 0.04757798 0.01974155 0.00227418
v 0.03392943 -0.02536200 0.02855678
v 0.03559264 0.01989115 0.02853461
v 0.02510972 0.01972952 0.00220297
v 0.02512304 -0.02527099 0.02793947
f 1 2 3
f 1 3 4
f 6 3 2
f 7 5 2
f 7 2 1
f 8 4 3
f 8 3 6
f 9 5 4
f 9 8 6
f 9 4 8
f 9 6 2
f 9 2 5
f 10 7 1
f 10 1 4
f 10 4 5
f 10 5 7

