{"scene":0,"scenes":[{"nodes":[0]}],"asset":{"version":"2.0","generator":"https://github.com/mikedh/trimesh"},"accessors":[{"componentType":5125,"type":"SCALAR","bufferView":0,"count":31584,"max":[31565],"min":[0]},{"componentType":5126,"type":"VEC3","byteOffset":0,"bufferView":1,"count":31566,"max":[0.09000000357627869,0.04077780619263649,0.08811387419700623],"min":[-0.09000000357627869,0.0,-0.08811387419700623]},{"componentType":5126,"type":"VEC2","byteOffset":0,"bufferView":3,"count":31566,"max":[0.9995300769805908,0.9995511770248413],"min":[0.000469924823846668,0.0004488229751586914]}],"meshes":[{"name":"geometry_0.002","extras":{"units":"meters","from_gltf_primitive":false,"name":"geometry_0.002","node":"geometry_0.001"},"primitives":[{"attributes":{"POSITION":1,"TEXCOORD_0":2},"indices":0,"mode":4,"material":0}]}],"images":[{"bufferView":2,"mimeType":"image/png"}],"textures":[{"source":0}],"materials":[{"pbrMetallicRoughness":{"baseColorTexture":{"index":0}},"name":"Material_0.002","doubleSided":false}],"nodes":[{"name":"world","children":[1]},{"name":"geometry_0.002","mesh":0}],"buffers":[{"uri":"gltf_buffer_0.bin","byteLength":126336},{"uri":"gltf_buffer_1.bin","byteLength":378792},{"uri":"gltf_buffer_2.bin","byteLength":939332},{"uri":"gltf_buffer_3.bin","byteLength":252528}],"bufferViews":[{"buffer":0,"byteOffset":0,"byteLength":126336},{"buffer":1,"byteOffset":0,"byteLength":378792},{"buffer":2,"byteOffset":0,"byteLength":939332},{"buffer":3,"byteOffset":0,"byteLength":252528}]}