# https://github.com/mikedh/trimesh
v -0.01990385 -0.00102074 0.01990385
v -0.01983743 -0.00103038 0.00476607
v -0.01988417 0.06478197 0.03176965
v -0.03013683 0.06484874 0.03077009
v -0.03028846 -0.00102074 0.01990385
v -0.01987830 0.06474075 0.00488399
v -0.01978577 0.05829054 0.03042098
v -0.03007618 -0.00108942 0.00616158
v -0.03029801 0.00762035 0.02841043
v -0.01991554 0.00759600 0.02796008
v -0.03024103 0.06475917 0.00533697
v -0.03019808 0.05980926 0.03013905
f 6 4 3
f 7 1 2
f 7 6 3
f 7 2 6
f 8 2 1
f 8 1 5
f 9 5 1
f 9 3 4
f 10 7 3
f 10 1 7
f 10 9 1
f 10 3 9
f 11 6 2
f 11 2 8
f 11 4 6
f 11 8 5
f 11 5 9
f 12 11 9
f 12 9 4
f 12 4 11

