# https://github.com/mikedh/trimesh
v -0.04343464 0.04175303 0.02847675
v -0.04411592 0.04224844 0.00649261
v -0.04410922 0.08802770 0.01427204
v -0.05446872 0.08739762 0.01503240
v -0.05451923 0.04224849 0.02336539
v -0.05451775 0.08584275 0.00556425
v -0.04419590 0.06507215 0.03005003
v -0.04413087 0.08598017 0.00574002
v -0.05450035 0.04224651 0.00687966
v -0.05439340 0.08738502 0.01198168
v -0.05451923 0.06474849 0.02336539
v -0.04412841 0.08347137 0.02144131
v -0.04402943 0.06307050 0.00605862
v -0.04411181 0.08697838 0.00938413
v -0.05446771 0.08307687 0.02149861
v -0.04410864 0.08753687 0.01510983
f 7 5 1
f 9 2 1
f 9 1 5
f 9 6 2
f 9 5 6
f 10 6 4
f 10 4 3
f 11 6 5
f 11 5 7
f 12 7 1
f 13 8 1
f 13 1 2
f 13 2 6
f 13 6 8
f 14 3 1
f 14 1 8
f 14 10 3
f 14 8 6
f 14 6 10
f 15 4 6
f 15 6 11
f 15 11 7
f 15 12 4
f 15 7 12
f 16 3 4
f 16 4 12
f 16 12 1
f 16 1 3

