# https://github.com/mikedh/trimesh
v 0.08700674 0.06543755 0.03389880
v 0.08880814 0.07036156 0.02744755
v 0.08597523 0.07978933 0.03879407
v 0.04757643 0.08228617 0.02786609
v 0.04759616 0.06474849 0.02336539
v 0.08957857 0.08162691 0.02381962
v 0.08909361 0.08085137 0.03443403
v 0.08646649 0.06532014 0.02490755
v 0.04760079 0.06481507 0.03509721
v 0.04759842 0.08284823 0.02342305
v 0.08860398 0.06880682 0.03268211
v 0.08743639 0.08036280 0.03751952
v 0.08868427 0.07407457 0.02393709
v 0.07820527 0.06529434 0.03847641
v 0.04762240 0.08057754 0.03417990
v 0.04756173 0.06672060 0.03533441
v 0.08735626 0.06507729 0.02581863
v 0.08972581 0.08174837 0.02848730
v 0.08882028 0.07382469 0.03441743
v 0.08438798 0.07390867 0.03867781
v 0.06517562 0.08009731 0.03743710
v 0.06859804 0.06504528 0.03870393
v 0.08891348 0.06851361 0.03048272
v 0.08739292 0.06716063 0.02496072
v 0.08770347 0.07569907 0.03691770
v 0.08283620 0.06541604 0.03689545
v 0.08045923 0.07952760 0.04050675
v 0.08616029 0.07892672 0.03862287
v 0.08292316 0.07053157 0.03836839
v 0.07552861 0.07904437 0.04052457
v 0.07994647 0.07538787 0.04028162
v 0.07541389 0.07354134 0.04050265
v 0.04766059 0.07804867 0.03512140
v 0.06539023 0.06837429 0.03857006
v 0.07683527 0.07354604 0.04051587
f 10 6 5
f 10 5 4
f 12 7 4
f 13 6 2
f 13 8 5
f 13 5 6
f 16 4 5
f 16 5 9
f 16 15 4
f 17 9 5
f 17 5 8
f 17 1 14
f 17 13 2
f 18 6 10
f 18 10 4
f 18 4 7
f 19 18 7
f 19 1 11
f 21 4 15
f 22 16 9
f 22 17 14
f 22 9 17
f 23 11 1
f 23 1 17
f 23 17 2
f 23 2 6
f 23 6 18
f 23 19 11
f 23 18 19
f 24 17 8
f 24 8 13
f 24 13 17
f 25 19 7
f 25 7 12
f 25 1 19
f 26 14 1
f 26 25 20
f 26 1 25
f 27 12 4
f 27 4 21
f 27 3 12
f 27 21 15
f 28 25 12
f 28 12 3
f 28 3 20
f 28 20 25
f 29 26 20
f 29 14 26
f 30 27 15
f 31 20 3
f 31 3 27
f 31 29 20
f 31 14 29
f 32 30 16
f 33 30 15
f 33 15 16
f 33 16 30
f 34 32 16
f 34 16 22
f 34 22 32
f 35 32 22
f 35 22 14
f 35 14 31
f 35 31 27
f 35 27 30
f 35 30 32

