# https://github.com/mikedh/trimesh
v -0.08220239 -0.08567011 0.01476038
v -0.08219900 -0.08451919 0.01874163
v -0.08907366 -0.08231724 0.01662876
v -0.08789216 -0.02525237 0.02229129
v -0.08229449 -0.02525130 0.02448588
v -0.08740956 -0.02527924 0.01264687
v -0.08790637 -0.08418242 0.01864262
v -0.08147319 -0.07824412 0.02437171
v -0.08845871 -0.08483224 0.01486779
v -0.08916431 -0.02524704 0.01947767
v -0.08763407 -0.07649173 0.02191237
v -0.08877032 -0.02525032 0.01488246
v -0.08902288 -0.08221452 0.01769448
v -0.08897187 -0.02524557 0.01652101
v -0.08889482 -0.07877594 0.01902384
f 6 5 1
f 7 1 2
f 8 2 1
f 8 1 5
f 8 7 2
f 8 5 4
f 9 6 1
f 9 1 7
f 10 4 5
f 11 4 10
f 11 8 4
f 11 7 8
f 12 9 3
f 12 6 9
f 12 5 6
f 13 9 7
f 13 3 9
f 13 7 11
f 13 10 3
f 14 12 3
f 14 3 10
f 14 10 5
f 14 5 12
f 15 13 11
f 15 11 10
f 15 10 13

