# https://github.com/mikedh/trimesh
v -0.05451923 -0.02525151 0.02336539
v -0.05447441 -0.02533686 0.00595861
v -0.05451229 -0.01487762 0.00638040
v -0.08788358 -0.01487474 0.02224810
v -0.08916431 -0.02524704 0.01947767
v -0.05451923 -0.01486690 0.02336539
v -0.08789216 -0.02525237 0.02229129
v -0.08213669 -0.01487632 0.00660658
v -0.05446273 -0.02187071 0.00612705
v -0.08024214 -0.02526912 0.00622130
v -0.08920117 -0.01486010 0.01947665
v -0.07858747 -0.02009306 0.00615842
v -0.08897187 -0.02524557 0.01652101
v -0.08031035 -0.02355624 0.00624730
v -0.08216257 -0.02525623 0.00645770
v -0.08899998 -0.01486225 0.01653525
f 7 2 1
f 7 6 4
f 7 1 6
f 9 6 1
f 9 1 2
f 9 2 3
f 9 3 6
f 10 7 5
f 10 2 7
f 11 7 4
f 11 5 7
f 11 4 6
f 11 6 3
f 12 8 3
f 12 3 2
f 12 2 10
f 13 10 5
f 13 5 11
f 14 12 10
f 14 8 12
f 15 10 13
f 15 14 10
f 15 8 14
f 16 13 11
f 16 15 13
f 16 8 15
f 16 11 3
f 16 3 8

