# https://github.com/mikedh/trimesh
v -0.00793154 0.05225471 0.02986955
v 0.00086538 0.06474849 0.01990385
v 0.00097298 0.08244621 0.02917308
v -0.03023127 0.08249362 0.02717014
v -0.03028846 0.06474849 0.01990385
v 0.00086235 0.08347308 0.01996126
v -0.01808272 0.06811113 0.03188770
v 0.00094203 0.06476248 0.03300548
v -0.01991923 0.05256758 0.02879453
v 0.00111408 0.07630035 0.03177798
v -0.02681578 0.08373768 0.02092695
v -0.03028743 0.08364534 0.01993037
v -0.01455108 0.06168440 0.03172886
v -0.03013683 0.06484874 0.03077009
v -0.01457979 0.07122143 0.03182998
v -0.03020553 0.07970743 0.02838062
v -0.01126221 0.08369214 0.02133001
v -0.01131000 0.08372110 0.02019941
v -0.01806569 0.06491989 0.03192541
v -0.00764724 0.05986750 0.03191015
v -0.01975163 0.05669424 0.02995894
v -0.00762902 0.07951802 0.02988250
v -0.02840313 0.07458183 0.02994455
v -0.02681382 0.08372859 0.02023898
v -0.00759513 0.05316071 0.03016396
v -0.00936816 0.05988923 0.03178173
v -0.03015662 0.07306862 0.03013432
f 8 1 2
f 9 5 2
f 9 2 1
f 10 6 3
f 10 2 6
f 10 8 2
f 11 4 3
f 12 6 2
f 12 2 5
f 12 5 4
f 12 4 11
f 14 4 5
f 14 5 9
f 15 7 8
f 15 8 10
f 16 3 4
f 16 4 14
f 17 11 3
f 17 3 6
f 18 6 12
f 18 17 6
f 18 11 17
f 19 8 7
f 19 14 13
f 19 7 14
f 20 19 13
f 20 8 19
f 21 14 9
f 21 13 14
f 22 16 10
f 22 10 3
f 22 3 16
f 23 15 10
f 23 10 16
f 24 18 12
f 24 12 11
f 24 11 18
f 25 1 8
f 25 8 20
f 25 21 9
f 25 9 1
f 26 20 13
f 26 13 21
f 26 25 20
f 26 21 25
f 27 7 15
f 27 15 23
f 27 14 7
f 27 23 16
f 27 16 14

