# https://github.com/mikedh/trimesh
v 0.08227774 -0.04600315 0.01759159
v 0.08192936 -0.04605399 0.00251077
v 0.08190473 -0.02528302 0.00276782
v 0.04759616 -0.02525151 0.01990385
v 0.04759616 -0.04602075 0.01990385
v 0.04759622 -0.02525695 0.00194271
v 0.08203927 -0.02522970 0.01889893
v 0.07065970 -0.04649117 0.01986306
v 0.07009645 -0.02526607 0.00197035
v 0.04761359 -0.04603502 0.00181261
v 0.07520312 -0.04595888 0.02057161
v 0.08216795 -0.03895463 0.01809305
f 1 2 3
f 6 5 4
f 7 1 3
f 7 6 4
f 8 2 1
f 9 3 2
f 9 7 3
f 9 6 7
f 10 5 6
f 10 8 5
f 10 2 8
f 10 9 2
f 10 6 9
f 11 8 1
f 11 7 4
f 11 4 5
f 11 5 8
f 12 11 1
f 12 1 7
f 12 7 11

