# https://github.com/mikedh/trimesh
v -0.07693596 -0.08590811 0.01491949
v -0.07691406 -0.08506550 0.00515634
v -0.08213669 -0.01487632 0.00660658
v -0.08879831 -0.01486579 0.01486933
v -0.08845871 -0.08483224 0.01486779
v -0.07701923 -0.05813613 0.01471154
v -0.08492639 -0.08498477 0.00649936
v -0.07866241 -0.08582239 0.01493028
v -0.07667166 -0.07036593 0.00429189
v -0.08736717 -0.08462439 0.00869250
v -0.07685568 -0.08573593 0.01408606
v -0.07700249 -0.05814975 0.00496715
v -0.07827795 -0.07034437 0.00463717
v -0.07849989 -0.08364080 0.00460314
v -0.08599942 -0.01487846 0.00793586
v -0.07679917 -0.08359737 0.00438131
v -0.08451486 -0.07735324 0.00643336
v -0.08739114 -0.01486573 0.01128251
f 6 3 4
f 6 4 1
f 7 2 1
f 8 1 4
f 8 4 5
f 8 7 1
f 8 5 7
f 10 7 5
f 10 5 4
f 11 9 6
f 11 6 1
f 11 1 2
f 12 9 3
f 12 3 6
f 12 6 9
f 13 3 9
f 14 2 7
f 14 13 9
f 15 7 10
f 16 11 2
f 16 9 11
f 16 14 9
f 16 2 14
f 17 3 13
f 17 15 3
f 17 7 15
f 17 14 7
f 17 13 14
f 18 15 10
f 18 10 4
f 18 4 3
f 18 3 15

