# https://github.com/mikedh/trimesh
v -0.01958236 -0.06862032 0.03255119
v -0.01990385 -0.06852075 0.02163462
v -0.01973211 -0.03717045 0.03079750
v -0.04306345 -0.03671419 0.03331922
v -0.04427066 -0.06848518 0.03649335
v -0.04413462 -0.04602075 0.02163462
v -0.01990385 -0.04602075 0.02163462
v -0.04413462 -0.06852075 0.02163462
v -0.02010302 -0.05824503 0.03242050
v -0.04447766 -0.05140686 0.03557140
v -0.04451981 -0.03760162 0.03376850
v -0.03756070 -0.06007501 0.03522082
f 6 4 3
f 7 1 2
f 7 3 1
f 7 6 3
f 7 2 6
f 8 2 1
f 8 1 5
f 8 6 2
f 9 5 1
f 9 1 3
f 10 8 5
f 11 10 3
f 11 3 4
f 11 4 6
f 11 6 8
f 11 8 10
f 12 9 3
f 12 3 10
f 12 10 5
f 12 5 9

