# https://github.com/mikedh/trimesh
v 0.08669657 -0.00101902 0.03420636
v 0.08744721 -0.00095500 0.02633896
v 0.08768241 0.06516676 0.03278494
v 0.07027829 0.06505249 0.03892852
v 0.07009616 -0.00102074 0.02163462
v 0.08173099 0.06520389 0.03739314
v 0.08782372 -0.00102220 0.03287674
v 0.07029456 -0.00100543 0.03626608
v 0.07345517 0.06687863 0.01995016
v 0.08473844 0.06518371 0.03576647
v 0.08335968 -0.00101411 0.03562895
v 0.08735626 0.06507729 0.02581863
v 0.08438011 -0.00100033 0.02347384
v 0.07017875 0.06340175 0.03860756
v 0.07519179 0.06515319 0.03898554
v 0.08646649 0.06532014 0.02490755
v 0.07009616 0.04224849 0.02163462
v 0.07211245 0.01119327 0.03703372
v 0.08181485 0.04229451 0.02253670
v 0.07036493 0.01468218 0.03699322
v 0.07518616 0.01117716 0.03706082
v 0.07681763 0.01461227 0.03704612
f 7 3 1
f 8 7 1
f 8 5 7
f 10 6 1
f 10 1 3
f 10 9 6
f 10 3 9
f 11 1 6
f 11 8 1
f 12 7 2
f 12 3 7
f 13 7 5
f 13 2 7
f 13 5 9
f 14 8 4
f 14 5 8
f 15 9 4
f 15 6 9
f 15 11 6
f 16 9 3
f 16 3 12
f 16 12 2
f 16 2 13
f 17 9 5
f 17 5 14
f 17 14 4
f 17 4 9
f 18 15 4
f 19 16 13
f 19 13 9
f 19 9 16
f 20 18 4
f 20 4 8
f 20 8 18
f 21 18 8
f 21 8 11
f 21 15 18
f 22 21 11
f 22 11 15
f 22 15 21

