# https://github.com/mikedh/trimesh
v 0.08746117 -0.08046527 0.01632733
v 0.08908376 -0.08064453 0.00501787
v 0.08874519 0.04223612 0.01475713
v 0.08209556 0.04223113 0.01927783
v 0.08193511 -0.08061039 0.00206193
v 0.08817104 0.04223784 0.01821591
v 0.08881501 -0.06328101 0.01533721
v 0.08222238 -0.08059387 0.01745655
v 0.08691707 0.04225310 0.00415945
v 0.08874584 -0.08057912 0.01411377
v 0.08912185 0.04224883 0.01193332
v 0.08810263 0.00591528 0.01792099
v 0.08888896 0.01102844 0.01608814
v 0.08847972 -0.08063886 0.00399888
v 0.08216979 0.04222452 0.00376640
v 0.08831667 0.04225914 0.00503682
v 0.08702004 -0.03215907 0.01794905
v 0.08514855 -0.05818191 0.00285596
v 0.08192149 -0.04260064 0.00257964
v 0.08551845 -0.03729504 0.01804230
v 0.08510459 -0.08059283 0.00280520
v 0.08391524 -0.03894587 0.01806670
v 0.08216795 -0.03895463 0.01809305
f 8 5 2
f 10 7 1
f 10 2 7
f 10 8 2
f 10 1 8
f 11 7 2
f 11 6 3
f 11 4 6
f 12 7 6
f 12 1 7
f 13 3 6
f 13 6 7
f 13 11 3
f 13 7 11
f 14 2 5
f 15 4 9
f 16 11 2
f 16 9 4
f 16 4 11
f 16 14 9
f 16 2 14
f 17 8 1
f 17 1 12
f 17 12 6
f 17 6 4
f 18 5 9
f 18 9 14
f 19 5 4
f 19 4 15
f 19 15 9
f 19 9 5
f 20 17 4
f 20 8 17
f 21 18 14
f 21 14 5
f 21 5 18
f 22 20 4
f 22 8 20
f 23 22 4
f 23 8 22
f 23 4 5
f 23 5 8

