# https://github.com/mikedh/trimesh
v 0.02510198 -0.08589083 0.01673659
v 0.02514709 -0.08379301 0.00104964
v 0.02517563 -0.06853879 0.03042492
v 0.00083674 -0.06852998 0.03044630
v -0.00778614 -0.08610956 0.01065889
v 0.02510908 -0.06857277 0.00160885
v 0.00083116 -0.07985450 0.02932974
v 0.02517294 -0.07868412 0.03012341
v 0.02513299 -0.08577013 0.00298035
v 0.02516212 -0.07230402 0.00084750
v 0.00090261 -0.06857250 0.00211482
v -0.00779070 -0.08589699 0.01668834
v 0.02511451 -0.07960832 0.02939959
v 0.00082918 -0.07705004 0.03026682
v -0.00773654 -0.08466639 0.00245607
v -0.00780035 -0.07980967 0.01809185
v 0.02167683 -0.08569903 0.00298215
v -0.00775759 -0.07890129 0.00174493
v 0.01650055 -0.08058651 0.00097193
v 0.01823283 -0.08211126 0.00100919
v 0.02341751 -0.08378587 0.00109450
f 6 4 3
f 9 1 5
f 9 8 1
f 9 2 8
f 10 6 3
f 10 8 2
f 10 3 8
f 11 4 6
f 11 6 10
f 12 5 1
f 12 1 7
f 13 8 7
f 13 7 1
f 13 1 8
f 14 8 3
f 14 3 4
f 14 7 8
f 14 12 7
f 15 2 9
f 16 14 4
f 16 12 14
f 16 5 12
f 17 15 9
f 17 9 5
f 17 5 15
f 18 11 10
f 18 15 5
f 18 5 16
f 18 16 4
f 18 4 11
f 19 18 10
f 19 10 2
f 20 19 2
f 20 15 18
f 20 18 19
f 21 20 2
f 21 2 15
f 21 15 20

