# https://github.com/mikedh/trimesh
v -0.05460873 -0.06847970 0.03842059
v -0.05451923 -0.06852075 0.02336539
v -0.05451923 -0.01486690 0.02336539
v -0.06678259 -0.01487536 0.03932643
v -0.06663462 -0.06852075 0.02336539
v -0.05541931 -0.01497949 0.03555555
v -0.06668551 -0.06847950 0.03997055
v -0.06663462 -0.01486690 0.02336539
v -0.05876989 -0.01494463 0.03722360
v -0.05657700 -0.06837076 0.03876679
v -0.06363402 -0.01490160 0.03880426
v -0.05539206 -0.03064084 0.03679525
v -0.05658509 -0.05828229 0.03860825
f 1 2 3
f 5 3 2
f 6 1 3
f 7 4 5
f 7 5 2
f 7 2 1
f 8 5 4
f 8 4 3
f 8 3 5
f 9 6 3
f 10 7 1
f 10 4 7
f 11 9 3
f 11 3 4
f 12 9 1
f 12 1 6
f 12 6 9
f 13 1 9
f 13 9 11
f 13 10 1
f 13 11 4
f 13 4 10

