# https://github.com/mikedh/trimesh
v 0.08380155 0.06480945 0.02370324
v 0.08840617 0.06475023 0.00491495
v 0.08888238 0.08564638 0.01508653
v -0.04410864 0.08753687 0.01510983
v -0.04403960 0.06479168 0.00601259
v 0.04410591 0.08561248 0.00613374
v 0.08723581 0.08241721 0.02385763
v 0.08801064 0.06461952 0.01795018
v -0.04413462 0.06474849 0.01990385
v 0.08834205 0.08452919 0.00733563
v 0.08043838 0.08720014 0.01140900
v -0.04413087 0.08598017 0.00574002
v -0.00772388 0.06471133 0.00435794
v 0.08899126 0.07550270 0.02374757
v -0.04413062 0.08359971 0.01994122
v 0.04759842 0.08284823 0.02342305
v 0.04759616 0.06474849 0.02336539
v 0.08897528 0.08227021 0.00784011
v 0.07350613 0.07496244 0.00447821
v 0.08383963 0.08532505 0.00744723
v 0.08885108 0.08551935 0.00894208
v 0.07872388 0.08697991 0.01411430
v 0.02852790 0.08703861 0.00839460
v 0.08705376 0.06470912 0.00433300
v 0.08761093 0.07025135 0.02398102
v 0.08966684 0.08151942 0.02355855
v 0.00086538 0.06474849 0.02163462
v 0.00086338 0.08363062 0.02162859
v 0.08798564 0.08167423 0.00632230
v 0.01125800 0.07500984 0.00443459
v 0.08042553 0.08717928 0.01286834
v 0.07524521 0.08703861 0.01002358
v -0.03372195 0.08716656 0.00808940
v 0.08695651 0.06979387 0.00444086
v 0.07519068 0.08452601 0.00634710
v -0.00256318 0.07160014 0.00440838
v -0.04411181 0.08697838 0.00938413
v 0.08555068 0.07153399 0.00447218
v 0.08548944 0.08307282 0.00635118
v 0.00088390 0.07330401 0.00442531
f 12 5 9
f 13 5 12
f 13 9 5
f 13 8 9
f 15 12 9
f 15 4 12
f 16 7 4
f 17 8 1
f 19 12 6
f 21 11 3
f 21 20 11
f 21 10 20
f 21 18 10
f 22 7 3
f 22 4 7
f 23 6 12
f 24 2 8
f 24 8 13
f 25 14 7
f 25 1 8
f 25 8 14
f 25 17 1
f 25 7 16
f 25 16 17
f 26 3 7
f 26 7 14
f 26 2 18
f 26 14 8
f 26 8 2
f 26 21 3
f 26 18 21
f 27 16 15
f 27 15 9
f 27 17 16
f 27 9 8
f 27 8 17
f 28 16 4
f 28 4 15
f 28 15 16
f 29 18 2
f 29 10 18
f 30 12 19
f 30 19 24
f 31 22 3
f 31 3 11
f 31 11 4
f 31 4 22
f 32 20 6
f 32 6 23
f 32 23 11
f 32 11 20
f 33 23 12
f 33 4 11
f 33 11 23
f 34 29 2
f 34 2 24
f 34 24 19
f 35 19 6
f 35 6 20
f 35 20 10
f 36 13 12
f 36 30 24
f 36 24 13
f 37 33 12
f 37 12 4
f 37 4 33
f 38 34 19
f 38 29 34
f 39 19 35
f 39 38 19
f 39 29 38
f 39 35 10
f 39 10 29
f 40 36 12
f 40 12 30
f 40 30 36

