# https://github.com/mikedh/trimesh
v 0.08483626 -0.08000877 0.03041534
v 0.08572698 -0.07533922 0.03066566
v 0.04697238 -0.06869927 0.03310212
v 0.08606247 -0.06845873 0.03064195
v 0.07908104 -0.08001227 0.02180615
v 0.08348089 -0.07988947 0.02633744
v 0.04762141 -0.08002639 0.03015031
v 0.04759616 -0.06852075 0.01990385
v 0.08539395 -0.07535133 0.02929297
v 0.08070260 -0.08070803 0.02332251
v 0.07778764 -0.06868037 0.02186950
v 0.04759794 -0.08059411 0.01990363
v 0.08407355 -0.06848662 0.02640572
v 0.08294519 -0.08042453 0.02572731
v 0.07549112 -0.08077016 0.02843267
v 0.08568586 -0.06845270 0.02924156
v 0.08103429 -0.06859169 0.02357336
v 0.08096331 -0.08028550 0.03003900
v 0.08371708 -0.08042025 0.02847411
v 0.07913124 -0.07562984 0.02190841
f 1 2 3
f 3 2 4
f 7 1 3
f 8 3 4
f 9 2 1
f 9 1 6
f 9 4 2
f 11 5 8
f 12 7 3
f 12 3 8
f 12 8 5
f 12 5 10
f 13 9 6
f 13 10 5
f 14 6 1
f 14 13 6
f 14 10 13
f 15 12 10
f 15 7 12
f 16 4 9
f 16 9 13
f 16 13 8
f 16 8 4
f 17 13 5
f 17 11 8
f 17 8 13
f 18 1 7
f 18 7 15
f 19 14 1
f 19 18 15
f 19 1 18
f 19 15 10
f 19 10 14
f 20 17 5
f 20 5 11
f 20 11 17

