# https://github.com/mikedh/trimesh
v -0.01993290 -0.01490745 0.02946582
v -0.01969941 -0.01492047 0.00429264
v -0.01991554 0.00759600 0.02796008
v -0.04418202 0.00762497 0.03006551
v -0.04433270 -0.01493465 0.03085669
v -0.04412529 0.00763638 0.00665186
v -0.01997379 0.00055647 0.02845714
v -0.01963582 -0.01323764 0.00434766
v -0.02137102 -0.01496098 0.00451300
v -0.04447438 0.00238658 0.03031296
v -0.01990385 0.00763310 0.01990385
v -0.01983743 -0.00103038 0.00476607
v -0.03906287 -0.01496208 0.03024161
v -0.04413182 -0.01487211 0.00615477
v -0.03027584 0.00763724 0.00618912
v -0.04235288 -0.01496208 0.00609876
f 7 1 3
f 7 3 4
f 7 4 1
f 8 1 2
f 8 3 1
f 9 2 1
f 10 5 1
f 10 1 4
f 10 4 6
f 11 6 4
f 11 4 3
f 11 3 8
f 12 8 2
f 12 2 6
f 12 11 8
f 13 9 1
f 13 1 5
f 14 6 2
f 14 10 6
f 14 5 10
f 15 12 6
f 15 6 11
f 15 11 12
f 16 14 2
f 16 2 9
f 16 9 13
f 16 13 5
f 16 5 14

