# https://github.com/mikedh/trimesh
v -0.01991424 -0.08593628 0.01671680
v -0.01986070 -0.08458925 0.00274017
v -0.01934178 -0.06869484 0.03251373
v -0.04427066 -0.06848518 0.03649335
v -0.04406254 -0.08631786 0.01246961
v -0.04412354 -0.06869474 0.00381691
v -0.02360916 -0.07892980 0.03202947
v -0.01988055 -0.08591362 0.01099624
v -0.01988367 -0.06854603 0.00294769
v -0.04442932 -0.07675692 0.03559501
v -0.04412526 -0.08489311 0.00349409
v -0.01994296 -0.08104798 0.02823812
v -0.01984192 -0.07217346 0.00264127
v -0.03752010 -0.06843777 0.03530986
v -0.04416140 -0.07912428 0.03455136
v -0.02886111 -0.07519178 0.03343379
v -0.04412814 -0.07729317 0.00270140
v -0.04413565 -0.08579407 0.01691533
v -0.02710585 -0.06842470 0.03366389
v -0.02692790 -0.08036417 0.03080215
v -0.03579632 -0.07906804 0.03355259
v -0.02712406 -0.07186112 0.03348441
v -0.04410057 -0.08057226 0.00266141
v -0.04241463 -0.08048264 0.03134516
v -0.02346492 -0.06848647 0.03310167
v -0.03369961 -0.08380694 0.00280758
v -0.04063824 -0.08216542 0.00272472
v -0.02332045 -0.08458752 0.00281866
f 8 2 3
f 8 3 1
f 8 1 5
f 10 4 6
f 11 8 5
f 11 2 8
f 12 1 3
f 12 3 7
f 13 9 3
f 13 3 2
f 14 9 6
f 14 6 4
f 16 10 7
f 16 7 3
f 16 4 10
f 17 11 10
f 17 10 6
f 17 6 9
f 17 9 13
f 18 11 5
f 18 10 11
f 18 15 10
f 18 5 1
f 19 14 4
f 19 9 14
f 20 1 12
f 20 12 7
f 21 7 10
f 21 10 15
f 21 20 7
f 21 15 20
f 22 16 3
f 22 3 4
f 22 4 16
f 23 17 13
f 23 13 2
f 23 11 17
f 24 18 1
f 24 15 18
f 24 20 15
f 24 1 20
f 25 19 4
f 25 4 3
f 25 3 9
f 25 9 19
f 27 23 2
f 27 2 26
f 27 26 11
f 27 11 23
f 28 26 2
f 28 2 11
f 28 11 26

