# https://github.com/mikedh/trimesh
v 0.08828364 -0.08707231 0.01354516
v 0.08893950 -0.08670548 0.00464640
v 0.08228757 -0.06852046 0.01743926
v 0.02509615 -0.06852075 0.01817308
v 0.02513299 -0.08577013 0.00298035
v 0.07689963 -0.07976558 0.02078765
v 0.08923140 -0.08060939 0.01261383
v 0.06670080 -0.08735981 0.00300717
v 0.05112252 -0.06862379 0.00121058
v 0.08665926 -0.08055336 0.01697385
v 0.07171160 -0.06859977 0.02045528
v 0.02510198 -0.08589083 0.01673659
v 0.08898130 -0.08553203 0.01245200
v 0.08199259 -0.06853260 0.00200688
v 0.08696697 -0.08731242 0.00383946
v 0.02510908 -0.06857277 0.00160885
v 0.02514709 -0.08379301 0.00104964
v 0.08646118 -0.08493645 0.01669941
v 0.07676834 -0.07560959 0.02065593
v 0.08810044 -0.08058611 0.01562055
v 0.04759616 -0.06852075 0.01990385
v 0.05976168 -0.08741477 0.01204751
v 0.08905379 -0.08630682 0.00662744
v 0.08908376 -0.08064453 0.00501787
v 0.08813191 -0.08726862 0.01187131
v 0.08847972 -0.08063886 0.00399888
v 0.07337571 -0.08386637 0.00110009
v 0.07668491 -0.06859171 0.00101021
v 0.03034292 -0.08550806 0.00178156
v 0.02517936 -0.07072519 0.00120889
v 0.08383115 -0.08603252 0.01622702
v 0.08773480 -0.08614077 0.01508731
v 0.04759794 -0.08059411 0.01990363
v 0.05975412 -0.08722146 0.01413690
v 0.08804411 -0.08708890 0.00412603
v 0.08510459 -0.08059283 0.00280520
v 0.06488329 -0.08530136 0.00117394
v 0.07667941 -0.08056630 0.00107833
v 0.08520080 -0.08395648 0.00294505
v 0.08361953 -0.08672677 0.00300394
v 0.03381630 -0.08486043 0.00113004
f 14 3 7
f 14 4 3
f 16 4 14
f 16 12 4
f 16 5 12
f 17 5 16
f 18 10 6
f 19 10 3
f 19 6 10
f 19 11 6
f 19 3 11
f 20 7 3
f 20 3 10
f 20 13 7
f 20 10 18
f 21 11 3
f 21 3 4
f 21 6 11
f 22 8 15
f 22 12 5
f 22 5 8
f 23 13 1
f 23 1 2
f 23 7 13
f 24 14 7
f 24 23 2
f 24 7 23
f 25 2 1
f 25 22 15
f 26 24 2
f 26 14 24
f 28 16 14
f 28 9 16
f 29 8 5
f 29 5 17
f 30 17 16
f 30 16 9
f 30 28 17
f 30 9 28
f 31 18 6
f 31 6 12
f 32 1 13
f 32 13 20
f 32 20 18
f 32 31 1
f 32 18 31
f 33 12 6
f 33 6 21
f 33 21 4
f 33 4 12
f 34 12 22
f 34 31 12
f 34 1 31
f 34 25 1
f 34 22 25
f 35 25 15
f 35 2 25
f 35 26 2
f 36 14 26
f 37 17 27
f 38 28 14
f 38 14 36
f 38 27 17
f 38 17 28
f 39 35 15
f 39 38 36
f 39 36 26
f 39 26 35
f 40 37 27
f 40 15 8
f 40 8 37
f 40 39 15
f 40 27 38
f 40 38 39
f 41 37 8
f 41 8 29
f 41 29 17
f 41 17 37

