# https://github.com/mikedh/trimesh
v -0.00779070 -0.08589699 0.01668834
v 0.00088600 -0.07889174 0.00144791
v 0.00074968 -0.02531274 0.02880067
v -0.01991784 -0.02527143 0.02997566
v -0.01986070 -0.08458925 0.00274017
v -0.00074902 -0.02524235 0.00263464
v -0.02013059 -0.07690602 0.03203309
v 0.00083784 -0.07853048 0.03016141
v -0.00773654 -0.08466639 0.00245607
v 0.00093324 -0.02524926 0.00255079
v -0.01975349 -0.02527128 0.00407420
v -0.01984192 -0.07217346 0.00264127
v -0.02010293 -0.05302720 0.03201023
v -0.01991424 -0.08593628 0.01671680
v 0.00086361 -0.08255622 0.01811128
v -0.02001863 -0.02884085 0.03018729
v 0.00079261 -0.05995510 0.03013795
v -0.01495940 -0.07191681 0.03180638
v -0.01996905 -0.08060333 0.02973727
v -0.00778614 -0.08610956 0.01065889
v 0.00081657 -0.08041302 0.02811678
v -0.01499202 -0.05992460 0.03176488
v -0.02000288 -0.07962923 0.03095244
v -0.01988055 -0.08591362 0.01099624
v -0.00442935 -0.07916218 0.03009404
v -0.00963196 -0.08029965 0.02931043
f 6 4 3
f 9 5 2
f 10 6 3
f 10 2 6
f 10 3 8
f 11 4 6
f 12 6 2
f 12 2 5
f 12 11 6
f 13 3 4
f 13 11 12
f 13 12 5
f 13 5 7
f 14 7 5
f 15 10 8
f 15 2 10
f 15 9 2
f 16 13 4
f 16 4 11
f 16 11 13
f 17 8 3
f 18 13 7
f 18 7 8
f 18 8 17
f 19 14 1
f 20 1 14
f 20 15 1
f 20 9 15
f 20 5 9
f 21 15 8
f 21 1 15
f 21 19 1
f 22 17 3
f 22 3 13
f 22 18 17
f 22 13 18
f 23 8 7
f 23 7 14
f 23 14 19
f 24 20 14
f 24 14 5
f 24 5 20
f 25 21 8
f 25 8 23
f 26 23 19
f 26 19 21
f 26 25 23
f 26 21 25

