# https://github.com/mikedh/trimesh
v -0.06550347 0.00779350 0.03852797
v -0.06663462 0.01974849 0.02509615
v -0.06687341 0.06259726 0.03594535
v -0.08448116 0.06301606 0.03514179
v -0.08520458 0.01974846 0.02377459
v -0.07331587 0.05251931 0.03873260
v -0.06663462 0.06301772 0.02336539
v -0.08421780 0.01285172 0.03460137
v -0.06856843 0.04912615 0.03875203
v -0.07522963 0.06251940 0.03689480
v -0.06663462 0.04224849 0.02336539
v -0.08553887 0.06300045 0.02279364
v -0.07618030 0.00765924 0.03854185
v -0.08703802 0.04222677 0.02279281
v -0.06706368 0.06053147 0.03666721
v -0.07851650 0.06098879 0.03704437
v -0.08598678 0.06309302 0.03321200
v -0.08698611 0.04568668 0.02269785
v -0.08442613 0.01286296 0.03372568
v -0.08129616 0.01282299 0.03689492
v -0.06705382 0.00757366 0.03890239
v -0.07022299 0.05245016 0.03871041
v -0.07370790 0.06244561 0.03686208
v -0.08136234 0.05601832 0.03687233
v -0.08578063 0.06306922 0.02627971
v -0.08398556 0.03537816 0.03543455
v -0.07500062 0.00761492 0.03874476
v -0.08009447 0.05930262 0.03699781
f 5 2 1
f 7 3 1
f 7 4 3
f 10 3 4
f 11 7 1
f 11 1 2
f 11 2 5
f 13 5 1
f 14 11 5
f 15 9 1
f 15 1 3
f 16 10 4
f 16 6 10
f 17 4 7
f 18 12 7
f 18 7 11
f 18 11 14
f 18 14 17
f 19 13 8
f 19 5 13
f 19 14 5
f 19 17 14
f 19 8 17
f 20 8 13
f 21 9 6
f 21 13 1
f 21 1 9
f 22 6 9
f 22 9 15
f 22 10 6
f 23 15 3
f 23 3 10
f 23 22 15
f 23 10 22
f 24 13 6
f 24 20 13
f 25 17 7
f 25 7 12
f 25 18 17
f 25 12 18
f 26 17 8
f 26 4 17
f 26 8 20
f 26 24 4
f 26 20 24
f 27 21 6
f 27 6 13
f 27 13 21
f 28 24 6
f 28 6 16
f 28 16 4
f 28 4 24

