# https://github.com/mikedh/trimesh
v 0.02516203 -0.04614461 0.02884162
v 0.02510505 -0.04602063 0.00196826
v 0.02510972 0.01972952 0.00220297
v 0.00087798 0.01975430 0.02763490
v 0.00081665 -0.04604828 0.02952782
v 0.00095296 0.00241823 0.00268951
v 0.02510590 0.01976707 0.02816666
v 0.02521223 -0.03918713 0.02850911
v 0.00093083 -0.04602953 0.00255827
v 0.00088746 0.01974003 0.00301245
v 0.00785798 0.01971268 0.00268544
v 0.00072739 -0.02016541 0.02854105
v 0.00268381 0.00932241 0.00269766
f 6 3 2
f 7 5 1
f 7 4 5
f 8 1 2
f 8 2 3
f 8 7 1
f 8 3 7
f 9 2 1
f 9 1 5
f 9 6 2
f 10 7 3
f 10 4 7
f 10 6 9
f 11 10 3
f 12 5 4
f 12 4 10
f 12 10 9
f 12 9 5
f 13 11 3
f 13 3 6
f 13 6 10
f 13 10 11

