# https://github.com/mikedh/trimesh
v 0.04789579 -0.07905961 0.03219492
v 0.04757973 -0.08025950 0.01827329
v 0.04759616 -0.02525151 0.01817308
v 0.03735435 -0.02533945 0.02891022
v 0.03721982 -0.08052026 0.02667221
v 0.04791167 -0.02534816 0.03030659
v 0.04407989 -0.08060745 0.02510373
v 0.03732917 -0.07913241 0.03062030
v 0.03720671 -0.08071683 0.01776395
v 0.03928935 -0.06683958 0.03177346
v 0.04793486 -0.04967144 0.03204405
v 0.04068129 -0.08053568 0.02667351
v 0.04630311 -0.07919869 0.03174705
v 0.03718755 -0.08064046 0.02181707
v 0.04408388 -0.08058270 0.02339576
v 0.03721154 -0.02525151 0.01817308
v 0.04094855 -0.07523268 0.03169776
v 0.03744227 -0.04615236 0.03010668
v 0.04102223 -0.06002540 0.03175949
v 0.03921802 -0.06849875 0.03173179
f 6 2 3
f 7 2 1
f 8 4 5
f 9 3 2
f 11 1 2
f 11 2 6
f 11 10 1
f 11 6 4
f 12 7 1
f 12 5 7
f 13 8 5
f 13 1 8
f 13 12 1
f 13 5 12
f 14 9 7
f 14 7 5
f 15 9 2
f 15 2 7
f 15 7 9
f 16 3 9
f 16 6 3
f 16 4 6
f 16 9 14
f 16 14 5
f 16 5 4
f 17 8 1
f 18 10 4
f 18 4 8
f 18 8 10
f 19 11 4
f 19 4 10
f 19 10 11
f 20 10 8
f 20 8 17
f 20 17 1
f 20 1 10

