# https://github.com/mikedh/trimesh
v -0.04413657 -0.08029501 0.03189720
v -0.04416140 -0.07912428 0.03455136
v -0.05483529 -0.07806711 0.03719274
v -0.05468929 -0.01489450 0.03515970
v -0.04413462 -0.02525151 0.02336539
v -0.04628330 -0.06006503 0.03683684
v -0.05463243 -0.07886194 0.03625282
v -0.04795809 -0.07182289 0.03692011
v -0.05498499 -0.04265395 0.03731289
v -0.04422792 -0.02185131 0.03156658
v -0.05451923 -0.05813613 0.02336539
v -0.04443459 -0.07834170 0.03524777
v -0.05520299 -0.02014695 0.03579795
v -0.04622869 -0.06674970 0.03694465
v -0.04765493 -0.01488341 0.03184379
v -0.04455245 -0.04798871 0.03518425
v -0.04413462 -0.05813613 0.02336539
v -0.05424629 -0.07916983 0.03259927
v -0.05451923 -0.02525151 0.02336539
v -0.04972348 -0.07508936 0.03683309
v -0.05318297 -0.07816644 0.03684666
v -0.04604875 -0.01664918 0.03147189
v -0.05326574 -0.01466343 0.03438583
f 5 2 1
f 7 1 2
f 7 2 3
f 10 2 5
f 13 9 6
f 13 6 4
f 13 11 3
f 13 3 9
f 14 6 9
f 14 8 12
f 14 9 3
f 14 3 8
f 16 10 4
f 16 4 6
f 16 14 12
f 16 6 14
f 16 12 2
f 16 2 10
f 17 11 5
f 17 5 1
f 17 1 11
f 18 11 1
f 18 1 7
f 18 7 3
f 18 3 11
f 19 5 11
f 19 15 5
f 19 13 4
f 19 11 13
f 20 12 8
f 20 8 3
f 20 3 12
f 21 12 3
f 21 3 2
f 21 2 12
f 22 10 5
f 22 5 15
f 22 15 4
f 22 4 10
f 23 19 4
f 23 4 15
f 23 15 19

