# https://github.com/mikedh/trimesh
v 0.00074968 -0.02531274 0.02880067
v 0.00093324 -0.02524926 0.00255079
v 0.00094735 0.04241827 0.02866613
v -0.01981828 0.04232694 0.02713308
v -0.01990385 -0.02525151 0.01644231
v 0.00090803 0.04222291 0.00350660
v -0.01991784 -0.02527143 0.02997566
v -0.01975349 -0.02527128 0.00407420
v 0.00095682 -0.00795649 0.00259794
v -0.01987965 0.04224597 0.00467149
v -0.00074111 0.04242961 0.02855730
v -0.00074902 -0.02524235 0.00263464
v -0.00069866 -0.00795933 0.00270214
v -0.01632696 0.04222200 0.00442181
v -0.01997379 0.00055647 0.02845714
f 1 2 3
f 7 1 3
f 8 2 1
f 8 7 5
f 8 1 7
f 9 6 3
f 9 3 2
f 10 8 5
f 11 7 3
f 11 4 7
f 11 10 4
f 11 3 6
f 11 6 10
f 12 9 2
f 12 2 8
f 13 8 10
f 13 12 8
f 13 9 12
f 14 10 6
f 14 6 9
f 14 13 10
f 14 9 13
f 15 7 4
f 15 4 10
f 15 10 5
f 15 5 7

