# https://github.com/mikedh/trimesh
v 0.08026816 -0.06853625 0.03647828
v 0.08199259 -0.06853260 0.00200688
v 0.08227774 -0.04600315 0.01759159
v 0.04735587 -0.04590938 0.03156338
v 0.04761012 -0.06854195 0.00132319
v 0.08026686 -0.04602624 0.03620421
v 0.08228757 -0.06852046 0.01743926
v 0.05637794 -0.06893649 0.00086712
v 0.04697238 -0.06869927 0.03310212
v 0.04761359 -0.04603502 0.00181261
v 0.07014253 -0.04604610 0.03679700
v 0.07667998 -0.06858836 0.03743169
v 0.07009308 -0.04603829 0.00154299
v 0.07019384 -0.05820487 0.03749607
v 0.07827373 -0.06856777 0.03703903
v 0.08192936 -0.04605399 0.00251077
v 0.07006754 -0.06860635 0.00060621
v 0.07514898 -0.04782291 0.03701520
v 0.07514267 -0.06860750 0.00086797
v 0.07199691 -0.04786656 0.03708648
v 0.07340238 -0.06342085 0.00098116
v 0.07030976 -0.04959905 0.03703300
f 6 1 3
f 6 3 4
f 7 2 3
f 7 3 1
f 8 2 7
f 9 5 8
f 10 8 5
f 10 9 4
f 10 5 9
f 11 6 4
f 11 4 9
f 12 9 8
f 13 10 4
f 13 4 3
f 14 11 9
f 14 9 12
f 15 1 6
f 15 6 12
f 15 12 8
f 15 8 7
f 15 7 1
f 16 13 3
f 16 3 2
f 17 8 10
f 17 10 13
f 18 14 12
f 18 12 6
f 18 6 11
f 19 2 8
f 19 8 17
f 19 16 2
f 19 13 16
f 20 18 11
f 20 14 18
f 21 19 17
f 21 17 13
f 21 13 19
f 22 20 11
f 22 11 14
f 22 14 20

