# https://github.com/mikedh/trimesh
v 0.07009616 -0.02525151 0.01990385
v 0.07009645 -0.02526607 0.00197035
v 0.07009182 0.01974591 0.00271258
v 0.04759616 0.01974849 0.01990385
v 0.04759616 -0.02525151 0.01990385
v 0.04757798 0.01974155 0.00227418
v 0.07009616 0.01974849 0.01990385
v 0.06659303 0.01971949 0.00262327
v 0.04759622 -0.02525695 0.00194271
v 0.07005398 0.01625754 0.00264804
f 5 2 1
f 5 1 4
f 6 4 3
f 6 5 4
f 7 3 4
f 7 4 1
f 7 1 2
f 7 2 3
f 8 6 3
f 8 2 6
f 9 6 2
f 9 2 5
f 9 5 6
f 10 8 3
f 10 3 2
f 10 2 8

