# https://github.com/mikedh/trimesh
v 0.08026686 -0.04602624 0.03620421
v 0.07953046 -0.04583096 0.02190023
v 0.08089900 -0.03735490 0.03608134
v 0.06008123 -0.03743929 0.03416995
v 0.05992011 -0.04610345 0.03469754
v 0.07981223 -0.03729607 0.02121735
v 0.05971154 -0.04602075 0.01990385
v 0.06356229 -0.04616510 0.03557831
v 0.05971154 -0.03736690 0.01990385
v 0.07373258 -0.04244595 0.01845962
v 0.08029740 -0.03737216 0.03618936
v 0.06360904 -0.03919320 0.03517091
v 0.06528094 -0.03744953 0.03544647
f 1 2 3
f 6 3 2
f 7 2 1
f 8 7 1
f 8 5 7
f 9 4 3
f 9 3 6
f 9 7 5
f 9 5 4
f 10 6 2
f 10 2 7
f 10 9 6
f 10 7 9
f 11 8 1
f 11 1 3
f 12 4 5
f 12 5 8
f 13 11 3
f 13 3 4
f 13 4 12
f 13 12 8
f 13 8 11

