# https://github.com/mikedh/trimesh
v -0.05451923 0.04224849 0.02336539
v -0.05450035 0.04224651 0.00687966
v -0.05451169 0.06476683 0.00646844
v -0.08344297 0.06260382 0.02339534
v -0.08260584 0.04226314 0.02407017
v -0.07702662 0.06302137 0.00615329
v -0.05451923 0.06474849 0.02336539
v -0.06663533 0.06477579 0.00651158
v -0.07715514 0.04226113 0.00686005
v -0.06663462 0.06474849 0.02336539
f 5 2 1
f 6 3 2
f 7 5 1
f 7 1 2
f 7 2 3
f 8 6 4
f 8 3 6
f 8 7 3
f 9 5 4
f 9 4 6
f 9 6 2
f 9 2 5
f 10 4 5
f 10 5 7
f 10 8 4
f 10 7 8

