# https://github.com/mikedh/trimesh
v -0.04413565 -0.08579407 0.01691533
v -0.04412526 -0.08489311 0.00349409
v -0.05451923 -0.05813613 0.02336539
v -0.08224352 -0.05813714 0.02437754
v -0.08220239 -0.08567011 0.01476038
v -0.07700249 -0.05814975 0.00496715
v -0.05268462 -0.08002141 0.02402884
v -0.04413462 -0.06852075 0.02336539
v -0.04406254 -0.08631786 0.01246961
v -0.05451545 -0.05814512 0.00455803
v -0.08720338 -0.05816055 0.01274131
v -0.07679917 -0.08359737 0.00438131
v -0.08219900 -0.08451919 0.01874163
v -0.04412447 -0.08042171 0.02359124
v -0.07691406 -0.08506550 0.00515634
v -0.08041460 -0.08574949 0.01489708
v -0.04412354 -0.06869474 0.00381691
v -0.07675572 -0.06692704 0.00454115
v -0.08223508 -0.07671498 0.02307699
v -0.04415824 -0.08502530 0.01795062
v -0.07507177 -0.08468010 0.00460669
v -0.08043736 -0.08559195 0.01597914
v -0.07174067 -0.06344766 0.00449425
v -0.06314723 -0.08538123 0.01747784
v -0.06143972 -0.06170961 0.00444309
f 8 3 4
f 8 4 7
f 10 3 8
f 10 6 4
f 10 4 3
f 11 4 6
f 13 11 5
f 14 8 7
f 14 9 8
f 14 1 9
f 14 7 13
f 15 2 9
f 15 5 11
f 15 11 12
f 16 9 1
f 16 15 9
f 16 5 15
f 17 9 2
f 17 8 9
f 17 10 8
f 18 12 11
f 18 11 6
f 18 2 12
f 19 13 7
f 19 7 4
f 19 4 11
f 19 11 13
f 20 14 13
f 20 13 1
f 20 1 14
f 21 15 12
f 21 12 2
f 21 2 15
f 22 13 5
f 22 5 16
f 22 16 1
f 23 6 10
f 23 18 6
f 23 17 2
f 23 2 18
f 24 22 1
f 24 1 13
f 24 13 22
f 25 23 10
f 25 10 17
f 25 17 23

