# https://github.com/mikedh/trimesh
v -0.04414616 0.06473511 0.03006934
v -0.04413462 0.06474849 0.01471154
v -0.04412841 0.08347137 0.02144131
v -0.08870067 0.08533114 0.01796667
v -0.08931663 0.06300620 0.01729618
v -0.05451775 0.08584275 0.00556425
v -0.08512374 0.07429224 0.03369617
v -0.04411463 0.08212380 0.02713901
v -0.06687341 0.06259726 0.03594535
v -0.04426913 0.08320912 0.01656645
v -0.05446872 0.08739762 0.01503240
v -0.08811487 0.08448120 0.00731793
v -0.08888380 0.08452510 0.02034548
v -0.06663549 0.06305126 0.00661532
v -0.08448116 0.06301606 0.03514179
v -0.07556611 0.06926723 0.03505878
v -0.04415923 0.07811172 0.02864647
v -0.05439340 0.08738502 0.01198168
v -0.08904475 0.06299351 0.02052467
v -0.08886403 0.08456449 0.00883151
v -0.08277003 0.07807263 0.03094321
v -0.08622274 0.06304638 0.00744337
v -0.05451169 0.06476683 0.00646844
v -0.07737430 0.07406228 0.03346564
v -0.08351022 0.06956742 0.03512005
v -0.08213632 0.08540333 0.00626105
v -0.06481759 0.08721357 0.01440144
v -0.08551149 0.07156526 0.03389094
v -0.08907480 0.08518855 0.01503954
v -0.08442737 0.07639244 0.03241994
v -0.08815144 0.08409455 0.02132821
v -0.08027266 0.06304889 0.00618191
v -0.08885770 0.08046883 0.00859440
v -0.05451438 0.07009314 0.00611633
v -0.07906640 0.07700639 0.03192492
v -0.08448055 0.06474682 0.03514074
v -0.08548351 0.07579900 0.03225904
v -0.08540325 0.06312741 0.03400631
v -0.05265056 0.08172558 0.02735083
v -0.08370948 0.07526694 0.00628946
v -0.07864447 0.08531234 0.00584234
v -0.07715942 0.06308693 0.00614052
v -0.08735712 0.06477314 0.00959763
v -0.08374911 0.08194247 0.00623753
v -0.08199649 0.08532625 0.00613520
f 8 1 2
f 8 2 3
f 9 2 1
f 10 3 2
f 10 2 6
f 11 8 3
f 13 11 4
f 13 8 11
f 14 2 9
f 17 9 1
f 17 1 8
f 17 16 9
f 18 10 6
f 18 11 3
f 18 3 10
f 19 13 5
f 19 5 9
f 19 9 15
f 22 9 5
f 23 2 14
f 24 7 16
f 24 17 8
f 24 16 17
f 25 9 16
f 25 16 7
f 26 18 6
f 26 12 20
f 27 4 11
f 27 11 18
f 27 18 26
f 28 13 19
f 28 25 7
f 29 20 5
f 29 5 13
f 29 13 4
f 29 26 20
f 29 27 26
f 29 4 27
f 31 8 13
f 31 30 21
f 31 13 30
f 32 14 9
f 32 9 22
f 33 20 12
f 33 12 22
f 33 5 20
f 34 6 2
f 34 2 23
f 35 24 8
f 35 7 24
f 35 30 7
f 35 8 21
f 35 21 30
f 36 15 9
f 36 9 25
f 36 28 15
f 36 25 28
f 37 28 7
f 37 13 28
f 37 30 13
f 37 7 30
f 38 28 19
f 38 19 15
f 38 15 28
f 39 31 21
f 39 21 8
f 39 8 31
f 40 32 22
f 40 22 12
f 41 26 6
f 41 32 40
f 42 23 14
f 42 14 32
f 42 34 23
f 42 6 34
f 42 41 6
f 42 32 41
f 43 33 22
f 43 22 5
f 43 5 33
f 44 40 12
f 44 41 40
f 45 44 12
f 45 12 26
f 45 26 41
f 45 41 44

