# https://github.com/mikedh/trimesh
v 0.08386717 -0.07956641 0.03386581
v 0.08543566 -0.07867439 0.03069366
v 0.07014253 -0.04604610 0.03679700
v 0.04735587 -0.04590938 0.03156338
v 0.04762141 -0.08002639 0.03015031
v 0.08606247 -0.06845873 0.03064195
v 0.08483626 -0.08000877 0.03041534
v 0.06381177 -0.07900819 0.03705754
v 0.06914831 -0.04553816 0.03662638
v 0.08569201 -0.06841129 0.03302437
v 0.08550136 -0.07858022 0.03173111
v 0.07809365 -0.07949986 0.03684403
v 0.04978828 -0.07352459 0.03340099
v 0.06356862 -0.06518947 0.03695308
v 0.08526695 -0.07690767 0.03277691
v 0.07029810 -0.05132345 0.03713716
v 0.07668471 -0.05819085 0.03705526
v 0.08301394 -0.06848045 0.03534782
v 0.04789579 -0.07905961 0.03219492
v 0.05848003 -0.05479410 0.03513825
v 0.04978042 -0.06000408 0.03341617
v 0.08273701 -0.07848268 0.03514101
v 0.06858865 -0.05133511 0.03694663
v 0.07827373 -0.06856777 0.03703903
v 0.06192384 -0.04619934 0.03519089
v 0.06534475 -0.05827284 0.03687648
v 0.06020049 -0.04967304 0.03509831
f 6 5 4
f 7 6 2
f 7 5 6
f 9 6 4
f 9 3 6
f 10 6 3
f 11 7 2
f 11 1 7
f 11 2 6
f 11 6 10
f 12 7 1
f 12 5 7
f 12 8 5
f 15 11 10
f 15 1 11
f 16 14 8
f 17 10 3
f 17 3 16
f 18 10 17
f 19 4 5
f 19 5 8
f 19 8 13
f 21 13 8
f 21 8 14
f 21 14 20
f 21 20 4
f 21 19 13
f 21 4 19
f 22 15 10
f 22 1 15
f 22 10 18
f 22 18 12
f 22 12 1
f 23 16 3
f 23 3 9
f 24 17 16
f 24 16 8
f 24 8 12
f 24 18 17
f 24 12 18
f 25 9 4
f 26 14 16
f 26 16 23
f 26 20 14
f 26 23 9
f 26 25 20
f 26 9 25
f 27 25 4
f 27 4 20
f 27 20 25

