# https://github.com/mikedh/trimesh
v -0.01994296 -0.08104798 0.02823812
v -0.01996905 -0.08060333 0.02973727
v -0.02340163 -0.08114488 0.02826159
v -0.02298518 -0.05792825 0.03282633
v -0.01959913 -0.05796952 0.03232244
v -0.02356107 -0.07864392 0.03220680
v -0.01934178 -0.06869484 0.03251373
v -0.02341244 -0.08069791 0.02975777
v -0.02348907 -0.05820376 0.03292439
v -0.02012733 -0.07866323 0.03178787
v -0.02277422 -0.06873556 0.03299035
v -0.02010302 -0.05824503 0.03242050
f 1 2 3
f 5 1 3
f 5 3 4
f 7 2 1
f 7 1 5
f 8 6 3
f 8 3 2
f 8 2 6
f 9 4 3
f 9 3 6
f 10 6 2
f 10 2 7
f 11 9 6
f 11 7 9
f 11 10 7
f 11 6 10
f 12 9 7
f 12 7 5
f 12 5 4
f 12 4 9

