# https://github.com/mikedh/trimesh
v 0.08342569 0.04222594 0.02418868
v 0.08831667 0.04225914 0.00503682
v 0.08801064 0.06461952 0.01795018
v -0.02014356 0.06432600 0.03168822
v -0.01987965 0.04224597 0.00467149
v 0.05984800 0.06485640 0.03669917
v 0.08817104 0.04223784 0.01821591
v -0.01632696 0.04222200 0.00442181
v -0.01981828 0.04232694 0.02713308
v -0.01987830 0.06474075 0.00488399
v 0.08380155 0.06480945 0.02370324
v 0.08906955 0.05607146 0.01282057
v 0.05973938 0.04225376 0.03363999
v 0.08705376 0.06470912 0.00433300
v -0.00773173 0.06483872 0.03246145
v 0.03034409 0.06495360 0.03546214
v 0.08912185 0.04224883 0.01193332
v -0.00764724 0.05986750 0.03191015
v 0.06013047 0.04405861 0.03382549
v 0.08691707 0.04225310 0.00415945
v -0.00945233 0.06471000 0.00442127
v 0.08840617 0.06475023 0.00491495
v 0.08874519 0.04223612 0.01475713
v 0.00970696 0.06183994 0.03350973
v -0.01288623 0.05606660 0.00443507
v 0.08902820 0.05606795 0.01174241
v 0.03032381 0.06335527 0.03521571
f 9 4 5
f 9 5 8
f 10 5 4
f 10 8 5
f 11 6 1
f 11 7 3
f 11 1 7
f 12 3 7
f 13 9 8
f 13 8 1
f 15 10 4
f 16 6 11
f 16 10 15
f 16 15 4
f 16 13 6
f 18 4 9
f 18 9 13
f 19 13 1
f 19 1 6
f 19 6 13
f 21 20 8
f 21 14 20
f 22 20 14
f 22 2 20
f 22 17 2
f 22 3 12
f 22 11 3
f 22 16 11
f 22 10 16
f 22 21 10
f 22 14 21
f 23 17 12
f 23 12 7
f 23 7 1
f 23 1 8
f 23 8 20
f 23 20 2
f 23 2 17
f 24 16 4
f 24 4 18
f 24 18 13
f 25 21 8
f 25 8 10
f 25 10 21
f 26 22 12
f 26 12 17
f 26 17 22
f 27 24 13
f 27 13 16
f 27 16 24

