# https://github.com/mikedh/trimesh
v 0.07011161 0.01974928 0.03716079
v 0.07009182 0.01974591 0.00271258
v 0.07038835 0.03012855 0.03726472
v 0.06029879 0.03017374 0.03349870
v 0.05939031 0.01971985 0.03288975
v 0.07008352 0.03012378 0.00294174
v 0.06899466 0.02324225 0.03687522
v 0.07029299 0.02323505 0.03724046
v 0.06659303 0.01971949 0.00262327
v 0.06903720 0.03009329 0.03688100
v 0.06556584 0.01977125 0.03558723
v 0.06139793 0.02837359 0.00263768
v 0.05971063 0.03013227 0.00263455
v 0.05968264 0.01973188 0.00247405
v 0.05967042 0.02836480 0.00259525
f 6 3 2
f 6 4 3
f 8 1 2
f 8 2 3
f 8 7 1
f 8 3 7
f 9 2 1
f 9 1 5
f 10 7 3
f 10 3 4
f 11 5 1
f 11 1 7
f 11 4 5
f 11 10 4
f 11 7 10
f 12 6 2
f 12 2 9
f 13 4 6
f 13 6 12
f 13 5 4
f 14 9 5
f 15 13 12
f 15 12 9
f 15 9 14
f 15 14 5
f 15 5 13

