# https://github.com/mikedh/trimesh
v -0.04433270 -0.01493465 0.03085669
v -0.04413462 -0.01486690 0.02336539
v -0.04337466 0.02005585 0.02907335
v -0.07602459 0.01973296 0.03849587
v -0.06663462 -0.01486690 0.02336539
v -0.06677267 0.01974163 0.03841539
v -0.04278683 -0.00083529 0.03007009
v -0.06678259 -0.01487536 0.03932643
v -0.08151162 0.01963206 0.02431538
v -0.06250879 0.01966920 0.03686228
v -0.05876989 -0.01494463 0.03722360
v -0.06695431 0.00240855 0.03900384
v -0.06663462 -0.00102074 0.02336539
v -0.07618030 0.00765924 0.03854185
v -0.08089142 0.00671760 0.02486250
v -0.06363402 -0.01490160 0.03880426
v -0.06374781 -0.00803041 0.03858430
v -0.06537577 0.00237388 0.03867968
f 5 2 1
f 6 3 4
f 7 1 2
f 7 2 3
f 9 3 2
f 9 4 3
f 10 7 3
f 10 3 6
f 11 8 5
f 11 5 1
f 11 1 7
f 11 7 10
f 11 10 6
f 12 6 4
f 12 4 8
f 13 9 2
f 13 2 5
f 13 5 9
f 14 8 4
f 14 4 9
f 15 9 5
f 15 5 8
f 15 14 9
f 15 8 14
f 16 12 8
f 16 8 11
f 17 16 11
f 17 11 6
f 18 6 12
f 18 12 16
f 18 17 6
f 18 16 17

