# https://github.com/mikedh/trimesh
v -0.04413462 -0.01486690 0.02336539
v -0.04413182 -0.01487211 0.00615477
v -0.04278683 -0.00083529 0.03007009
v -0.08783532 -0.00102889 0.02220499
v -0.08920117 -0.01486010 0.01947665
v -0.04413001 -0.00103318 0.00665850
v -0.08788358 -0.01487474 0.02224810
v -0.08507897 -0.00102349 0.00747113
v -0.08599942 -0.01487846 0.00793586
v -0.08920604 -0.00102802 0.01945380
v -0.08658977 -0.00102002 0.00857566
v -0.08610382 -0.00450160 0.00807780
v -0.08899998 -0.01486225 0.01653525
v -0.08891007 -0.00103412 0.01655946
v -0.08738939 -0.00102278 0.01125399
f 1 2 3
f 6 3 2
f 7 2 1
f 7 1 3
f 7 3 4
f 8 3 6
f 8 6 2
f 9 2 7
f 9 8 2
f 10 7 4
f 10 5 7
f 10 4 3
f 11 10 3
f 11 3 8
f 12 11 8
f 12 8 9
f 12 9 11
f 13 11 9
f 13 5 10
f 13 9 7
f 13 7 5
f 14 13 10
f 15 11 13
f 15 13 14
f 15 14 10
f 15 10 11

