# https://github.com/mikedh/trimesh
v -0.03028846 -0.06852075 0.02163462
v -0.03024285 -0.06863794 0.00352350
v -0.03024946 -0.02527939 0.00488919
v -0.04447597 -0.02547045 0.03210034
v -0.04412354 -0.06869474 0.00381691
v -0.03039477 -0.02538300 0.03054299
v -0.03020577 -0.04432700 0.00435546
v -0.04413462 -0.06852075 0.02163462
v -0.04407510 -0.02531615 0.00564133
v -0.04415572 -0.03737976 0.03365618
v -0.03032062 -0.03739688 0.03173301
v -0.03222001 -0.03755407 0.03196286
f 5 2 1
f 5 3 2
f 7 1 2
f 7 2 3
f 8 5 1
f 8 4 5
f 9 5 4
f 9 3 5
f 9 6 3
f 9 4 6
f 10 6 4
f 10 8 1
f 10 4 8
f 11 1 7
f 11 6 10
f 11 7 3
f 11 3 6
f 12 11 10
f 12 10 1
f 12 1 11

