# https://github.com/mikedh/trimesh
v 0.08203927 -0.02522970 0.01889893
v 0.08190473 -0.02528302 0.00276782
v 0.08213653 0.03012261 0.00365542
v 0.07009616 0.03013310 0.02163462
v 0.07009616 -0.02525151 0.01990385
v 0.08170203 0.03010276 0.02227100
v 0.07005465 0.01452724 0.00261952
v 0.08204366 -0.00102334 0.02194457
v 0.07840719 0.00585513 0.00280218
v 0.07009645 -0.02526607 0.00197035
v 0.07008352 0.03012378 0.00294174
v 0.07009616 -0.00102074 0.02163462
v 0.08023621 -0.00452395 0.00286021
v 0.07178445 0.01452657 0.00266043
f 1 2 3
f 5 2 1
f 6 3 4
f 8 1 3
f 8 3 6
f 8 5 1
f 10 2 5
f 10 5 7
f 10 9 2
f 11 7 4
f 11 4 3
f 11 3 9
f 12 8 6
f 12 6 4
f 12 5 8
f 12 7 5
f 12 4 7
f 13 9 3
f 13 3 2
f 13 2 9
f 14 10 7
f 14 9 10
f 14 11 9
f 14 7 11

