# https://github.com/mikedh/trimesh
v 0.03721982 -0.08052026 0.02667221
v 0.03720671 -0.08071683 0.01776395
v 0.03721154 -0.04602075 0.01817308
v 0.00081665 -0.04604828 0.02952782
v 0.00083674 -0.06852998 0.03044630
v 0.00086538 -0.04602075 0.01817308
v 0.03723742 -0.04603551 0.03007392
v 0.02509418 -0.08254251 0.01808713
v 0.00086538 -0.06852075 0.01817308
v 0.03732917 -0.07913241 0.03062030
v 0.03742818 -0.04787508 0.03022352
v 0.00081515 -0.06170449 0.03022237
v 0.02509591 -0.08069409 0.01784758
v 0.02511451 -0.07960832 0.02939959
v 0.02509140 -0.08054689 0.02660949
v 0.02517294 -0.07868412 0.03012341
f 6 3 2
f 7 6 4
f 7 3 6
f 8 2 1
f 9 4 6
f 9 8 5
f 10 1 2
f 11 7 4
f 11 5 10
f 11 3 7
f 11 10 2
f 11 2 3
f 12 9 5
f 12 4 9
f 12 11 4
f 12 5 11
f 13 9 6
f 13 6 2
f 13 2 8
f 13 8 9
f 14 1 10
f 15 8 1
f 15 1 14
f 15 14 5
f 15 5 8
f 16 14 10
f 16 10 5
f 16 5 14

