# https://github.com/mikedh/trimesh
v 0.07009788 0.03013295 0.03720587
v 0.07009616 0.03013310 0.02163462
v 0.07345517 0.06687863 0.01995016
v 0.05984800 0.06485640 0.03669917
v 0.05971154 0.03013310 0.02163462
v 0.07010476 0.06476284 0.03885993
v 0.06557671 0.03012592 0.03559138
v 0.05971154 0.06474849 0.02163462
v 0.07063895 0.03882328 0.03739644
v 0.06188200 0.06509619 0.03729140
v 0.06029879 0.03017374 0.03349870
f 1 2 3
f 5 3 2
f 7 5 2
f 7 2 1
f 7 1 4
f 8 5 4
f 8 4 3
f 8 3 5
f 9 6 1
f 9 1 3
f 9 3 6
f 10 6 3
f 10 3 4
f 10 4 1
f 10 1 6
f 11 7 4
f 11 4 5
f 11 5 7

