# https://github.com/mikedh/trimesh
v -0.01990385 -0.06852075 0.02163462
v -0.01988367 -0.06854603 0.00294769
v -0.01969941 -0.01492047 0.00429264
v -0.03030321 -0.01489314 0.02977421
v -0.03028846 -0.06852075 0.02163462
v -0.01993290 -0.01490745 0.02946582
v -0.03024285 -0.06863794 0.00352350
v -0.03032062 -0.03739688 0.03173301
v -0.03020925 -0.01493638 0.00542333
v -0.03037309 -0.02190882 0.03023741
v -0.01999397 -0.03746999 0.03084385
v -0.03020155 -0.04087559 0.00443491
f 1 2 3
f 6 1 3
f 6 3 4
f 7 2 1
f 7 1 5
f 7 3 2
f 8 5 1
f 8 6 4
f 9 4 3
f 10 7 5
f 10 5 8
f 10 8 4
f 10 9 7
f 10 4 9
f 11 8 1
f 11 1 6
f 11 6 8
f 12 9 3
f 12 3 7
f 12 7 9

