# https://github.com/mikedh/trimesh
v -0.03035368 0.04234091 0.02712129
v -0.03028846 0.04224849 0.01990385
v -0.03028743 0.08364534 0.01993037
v -0.04410451 0.08365318 0.02112751
v -0.04442762 0.04244204 0.02872969
v -0.04413462 0.04224849 0.01990385
v -0.03015662 0.07306862 0.03013432
v -0.04409507 0.08366675 0.02027329
v -0.03019808 0.05980926 0.03013905
v -0.03023127 0.08249362 0.02717014
v -0.04415923 0.07811172 0.02864647
v -0.03550085 0.08372368 0.02106346
v -0.04445681 0.05437539 0.03027808
v -0.04411463 0.08212380 0.02713901
v -0.03020553 0.07970743 0.02838062
v -0.03549118 0.08371001 0.02025185
v -0.04425618 0.06124828 0.03027904
f 6 3 2
f 6 2 1
f 6 1 5
f 7 2 3
f 8 3 6
f 8 6 5
f 9 1 2
f 9 2 7
f 9 5 1
f 12 8 4
f 12 10 3
f 12 4 10
f 13 8 5
f 13 4 8
f 13 5 9
f 14 10 4
f 14 13 11
f 14 4 13
f 15 11 7
f 15 14 11
f 15 10 14
f 15 7 3
f 15 3 10
f 16 12 3
f 16 3 8
f 16 8 12
f 17 7 11
f 17 11 13
f 17 13 9
f 17 9 7

