# https://github.com/mikedh/trimesh
v -0.04432637 0.01967093 0.02928494
v -0.04305742 0.02018415 0.02900281
v -0.06677267 0.01974163 0.03841539
v -0.06702970 0.06410911 0.03545788
v -0.06663462 0.06474849 0.02336539
v -0.04414616 0.06473511 0.03006934
v -0.06388191 0.01969804 0.03756853
v -0.06663462 0.01974849 0.02336539
v -0.06408499 0.05731081 0.03690059
v -0.04419590 0.06507215 0.03005003
v -0.04423124 0.06290578 0.03018549
v -0.04811144 0.01958602 0.03026154
v -0.06697759 0.05903838 0.03712959
v -0.06534290 0.05890852 0.03682968
f 7 1 2
f 8 5 2
f 8 2 1
f 8 3 4
f 8 4 5
f 8 7 3
f 9 3 7
f 10 5 4
f 10 9 6
f 10 6 2
f 10 2 5
f 11 7 2
f 11 2 6
f 11 9 7
f 11 6 9
f 12 8 1
f 12 1 7
f 12 7 8
f 13 4 3
f 13 3 9
f 14 10 4
f 14 4 13
f 14 13 9
f 14 9 10

