# https://github.com/mikedh/trimesh
v -0.08081987 -0.00105461 0.02482966
v -0.07708610 -0.00102804 0.00661816
v -0.07701923 0.06301772 0.01471154
v -0.08794034 0.06300517 0.02173557
v -0.08891007 -0.00103412 0.01655946
v -0.08622274 0.06304638 0.00744337
v -0.08344297 0.06260382 0.02339534
v -0.08783532 -0.00102889 0.02220499
v -0.07715942 0.06308693 0.00614052
v -0.08931663 0.06300620 0.01729618
v -0.08216616 -0.00102377 0.00677827
v -0.08263377 0.04225581 0.02444488
v -0.08740988 0.05088825 0.00991237
v -0.08904475 0.06299351 0.02052467
v -0.08027266 0.06304889 0.00618191
v -0.08639126 0.04217984 0.02320782
v -0.08733219 0.05954124 0.00988151
v -0.08609405 0.05093075 0.00756451
v -0.08920604 -0.00102802 0.01945380
v -0.08627589 -0.00103256 0.02344311
v -0.08886904 0.00592540 0.02073203
f 1 2 3
f 5 2 1
f 7 3 4
f 9 3 2
f 9 6 4
f 9 4 3
f 10 4 6
f 11 2 5
f 12 1 3
f 12 3 7
f 13 5 10
f 14 8 4
f 14 4 10
f 15 9 2
f 15 2 11
f 15 11 6
f 15 6 9
f 16 12 7
f 16 7 4
f 16 4 8
f 17 13 10
f 17 10 6
f 17 6 13
f 18 11 5
f 18 5 13
f 18 13 6
f 18 6 11
f 19 14 10
f 19 10 5
f 19 5 1
f 19 1 8
f 20 16 8
f 20 8 1
f 20 1 12
f 20 12 16
f 21 19 8
f 21 8 14
f 21 14 19

