# https://github.com/mikedh/trimesh
v 0.04760079 0.06481507 0.03509721
v 0.04759616 0.06474849 0.02163462
v 0.04757852 0.08266828 0.02197639
v 0.00097298 0.08244621 0.02917308
v 0.00094203 0.06476248 0.03300548
v 0.00086338 0.08363062 0.02162859
v 0.04762240 0.08057754 0.03417990
v 0.04755820 0.08194535 0.03012163
v 0.00086538 0.06474849 0.02163462
v 0.02182579 0.06991892 0.03535318
v 0.04769086 0.07680735 0.03540350
v 0.03893148 0.08175789 0.03149580
v 0.02342791 0.06497903 0.03524520
v 0.02186181 0.07927358 0.03334815
v 0.00798546 0.08222530 0.03004209
v 0.04759326 0.07329639 0.03562434
v 0.00111408 0.07630035 0.03177798
v 0.03724481 0.07653801 0.03525324
v 0.03384963 0.08071643 0.03347075
v 0.01329859 0.08096120 0.03153849
v 0.04233909 0.06506183 0.03530177
v 0.00809567 0.07298434 0.03331057
v 0.02696825 0.07477403 0.03521027
v 0.01670362 0.07775978 0.03335041
v 0.00108492 0.08105253 0.02994453
v 0.04756173 0.06672060 0.03533441
v 0.02188762 0.07301026 0.03510025
v 0.00284994 0.07778038 0.03148678
v 0.01327133 0.07643611 0.03333870
f 5 2 1
f 6 3 2
f 6 5 4
f 8 6 4
f 8 3 6
f 8 7 3
f 9 6 2
f 9 2 5
f 9 5 6
f 11 1 2
f 11 2 3
f 11 3 7
f 12 8 4
f 12 7 8
f 13 10 5
f 13 5 1
f 15 12 4
f 15 7 12
f 16 10 13
f 16 1 11
f 17 4 5
f 18 11 7
f 19 7 15
f 19 18 7
f 19 14 18
f 20 15 4
f 20 19 15
f 20 14 19
f 21 16 13
f 21 13 1
f 22 17 5
f 22 5 10
f 23 18 14
f 23 10 16
f 23 16 11
f 23 11 18
f 24 14 20
f 24 23 14
f 25 20 4
f 25 4 17
f 25 24 20
f 26 21 1
f 26 1 16
f 26 16 21
f 27 22 10
f 27 10 23
f 28 25 17
f 28 17 24
f 28 24 25
f 29 24 17
f 29 17 22
f 29 22 27
f 29 27 23
f 29 23 24

