# https://github.com/mikedh/trimesh
v 0.08569201 -0.06841129 0.03302437
v 0.08568586 -0.06845270 0.02924156
v 0.08782372 -0.00102220 0.03287674
v 0.08033688 -0.00100815 0.03632215
v 0.07977469 -0.06856434 0.02281477
v 0.08301394 -0.06848045 0.03534782
v 0.08725756 -0.04935722 0.03169586
v 0.08216795 -0.03895463 0.01809305
v 0.08575726 -0.05287628 0.03416158
v 0.08026816 -0.06853625 0.03647828
v 0.08407355 -0.06848662 0.02640572
v 0.08717677 -0.02174468 0.02655521
v 0.08054659 -0.00101921 0.02003688
v 0.08545755 -0.06325279 0.03403589
v 0.08669657 -0.00101902 0.03420636
v 0.08702600 -0.04592974 0.03262431
v 0.08103429 -0.06859169 0.02357336
v 0.08706703 -0.04417771 0.02927048
v 0.08701650 -0.03550254 0.02760234
v 0.08744721 -0.00095500 0.02633896
v 0.07975912 -0.03902078 0.02128332
v 0.08335968 -0.00101411 0.03562895
v 0.08714415 -0.04931541 0.03085227
v 0.08203445 -0.00102158 0.01941595
f 6 2 1
f 7 1 2
f 10 4 5
f 11 8 2
f 14 9 6
f 14 6 1
f 15 9 3
f 15 6 9
f 16 7 3
f 16 3 9
f 16 9 14
f 16 14 1
f 16 1 7
f 17 5 8
f 17 8 11
f 17 10 5
f 17 11 2
f 17 2 6
f 17 6 10
f 18 12 7
f 19 2 8
f 19 8 12
f 19 18 2
f 19 12 18
f 20 3 7
f 20 7 12
f 20 12 8
f 20 15 3
f 20 13 4
f 21 13 8
f 21 8 5
f 21 5 4
f 21 4 13
f 22 10 6
f 22 6 15
f 22 4 10
f 22 20 4
f 22 15 20
f 23 18 7
f 23 7 2
f 23 2 18
f 24 20 8
f 24 8 13
f 24 13 20

