# https://github.com/mikedh/trimesh
v -0.07861300 -0.07899340 0.03780923
v -0.07526646 -0.07892438 0.02454930
v -0.07524568 0.01282245 0.03865498
v -0.08465049 0.01978637 0.03374889
v -0.08682447 -0.07645649 0.02245600
v -0.08151162 0.01963206 0.02431538
v -0.08217713 -0.07666173 0.03734073
v -0.07511815 -0.07533805 0.03921991
v -0.08374686 -0.07940542 0.02873411
v -0.07602459 0.01973296 0.03849587
v -0.08701406 -0.00102543 0.02288487
v -0.08366116 -0.07826222 0.03462549
v -0.07522848 -0.07989469 0.02735526
v -0.07828985 -0.07536722 0.03868222
v -0.08299838 -0.07936731 0.02622878
v -0.08452687 0.01980782 0.02767745
v -0.08129616 0.01282299 0.03689492
v -0.08421780 0.01285172 0.03460137
v -0.08387698 -0.07926026 0.03184598
v -0.08124318 -0.07906301 0.03691578
v -0.07496768 -0.05820433 0.03894541
v -0.08141637 -0.07890931 0.02476710
v -0.08374840 0.01975007 0.02408807
v -0.08261061 -0.07897407 0.03590578
f 6 3 2
f 10 3 6
f 10 8 3
f 11 5 4
f 11 6 2
f 11 2 5
f 12 4 5
f 13 8 1
f 14 7 1
f 14 1 8
f 14 8 10
f 15 9 5
f 15 13 9
f 16 4 10
f 16 11 4
f 17 10 4
f 17 14 10
f 17 7 14
f 18 12 7
f 18 4 12
f 18 17 4
f 18 7 17
f 19 12 5
f 19 5 9
f 19 9 13
f 20 1 7
f 20 19 13
f 20 13 1
f 21 13 2
f 21 2 3
f 21 3 8
f 21 8 13
f 22 15 5
f 22 5 2
f 22 2 13
f 22 13 15
f 23 16 10
f 23 10 6
f 23 6 11
f 23 11 16
f 24 20 7
f 24 7 12
f 24 12 19
f 24 19 20

