# https://github.com/mikedh/trimesh
v -0.04413657 -0.08029501 0.03189720
v -0.04409191 -0.08097877 0.02425621
v -0.04413462 -0.06852075 0.02336539
v -0.07506007 -0.06850727 0.03939460
v -0.07887236 -0.07910137 0.03634000
v -0.04332342 -0.06873284 0.03630165
v -0.04412320 -0.08113873 0.02723870
v -0.08154054 -0.06940080 0.02433511
v -0.05657700 -0.06837076 0.03876679
v -0.06477610 -0.08054058 0.02709187
v -0.07861300 -0.07899340 0.03780923
v -0.07526646 -0.07892438 0.02454930
v -0.05483529 -0.07806711 0.03719274
v -0.07828985 -0.07536722 0.03868222
v -0.05603815 -0.08044439 0.02479291
v -0.05833268 -0.07342221 0.03867074
v -0.06163111 -0.07864830 0.03766240
v -0.05659955 -0.07009119 0.03863529
v -0.06342117 -0.07810234 0.03853503
v -0.05463243 -0.07886194 0.03625282
v -0.07679031 -0.07854615 0.03859210
v -0.07828623 -0.07693374 0.03852509
f 6 2 3
f 7 6 1
f 7 2 6
f 8 4 3
f 9 6 3
f 9 3 4
f 10 2 7
f 11 7 1
f 11 10 7
f 11 5 10
f 11 8 5
f 12 8 3
f 12 3 2
f 12 10 5
f 12 5 8
f 13 1 6
f 14 4 8
f 14 8 11
f 15 12 2
f 15 2 10
f 15 10 12
f 16 13 6
f 16 9 4
f 17 11 1
f 18 16 6
f 18 6 9
f 18 9 16
f 19 16 4
f 19 17 13
f 19 13 16
f 20 17 1
f 20 1 13
f 20 13 17
f 21 19 4
f 21 4 14
f 21 11 17
f 21 17 19
f 22 21 14
f 22 14 11
f 22 11 21

