# https://github.com/mikedh/trimesh
v -0.08890380 -0.00102232 0.01645614
v -0.08216616 -0.00102377 0.00677827
v -0.08532023 0.05174385 0.02169274
v -0.08658977 -0.00102002 0.00857566
v -0.08609405 0.05093075 0.00756451
v -0.08212409 0.05091047 0.00673241
v -0.08507897 -0.00102349 0.00747113
v -0.08740988 0.05088825 0.00991237
v -0.08616020 0.01110064 0.00807488
v -0.08728884 0.02495303 0.00981254
v -0.08905104 0.05090231 0.01646504
v -0.08738939 -0.00102278 0.01125399
f 1 2 3
f 6 5 3
f 6 3 2
f 6 2 5
f 7 5 2
f 7 2 1
f 8 5 4
f 8 3 5
f 9 7 4
f 9 4 5
f 9 5 7
f 10 8 4
f 10 1 8
f 11 8 1
f 11 1 3
f 11 3 8
f 12 10 4
f 12 1 10
f 12 7 1
f 12 4 7

