{"scene":0,"scenes":[{"nodes":[0]}],"asset":{"version":"2.0","generator":"https://github.com/mikedh/trimesh"},"accessors":[{"componentType":5125,"type":"SCALAR","bufferView":0,"count":84,"max":[83],"min":[0]},{"componentType":5126,"type":"VEC3","byteOffset":0,"bufferView":1,"count":84,"max":[2.7750000953674316,2.799999952316284,0.02500000037252903],"min":[-2.7750000953674316,0.0,-0.02500000037252903]},{"componentType":5126,"type":"VEC2","byteOffset":0,"bufferView":5,"count":84,"max":[5.550000190734863,1.0499999523162842],"min":[-5.550000190734863,-4.599999904632568]}],"meshes":[{"name":"geometry_0","extras":{"processed":true},"primitives":[{"attributes":{"POSITION":1,"TEXCOORD_0":2},"indices":0,"mode":4,"material":0}]}],"images":[{"bufferView":2,"mimeType":"image/png"},{"bufferView":3,"mimeType":"image/png"},{"bufferView":4,"mimeType":"image/png"}],"textures":[{"source":0},{"source":1},{"source":2}],"materials":[{"pbrMetallicRoughness":{"baseColorTexture":{"index":0},"metallicRoughnessTexture":{"index":2}},"doubleSided":false,"normalTexture":{"index":1}}],"nodes":[{"name":"world","children":[1]},{"name":"geometry_0","mesh":0}],"buffers":[{"uri":"gltf_buffer_0.bin","byteLength":336},{"uri":"gltf_buffer_1.bin","byteLength":1008},{"uri":"gltf_buffer_2.bin","byteLength":1420616},{"uri":"gltf_buffer_3.bin","byteLength":2334320},{"uri":"gltf_buffer_4.bin","byteLength":378636},{"uri":"gltf_buffer_5.bin","byteLength":672}],"bufferViews":[{"buffer":0,"byteOffset":0,"byteLength":336},{"buffer":1,"byteOffset":0,"byteLength":1008},{"buffer":2,"byteOffset":0,"byteLength":1420616},{"buffer":3,"byteOffset":0,"byteLength":2334320},{"buffer":4,"byteOffset":0,"byteLength":378636},{"buffer":5,"byteOffset":0,"byteLength":672}]}