# https://github.com/mikedh/trimesh
v -0.16192941 -0.13266543 0.27608282
v -0.15314967 -0.12385688 0.26366919
v -0.14978835 -0.12083998 0.30799058
v -0.17152001 -0.09440862 0.30917027
v -0.18242065 -0.11029820 0.26315463
v -0.15077406 -0.09494462 0.31149130
v -0.17722310 -0.12081691 0.30633692
v -0.16208696 -0.13536005 0.26146973
v -0.15260372 -0.11467267 0.26490681
v -0.15970552 -0.10493108 0.26639690
v -0.17088313 -0.12590316 0.30589381
v -0.18291330 -0.11191763 0.29245509
v -0.17676943 -0.09969834 0.30847240
v -0.15556235 -0.12492164 0.30666017
v -0.18453188 -0.12999305 0.26082825
v -0.17679718 -0.10505645 0.26416465
v -0.16651319 -0.09714174 0.28762451
v -0.15330741 -0.10878850 0.27319235
v -0.17849761 -0.13583088 0.26061724
v -0.18152887 -0.10770721 0.28550196
v -0.18127649 -0.12150327 0.29066524
v -0.15854328 -0.09763889 0.28820029
v -0.17147097 -0.09639861 0.29446389
v -0.17542410 -0.12589119 0.29773962
f 7 3 6
f 8 2 3
f 9 6 3
f 9 3 2
f 11 3 7
f 13 7 6
f 13 6 4
f 13 12 7
f 13 4 5
f 14 8 3
f 14 1 8
f 14 11 1
f 14 3 11
f 15 5 8
f 15 12 5
f 16 8 5
f 16 10 9
f 16 5 4
f 16 9 2
f 16 2 8
f 17 4 6
f 17 10 16
f 18 10 6
f 18 6 9
f 18 9 10
f 19 8 1
f 19 1 11
f 19 15 8
f 20 13 5
f 20 5 12
f 20 12 13
f 21 15 7
f 21 7 12
f 21 12 15
f 22 17 6
f 22 6 10
f 22 10 17
f 23 17 16
f 23 16 4
f 23 4 17
f 24 19 11
f 24 11 7
f 24 7 15
f 24 15 19

