# https://github.com/mikedh/trimesh
v -0.04557413 -0.21561019 0.50678545
v -0.04486248 -0.18799040 0.40210085
v -0.04585258 -0.17953790 0.50630599
v -0.11986170 -0.19259409 0.50298730
v -0.08854054 -0.18480283 0.42525760
v -0.11212865 -0.19703267 0.50766489
v -0.04444202 -0.20141432 0.44745972
v -0.09053095 -0.17644191 0.40087116
v -0.07448150 -0.21028329 0.50811846
v -0.11334761 -0.17717079 0.43078299
v -0.04477620 -0.21052267 0.48524892
v -0.05896131 -0.19287103 0.42545498
v -0.04694150 -0.18577052 0.39702909
v -0.09680049 -0.20312484 0.50802665
v -0.05938208 -0.20830060 0.48573949
v -0.11064163 -0.18472979 0.45564456
v -0.10552612 -0.17614250 0.41595642
v -0.07371213 -0.18500039 0.41070249
v -0.07406331 -0.20860584 0.50092003
v -0.05195294 -0.20023989 0.44766494
v -0.11022918 -0.19245812 0.48587038
v -0.09543249 -0.19237453 0.46324308
v -0.08854810 -0.17793737 0.40315540
v -0.07652525 -0.18035886 0.39943162
v -0.05896227 -0.18588699 0.40263532
v -0.09568920 -0.19992685 0.49349787
v -0.10325828 -0.17752345 0.41781759
v -0.11114045 -0.17845691 0.43245179
f 6 3 4
f 7 2 3
f 9 1 3
f 10 4 3
f 11 7 3
f 11 3 1
f 12 2 7
f 13 8 3
f 13 3 2
f 14 9 3
f 14 3 6
f 15 1 9
f 15 11 1
f 15 7 11
f 16 4 10
f 17 10 3
f 17 3 8
f 19 18 12
f 19 5 18
f 19 15 9
f 19 12 15
f 20 15 12
f 20 12 7
f 20 7 15
f 21 6 4
f 21 4 16
f 21 14 6
f 22 5 19
f 23 17 8
f 23 18 5
f 24 8 13
f 24 23 8
f 24 18 23
f 25 13 2
f 25 2 12
f 25 12 18
f 25 24 13
f 25 18 24
f 26 21 16
f 26 14 21
f 26 16 22
f 26 9 14
f 26 22 19
f 26 19 9
f 27 5 22
f 27 23 5
f 27 17 23
f 27 10 17
f 28 16 10
f 28 10 27
f 28 27 22
f 28 22 16

