# https://github.com/mikedh/trimesh
v 0.17392684 0.19299966 0.47750750
v 0.17494251 0.19352967 0.44539700
v 0.18281015 0.25112668 0.44677023
v 0.12266016 0.25147378 0.46806896
v 0.12164714 0.19352967 0.44539700
v 0.17345639 0.23611803 0.46894651
v 0.12161763 0.19347168 0.48295849
v 0.15646238 0.26098640 0.45041697
v 0.17342770 0.21497035 0.47454970
v 0.12117582 0.23626728 0.47496736
v 0.15849488 0.22918547 0.47388693
v 0.13636135 0.23600674 0.47421536
f 1 2 3
f 5 2 1
f 5 3 2
f 7 5 1
f 8 5 4
f 8 3 5
f 8 6 3
f 8 4 6
f 9 1 3
f 9 3 6
f 9 7 1
f 10 4 5
f 10 5 7
f 11 7 9
f 11 9 6
f 12 10 7
f 12 7 11
f 12 4 10
f 12 11 6
f 12 6 4

