# https://github.com/mikedh/trimesh
v 0.16742840 0.15534949 0.39910016
v 0.10642014 0.19352955 0.39975568
v 0.15689408 0.18984299 0.38373732
v 0.16769049 0.17778916 0.39978471
v 0.10641699 0.16307554 0.40002580
v 0.13698378 0.19342298 0.39971368
v 0.16733453 0.17829441 0.39983522
v 0.10988385 0.15962662 0.38325351
v 0.13911740 0.19142114 0.38384345
v 0.13686897 0.15547392 0.39946567
v 0.15938346 0.18631002 0.39974624
v 0.13815293 0.16939365 0.38611192
v 0.13703397 0.15509798 0.39944347
f 1 3 4
f 7 1 4
f 7 4 3
f 7 6 2
f 7 2 5
f 8 5 2
f 9 6 3
f 9 2 6
f 9 8 2
f 9 3 8
f 10 7 5
f 10 1 7
f 11 7 3
f 11 3 6
f 11 6 7
f 12 8 3
f 12 3 1
f 12 1 8
f 13 8 1
f 13 1 10
f 13 10 5
f 13 5 8

