# https://github.com/mikedh/trimesh
v -0.06871209 -0.08835951 0.39516173
v -0.04577474 -0.03490276 0.39715101
v -0.10685692 -0.08821111 0.39466395
v -0.10681912 -0.01203452 0.39535198
v -0.04919889 -0.00788569 0.38336781
v -0.12965848 -0.03488768 0.39487974
v -0.06866589 -0.08790067 0.39518976
v -0.04571624 -0.01206257 0.39682657
v -0.13044886 -0.08002138 0.38210696
v -0.12302046 -0.08393490 0.39402319
v -0.07612867 -0.01964407 0.38301543
v -0.12381620 -0.06465553 0.38317884
f 5 2 1
f 6 3 2
f 6 2 4
f 7 1 2
f 7 2 3
f 7 3 1
f 8 5 4
f 8 4 2
f 8 2 5
f 9 5 1
f 9 1 3
f 10 9 3
f 10 3 6
f 10 6 9
f 11 6 4
f 11 4 5
f 11 5 9
f 12 11 9
f 12 9 6
f 12 6 11

