# https://github.com/mikedh/trimesh
v 0.12172408 -0.08817747 0.39494284
v 0.12577222 -0.08227742 0.38753377
v 0.12169215 -0.03487013 0.39439824
v 0.06834071 -0.03493390 0.39663763
v 0.06847358 -0.06559289 0.39629840
v 0.07068771 -0.03224608 0.38324290
v 0.09883097 -0.08825164 0.39506976
v 0.06825363 -0.06512457 0.39633373
v 0.11684134 -0.05594952 0.38456724
v 0.11386701 -0.08816779 0.39481616
v 0.12437576 -0.07682959 0.38314440
v 0.10035872 -0.04286188 0.38503411
f 1 2 3
f 1 3 4
f 6 4 3
f 7 5 6
f 8 1 4
f 8 6 5
f 8 4 6
f 8 7 1
f 8 5 7
f 10 7 2
f 10 2 1
f 10 1 7
f 11 7 6
f 11 2 7
f 11 6 9
f 11 9 3
f 11 3 2
f 12 9 6
f 12 6 3
f 12 3 9

