# https://github.com/mikedh/trimesh
v 0.00736279 -0.13185333 0.47175812
v 0.00746386 -0.13361080 0.39332291
v 0.00744538 -0.01202886 0.39749752
v -0.11462550 -0.01222070 0.48579125
v -0.11213664 -0.13047208 0.39082000
v 0.00752445 -0.01245765 0.49077390
v -0.06931091 -0.13628327 0.48299821
v -0.11429561 -0.01204323 0.39521963
v -0.10786954 -0.12212022 0.48583159
v 0.00731243 -0.12369376 0.47533543
f 5 3 2
f 6 3 4
f 6 1 2
f 6 2 3
f 7 5 2
f 7 2 1
f 8 5 4
f 8 4 3
f 8 3 5
f 9 4 5
f 9 5 7
f 9 7 6
f 9 6 4
f 10 7 1
f 10 1 6
f 10 6 7

