# https://github.com/mikedh/trimesh
v 0.22563997 -0.11760741 0.60558311
v 0.23553275 -0.06405179 0.56016211
v 0.23476408 -0.03319027 0.60309267
v 0.19523277 -0.01551345 0.55829909
v 0.15171230 -0.10360466 0.56365645
v 0.23233198 -0.01415257 0.55890101
v 0.23495655 -0.08629748 0.60600826
v 0.22080535 -0.11484890 0.56075225
v 0.15676228 -0.11014880 0.60781885
v 0.23670519 -0.02238354 0.55871743
v 0.22421623 -0.02066696 0.59458714
v 0.22684038 -0.10022895 0.56065005
v 0.17425897 -0.06890415 0.55864281
v 0.19171068 -0.02405956 0.56552114
v 0.22878887 -0.10885895 0.60606896
v 0.23484925 -0.02495575 0.58048099
v 0.23016342 -0.02742888 0.60246295
v 0.22679240 -0.10776933 0.58348773
v 0.23493070 -0.07116970 0.56802958
v 0.19083057 -0.02337005 0.55829940
v 0.20219302 -0.02638252 0.60246933
v 0.23434203 -0.08616192 0.59844701
v 0.22874152 -0.02013231 0.58664911
v 0.20380985 -0.02163561 0.59364826
v 0.19202884 -0.03922215 0.60314412
v 0.19853332 -0.01971276 0.57956563
v 0.19239569 -0.03172377 0.58817126
v 0.19825319 -0.02626043 0.59462959
f 9 7 3
f 9 8 1
f 9 5 8
f 10 4 6
f 10 7 2
f 10 3 7
f 11 6 4
f 12 10 2
f 12 8 10
f 13 8 5
f 13 10 8
f 14 5 9
f 15 9 1
f 15 7 9
f 16 10 6
f 16 3 10
f 17 16 6
f 17 3 16
f 18 1 8
f 18 8 12
f 18 15 1
f 18 12 15
f 19 12 2
f 19 2 7
f 20 13 5
f 20 4 10
f 20 10 13
f 20 14 4
f 20 5 14
f 21 17 11
f 21 9 3
f 21 3 17
f 22 15 12
f 22 7 15
f 22 19 7
f 22 12 19
f 23 17 6
f 23 6 11
f 23 11 17
f 24 21 11
f 24 11 4
f 25 9 21
f 26 24 4
f 26 21 24
f 27 4 14
f 27 14 9
f 27 9 25
f 28 25 21
f 28 21 26
f 28 27 25
f 28 26 4
f 28 4 27

