# https://github.com/mikedh/trimesh
v -0.17483300 0.20764298 0.29489061
v -0.18351113 0.22532859 0.20326339
v -0.17497206 0.23216497 0.29337015
v -0.19498622 0.23709679 0.27661117
v -0.20768883 0.22058154 0.20192382
v -0.18770486 0.24190463 0.20198206
v -0.19850970 0.20826166 0.29360102
v -0.17652881 0.22963934 0.24834930
v -0.19359985 0.21705838 0.20322253
v -0.18496651 0.23814232 0.27725094
v -0.20883851 0.24192307 0.20064230
v -0.19827348 0.23259666 0.29177517
v -0.17673965 0.22054127 0.24923071
v -0.17643343 0.23325818 0.27088284
v -0.18356768 0.23632680 0.20280263
v -0.18776476 0.21735410 0.21157545
v -0.19519317 0.20888916 0.25584873
v -0.20429219 0.21787303 0.27695977
v -0.19967751 0.23730006 0.26114973
v -0.17691922 0.21394976 0.26452621
v -0.18540596 0.20937649 0.25666510
v -0.19928842 0.20986215 0.27084831
v -0.20366401 0.21759414 0.20261192
v -0.20356743 0.22864083 0.27645231
v -0.17542403 0.20881128 0.28768307
v -0.18348922 0.21675799 0.22709831
v -0.18153779 0.20975162 0.26489399
v -0.20395620 0.23317667 0.26096663
v -0.18353878 0.22222104 0.21147145
v -0.20623163 0.23802221 0.23049523
f 6 2 5
f 7 1 3
f 8 3 1
f 9 5 2
f 10 3 6
f 11 6 5
f 11 10 6
f 11 4 10
f 12 7 3
f 12 10 4
f 12 3 10
f 13 8 1
f 13 2 8
f 14 6 3
f 14 3 8
f 15 8 2
f 15 2 6
f 15 14 8
f 15 6 14
f 16 9 2
f 17 1 7
f 18 11 5
f 18 5 7
f 18 7 12
f 19 12 4
f 19 4 11
f 19 11 12
f 20 2 13
f 21 9 16
f 21 17 9
f 21 1 17
f 22 17 7
f 22 7 5
f 23 5 9
f 23 9 17
f 23 22 5
f 23 17 22
f 24 18 12
f 24 11 18
f 25 20 13
f 25 13 1
f 26 20 25
f 27 21 16
f 27 1 21
f 27 25 1
f 27 26 25
f 27 16 26
f 28 24 12
f 28 11 24
f 29 26 16
f 29 16 2
f 29 2 20
f 29 20 26
f 30 28 12
f 30 12 11
f 30 11 28

