# https://github.com/mikedh/trimesh
v 0.23182998 -0.01195708 0.45341882
v 0.22465018 -0.01178972 0.40039332
v 0.21353113 0.04899101 0.40222076
v 0.12926077 0.04887082 0.45301062
v 0.12926077 -0.01203817 0.45301062
v 0.21222893 0.04933303 0.45194628
v 0.22737780 0.00956006 0.41583337
v 0.12917541 -0.01199745 0.39449878
v 0.12927158 0.04899848 0.39677309
v 0.22787992 0.01413690 0.45286010
v 0.22748460 -0.01166005 0.41593752
v 0.22113608 0.02112343 0.40082819
v 0.22672213 0.01476913 0.42297909
f 5 1 4
f 8 2 1
f 8 1 5
f 8 5 4
f 9 6 3
f 9 4 6
f 9 8 4
f 10 6 4
f 10 4 1
f 10 1 7
f 10 3 6
f 11 7 1
f 11 1 2
f 11 2 7
f 12 7 2
f 12 3 7
f 12 9 3
f 12 2 8
f 12 8 9
f 13 10 7
f 13 7 3
f 13 3 10

