# https://github.com/mikedh/trimesh
v 0.20802978 0.04927657 0.46222602
v 0.21353113 0.04899101 0.40222076
v 0.21388394 0.12511569 0.45696569
v 0.18104662 0.12493579 0.47847019
v 0.18255374 0.04891473 0.39716088
v 0.20140075 0.12502120 0.46974976
v 0.21222893 0.04933303 0.45194628
v 0.18046130 0.04910400 0.47787288
v 0.21466488 0.12502686 0.40235874
v 0.21184957 0.06454373 0.45693484
v 0.18255450 0.12502721 0.39838882
v 0.18742816 0.12493775 0.47649764
v 0.20016386 0.04936306 0.46829403
v 0.18691681 0.04919647 0.47545333
f 6 1 3
f 6 3 4
f 7 1 2
f 7 2 3
f 8 5 2
f 8 2 1
f 9 3 2
f 9 2 5
f 10 7 3
f 10 3 1
f 10 1 7
f 11 8 4
f 11 5 8
f 11 9 5
f 11 4 3
f 11 3 9
f 12 6 4
f 12 4 8
f 13 1 6
f 14 12 8
f 14 6 12
f 14 13 6
f 14 8 1
f 14 1 13

