# https://github.com/mikedh/trimesh
v 0.19337034 -0.17646582 0.64577590
v 0.17522479 -0.09594298 0.65091531
v 0.17846164 -0.09780418 0.67295083
v 0.11553548 -0.15928844 0.65017080
v 0.11934800 -0.15644746 0.64871761
v 0.13113350 -0.15895414 0.68839721
v 0.17307620 -0.09933416 0.64976581
v 0.12484975 -0.16150962 0.68011934
v 0.17779032 -0.10517655 0.68821702
v 0.11645470 -0.16091208 0.65731304
v 0.15410936 -0.13923884 0.69431800
f 1 2 3
f 4 3 2
f 5 4 2
f 5 1 4
f 7 5 2
f 7 2 1
f 7 1 5
f 8 1 6
f 9 1 3
f 9 8 6
f 10 4 1
f 10 1 8
f 10 3 4
f 10 9 3
f 10 8 9
f 11 9 6
f 11 6 1
f 11 1 9

