# https://github.com/mikedh/trimesh
v 0.04468971 -0.27022018 0.77949065
v 0.04510837 -0.26042014 0.70483491
v 0.04665309 -0.20018361 0.70313777
v -0.04738807 -0.20195773 0.71033759
v -0.04491744 -0.26966215 0.75096057
v -0.04706992 -0.20046746 0.70304227
v 0.04684788 -0.21782246 0.76854476
v 0.02234520 -0.27017814 0.74385641
v 0.04726461 -0.20308458 0.71776407
v -0.04553455 -0.26076922 0.70477192
v -0.04604385 -0.23742353 0.78740483
v 0.04487079 -0.27016074 0.75843976
v -0.04475458 -0.27049732 0.77940825
v -0.04718568 -0.21024200 0.74739675
v -0.02999637 -0.26985409 0.74383262
v -0.03748866 -0.26191273 0.70608034
v 0.04575402 -0.23718951 0.78793827
v 0.04432003 -0.26236400 0.71370407
v -0.04726619 -0.21886212 0.76788632
v 0.04704033 -0.20957287 0.74764372
v 0.03708002 -0.26160976 0.70610629
v -0.04480993 -0.26264451 0.71355144
v -0.04495307 -0.26507801 0.78727322
v 0.03728822 -0.26993254 0.75091943
v -0.03732490 -0.26998184 0.78302919
v 0.04469729 -0.26546296 0.78709566
v 0.03708789 -0.26971395 0.78312725
f 6 3 2
f 9 6 4
f 9 3 6
f 9 7 2
f 9 2 3
f 10 4 6
f 10 6 2
f 12 7 1
f 12 2 7
f 13 12 1
f 13 8 12
f 15 13 5
f 15 8 13
f 16 8 15
f 17 1 7
f 17 7 11
f 18 2 12
f 19 10 5
f 19 5 13
f 19 11 7
f 19 7 14
f 19 14 4
f 19 4 10
f 20 9 4
f 20 4 14
f 20 14 7
f 20 7 9
f 21 8 16
f 21 18 8
f 21 2 18
f 21 16 10
f 21 10 2
f 22 16 15
f 22 15 5
f 22 5 10
f 22 10 16
f 23 17 11
f 23 19 13
f 23 11 19
f 24 18 12
f 24 12 8
f 24 8 18
f 25 23 13
f 25 13 1
f 26 1 17
f 26 17 23
f 26 23 25
f 27 26 25
f 27 25 1
f 27 1 26

