# https://github.com/mikedh/trimesh
v 0.18257579 -0.02728929 0.39297085
v 0.21901880 0.02394676 0.39976447
v 0.06834827 0.07938220 0.39783303
v 0.16439680 0.19068334 0.39269200
v 0.21720962 0.02323624 0.39392442
v 0.21479501 0.14769141 0.40287000
v 0.06778379 -0.01263428 0.39229660
v 0.16735831 0.18587428 0.40034047
v 0.21052971 0.18547390 0.39939407
v 0.09879186 -0.03489197 0.39471584
v 0.09878419 0.11744938 0.39871688
v 0.21232531 0.18587693 0.40068254
v 0.12154300 -0.03489967 0.39440128
v 0.06831538 -0.01195485 0.39502377
f 5 2 1
f 5 1 4
f 6 3 2
f 6 2 5
f 7 3 4
f 7 4 1
f 9 5 4
f 11 8 4
f 11 4 3
f 11 3 6
f 11 6 8
f 12 6 5
f 12 5 9
f 12 8 6
f 12 9 4
f 12 4 8
f 13 10 7
f 13 7 1
f 13 1 2
f 13 2 10
f 14 10 2
f 14 2 3
f 14 3 7
f 14 7 10

