# https://github.com/mikedh/trimesh
v -0.20332429 0.23500164 0.08871046
v -0.21404417 0.24994667 0.00055615
v -0.20516516 0.25458974 0.08758153
v -0.22065697 0.25388494 0.08589233
v -0.23072140 0.24852691 0.00010519
v -0.21778772 0.26254229 0.00085070
v -0.22204651 0.23703567 0.08716120
v -0.20665231 0.25247923 0.04290935
v -0.21635069 0.24031861 0.02834120
v -0.21637342 0.26157220 0.03372274
v -0.23100843 0.26132363 0.00022063
v -0.20716963 0.24418148 0.04403597
v -0.20641614 0.25539011 0.06516291
v -0.21457026 0.25884788 0.00003697
v -0.21852006 0.24586780 0.00019337
v -0.22432589 0.24096375 0.02786490
v -0.22407940 0.26107341 0.03279097
v -0.22810713 0.25184497 0.04840473
v -0.21242904 0.24007773 0.03640180
v -0.22972630 0.26121802 0.01052961
v -0.22705117 0.24376302 0.04963464
v -0.20631982 0.23790096 0.06665835
v -0.21403735 0.24533264 0.01359147
v -0.22790385 0.25611440 0.04023469
f 7 1 3
f 7 3 4
f 8 3 1
f 10 4 3
f 10 3 6
f 12 8 1
f 12 2 8
f 13 6 3
f 13 3 8
f 14 8 2
f 14 13 8
f 14 6 13
f 14 11 6
f 14 5 11
f 15 14 2
f 15 5 14
f 16 7 5
f 16 15 9
f 16 5 15
f 16 9 1
f 16 1 7
f 17 10 6
f 17 4 10
f 18 7 4
f 18 11 5
f 19 1 9
f 19 9 15
f 20 17 6
f 20 6 11
f 20 4 17
f 21 18 5
f 21 5 7
f 21 7 18
f 22 12 1
f 22 1 19
f 23 2 12
f 23 22 19
f 23 12 22
f 23 19 15
f 23 15 2
f 24 18 4
f 24 4 20
f 24 20 11
f 24 11 18

