# https://github.com/mikedh/trimesh
v 0.12874328 -0.20139269 0.55983374
v 0.22878371 -0.07110845 0.50720579
v 0.22869928 -0.09365588 0.56034995
v 0.16899661 -0.07886261 0.55796871
v 0.13249710 -0.10722733 0.50556672
v 0.23386054 -0.07253251 0.55979139
v 0.15425444 -0.18666777 0.56152901
v 0.12670252 -0.18990954 0.50752188
v 0.13508962 -0.11779594 0.55779094
v 0.15986417 -0.07901102 0.50498011
v 0.19788791 -0.14965080 0.56149356
v 0.12591247 -0.19597777 0.53066581
v 0.13886756 -0.18549851 0.51623849
v 0.14032458 -0.19539996 0.56125393
v 0.21123827 -0.12090988 0.52341412
v 0.13195965 -0.19298318 0.53137643
v 0.16807574 -0.16331015 0.50858611
v 0.14694724 -0.17864749 0.50843530
v 0.21929634 -0.09982346 0.50783418
v 0.21312825 -0.12895512 0.56093606
v 0.13273930 -0.18691665 0.50827133
v 0.13880108 -0.19284626 0.54663139
v 0.19050525 -0.15735361 0.56141455
v 0.20387492 -0.12690138 0.50848985
v 0.15344575 -0.18546862 0.55420085
v 0.22651366 -0.09261590 0.53800681
v 0.22080535 -0.11484890 0.56075225
v 0.17506367 -0.16361413 0.53134755
v 0.19685985 -0.14875616 0.55415043
v 0.21127016 -0.12774027 0.54603966
v 0.15352957 -0.17809989 0.52379264
v 0.22696641 -0.07787841 0.50743470
v 0.21877337 -0.10664984 0.52312354
v 0.21896703 -0.11391398 0.54580966
v 0.18967656 -0.15625822 0.55414246
f 6 3 2
f 6 2 4
f 7 6 4
f 9 4 5
f 10 5 4
f 10 4 2
f 10 8 5
f 10 2 8
f 11 3 6
f 11 6 7
f 12 5 8
f 12 9 5
f 12 1 9
f 14 7 4
f 14 4 9
f 14 9 1
f 16 12 8
f 16 1 12
f 18 8 17
f 19 8 2
f 21 16 8
f 21 13 16
f 21 18 13
f 21 8 18
f 22 14 1
f 22 1 16
f 22 16 13
f 22 18 14
f 22 13 18
f 23 11 7
f 24 19 15
f 24 17 8
f 24 8 19
f 25 7 14
f 25 14 18
f 26 2 3
f 27 3 11
f 27 11 20
f 27 26 3
f 28 23 7
f 29 24 11
f 29 11 23
f 30 20 11
f 30 11 24
f 30 24 15
f 30 15 20
f 31 25 18
f 31 18 17
f 31 7 25
f 31 28 7
f 31 17 28
f 32 26 19
f 32 19 2
f 32 2 26
f 33 19 26
f 33 26 27
f 33 15 19
f 34 27 20
f 34 20 15
f 34 33 27
f 34 15 33
f 35 28 17
f 35 17 24
f 35 24 29
f 35 29 23
f 35 23 28

