# https://github.com/mikedh/trimesh
v -0.03797589 0.07964281 0.39799199
v -0.04042624 0.07713404 0.38305015
v -0.06108065 0.14023192 0.39981613
v -0.09913696 0.14783146 0.40049967
v -0.09918179 0.08674453 0.39810984
v -0.10047617 0.13889718 0.38314077
v -0.03824352 0.10980696 0.39902960
v -0.07628846 0.07937433 0.39804029
v -0.09681246 0.13532428 0.38315137
v -0.10267014 0.14450486 0.38688854
v -0.09408195 0.11492740 0.38328844
v -0.03819297 0.10950602 0.39901735
v -0.06373922 0.08448775 0.38329357
v -0.09151951 0.14782700 0.40034681
f 7 3 4
f 7 4 1
f 7 2 3
f 8 2 1
f 8 1 4
f 8 4 5
f 9 6 3
f 9 3 2
f 9 2 6
f 10 3 6
f 10 6 5
f 10 5 4
f 11 6 2
f 11 5 6
f 12 7 1
f 12 1 2
f 12 2 7
f 13 8 5
f 13 2 8
f 13 11 2
f 13 5 11
f 14 10 4
f 14 4 3
f 14 3 10

