# https://github.com/mikedh/trimesh
v 0.12161763 0.19347168 0.48295849
v 0.12336286 0.19690115 0.48246427
v -0.06841376 0.21470050 0.48231805
v -0.12371603 0.23099186 0.47592302
v 0.12279888 0.23016090 0.47670755
v -0.12162545 0.19243145 0.48346370
v 0.04535588 0.21484720 0.48292403
v -0.12168496 0.22288940 0.47827492
v 0.09840493 0.20752065 0.48240082
v 0.11359312 0.19266426 0.48351836
v -0.09875221 0.20738720 0.48239343
v -0.12340101 0.19779771 0.48260507
v 0.12141526 0.22276916 0.47870150
v 0.11361071 0.20010053 0.48265136
v -0.12157424 0.19989030 0.48239045
v 0.07560502 0.21491303 0.48221762
f 5 2 1
f 5 1 4
f 6 4 1
f 7 3 6
f 7 5 4
f 7 4 3
f 8 3 4
f 10 7 6
f 10 6 1
f 10 1 2
f 11 6 3
f 11 3 8
f 12 8 4
f 12 4 6
f 13 2 5
f 14 10 2
f 14 9 10
f 14 13 9
f 14 2 13
f 15 11 8
f 15 8 12
f 15 12 6
f 15 6 11
f 16 13 5
f 16 5 7
f 16 9 13
f 16 10 9
f 16 7 10

