# https://github.com/mikedh/trimesh
v -0.04558685 -0.23874663 0.60566317
v -0.04557413 -0.21561019 0.50678545
v -0.04639718 -0.14498333 0.50564050
v -0.11853990 -0.14003452 0.58821945
v -0.11262686 -0.22096616 0.60629680
v -0.11212865 -0.19703267 0.50766489
v -0.04714356 -0.17100626 0.60326428
v -0.04474798 -0.23227774 0.57670791
v -0.06309102 -0.14198649 0.50477326
v -0.08114961 -0.20840226 0.50863413
v -0.04713536 -0.15130965 0.53424413
v -0.10390743 -0.22460753 0.60720369
v -0.11719080 -0.14564675 0.60404157
v -0.04482490 -0.21785363 0.51568914
v -0.11001335 -0.12536713 0.50797318
v -0.05932907 -0.22307604 0.54672805
v -0.04760443 -0.16604796 0.58721610
v -0.07443057 -0.23364265 0.60684377
v -0.10307936 -0.20105348 0.50856138
v -0.05937243 -0.21570672 0.51621470
v -0.05189549 -0.23128254 0.57690647
v -0.08846355 -0.22286756 0.57720205
v -0.07444290 -0.23198798 0.59964450
v -0.11019301 -0.21504492 0.57725346
v -0.09549393 -0.20763367 0.52413282
v -0.11020617 -0.20007139 0.51644139
v -0.09558875 -0.21503256 0.55441188
v -0.10336496 -0.22309656 0.59996387
f 6 5 4
f 8 7 1
f 8 3 7
f 9 3 2
f 9 2 6
f 10 6 2
f 11 7 3
f 11 3 4
f 13 7 4
f 13 4 5
f 13 5 12
f 14 2 3
f 14 3 8
f 15 9 6
f 15 6 4
f 15 4 3
f 15 3 9
f 16 14 8
f 16 2 14
f 17 11 4
f 17 4 7
f 17 7 11
f 18 1 7
f 18 13 12
f 18 7 13
f 19 6 10
f 20 16 10
f 20 10 2
f 20 2 16
f 21 16 8
f 21 8 1
f 21 18 16
f 21 1 18
f 22 18 12
f 23 10 16
f 23 16 18
f 23 22 10
f 23 18 22
f 24 12 5
f 24 5 6
f 25 19 10
f 26 24 6
f 26 6 19
f 26 19 24
f 27 24 19
f 27 19 25
f 27 25 10
f 27 10 22
f 28 12 24
f 28 24 27
f 28 27 22
f 28 22 12

