# https://github.com/mikedh/trimesh
v -0.04475458 -0.27049732 0.77940825
v -0.04553455 -0.26076922 0.70477192
v -0.04706992 -0.20046746 0.70304227
v -0.10996058 -0.18555554 0.73319840
v -0.10327517 -0.25322454 0.72930857
v -0.04726619 -0.21886212 0.76788632
v -0.04480993 -0.26264451 0.71355144
v -0.09763861 -0.24643416 0.78695098
v -0.10718822 -0.18034200 0.70408331
v -0.04604385 -0.23742353 0.78740483
v -0.04718568 -0.21024200 0.74739675
v -0.04495307 -0.26507801 0.78727322
v -0.08179467 -0.26114954 0.73667872
v -0.10346190 -0.25594328 0.78020259
v -0.09448522 -0.18610759 0.70284564
v -0.10382142 -0.24781433 0.70607458
v -0.10916423 -0.20136251 0.76722385
v -0.04770621 -0.20344800 0.71763291
v -0.10954339 -0.19317599 0.75518954
v -0.06678901 -0.26110557 0.72155071
v -0.08188227 -0.25758555 0.78604971
v -0.08911160 -0.26206591 0.75126046
v -0.08166061 -0.25445055 0.70627936
v -0.06233141 -0.22554341 0.77994809
v -0.10823195 -0.21519238 0.77936059
v -0.05224201 -0.26175090 0.71377239
v -0.05253847 -0.26973223 0.75856613
v -0.08130472 -0.26328738 0.78131197
v -0.09849787 -0.23432595 0.78700683
v -0.04500778 -0.27051731 0.75847580
v -0.05242594 -0.26487267 0.78661144
v -0.08891361 -0.26194101 0.77801057
v -0.05202854 -0.26956520 0.77875356
f 7 2 3
f 9 4 3
f 11 10 3
f 11 6 10
f 12 7 3
f 12 1 7
f 12 3 10
f 15 9 3
f 15 3 2
f 16 4 9
f 16 5 14
f 16 15 2
f 16 9 15
f 18 11 3
f 18 3 4
f 18 4 11
f 19 11 4
f 19 6 11
f 19 17 6
f 19 4 17
f 21 12 8
f 21 8 14
f 22 14 5
f 22 5 13
f 23 13 5
f 23 5 16
f 23 20 13
f 23 16 2
f 23 2 20
f 24 10 6
f 24 6 17
f 25 24 17
f 25 10 24
f 25 14 8
f 25 16 14
f 25 17 4
f 25 4 16
f 26 20 2
f 26 2 7
f 27 22 13
f 27 13 20
f 27 26 7
f 27 20 26
f 28 21 14
f 29 25 8
f 29 10 25
f 29 12 10
f 29 8 12
f 30 27 7
f 30 7 1
f 30 1 27
f 31 28 1
f 31 1 12
f 31 12 21
f 31 21 28
f 32 28 14
f 32 14 22
f 32 22 27
f 33 32 27
f 33 27 1
f 33 1 28
f 33 28 32

