# https://github.com/mikedh/trimesh
v 0.10619909 0.01090050 0.48873548
v 0.10641989 0.01080270 0.45301062
v 0.10641989 0.12500706 0.45301062
v 0.07593802 0.12498815 0.49038467
v 0.07596540 0.01080270 0.45301062
v 0.10623473 0.12493137 0.48876861
v 0.07631668 0.01053873 0.49066659
v 0.07596540 0.12500706 0.45301062
v 0.07559023 0.01869824 0.49100111
v 0.07594667 0.01081677 0.49069483
v 0.07566280 0.10195423 0.49102717
v 0.08318581 0.01871181 0.49063111
v 0.08319128 0.10204990 0.49066455
v 0.08315979 0.04887539 0.49105911
f 5 3 2
f 6 3 4
f 6 1 2
f 6 2 3
f 7 5 2
f 7 2 1
f 8 4 3
f 8 3 5
f 9 8 5
f 10 9 5
f 10 5 7
f 10 7 9
f 11 4 8
f 11 8 9
f 12 9 7
f 12 7 1
f 13 6 4
f 13 4 11
f 14 13 11
f 14 11 9
f 14 9 12
f 14 12 1
f 14 1 6
f 14 6 13

