# https://github.com/mikedh/trimesh
v -0.17502787 -0.07283272 0.55964027
v -0.17423245 -0.07168424 0.39309398
v -0.17233773 -0.01076118 0.47555729
v -0.23008420 -0.01688748 0.55814670
v -0.23458294 -0.07255228 0.55974997
v -0.22651536 -0.01184214 0.40037106
v -0.19696495 -0.01804538 0.55760836
v -0.23639449 -0.06425934 0.56012734
v -0.17527428 -0.01192853 0.39469918
v -0.23587274 -0.01312639 0.46840703
v -0.21310933 -0.06974668 0.40199345
v -0.19191206 -0.02524338 0.55749146
v -0.23391443 -0.02333808 0.55851232
v -0.22858946 -0.01128090 0.40880233
v -0.22665080 -0.04783788 0.43174521
v -0.23441893 -0.01612167 0.52800320
v -0.23477755 -0.06399063 0.53744677
v -0.23545733 -0.01881116 0.46878265
v -0.22719552 -0.06996718 0.47709651
v -0.22705797 -0.02565591 0.40951226
v -0.23528850 -0.02649308 0.47644080
v -0.21878859 -0.06923750 0.42447573
v -0.23478762 -0.05635039 0.52217272
v -0.21895447 -0.05445605 0.40248470
f 1 2 3
f 5 2 1
f 7 3 4
f 8 5 1
f 9 3 2
f 9 2 6
f 10 4 3
f 11 6 2
f 11 2 5
f 12 7 1
f 12 1 3
f 12 3 7
f 13 8 1
f 13 7 4
f 13 1 7
f 14 9 6
f 14 3 9
f 14 10 3
f 16 10 8
f 16 8 13
f 16 13 4
f 16 4 10
f 17 5 8
f 18 10 14
f 19 11 5
f 19 5 17
f 20 14 6
f 20 18 14
f 20 15 18
f 21 18 15
f 21 8 10
f 21 10 18
f 22 19 15
f 22 11 19
f 23 19 17
f 23 15 19
f 23 21 15
f 23 17 8
f 23 8 21
f 24 20 6
f 24 6 11
f 24 15 20
f 24 22 15
f 24 11 22

