# https://github.com/mikedh/trimesh
v -0.12198056 0.19350470 0.48329198
v -0.12340101 0.19779771 0.48260507
v -0.15469137 0.19750895 0.48040530
v -0.15515749 0.24769956 0.46421278
v -0.12342516 0.24877758 0.46772414
v -0.15222369 0.19326379 0.48114651
v -0.12139398 0.23576463 0.47443992
v -0.15145236 0.22884243 0.47409982
v -0.15173822 0.23674378 0.47106308
v -0.12897885 0.23559801 0.47400364
f 1 2 3
f 5 1 4
f 6 1 3
f 6 3 4
f 6 4 1
f 7 2 1
f 7 1 5
f 8 3 2
f 8 2 7
f 8 4 3
f 9 5 4
f 9 4 8
f 10 9 8
f 10 8 7
f 10 7 5
f 10 5 9

