# https://github.com/mikedh/trimesh
v 0.09883249 0.10204873 0.39836009
v 0.13687967 0.14023671 0.39892970
v 0.13687755 0.16307151 0.39981606
v 0.09880403 0.16307546 0.39995465
v 0.04917403 0.09853390 0.38250046
v 0.03789782 0.14023294 0.39976201
v 0.12166587 0.11725712 0.39857128
v 0.13248236 0.16761548 0.38353419
v 0.03796572 0.14777367 0.39993561
v 0.04550364 0.10221123 0.39844462
v 0.07150309 0.10652461 0.38357458
v 0.06073897 0.15546066 0.39980951
v 0.10527860 0.15662285 0.38460252
v 0.03789922 0.14784583 0.39993688
f 6 1 3
f 7 2 3
f 7 3 1
f 8 3 2
f 8 2 7
f 8 4 3
f 9 6 3
f 9 3 4
f 10 6 5
f 10 5 1
f 10 1 6
f 11 7 1
f 11 1 5
f 11 8 7
f 11 5 8
f 12 4 8
f 13 8 5
f 14 5 6
f 14 6 9
f 14 13 5
f 14 8 13
f 14 12 8
f 14 9 4
f 14 4 12

