# https://github.com/mikedh/trimesh
v -0.17383422 -0.09968658 0.64190656
v -0.16855174 -0.09642045 0.60509986
v -0.19647920 -0.03896323 0.60331999
v -0.21980978 -0.02604430 0.60248485
v -0.23321694 -0.09487198 0.60561422
v -0.20877470 -0.02701586 0.60202020
v -0.23604701 -0.06155749 0.64889229
v -0.17520324 -0.08509788 0.60402494
v -0.20551510 -0.05105086 0.64628164
v -0.23783340 -0.09478011 0.65138264
v -0.23741618 -0.04570216 0.60402449
v -0.19938925 -0.05770083 0.64709519
v -0.20502885 -0.03580895 0.61619443
v -0.20982717 -0.04438547 0.63844430
v -0.22992942 -0.03222851 0.60342846
v -0.23544938 -0.08644862 0.60610261
v -0.18356616 -0.08502699 0.64928276
v -0.19946964 -0.04165240 0.61682655
v -0.21039290 -0.02921930 0.60843918
v -0.22884887 -0.05098323 0.64660884
v -0.23479947 -0.04853591 0.62545159
v -0.23476296 -0.09298343 0.61394407
v -0.17736108 -0.09699828 0.65053081
v -0.21942383 -0.02876288 0.60883609
v -0.22368421 -0.04411061 0.63873688
v -0.23518330 -0.05589201 0.64079272
v -0.22322218 -0.03655677 0.62382314
v -0.22866581 -0.04348242 0.63175397
v -0.22911137 -0.03402835 0.60991467
f 1 2 3
f 5 2 1
f 6 5 4
f 8 6 3
f 8 3 2
f 8 2 5
f 8 5 6
f 10 5 1
f 11 4 5
f 11 10 7
f 12 9 7
f 13 3 6
f 14 9 13
f 15 4 11
f 16 11 5
f 16 10 11
f 17 3 12
f 18 12 3
f 18 3 13
f 18 13 9
f 18 9 12
f 19 6 4
f 19 14 13
f 19 13 6
f 20 7 9
f 21 15 11
f 22 16 5
f 22 5 10
f 22 10 16
f 23 1 3
f 23 3 17
f 23 10 1
f 23 7 10
f 23 17 12
f 23 12 7
f 24 19 4
f 24 14 19
f 25 20 9
f 25 9 14
f 25 14 24
f 26 21 11
f 26 11 7
f 26 7 20
f 27 25 24
f 27 24 4
f 28 26 20
f 28 20 25
f 28 25 27
f 29 27 4
f 29 4 15
f 29 28 27
f 29 26 28
f 29 15 21
f 29 21 26

