# https://github.com/mikedh/trimesh
v 0.16728592 -0.07299198 0.37687543
v 0.16620800 -0.07500058 0.34667075
v 0.16384512 -0.07012031 0.37705071
v 0.14061829 -0.07090771 0.37892892
v 0.14159328 -0.07698051 0.36359070
v 0.15474557 -0.07394692 0.34892982
v 0.13829276 -0.07415948 0.37745857
v 0.16543919 -0.07440158 0.34833238
v 0.15276357 -0.07510359 0.34704827
v 0.14399226 -0.07392418 0.36531449
f 1 2 3
f 1 3 4
f 5 2 1
f 6 4 3
f 7 5 1
f 7 1 4
f 7 4 5
f 8 6 3
f 8 3 2
f 8 2 6
f 9 4 6
f 9 6 2
f 9 2 5
f 10 9 5
f 10 5 4
f 10 4 9

