# https://github.com/mikedh/trimesh
v 0.19386971 0.00825659 0.47566674
v 0.19485645 0.01033425 0.46387840
v 0.19181377 0.12505603 0.47471133
v 0.10623473 0.12493137 0.48876861
v 0.10641989 0.01080270 0.45301062
v 0.19766078 0.01202043 0.48197568
v 0.10641989 0.12500706 0.45301062
v 0.15856735 0.12482650 0.48325064
v 0.10619909 0.01090050 0.48873548
v 0.20051720 0.04789751 0.46795391
v 0.18104662 0.12493579 0.47847019
f 5 2 1
f 6 1 2
f 7 2 5
f 7 4 3
f 8 4 6
f 9 5 1
f 9 1 6
f 9 6 4
f 9 7 5
f 9 4 7
f 10 6 2
f 10 3 6
f 10 7 3
f 10 2 7
f 11 8 6
f 11 6 3
f 11 3 4
f 11 4 8

