# https://github.com/mikedh/trimesh
v -0.09914399 0.10976478 0.39874743
v -0.09540236 0.11315429 0.38724811
v -0.09913473 0.15544173 0.40065942
v -0.15247818 0.20109833 0.40120607
v -0.17539665 0.14766952 0.39959582
v -0.15867453 0.20275829 0.37872357
v -0.12201209 0.10960573 0.39875143
v -0.16767885 0.17822730 0.40089844
v -0.10414565 0.14288020 0.38321289
v -0.14488175 0.20111171 0.40143507
v -0.09765083 0.11885475 0.38322609
v -0.17552101 0.15511522 0.39977299
v -0.15780807 0.18061218 0.38333695
f 1 2 3
f 7 2 1
f 7 1 3
f 8 4 6
f 8 7 3
f 8 5 7
f 9 6 3
f 10 6 4
f 10 3 6
f 10 8 3
f 10 4 8
f 11 7 5
f 11 2 7
f 11 6 9
f 11 9 3
f 11 3 2
f 12 8 6
f 12 6 5
f 12 5 8
f 13 11 5
f 13 5 6
f 13 6 11

