# https://github.com/mikedh/trimesh
v 0.17434448 0.12496124 0.48044806
v 0.17492635 0.12503465 0.39840035
v 0.17498312 0.19345606 0.40052240
v 0.06820878 0.19289153 0.48558189
v 0.06834099 0.12503149 0.39903170
v 0.17392684 0.19299966 0.47750750
v 0.15856735 0.12482650 0.48325064
v 0.06835292 0.19352957 0.40000520
v 0.06833622 0.12499632 0.49068435
v 0.15863481 0.15512464 0.48247492
v 0.12875008 0.19256399 0.48263568
v 0.15105792 0.17020231 0.48268554
f 1 2 3
f 6 1 3
f 7 5 2
f 7 2 1
f 8 3 2
f 8 2 5
f 8 5 4
f 8 6 3
f 8 4 6
f 9 4 5
f 9 5 7
f 10 7 1
f 10 1 6
f 10 9 7
f 11 6 4
f 11 4 9
f 12 10 6
f 12 6 11
f 12 11 9
f 12 9 10

