# https://github.com/mikedh/trimesh
v -0.10434384 -0.25688924 0.77821722
v -0.10437241 -0.24928727 0.71334819
v -0.11022520 -0.17845385 0.70282396
v -0.22000730 -0.15500782 0.73817089
v -0.17560924 -0.21693821 0.74325386
v -0.22279248 -0.15351695 0.70494694
v -0.11715943 -0.20208954 0.77200755
v -0.13235702 -0.24602194 0.75129802
v -0.16896293 -0.21468731 0.77108328
v -0.10620829 -0.24658145 0.70460165
v -0.13452142 -0.16277999 0.70272978
v -0.21198454 -0.17385012 0.74179151
v -0.10823195 -0.21519238 0.77936059
v -0.10426583 -0.25608400 0.74390856
v -0.15433975 -0.23306296 0.76945034
v -0.17524803 -0.20887409 0.70655892
v -0.11806780 -0.24597291 0.72172999
v -0.11968602 -0.17287998 0.70237012
v -0.11110460 -0.18894342 0.74624804
v -0.20514313 -0.18035210 0.71348495
v -0.21867137 -0.16122677 0.73842424
v -0.14148586 -0.23083849 0.77925108
v -0.19544146 -0.15976399 0.75605104
v -0.11108846 -0.25459676 0.77746546
v -0.14698743 -0.23909907 0.75821064
v -0.18218029 -0.21084238 0.76040784
v -0.19779581 -0.18719241 0.70612001
v -0.11109316 -0.24690039 0.71389918
v -0.15436794 -0.22417422 0.70640735
v -0.11093155 -0.25370195 0.74393881
v -0.14361671 -0.16524837 0.73840362
v -0.11036515 -0.19512761 0.75941384
v -0.21223142 -0.17342831 0.72776634
v -0.19774730 -0.18500161 0.75745366
v -0.10495600 -0.25207601 0.78270264
v -0.16449648 -0.16489084 0.75711646
v -0.14412031 -0.21158511 0.77909196
v -0.20787880 -0.15746647 0.75042921
v -0.13962433 -0.24104841 0.77404406
v -0.17563349 -0.21709728 0.76294623
v -0.13246933 -0.24653103 0.77072384
v -0.21973550 -0.15858395 0.70566386
v -0.18302196 -0.20955114 0.73676469
v -0.12551180 -0.23926366 0.70631564
v -0.15410354 -0.23135492 0.73638202
v -0.11156228 -0.18097220 0.71749690
v -0.19035798 -0.20251763 0.74291554
v -0.21511028 -0.15639105 0.74458466
v -0.17270224 -0.19629726 0.77132863
v -0.18238603 -0.20552839 0.76454802
v -0.18964965 -0.20304685 0.75673621
v -0.11817492 -0.24930810 0.77967997
v -0.16701472 -0.19041138 0.77127330
v -0.14274884 -0.17294725 0.75145909
v -0.11808392 -0.19531664 0.76468086
v -0.14683147 -0.23904116 0.76479956
v -0.16134035 -0.22339862 0.72186882
v -0.14699422 -0.23041115 0.71429956
v -0.20091436 -0.16596657 0.75577233
v -0.13910034 -0.19318564 0.77105181
f 1 2 3
f 10 3 2
f 11 6 4
f 13 1 3
f 14 2 1
f 18 10 6
f 18 6 11
f 18 11 3
f 18 3 10
f 21 4 6
f 22 9 15
f 24 14 1
f 27 6 10
f 28 10 2
f 29 27 10
f 29 16 27
f 30 8 17
f 30 24 8
f 30 14 24
f 30 17 28
f 30 28 2
f 30 2 14
f 31 11 23
f 32 13 3
f 32 3 19
f 32 7 13
f 32 19 31
f 33 21 6
f 33 12 21
f 34 21 12
f 35 1 13
f 36 13 7
f 36 31 23
f 37 35 13
f 37 22 35
f 38 23 11
f 38 11 4
f 39 22 15
f 40 5 25
f 40 26 5
f 40 15 9
f 41 25 8
f 41 8 24
f 41 24 39
f 41 39 15
f 42 27 20
f 42 6 27
f 42 33 6
f 42 20 33
f 43 27 16
f 43 16 5
f 44 28 17
f 44 10 28
f 44 29 10
f 44 17 8
f 45 8 25
f 45 25 5
f 46 31 19
f 46 19 3
f 46 3 11
f 46 11 31
f 47 12 33
f 47 33 20
f 47 20 27
f 47 27 43
f 47 43 5
f 47 5 26
f 48 4 21
f 48 21 34
f 48 38 4
f 49 9 22
f 49 22 37
f 50 49 34
f 50 9 49
f 50 40 9
f 50 26 40
f 51 34 12
f 51 50 34
f 51 26 50
f 51 47 26
f 51 12 47
f 52 24 1
f 52 1 35
f 52 39 24
f 52 35 22
f 52 22 39
f 53 36 23
f 53 37 13
f 53 49 37
f 53 23 49
f 54 36 32
f 54 32 31
f 54 31 36
f 55 36 7
f 55 7 32
f 55 32 36
f 56 40 25
f 56 15 40
f 56 41 15
f 56 25 41
f 57 45 5
f 57 5 16
f 57 16 29
f 57 29 45
f 58 44 8
f 58 8 45
f 58 45 29
f 58 29 44
f 59 48 34
f 59 38 48
f 59 34 49
f 59 49 23
f 59 23 38
f 60 53 13
f 60 13 36
f 60 36 53

