# https://github.com/mikedh/trimesh
v 0.21527385 0.19311791 0.44507730
v 0.21281879 0.19285150 0.40211085
v 0.19106462 0.24592680 0.42286679
v 0.12141836 0.26608653 0.44482100
v 0.12164714 0.19352967 0.44539700
v 0.12116517 0.26208597 0.40224995
v 0.19089712 0.24565801 0.44392540
v 0.21146904 0.21331387 0.41553170
v 0.18490033 0.24633362 0.40317585
v 0.12164437 0.19353097 0.39982704
v 0.16433418 0.26061845 0.43690113
v 0.21143861 0.21335717 0.44489021
v 0.20392862 0.22638748 0.40302071
v 0.17832840 0.25416968 0.44402977
v 0.17769164 0.25274221 0.40980702
v 0.15718061 0.25988567 0.40943156
v 0.21109027 0.20683768 0.40357386
v 0.19697935 0.23968440 0.41564210
v 0.15779192 0.26163837 0.44446591
v 0.16434588 0.26046619 0.43055938
v 0.14301809 0.26056898 0.40344179
v 0.17118549 0.25389948 0.40397483
v 0.19697566 0.24011143 0.44363411
f 5 2 1
f 5 1 4
f 6 5 4
f 8 1 2
f 10 2 5
f 10 5 6
f 10 9 2
f 10 6 9
f 12 4 1
f 12 1 8
f 13 2 9
f 14 7 3
f 14 12 7
f 15 3 9
f 15 14 3
f 17 13 8
f 17 8 2
f 17 2 13
f 18 13 9
f 18 9 3
f 18 8 13
f 19 14 11
f 19 4 12
f 19 12 14
f 20 11 14
f 20 14 15
f 20 15 16
f 20 16 4
f 20 19 11
f 20 4 19
f 21 6 4
f 21 4 16
f 21 9 6
f 22 16 15
f 22 15 9
f 22 21 16
f 22 9 21
f 23 18 3
f 23 3 7
f 23 7 12
f 23 12 8
f 23 8 18

