# https://github.com/mikedh/trimesh
v -0.17216500 -0.15023529 0.20074828
v -0.16574087 -0.14445953 0.20161463
v -0.15959293 -0.13337891 0.26199427
v -0.17903083 -0.10674002 0.26319332
v -0.19077928 -0.12608727 0.20269487
v -0.15705938 -0.10819893 0.26463532
v -0.19244653 -0.14530935 0.20013858
v -0.16197779 -0.13846460 0.21790692
v -0.18507038 -0.11463931 0.26247997
v -0.18046135 -0.11976678 0.20348185
v -0.18745667 -0.15050265 0.19990990
v -0.16642572 -0.12457272 0.20430344
v -0.18989698 -0.12690622 0.23915253
v -0.18465811 -0.11950242 0.21099502
v -0.16662716 -0.11177812 0.23519827
v -0.16926763 -0.14072724 0.24531928
v -0.16157333 -0.12309712 0.21992426
v -0.18906696 -0.12248116 0.23230903
v -0.18246408 -0.13308422 0.25965993
v -0.17886033 -0.11195194 0.23419849
v -0.17173668 -0.12003361 0.20503125
v -0.16764711 -0.11938715 0.21286456
v -0.18454396 -0.14762478 0.21395710
v -0.17114752 -0.14722440 0.21473438
v -0.18915978 -0.13209462 0.23790021
v -0.18959053 -0.14341120 0.21454982
v -0.17876247 -0.14045968 0.24468321
v -0.18864806 -0.13749739 0.22971845
f 1 2 3
f 8 6 3
f 8 3 2
f 9 6 4
f 9 3 6
f 9 4 5
f 10 7 5
f 10 2 7
f 11 7 2
f 11 2 1
f 12 2 10
f 13 5 7
f 14 10 5
f 14 5 4
f 15 4 6
f 17 8 2
f 17 2 12
f 17 12 6
f 17 6 8
f 18 13 9
f 18 9 5
f 18 5 13
f 19 9 13
f 19 3 9
f 20 14 4
f 20 10 14
f 20 15 10
f 20 4 15
f 21 12 10
f 21 10 15
f 22 15 6
f 22 6 12
f 22 21 15
f 22 12 21
f 23 11 1
f 23 1 16
f 23 19 11
f 24 16 1
f 24 1 3
f 24 3 16
f 25 19 13
f 25 13 7
f 26 7 11
f 26 11 19
f 27 16 3
f 27 3 19
f 27 23 16
f 27 19 23
f 28 25 7
f 28 7 26
f 28 26 19
f 28 19 25

