# https://github.com/mikedh/trimesh
v 0.07588246 -0.01193164 0.48952283
v 0.07595062 -0.01198291 0.39498648
v 0.07593802 0.12498815 0.49038467
v -0.04567906 0.12476045 0.49120152
v -0.04582419 -0.01198642 0.49016470
v 0.07284976 0.12846288 0.39802368
v 0.06796753 0.00347782 0.49081504
v -0.04571624 -0.01206257 0.39682657
v 0.07557667 0.01109481 0.49072307
v 0.06803654 0.12478941 0.49070181
v 0.02258024 -0.01157694 0.49065622
v -0.04585139 0.12501108 0.39956234
v 0.07564650 0.11717326 0.49060904
v 0.05302020 -0.00397919 0.49071033
v -0.04561976 0.00340003 0.49073391
v -0.02287005 -0.01165004 0.49063479
f 1 2 3
f 6 3 2
f 6 4 3
f 8 2 1
f 8 1 5
f 9 7 1
f 9 1 3
f 10 3 4
f 10 4 7
f 10 7 9
f 11 5 1
f 12 6 2
f 12 2 8
f 12 4 6
f 12 8 5
f 12 5 4
f 13 10 9
f 13 9 3
f 13 3 10
f 14 11 1
f 14 1 7
f 14 7 11
f 15 7 4
f 15 4 5
f 16 15 5
f 16 5 11
f 16 11 7
f 16 7 15

