# https://github.com/mikedh/trimesh
v -0.16293053 -0.16159036 0.75285249
v -0.14443520 -0.14104199 0.65611692
v -0.19867887 -0.06595084 0.66160045
v -0.22487541 -0.04922054 0.64748020
v -0.21415330 -0.15213624 0.65232187
v -0.19120908 -0.07028390 0.64865496
v -0.20076510 -0.11076845 0.72656104
v -0.20934576 -0.04937183 0.64727859
v -0.16540519 -0.11492969 0.64959752
v -0.16776080 -0.14182365 0.73144007
v -0.22000730 -0.15500782 0.73817089
v -0.20315611 -0.08941074 0.70553554
v -0.19268673 -0.07116402 0.65585791
v -0.20787880 -0.15746647 0.75042921
v -0.22846192 -0.10110811 0.71320922
v -0.20587874 -0.05897317 0.66130405
v -0.19820594 -0.08855126 0.69903334
v -0.18999063 -0.11903641 0.72789142
v -0.20312988 -0.14499262 0.74855222
v -0.23439727 -0.10820439 0.65189586
v -0.21980534 -0.07387106 0.68998158
v -0.22126468 -0.12870086 0.73423465
v -0.19209751 -0.09565091 0.69983724
v -0.20950400 -0.07499840 0.68992648
v -0.18878381 -0.12651250 0.73458928
v -0.19252022 -0.13284930 0.74173918
v -0.23604701 -0.06155749 0.64889229
v -0.22691704 -0.14538814 0.70511188
v -0.21071524 -0.05198362 0.65349266
v -0.22262123 -0.10253474 0.71841871
v -0.23594801 -0.11699343 0.70441725
v -0.21649448 -0.13726823 0.74039136
v -0.17855281 -0.14836726 0.74913869
v -0.20973179 -0.13063741 0.74049333
v -0.22667378 -0.13023464 0.65224556
v -0.22987549 -0.07357061 0.68274777
v -0.22136307 -0.15209555 0.69020779
v -0.22373932 -0.05187554 0.65355473
v -0.22375984 -0.08132737 0.69740394
v -0.22822961 -0.11425411 0.72124966
v -0.22718143 -0.14603829 0.72567267
v -0.23436145 -0.11579466 0.67472854
v -0.20874893 -0.15105656 0.74861238
v -0.21775339 -0.10988379 0.72554905
v -0.22931367 -0.05905265 0.66091715
v -0.23532193 -0.09897281 0.70074171
v -0.22014671 -0.14330367 0.65259235
v -0.22673247 -0.13784289 0.67498989
v -0.23510651 -0.07097369 0.66984874
v -0.21953952 -0.15091459 0.67542754
v -0.23514135 -0.06332582 0.65555740
f 5 2 1
f 8 3 6
f 9 6 2
f 9 2 5
f 9 8 6
f 9 5 4
f 9 4 8
f 10 1 2
f 13 10 2
f 13 2 6
f 13 6 3
f 13 3 10
f 14 11 5
f 14 5 1
f 16 3 8
f 17 3 16
f 17 12 1
f 17 1 10
f 18 12 7
f 18 1 12
f 19 14 1
f 23 17 10
f 23 10 3
f 23 3 17
f 24 17 16
f 24 12 17
f 24 21 12
f 25 18 7
f 25 1 18
f 27 4 5
f 29 8 4
f 29 21 24
f 29 24 16
f 29 16 8
f 30 7 12
f 31 27 20
f 32 22 11
f 32 11 14
f 33 26 19
f 33 19 1
f 33 1 25
f 33 25 7
f 33 7 26
f 34 26 7
f 34 19 26
f 34 32 19
f 34 22 32
f 35 27 5
f 35 20 27
f 37 5 11
f 38 29 4
f 38 21 29
f 39 15 30
f 39 36 15
f 39 21 36
f 39 30 12
f 39 12 21
f 40 30 15
f 40 22 30
f 41 31 28
f 41 40 31
f 41 11 22
f 41 22 40
f 41 37 11
f 41 28 37
f 42 31 20
f 42 28 31
f 43 32 14
f 43 14 19
f 43 19 32
f 44 34 7
f 44 7 30
f 44 30 22
f 44 22 34
f 45 4 27
f 45 38 4
f 45 36 21
f 45 21 38
f 46 15 36
f 46 40 15
f 46 31 40
f 46 27 31
f 47 35 5
f 48 37 28
f 48 47 37
f 48 35 47
f 48 28 42
f 48 42 20
f 48 20 35
f 49 36 45
f 49 46 36
f 49 27 46
f 50 47 5
f 50 5 37
f 50 37 47
f 51 49 45
f 51 45 27
f 51 27 49

