# https://github.com/mikedh/trimesh
v 0.06833622 0.12499632 0.49068435
v 0.06835178 0.12500706 0.45301062
v 0.06835178 0.15546156 0.45301062
v -0.09900438 0.15524804 0.48797080
v -0.09914795 0.12500706 0.45301062
v 0.06829401 0.15532667 0.48917017
v 0.06051694 0.12470912 0.49092792
v -0.09914795 0.15546156 0.45301062
v -0.09905343 0.12498236 0.48932370
v -0.01529346 0.14737710 0.49064938
v 0.04532336 0.13992598 0.49071772
v -0.05326379 0.12483594 0.49101920
v 0.06050863 0.13231156 0.49063644
v 0.02260047 0.14734904 0.49060706
v -0.04564155 0.13988254 0.49066052
v -0.05328280 0.13236004 0.49077519
f 1 2 3
f 5 3 2
f 6 1 3
f 7 5 2
f 7 2 1
f 8 3 5
f 8 6 3
f 8 4 6
f 9 8 5
f 9 4 8
f 10 6 4
f 12 9 5
f 12 5 7
f 12 11 10
f 12 7 11
f 13 11 7
f 13 7 1
f 13 1 6
f 13 6 11
f 14 11 6
f 14 6 10
f 14 10 11
f 15 12 10
f 15 10 4
f 16 15 4
f 16 4 9
f 16 9 12
f 16 12 15

