# https://github.com/mikedh/trimesh
v 0.09121476 0.07917109 0.39776739
v -0.03824552 0.10220525 0.39872866
v 0.06695166 0.10357188 0.38317043
v 0.09118711 0.10219097 0.39839479
v -0.03925204 0.07819256 0.38556317
v -0.03797589 0.07964281 0.39799199
v 0.09121900 0.10204813 0.39839197
v -0.04209537 0.08275322 0.38768898
v 0.02578059 0.07616033 0.38299203
v 0.04851645 0.08369583 0.38332650
v 0.06398072 0.09889201 0.38355460
f 4 3 2
f 6 1 2
f 7 1 3
f 7 3 4
f 7 4 2
f 7 2 1
f 8 2 3
f 8 3 5
f 8 6 2
f 8 5 6
f 9 5 3
f 9 6 5
f 9 1 6
f 10 9 3
f 10 1 9
f 11 10 3
f 11 3 1
f 11 1 10

