# https://github.com/mikedh/trimesh
v -0.11262686 -0.22096616 0.60629680
v -0.11137952 -0.17211626 0.40999179
v -0.12101062 -0.13578115 0.57979553
v -0.22087274 -0.12619639 0.60529759
v -0.17538458 -0.17900918 0.59195180
v -0.11388692 -0.12566057 0.39182556
v -0.13485554 -0.13235960 0.60338500
v -0.14669415 -0.16260513 0.44023090
v -0.16944535 -0.18733447 0.60701153
v -0.11140994 -0.21800554 0.59177513
v -0.12051749 -0.14296830 0.60257468
v -0.21523082 -0.12332703 0.56047641
v -0.17934108 -0.12296722 0.40112130
v -0.20562867 -0.15054576 0.60687006
v -0.14818972 -0.20285361 0.60706504
v -0.16066931 -0.16266631 0.47822364
v -0.11758243 -0.21556335 0.59238924
v -0.11890806 -0.21846837 0.60691451
v -0.11290507 -0.16828212 0.40102207
v -0.20042356 -0.12223986 0.47702943
v -0.19748794 -0.15678473 0.59198250
v -0.21475070 -0.13725715 0.60657074
v -0.16081603 -0.17783204 0.53900641
v -0.16776373 -0.14018195 0.41762451
v -0.11735003 -0.16960281 0.41066548
v -0.14663702 -0.20024523 0.59229297
v -0.20776458 -0.12248250 0.51495530
v -0.18562944 -0.12216236 0.41631961
v -0.19709354 -0.14154198 0.53111305
v -0.16861284 -0.18627499 0.59964435
v -0.13972243 -0.15533880 0.40279700
v -0.17488881 -0.14046224 0.44012186
v -0.13184656 -0.16249174 0.41056887
v -0.20438167 -0.12755698 0.51559701
v -0.17586873 -0.12729725 0.40246767
v -0.18936234 -0.13394896 0.47036135
v -0.16118011 -0.14065461 0.40312175
v -0.12518928 -0.16316288 0.40293527
v -0.18244485 -0.12602131 0.41747938
v -0.19695267 -0.12700522 0.47776647
v -0.18195142 -0.13353526 0.44005019
f 7 3 6
f 10 2 6
f 11 3 7
f 11 1 10
f 11 10 6
f 11 6 3
f 12 7 6
f 12 4 7
f 15 14 9
f 17 2 10
f 17 10 1
f 18 11 7
f 18 1 11
f 18 7 14
f 18 14 15
f 18 17 1
f 18 8 17
f 19 13 6
f 19 6 2
f 21 5 9
f 21 9 14
f 22 4 12
f 22 14 7
f 22 7 4
f 23 5 16
f 23 16 8
f 24 8 16
f 25 2 17
f 25 19 2
f 26 18 15
f 26 8 18
f 26 23 8
f 26 15 23
f 27 12 6
f 27 6 20
f 27 22 12
f 28 20 6
f 28 6 13
f 29 21 14
f 30 9 5
f 30 5 23
f 30 23 15
f 30 15 9
f 31 13 19
f 32 24 16
f 32 16 5
f 33 25 17
f 33 17 8
f 33 8 31
f 34 27 20
f 34 14 22
f 34 22 27
f 34 29 14
f 34 20 29
f 35 28 13
f 36 5 21
f 36 21 29
f 37 31 8
f 37 8 24
f 37 24 35
f 37 35 13
f 37 13 31
f 38 33 31
f 38 31 19
f 38 19 25
f 38 25 33
f 39 28 35
f 39 35 24
f 39 24 32
f 40 36 29
f 40 29 20
f 40 20 28
f 40 28 36
f 41 32 5
f 41 5 36
f 41 39 32
f 41 36 28
f 41 28 39

