# https://github.com/mikedh/trimesh
v -0.14183226 -0.13882677 0.64174862
v -0.13128094 -0.13581526 0.60458068
v -0.17506069 -0.10046233 0.64923272
v -0.23783340 -0.09478011 0.65138264
v -0.21949959 -0.12960402 0.60689711
v -0.16584728 -0.09990654 0.60407479
v -0.14721925 -0.13610884 0.65020980
v -0.13393831 -0.13862279 0.61895845
v -0.23599040 -0.09404068 0.62887139
v -0.13485554 -0.13235960 0.60338500
v -0.22561781 -0.13265593 0.65140304
v -0.23321694 -0.09487198 0.60561422
v -0.22913965 -0.12363427 0.65191008
v -0.22658011 -0.11445278 0.60672143
v -0.23646674 -0.10120897 0.65169110
v -0.23422434 -0.10043002 0.62923370
f 6 3 2
f 7 1 3
f 7 3 4
f 8 2 3
f 8 3 1
f 8 5 2
f 9 4 3
f 9 3 6
f 10 6 2
f 10 2 5
f 11 1 7
f 11 8 1
f 11 5 8
f 12 9 6
f 12 10 5
f 12 6 10
f 13 11 7
f 14 12 5
f 14 5 11
f 14 13 12
f 14 11 13
f 15 13 7
f 15 7 4
f 15 4 9
f 15 9 12
f 16 15 12
f 16 12 13
f 16 13 15

