# https://github.com/mikedh/trimesh
v 0.05908837 -0.20182438 0.46253547
v 0.07609442 -0.18006696 0.39952777
v 0.08024345 -0.19486882 0.45677288
v -0.04694150 -0.18577052 0.39702909
v 0.02909525 -0.19273336 0.41026656
v -0.04499703 -0.20478950 0.46187536
v 0.07387627 -0.18629535 0.41726922
v 0.06884096 -0.18159190 0.39896928
v 0.07470255 -0.19766971 0.46180585
v -0.04961318 -0.20240721 0.45512500
v 0.02914895 -0.20104268 0.43991912
v -0.02976515 -0.19272408 0.41062861
v 0.05852856 -0.19228422 0.42533895
v 0.05908529 -0.18539845 0.40310460
v 0.07334824 -0.19261962 0.44023214
v -0.03729949 -0.20057539 0.44005070
v 0.05872971 -0.20013025 0.45550909
v 0.07452763 -0.18125592 0.40180457
v -0.04444202 -0.20141432 0.44745972
v -0.04425799 -0.19335909 0.41776419
v -0.04486248 -0.18799040 0.40210085
f 3 2 4
f 7 2 3
f 8 5 4
f 8 4 2
f 9 6 1
f 9 3 6
f 10 6 3
f 10 3 4
f 11 1 6
f 12 4 5
f 12 5 11
f 13 11 5
f 14 8 2
f 14 7 13
f 14 13 5
f 14 5 8
f 15 7 3
f 15 3 9
f 15 9 1
f 15 13 7
f 16 12 11
f 16 11 6
f 17 1 11
f 17 11 13
f 17 15 1
f 17 13 15
f 18 14 2
f 18 2 7
f 18 7 14
f 19 16 6
f 19 6 10
f 20 12 16
f 20 16 19
f 20 19 10
f 20 10 4
f 21 20 4
f 21 4 12
f 21 12 20

