# https://github.com/mikedh/trimesh
v 0.09642196 -0.03875133 0.38641311
v 0.09883382 -0.03485432 0.39471626
v 0.03025935 -0.03487432 0.39738641
v 0.03008048 0.02608163 0.39657582
v 0.06833534 0.02616613 0.39590288
v 0.02928791 0.01747379 0.38311063
v 0.03033881 -0.03488977 0.39738555
v 0.09879126 -0.01198208 0.39491508
v 0.06625306 -0.02864128 0.38353863
v 0.02709307 0.02252272 0.38693072
v 0.08971683 -0.03690003 0.38328936
v 0.09881506 -0.01207104 0.39491396
v 0.03457260 0.00031869 0.38338273
f 7 1 2
f 7 5 4
f 7 4 3
f 8 5 7
f 10 6 3
f 10 3 4
f 10 4 5
f 10 5 6
f 11 6 5
f 11 3 9
f 11 7 3
f 11 1 7
f 11 8 1
f 11 5 8
f 12 2 1
f 12 1 8
f 12 8 7
f 12 7 2
f 13 9 3
f 13 3 6
f 13 11 9
f 13 6 11

