# https://github.com/mikedh/trimesh
v 0.20961108 0.23749048 0.12615437
v 0.22867002 0.26013204 0.00071577
v 0.21579760 0.25709058 0.12470784
v 0.20005114 0.26166292 0.12516191
v 0.20600100 0.25705158 0.02829088
v 0.22540225 0.27156652 0.00064568
v 0.19641743 0.23787529 0.12721561
v 0.21978588 0.24867163 0.10228090
v 0.22876075 0.26804904 0.00065781
v 0.21047003 0.26125209 0.12441438
v 0.21260080 0.27043918 0.00040311
v 0.19464840 0.25798026 0.12580238
v 0.21637161 0.25428259 0.00085327
v 0.21535244 0.24276293 0.12518540
v 0.22231460 0.26800073 0.04017946
v 0.22758220 0.25807773 0.02621239
v 0.21857131 0.26876953 0.04823857
v 0.22245286 0.25451869 0.00033949
v 0.19839752 0.25039994 0.08169438
v 0.19875375 0.25794096 0.08085414
v 0.20911635 0.26851259 0.04909436
v 0.20695080 0.25161182 0.03632840
v 0.21736188 0.24745639 0.04288521
v 0.21219283 0.25855362 0.00016107
v 0.22641842 0.26635526 0.02531269
v 0.21305714 0.26142324 0.11629609
v 0.21941948 0.25705403 0.10153937
v 0.20687225 0.26514625 0.02760363
v 0.20942078 0.24786599 0.04410993
v 0.19938579 0.24518028 0.09003784
v 0.21120438 0.24051770 0.09611670
v 0.21315522 0.25493396 0.00700469
v 0.19799192 0.24004109 0.11248560
v 0.20200064 0.24112486 0.09687788
f 7 1 3
f 10 4 3
f 12 7 3
f 12 3 4
f 14 8 3
f 14 3 1
f 16 2 9
f 16 8 14
f 17 4 10
f 17 15 6
f 18 9 2
f 19 7 12
f 20 19 12
f 20 5 19
f 21 12 4
f 21 11 12
f 21 4 17
f 21 17 6
f 21 6 11
f 22 19 5
f 23 13 18
f 23 18 2
f 23 14 1
f 23 16 14
f 23 2 16
f 24 5 11
f 24 18 13
f 24 11 6
f 24 6 9
f 24 9 18
f 24 22 5
f 25 9 6
f 25 6 15
f 25 15 3
f 25 16 9
f 26 10 3
f 26 3 15
f 26 17 10
f 26 15 17
f 27 3 8
f 27 8 16
f 27 25 3
f 27 16 25
f 28 20 12
f 28 12 11
f 28 11 5
f 28 5 20
f 29 22 13
f 29 13 23
f 30 7 19
f 30 19 22
f 31 23 1
f 31 1 7
f 31 29 23
f 32 24 13
f 32 13 22
f 32 22 24
f 33 29 7
f 33 22 29
f 33 30 22
f 33 7 30
f 34 31 7
f 34 7 29
f 34 29 31

