# https://github.com/mikedh/trimesh
v -0.06859253 -0.01194190 0.48929212
v -0.06869346 -0.01203817 0.45301062
v -0.06869346 0.04887082 0.45301062
v -0.20175489 0.04968365 0.46929906
v -0.23562278 -0.01216420 0.49105744
v -0.22840514 0.01217430 0.45218493
v -0.06867988 0.04887695 0.49073852
v -0.21282884 0.04892088 0.45294527
v -0.23486125 -0.01192141 0.45314364
v -0.15911352 0.04937910 0.48285600
v -0.22918882 0.00441029 0.48913773
v -0.20902388 0.04926871 0.46321219
v -0.18771251 0.04945526 0.47628393
v -0.22283665 0.01013802 0.48897280
f 1 2 3
f 5 2 1
f 6 3 2
f 7 1 3
f 7 3 4
f 7 5 1
f 8 4 3
f 8 3 6
f 9 6 2
f 9 2 5
f 9 5 6
f 10 7 4
f 11 8 6
f 11 6 5
f 12 11 4
f 12 4 8
f 12 8 11
f 13 10 4
f 14 11 5
f 14 5 7
f 14 7 10
f 14 10 13
f 14 13 4
f 14 4 11

