# https://github.com/mikedh/trimesh
v 0.20583089 0.23045085 0.20202102
v 0.21535244 0.24276293 0.12518540
v 0.20505426 0.25002821 0.20011610
v 0.19223835 0.25333682 0.20093950
v 0.18384894 0.22994710 0.19632800
v 0.21579760 0.25709058 0.12470784
v 0.19715495 0.25367342 0.20064316
v 0.20353437 0.23218619 0.15720087
v 0.18239404 0.22993687 0.20311777
v 0.19139948 0.25220885 0.12690530
v 0.21210799 0.24159535 0.17062831
v 0.18364390 0.24867392 0.20234652
v 0.19464840 0.25798026 0.12580238
v 0.20637489 0.25391598 0.17723114
v 0.20961108 0.23749048 0.12615437
v 0.19223893 0.24209539 0.12768231
v 0.21084922 0.25067535 0.16970991
v 0.18335445 0.24590819 0.18015779
v 0.20187737 0.25352188 0.19274434
v 0.20719039 0.23277548 0.17192379
v 0.19641743 0.23787529 0.12721561
v 0.18352168 0.23661394 0.18087631
v 0.18381200 0.24848660 0.19445732
v 0.19437044 0.23226036 0.15789658
v 0.19077118 0.23894946 0.14251009
v 0.19007215 0.23262842 0.16615589
f 7 1 3
f 8 1 5
f 9 5 1
f 11 1 2
f 11 2 6
f 11 3 1
f 12 7 4
f 12 1 7
f 12 9 1
f 13 7 6
f 13 4 7
f 13 6 2
f 13 12 4
f 14 3 6
f 17 11 6
f 17 6 3
f 17 3 11
f 18 9 12
f 18 13 10
f 19 7 3
f 19 3 14
f 19 14 6
f 19 6 7
f 20 15 2
f 20 2 1
f 20 1 8
f 20 8 15
f 21 13 2
f 21 2 15
f 21 16 10
f 21 10 13
f 22 16 5
f 22 5 9
f 22 9 18
f 22 18 10
f 22 10 16
f 23 18 12
f 23 12 13
f 23 13 18
f 24 21 15
f 24 15 8
f 24 8 5
f 25 5 16
f 25 16 21
f 26 24 5
f 26 21 24
f 26 25 21
f 26 5 25

