# https://github.com/mikedh/trimesh
v -0.06837263 -0.24664018 0.65890978
v -0.06753697 -0.23509020 0.60653559
v -0.07112879 -0.16507676 0.60289625
v -0.21267617 -0.15624438 0.65871315
v -0.14723010 -0.21667887 0.66067298
v -0.20255642 -0.15416261 0.60593696
v -0.07182374 -0.18137885 0.65542757
v -0.06702905 -0.24027995 0.62981892
v -0.10303535 -0.23028363 0.63044646
v -0.20751889 -0.15247503 0.62175737
v -0.16886145 -0.20204689 0.66070635
v -0.11130019 -0.16551679 0.65581172
v -0.09634426 -0.23943535 0.66050939
v -0.13928250 -0.20829620 0.60760696
v -0.20606180 -0.16548674 0.66047223
v -0.07168693 -0.16692696 0.60996138
v -0.13295753 -0.22481354 0.66056816
v -0.08161886 -0.23182313 0.60732670
v -0.16106500 -0.19397234 0.60723849
v -0.20426460 -0.15710444 0.62272034
v -0.11791227 -0.22273783 0.62289380
v -0.09586489 -0.23796062 0.65322591
v -0.07435139 -0.23879244 0.63013340
v -0.12528896 -0.21571758 0.60757486
v -0.17533876 -0.18655934 0.62274053
v -0.14658688 -0.20777720 0.62296376
v -0.19896779 -0.15894158 0.60692968
v -0.18260859 -0.18610155 0.64568611
v -0.14643463 -0.21537566 0.65337895
v -0.18987888 -0.17890045 0.64552308
f 6 3 2
f 8 1 2
f 8 2 3
f 8 7 1
f 8 3 7
f 10 3 6
f 12 10 4
f 12 3 10
f 13 1 7
f 13 11 5
f 15 12 4
f 15 7 12
f 15 13 7
f 15 11 13
f 16 12 7
f 16 7 3
f 16 3 12
f 17 13 5
f 19 6 2
f 20 10 6
f 20 15 4
f 20 4 10
f 21 9 13
f 21 13 17
f 21 18 9
f 22 18 13
f 22 13 9
f 22 9 18
f 23 18 2
f 23 2 1
f 23 1 13
f 23 13 18
f 24 2 18
f 24 19 2
f 24 14 19
f 24 18 21
f 24 21 17
f 24 17 14
f 25 19 11
f 26 19 14
f 26 5 11
f 26 11 19
f 27 6 19
f 27 19 25
f 27 20 6
f 27 15 20
f 28 25 11
f 28 11 15
f 28 27 25
f 29 26 14
f 29 5 26
f 29 17 5
f 29 14 17
f 30 28 15
f 30 15 27
f 30 27 28

