# https://github.com/mikedh/trimesh
v 0.12164437 0.19353097 0.39982704
v 0.12925548 0.20114576 0.39992807
v 0.10641485 0.26147962 0.40084193
v 0.06834734 0.26154842 0.40070657
v 0.12164703 0.24682497 0.39974989
v 0.12926043 0.23159773 0.39975364
v 0.06836265 0.24687805 0.39975444
v 0.10642801 0.25968601 0.39993046
v 0.10642014 0.19352955 0.39975568
v 0.06836012 0.25975697 0.39999139
v 0.06835183 0.24682532 0.39975482
f 1 2 3
f 1 3 4
f 6 2 1
f 6 5 3
f 6 3 2
f 8 4 3
f 8 3 5
f 8 5 7
f 9 1 4
f 9 6 1
f 9 7 5
f 9 5 6
f 10 8 7
f 10 4 8
f 11 10 7
f 11 4 10
f 11 9 4
f 11 7 9

