# https://github.com/mikedh/trimesh
v 0.04520785 -0.23846884 0.60573232
v 0.04468846 -0.22786135 0.56078459
v 0.04578101 -0.15813987 0.55919053
v -0.04610911 -0.15825306 0.55917501
v -0.04558685 -0.23874663 0.60566317
v -0.04527583 -0.22850471 0.56059428
v 0.04692779 -0.17077867 0.60334241
v -0.04722019 -0.16399695 0.58022534
v 0.00711569 -0.23153521 0.56170261
v -0.03741715 -0.24021257 0.60708951
v 0.04687660 -0.16400836 0.58033112
v -0.04714356 -0.17100626 0.60326428
v 0.02940808 -0.23897426 0.59974387
v 0.02956589 -0.24061189 0.60698363
v -0.04474798 -0.23227774 0.57670791
v -0.01496534 -0.23152725 0.56171896
v 0.03691926 -0.23107393 0.56944371
v -0.03730409 -0.23151927 0.56926990
v 0.04407962 -0.23179435 0.57688777
f 6 3 2
f 6 4 3
f 8 6 5
f 8 4 6
f 8 3 4
f 9 6 2
f 11 7 1
f 11 1 2
f 11 2 3
f 11 8 7
f 11 3 8
f 12 8 5
f 12 7 8
f 12 10 7
f 12 5 10
f 14 1 7
f 14 7 10
f 14 13 1
f 14 9 13
f 15 10 5
f 15 5 6
f 15 6 10
f 16 6 9
f 16 14 10
f 16 9 14
f 17 13 9
f 17 9 2
f 17 1 13
f 18 16 10
f 18 10 6
f 18 6 16
f 19 17 2
f 19 2 1
f 19 1 17

