# https://github.com/mikedh/trimesh
v 0.19353161 0.04731124 0.47233011
v 0.18255374 0.04891473 0.39716088
v 0.18255450 0.12502721 0.39838882
v 0.12926077 0.12500706 0.45301062
v 0.12926077 0.04887082 0.45301062
v 0.12927158 0.04899848 0.39677309
v 0.19181377 0.12505603 0.47471133
v 0.12925787 0.12502818 0.39871305
v 0.12926077 0.04887082 0.44539700
v 0.17492635 0.12503465 0.39840035
f 1 2 3
f 6 3 2
f 6 2 1
f 7 1 3
f 7 5 1
f 7 4 5
f 8 4 7
f 8 5 4
f 9 6 1
f 9 1 5
f 9 8 6
f 9 5 8
f 10 3 6
f 10 6 8
f 10 8 7
f 10 7 3

