# https://github.com/mikedh/trimesh
v 0.04427456 -0.18770096 0.40225513
v 0.06641317 -0.17816263 0.39106308
v 0.06850634 -0.12597217 0.39369091
v -0.17875763 -0.11488576 0.38982390
v -0.06661145 -0.17883603 0.39124203
v 0.06920650 -0.14577936 0.39040213
v -0.17586873 -0.12729725 0.40246767
v 0.06731544 -0.18280010 0.40129561
v -0.04428295 -0.18578689 0.39598935
v -0.15264957 -0.11873006 0.38862494
v -0.18283918 -0.11857491 0.39973844
v -0.15366455 -0.14108167 0.39243972
v 0.04393587 -0.18568635 0.39662934
v -0.10405473 -0.17224915 0.40216436
v -0.09596136 -0.16992140 0.39120162
v -0.04583210 -0.11832031 0.39362856
v -0.17474185 -0.12595177 0.39708803
v -0.08168636 -0.17976968 0.40222863
v -0.14813345 -0.14990666 0.40246259
v -0.17648533 -0.12023501 0.39190396
v -0.08090844 -0.17782262 0.39660660
v -0.04486248 -0.18799040 0.40210085
v -0.14696755 -0.14817474 0.39668685
v -0.10304211 -0.17045008 0.39641375
f 8 7 1
f 8 3 7
f 8 6 3
f 8 2 6
f 9 5 2
f 10 2 5
f 10 6 2
f 10 4 3
f 10 3 6
f 11 7 3
f 13 8 1
f 13 2 8
f 13 9 2
f 15 10 5
f 15 4 10
f 15 12 4
f 16 11 3
f 16 3 4
f 16 4 11
f 17 7 11
f 19 17 12
f 19 7 17
f 19 14 18
f 19 18 1
f 19 1 7
f 20 17 11
f 20 11 4
f 20 4 12
f 20 12 17
f 21 5 9
f 21 15 5
f 22 1 18
f 22 13 1
f 22 9 13
f 22 21 9
f 22 18 21
f 23 19 12
f 23 12 15
f 24 21 18
f 24 18 14
f 24 15 21
f 24 23 15
f 24 14 19
f 24 19 23

