# https://github.com/mikedh/trimesh
v 0.19488043 0.23642462 0.45868666
v 0.19750991 0.23899341 0.44533975
v 0.15789648 0.26058395 0.45091688
v 0.12141836 0.26608653 0.44482100
v 0.12155181 0.23861595 0.47413278
v 0.17832840 0.25416968 0.44402977
v 0.16448319 0.25395675 0.46104646
v 0.19404344 0.24268934 0.44483705
v 0.15779192 0.26163837 0.44446591
v 0.17345639 0.23611803 0.46894651
v 0.12126361 0.26285515 0.45782456
v 0.17781659 0.25317427 0.45066963
v 0.19179265 0.24107402 0.45662571
v 0.15011313 0.26096944 0.45585989
v 0.15075639 0.24885607 0.46730308
v 0.17864538 0.24746807 0.46090381
v 0.12132474 0.25053600 0.46863583
v 0.18489590 0.24726297 0.45552390
v 0.17222283 0.24141182 0.46667975
v 0.18785662 0.23644438 0.46320080
v 0.18614228 0.24227994 0.46064476
v 0.12266016 0.25147378 0.46806896
f 5 2 1
f 5 4 2
f 8 2 4
f 8 4 6
f 9 6 4
f 9 3 6
f 10 5 1
f 12 6 3
f 12 3 7
f 13 1 2
f 13 2 8
f 14 9 4
f 14 3 9
f 14 4 11
f 14 11 7
f 14 7 3
f 15 5 10
f 15 7 11
f 16 12 7
f 17 11 4
f 17 4 5
f 17 5 15
f 18 8 6
f 18 6 12
f 18 13 8
f 18 12 16
f 19 15 10
f 19 7 15
f 19 16 7
f 20 10 1
f 20 19 10
f 20 16 19
f 21 1 13
f 21 18 16
f 21 13 18
f 21 20 1
f 21 16 20
f 22 17 15
f 22 15 11
f 22 11 17

