# https://github.com/mikedh/trimesh
v 0.05928867 -0.22534272 0.56138364
v 0.12512912 -0.17938651 0.46264343
v 0.12574124 -0.20328582 0.56118184
v 0.12471162 -0.12729366 0.56138428
v 0.04638672 -0.13716099 0.46457734
v 0.11109691 -0.21006547 0.56133526
v 0.04465292 -0.20431198 0.46200801
v 0.04690600 -0.15741172 0.55734745
v 0.11555339 -0.11283881 0.46358411
v 0.11722699 -0.20025904 0.53145279
v 0.08082481 -0.20012233 0.47833101
v 0.04468846 -0.22786135 0.56078459
v 0.04677610 -0.14294932 0.49716979
v 0.12445418 -0.18564213 0.48574961
v 0.12433910 -0.20058356 0.54660682
v 0.08893607 -0.21783019 0.56130698
v 0.06577228 -0.20037369 0.46303777
v 0.10276556 -0.19288646 0.47821549
v 0.05133995 -0.20877041 0.48553253
v 0.04411765 -0.22450985 0.54636562
v 0.04715888 -0.15113929 0.53421236
v 0.11064300 -0.18599607 0.46281848
v 0.08062190 -0.20755129 0.50876051
v 0.10262867 -0.20809548 0.53913891
v 0.05135705 -0.22333587 0.54665352
v 0.04432054 -0.20990772 0.48529265
v 0.11736636 -0.18505579 0.47067793
v 0.08846799 -0.21629743 0.55404715
v 0.11053088 -0.20861205 0.55405584
f 3 2 4
f 6 3 4
f 6 4 1
f 9 5 4
f 9 4 2
f 9 7 5
f 9 2 7
f 12 1 4
f 12 4 8
f 13 4 5
f 13 5 8
f 14 2 3
f 15 3 6
f 15 6 10
f 15 14 3
f 15 10 14
f 16 6 1
f 19 12 7
f 19 17 1
f 19 7 17
f 20 12 8
f 20 8 5
f 20 7 12
f 21 13 8
f 21 8 4
f 21 4 13
f 22 17 7
f 22 7 2
f 22 18 11
f 22 11 17
f 23 1 17
f 23 17 11
f 24 11 18
f 24 6 16
f 24 18 22
f 25 19 1
f 25 1 12
f 25 12 19
f 26 20 5
f 26 5 7
f 26 7 20
f 27 22 2
f 27 2 14
f 27 14 10
f 27 10 22
f 28 16 1
f 28 1 23
f 28 23 11
f 28 24 16
f 28 11 24
f 29 24 22
f 29 22 10
f 29 10 6
f 29 6 24

