# https://github.com/mikedh/trimesh
v 0.21180701 -0.17871985 0.74223043
v 0.22238480 -0.15325668 0.69002411
v 0.22303701 -0.15590685 0.73926054
v 0.21666745 -0.15650396 0.74653409
v 0.21084315 -0.17013371 0.68954522
v 0.22089608 -0.16157669 0.73970315
v 0.21945388 -0.16609013 0.72081195
v 0.20932998 -0.17625965 0.70512983
v 0.21796409 -0.15986163 0.68805078
v 0.21914572 -0.16737368 0.73350923
v 0.21196907 -0.17331806 0.70580113
v 0.21931100 -0.15860756 0.69080302
v 0.21370023 -0.17573006 0.74113654
v 0.21360723 -0.16679617 0.69046819
f 3 2 4
f 6 3 4
f 6 4 1
f 7 2 3
f 8 1 4
f 8 4 5
f 9 5 4
f 9 4 2
f 10 1 7
f 10 7 3
f 10 3 6
f 11 7 1
f 11 1 8
f 11 8 5
f 12 9 2
f 12 2 7
f 12 11 9
f 12 7 11
f 13 10 6
f 13 6 1
f 13 1 10
f 14 11 5
f 14 5 9
f 14 9 11

