# https://github.com/mikedh/trimesh
v 0.21232531 0.18587693 0.40068254
v 0.21052971 0.18547390 0.39939407
v 0.19120429 0.22826178 0.36043723
v 0.15971241 0.23921090 0.40003631
v 0.13308194 0.18936415 0.39960186
v 0.18256490 0.23919831 0.40013497
v 0.19038698 0.20780340 0.36184645
v 0.20987897 0.20823182 0.40130025
v 0.16050710 0.22811840 0.36235674
v 0.18584363 0.23333979 0.36051216
v 0.13818177 0.18459326 0.38251816
v 0.13685463 0.20877328 0.40004371
v 0.18421499 0.20222149 0.36224614
v 0.16519321 0.23307915 0.36169540
v 0.14434124 0.22409661 0.39993762
v 0.16111425 0.20743412 0.36407870
v 0.16596245 0.20266717 0.36412567
f 5 2 1
f 7 1 2
f 7 3 1
f 8 5 1
f 8 6 4
f 8 1 3
f 8 3 6
f 10 6 3
f 10 4 6
f 11 2 5
f 12 8 4
f 12 5 8
f 12 11 5
f 12 9 11
f 13 3 7
f 13 7 2
f 13 2 11
f 14 4 10
f 14 10 3
f 14 13 9
f 14 3 13
f 15 12 4
f 15 9 12
f 15 14 9
f 15 4 14
f 16 11 9
f 16 9 13
f 17 16 13
f 17 13 11
f 17 11 16

