# https://github.com/mikedh/trimesh
v 0.00734692 -0.25353624 0.65906713
v 0.00723251 -0.24185213 0.60666766
v 0.00756379 -0.17562655 0.60413768
v -0.06923046 -0.16615841 0.60475679
v -0.06753697 -0.23509020 0.60653559
v -0.06975869 -0.18275530 0.65750622
v 0.00775929 -0.18756822 0.64068878
v -0.02966667 -0.24619397 0.63022816
v -0.03935063 -0.17225586 0.60286738
v -0.07102287 -0.17196220 0.62574768
v -0.06681686 -0.24736635 0.66051636
v 0.00771111 -0.19280738 0.65687878
v -0.04447933 -0.23927381 0.60724722
v -0.04435767 -0.24615696 0.63787437
v -0.07113552 -0.17930020 0.64850669
v 0.00763028 -0.18005049 0.61789576
v -0.05947741 -0.23861419 0.61503008
f 7 1 2
f 7 2 3
f 8 2 1
f 9 3 2
f 9 2 5
f 9 5 4
f 9 4 3
f 10 3 4
f 10 4 5
f 12 1 7
f 12 11 1
f 12 6 11
f 13 5 2
f 13 2 8
f 14 8 1
f 14 1 11
f 14 13 8
f 15 10 5
f 15 5 11
f 15 11 6
f 15 6 12
f 16 12 7
f 16 7 3
f 16 15 12
f 16 3 10
f 16 10 15
f 17 11 5
f 17 5 13
f 17 14 11
f 17 13 14

