# https://github.com/mikedh/trimesh
v -0.09905343 0.12498236 0.48932370
v -0.10340452 0.12144997 0.39933356
v -0.09914339 0.19352653 0.40074078
v -0.21252925 0.19238740 0.46188115
v -0.21315777 0.12521582 0.46335699
v -0.21267412 0.19247013 0.40321093
v -0.09888378 0.19275642 0.48454984
v -0.16616433 0.12498930 0.48332964
v -0.18780117 0.19263928 0.47490359
v -0.21509267 0.12512412 0.40285114
v -0.20739366 0.12507687 0.46825346
v -0.15159903 0.18489393 0.48216549
v -0.19488691 0.12511393 0.47540018
v -0.20752259 0.18474594 0.46677588
v -0.16626136 0.15498285 0.48257435
v -0.13652455 0.19230562 0.48265192
v -0.19475025 0.17015017 0.47425019
f 1 2 3
f 6 3 2
f 7 1 3
f 8 2 1
f 9 6 4
f 9 3 6
f 9 7 3
f 10 5 4
f 10 4 6
f 10 6 2
f 10 2 5
f 11 5 2
f 13 11 2
f 13 2 8
f 14 4 5
f 14 5 11
f 14 11 13
f 14 9 4
f 15 8 1
f 15 1 12
f 15 12 9
f 15 13 8
f 16 12 1
f 16 1 7
f 16 7 9
f 16 9 12
f 17 14 13
f 17 9 14
f 17 15 9
f 17 13 15

