# https://github.com/mikedh/trimesh
v -0.17679029 -0.15535807 0.18476236
v -0.17694325 -0.16114636 0.12651137
v -0.16642572 -0.12457272 0.20430344
v -0.19077928 -0.12608727 0.20269487
v -0.20119233 -0.16705095 0.12387731
v -0.19426970 -0.14281876 0.12800807
v -0.17216500 -0.15023529 0.20074828
v -0.18054969 -0.16637036 0.12515548
v -0.17728971 -0.14672956 0.12915339
v -0.18665899 -0.12835165 0.17392683
v -0.20007424 -0.14710471 0.12662546
v -0.18958349 -0.14882287 0.19903703
v -0.16574087 -0.14445953 0.20161463
v -0.19201762 -0.16330418 0.15254379
v -0.17982329 -0.16179487 0.15462986
v -0.19021025 -0.12633515 0.19489998
v -0.18105422 -0.14301481 0.12942279
v -0.19743151 -0.14177630 0.17796392
v -0.18713300 -0.15562018 0.18399486
v -0.16809738 -0.13794943 0.17364584
v -0.17418185 -0.15590112 0.17042658
v -0.19781798 -0.16498785 0.13779506
v -0.19233954 -0.13481446 0.15810373
v -0.17769839 -0.12800205 0.17452636
v -0.17493760 -0.13497069 0.15991548
v -0.19675576 -0.13839394 0.16359785
v -0.19732832 -0.14637697 0.17730516
v -0.16908017 -0.13138264 0.18183846
v -0.16851410 -0.14708762 0.17225548
v -0.17317483 -0.12745016 0.18214457
v -0.19678732 -0.15647095 0.16042781
v -0.16792267 -0.12596978 0.19728739
f 7 3 4
f 8 6 2
f 11 8 5
f 11 6 8
f 12 7 4
f 13 3 7
f 13 8 2
f 14 5 8
f 15 7 1
f 15 14 8
f 15 1 14
f 16 4 3
f 16 3 10
f 16 11 4
f 17 9 2
f 17 2 6
f 18 11 5
f 19 1 7
f 19 7 12
f 19 14 1
f 20 3 13
f 20 2 9
f 21 13 7
f 21 8 13
f 21 15 8
f 21 7 15
f 22 12 5
f 22 5 14
f 22 19 12
f 22 14 19
f 23 16 10
f 23 10 6
f 23 6 11
f 23 11 16
f 24 17 6
f 24 6 10
f 24 10 3
f 25 9 17
f 26 18 4
f 26 4 11
f 26 11 18
f 27 12 4
f 27 4 18
f 27 18 5
f 28 20 9
f 28 3 20
f 28 9 25
f 29 20 13
f 29 13 2
f 29 2 20
f 30 24 3
f 30 25 17
f 30 17 24
f 31 27 5
f 31 5 12
f 31 12 27
f 32 28 25
f 32 3 28
f 32 30 3
f 32 25 30

