# https://github.com/mikedh/trimesh
v 0.00717338 -0.26343201 0.70567697
v 0.00734692 -0.25353624 0.65906713
v 0.00771111 -0.19280738 0.65687878
v -0.04619732 -0.18880384 0.65803208
v -0.04553455 -0.26076922 0.70477192
v -0.04513634 -0.25094178 0.65965570
v 0.00758210 -0.20524694 0.70368388
v -0.00757375 -0.26209265 0.69834108
v -0.04752686 -0.19478721 0.67931973
v -0.04706992 -0.20046746 0.70304227
v 0.00790394 -0.20323516 0.69460702
v 0.00717021 -0.26203560 0.69835651
v -0.00760751 -0.26350421 0.70568317
v -0.03717048 -0.25392044 0.66826206
v 0.00781046 -0.19490158 0.66386306
v 0.00719207 -0.25555770 0.66792503
v -0.04455303 -0.25459371 0.67572207
f 6 3 2
f 6 4 3
f 9 6 5
f 9 4 6
f 10 7 3
f 10 3 4
f 10 4 9
f 10 9 5
f 11 7 1
f 11 1 2
f 11 3 7
f 12 2 1
f 13 5 8
f 13 10 5
f 13 1 7
f 13 7 10
f 13 12 1
f 13 8 12
f 14 6 2
f 14 2 8
f 14 8 5
f 15 11 2
f 15 2 3
f 15 3 11
f 16 12 8
f 16 8 2
f 16 2 12
f 17 14 5
f 17 5 6
f 17 6 14

