# https://github.com/mikedh/trimesh
v 0.07470255 -0.19766971 0.46180585
v 0.12437681 -0.16271717 0.40327126
v 0.13452078 -0.08612909 0.46888773
v 0.07714042 -0.08354270 0.48119300
v 0.07588638 -0.08041856 0.39556373
v 0.12512912 -0.17938651 0.46264343
v 0.07452763 -0.18125592 0.40180457
v 0.07379968 -0.19430298 0.44742338
v 0.12559569 -0.08481887 0.39423319
v 0.08840909 -0.19399551 0.46275731
v 0.07387627 -0.18629535 0.41726922
v 0.08066630 -0.19249954 0.44792428
v 0.10268831 -0.17718955 0.41783987
v 0.08075990 -0.18456205 0.41773829
v 0.12416228 -0.17004691 0.42539652
v 0.11715839 -0.17734192 0.44033351
v 0.11037704 -0.16965722 0.40352583
v 0.08792982 -0.17759204 0.40337803
v 0.08820392 -0.19224177 0.45560385
v 0.12434922 -0.17792078 0.45541095
f 5 4 3
f 6 3 4
f 6 2 3
f 8 1 4
f 8 4 5
f 9 5 3
f 9 3 2
f 9 7 5
f 9 2 7
f 10 6 4
f 10 4 1
f 11 8 5
f 11 5 7
f 12 10 1
f 12 1 8
f 14 12 8
f 14 8 11
f 14 11 7
f 15 2 6
f 16 6 10
f 16 10 13
f 16 13 15
f 17 7 2
f 17 15 13
f 17 2 15
f 18 14 7
f 18 13 14
f 18 17 13
f 18 7 17
f 19 14 13
f 19 13 10
f 19 10 12
f 19 12 14
f 20 16 15
f 20 15 6
f 20 6 16

