{"scene":0,"scenes":[{"nodes":[0]}],"asset":{"version":"2.0","generator":"https://github.com/mikedh/trimesh"},"accessors":[{"componentType":5125,"type":"SCALAR","bufferView":0,"count":30498,"max":[30485],"min":[0]},{"componentType":5126,"type":"VEC3","byteOffset":0,"bufferView":1,"count":30486,"max":[0.23999999463558197,0.7918168902397156,0.27347272634506226],"min":[-0.23999999463558197,0.0,-0.27347272634506226]},{"componentType":5126,"type":"VEC2","byteOffset":0,"bufferView":3,"count":30486,"max":[0.9995511770248413,0.9995591044425964],"min":[0.00044883304508402944,0.00044089555740356445]}],"meshes":[{"name":"geometry_0.001","extras":{"units":"meters","from_gltf_primitive":false,"name":"geometry_0.001","node":"geometry_0.002"},"primitives":[{"attributes":{"POSITION":1,"TEXCOORD_0":2},"indices":0,"mode":4,"material":0}]}],"images":[{"bufferView":2,"mimeType":"image/png"}],"textures":[{"source":0}],"materials":[{"pbrMetallicRoughness":{"baseColorTexture":{"index":0}},"name":"Material_0.001","doubleSided":false}],"nodes":[{"name":"world","children":[1]},{"name":"geometry_0.001","mesh":0}],"buffers":[{"uri":"gltf_buffer_0.bin","byteLength":121992},{"uri":"gltf_buffer_1.bin","byteLength":365832},{"uri":"gltf_buffer_2.bin","byteLength":1050680},{"uri":"gltf_buffer_3.bin","byteLength":243888}],"bufferViews":[{"buffer":0,"byteOffset":0,"byteLength":121992},{"buffer":1,"byteOffset":0,"byteLength":365832},{"buffer":2,"byteOffset":0,"byteLength":1050680},{"buffer":3,"byteOffset":0,"byteLength":243888}]}