# https://github.com/mikedh/trimesh
v 0.23386054 -0.07253251 0.55979139
v 0.22878371 -0.07110845 0.50720579
v 0.23645337 -0.01274476 0.50653481
v 0.19523277 -0.01551345 0.55829909
v 0.16540752 -0.07682602 0.52815258
v 0.23487291 -0.01773404 0.55781475
v 0.23524736 -0.03407602 0.50705600
v 0.17127238 -0.07491704 0.55904630
v 0.16287859 -0.07501776 0.50586197
v 0.23553275 -0.06405179 0.56016211
v 0.19083057 -0.02337005 0.55829940
v 0.16654946 -0.06893770 0.50544645
v 0.23500414 -0.06384255 0.55277306
v 0.18655649 -0.01319794 0.50581773
v 0.23465977 -0.04867188 0.52234814
v 0.19224779 -0.01695996 0.55008405
v 0.18201268 -0.02925122 0.50558043
f 5 2 1
f 6 3 4
f 7 2 3
f 8 5 1
f 9 2 5
f 10 3 6
f 10 7 3
f 10 6 4
f 10 8 1
f 10 4 8
f 11 8 4
f 11 5 8
f 12 3 2
f 12 2 9
f 13 10 1
f 13 1 2
f 14 9 5
f 14 5 11
f 14 12 9
f 14 4 3
f 15 13 2
f 15 2 7
f 15 7 10
f 15 10 13
f 16 14 11
f 16 11 4
f 16 4 14
f 17 14 3
f 17 3 12
f 17 12 14

