# https://github.com/mikedh/trimesh
v -0.11794935 -0.07716403 0.47596933
v -0.11331360 -0.07168818 0.47853821
v -0.13488158 -0.07023801 0.47389059
v -0.13640041 -0.01130724 0.48338414
v -0.11382053 -0.01163368 0.48592393
v -0.13597787 -0.02621203 0.48212174
v -0.14038674 -0.07666435 0.46889339
v -0.11704040 -0.01398178 0.48539321
v -0.13956460 -0.01414276 0.48277937
v -0.11335089 -0.04156429 0.48335776
v -0.12083467 -0.04144661 0.48237907
f 1 2 3
f 5 2 1
f 6 3 2
f 7 5 1
f 7 1 3
f 7 4 5
f 8 5 4
f 9 4 7
f 9 8 4
f 9 6 8
f 9 7 3
f 9 3 6
f 10 8 6
f 10 2 5
f 10 5 8
f 11 10 6
f 11 6 2
f 11 2 10

