# https://github.com/mikedh/trimesh
v 0.19124345 0.20921801 0.33936824
v 0.19838217 0.22035661 0.28563632
v 0.19089992 0.23388926 0.33762924
v 0.17183635 0.23775919 0.33829615
v 0.17423000 0.21581540 0.28739114
v 0.19413414 0.24176231 0.28461023
v 0.19672892 0.21893897 0.32328790
v 0.18694797 0.20943813 0.30932616
v 0.16404327 0.21208448 0.33995756
v 0.18598529 0.23739546 0.33735966
v 0.17391845 0.24052418 0.28553550
v 0.19848913 0.23700006 0.28446754
v 0.19372020 0.21510364 0.28599642
v 0.16529805 0.23275521 0.33894321
v 0.17055644 0.20584603 0.33994916
v 0.19153492 0.23812066 0.31426717
v 0.16796799 0.23093368 0.29425232
v 0.19625595 0.22865052 0.32260371
v 0.17701781 0.20945423 0.30980298
v 0.19122080 0.20976155 0.33177705
v 0.16911419 0.22081947 0.29511737
v 0.16855282 0.23433624 0.30137035
v 0.16852789 0.21583854 0.31070897
f 1 3 4
f 7 1 2
f 7 3 1
f 10 6 4
f 10 4 3
f 11 4 6
f 12 6 3
f 12 7 2
f 12 11 6
f 13 2 1
f 13 5 11
f 13 12 2
f 13 11 12
f 14 9 1
f 14 1 4
f 14 4 11
f 15 8 1
f 15 1 9
f 15 9 5
f 16 10 3
f 16 3 6
f 16 6 10
f 17 11 5
f 17 9 14
f 18 12 3
f 18 3 7
f 18 7 12
f 19 13 8
f 19 5 13
f 19 15 5
f 19 8 15
f 20 13 1
f 20 1 8
f 20 8 13
f 21 17 5
f 21 9 17
f 22 17 14
f 22 14 11
f 22 11 17
f 23 21 5
f 23 5 9
f 23 9 21

