# https://github.com/mikedh/trimesh
v 0.19372020 0.21510364 0.28599642
v 0.20583089 0.23045085 0.20202102
v 0.19675644 0.23972244 0.28384366
v 0.18477884 0.24646893 0.26964952
v 0.18239404 0.22993687 0.20311777
v 0.20505426 0.25002821 0.20011610
v 0.17391845 0.24052418 0.28553550
v 0.20477518 0.23286430 0.24674963
v 0.19687060 0.22468073 0.20274878
v 0.19396902 0.24459740 0.26869274
v 0.19838217 0.22035661 0.28563632
v 0.17423000 0.21581540 0.28739114
v 0.18364390 0.24867392 0.20234652
v 0.20369431 0.24157062 0.23781377
v 0.20083473 0.22562796 0.21017221
v 0.19825387 0.24618817 0.24572392
v 0.20400626 0.22811045 0.23207488
v 0.17564152 0.23333956 0.23345238
v 0.18540491 0.21689587 0.25672285
v 0.18019531 0.24571102 0.25475634
v 0.20404656 0.23709449 0.24624681
v 0.19417965 0.21808619 0.25599410
v 0.17644525 0.22735014 0.24126531
v 0.17576538 0.23689015 0.23293408
v 0.18824463 0.22539430 0.20373306
v 0.17617894 0.22232900 0.25685043
v 0.17644896 0.24202293 0.24808459
v 0.17969220 0.21730200 0.26450514
v 0.17520831 0.21681602 0.28004406
f 7 3 4
f 8 2 6
f 9 6 2
f 9 5 6
f 10 6 4
f 10 4 3
f 11 3 7
f 11 8 3
f 11 1 2
f 12 11 7
f 12 1 11
f 13 6 5
f 13 4 6
f 14 6 3
f 15 9 2
f 15 2 1
f 16 10 3
f 16 3 6
f 16 6 10
f 17 11 2
f 17 2 8
f 17 8 11
f 18 12 7
f 19 1 12
f 20 13 7
f 20 7 4
f 20 4 13
f 21 8 6
f 21 6 14
f 21 14 3
f 21 3 8
f 22 15 1
f 22 9 15
f 22 19 9
f 22 1 19
f 23 18 5
f 23 12 18
f 24 13 5
f 24 5 18
f 24 18 7
f 25 5 9
f 25 9 19
f 26 23 5
f 26 5 12
f 26 12 23
f 27 24 7
f 27 7 13
f 27 13 24
f 28 25 19
f 28 19 12
f 29 12 5
f 29 5 25
f 29 28 12
f 29 25 28

