# https://github.com/mikedh/trimesh
v -0.04553455 -0.26076922 0.70477192
v -0.04513634 -0.25094178 0.65965570
v -0.04619732 -0.18880384 0.65803208
v -0.22079203 -0.15658614 0.70428853
v -0.14030091 -0.23210611 0.70627625
v -0.21517261 -0.15281863 0.65973246
v -0.04706992 -0.20046746 0.70304227
v -0.04478727 -0.25616076 0.68299028
v -0.10382142 -0.24781433 0.70607458
v -0.05517830 -0.18626398 0.65634782
v -0.18294620 -0.19408367 0.67601368
v -0.13452142 -0.16277999 0.70272978
v -0.21426286 -0.16678212 0.70534139
v -0.11829463 -0.23151610 0.66071669
v -0.07479270 -0.25599523 0.70592446
v -0.11755272 -0.16232237 0.65683760
v -0.16301129 -0.21827539 0.70601299
v -0.21188428 -0.16497110 0.68339145
v -0.12508988 -0.23055650 0.66858340
v -0.16086962 -0.20815721 0.66104607
v -0.05967608 -0.25401452 0.68344985
v -0.09634426 -0.23943535 0.66050939
v -0.19753170 -0.17946908 0.67591314
v -0.11076309 -0.23821777 0.67614288
v -0.13961588 -0.22324771 0.66855267
v -0.16829992 -0.20860926 0.68397850
v -0.08879901 -0.24552175 0.67624853
v -0.21174686 -0.15813885 0.66041484
v -0.13956252 -0.23074621 0.69899132
v -0.14707259 -0.22295923 0.68385096
v -0.07407907 -0.24581059 0.66087926
v -0.16130788 -0.21573660 0.69142654
f 8 2 3
f 8 7 1
f 8 3 7
f 10 3 2
f 12 7 3
f 12 6 4
f 13 12 4
f 13 7 12
f 15 5 9
f 15 13 5
f 15 7 13
f 15 1 7
f 16 12 3
f 16 3 10
f 16 6 12
f 16 14 6
f 17 5 13
f 18 13 4
f 18 4 6
f 19 9 5
f 20 6 14
f 21 8 1
f 21 1 15
f 21 2 8
f 22 14 16
f 22 16 10
f 22 10 2
f 23 13 18
f 23 17 13
f 23 11 17
f 24 19 14
f 24 9 19
f 24 22 9
f 24 14 22
f 25 20 14
f 25 14 19
f 26 20 17
f 26 17 11
f 26 11 20
f 27 15 9
f 27 9 22
f 28 23 18
f 28 18 6
f 28 6 20
f 28 20 11
f 28 11 23
f 29 25 19
f 29 19 5
f 30 5 17
f 30 20 25
f 30 29 5
f 30 25 29
f 31 21 15
f 31 15 27
f 31 2 21
f 31 27 22
f 31 22 2
f 32 30 17
f 32 17 20
f 32 20 30

