# https://github.com/mikedh/trimesh
v 0.06914229 -0.13657123 0.49057881
v 0.07612371 -0.13357924 0.39354495
v 0.07588246 -0.01193164 0.48952283
v 0.00744045 -0.01202360 0.49079737
v 0.00746386 -0.13361080 0.39332291
v 0.07617896 -0.13458963 0.49094369
v 0.00736279 -0.13185333 0.47175812
v 0.07595062 -0.01198291 0.39498648
v 0.00727530 -0.09421222 0.48257004
v 0.00744538 -0.01202886 0.39749752
v 0.00731243 -0.12369376 0.47533543
f 5 2 1
f 6 3 4
f 6 4 1
f 6 1 2
f 7 5 1
f 8 2 5
f 8 6 2
f 8 3 6
f 9 1 4
f 10 8 5
f 10 4 3
f 10 3 8
f 10 9 4
f 10 5 9
f 11 7 1
f 11 1 9
f 11 9 5
f 11 5 7

