# https://github.com/mikedh/trimesh
v 0.19337034 -0.17646582 0.64577590
v 0.18724608 -0.17076323 0.60180064
v 0.15671268 -0.11078682 0.60974586
v 0.16208696 -0.11725373 0.65365715
v 0.09254033 -0.15960292 0.61198743
v 0.11553548 -0.15928844 0.65017080
v 0.09440667 -0.15619292 0.60322516
v 0.09173998 -0.15789795 0.60493723
v 0.10876495 -0.16074309 0.64211146
v 0.13382184 -0.13192932 0.60370000
f 1 2 3
f 1 3 4
f 5 2 1
f 6 1 4
f 8 5 4
f 8 4 3
f 8 3 7
f 8 7 2
f 8 2 5
f 9 5 1
f 9 1 6
f 9 6 4
f 9 4 5
f 10 7 3
f 10 3 2
f 10 2 7

