# https://github.com/mikedh/trimesh
v -0.12302046 -0.08393490 0.39402319
v -0.12851230 -0.08115790 0.38308234
v -0.12950499 -0.03486402 0.39488291
v -0.22183546 0.02137448 0.40131133
v -0.20903696 -0.07850114 0.40102857
v -0.20640236 0.02093789 0.39299951
v -0.12573610 -0.06279731 0.38724848
v -0.21310933 -0.06974668 0.40199345
v -0.19063034 0.02623405 0.39645480
v -0.20455003 -0.07660107 0.39058409
v -0.21720603 0.02085875 0.39295045
v -0.21161377 -0.06938446 0.39664548
v -0.21988617 -0.03279510 0.39165632
v -0.21211031 -0.06235496 0.39225547
v -0.22164384 0.01556124 0.39340746
v -0.22058904 -0.04835583 0.40179487
v -0.22097233 0.02016209 0.39582710
v -0.21869549 -0.04756791 0.39624275
f 5 2 1
f 7 1 2
f 7 3 1
f 7 2 6
f 8 5 1
f 8 1 3
f 8 3 4
f 9 4 3
f 9 7 6
f 9 3 7
f 10 2 5
f 11 9 6
f 11 4 9
f 11 6 2
f 12 10 5
f 12 5 8
f 13 11 2
f 13 2 10
f 14 13 10
f 14 10 12
f 15 11 13
f 16 12 8
f 16 8 4
f 16 15 13
f 16 4 15
f 17 15 4
f 17 4 11
f 17 11 15
f 18 14 12
f 18 12 16
f 18 16 13
f 18 13 14

