# https://github.com/mikedh/trimesh
v -0.15222369 0.19326379 0.48114651
v -0.15110686 0.19438084 0.40079206
v -0.15066565 0.25398908 0.45737493
v -0.15164342 0.22226424 0.47591386
v -0.21527783 0.19227565 0.45783235
v -0.21267412 0.19247013 0.40321093
v -0.18818278 0.19943361 0.47402057
v -0.18780117 0.19263928 0.47490359
v -0.19158579 0.23872128 0.41676840
v -0.16602819 0.22165336 0.47409025
v -0.20184936 0.19281141 0.46923526
v -0.21198015 0.21216303 0.41672134
v -0.19756641 0.23235951 0.45573735
v -0.15157047 0.25129672 0.40322027
v -0.15133357 0.24293984 0.46801012
v -0.20499966 0.21881498 0.40478143
v -0.21264755 0.19922112 0.40519414
v -0.16446459 0.25339866 0.44446561
v -0.20689396 0.21265449 0.46157683
v -0.20415190 0.22543919 0.41638629
v -0.15086143 0.25425786 0.40970900
v -0.17935189 0.23504869 0.46610836
v -0.18626173 0.23898537 0.40472838
v -0.17247198 0.24709157 0.45971635
v -0.19138229 0.23849785 0.45127121
v -0.19961372 0.21274123 0.46663796
v -0.21200333 0.21172162 0.45149501
v -0.16417046 0.25248930 0.41614070
v -0.16594711 0.24155987 0.46619538
v -0.19727608 0.23203270 0.41032687
v -0.15781533 0.25243956 0.45705764
v -0.18588036 0.23896309 0.46004489
v -0.17800040 0.24500166 0.45800199
v -0.19986834 0.22597314 0.46040423
v -0.21208109 0.20667857 0.45771808
v -0.20446732 0.22474865 0.45113873
v -0.17821102 0.24520339 0.41031409
v -0.17182319 0.24607990 0.40464366
v -0.15775807 0.25276951 0.40997643
f 1 2 3
f 1 3 4
f 6 2 1
f 8 6 1
f 8 5 6
f 8 1 7
f 10 7 1
f 10 1 4
f 11 8 7
f 11 5 8
f 14 2 6
f 15 10 4
f 15 4 3
f 17 6 5
f 17 5 12
f 17 16 6
f 17 12 16
f 19 5 11
f 20 13 9
f 20 16 12
f 21 3 2
f 21 2 14
f 21 18 3
f 23 14 6
f 23 6 16
f 24 15 3
f 25 18 9
f 25 9 13
f 26 19 11
f 26 11 7
f 26 7 10
f 26 10 22
f 27 12 5
f 28 9 18
f 28 18 21
f 29 22 10
f 29 10 15
f 29 24 22
f 29 15 24
f 30 20 9
f 30 9 23
f 30 23 16
f 30 16 20
f 31 24 3
f 31 3 18
f 31 18 24
f 32 22 24
f 32 25 13
f 33 24 18
f 33 18 25
f 33 32 24
f 33 25 32
f 34 32 13
f 34 19 26
f 34 26 22
f 34 22 32
f 35 27 5
f 35 5 19
f 35 34 27
f 35 19 34
f 36 20 12
f 36 12 27
f 36 13 20
f 36 34 13
f 36 27 34
f 37 23 9
f 37 9 28
f 38 37 28
f 38 14 23
f 38 23 37
f 39 38 28
f 39 28 21
f 39 21 14
f 39 14 38

