# https://github.com/mikedh/trimesh
v 0.12166102 -0.11869572 0.39383045
v -0.04771576 -0.01002881 0.39216944
v 0.06834071 -0.03493390 0.39663763
v -0.04571624 -0.01206257 0.39682657
v -0.10679957 -0.11872077 0.39284632
v 0.03027608 -0.01203598 0.39742999
v 0.06843129 -0.03478913 0.39210176
v -0.10685692 -0.08821111 0.39466395
v 0.12172408 -0.08817747 0.39494284
v 0.06831152 -0.12631294 0.39367062
v -0.07096655 -0.03253126 0.39235966
v -0.06850686 -0.03506752 0.39617967
v -0.04585636 -0.12629943 0.39322393
v -0.10641794 -0.11779805 0.39297961
f 6 2 4
f 7 6 3
f 7 2 6
f 7 5 2
f 9 3 6
f 9 7 3
f 9 1 7
f 10 7 1
f 10 5 7
f 10 1 9
f 10 9 6
f 10 6 8
f 11 4 2
f 11 2 5
f 11 5 8
f 12 8 6
f 12 6 4
f 12 11 8
f 12 4 11
f 13 10 8
f 13 5 10
f 14 13 8
f 14 8 5
f 14 5 13

