# https://github.com/mikedh/trimesh
v 0.07690871 -0.13709601 0.50570943
v 0.13452078 -0.08612909 0.46888773
v 0.13249710 -0.10722733 0.50556672
v 0.07586653 -0.08030989 0.48173444
v 0.07507569 -0.13093779 0.46349029
v 0.12712013 -0.07829093 0.47521214
v 0.11866069 -0.11835164 0.50917372
v 0.11555339 -0.11283881 0.46358411
v 0.12799165 -0.11090152 0.50485673
v 0.07948079 -0.13606462 0.50446638
f 5 1 4
f 5 4 2
f 6 3 2
f 6 2 4
f 6 4 3
f 7 3 4
f 7 4 1
f 8 5 2
f 8 2 3
f 9 8 3
f 9 3 7
f 9 7 8
f 10 8 7
f 10 7 1
f 10 1 5
f 10 5 8

