# https://github.com/mikedh/trimesh
v -0.19631740 0.22932309 0.13483538
v -0.19935737 0.23775862 0.09735653
v -0.19635231 0.24871064 0.13357352
v -0.21104924 0.25415996 0.11707559
v -0.22204651 0.23703567 0.08716120
v -0.20516516 0.25458974 0.08758153
v -0.21599494 0.24893654 0.13212918
v -0.20834992 0.23220143 0.08891040
v -0.19947565 0.24872113 0.09587502
v -0.20216405 0.25278279 0.11770939
v -0.22251056 0.25120921 0.08661247
v -0.21608010 0.23028816 0.13315420
v -0.20332429 0.23500164 0.08871046
v -0.21741428 0.25577755 0.08659280
v -0.21711101 0.23285230 0.08821300
v -0.21992128 0.24522490 0.12458905
v -0.20327067 0.23309965 0.09734564
v -0.21627133 0.25295752 0.10909895
v -0.21942255 0.23522348 0.12508114
f 1 2 3
f 7 1 3
f 7 3 4
f 9 6 3
f 9 3 2
f 10 6 4
f 10 4 3
f 10 3 6
f 12 1 7
f 12 8 1
f 13 2 1
f 13 9 2
f 13 6 9
f 13 5 6
f 14 6 5
f 14 5 11
f 14 4 6
f 15 12 5
f 15 8 12
f 15 13 8
f 15 5 13
f 16 11 5
f 16 12 7
f 16 7 11
f 17 13 1
f 17 1 8
f 17 8 13
f 18 14 11
f 18 11 7
f 18 7 4
f 18 4 14
f 19 16 5
f 19 5 12
f 19 12 16

