# https://github.com/mikedh/trimesh
v -0.15572198 -0.16129294 0.74691909
v -0.12259840 -0.15753624 0.65069713
v -0.14110581 -0.16127413 0.71833806
v -0.16401974 -0.12199020 0.66501195
v -0.14443520 -0.14104199 0.65611692
v -0.16426162 -0.14581835 0.73292745
v -0.12476392 -0.16051756 0.66497330
v -0.16123859 -0.15861148 0.74836691
v -0.16169809 -0.12005524 0.65051396
v -0.15936643 -0.14961658 0.73125088
v -0.16352222 -0.15469771 0.74532300
v -0.12599250 -0.15459534 0.64920647
v -0.15822492 -0.12367596 0.64937559
f 3 2 4
f 6 3 4
f 7 2 3
f 7 3 1
f 8 7 1
f 9 4 2
f 10 6 1
f 10 1 3
f 10 3 6
f 11 6 4
f 11 9 8
f 11 4 9
f 11 8 1
f 11 1 6
f 12 8 5
f 12 2 7
f 12 7 8
f 12 9 2
f 13 5 8
f 13 8 9
f 13 12 5
f 13 9 12

