# https://github.com/mikedh/trimesh
v 0.12336286 0.19690115 0.48246427
v 0.12164437 0.19353097 0.39982704
v 0.12134232 0.26489700 0.45224320
v -0.15101229 0.25555309 0.45136446
v -0.15469137 0.19750895 0.48040530
v -0.05285291 0.26077803 0.40272145
v 0.12116517 0.26208597 0.40224995
v -0.09116555 0.26090168 0.45125358
v -0.15110686 0.19438084 0.40079206
v -0.10611114 0.26166877 0.42312501
v -0.15061747 0.25281298 0.40481517
v -0.10638747 0.26116304 0.44433251
v -0.09863560 0.26125813 0.41642894
v -0.08339488 0.26071886 0.40958894
f 5 2 1
f 5 1 3
f 7 1 2
f 7 3 1
f 7 2 6
f 8 5 3
f 8 4 5
f 9 6 2
f 9 2 5
f 10 7 6
f 10 3 7
f 11 9 5
f 11 5 4
f 11 4 10
f 11 6 9
f 12 8 3
f 12 3 10
f 12 10 4
f 12 4 8
f 13 11 10
f 13 10 6
f 14 13 6
f 14 6 11
f 14 11 13

