# https://github.com/mikedh/trimesh
v -0.15414498 -0.11691642 0.34487584
v -0.14618310 -0.11462662 0.30868180
v -0.13784599 -0.09168022 0.36379661
v -0.16855135 -0.08632200 0.36186609
v -0.17722310 -0.12081691 0.30633692
v -0.15077406 -0.09494462 0.31149130
v -0.16754745 -0.11098528 0.35859240
v -0.14177155 -0.10988709 0.36040666
v -0.14978835 -0.12083998 0.30799058
v -0.14685803 -0.10137570 0.31139539
v -0.14208384 -0.08270628 0.36276285
v -0.17152001 -0.09440862 0.30917027
v -0.13662741 -0.10013773 0.36278096
v -0.16508170 -0.11672143 0.34375259
v -0.17456981 -0.09791354 0.35324627
v -0.14890023 -0.11722093 0.33725649
v -0.14607498 -0.08641081 0.34164682
v -0.13939455 -0.09235573 0.35645810
v -0.16538156 -0.08847871 0.32507747
v -0.13780725 -0.10099577 0.35513635
v -0.16958378 -0.11694571 0.33596594
v -0.17301643 -0.10781191 0.35155608
v -0.17676943 -0.09969834 0.30847240
v -0.16878235 -0.08908035 0.33226205
v -0.14950974 -0.08940103 0.32671692
v -0.17478300 -0.11808115 0.32069954
f 8 7 1
f 9 5 2
f 9 1 5
f 9 2 8
f 10 2 6
f 11 4 3
f 12 6 2
f 12 2 5
f 13 3 4
f 13 4 7
f 13 7 8
f 13 8 2
f 14 5 1
f 14 1 7
f 15 7 4
f 16 9 8
f 16 8 1
f 16 1 9
f 17 11 10
f 17 10 6
f 18 11 3
f 18 3 10
f 18 10 11
f 19 4 11
f 19 11 17
f 19 6 12
f 20 10 3
f 20 3 13
f 20 13 2
f 20 2 10
f 21 14 7
f 21 5 14
f 22 15 5
f 22 7 15
f 23 12 5
f 23 5 15
f 23 15 4
f 24 19 12
f 24 4 19
f 24 23 4
f 24 12 23
f 25 19 17
f 25 17 6
f 25 6 19
f 26 21 7
f 26 5 21
f 26 22 5
f 26 7 22

