# https://github.com/mikedh/trimesh
v -0.10680751 -0.03490209 0.39537214
v -0.08391635 -0.01211549 0.39544977
v -0.21321399 0.02539144 0.39978654
v -0.19812262 0.16306662 0.39991123
v -0.11830159 0.13608187 0.39251642
v -0.09914399 0.10976478 0.39874743
v -0.09594438 0.11299094 0.39247936
v -0.21354681 0.02453767 0.39459602
v -0.21292733 0.15541757 0.40068209
v -0.17529725 0.16305608 0.40013841
v -0.08390713 0.02596197 0.39618047
v -0.16008181 -0.03488271 0.39455104
v -0.12197995 0.13262404 0.39943228
v -0.21083479 0.15531025 0.39984115
v -0.19067519 -0.01192076 0.39479482
f 1 2 3
f 6 3 2
f 7 2 1
f 7 5 6
f 8 5 7
f 9 8 3
f 10 5 4
f 10 4 9
f 11 7 6
f 11 6 2
f 11 2 7
f 12 1 3
f 12 8 7
f 12 7 1
f 13 9 3
f 13 3 6
f 13 10 9
f 13 6 5
f 13 5 10
f 14 9 4
f 14 4 5
f 14 5 8
f 14 8 9
f 15 12 3
f 15 3 8
f 15 8 12

