# https://github.com/mikedh/trimesh
v 0.06715674 -0.25715076 0.70558399
v 0.06687653 -0.23466354 0.60668948
v 0.07058098 -0.17174795 0.62572257
v 0.00756379 -0.17562655 0.60413768
v 0.00715130 -0.24706798 0.63004327
v 0.06885436 -0.16589628 0.60482517
v 0.00758210 -0.20524694 0.70368388
v 0.04412282 -0.23900033 0.60734068
v 0.03963521 -0.17224425 0.60290268
v 0.07047627 -0.19400029 0.70269932
v 0.00743812 -0.26315839 0.70428475
v 0.05921775 -0.25381544 0.68346799
v 0.00723251 -0.24185213 0.60666766
v 0.00719207 -0.25555770 0.66792503
v 0.05908154 -0.23823758 0.61512139
v 0.06656696 -0.25412194 0.69101007
v 0.02939686 -0.25426783 0.66821266
v 0.06600254 -0.23860692 0.62269169
v 0.01471597 -0.24680147 0.63005767
f 1 2 3
f 6 3 2
f 7 4 5
f 9 6 2
f 9 4 6
f 10 6 4
f 10 3 6
f 10 4 7
f 10 7 1
f 10 1 3
f 11 1 7
f 13 5 4
f 13 4 9
f 13 9 2
f 13 2 8
f 14 11 7
f 14 7 5
f 14 5 13
f 15 12 8
f 15 8 2
f 16 2 1
f 16 1 12
f 16 12 15
f 17 12 1
f 17 1 11
f 17 11 14
f 17 8 12
f 18 16 15
f 18 15 2
f 18 2 16
f 19 17 14
f 19 14 13
f 19 13 8
f 19 8 17

