# https://github.com/mikedh/trimesh
v -0.17528419 -0.12624253 0.55960136
v -0.17390702 -0.11735071 0.38904615
v -0.17502787 -0.07283272 0.55964027
v -0.23458294 -0.07255228 0.55974997
v -0.21523082 -0.12332703 0.56047641
v -0.17423245 -0.07168424 0.39309398
v -0.17552612 -0.12646532 0.39961962
v -0.21987293 -0.11420357 0.56083164
v -0.21310933 -0.06974668 0.40199345
v -0.22889864 -0.09329442 0.56039602
v -0.20260897 -0.07906505 0.38981147
v -0.22872177 -0.07073131 0.49195987
v -0.19616478 -0.11209032 0.42504202
v -0.17709803 -0.08183588 0.38956086
v -0.19015290 -0.10471613 0.39234740
v -0.22118076 -0.07001131 0.43905706
v -0.21906110 -0.09113714 0.47756785
v -0.20392199 -0.11989525 0.48533910
v -0.19817647 -0.09102931 0.39144890
v -0.18367991 -0.11278538 0.39224889
v -0.18938491 -0.11239555 0.40279944
v -0.22669415 -0.09254082 0.53779530
v -0.22673312 -0.07739596 0.49214906
v -0.21893777 -0.09874769 0.50012987
v -0.21109716 -0.08346989 0.41711430
v -0.19016894 -0.11959313 0.42480037
v -0.21136333 -0.09832211 0.45492163
v -0.20365932 -0.09039713 0.40260275
v -0.21863579 -0.07661509 0.43949517
v -0.18315603 -0.11946911 0.40262297
v -0.21147085 -0.10566732 0.47759287
v -0.20347577 -0.09788500 0.41725233
v -0.21088451 -0.07574910 0.40278339
v -0.21169184 -0.12059198 0.53067380
f 1 2 3
f 6 3 2
f 7 2 1
f 7 1 5
f 8 5 1
f 8 1 3
f 9 3 6
f 10 8 3
f 10 3 4
f 11 9 6
f 12 4 3
f 12 10 4
f 14 11 6
f 14 6 2
f 14 2 11
f 16 12 3
f 16 3 9
f 18 7 5
f 19 11 2
f 19 2 15
f 20 15 2
f 20 2 7
f 21 15 20
f 22 8 10
f 23 12 16
f 23 16 17
f 23 17 22
f 23 22 10
f 23 10 12
f 24 5 8
f 24 22 17
f 24 8 22
f 25 16 9
f 26 18 13
f 26 7 18
f 26 13 21
f 28 19 15
f 28 15 21
f 29 17 16
f 29 16 25
f 29 27 17
f 29 25 27
f 30 26 21
f 30 7 26
f 30 21 20
f 30 20 7
f 31 27 13
f 31 13 18
f 31 5 24
f 31 24 17
f 31 17 27
f 32 28 21
f 32 21 13
f 32 13 27
f 32 27 25
f 32 25 28
f 33 28 25
f 33 25 9
f 33 19 28
f 33 9 11
f 33 11 19
f 34 31 18
f 34 18 5
f 34 5 31

