# https://github.com/mikedh/trimesh
v -0.20193536 -0.01611457 0.56568162
v -0.18579130 -0.01329377 0.49069087
v -0.20219466 0.01020112 0.48884663
v -0.21857138 0.01187441 0.48916686
v -0.23562278 -0.01216420 0.49105744
v -0.20971804 -0.01342820 0.57140410
v -0.19175712 -0.00289080 0.49688082
v -0.23097948 -0.01595446 0.55088902
v -0.22918882 0.00441029 0.48913773
v -0.19856947 -0.00378067 0.52606341
v -0.21325747 0.00934393 0.50358993
v -0.18946907 -0.01539504 0.52013659
v -0.19128409 -0.00143688 0.48963927
v -0.22013853 -0.01476171 0.57374402
v -0.20493412 -0.01294602 0.56395982
v -0.19833480 0.00312634 0.50416828
v -0.20784691 0.00145836 0.52616669
v -0.19237237 -0.00988507 0.51940273
v -0.22596906 -0.01555800 0.56605475
v -0.20747679 -0.01541605 0.57345197
v -0.21853411 -0.01350856 0.57156666
v -0.20297145 0.00863303 0.49603420
v -0.22879959 -0.01281512 0.54959947
v -0.22256478 -0.01253446 0.56454173
v -0.22289118 -0.00594136 0.54180798
v -0.21712568 0.00819349 0.50316807
v -0.22808401 0.00340200 0.49644519
f 9 2 5
f 9 4 3
f 9 5 8
f 11 3 4
f 12 1 8
f 12 8 5
f 12 5 2
f 13 9 3
f 13 2 9
f 13 12 2
f 13 7 12
f 15 1 10
f 16 10 7
f 16 13 3
f 16 7 13
f 17 11 6
f 17 6 15
f 17 15 10
f 18 10 1
f 18 1 12
f 18 12 7
f 18 7 10
f 19 8 1
f 20 6 14
f 20 15 6
f 20 1 15
f 20 19 1
f 20 14 19
f 21 14 6
f 21 6 11
f 22 3 11
f 22 11 17
f 22 16 3
f 22 17 10
f 22 10 16
f 23 9 8
f 23 8 19
f 24 19 14
f 24 14 21
f 24 21 11
f 25 24 4
f 25 23 19
f 25 19 24
f 26 24 11
f 26 11 4
f 26 4 24
f 27 25 4
f 27 4 9
f 27 9 23
f 27 23 25

