# https://github.com/mikedh/trimesh
v 0.06731544 -0.18280010 0.40129561
v 0.17417770 -0.12545566 0.40013986
v 0.17086799 -0.12966411 0.40197735
v 0.06835899 -0.11839137 0.39397536
v 0.06737352 -0.17631977 0.38953232
v 0.08103388 -0.17961152 0.40254154
v 0.06669047 -0.18047896 0.39505569
v 0.17084405 -0.12172995 0.39097004
v 0.11035204 -0.16385721 0.39216316
v 0.06920650 -0.14577936 0.39040213
v 0.12159999 -0.11840193 0.39384229
v 0.16809575 -0.12629178 0.39240814
v 0.08868051 -0.17172363 0.39158379
v 0.14692943 -0.14884849 0.40252082
v 0.13935300 -0.14873876 0.39280606
v 0.10247325 -0.16976279 0.39663951
v 0.08038322 -0.17752256 0.39705340
v 0.14598527 -0.14739035 0.39775858
v 0.10357439 -0.17184868 0.40268067
f 3 2 4
f 6 3 4
f 6 4 1
f 7 1 4
f 7 4 5
f 7 6 1
f 9 5 8
f 10 8 5
f 10 5 4
f 10 4 8
f 11 8 4
f 11 4 2
f 11 2 8
f 12 8 2
f 12 2 3
f 13 7 5
f 13 5 9
f 14 3 6
f 15 9 8
f 15 8 12
f 16 13 9
f 17 6 7
f 17 7 13
f 17 16 6
f 17 13 16
f 18 12 3
f 18 3 14
f 18 15 12
f 18 9 15
f 19 14 6
f 19 6 16
f 19 16 9
f 19 18 14
f 19 9 18

