# https://github.com/mikedh/trimesh
v 0.10817706 -0.13712042 0.55873087
v 0.13249710 -0.10722733 0.50556672
v 0.12471162 -0.12729366 0.56138428
v 0.13319534 -0.10805158 0.51283288
v 0.08391208 -0.13477949 0.50613401
v 0.13144842 -0.12121142 0.55890097
v 0.11866069 -0.11835164 0.50917372
v 0.12799165 -0.11090152 0.50485673
v 0.13309612 -0.11554290 0.54314621
v 0.08501575 -0.13764205 0.52061211
v 0.11140258 -0.13489491 0.55723498
v 0.08626984 -0.13370225 0.50491653
v 0.12624281 -0.12525850 0.55780020
f 5 4 2
f 6 1 3
f 8 2 6
f 8 3 7
f 9 6 2
f 9 2 4
f 10 1 6
f 10 6 9
f 10 9 4
f 10 4 5
f 11 7 3
f 11 3 1
f 11 1 7
f 12 7 1
f 12 8 7
f 12 5 2
f 12 2 8
f 12 10 5
f 12 1 10
f 13 8 6
f 13 6 3
f 13 3 8

