# https://github.com/mikedh/trimesh
v 0.23204006 -0.01600425 0.56588244
v 0.23600275 -0.01185015 0.49917193
v 0.22405358 0.01136845 0.49713062
v 0.20784015 0.00995103 0.51117554
v 0.18586388 -0.01298101 0.49836666
v 0.21909752 -0.01323787 0.57928587
v 0.22952781 0.00633912 0.49796365
v 0.23618254 -0.01371663 0.52896341
v 0.23517546 -0.00634528 0.49853430
v 0.20184833 0.01151234 0.49697328
v 0.22428346 -0.00703294 0.55610707
v 0.22294596 0.00845799 0.51090615
v 0.20055670 -0.01583909 0.57340682
v 0.23471258 -0.00927852 0.52806660
v 0.19048714 -0.00165515 0.49742262
v 0.22855815 -0.01229158 0.56455297
v 0.22871253 0.00177934 0.51901008
v 0.18941346 -0.01448134 0.52811121
v 0.20669112 -0.01550452 0.58116982
v 0.19882706 0.00295599 0.51918106
v 0.21987665 -0.01433370 0.58161080
v 0.19523277 -0.01551345 0.55829909
v 0.20892201 -0.01386648 0.57897634
v 0.20211542 0.00989630 0.50409498
v 0.19135861 -0.00218745 0.50489672
v 0.20323263 -0.01330744 0.57166979
v 0.19808974 -0.01169209 0.55687733
v 0.19179784 -0.00916513 0.52737561
f 8 5 2
f 8 1 5
f 9 2 5
f 9 3 7
f 9 8 2
f 10 4 3
f 12 3 4
f 12 4 6
f 12 6 11
f 14 1 8
f 14 9 7
f 14 8 9
f 15 9 5
f 15 3 9
f 15 10 3
f 16 12 11
f 17 7 3
f 17 3 12
f 17 12 16
f 17 16 1
f 17 14 7
f 17 1 14
f 18 5 1
f 18 15 5
f 19 13 1
f 21 16 11
f 21 11 6
f 21 1 16
f 21 19 1
f 22 18 1
f 22 1 13
f 23 6 4
f 23 21 6
f 23 19 21
f 24 4 10
f 24 10 20
f 25 20 10
f 25 10 15
f 25 15 18
f 26 20 13
f 26 13 19
f 26 24 20
f 26 4 24
f 26 23 4
f 26 19 23
f 27 22 13
f 27 13 20
f 27 20 22
f 28 22 20
f 28 20 25
f 28 25 18
f 28 18 22

