# https://github.com/mikedh/trimesh
v -0.10676158 -0.01203817 0.45301062
v -0.10668437 -0.01204308 0.39535438
v -0.10676260 0.04900111 0.39684530
v -0.21301259 0.04963137 0.45201768
v -0.23486125 -0.01192141 0.45314364
v -0.10676158 0.04887082 0.45301062
v -0.22651536 -0.01184214 0.40037106
v -0.22776587 0.00967835 0.40904365
v -0.22858946 -0.01128090 0.40880233
v -0.22840514 0.01217430 0.45218493
v -0.21233586 0.04921577 0.40149753
v -0.22183546 0.02137448 0.40131133
v -0.22660456 0.01446766 0.41575918
f 5 2 1
f 6 3 4
f 6 5 1
f 6 4 5
f 6 1 2
f 6 2 3
f 7 3 2
f 7 2 5
f 9 8 7
f 9 7 5
f 9 5 8
f 10 8 5
f 10 5 4
f 11 4 3
f 11 3 7
f 11 10 4
f 12 11 7
f 12 7 8
f 12 8 11
f 13 11 8
f 13 8 10
f 13 10 11

