# https://github.com/mikedh/trimesh
v -0.16556439 0.19875955 0.36316595
v -0.16819954 0.21870847 0.30202978
v -0.16640778 0.22515052 0.36164618
v -0.18603129 0.23082951 0.34519327
v -0.19850970 0.20826166 0.29360102
v -0.17497206 0.23216497 0.29337015
v -0.19133786 0.20077006 0.36162990
v -0.17483300 0.20764298 0.29489061
v -0.16866205 0.22542345 0.31637745
v -0.17687440 0.23124907 0.34595315
v -0.19827348 0.23259666 0.29177517
v -0.19120848 0.22469710 0.35998726
v -0.18391283 0.20187001 0.30188295
v -0.16881582 0.21116423 0.30996507
v -0.16873295 0.22216175 0.30168415
v -0.17363067 0.23062390 0.33107547
v -0.19201552 0.23031284 0.32962628
v -0.19737551 0.21570081 0.34560840
v -0.19246836 0.20245855 0.32405453
v -0.17819066 0.20264543 0.31000358
v -0.16920976 0.20758577 0.31790636
v -0.19792241 0.23148892 0.29914777
v -0.19721403 0.21084236 0.34580967
v -0.18867043 0.20250701 0.30159805
v -0.17271399 0.20245734 0.32512835
v -0.19661183 0.22575329 0.32941193
v -0.19719120 0.20697295 0.32323531
f 1 2 3
f 7 1 3
f 8 6 2
f 9 6 3
f 11 10 6
f 11 4 10
f 11 8 5
f 11 6 8
f 12 7 3
f 12 10 4
f 12 3 10
f 13 1 7
f 13 5 8
f 14 8 2
f 14 2 1
f 15 9 3
f 15 3 2
f 15 2 6
f 15 6 9
f 16 10 3
f 16 3 6
f 16 6 10
f 17 12 4
f 17 4 11
f 18 11 5
f 18 7 12
f 19 7 5
f 20 13 8
f 20 1 13
f 21 14 1
f 21 1 8
f 21 8 14
f 22 17 11
f 22 12 17
f 22 11 18
f 23 18 5
f 23 7 18
f 24 13 7
f 24 7 19
f 24 19 5
f 24 5 13
f 25 20 8
f 25 8 1
f 25 1 20
f 26 22 18
f 26 18 12
f 26 12 22
f 27 23 5
f 27 5 7
f 27 7 23

