# https://github.com/mikedh/trimesh
v 0.18704752 -0.13457415 0.23765389
v 0.19354953 -0.13001278 0.23810363
v 0.16900101 -0.10271078 0.35885725
v 0.14159328 -0.07698051 0.36359070
v 0.16745431 -0.10362277 0.24321888
v 0.14274244 -0.09866556 0.36193659
v 0.18565699 -0.13298911 0.24465651
v 0.18617024 -0.10158051 0.24068940
v 0.17055026 -0.07687963 0.36187563
v 0.16740387 -0.12776694 0.24009456
v 0.16071017 -0.10968971 0.34447067
v 0.19268383 -0.10666456 0.23968719
v 0.16998562 -0.08988558 0.28028050
v 0.14884267 -0.10398516 0.36123318
v 0.18163969 -0.10131389 0.32167530
v 0.16088371 -0.11724049 0.25680216
v 0.16417972 -0.10966991 0.34387593
v 0.17674251 -0.13320304 0.24577467
v 0.18425180 -0.09694751 0.26382550
v 0.17091290 -0.09582489 0.25774561
v 0.17120450 -0.08189727 0.31749819
v 0.16615125 -0.12501359 0.26931814
v 0.17342067 -0.09758869 0.35892703
v 0.18125146 -0.09196405 0.32275479
v 0.14642992 -0.09972814 0.33208882
v 0.16115061 -0.10610441 0.25757364
v 0.15635906 -0.11033930 0.33792979
v 0.17724343 -0.13468084 0.23859271
v 0.19071923 -0.10392179 0.24809489
v 0.18068886 -0.09629446 0.25666074
v 0.16111483 -0.09586175 0.27430781
v 0.15642443 -0.08282527 0.31879998
v 0.17788741 -0.08973141 0.28687839
v 0.18997961 -0.12034499 0.26720326
v 0.17414349 -0.08281336 0.36067349
v 0.17296595 -0.08978797 0.28005998
v 0.14527949 -0.07933429 0.34981443
v 0.18936147 -0.11535160 0.27566463
v 0.18987170 -0.10477054 0.27702881
f 7 1 2
f 7 2 3
f 10 8 1
f 10 5 8
f 12 2 1
f 12 1 8
f 14 3 9
f 14 9 4
f 14 4 6
f 16 10 6
f 17 7 3
f 17 14 11
f 17 3 14
f 18 1 7
f 18 17 11
f 18 7 17
f 20 8 5
f 21 4 9
f 22 14 6
f 22 6 10
f 23 9 3
f 23 3 2
f 25 16 6
f 25 6 4
f 26 5 10
f 26 10 16
f 26 25 4
f 26 16 25
f 27 18 11
f 27 11 14
f 27 14 18
f 28 10 1
f 28 1 18
f 28 22 10
f 28 18 14
f 28 14 22
f 29 12 8
f 29 8 19
f 29 19 9
f 29 24 12
f 29 9 24
f 30 8 20
f 31 20 5
f 31 26 4
f 31 5 26
f 32 13 20
f 32 21 13
f 32 4 21
f 32 20 31
f 33 21 9
f 33 9 19
f 33 30 21
f 33 19 8
f 33 8 30
f 34 23 2
f 35 23 15
f 35 24 9
f 35 9 23
f 36 30 20
f 36 20 13
f 36 13 21
f 36 21 30
f 37 32 31
f 37 31 4
f 37 4 32
f 38 15 23
f 38 23 34
f 38 34 2
f 39 15 38
f 39 35 15
f 39 24 35
f 39 12 24
f 39 38 2
f 39 2 12

