# https://github.com/mikedh/trimesh
v 0.04468846 -0.22786135 0.56078459
v 0.04465292 -0.20431198 0.46200801
v 0.04666834 -0.14943949 0.52717218
v -0.04669443 -0.13645646 0.46405695
v -0.04527583 -0.22850471 0.56059428
v 0.04638672 -0.13716099 0.46457734
v 0.04690600 -0.15741172 0.55734745
v -0.02256900 -0.22391944 0.53126532
v 0.04660675 -0.14173217 0.48975997
v -0.04724786 -0.15754677 0.55728243
v 0.02190769 -0.22352840 0.53139470
v -0.04499703 -0.20478950 0.46187536
v -0.04692666 -0.14963849 0.52728970
v 0.02920207 -0.20835496 0.47046754
v -0.02964664 -0.21603767 0.50089034
v -0.04731175 -0.14196426 0.48976556
v 0.03693805 -0.22379323 0.53893287
v -0.04463105 -0.22350821 0.53902054
v -0.02966930 -0.20869406 0.47040786
f 6 2 4
f 7 1 2
f 8 1 5
f 9 6 4
f 9 4 3
f 9 3 7
f 9 7 2
f 9 2 6
f 10 5 1
f 10 1 7
f 10 7 3
f 11 1 8
f 12 4 2
f 13 10 3
f 13 3 4
f 14 11 8
f 16 4 12
f 16 13 4
f 16 10 13
f 16 12 5
f 16 5 10
f 17 14 2
f 17 2 1
f 17 1 11
f 17 11 14
f 18 15 8
f 18 8 5
f 18 5 12
f 19 14 8
f 19 8 15
f 19 12 2
f 19 2 14
f 19 18 12
f 19 15 18

