# https://github.com/mikedh/trimesh
v 0.03030131 -0.01204328 0.39742990
v 0.03457260 0.00031869 0.38338273
v 0.02730147 0.08239726 0.39769088
v -0.09913896 0.08699062 0.39811804
v -0.07256881 -0.01607519 0.38297227
v 0.03102125 0.07852630 0.38217928
v -0.07629094 0.08698144 0.39826289
v -0.08391635 -0.01211549 0.39544977
v -0.05950050 0.08081218 0.38297815
v -0.07346163 0.08979789 0.39186951
v -0.09917710 0.02588685 0.39603002
f 1 2 3
f 5 2 1
f 6 3 2
f 6 2 5
f 7 1 3
f 7 4 1
f 8 5 1
f 8 1 4
f 9 6 5
f 9 5 4
f 10 7 3
f 10 3 6
f 10 6 9
f 10 9 4
f 10 4 7
f 11 8 4
f 11 4 5
f 11 5 8

