# https://github.com/mikedh/trimesh
v -0.13939619 -0.12878712 0.60437076
v -0.11281340 -0.12355824 0.50685682
v -0.11710581 -0.13072815 0.55093459
v -0.17803682 -0.05092116 0.52115399
v -0.19077761 -0.14100176 0.50252908
v -0.17726115 -0.08153399 0.60497570
v -0.17548614 -0.05281638 0.50534705
v -0.12532237 -0.13103460 0.57349894
v -0.17841369 -0.07451020 0.58962542
v -0.15794126 -0.11149394 0.60969003
v -0.17639346 -0.05049093 0.50616989
v -0.11949766 -0.11901925 0.50472289
f 3 2 4
f 5 2 3
f 8 5 3
f 8 1 5
f 8 6 1
f 8 3 6
f 9 6 3
f 9 3 4
f 9 4 5
f 9 5 6
f 10 6 5
f 10 5 1
f 10 1 6
f 11 7 5
f 11 5 4
f 11 4 2
f 12 2 5
f 12 5 7
f 12 11 2
f 12 7 11

