# https://github.com/mikedh/trimesh
v -0.19696459 0.21611179 0.20268676
v -0.19153283 0.23502601 0.14243134
v -0.18356768 0.23632680 0.20280263
v -0.20202383 0.24614891 0.20051989
v -0.21608010 0.23028816 0.13315420
v -0.19635231 0.24871064 0.13357352
v -0.21227278 0.22730274 0.20130104
v -0.18351113 0.22532859 0.20326339
v -0.20010257 0.22528802 0.14218242
v -0.19206914 0.24257765 0.14180191
v -0.19391614 0.24574955 0.20121427
v -0.21599494 0.24893654 0.13212918
v -0.20768883 0.22058154 0.20192382
v -0.18440963 0.23603360 0.19529488
v -0.20570604 0.22479721 0.14182697
v -0.19359985 0.21705838 0.20322253
v -0.19631740 0.22932309 0.13483538
v -0.21222907 0.23605235 0.20061241
v -0.18446966 0.22661642 0.19574951
v -0.20978356 0.22499713 0.14920531
v -0.19162225 0.22413432 0.17326826
v -0.21211284 0.24208694 0.18516969
v -0.19679511 0.22555849 0.15020305
v -0.20786062 0.24584966 0.18504858
v -0.19402628 0.21820460 0.19581070
f 10 6 3
f 10 2 6
f 11 6 4
f 11 3 6
f 12 6 5
f 12 4 6
f 12 5 7
f 13 7 5
f 14 3 8
f 14 10 3
f 14 2 10
f 15 9 1
f 16 1 9
f 16 13 1
f 16 8 3
f 16 3 7
f 16 7 13
f 17 2 8
f 17 6 2
f 17 5 6
f 17 15 5
f 17 9 15
f 18 7 3
f 18 3 11
f 18 11 4
f 18 12 7
f 19 14 8
f 19 8 2
f 19 2 14
f 20 13 5
f 20 5 15
f 20 15 1
f 20 1 13
f 21 17 8
f 21 8 16
f 22 18 4
f 22 12 18
f 23 9 17
f 23 17 21
f 24 22 4
f 24 4 12
f 24 12 22
f 25 23 21
f 25 21 16
f 25 16 9
f 25 9 23

