# https://github.com/mikedh/trimesh
v 0.00742014 -0.09557500 0.48231480
v -0.11382053 -0.01163368 0.48592393
v -0.08274218 -0.07883274 0.48201486
v -0.11462550 -0.01222070 0.48579125
v 0.00744045 -0.01202360 0.49079737
v -0.11323321 -0.04907126 0.48247073
v -0.03037719 -0.09416352 0.48233978
v -0.08368208 -0.08021090 0.48162990
v -0.11421190 -0.04995829 0.48223424
v -0.06045239 -0.08649222 0.48230835
v 0.00727530 -0.09421222 0.48257004
v -0.03058600 -0.09553050 0.48207974
v -0.06097517 -0.08789380 0.48200212
v 0.00752445 -0.01245765 0.49077390
f 5 1 4
f 5 4 2
f 6 3 2
f 6 2 4
f 9 6 4
f 9 4 1
f 9 1 8
f 9 8 3
f 9 3 6
f 11 7 1
f 12 8 1
f 12 1 7
f 12 7 10
f 13 10 3
f 13 3 8
f 13 12 10
f 13 8 12
f 14 11 1
f 14 1 5
f 14 7 11
f 14 10 7
f 14 3 10
f 14 5 2
f 14 2 3

