# https://github.com/mikedh/trimesh
v 0.18027616 0.20082732 0.36252483
v 0.19124345 0.20921801 0.33936824
v 0.19120429 0.22826178 0.36043723
v 0.16519321 0.23307915 0.36169540
v 0.16735849 0.20798092 0.34112860
v 0.19089992 0.23388926 0.33762924
v 0.19038698 0.20780340 0.36184645
v 0.18001890 0.20165074 0.35501024
v 0.15873358 0.21227263 0.36336863
v 0.18584363 0.23333979 0.36051216
v 0.16529805 0.23275521 0.33894321
v 0.16972390 0.20105287 0.36325487
v 0.18991292 0.23180379 0.35242238
v 0.16050710 0.22811840 0.36235674
v 0.16135720 0.21346246 0.34837562
v 0.17017549 0.20247138 0.35594438
v 0.16161212 0.22770462 0.34723876
f 6 3 2
f 7 1 2
f 7 2 3
f 8 5 2
f 8 2 1
f 10 6 4
f 10 7 3
f 11 4 6
f 11 6 2
f 11 2 5
f 12 8 1
f 12 9 5
f 12 1 7
f 12 7 9
f 13 10 3
f 13 3 6
f 13 6 10
f 14 9 7
f 14 7 10
f 14 10 4
f 14 4 11
f 15 11 5
f 15 5 9
f 16 12 5
f 16 5 8
f 16 8 12
f 17 14 11
f 17 11 15
f 17 15 9
f 17 9 14

