# https://github.com/mikedh/trimesh
v -0.20693791 -0.20259537 0.00139166
v -0.19911176 -0.19907583 0.00103651
v -0.18738362 -0.17075189 0.12434835
v -0.20007424 -0.14710471 0.12662546
v -0.21666028 -0.18095779 0.00068228
v -0.17936706 -0.14502126 0.12728080
v -0.20119233 -0.16705095 0.12387731
v -0.19808635 -0.18991841 0.00054136
v -0.18054969 -0.16637036 0.12515548
v -0.19675455 -0.15072201 0.09760187
v -0.19492148 -0.17083676 0.12306589
v -0.21753843 -0.19821340 0.00155664
v -0.20334591 -0.18093315 0.00062102
v -0.18462225 -0.17066133 0.08120861
v -0.19991227 -0.15077987 0.10502052
v -0.21202006 -0.20172439 0.00158547
v -0.21285806 -0.17332050 0.06382172
v -0.19855328 -0.17849905 0.01507594
v -0.19936195 -0.16562209 0.04494674
v -0.18428635 -0.16240602 0.08308998
v -0.20375296 -0.16532044 0.04421071
v -0.21260012 -0.17170946 0.03535528
v -0.20006610 -0.17101040 0.11502659
v -0.21182777 -0.20177258 0.00152145
v -0.21241096 -0.17752710 0.06316369
v -0.20528219 -0.15875214 0.11728048
v -0.19215906 -0.16371333 0.06020902
v -0.18674908 -0.15147842 0.09875158
v -0.21266113 -0.17071555 0.04254392
v -0.21496766 -0.19284596 0.02232504
v -0.20535202 -0.16162248 0.11646851
v -0.18248821 -0.14819888 0.11384563
v -0.21245204 -0.18240179 0.05456984
f 1 2 3
f 7 3 4
f 8 2 1
f 8 1 5
f 9 3 2
f 9 6 4
f 9 4 3
f 10 4 6
f 11 1 3
f 11 3 7
f 13 8 5
f 14 6 9
f 14 9 2
f 14 2 8
f 15 4 10
f 16 1 11
f 17 5 12
f 18 8 13
f 20 14 8
f 20 6 14
f 20 18 6
f 20 8 18
f 21 15 10
f 21 5 15
f 21 19 13
f 21 13 5
f 22 15 5
f 22 4 15
f 23 16 11
f 23 11 7
f 24 16 12
f 24 1 16
f 24 12 5
f 24 5 1
f 25 17 12
f 26 7 4
f 27 18 13
f 28 10 6
f 28 27 13
f 28 13 19
f 28 21 10
f 28 19 21
f 29 4 22
f 29 26 4
f 29 17 26
f 29 22 5
f 29 5 17
f 30 23 7
f 30 12 16
f 30 16 23
f 31 25 7
f 31 7 26
f 31 26 17
f 31 17 25
f 32 28 6
f 32 27 28
f 32 6 18
f 32 18 27
f 33 25 12
f 33 12 30
f 33 30 7
f 33 7 25

