# https://github.com/mikedh/trimesh
v 0.22675034 0.00912106 0.49832563
v 0.23020292 0.00906604 0.45318169
v 0.21208621 0.04892171 0.45289343
v 0.18956685 0.04893118 0.47436658
v 0.19471923 0.00675032 0.49026518
v 0.19485645 0.01033425 0.46387840
v 0.20802978 0.04927657 0.46222602
v 0.23068872 0.00715855 0.48287018
v 0.19894869 0.00928538 0.49824151
v 0.22787992 0.01413690 0.45286010
v 0.20016386 0.04936306 0.46829403
v 0.22405358 0.01136845 0.49713062
v 0.20184833 0.01151234 0.49697328
f 6 4 3
f 6 5 4
f 6 2 5
f 7 1 3
f 8 2 3
f 8 3 1
f 8 5 2
f 8 1 5
f 9 5 1
f 9 4 5
f 10 6 3
f 10 3 2
f 10 2 6
f 11 7 3
f 11 3 4
f 11 4 1
f 11 1 7
f 12 9 1
f 12 1 4
f 13 12 4
f 13 4 9
f 13 9 12

