# https://github.com/mikedh/trimesh
v -0.15556451 0.17509406 0.40053622
v -0.15156130 0.17898581 0.38284168
v -0.15242889 0.22398143 0.40166781
v -0.19012549 0.23116597 0.40224676
v -0.19133786 0.20077006 0.36162990
v -0.19781172 0.22382024 0.40231015
v -0.17539972 0.17777471 0.40081113
v -0.16640778 0.22515052 0.36164618
v -0.18175154 0.19530244 0.36250851
v -0.19812667 0.19353787 0.40117688
v -0.17528212 0.17827537 0.40084160
v -0.16042019 0.21425660 0.36242475
v -0.16018713 0.23155490 0.40161523
v -0.19120848 0.22469710 0.35998726
v -0.19050897 0.18588393 0.40105242
v -0.17121330 0.19569402 0.36357590
v -0.16147178 0.20529620 0.36374524
f 1 2 3
f 6 1 3
f 6 3 4
f 7 2 1
f 9 7 5
f 9 2 7
f 11 7 1
f 11 1 6
f 12 8 3
f 12 3 2
f 13 4 3
f 13 3 8
f 14 6 4
f 14 13 8
f 14 4 13
f 14 10 6
f 14 5 10
f 14 8 12
f 14 12 9
f 14 9 5
f 15 10 5
f 15 5 7
f 15 7 11
f 15 11 6
f 15 6 10
f 16 2 9
f 16 9 12
f 17 16 12
f 17 12 2
f 17 2 16

