# https://github.com/mikedh/trimesh
v 0.12141526 0.22276916 0.47870150
v 0.12279888 0.23016090 0.47670755
v -0.12371603 0.23099186 0.47592302
v -0.15101229 0.25555309 0.45136446
v 0.12134232 0.26489700 0.45224320
v -0.12168496 0.22288940 0.47827492
v 0.04545082 0.24313940 0.47470153
v -0.15173822 0.23674378 0.47106308
v 0.12132474 0.25053600 0.46863583
v -0.06078489 0.24283722 0.47421837
v 0.07564588 0.24324972 0.47425699
v 0.12126361 0.26285515 0.45782456
v -0.12139398 0.23576463 0.47443992
v -0.13576186 0.25342749 0.46280505
v 0.08339682 0.26101177 0.46207617
v 0.12117582 0.23626728 0.47496736
v -0.15515749 0.24769956 0.46421278
v -0.13627813 0.24817873 0.46685878
v -0.06073053 0.26108523 0.45663704
v 0.05310173 0.26126038 0.46185693
v -0.15066565 0.25398908 0.45737493
v -0.15133357 0.24293984 0.46801012
v -0.06072254 0.26221964 0.45141460
f 5 2 1
f 5 1 4
f 6 4 1
f 7 6 1
f 8 6 3
f 8 4 6
f 10 3 6
f 10 6 7
f 11 7 1
f 11 1 2
f 12 9 2
f 12 2 5
f 13 8 3
f 13 3 10
f 15 11 9
f 15 7 11
f 15 9 12
f 16 11 2
f 16 2 9
f 16 9 11
f 17 4 8
f 18 13 10
f 18 10 14
f 18 8 13
f 18 14 17
f 20 10 7
f 20 7 15
f 20 14 10
f 20 19 14
f 20 5 19
f 20 15 12
f 20 12 5
f 21 17 14
f 21 4 17
f 21 19 4
f 21 14 19
f 22 18 17
f 22 17 8
f 22 8 18
f 23 19 5
f 23 5 4
f 23 4 19

