# https://github.com/mikedh/trimesh
v -0.10752257 -0.13656585 0.38910223
v -0.10590770 -0.13173969 0.39186975
v -0.17891807 -0.12196771 0.39790954
v -0.12878217 -0.06668787 0.38543079
v -0.14508988 -0.08221772 0.35453926
v -0.10657811 -0.08049018 0.39478490
v -0.15747105 -0.14036131 0.39609000
v -0.17307587 -0.07873725 0.39148799
v -0.12802138 -0.06793038 0.38306993
v -0.16515008 -0.11207304 0.35965904
v -0.10718119 -0.11964348 0.39271303
v -0.16319742 -0.08245840 0.35556228
v -0.14177155 -0.10988709 0.36040666
v -0.16512328 -0.08385538 0.35433458
v -0.17075176 -0.10710573 0.36008798
v -0.16855135 -0.08632200 0.36186609
f 6 2 1
f 6 1 5
f 7 1 2
f 7 6 3
f 8 6 4
f 8 3 6
f 9 6 5
f 9 5 4
f 9 4 6
f 10 1 7
f 10 7 3
f 11 7 2
f 11 2 6
f 11 6 7
f 12 8 4
f 12 4 5
f 13 10 5
f 13 5 1
f 13 1 10
f 14 12 5
f 14 5 10
f 14 8 12
f 15 14 10
f 15 10 3
f 15 3 8
f 16 15 8
f 16 8 14
f 16 14 15

