# https://github.com/mikedh/trimesh
v -0.06867988 0.04887695 0.49073852
v -0.06869346 0.04887082 0.45301062
v -0.06869346 0.12500706 0.45301062
v -0.10664504 0.12497660 0.48891491
v -0.10676158 0.04887082 0.45301062
v -0.06867342 0.12499734 0.49058142
v -0.10651924 0.04896255 0.48850219
v -0.10676158 0.12500706 0.45301062
v -0.07598201 0.08693548 0.49078192
v -0.06832228 0.06421579 0.49100596
v -0.06841448 0.08692482 0.49108607
v -0.07591819 0.06422141 0.49063924
v -0.06838136 0.07932200 0.49109758
f 5 2 1
f 5 3 2
f 7 5 1
f 7 4 5
f 8 5 4
f 8 3 5
f 8 6 3
f 8 4 6
f 9 6 4
f 9 4 7
f 10 1 2
f 10 2 3
f 11 3 6
f 11 6 9
f 12 10 9
f 12 9 7
f 12 7 1
f 12 1 10
f 13 11 9
f 13 9 10
f 13 10 3
f 13 3 11

