# https://github.com/mikedh/trimesh
v 0.14638758 -0.12056827 0.60472848
v 0.16793605 -0.08094776 0.55949456
v 0.15676228 -0.11014880 0.60781885
v 0.17166989 -0.08286695 0.58931713
v 0.13144842 -0.12121142 0.55890097
v 0.16825746 -0.09316253 0.60383645
v 0.17031233 -0.08991656 0.60477784
v 0.15171230 -0.10360466 0.56365645
v 0.16557106 -0.08439647 0.55856658
v 0.14130765 -0.12315503 0.59637508
v 0.13253208 -0.12232156 0.56614142
v 0.15019184 -0.11638461 0.60372604
v 0.13508962 -0.11779594 0.55779094
f 5 4 2
f 7 1 3
f 7 3 6
f 7 6 2
f 7 2 4
f 9 6 3
f 9 2 6
f 9 3 8
f 10 1 7
f 10 8 1
f 11 7 4
f 11 4 5
f 11 10 7
f 12 8 3
f 12 3 1
f 12 1 8
f 13 9 8
f 13 5 2
f 13 2 9
f 13 8 10
f 13 11 5
f 13 10 11

