# https://github.com/mikedh/trimesh
v 0.23600275 -0.01185015 0.49917193
v 0.23182998 -0.01195708 0.45341882
v 0.23020292 0.00906604 0.45318169
v 0.07594667 0.01081677 0.49069483
v 0.07588246 -0.01193164 0.48952283
v 0.22952781 0.00633912 0.49796365
v 0.23551581 -0.01183760 0.49158984
v 0.18586388 -0.01298101 0.49836666
v 0.07596540 -0.01203817 0.45301062
v 0.23517546 -0.00634528 0.49853430
v 0.23502591 -0.00598989 0.49117464
v 0.19538439 0.00586403 0.49714893
v 0.07596540 0.01080270 0.45301062
f 6 3 4
f 7 1 2
f 7 2 3
f 8 2 1
f 8 4 5
f 8 1 6
f 9 3 2
f 9 8 5
f 9 2 8
f 10 6 1
f 10 3 6
f 11 7 3
f 11 1 7
f 11 10 1
f 11 3 10
f 12 8 6
f 12 6 4
f 12 4 8
f 13 9 5
f 13 5 4
f 13 4 3
f 13 3 9

