# https://github.com/mikedh/trimesh
v 0.18304749 -0.07333502 0.39003357
v 0.18171528 -0.07228342 0.39022515
v 0.11712514 -0.07839661 0.39476213
v 0.12158469 -0.02720591 0.39447678
v 0.18240381 -0.02708047 0.39298048
v 0.16384512 -0.07012031 0.37705071
v 0.18392572 -0.04320834 0.39215502
v 0.16728592 -0.07299198 0.37687543
v 0.11982724 -0.06019938 0.38308168
v 0.18257579 -0.02728929 0.39297085
v 0.12246446 -0.07195058 0.38260985
f 1 2 3
f 5 4 3
f 6 4 5
f 7 2 1
f 7 3 2
f 8 1 3
f 8 7 1
f 8 6 5
f 9 3 4
f 9 4 6
f 10 5 3
f 10 3 7
f 10 8 5
f 10 7 8
f 11 8 3
f 11 3 9
f 11 9 6
f 11 6 8

