# https://github.com/mikedh/trimesh
v -0.17528419 -0.12624253 0.55960136
v -0.15794126 -0.11149394 0.60969003
v -0.22248783 -0.12322671 0.60622986
v -0.22317411 -0.02071475 0.58660150
v -0.19696495 -0.01804538 0.55760836
v -0.22390895 -0.02741632 0.60206624
v -0.18265076 -0.05243255 0.55848031
v -0.23496479 -0.07107226 0.56024649
v -0.23544938 -0.08644862 0.60610261
v -0.20897367 -0.02011175 0.58650223
v -0.19004211 -0.03009547 0.55837094
v -0.23008420 -0.01688748 0.55814670
v -0.21523082 -0.12332703 0.56047641
v -0.22882265 -0.10847435 0.60620310
v -0.23517846 -0.03992591 0.60329074
v -0.19935471 -0.03415888 0.60206612
v -0.22900159 -0.02793213 0.59470918
v -0.23706885 -0.02978484 0.55897267
v -0.22680798 -0.09939358 0.56072850
v -0.20556159 -0.02832570 0.60127706
v -0.19233948 -0.04714332 0.60353468
v -0.19223109 -0.03133123 0.57292439
v -0.22905515 -0.01986989 0.57202790
v -0.23506964 -0.03243177 0.58122345
v -0.23477190 -0.08638907 0.59839991
v -0.21987293 -0.11420357 0.56083164
v -0.20337937 -0.02015335 0.57912388
v -0.19762268 -0.01964604 0.56435323
v -0.21875875 -0.12138056 0.57635492
v -0.19917152 -0.02750344 0.58666296
f 1 2 3
f 7 2 1
f 7 1 5
f 10 4 6
f 11 7 5
f 11 2 7
f 12 5 1
f 12 10 5
f 12 4 10
f 13 1 3
f 13 12 1
f 14 3 2
f 14 2 9
f 15 9 2
f 15 2 6
f 17 6 4
f 17 15 6
f 18 13 8
f 18 12 13
f 18 8 9
f 18 9 15
f 19 8 13
f 19 3 14
f 20 10 6
f 20 6 16
f 21 16 6
f 21 6 2
f 22 11 5
f 22 16 21
f 22 21 2
f 22 2 11
f 23 17 4
f 23 4 12
f 23 12 15
f 23 15 17
f 24 18 15
f 24 15 12
f 24 12 18
f 25 19 14
f 25 14 9
f 25 9 8
f 25 8 19
f 26 19 13
f 26 3 19
f 27 20 16
f 27 5 10
f 27 10 20
f 28 22 5
f 28 16 22
f 28 5 27
f 29 26 13
f 29 13 3
f 29 3 26
f 30 28 27
f 30 27 16
f 30 16 28

