# https://github.com/mikedh/trimesh
v 0.13712740 -0.08888849 0.46536911
v 0.12712013 -0.07829093 0.47521214
v 0.07756504 -0.08462030 0.48101252
v 0.07588246 -0.01193164 0.48952283
v 0.12849837 -0.01157501 0.48542081
v 0.07596540 -0.01203817 0.45301062
v 0.12793677 -0.04121426 0.48264057
v 0.07554426 -0.07175452 0.48299926
v 0.12926077 -0.01203817 0.45301062
v 0.11319164 -0.05652946 0.48224700
v 0.07586653 -0.08030989 0.48173444
v 0.09042485 -0.07156580 0.48206767
f 1 2 3
f 6 1 3
f 6 4 5
f 7 2 1
f 7 1 5
f 7 5 4
f 8 4 6
f 9 6 5
f 9 5 1
f 9 1 6
f 10 3 2
f 10 2 7
f 10 7 4
f 11 8 6
f 11 6 3
f 11 3 8
f 12 8 3
f 12 3 10
f 12 10 4
f 12 4 8

