# https://github.com/mikedh/trimesh
v 0.12670252 -0.18990954 0.50752188
v 0.21858725 -0.04778596 0.40176186
v 0.23645337 -0.01274476 0.50653481
v 0.12849837 -0.01157501 0.48542081
v 0.12719998 -0.16042570 0.40121572
v 0.22465018 -0.01178972 0.40039332
v 0.18655649 -0.01319794 0.50581773
v 0.21217320 -0.11382743 0.50799952
v 0.12578862 -0.17301235 0.43948025
v 0.22651905 -0.05556865 0.46189334
v 0.23551581 -0.01183760 0.49158984
v 0.12917541 -0.01199745 0.39449878
v 0.18877710 -0.11116220 0.40251605
v 0.13617128 -0.10395697 0.50472744
v 0.14694724 -0.17864749 0.50843530
v 0.12595308 -0.18848707 0.50026446
v 0.22648908 -0.04059735 0.43918138
v 0.21082773 -0.09084370 0.43974662
v 0.22878371 -0.07110845 0.50720579
v 0.22748460 -0.01166005 0.41593752
v 0.12624187 -0.16630451 0.41662434
v 0.13273930 -0.18691665 0.50827133
v 0.17574944 -0.15680476 0.50841568
v 0.23597827 -0.02653382 0.50698929
v 0.21834905 -0.05486414 0.40956413
v 0.20365906 -0.11248592 0.46281300
v 0.21929634 -0.09982346 0.50783418
v 0.22672827 -0.01852511 0.41619131
v 0.13827313 -0.16215876 0.42520695
v 0.13188364 -0.17784434 0.47063479
v 0.19763766 -0.13494558 0.50830759
v 0.23512014 -0.01917479 0.49184738
v 0.23529561 -0.02646711 0.49943797
v 0.22700641 -0.07061315 0.49229837
v 0.21097369 -0.07635392 0.40975675
v 0.21073582 -0.10553058 0.47783399
v 0.19645822 -0.10420798 0.41005327
v 0.13226124 -0.16333675 0.41751251
v 0.16047768 -0.15513210 0.45556417
v 0.16781514 -0.13323721 0.40372226
v 0.13163508 -0.17008603 0.44035880
v 0.14613925 -0.17731443 0.50115545
v 0.20385446 -0.11972975 0.48558511
v 0.21167010 -0.06970720 0.40229961
v 0.21821365 -0.09935150 0.50032527
v 0.21102130 -0.11325109 0.50061727
v 0.18917364 -0.12632325 0.44766775
v 0.15299706 -0.14745798 0.41061981
v 0.17475224 -0.14078483 0.44777265
v 0.15306067 -0.16261461 0.46311791
v 0.16764082 -0.14054525 0.42533893
v 0.13822052 -0.15480006 0.40311495
v 0.17469412 -0.15570388 0.50106851
f 7 3 4
f 11 4 3
f 12 9 4
f 13 12 6
f 13 5 12
f 14 7 4
f 14 4 1
f 16 1 4
f 16 4 9
f 20 4 11
f 20 12 4
f 20 6 12
f 21 12 5
f 21 9 12
f 22 14 1
f 22 7 14
f 22 15 7
f 22 1 16
f 24 3 7
f 24 7 15
f 24 15 23
f 24 11 3
f 25 17 10
f 25 2 17
f 27 19 24
f 28 17 2
f 28 2 6
f 28 6 20
f 30 22 16
f 30 16 9
f 31 24 23
f 31 27 24
f 31 8 27
f 32 20 11
f 32 11 24
f 33 24 19
f 33 19 10
f 33 10 17
f 33 17 28
f 33 28 20
f 33 32 24
f 33 20 32
f 34 25 10
f 34 10 19
f 34 19 27
f 35 25 34
f 36 26 18
f 37 18 26
f 37 35 18
f 38 9 21
f 38 21 5
f 39 23 15
f 40 5 13
f 41 30 9
f 41 38 29
f 41 9 38
f 42 15 22
f 42 22 30
f 42 41 29
f 42 30 41
f 43 8 31
f 44 2 25
f 44 25 35
f 44 13 6
f 44 6 2
f 44 37 13
f 44 35 37
f 45 18 35
f 45 36 18
f 45 27 8
f 45 8 36
f 45 35 34
f 45 34 27
f 46 36 8
f 46 26 36
f 46 43 26
f 46 8 43
f 47 13 37
f 47 40 13
f 47 43 31
f 47 37 26
f 47 26 43
f 49 47 31
f 49 31 23
f 50 39 15
f 50 15 42
f 50 42 29
f 50 48 39
f 50 29 48
f 51 48 40
f 51 39 48
f 51 49 39
f 51 40 47
f 51 47 49
f 52 48 29
f 52 29 38
f 52 38 5
f 52 5 40
f 52 40 48
f 53 49 23
f 53 23 39
f 53 39 49

