# https://github.com/mikedh/trimesh
v 0.17848848 -0.12212868 0.40184889
v 0.21032681 -0.07197605 0.40048986
v 0.11712514 -0.07839661 0.39476213
v 0.12246446 -0.07195058 0.38260985
v 0.17455141 -0.09405886 0.35990101
v 0.20525845 -0.08479508 0.40166553
v 0.17055026 -0.07687963 0.36187563
v 0.12305147 -0.12886972 0.39029870
v 0.20453665 -0.07724646 0.39228969
v 0.19600118 -0.09778932 0.39666232
v 0.13804898 -0.08721100 0.36374426
v 0.20682375 -0.07054432 0.39203061
v 0.16464012 -0.10496715 0.36010501
v 0.12012667 -0.12342544 0.39346490
v 0.20366262 -0.08394227 0.39641253
v 0.19762484 -0.09908337 0.40171786
v 0.18282489 -0.11170848 0.39246359
v 0.14159328 -0.07698051 0.36359070
v 0.17414349 -0.08281336 0.36067349
v 0.17544174 -0.11953940 0.39245921
v 0.14884267 -0.10398516 0.36123318
v 0.19736509 -0.09146099 0.39243369
v 0.13824171 -0.08355659 0.36457009
v 0.14274244 -0.09866556 0.36193659
f 3 2 4
f 6 2 3
f 6 3 1
f 11 8 4
f 12 7 4
f 12 4 2
f 12 2 9
f 12 9 5
f 14 8 1
f 14 1 3
f 14 3 4
f 14 4 8
f 15 9 2
f 15 2 6
f 16 6 1
f 16 15 6
f 16 10 15
f 17 5 10
f 17 13 5
f 17 16 1
f 17 10 16
f 18 4 7
f 19 12 5
f 19 7 12
f 19 18 7
f 20 1 8
f 20 8 13
f 20 17 1
f 20 13 17
f 21 13 8
f 21 5 13
f 22 15 10
f 22 10 5
f 22 5 9
f 22 9 15
f 23 18 11
f 23 11 4
f 23 4 18
f 24 21 8
f 24 8 11
f 24 11 18
f 24 18 19
f 24 19 5
f 24 5 21

