# https://github.com/mikedh/trimesh
v -0.10859311 -0.13751321 0.55871301
v -0.07647729 -0.13452523 0.48333641
v -0.11810579 -0.12459076 0.52772278
v -0.11800922 -0.11690862 0.48974830
v -0.09509693 -0.12730274 0.48172503
v -0.07737488 -0.13701731 0.49812910
v -0.11786906 -0.13198195 0.55825385
v -0.07823533 -0.13382224 0.48200698
v -0.10786954 -0.12212022 0.48583159
v -0.11726867 -0.11570767 0.48240579
v -0.11167780 -0.11898799 0.48166525
v -0.11461817 -0.13425529 0.55950765
v -0.11223440 -0.13523284 0.55749060
f 7 3 4
f 7 6 3
f 8 1 5
f 8 6 1
f 8 2 6
f 9 5 1
f 10 6 2
f 10 4 3
f 10 3 6
f 10 2 8
f 11 4 10
f 11 5 9
f 11 10 8
f 11 8 5
f 12 7 4
f 12 4 11
f 12 1 6
f 12 6 7
f 13 12 11
f 13 11 9
f 13 9 1
f 13 1 12

