# https://github.com/mikedh/trimesh
v 0.20140075 0.12502120 0.46974976
v 0.21576641 0.12510199 0.44501348
v 0.21126273 0.20703551 0.45617157
v 0.18281015 0.25112668 0.44677023
v 0.17494251 0.12500706 0.44539700
v 0.21311371 0.20723523 0.44498714
v 0.17362054 0.20753498 0.47568468
v 0.21388394 0.12511569 0.45696569
v 0.18742816 0.12493775 0.47649764
v 0.20058993 0.23537915 0.44439070
v 0.19962299 0.20720470 0.46703026
v 0.17345639 0.23611803 0.46894651
v 0.17434448 0.12496124 0.48044806
v 0.20566645 0.22754822 0.44485020
v 0.19327311 0.23542277 0.46096707
v 0.18707318 0.19285522 0.47422670
v 0.19277476 0.22104896 0.46712984
v 0.20415044 0.21989000 0.46041168
v 0.19869495 0.23426673 0.45575363
v 0.17908014 0.23560324 0.46755904
v 0.18016425 0.20747244 0.47432828
v 0.20389233 0.22695996 0.45480088
f 8 1 2
f 8 3 1
f 8 6 3
f 8 2 6
f 9 5 2
f 9 2 1
f 10 5 4
f 10 6 2
f 10 2 5
f 11 1 3
f 12 4 5
f 13 5 9
f 13 12 5
f 13 7 12
f 14 3 6
f 14 6 10
f 16 9 1
f 16 1 11
f 16 13 9
f 16 7 13
f 18 11 3
f 18 17 11
f 18 15 17
f 19 10 4
f 19 4 15
f 19 15 18
f 20 15 4
f 20 4 12
f 20 17 15
f 21 16 11
f 21 11 17
f 21 7 16
f 21 17 20
f 21 20 12
f 21 12 7
f 22 18 3
f 22 3 14
f 22 19 18
f 22 14 10
f 22 10 19

