# https://github.com/mikedh/trimesh
v -0.16422838 -0.07565039 0.50575599
v -0.13606150 -0.07159104 0.47283181
v -0.13719146 -0.01201612 0.48323295
v -0.17233773 -0.01076118 0.47555729
v -0.16521370 -0.06577042 0.46189535
v -0.17639346 -0.05049093 0.50616989
v -0.13528764 -0.06338186 0.47559480
v -0.14038674 -0.07666435 0.46889339
v -0.18123778 -0.01433890 0.46986490
v -0.16859046 -0.06937087 0.50724347
v -0.17548614 -0.05281638 0.50534705
f 6 3 4
f 7 1 2
f 7 2 3
f 7 3 1
f 8 2 1
f 8 1 5
f 8 5 3
f 8 3 2
f 9 4 3
f 9 3 5
f 9 6 4
f 9 5 6
f 10 1 3
f 10 3 6
f 10 5 1
f 11 10 6
f 11 6 5
f 11 5 10

