# https://github.com/mikedh/trimesh
v -0.10651924 0.04896255 0.48850219
v -0.10676260 0.04900111 0.39684530
v -0.10672938 0.12502867 0.39926726
v -0.21315777 0.12521582 0.46335699
v -0.21233586 0.04921577 0.40149753
v -0.10664504 0.12497660 0.48891491
v -0.20175489 0.04968365 0.46929906
v -0.21509267 0.12512412 0.40285114
v -0.21182193 0.04944927 0.45763565
v -0.16616433 0.12498930 0.48332964
v -0.18771251 0.04945526 0.47628393
v -0.21251143 0.09487383 0.46272183
v -0.19488691 0.12511393 0.47540018
v -0.16608125 0.05704748 0.48232387
v -0.20673578 0.07965528 0.46728738
v -0.19432284 0.05685209 0.47403195
v -0.15911352 0.04937910 0.48285600
v -0.20739366 0.12507687 0.46825346
f 1 2 3
f 5 2 1
f 6 1 3
f 6 3 4
f 8 3 2
f 8 2 5
f 8 4 3
f 9 5 1
f 9 8 5
f 9 4 8
f 10 1 6
f 11 9 1
f 11 7 9
f 12 9 7
f 12 4 9
f 13 10 6
f 13 6 4
f 13 11 10
f 14 1 10
f 14 10 11
f 15 12 7
f 15 4 12
f 16 7 11
f 16 11 13
f 16 15 7
f 17 14 11
f 17 11 1
f 17 1 14
f 18 13 4
f 18 4 15
f 18 16 13
f 18 15 16

