# https://github.com/mikedh/trimesh
v 0.21032681 -0.07197605 0.40048986
v 0.22005250 -0.04090614 0.40180792
v 0.21385259 -0.06315393 0.40169536
v 0.18271992 0.02647722 0.39583999
v 0.22066780 -0.01848013 0.39246586
v 0.22113608 0.02112343 0.40082819
v 0.18304749 -0.07333502 0.39003357
v 0.21311231 -0.05538692 0.39273524
v 0.21689515 0.02296723 0.39292303
v 0.18171528 -0.07228342 0.39022515
v 0.21832422 -0.04044657 0.39568031
v 0.21224272 -0.06263244 0.39575141
v 0.20682375 -0.07054432 0.39203061
v 0.22048209 0.01470626 0.39257311
v 0.20729526 0.02396944 0.39305276
v 0.18240293 0.02561156 0.39572668
v 0.22022605 0.02046810 0.39611171
v 0.20086035 0.01701423 0.39329112
f 1 3 4
f 6 3 2
f 6 4 3
f 6 2 5
f 9 4 6
f 10 7 1
f 11 8 5
f 11 5 2
f 12 3 1
f 12 8 11
f 12 11 2
f 12 2 3
f 13 7 5
f 13 5 8
f 13 8 12
f 13 12 1
f 13 1 7
f 14 6 5
f 14 5 7
f 15 4 9
f 15 14 7
f 15 9 14
f 16 10 1
f 16 1 4
f 16 4 15
f 17 14 9
f 17 9 6
f 17 6 14
f 18 15 7
f 18 7 10
f 18 16 15
f 18 10 16

