# https://github.com/mikedh/trimesh
v 0.07437050 -0.25581225 0.70589925
v 0.21500227 -0.15279383 0.65227538
v 0.20566270 -0.18060694 0.70599630
v 0.12764787 -0.16552578 0.70186996
v 0.07089277 -0.16471380 0.60296787
v 0.22008851 -0.16092110 0.70317252
v 0.07047627 -0.19400029 0.70269932
v 0.12402851 -0.21526526 0.60776852
v 0.21171699 -0.16503442 0.67579516
v 0.22031775 -0.15650121 0.68909374
v 0.06639408 -0.24018252 0.62994176
v 0.13997774 -0.23245066 0.70636905
v 0.20330999 -0.15492365 0.60574399
v 0.21360723 -0.16679617 0.69046819
v 0.06715674 -0.25715076 0.70558399
v 0.10327328 -0.24630330 0.69890398
v 0.06687653 -0.23466354 0.60668948
v 0.20833032 -0.15302857 0.62160304
v 0.20416195 -0.17185946 0.66853468
v 0.16066622 -0.19335321 0.60735747
v 0.06654550 -0.24731714 0.66053383
v 0.10379930 -0.24786984 0.70614023
v 0.09547914 -0.23036312 0.62293632
v 0.20491205 -0.17948894 0.69869387
v 0.14644981 -0.22290470 0.68406538
v 0.18994197 -0.17153982 0.61510440
v 0.06686185 -0.25563635 0.69829703
v 0.08806583 -0.24569919 0.67619501
v 0.12525968 -0.23973243 0.70633724
v 0.08100521 -0.23115449 0.60755710
v 0.16248371 -0.21837133 0.70611153
v 0.19965657 -0.15943290 0.60655079
v 0.07345618 -0.24582036 0.66100145
v 0.09550903 -0.23781249 0.65349114
v 0.12455415 -0.23826390 0.69908987
v 0.19113497 -0.19527146 0.70613003
v 0.19762736 -0.16399940 0.61508419
v 0.07409972 -0.25427169 0.69862566
v 0.17522265 -0.20082811 0.67624470
v 0.17531022 -0.18612952 0.62273681
v 0.19023841 -0.19416427 0.69884497
f 5 4 2
f 6 4 3
f 7 1 3
f 7 3 4
f 7 4 5
f 10 2 4
f 10 4 6
f 11 7 5
f 14 6 3
f 14 3 9
f 14 10 6
f 14 9 10
f 15 1 7
f 17 11 5
f 17 5 13
f 18 13 5
f 18 5 2
f 18 9 13
f 18 10 9
f 18 2 10
f 19 13 9
f 20 17 13
f 20 8 17
f 21 11 17
f 21 7 11
f 24 19 9
f 24 9 3
f 25 12 8
f 25 8 20
f 27 1 15
f 27 15 7
f 27 7 21
f 28 22 1
f 28 16 22
f 29 1 22
f 29 12 3
f 29 3 1
f 30 17 8
f 30 8 23
f 30 28 17
f 30 23 28
f 31 12 25
f 31 25 20
f 32 26 20
f 32 20 13
f 32 13 19
f 32 19 24
f 33 21 17
f 33 17 28
f 34 28 23
f 34 23 16
f 34 16 28
f 35 8 12
f 35 12 29
f 35 23 8
f 35 16 23
f 35 29 22
f 35 22 16
f 36 3 12
f 36 12 31
f 36 24 3
f 37 32 24
f 37 26 32
f 37 24 36
f 38 33 28
f 38 28 1
f 38 21 33
f 38 27 21
f 38 1 27
f 39 36 31
f 39 31 20
f 40 39 20
f 40 20 26
f 40 26 39
f 41 39 26
f 41 36 39
f 41 37 36
f 41 26 37

