# https://github.com/mikedh/trimesh
v 0.07404948 -0.23293598 0.60710958
v 0.22172451 -0.11531636 0.56822355
v 0.21226352 -0.14337595 0.60679012
v 0.14235249 -0.12422176 0.60368364
v 0.04578101 -0.15813987 0.55919053
v 0.22563997 -0.11760741 0.60558311
v 0.22024577 -0.12964537 0.60656568
v 0.13177943 -0.20028377 0.56188931
v 0.04692779 -0.17077867 0.60334241
v 0.12624281 -0.12525850 0.55780020
v 0.21312825 -0.12895512 0.56093606
v 0.14738218 -0.20206004 0.60716178
v 0.04468846 -0.22786135 0.56078459
v 0.21870562 -0.12139465 0.56869101
v 0.21912769 -0.11786779 0.55983310
v 0.11825907 -0.21771839 0.60715716
v 0.17527836 -0.17118454 0.56173223
v 0.09584022 -0.21577266 0.56173575
v 0.05475387 -0.15600697 0.55768351
v 0.04407962 -0.23179435 0.57688777
v 0.13168147 -0.20757097 0.59244745
v 0.19716799 -0.15643472 0.58450856
v 0.15349256 -0.19280987 0.58469811
v 0.20401918 -0.14205435 0.56148569
v 0.06608635 -0.22397296 0.56171551
v 0.09556026 -0.22299535 0.59242267
v 0.11702658 -0.20751979 0.56192964
v 0.04520785 -0.23846884 0.60573232
v 0.13863317 -0.20016819 0.57714999
v 0.16920076 -0.18698711 0.60707075
v 0.21145087 -0.14261816 0.59941168
v 0.10265128 -0.21518499 0.56948444
v 0.05137217 -0.23066250 0.57717507
v 0.14662135 -0.20078125 0.59985102
v 0.18244732 -0.17070912 0.58462803
v 0.16830083 -0.18595071 0.59976351
f 6 2 4
f 7 1 3
f 7 6 4
f 7 2 6
f 9 4 5
f 9 7 4
f 9 1 7
f 10 5 4
f 10 4 2
f 11 7 3
f 12 3 1
f 14 2 7
f 14 7 11
f 15 10 2
f 15 14 11
f 15 2 14
f 15 13 10
f 15 8 13
f 16 12 1
f 17 8 15
f 18 13 8
f 19 13 5
f 19 5 10
f 19 10 13
f 20 9 5
f 20 5 13
f 21 16 8
f 21 12 16
f 23 8 17
f 24 17 15
f 24 15 11
f 24 22 17
f 25 18 1
f 25 13 18
f 26 16 1
f 26 1 18
f 27 18 8
f 27 8 16
f 28 1 9
f 28 9 20
f 29 21 8
f 29 12 21
f 29 8 23
f 30 22 3
f 30 3 12
f 30 12 23
f 31 24 11
f 31 11 3
f 31 3 22
f 31 22 24
f 32 26 18
f 32 16 26
f 32 27 16
f 32 18 27
f 33 25 1
f 33 1 28
f 33 13 25
f 33 28 20
f 33 20 13
f 34 29 23
f 34 23 12
f 34 12 29
f 35 30 17
f 35 17 22
f 35 22 30
f 36 30 23
f 36 23 17
f 36 17 30

