# https://github.com/mikedh/trimesh
v 0.22238480 -0.15325668 0.69002411
v 0.23495655 -0.08629748 0.60600826
v 0.23519907 -0.07788542 0.68515958
v 0.20219302 -0.02638252 0.60246933
v 0.18724608 -0.17076323 0.60180064
v 0.23677025 -0.03793380 0.60415705
v 0.15410936 -0.13923884 0.69431800
v 0.23510200 -0.11689387 0.68949684
v 0.21226352 -0.14337595 0.60679012
v 0.22479022 -0.02945614 0.61612291
v 0.23016342 -0.02742888 0.60246295
v 0.19867059 -0.07323012 0.68410154
v 0.18365363 -0.06126654 0.60406025
v 0.22675822 -0.11501493 0.60636084
v 0.22884118 -0.13886648 0.68975838
v 0.20628025 -0.15144246 0.60671261
v 0.23435173 -0.05693322 0.65477897
v 0.19212403 -0.06415559 0.65527817
v 0.20964933 -0.05203132 0.66075812
v 0.19646507 -0.03229466 0.60299300
v 0.21904294 -0.13662526 0.62198596
v 0.22613429 -0.13777248 0.66748353
v 0.23411782 -0.10112289 0.63660033
v 0.21951404 -0.15111989 0.66797869
v 0.22946947 -0.02930497 0.60875114
v 0.23495387 -0.07168003 0.67728812
v 0.23428275 -0.04176743 0.62510492
v 0.19797796 -0.03364903 0.60996035
v 0.19226843 -0.07180558 0.66989070
v 0.20958344 -0.02903958 0.61606865
v 0.22498537 -0.05223599 0.66046996
v 0.23456828 -0.11651348 0.68219163
v 0.22869017 -0.05881894 0.66810198
v 0.20394564 -0.05920589 0.66802289
v 0.18433065 -0.09358064 0.68616867
v 0.20328160 -0.02837568 0.60894310
v 0.22446208 -0.06653743 0.68306578
v 0.20924572 -0.06632647 0.68306137
f 7 5 1
f 8 3 7
f 8 6 3
f 8 2 6
f 11 5 4
f 11 4 10
f 11 6 2
f 11 2 5
f 12 7 3
f 13 5 7
f 14 9 5
f 14 5 2
f 15 8 7
f 15 7 1
f 16 1 5
f 16 5 9
f 20 13 7
f 20 4 5
f 20 5 13
f 20 7 18
f 21 9 14
f 22 15 1
f 22 14 15
f 22 21 14
f 22 1 21
f 23 14 2
f 24 16 9
f 24 1 16
f 24 21 1
f 24 9 21
f 25 11 10
f 26 3 6
f 26 6 17
f 27 17 6
f 27 6 11
f 27 11 25
f 28 20 18
f 28 4 20
f 29 18 7
f 29 28 18
f 30 10 4
f 31 30 19
f 31 10 30
f 32 23 2
f 32 2 8
f 32 8 15
f 32 15 14
f 32 14 23
f 33 27 25
f 33 17 27
f 33 25 10
f 33 10 31
f 33 26 17
f 33 3 26
f 34 29 12
f 34 28 29
f 35 29 7
f 35 7 12
f 35 12 29
f 36 30 4
f 36 19 30
f 36 34 19
f 36 4 28
f 36 28 34
f 37 3 33
f 37 33 31
f 37 31 19
f 38 34 12
f 38 19 34
f 38 37 19
f 38 12 3
f 38 3 37

