# https://github.com/mikedh/trimesh
v 0.11973443 -0.25167946 0.77798565
v 0.22008851 -0.16092110 0.70317252
v 0.21200678 -0.16991428 0.74976767
v 0.16260611 -0.16322349 0.75714619
v 0.12427722 -0.16818023 0.70321258
v 0.22061063 -0.15669557 0.74231659
v 0.14389284 -0.21228160 0.77928682
v 0.16804514 -0.22472193 0.76392559
v 0.11922411 -0.24208453 0.70574607
v 0.21370023 -0.17573006 0.74113654
v 0.20162155 -0.15907535 0.75570164
v 0.13314108 -0.16138097 0.70294384
v 0.12362873 -0.20068690 0.77251549
v 0.14906790 -0.22351999 0.77889610
v 0.11882677 -0.24787972 0.72889152
v 0.17530746 -0.20879770 0.70664516
v 0.21235593 -0.17532744 0.74696123
v 0.21405229 -0.15725331 0.74877155
v 0.16611038 -0.18957565 0.77143190
v 0.13540472 -0.17388084 0.74571631
v 0.12201710 -0.21370078 0.78030328
v 0.15311108 -0.23257233 0.77326902
v 0.17291509 -0.19625290 0.77151520
v 0.14698193 -0.23910070 0.75080162
v 0.15403203 -0.22409729 0.70658097
v 0.20468551 -0.18729532 0.72837757
v 0.18333253 -0.20634003 0.76485931
v 0.18784208 -0.17389126 0.76369365
v 0.13634610 -0.16528947 0.72423406
v 0.12598557 -0.18760745 0.75951820
v 0.13887006 -0.19311322 0.77115955
v 0.11993317 -0.24539116 0.78281985
v 0.15008617 -0.21812468 0.77887717
v 0.13267827 -0.24636864 0.75121100
v 0.14642084 -0.23900677 0.77081931
v 0.16803482 -0.22377305 0.74398118
v 0.13946203 -0.23856736 0.72943608
v 0.18926645 -0.20419989 0.75940071
v 0.20566270 -0.18060694 0.70599630
v 0.17442035 -0.21853974 0.76521492
v 0.19744375 -0.19099349 0.75877634
v 0.16938180 -0.21418231 0.77208802
v 0.12877126 -0.17359826 0.73184919
v 0.15074656 -0.16559017 0.75072623
v 0.14008943 -0.23553930 0.77923636
v 0.13167309 -0.24625969 0.77625521
v 0.18263020 -0.20874990 0.72929944
v 0.16117255 -0.22354778 0.72200399
v 0.12525968 -0.23973243 0.70633724
v 0.12480372 -0.24574669 0.72957381
v 0.20411111 -0.18860479 0.74803447
v 0.16040599 -0.22634069 0.77213880
v 0.13233424 -0.24299497 0.77895398
v 0.14666197 -0.23080295 0.71441722
v 0.13229479 -0.23835908 0.71427283
f 10 2 6
f 12 4 11
f 12 6 2
f 12 9 5
f 12 2 9
f 15 5 9
f 17 10 6
f 17 6 3
f 18 3 6
f 18 12 11
f 18 6 12
f 21 13 5
f 21 7 19
f 21 5 15
f 23 19 7
f 25 9 2
f 25 2 16
f 26 2 10
f 28 11 4
f 28 4 19
f 28 19 23
f 28 18 11
f 29 12 5
f 30 13 4
f 30 5 13
f 31 21 19
f 31 19 4
f 31 4 13
f 31 13 21
f 32 7 21
f 32 21 15
f 32 15 1
f 33 23 7
f 33 32 14
f 33 7 32
f 34 1 15
f 35 34 24
f 35 24 8
f 35 8 22
f 36 8 24
f 37 24 34
f 38 8 36
f 39 16 2
f 39 2 26
f 40 22 8
f 40 38 27
f 40 8 38
f 41 28 23
f 41 3 18
f 41 18 28
f 41 27 38
f 41 17 3
f 42 40 27
f 42 33 14
f 42 23 33
f 42 41 23
f 42 27 41
f 43 29 5
f 43 20 29
f 43 30 20
f 43 5 30
f 44 29 20
f 44 4 12
f 44 12 29
f 44 30 4
f 44 20 30
f 45 14 32
f 45 42 14
f 46 35 22
f 46 1 34
f 46 34 35
f 47 36 16
f 47 38 36
f 47 26 38
f 47 39 26
f 47 16 39
f 48 25 16
f 48 16 36
f 48 36 24
f 49 9 25
f 50 37 34
f 50 34 15
f 50 15 9
f 50 9 49
f 51 38 26
f 51 26 10
f 51 10 17
f 51 41 38
f 51 17 41
f 52 22 40
f 52 40 42
f 52 45 22
f 52 42 45
f 53 46 22
f 53 22 45
f 53 45 32
f 53 32 1
f 53 1 46
f 54 25 48
f 54 49 25
f 54 48 24
f 54 24 37
f 55 50 49
f 55 37 50
f 55 54 37
f 55 49 54

