# https://github.com/mikedh/trimesh
v -0.11663535 -0.16065663 0.64974810
v -0.09217982 -0.15837879 0.60477505
v -0.14299158 -0.14007510 0.64895977
v -0.22561781 -0.13265593 0.65140304
v -0.20562867 -0.15054576 0.60687006
v -0.12588867 -0.13964161 0.60356348
v -0.22014671 -0.14330367 0.65259235
v -0.09289258 -0.16023579 0.61182768
v -0.22166340 -0.13061733 0.62173973
v -0.09492695 -0.15663511 0.60292373
v -0.21415330 -0.15213624 0.65232187
v -0.10126381 -0.16115038 0.62675858
v -0.21818568 -0.13197172 0.60585910
v -0.21939630 -0.13524545 0.62241289
v -0.21216731 -0.15071651 0.63757252
v -0.21475070 -0.13725715 0.60657074
v -0.21917166 -0.14263539 0.64516691
f 6 3 2
f 7 1 3
f 7 3 4
f 8 2 3
f 8 3 1
f 8 5 2
f 9 4 3
f 9 3 6
f 10 6 2
f 10 2 5
f 11 1 7
f 12 8 1
f 12 5 8
f 12 11 5
f 12 1 11
f 13 9 6
f 13 10 5
f 13 6 10
f 14 7 4
f 14 4 9
f 14 9 13
f 15 5 11
f 16 15 13
f 16 13 5
f 16 5 15
f 17 14 13
f 17 13 15
f 17 7 14
f 17 15 11
f 17 11 7

