# https://github.com/mikedh/trimesh
v -0.04582419 -0.01198642 0.49016470
v -0.04585258 -0.01203817 0.45301062
v -0.04567906 0.12476045 0.49120152
v -0.06867342 0.12499734 0.49058142
v -0.06869346 -0.01203817 0.45301062
v -0.04585258 0.12500706 0.45301062
v -0.06837670 0.04901397 0.49075309
v -0.04562565 0.01100832 0.49093541
v -0.06869346 0.12500706 0.45301062
v -0.06844001 0.11725262 0.49072643
v -0.06859253 -0.01194190 0.48929212
v -0.06087213 0.12483146 0.49081860
v -0.05323277 0.01101421 0.49071302
f 5 2 1
f 6 4 3
f 6 2 5
f 8 1 2
f 8 3 7
f 8 6 3
f 8 2 6
f 9 6 5
f 9 5 4
f 9 4 6
f 10 7 3
f 10 4 7
f 11 5 1
f 11 7 4
f 11 4 5
f 12 10 3
f 12 3 4
f 12 4 10
f 13 8 7
f 13 7 11
f 13 11 1
f 13 1 8

