# https://github.com/mikedh/trimesh
v 0.21099911 -0.16574987 0.10110070
v 0.21666140 -0.16139510 0.10151380
v 0.19207791 -0.13219562 0.23628278
v 0.17129252 -0.10132955 0.24213005
v 0.19621021 -0.14000915 0.10585236
v 0.19677677 -0.11487622 0.23884785
v 0.16740387 -0.12776694 0.24009456
v 0.19376259 -0.13941967 0.21371419
v 0.21346878 -0.14128239 0.10372390
v 0.20418255 -0.13733358 0.19182175
v 0.19185744 -0.15476549 0.10400276
v 0.17286434 -0.13279700 0.23890477
v 0.20950862 -0.16235271 0.11534341
v 0.20364752 -0.14265616 0.18330958
v 0.21188342 -0.13805381 0.14830435
v 0.19479283 -0.11989910 0.16582028
v 0.19691469 -0.12338527 0.23761734
v 0.19992233 -0.16506928 0.10179548
v 0.16901114 -0.11436019 0.21991449
v 0.18720435 -0.14718710 0.18528600
v 0.19729895 -0.13355675 0.22109918
v 0.21340768 -0.15654449 0.12258751
v 0.20461100 -0.12468412 0.17922759
v 0.21151926 -0.14766528 0.14643626
v 0.20405234 -0.13516803 0.11281661
v 0.18606631 -0.12075039 0.16691265
v 0.18617024 -0.10158051 0.24068940
v 0.16888238 -0.12926202 0.22536342
v 0.16578915 -0.10681689 0.24208999
v 0.19107327 -0.14105369 0.11424570
v 0.17952783 -0.13941093 0.21541561
v 0.19543563 -0.14778653 0.18392700
v 0.19918802 -0.16262731 0.11647208
v 0.20851183 -0.13503999 0.11977718
v 0.19846945 -0.13532356 0.11318051
v 0.18666281 -0.10439601 0.22630465
v 0.16811358 -0.12457829 0.21836799
v 0.18326649 -0.12637513 0.15955682
v 0.19274765 -0.14436611 0.10603256
v 0.20419808 -0.12518110 0.16437923
v 0.19406878 -0.11319293 0.19621779
v 0.17673070 -0.12373113 0.18197946
v 0.17371643 -0.10496430 0.22815941
v 0.19054189 -0.13378745 0.12967251
v 0.19996209 -0.12055751 0.17300942
v 0.18289931 -0.11963763 0.17522639
f 7 6 4
f 9 2 1
f 11 5 9
f 12 6 7
f 12 8 3
f 13 1 2
f 14 3 8
f 14 8 13
f 15 2 9
f 17 12 3
f 17 6 12
f 17 15 6
f 17 10 15
f 18 11 9
f 18 9 1
f 18 12 7
f 21 14 10
f 21 3 14
f 21 17 3
f 21 10 17
f 22 14 13
f 22 13 2
f 23 15 9
f 23 6 15
f 24 15 10
f 24 2 15
f 24 22 2
f 24 10 14
f 24 14 22
f 25 9 5
f 27 4 6
f 27 6 23
f 28 18 7
f 28 11 18
f 29 7 4
f 31 8 12
f 31 12 18
f 32 13 8
f 32 31 20
f 32 8 31
f 32 1 13
f 33 18 1
f 33 32 20
f 33 1 32
f 33 31 18
f 33 20 31
f 34 25 16
f 34 9 25
f 35 25 5
f 35 5 26
f 35 26 16
f 35 16 25
f 36 16 4
f 36 4 27
f 37 11 28
f 37 29 19
f 37 28 7
f 37 7 29
f 39 30 5
f 39 5 11
f 39 11 30
f 40 27 23
f 40 23 9
f 41 34 16
f 41 16 36
f 41 36 27
f 42 30 11
f 42 11 37
f 42 37 19
f 42 38 30
f 42 19 29
f 42 29 38
f 43 38 29
f 43 29 4
f 43 4 16
f 43 16 26
f 44 38 26
f 44 26 5
f 44 5 30
f 44 30 38
f 45 40 9
f 45 9 34
f 45 34 41
f 45 41 27
f 45 27 40
f 46 43 26
f 46 26 38
f 46 38 43

