# https://github.com/mikedh/trimesh
v 0.19602313 -0.15910174 0.75749343
v 0.23510200 -0.11689387 0.68949684
v 0.22745699 -0.10196122 0.71939945
v 0.20179092 -0.07146807 0.68474446
v 0.13113350 -0.15895414 0.68839721
v 0.23018623 -0.07138521 0.68488136
v 0.19394287 -0.11842600 0.73368186
v 0.22727353 -0.14729347 0.73287766
v 0.23503978 -0.09954494 0.70754667
v 0.21355548 -0.08847215 0.71223646
v 0.13470701 -0.15564749 0.68718408
v 0.21861483 -0.11642797 0.73320559
v 0.16208134 -0.16010672 0.75435764
v 0.22238480 -0.15325668 0.69002411
v 0.23531998 -0.08456498 0.69284870
v 0.23497647 -0.11855317 0.71679203
v 0.20360617 -0.07424676 0.69041556
v 0.21931543 -0.08822372 0.71191224
v 0.18942343 -0.08547957 0.68615278
v 0.19093845 -0.13931200 0.74847994
v 0.22084740 -0.14268893 0.74147751
v 0.13314108 -0.16138097 0.70294384
v 0.22636073 -0.14515376 0.69033108
v 0.23682122 -0.08325837 0.68691127
v 0.22014197 -0.15583434 0.74296709
v 0.22861845 -0.07399669 0.69014220
v 0.22881605 -0.11533636 0.72596041
v 0.19668824 -0.09625706 0.71267559
v 0.14816118 -0.16129824 0.74001948
v 0.20354215 -0.13824840 0.74760280
v 0.17544318 -0.16007195 0.75922708
v 0.20926750 -0.14442113 0.74865705
v 0.23442084 -0.11262815 0.71621184
v 0.21678923 -0.13059446 0.74040170
v 0.19082324 -0.08726782 0.69234295
v 0.19608891 -0.15301146 0.75557035
v 0.17720155 -0.15526229 0.75631824
v 0.17136469 -0.14878932 0.74910709
f 11 4 6
f 12 10 7
f 14 5 11
f 14 11 6
f 15 3 9
f 16 8 2
f 17 6 4
f 18 17 10
f 18 12 3
f 18 10 12
f 19 11 5
f 19 4 11
f 20 12 7
f 22 14 1
f 22 5 14
f 22 19 5
f 23 14 2
f 23 2 8
f 23 8 14
f 24 14 6
f 24 2 14
f 24 6 15
f 24 16 2
f 24 15 9
f 24 9 16
f 25 14 8
f 25 1 14
f 25 8 21
f 26 15 6
f 26 3 15
f 26 18 3
f 26 6 17
f 26 17 18
f 27 9 3
f 27 3 12
f 27 21 8
f 27 8 16
f 28 7 10
f 28 10 17
f 28 13 7
f 28 17 4
f 29 28 4
f 29 13 28
f 29 19 22
f 29 22 1
f 30 12 20
f 31 29 1
f 31 13 29
f 32 25 21
f 32 1 25
f 33 27 16
f 33 16 9
f 33 9 27
f 34 27 12
f 34 21 27
f 34 32 21
f 34 12 30
f 34 30 32
f 35 29 4
f 35 4 19
f 35 19 29
f 36 30 20
f 36 20 31
f 36 31 1
f 36 32 30
f 36 1 32
f 37 31 20
f 37 20 7
f 37 13 31
f 38 37 7
f 38 7 13
f 38 13 37

