# https://github.com/mikedh/trimesh
v 0.14935424 -0.13090442 0.64958957
v 0.17538969 -0.08076482 0.60521948
v 0.16208696 -0.11725373 0.65365715
v 0.17816264 -0.08201386 0.62762736
v 0.13858606 -0.12817466 0.60472138
v 0.17658261 -0.09250522 0.64924784
v 0.15671268 -0.11078682 0.60974586
v 0.16825746 -0.09316253 0.60383645
v 0.17812214 -0.08966250 0.65037487
v 0.15300549 -0.12678872 0.64855767
v 0.17364616 -0.08391685 0.60420807
v 0.14235249 -0.12422176 0.60368364
v 0.14076008 -0.13023534 0.61924310
f 5 4 2
f 8 6 3
f 8 3 7
f 9 6 2
f 9 2 4
f 9 4 5
f 9 1 3
f 9 3 6
f 10 7 3
f 10 3 1
f 11 2 6
f 11 6 8
f 12 8 7
f 12 11 8
f 12 5 2
f 12 2 11
f 12 7 10
f 12 10 1
f 12 1 5
f 13 9 5
f 13 5 1
f 13 1 9

