# https://github.com/mikedh/trimesh
v 0.08908220 -0.26241896 0.77825135
v 0.11922411 -0.24208453 0.70574607
v 0.12201710 -0.21370078 0.78030328
v 0.12427722 -0.16818023 0.70321258
v 0.04665309 -0.20018361 0.70313777
v 0.12575236 -0.17829279 0.74022798
v 0.11809433 -0.24917865 0.78111744
v 0.04510837 -0.26042014 0.70483491
v 0.04575402 -0.23718951 0.78793827
v 0.12464710 -0.19418827 0.76663682
v 0.12518977 -0.16952285 0.71046271
v 0.11103085 -0.25401568 0.74369893
v 0.11889265 -0.17156681 0.70227219
v 0.04720120 -0.21160084 0.75499700
v 0.09870699 -0.23508050 0.78759171
v 0.04469729 -0.26546296 0.78709566
v 0.12362873 -0.20068690 0.77251549
v 0.11020116 -0.25490551 0.77956779
v 0.11829214 -0.24640223 0.72161728
v 0.08151083 -0.25426205 0.70629331
v 0.04684788 -0.21782246 0.76854476
v 0.04740475 -0.20453289 0.72518395
v 0.04432003 -0.26236400 0.71370407
v 0.09688797 -0.25277504 0.78612593
v 0.05439584 -0.22574383 0.78031839
v 0.10338237 -0.25340382 0.72910778
v 0.08865259 -0.26180998 0.75126172
v 0.07405882 -0.26105488 0.72928350
v 0.08190181 -0.25808562 0.78670811
v 0.11067969 -0.24568621 0.70666626
v 0.05226196 -0.26513578 0.78658261
v 0.05179461 -0.26136719 0.71391777
v 0.08143307 -0.26112472 0.73688067
v 0.08105784 -0.26312739 0.78233137
f 10 2 6
f 10 7 2
f 10 3 7
f 11 6 2
f 11 2 4
f 13 8 5
f 13 5 4
f 13 4 2
f 13 2 8
f 14 6 11
f 14 11 4
f 15 7 3
f 15 3 9
f 16 15 9
f 17 9 3
f 17 3 10
f 18 12 7
f 18 1 12
f 19 2 7
f 19 7 12
f 20 8 2
f 21 14 5
f 21 5 9
f 21 10 6
f 21 6 14
f 22 14 4
f 22 4 5
f 22 5 14
f 23 5 8
f 23 16 9
f 23 9 5
f 24 7 15
f 24 18 7
f 25 17 10
f 25 9 17
f 25 21 9
f 25 10 21
f 26 19 12
f 27 12 1
f 28 8 20
f 29 24 15
f 29 15 16
f 29 18 24
f 30 26 20
f 30 20 2
f 30 2 19
f 30 19 26
f 31 16 23
f 31 23 27
f 31 29 16
f 32 28 23
f 32 23 8
f 32 8 28
f 33 27 23
f 33 23 28
f 33 26 12
f 33 12 27
f 33 28 20
f 33 20 26
f 34 1 18
f 34 18 29
f 34 29 31
f 34 31 27
f 34 27 1

