# https://github.com/mikedh/trimesh
v 0.22415661 -0.18599699 0.01660927
v 0.23155677 -0.18313383 0.00164474
v 0.21940432 -0.16101306 0.09292092
v 0.19621021 -0.14000915 0.10585236
v 0.21472094 -0.17048674 0.00823963
v 0.21346878 -0.14128239 0.10372390
v 0.19503130 -0.16109671 0.10299629
v 0.22806781 -0.18088094 0.02350389
v 0.21796902 -0.18642260 0.00131641
v 0.22764903 -0.16570143 0.04116070
v 0.22456883 -0.16503709 0.01282996
v 0.21524794 -0.16367172 0.09968952
v 0.19889571 -0.15258809 0.07549514
v 0.22653960 -0.18763944 0.00192822
v 0.22699431 -0.17396264 0.03936225
v 0.21856888 -0.16943988 0.00160447
v 0.21755113 -0.18580073 0.01815604
v 0.21982894 -0.15185168 0.09450662
v 0.21026323 -0.14249871 0.08960029
v 0.22340616 -0.15838927 0.04383769
v 0.22870810 -0.16967630 0.00113160
v 0.19992233 -0.16506928 0.10179548
v 0.21958187 -0.16483163 0.08449353
v 0.20613910 -0.17121451 0.03579631
v 0.21432123 -0.18198555 0.00539849
v 0.19915933 -0.14751265 0.08354378
v 0.20619326 -0.17436298 0.04257079
v 0.21511369 -0.15775160 0.03715195
v 0.21471016 -0.14336875 0.09704168
v 0.20955618 -0.17760370 0.04807839
v 0.20666518 -0.17146111 0.07807632
v 0.19855868 -0.16219640 0.07396475
v 0.20646990 -0.16612188 0.03663295
v 0.20398412 -0.15034520 0.06857783
v 0.21174492 -0.16507032 0.02322374
v 0.20087681 -0.14308039 0.09121132
v 0.21784164 -0.16465603 0.01461654
v 0.20398495 -0.17115220 0.07144849
v 0.19858221 -0.16536525 0.08769723
v 0.21542296 -0.17107066 0.07725267
v 0.19794765 -0.14167759 0.09882753
v 0.19706512 -0.16356515 0.09449568
f 7 6 4
f 12 1 8
f 13 7 4
f 14 8 1
f 14 2 8
f 14 9 2
f 15 8 2
f 15 3 8
f 15 10 3
f 15 2 10
f 17 14 1
f 17 9 14
f 18 3 10
f 18 12 3
f 18 6 12
f 19 4 6
f 19 6 11
f 20 11 6
f 20 18 10
f 21 10 2
f 21 16 11
f 21 2 9
f 21 9 16
f 21 20 10
f 21 11 20
f 22 12 6
f 22 6 7
f 23 12 8
f 23 8 3
f 23 3 12
f 25 16 9
f 25 5 16
f 25 24 5
f 26 13 4
f 27 25 9
f 27 24 25
f 28 19 11
f 29 20 6
f 29 6 18
f 29 18 20
f 30 17 22
f 30 27 9
f 30 9 17
f 31 22 17
f 31 17 1
f 32 7 13
f 32 13 24
f 32 27 7
f 32 24 27
f 33 24 13
f 33 5 24
f 35 16 5
f 35 13 26
f 35 33 13
f 35 5 33
f 35 34 16
f 35 26 34
f 36 4 19
f 36 19 28
f 37 28 11
f 37 11 16
f 37 36 28
f 37 16 34
f 37 34 36
f 38 30 22
f 39 27 30
f 39 30 38
f 40 31 1
f 40 1 12
f 40 12 22
f 40 22 31
f 41 34 26
f 41 26 4
f 41 36 34
f 41 4 36
f 42 7 27
f 42 27 39
f 42 22 7
f 42 39 38
f 42 38 22

