# https://github.com/mikedh/trimesh
v 0.86363377 0.37230344 0.18207420
v 0.86345315 0.37410352 0.09530756
v 0.86434215 0.39115394 0.18131573
v 0.85073353 0.40052177 0.18114074
v 0.83063716 0.37218884 0.18271121
v 0.86076025 0.39946213 0.09417409
v 0.83456707 0.39649008 0.18192348
v 0.85998347 0.39726432 0.14612054
v 0.83683259 0.37478959 0.09658175
v 0.83695657 0.39740207 0.09557787
f 1 2 3
f 5 2 1
f 6 3 2
f 7 5 1
f 7 1 3
f 7 3 4
f 8 6 4
f 8 4 3
f 8 3 6
f 9 6 2
f 9 2 5
f 10 7 4
f 10 4 6
f 10 6 9
f 10 9 5
f 10 5 7

