# https://github.com/mikedh/trimesh
v 0.89893507 -0.22357335 0.67030372
v 0.89681839 -0.22362210 0.65655553
v 0.89703990 -0.18901287 0.65696039
v 0.87387482 -0.18896321 0.67202605
v 0.87376855 -0.22361816 0.67200107
v 0.87050085 -0.20639751 0.64832387
v 0.89890729 -0.18895838 0.67041874
v 0.88705609 -0.20641778 0.65185326
v 0.87400998 -0.18899529 0.64917193
v 0.87052112 -0.22370465 0.64822880
v 0.87416920 -0.22360591 0.67199179
v 0.88643849 -0.22350435 0.65176255
f 1 2 3
f 6 5 4
f 7 1 3
f 8 3 2
f 9 6 4
f 9 8 6
f 9 3 8
f 9 7 3
f 9 4 7
f 10 5 6
f 10 2 1
f 10 1 5
f 10 6 8
f 11 5 1
f 11 1 7
f 11 7 4
f 11 4 5
f 12 10 8
f 12 8 2
f 12 2 10

