# https://github.com/mikedh/trimesh
v -0.81569257 -0.38441531 0.51046247
v -0.81010843 -0.37569721 0.45883559
v -0.80353541 -0.36499228 0.51235454
v -0.82984450 -0.33676501 0.51159695
v -0.81663397 -0.38402092 0.45845611
v -0.82517675 -0.34742532 0.45896926
v -0.82111480 -0.34458455 0.51306375
v -0.80425261 -0.36905864 0.51072831
v -0.81588351 -0.38426559 0.49315818
v -0.83138006 -0.33739340 0.49449273
v -0.81752210 -0.35605137 0.45990716
v -0.80484491 -0.36976726 0.49349231
v -0.80524176 -0.36599483 0.49450960
f 6 2 5
f 7 1 3
f 7 4 1
f 8 3 1
f 9 5 2
f 9 1 5
f 10 5 1
f 10 1 4
f 10 6 5
f 10 7 6
f 10 4 7
f 11 2 6
f 11 7 3
f 11 6 7
f 12 3 8
f 12 9 2
f 12 8 1
f 12 1 9
f 13 11 3
f 13 3 12
f 13 12 2
f 13 2 11

