# https://github.com/mikedh/trimesh
v 0.70095986 0.29564999 0.67259850
v 0.70129975 0.32521955 0.60775448
v 0.70094508 0.34756892 0.67273502
v 0.54517911 0.34754962 0.67283807
v 0.54524388 0.29574224 0.63938497
v 0.54514378 0.34754867 0.60215444
v 0.54517908 0.29562655 0.67281073
v 0.70097209 0.29569069 0.63937863
v 0.70083905 0.34742160 0.60319545
v 0.54497545 0.32585036 0.60843842
v 0.64904509 0.34717931 0.60253553
f 1 2 3
f 6 4 3
f 7 1 3
f 7 3 4
f 8 5 2
f 8 2 1
f 8 7 5
f 8 1 7
f 9 6 3
f 9 3 2
f 10 6 2
f 10 2 5
f 10 5 7
f 10 7 4
f 10 4 6
f 11 9 2
f 11 2 6
f 11 6 9

