# https://github.com/mikedh/trimesh
v -0.82934532 0.35714991 0.33866291
v -0.82896689 0.37321708 0.18246133
v -0.82312393 0.36553812 0.33756561
v -0.86439150 0.36790960 0.33777143
v -0.85063408 0.36339223 0.18312692
v -0.82542455 0.36733302 0.28579680
v -0.83377237 0.36894200 0.18361474
v -0.86021352 0.36200622 0.33817903
v -0.86312406 0.37272427 0.21670057
v -0.85542069 0.36661013 0.18180690
v -0.85772474 0.36630433 0.21736181
f 1 3 4
f 3 2 4
f 6 1 2
f 6 2 3
f 6 3 1
f 7 5 2
f 7 2 1
f 7 1 5
f 8 5 1
f 8 1 4
f 9 4 2
f 9 8 4
f 10 9 2
f 10 2 5
f 11 10 5
f 11 5 8
f 11 8 9
f 11 9 10

