# https://github.com/mikedh/trimesh
v 0.83367385 -0.39455829 0.61419192
v 0.85760194 -0.38488883 0.52764624
v 0.85560461 -0.34161664 0.61817789
v 0.76855907 -0.32497857 0.60302331
v 0.82633954 -0.39817014 0.52795281
v 0.84547110 -0.33968714 0.52839542
v 0.77088493 -0.36489398 0.61765902
v 0.85757142 -0.38413751 0.61378834
v 0.83306588 -0.39726406 0.52710742
v 0.86119179 -0.35542971 0.52822727
v 0.80417151 -0.36988044 0.52835481
v 0.81710211 -0.39706588 0.61550578
v 0.82797506 -0.33757227 0.52861258
v 0.77105068 -0.36087961 0.60665260
v 0.82329821 -0.39726070 0.54614155
v 0.80739725 -0.35659534 0.53095825
v 0.81893203 -0.34429424 0.52979378
f 6 4 3
f 7 3 4
f 9 8 1
f 9 2 8
f 10 6 3
f 10 9 6
f 10 2 9
f 10 8 2
f 10 3 8
f 11 9 5
f 12 3 7
f 12 8 3
f 12 1 8
f 12 9 1
f 12 5 9
f 13 4 6
f 13 6 9
f 13 9 11
f 14 7 4
f 14 4 11
f 14 11 5
f 14 5 7
f 15 12 7
f 15 7 5
f 15 5 12
f 16 11 4
f 17 13 11
f 17 11 16
f 17 16 4
f 17 4 13

