# https://github.com/mikedh/trimesh
v 0.83306588 -0.39726406 0.52710742
v 0.85875627 -0.38488152 0.45839246
v 0.86119179 -0.35542971 0.52822727
v 0.81893203 -0.34429424 0.52979378
v 0.81714423 -0.38632290 0.45910375
v 0.84556920 -0.34355287 0.45988197
v 0.80739725 -0.35659534 0.53095825
v 0.85760194 -0.38488883 0.52764624
v 0.83060004 -0.39926769 0.45888517
v 0.85886158 -0.35609325 0.45953294
v 0.84547110 -0.33968714 0.52839542
v 0.84579361 -0.39416734 0.45794359
v 0.80417151 -0.36988044 0.52835481
v 0.81857288 -0.35456448 0.46016982
v 0.82633954 -0.39817014 0.52795281
v 0.83292534 -0.34066614 0.46026281
v 0.83561867 -0.39884674 0.45813972
v 0.84553165 -0.39369246 0.47523427
v 0.80488824 -0.36898325 0.49557012
v 0.82239301 -0.34538933 0.49585409
v 0.80815341 -0.35906592 0.51357758
v 0.80540406 -0.37112395 0.49364327
f 8 2 3
f 8 3 7
f 10 3 2
f 10 2 6
f 11 10 6
f 11 3 10
f 11 7 3
f 11 4 7
f 12 6 2
f 12 2 8
f 14 12 5
f 14 7 4
f 15 8 7
f 15 1 8
f 15 7 13
f 15 13 5
f 15 5 9
f 16 11 6
f 16 4 11
f 16 6 12
f 16 12 14
f 17 9 5
f 17 5 12
f 17 15 9
f 17 1 15
f 18 12 8
f 18 8 1
f 18 17 12
f 18 1 17
f 19 13 7
f 20 16 14
f 20 14 4
f 20 4 16
f 21 19 7
f 21 7 14
f 21 14 19
f 22 19 14
f 22 14 5
f 22 5 13
f 22 13 19

