# https://github.com/mikedh/trimesh
v 0.86357740 0.35610661 0.52802113
v 0.86261401 0.35692799 0.45902598
v 0.85826521 0.38791081 0.45834287
v 0.81589940 0.38859589 0.52838801
v 0.80673150 0.35713590 0.52970543
v 0.85790176 0.38665827 0.52770718
v 0.81508710 0.35609353 0.45995710
v 0.80610487 0.37279317 0.49410778
v 0.80832669 0.36074566 0.49568988
v 0.80442590 0.37241097 0.52849747
v 0.81757575 0.38675641 0.45940782
f 1 2 3
f 6 1 3
f 6 3 4
f 6 5 1
f 6 4 5
f 7 2 1
f 7 1 5
f 7 3 2
f 9 8 7
f 9 7 5
f 9 5 8
f 10 8 5
f 10 5 4
f 10 4 8
f 11 8 4
f 11 4 3
f 11 3 7
f 11 7 8

