# https://github.com/mikedh/trimesh
v 0.09517539 0.34768423 0.60271489
v 0.09483431 0.35704186 0.60663302
v 0.09458547 0.36684052 0.64098761
v 0.00862747 0.40699264 0.65223072
v 0.00866880 0.35710800 0.60636281
v 0.09515502 0.40707516 0.65319864
v 0.09485182 0.40589947 0.65087147
v 0.00866273 0.34712446 0.60279097
v 0.00870806 0.36679809 0.64113328
v 0.00865549 0.40590069 0.65064999
f 5 2 1
f 6 1 2
f 6 3 1
f 7 2 5
f 7 6 2
f 7 4 6
f 8 5 1
f 8 1 3
f 8 4 5
f 9 6 4
f 9 3 6
f 9 8 3
f 9 4 8
f 10 7 5
f 10 5 4
f 10 4 7

