# https://github.com/mikedh/trimesh
v -0.81234860 -0.39153680 0.61489599
v -0.77125017 -0.36147720 0.60634486
v -0.77385567 -0.36496552 0.61770090
v -0.80311699 -0.32464577 0.59913694
v -0.80876889 -0.37628282 0.52813894
v -0.76870236 -0.32645892 0.60354845
v -0.80402695 -0.38052256 0.61608754
v -0.81349080 -0.39102198 0.59803589
v -0.81257195 -0.35098827 0.52870059
v -0.80373806 -0.36897966 0.52863412
v -0.81528872 -0.33987191 0.58372040
v -0.80573001 -0.35937852 0.52980049
f 6 3 2
f 6 4 3
f 7 1 3
f 7 3 4
f 7 4 1
f 8 2 3
f 8 3 1
f 8 5 2
f 9 4 6
f 9 5 8
f 10 6 2
f 10 2 5
f 10 5 9
f 11 9 8
f 11 8 1
f 11 1 4
f 11 4 9
f 12 10 9
f 12 9 6
f 12 6 10

