# https://github.com/mikedh/trimesh
v -0.23364907 -0.32952824 0.60637564
v -0.23389118 -0.32390325 0.60867073
v -0.23366560 -0.31844981 0.63725570
v -0.38944318 -0.29258636 0.63942010
v -0.38950140 -0.33003468 0.60691386
v -0.23362625 -0.29279974 0.63870590
v -0.38943189 -0.32435959 0.61030220
v -0.38940196 -0.31860901 0.63718689
v -0.26824532 -0.32332290 0.60910386
v -0.38940701 -0.29304367 0.63940793
f 5 2 1
f 5 1 3
f 6 1 2
f 6 3 1
f 7 5 4
f 8 5 3
f 8 4 5
f 9 6 2
f 9 4 6
f 9 7 4
f 9 2 5
f 9 5 7
f 10 8 3
f 10 4 8
f 10 6 4
f 10 3 6

