# https://github.com/mikedh/trimesh
v 0.70094282 -0.38049607 0.64659693
v 0.70112086 -0.35999976 0.60746373
v 0.70078304 -0.31733349 0.63717479
v 0.66617297 -0.31771529 0.63736969
v 0.66632912 -0.38039579 0.64681612
v 0.66636748 -0.33011450 0.60477560
v 0.70088516 -0.31763631 0.63121312
v 0.66611961 -0.36758396 0.63376511
v 0.70098262 -0.33008462 0.60468951
v 0.66650767 -0.35983220 0.60768288
f 5 2 1
f 5 1 3
f 5 3 4
f 7 1 2
f 7 3 1
f 7 6 4
f 7 4 3
f 8 5 4
f 8 4 6
f 9 7 2
f 9 2 6
f 9 6 7
f 10 8 6
f 10 6 2
f 10 2 5
f 10 5 8

