# https://github.com/mikedh/trimesh
v -0.07788184 -0.32743310 0.67260511
v -0.07785225 -0.33005556 0.60573925
v -0.07779010 -0.29297517 0.63705986
v -0.23362083 -0.29283337 0.67207098
v -0.23362076 -0.32744874 0.67204915
v -0.23389118 -0.32390325 0.60867073
v -0.07787808 -0.29284677 0.67261567
v -0.07779750 -0.32444339 0.60796884
v -0.23362625 -0.29279974 0.63870590
v -0.23364907 -0.32952824 0.60637564
f 5 2 1
f 5 1 4
f 6 5 4
f 7 1 3
f 7 4 1
f 8 1 2
f 8 3 1
f 8 6 3
f 9 6 4
f 9 3 6
f 9 7 3
f 9 4 7
f 10 2 5
f 10 5 6
f 10 8 2
f 10 6 8

