# https://github.com/mikedh/trimesh
v -0.83594718 -0.39865941 0.23398195
v -0.82891554 -0.39081999 0.18184593
v -0.82805472 -0.39087215 0.23381477
v -0.86422855 -0.38952694 0.19866183
v -0.83574879 -0.39776869 0.18185742
v -0.82829409 -0.39063781 0.21651357
v -0.85602980 -0.39542797 0.23361957
v -0.86466166 -0.38984306 0.18137077
v -0.84919123 -0.39939417 0.23295789
v -0.86068926 -0.39445172 0.18095167
v -0.86036824 -0.39398176 0.19824062
f 5 2 3
f 5 3 1
f 6 3 2
f 6 2 4
f 6 4 3
f 7 1 3
f 7 3 4
f 8 4 2
f 9 5 1
f 9 1 7
f 10 8 2
f 10 2 5
f 10 5 9
f 10 9 7
f 10 4 8
f 11 10 7
f 11 7 4
f 11 4 10

