# https://github.com/mikedh/trimesh
v 0.85413232 -0.39277376 0.33731629
v 0.85641767 -0.39623093 0.18171227
v 0.84961407 -0.35428604 0.33832032
v 0.83150345 -0.35522253 0.33884648
v 0.82005139 -0.38660710 0.33766062
v 0.84663873 -0.36307875 0.18343451
v 0.81871354 -0.37172183 0.33904765
v 0.82802909 -0.39315660 0.18176853
v 0.84878804 -0.36341567 0.18334931
v 0.82371137 -0.37749358 0.20091369
v 0.83097421 -0.37269491 0.18296334
v 0.82495860 -0.38839786 0.19933975
v 0.83553506 -0.36548339 0.21856141
f 1 2 3
f 6 4 3
f 7 1 3
f 7 3 4
f 7 5 1
f 8 2 1
f 8 1 5
f 9 6 3
f 9 3 2
f 9 2 8
f 10 7 4
f 10 5 7
f 11 9 8
f 11 6 9
f 11 8 10
f 11 10 4
f 12 10 8
f 12 8 5
f 12 5 10
f 13 11 4
f 13 4 6
f 13 6 11

