# https://github.com/mikedh/trimesh
v 0.77016328 -0.40632077 0.67142337
v 0.77016178 -0.40534015 0.65346066
v 0.77019088 -0.32747314 0.67227647
v 0.70097000 -0.32747783 0.67227519
v 0.70093202 -0.40546582 0.65322901
v 0.70093287 -0.40633368 0.67157946
v 0.77088493 -0.36489398 0.61765902
v 0.70083911 -0.32168214 0.60994601
v 0.70099117 -0.36461355 0.61882105
v 0.76855907 -0.32497857 0.60302331
v 0.75231091 -0.32547705 0.60468664
f 5 2 1
f 6 1 3
f 6 3 4
f 6 5 1
f 7 1 2
f 7 3 1
f 7 2 5
f 8 6 4
f 8 5 6
f 8 4 3
f 9 7 5
f 9 5 8
f 10 8 3
f 10 3 7
f 10 7 9
f 11 10 9
f 11 9 8
f 11 8 10

