# https://github.com/mikedh/trimesh
v 0.70098262 -0.33008462 0.60468951
v 0.70117947 -0.32375723 0.60713734
v 0.70078304 -0.31733349 0.63717479
v 0.47594824 -0.29243642 0.63904139
v 0.47597171 -0.33132472 0.60533410
v 0.70091689 -0.29271223 0.63910112
v 0.47607916 -0.32526314 0.60939744
v 0.47602238 -0.31842699 0.63722713
v 0.70099461 -0.29293591 0.63909788
v 0.64935344 -0.32471580 0.60706920
f 1 2 3
f 5 2 1
f 5 1 3
f 6 2 4
f 7 5 4
f 8 5 3
f 8 4 5
f 9 3 2
f 9 2 6
f 9 8 3
f 9 6 4
f 9 4 8
f 10 7 4
f 10 4 2
f 10 2 5
f 10 5 7

