# https://github.com/mikedh/trimesh
v 0.54512727 0.29546781 0.63939011
v -0.59699786 0.36625188 0.64059933
v -0.59715928 0.29549484 0.63948198
v -0.59712379 0.34712910 0.60332251
v 0.54517281 0.36811968 0.63989277
v -0.59702396 0.32632592 0.60754721
v 0.54514378 0.34754867 0.60215444
v 0.54524388 0.29574224 0.63938497
v 0.52788506 0.34730710 0.60206791
v 0.54497545 0.32585036 0.60843842
f 1 2 3
f 3 2 4
f 5 2 1
f 5 4 2
f 6 1 3
f 6 3 4
f 7 4 5
f 8 7 5
f 8 5 1
f 9 6 4
f 9 4 7
f 10 8 1
f 10 7 8
f 10 9 7
f 10 1 6
f 10 6 9

