# https://github.com/mikedh/trimesh
v -0.83112777 0.34492223 0.42585157
v -0.82934532 0.35714991 0.33866291
v -0.82655805 0.39556041 0.42420148
v -0.83290855 0.34774482 0.39134909
v -0.86215135 0.38849420 0.33679406
v -0.83080846 0.39728921 0.33762986
v -0.86021352 0.36200622 0.33817903
v -0.86224073 0.35988555 0.42461792
v -0.83545868 0.39942631 0.38928556
v -0.83620776 0.39980436 0.33693072
v -0.84697344 0.34864646 0.39075066
v -0.85952995 0.38693830 0.42358440
v -0.83024806 0.39818112 0.38980106
v -0.83757919 0.34751680 0.39110112
v -0.84829068 0.34685874 0.42522300
f 1 2 3
f 2 1 4
f 6 3 2
f 7 5 2
f 8 1 3
f 8 5 7
f 10 6 2
f 10 2 5
f 10 5 9
f 11 7 2
f 12 8 3
f 12 3 9
f 12 9 5
f 12 5 8
f 13 10 9
f 13 9 3
f 13 3 6
f 13 6 10
f 14 11 2
f 14 2 4
f 14 4 1
f 15 8 7
f 15 7 11
f 15 1 8
f 15 14 1
f 15 11 14

