# https://github.com/mikedh/trimesh
v -0.85669518 -0.22359007 0.67051065
v -0.84644024 -0.22352111 0.63468150
v -0.85665273 0.19178188 0.67077995
v -0.89795812 0.19176826 0.66841563
v -0.89721769 -0.22356240 0.65531278
v -0.84690884 0.19184313 0.63408178
v -0.89783744 -0.22356511 0.66789622
v -0.89747314 0.19175780 0.65484860
v -0.88848139 -0.22349591 0.65067128
v -0.88883572 0.19172803 0.65083021
f 1 2 3
f 1 3 4
f 5 2 1
f 6 3 2
f 6 4 3
f 7 5 1
f 7 1 4
f 8 4 6
f 8 7 4
f 8 5 7
f 9 6 2
f 9 2 5
f 9 5 8
f 10 9 8
f 10 8 6
f 10 6 9

