# https://github.com/mikedh/trimesh
v -0.77015168 0.29566337 0.67134714
v -0.77333987 0.29961949 0.61595023
v -0.77023865 0.40765940 0.66655128
v -0.86185865 0.39664099 0.66929450
v -0.89843197 0.29582195 0.66864970
v -0.85857719 0.38497425 0.61446533
v -0.77016885 0.40676989 0.67118048
v -0.77131669 0.36573223 0.61630594
v -0.84219566 0.29519605 0.61764046
v -0.87694742 0.38526005 0.66935405
v -0.83432411 0.39572330 0.63224886
v -0.77017197 0.40578319 0.65269487
v -0.88805262 0.29554143 0.65106171
v -0.85844323 0.34448424 0.61571932
v -0.89165921 0.36030556 0.65411585
v -0.87597669 0.38675198 0.65411863
v -0.86316599 0.39619497 0.65432641
v -0.80877117 0.38617911 0.61581124
v -0.89803541 0.29583354 0.65502775
v -0.89221333 0.35964428 0.66874846
v -0.81471890 0.39778830 0.63279653
f 7 3 4
f 8 1 2
f 8 2 6
f 9 2 1
f 10 5 1
f 10 7 4
f 10 1 7
f 12 7 1
f 12 3 7
f 12 1 8
f 13 9 1
f 13 1 5
f 14 6 2
f 14 2 9
f 16 10 4
f 16 6 15
f 17 11 6
f 17 4 3
f 17 12 11
f 17 3 12
f 17 16 4
f 17 6 16
f 18 12 8
f 18 8 6
f 19 6 14
f 19 15 6
f 19 13 5
f 19 14 9
f 19 9 13
f 20 5 10
f 20 16 15
f 20 10 16
f 20 19 5
f 20 15 19
f 21 18 6
f 21 6 11
f 21 11 12
f 21 12 18

