# https://github.com/mikedh/trimesh
v -0.59715928 0.29549484 0.63948198
v -0.59702396 0.32632592 0.60754721
v -0.59711721 0.39938942 0.64964471
v -0.66634275 0.39932725 0.64990110
v -0.66683712 0.32595572 0.60747197
v -0.59707977 0.29572300 0.63947860
v -0.66633650 0.29557474 0.63960909
v -0.66642953 0.35872378 0.60476558
v -0.66635419 0.29565936 0.63960865
v -0.59714744 0.35853333 0.60537198
f 1 3 4
f 5 2 1
f 6 1 2
f 6 2 3
f 6 3 1
f 7 5 1
f 7 1 4
f 8 2 5
f 8 5 4
f 8 4 3
f 9 7 4
f 9 4 5
f 9 5 7
f 10 8 3
f 10 3 2
f 10 2 8

