# https://github.com/mikedh/trimesh
v -0.77014829 0.19177813 0.67109827
v -0.77022399 0.19182611 0.64006803
v -0.77637491 0.30196310 0.60775085
v -0.89843197 0.29582195 0.66864970
v -0.89795812 0.19176826 0.66841563
v -0.77015168 0.29566337 0.67134714
v -0.89747314 0.19175780 0.65484860
v -0.83932053 0.19189349 0.60799597
v -0.89803541 0.29583354 0.65502775
v -0.80373328 0.19231565 0.60749837
v -0.83895303 0.29537066 0.60827674
v -0.82196008 0.29596191 0.60263607
f 6 3 4
f 6 5 1
f 6 4 5
f 6 1 2
f 6 2 3
f 7 2 1
f 7 1 5
f 8 2 7
f 9 7 5
f 9 5 4
f 9 8 7
f 9 4 3
f 10 3 2
f 10 2 8
f 11 9 3
f 11 8 9
f 12 10 8
f 12 8 11
f 12 11 3
f 12 3 10

