# https://github.com/mikedh/trimesh
v -0.81876179 0.34338292 0.52973602
v -0.81692894 0.35625740 0.46013656
v -0.81136228 0.35245023 0.52858376
v -0.85590629 0.34839586 0.52791462
v -0.84829068 0.34685874 0.42522300
v -0.82339149 0.34766388 0.46089704
v -0.84779573 0.34170643 0.52814871
v -0.85327451 0.35096828 0.42423613
v -0.82576544 0.35049725 0.42447788
v -0.83112777 0.34492223 0.42585157
f 1 3 4
f 3 2 4
f 6 2 3
f 6 3 1
f 7 1 4
f 8 4 2
f 8 7 4
f 8 5 7
f 9 2 6
f 9 8 2
f 9 5 8
f 10 6 1
f 10 9 6
f 10 5 9
f 10 7 5
f 10 1 7

