# https://github.com/mikedh/trimesh
v 0.84891563 0.34501397 0.42465994
v 0.85267149 0.35295485 0.33785299
v 0.85260257 0.39275051 0.42387715
v 0.81966424 0.38663479 0.42499269
v 0.82449734 0.36130020 0.33937343
v 0.81894826 0.35687026 0.42598865
v 0.84116252 0.34820819 0.35558148
v 0.85355935 0.39445040 0.33734026
v 0.82236856 0.38660270 0.33727992
v 0.84702243 0.34794217 0.35593997
v 0.83188810 0.34416118 0.42533620
v 0.83191818 0.34984559 0.37443893
f 1 2 3
f 6 1 3
f 6 3 4
f 7 5 2
f 8 3 2
f 8 4 3
f 9 6 4
f 9 5 6
f 9 4 8
f 9 8 2
f 9 2 5
f 10 7 2
f 10 2 1
f 11 1 6
f 11 10 1
f 11 7 10
f 12 11 6
f 12 6 5
f 12 5 7
f 12 7 11

