# https://github.com/mikedh/trimesh
v -0.70094144 0.29565837 0.67155136
v -0.70127038 0.32498326 0.60720851
v -0.70093830 0.40678154 0.67130121
v -0.77016885 0.40676989 0.67118048
v -0.77637491 0.30196310 0.60775085
v -0.77169550 0.36249534 0.60473176
v -0.70105675 0.35909535 0.60461946
v -0.70096954 0.29565919 0.63957327
v -0.77015168 0.29566337 0.67134714
v -0.70094141 0.40589842 0.65265654
v -0.77017197 0.40578319 0.65269487
f 1 3 4
f 7 2 5
f 7 5 6
f 8 5 2
f 8 2 7
f 9 1 4
f 9 4 5
f 9 8 1
f 9 5 8
f 10 4 3
f 10 7 6
f 10 8 7
f 10 3 1
f 10 1 8
f 11 6 5
f 11 5 4
f 11 10 6
f 11 4 10

