# https://github.com/mikedh/trimesh
v -0.83106120 0.37434746 0.14793148
v -0.84258533 0.37731013 0.00271275
v -0.83943052 0.39955111 0.02731878
v -0.85032679 0.40120330 0.14659041
v -0.86216639 0.37432945 0.14733184
v -0.83671751 0.39902640 0.14692359
v -0.83975000 0.39313998 0.00284118
v -0.85988653 0.37705773 0.00399344
v -0.86083144 0.39574426 0.00193210
v -0.84708375 0.40017465 0.00280139
v -0.86427901 0.39154378 0.14643784
v -0.86063992 0.39646842 0.11176981
f 5 1 4
f 6 1 3
f 6 3 4
f 6 4 1
f 7 1 2
f 7 3 1
f 8 2 1
f 8 1 5
f 9 7 2
f 9 2 8
f 10 3 7
f 10 7 9
f 10 9 4
f 10 4 3
f 11 9 8
f 11 8 5
f 11 5 4
f 12 11 4
f 12 4 9
f 12 9 11

