# https://github.com/mikedh/trimesh
v 0.47593571 -0.38025459 0.64554710
v 0.47600439 -0.35562198 0.60570290
v 0.47594824 -0.29243642 0.63904139
v 0.42403613 -0.29282968 0.63903314
v 0.42404389 -0.38021986 0.64587072
v 0.47607916 -0.32526314 0.60939744
v 0.42417309 -0.35548675 0.60597864
v 0.47597121 -0.29313516 0.63901310
v 0.42396526 -0.36320894 0.61897445
v 0.42416662 -0.32552596 0.60957815
f 5 2 1
f 5 1 3
f 5 3 4
f 6 4 3
f 6 1 2
f 7 2 5
f 8 6 3
f 8 3 1
f 8 1 6
f 9 7 5
f 9 5 4
f 10 6 2
f 10 2 7
f 10 4 6
f 10 9 4
f 10 7 9

