# https://github.com/mikedh/trimesh
v 0.85528067 0.34887486 0.45869920
v 0.86363377 0.37230344 0.18207420
v 0.86261401 0.35692799 0.45902598
v 0.85309563 0.39176584 0.45848741
v 0.85251334 0.36230552 0.20020887
v 0.86434215 0.39115394 0.18131573
v 0.85610234 0.36598188 0.18184029
v 0.85826521 0.38791081 0.45834287
v 0.85589796 0.39782790 0.18165265
v 0.85896720 0.36727910 0.19997249
f 1 2 3
f 1 3 4
f 5 1 4
f 6 3 2
f 7 1 5
f 7 6 2
f 8 4 3
f 8 3 6
f 9 5 4
f 9 8 6
f 9 4 8
f 9 7 5
f 9 6 7
f 10 7 2
f 10 2 1
f 10 1 7

