# https://github.com/mikedh/trimesh
v -0.38940902 -0.38019796 0.64566993
v -0.38948289 -0.35656954 0.60641919
v -0.38944318 -0.29258636 0.63942010
v -0.66631950 -0.29266070 0.64034209
v -0.66639235 -0.35704490 0.60517154
v -0.38939282 -0.36232063 0.61877181
v -0.66636912 -0.38009847 0.64576681
v -0.66646455 -0.32401267 0.60755411
v -0.38943189 -0.32435959 0.61030220
v -0.38940701 -0.29304367 0.63940793
v -0.66637249 -0.29301874 0.64033452
v -0.40695003 -0.32532280 0.60892275
f 1 3 4
f 5 2 1
f 6 1 2
f 7 5 1
f 7 1 4
f 8 2 5
f 8 4 3
f 8 5 7
f 9 6 2
f 10 3 1
f 10 1 6
f 10 9 3
f 10 6 9
f 11 8 7
f 11 7 4
f 11 4 8
f 12 8 3
f 12 3 9
f 12 9 2
f 12 2 8

