# https://github.com/mikedh/trimesh
v -0.83574879 -0.39776869 0.18185742
v -0.83770150 -0.38892148 0.00550192
v -0.83100642 -0.37183433 0.18299645
v -0.86184039 -0.37231001 0.18213316
v -0.85996264 -0.40042841 0.00272823
v -0.84703041 -0.37960777 0.00520481
v -0.84202415 -0.40080971 0.00229167
v -0.86068926 -0.39445172 0.18095167
v -0.83911181 -0.37976567 0.02792133
v -0.85916156 -0.38194448 0.00242666
f 1 2 3
f 1 3 4
f 6 4 3
f 7 2 1
f 7 1 5
f 7 6 2
f 8 5 1
f 8 1 4
f 8 4 5
f 9 6 3
f 9 3 2
f 9 2 6
f 10 5 4
f 10 4 6
f 10 7 5
f 10 6 7

