# https://github.com/mikedh/trimesh
v 0.87379349 -0.32743028 0.65011297
v 0.82209597 -0.29316627 0.60035628
v 0.82212849 -0.29277904 0.67214657
v 0.82208244 -0.32734208 0.67227019
v 0.87395094 -0.29283170 0.64944638
v 0.83851560 -0.33214583 0.57998620
v 0.87040334 -0.29246784 0.64867740
v 0.84776666 -0.33911792 0.59839420
v 0.83127178 -0.29280226 0.60513620
v 0.82558996 -0.33309389 0.58070722
f 4 1 3
f 4 3 2
f 5 3 1
f 7 3 5
f 8 6 5
f 8 5 1
f 8 1 4
f 9 6 2
f 9 5 6
f 9 7 5
f 9 2 3
f 9 3 7
f 10 4 2
f 10 2 6
f 10 8 4
f 10 6 8

