# https://github.com/mikedh/trimesh
v 0.86345315 0.37410352 0.09530756
v 0.86162579 0.37739384 0.00262215
v 0.86076025 0.39946213 0.09417409
v 0.84438609 0.40237426 0.09492515
v 0.83683259 0.37478959 0.09658175
v 0.86108623 0.39808305 0.00389774
v 0.85025592 0.37697641 0.00219321
v 0.84015266 0.39240069 0.00488959
v 0.84144196 0.38014915 0.01229373
v 0.83252153 0.39221413 0.09562859
v 0.84737349 0.40053345 0.00562461
v 0.84023262 0.38816448 0.00462027
v 0.83745089 0.37774343 0.06191491
f 1 3 4
f 5 1 4
f 6 4 3
f 6 1 2
f 6 3 1
f 7 2 1
f 7 1 5
f 7 6 2
f 8 6 7
f 9 7 5
f 10 5 4
f 11 4 6
f 11 6 8
f 11 10 4
f 11 8 10
f 12 8 7
f 12 7 9
f 12 10 8
f 13 9 5
f 13 5 10
f 13 12 9
f 13 10 12

