# https://github.com/mikedh/trimesh
v -0.77015470 -0.32751639 0.67093475
v -0.77121592 -0.32802742 0.60303053
v -0.77006157 -0.22346365 0.64051922
v -0.82205757 -0.22360212 0.67061893
v -0.84660226 -0.32085422 0.62685780
v -0.77015450 -0.22361195 0.67080799
v -0.81528872 -0.33987191 0.58372040
v -0.82210756 -0.32753622 0.67079895
v -0.80102364 -0.22675647 0.60881598
v -0.82490761 -0.33281851 0.58105700
v -0.82214598 -0.22359332 0.60292384
f 1 2 3
f 6 1 3
f 6 3 4
f 7 2 1
f 8 4 5
f 8 6 4
f 8 1 6
f 8 7 1
f 8 5 7
f 9 3 2
f 10 9 2
f 10 2 7
f 10 7 5
f 11 4 3
f 11 3 9
f 11 5 4
f 11 10 5
f 11 9 10

