# https://github.com/mikedh/trimesh
v 0.85749590 -0.39538542 0.18102160
v 0.86204875 -0.39956310 0.00698493
v 0.86114410 -0.37323529 0.18223047
v 0.83097421 -0.37269491 0.18296334
v 0.83484270 -0.39890429 0.18187313
v 0.84747370 -0.37938416 0.00547861
v 0.85950237 -0.38146770 0.00483231
v 0.83670849 -0.38970476 0.00499187
v 0.83788594 -0.38112312 0.02784899
v 0.83841199 -0.39897661 0.00817266
f 1 2 3
f 5 2 1
f 5 1 3
f 5 3 4
f 6 4 3
f 7 6 3
f 7 3 2
f 8 5 4
f 8 7 2
f 8 6 7
f 9 8 4
f 9 4 6
f 9 6 8
f 10 8 2
f 10 2 5
f 10 5 8

