# https://github.com/mikedh/trimesh
v 0.86049954 -0.38671347 0.35408118
v 0.86110046 -0.38715614 0.33680573
v 0.85711534 -0.36030333 0.35544034
v 0.83045320 -0.35405918 0.35592652
v 0.81992450 -0.38669101 0.35496698
v 0.85676456 -0.36062543 0.33814576
v 0.81786924 -0.37105528 0.35569100
v 0.82005139 -0.38660710 0.33766062
v 0.83150345 -0.35522253 0.33884648
v 0.81871354 -0.37172183 0.33904765
f 1 2 3
f 5 2 1
f 5 1 3
f 6 3 2
f 6 4 3
f 7 5 3
f 7 3 4
f 8 2 5
f 8 5 7
f 9 6 2
f 9 2 8
f 9 4 6
f 10 9 8
f 10 8 7
f 10 7 4
f 10 4 9

