# https://github.com/mikedh/trimesh
v -0.80548927 0.36040345 0.53002380
v -0.80583611 0.37079013 0.47765560
v -0.81651296 0.38894839 0.52860243
v -0.85883057 0.38473648 0.52790156
v -0.86222537 0.35779894 0.45930957
v -0.85896754 0.38632848 0.45817008
v -0.80390921 0.37053435 0.52799038
v -0.81692894 0.35625740 0.46013656
v -0.86316145 0.35558586 0.52822585
v -0.81832153 0.38763017 0.45912267
v -0.80576533 0.37262898 0.47647496
v -0.80815634 0.36239293 0.49579599
f 1 3 4
f 6 4 3
f 7 1 2
f 7 3 1
f 8 5 6
f 9 1 4
f 9 6 5
f 9 4 6
f 9 8 1
f 9 5 8
f 10 6 3
f 10 8 6
f 11 7 2
f 11 3 7
f 11 10 3
f 11 2 8
f 11 8 10
f 12 8 2
f 12 2 1
f 12 1 8

