# https://github.com/mikedh/trimesh
v 0.82222186 0.29468026 0.60275072
v 0.82611782 0.33707146 0.52862472
v 0.82209100 0.39859123 0.61442368
v 0.77256995 0.29859049 0.61533173
v 0.80442590 0.37241097 0.52849747
v 0.77221847 0.36648685 0.61844282
v 0.82426560 0.39705994 0.52798581
v 0.80673150 0.35713590 0.52970543
v 0.77498142 0.36335715 0.60681229
v 0.80644023 0.38478449 0.61661506
v 0.81589940 0.38859589 0.52838801
v 0.81728673 0.34383601 0.52969331
f 1 2 3
f 4 2 1
f 4 1 3
f 7 3 2
f 7 2 5
f 7 6 3
f 8 5 2
f 8 4 5
f 9 6 5
f 9 5 4
f 9 4 6
f 10 6 4
f 10 4 3
f 10 3 6
f 11 7 5
f 11 5 6
f 11 6 7
f 12 8 2
f 12 2 4
f 12 4 8

