# https://github.com/mikedh/trimesh
v 0.84829535 0.34111731 0.52808089
v 0.85475943 0.34979695 0.42415890
v 0.85645550 0.34779655 0.52789321
v 0.81049923 0.35156724 0.52853039
v 0.83188810 0.34416118 0.42533620
v 0.81508710 0.35609353 0.45995710
v 0.81728673 0.34383601 0.52969331
v 0.84891563 0.34501397 0.42465994
v 0.82480162 0.35009202 0.42438823
v 0.82269091 0.34729377 0.46098294
f 1 2 3
f 6 3 2
f 6 4 3
f 7 1 3
f 7 3 4
f 7 5 1
f 8 2 1
f 8 1 5
f 9 6 2
f 9 4 6
f 9 8 5
f 9 2 8
f 10 9 5
f 10 5 7
f 10 7 4
f 10 4 9

