# https://github.com/mikedh/trimesh
v 0.84212894 0.29638822 0.61820418
v 0.85055418 0.34050400 0.59752898
v 0.85007628 0.33641282 0.61591826
v 0.84001801 0.29730896 0.61207905
v 0.82402357 0.33280321 0.58040890
v 0.83753411 0.33349453 0.57996650
v 0.82206498 0.29606584 0.60263763
v 0.82661273 0.32349391 0.59975314
v 0.82222186 0.29468026 0.60275072
v 0.83314283 0.33143713 0.58052520
f 1 2 3
f 2 1 4
f 5 3 2
f 6 5 2
f 6 2 4
f 7 1 3
f 8 7 3
f 8 3 5
f 8 5 7
f 9 4 1
f 9 1 7
f 9 6 4
f 9 7 5
f 10 9 5
f 10 5 6
f 10 6 9

