# https://github.com/mikedh/trimesh
v -0.12981124 0.34704024 0.60378466
v -0.12981450 0.35717335 0.60683708
v -0.12978090 0.36604566 0.64134422
v -0.59711721 0.39938942 0.64964471
v -0.59714744 0.35853333 0.60537198
v -0.12980751 0.39946223 0.64907421
v -0.12972116 0.39719421 0.64877127
v -0.59712379 0.34712910 0.60332251
v -0.59716900 0.39721050 0.64936574
v -0.59699786 0.36625188 0.64059933
f 5 2 1
f 6 5 4
f 6 2 5
f 7 1 2
f 7 3 1
f 7 2 6
f 8 5 1
f 8 1 3
f 9 3 7
f 9 4 5
f 9 5 8
f 9 7 6
f 9 6 4
f 10 9 8
f 10 8 3
f 10 3 9

