# https://github.com/mikedh/trimesh
v -0.77017843 -0.40614228 0.67022016
v -0.77019373 -0.40538322 0.65211854
v -0.77015470 -0.32751639 0.67093475
v -0.89888160 -0.32692240 0.66835178
v -0.86331281 -0.39828428 0.65451776
v -0.82418414 -0.32181829 0.59987225
v -0.86384895 -0.39680034 0.66848497
v -0.76870236 -0.32645892 0.60354845
v -0.85776191 -0.38352770 0.61418691
v -0.88984479 -0.37026622 0.66798956
v -0.89870978 -0.32768905 0.65494090
v -0.83526325 -0.39540648 0.61451468
v -0.89027222 -0.36921160 0.65408646
v -0.85621595 -0.34329438 0.61687573
v -0.81615987 -0.39707136 0.61573595
v -0.77385567 -0.36496552 0.61770090
f 5 2 1
f 6 4 3
f 7 1 3
f 7 3 4
f 7 5 1
f 8 1 2
f 8 3 1
f 8 6 3
f 10 7 4
f 10 5 7
f 11 4 6
f 12 2 5
f 12 5 9
f 12 9 6
f 13 9 5
f 13 5 10
f 13 11 9
f 13 10 4
f 13 4 11
f 14 11 6
f 14 6 9
f 14 9 11
f 15 2 12
f 15 12 6
f 15 6 8
f 16 15 8
f 16 8 2
f 16 2 15

