# https://github.com/mikedh/trimesh
v -0.82677325 -0.39240709 0.35486543
v -0.82891554 -0.39081999 0.18184593
v -0.83042173 -0.35354771 0.35591942
v -0.83100642 -0.37183433 0.18299645
v -0.86466166 -0.38984306 0.18137077
v -0.86184039 -0.37231001 0.18213316
v -0.86253862 -0.38618578 0.35412396
v -0.85079987 -0.36209978 0.18307697
v -0.85941572 -0.35980660 0.35549264
v -0.84503783 -0.36247984 0.18411237
v -0.85696091 -0.36294565 0.25196365
v -0.83620315 -0.36546143 0.20134520
f 1 2 3
f 3 2 4
f 5 2 1
f 6 2 5
f 7 5 1
f 8 4 2
f 8 2 6
f 9 7 1
f 9 1 3
f 9 6 5
f 9 5 7
f 9 3 8
f 10 8 3
f 10 4 8
f 11 9 8
f 11 8 6
f 11 6 9
f 12 10 3
f 12 3 4
f 12 4 10

