# https://github.com/mikedh/trimesh
v 0.85413232 -0.39277376 0.33731629
v 0.86313861 -0.38670469 0.28534801
v 0.86110046 -0.38715614 0.33680573
v 0.84961407 -0.35428604 0.33832032
v 0.85480076 -0.39377096 0.28550614
v 0.86212931 -0.36920827 0.28611196
v 0.85676456 -0.36062543 0.33814576
v 0.84886988 -0.35640859 0.30371168
v 0.85441420 -0.39318693 0.32010734
v 0.85595012 -0.36285117 0.28562679
v 0.85654058 -0.36131532 0.32111893
v 0.85635928 -0.36213304 0.30393278
f 5 2 3
f 6 3 2
f 7 1 3
f 7 4 1
f 7 3 6
f 8 5 1
f 8 1 4
f 9 5 3
f 9 3 1
f 9 1 5
f 10 6 2
f 10 2 5
f 10 5 8
f 10 8 4
f 11 7 6
f 11 4 7
f 12 11 6
f 12 6 10
f 12 10 4
f 12 4 11

