# https://github.com/mikedh/trimesh
v 0.89757676 0.29582700 0.67033644
v 0.89583353 0.29586056 0.65566382
v 0.87536711 0.38432867 0.65528529
v 0.77019465 0.40629743 0.67160883
v 0.77014057 0.29567197 0.67241302
v 0.87663677 0.38402026 0.67047622
v 0.89207773 0.35959881 0.65491627
v 0.77256995 0.29859049 0.61533173
v 0.86035893 0.39714944 0.67012307
v 0.89387583 0.35820189 0.67005941
v 0.84212894 0.29638822 0.61820418
v 0.77012675 0.40491828 0.65360873
v 0.86161165 0.39572688 0.65505161
v 0.85726192 0.38628510 0.61424410
v 0.85801718 0.34448967 0.61646859
v 0.77221847 0.36648685 0.61844282
v 0.83562716 0.39626275 0.63252653
v 0.80644023 0.38478449 0.61661506
v 0.81462206 0.39741565 0.63288993
f 5 2 1
f 6 5 1
f 6 4 5
f 7 1 2
f 7 3 6
f 9 4 6
f 10 7 6
f 10 6 1
f 10 1 7
f 11 2 5
f 11 5 8
f 12 8 5
f 12 5 4
f 12 4 9
f 13 9 6
f 13 6 3
f 13 12 9
f 14 7 2
f 14 3 7
f 14 13 3
f 14 11 8
f 15 14 2
f 15 2 11
f 15 11 14
f 16 8 12
f 17 12 13
f 17 13 14
f 18 14 8
f 18 8 16
f 18 16 12
f 19 17 14
f 19 14 18
f 19 18 12
f 19 12 17

