# https://github.com/mikedh/trimesh
v 0.86292520 -0.39699969 0.66903208
v 0.86382348 -0.39528270 0.65484775
v 0.87379613 -0.32749867 0.67225524
v 0.77019088 -0.32747314 0.67227647
v 0.77016178 -0.40534015 0.65346066
v 0.76855907 -0.32497857 0.60302331
v 0.77016328 -0.40632077 0.67142337
v 0.81710211 -0.39706588 0.61550578
v 0.83601588 -0.32408621 0.60550263
v 0.77088493 -0.36489398 0.61765902
v 0.83367385 -0.39455829 0.61419192
v 0.85757142 -0.38413751 0.61378834
v 0.85560461 -0.34161664 0.61817789
f 1 2 3
f 7 1 3
f 7 3 4
f 7 5 1
f 7 6 5
f 7 4 6
f 8 2 1
f 8 1 5
f 9 6 4
f 9 4 3
f 10 8 5
f 10 5 6
f 10 6 8
f 11 8 6
f 11 2 8
f 12 3 2
f 12 2 11
f 12 11 6
f 12 6 9
f 13 12 9
f 13 9 3
f 13 3 12

