{"scene":0,"scenes":[{"nodes":[0]}],"asset":{"version":"2.0","generator":"https://github.com/mikedh/trimesh"},"accessors":[{"componentType":5125,"type":"SCALAR","bufferView":0,"count":20772,"max":[20725],"min":[0]},{"componentType":5126,"type":"VEC3","byteOffset":0,"bufferView":1,"count":20726,"max":[0.8999999761581421,0.6733292937278748,0.4081208407878876],"min":[-0.8999999761581421,0.0,-0.4081208407878876]},{"componentType":5126,"type":"VEC2","byteOffset":0,"bufferView":3,"count":20726,"max":[0.9995370507240295,0.9995766282081604],"min":[0.00046296295477077365,0.0004233717918395996]}],"meshes":[{"name":"geometry_0.002","extras":{"units":"meters","from_gltf_primitive":false,"name":"geometry_0.002","node":"geometry_0.001"},"primitives":[{"attributes":{"POSITION":1,"TEXCOORD_0":2},"indices":0,"mode":4,"material":0}]}],"images":[{"bufferView":2,"mimeType":"image/png"}],"textures":[{"source":0}],"materials":[{"pbrMetallicRoughness":{"baseColorTexture":{"index":0}},"name":"Material_0.002","doubleSided":false}],"nodes":[{"name":"world","children":[1]},{"name":"geometry_0.002","mesh":0}],"buffers":[{"uri":"gltf_buffer_0.bin","byteLength":83088},{"uri":"gltf_buffer_1.bin","byteLength":248712},{"uri":"gltf_buffer_2.bin","byteLength":983236},{"uri":"gltf_buffer_3.bin","byteLength":165808}],"bufferViews":[{"buffer":0,"byteOffset":0,"byteLength":83088},{"buffer":1,"byteOffset":0,"byteLength":248712},{"buffer":2,"byteOffset":0,"byteLength":983236},{"buffer":3,"byteOffset":0,"byteLength":165808}]}