# https://github.com/mikedh/trimesh
v 0.14711081 0.36242648 0.61528245
v 0.14713185 0.36432130 0.62039326
v 0.09500120 0.36794297 0.64142480
v 0.09515502 0.40707516 0.65319864
v 0.14711471 0.39943152 0.64926058
v 0.09519651 0.36247478 0.61524563
v 0.14708173 0.36853631 0.64070083
v 0.12945703 0.40585747 0.65146319
v 0.09485182 0.40589947 0.65087147
v 0.12977224 0.40710114 0.65356046
v 0.14706367 0.39673619 0.64882997
f 5 2 1
f 6 1 3
f 7 1 2
f 7 3 1
f 7 2 5
f 8 5 1
f 9 6 3
f 9 3 4
f 9 8 1
f 9 1 6
f 10 4 3
f 10 3 7
f 10 5 8
f 10 9 4
f 10 8 9
f 11 10 7
f 11 7 5
f 11 5 10

