# https://github.com/mikedh/trimesh
v -0.82212856 -0.32732038 0.67079759
v -0.82490761 -0.33281851 0.58105700
v -0.82214598 -0.22359332 0.60292384
v -0.89030918 -0.22359822 0.65109712
v -0.89073486 -0.32745308 0.65151701
v -0.83765226 -0.33008105 0.58007153
v -0.82221104 -0.22362281 0.67061824
v -0.82017906 -0.31208225 0.60037711
v -0.83840605 -0.22436532 0.61076788
v -0.88848139 -0.22349591 0.65067128
f 5 2 1
f 6 3 2
f 6 5 4
f 6 2 5
f 7 5 1
f 7 4 5
f 8 1 2
f 8 2 3
f 8 7 1
f 8 3 7
f 9 6 4
f 9 4 3
f 9 3 6
f 10 7 3
f 10 3 4
f 10 4 7

