# https://github.com/mikedh/trimesh
v -0.77333987 0.29961949 0.61595023
v -0.77637491 0.30196310 0.60775085
v -0.77169550 0.36249534 0.60473176
v -0.80567756 0.38136198 0.61450936
v -0.80539531 0.29596795 0.60281958
v -0.77131669 0.36573223 0.61630594
v -0.80363746 0.29492962 0.60306386
v -0.80955884 0.37903456 0.52803748
v -0.81136228 0.35245023 0.52858376
v -0.80390921 0.37053435 0.52799038
v -0.80548927 0.36040345 0.53002380
f 1 2 3
f 5 1 4
f 6 1 3
f 6 4 1
f 7 2 1
f 7 1 5
f 8 6 3
f 8 4 6
f 9 5 4
f 9 4 8
f 9 7 5
f 9 2 7
f 10 9 8
f 10 8 3
f 10 3 2
f 11 10 2
f 11 2 9
f 11 9 10

