# https://github.com/mikedh/trimesh
v 0.00866273 0.34712446 0.60279097
v 0.00866880 0.35710800 0.60636281
v 0.00870806 0.36679809 0.64113328
v -0.12981793 0.36735390 0.64180215
v -0.12981450 0.35717335 0.60683708
v 0.00865330 0.36530723 0.63169829
v -0.12978090 0.36604566 0.64134422
v -0.02592044 0.35706680 0.60643922
v 0.00866176 0.36754421 0.64139610
v -0.12981124 0.34704024 0.60378466
f 1 2 3
f 6 3 2
f 6 5 4
f 6 2 5
f 7 1 3
f 8 5 2
f 8 2 1
f 8 1 5
f 9 6 4
f 9 3 6
f 9 7 3
f 9 4 7
f 10 5 1
f 10 1 7
f 10 7 4
f 10 4 5

