# https://github.com/mikedh/trimesh
v -0.80373806 -0.36897966 0.52863412
v -0.80425261 -0.36905864 0.51072831
v -0.82984450 -0.33676501 0.51159695
v -0.84542799 -0.33971063 0.52827446
v -0.86457212 -0.37468528 0.52777396
v -0.81980873 -0.34353249 0.53001656
v -0.86473447 -0.37476579 0.51046817
v -0.80573001 -0.35937852 0.52980049
v -0.86072713 -0.35458640 0.52825503
v -0.84534045 -0.34031535 0.51121622
v -0.80706056 -0.36042798 0.51334568
v -0.86041545 -0.35481639 0.51095601
v -0.82111480 -0.34458455 0.51306375
f 6 3 4
f 7 2 1
f 7 1 5
f 8 6 5
f 8 5 1
f 8 1 2
f 9 6 4
f 9 5 6
f 9 7 5
f 10 3 2
f 10 2 7
f 10 4 3
f 11 8 2
f 11 2 3
f 12 10 7
f 12 7 9
f 12 9 4
f 12 4 10
f 13 11 3
f 13 3 6
f 13 6 8
f 13 8 11

