# https://github.com/mikedh/trimesh
v 0.77256995 0.29859049 0.61533173
v 0.77692340 0.30184602 0.60832535
v 0.77221847 0.36648685 0.61844282
v 0.70097441 0.36365559 0.61485072
v 0.70129975 0.32521955 0.60775448
v 0.70130169 0.32089317 0.61635742
v 0.77498142 0.36335715 0.60681229
v 0.76319833 0.30637886 0.61782853
v 0.75304430 0.36535897 0.61936115
v 0.70101175 0.35770742 0.60572807
f 1 2 3
f 5 2 1
f 6 5 1
f 7 3 2
f 7 4 3
f 8 6 1
f 8 1 3
f 9 3 4
f 9 4 6
f 9 8 3
f 9 6 8
f 10 6 4
f 10 5 6
f 10 4 7
f 10 7 2
f 10 2 5

