# https://github.com/mikedh/trimesh
v -0.82312393 0.36553812 0.33756561
v -0.83106120 0.37434746 0.14793148
v -0.83080846 0.39728921 0.33762986
v -0.84876700 0.39551624 0.33673982
v -0.86439150 0.36790960 0.33777143
v -0.85032679 0.40120330 0.14659041
v -0.83671751 0.39902640 0.14692359
v -0.86216639 0.37432945 0.14733184
v -0.86215135 0.38849420 0.33679406
v -0.86427901 0.39154378 0.14643784
f 5 1 3
f 6 4 3
f 7 1 2
f 7 3 1
f 7 6 3
f 8 2 1
f 8 1 5
f 9 5 3
f 9 3 4
f 9 4 6
f 10 7 2
f 10 2 8
f 10 6 7
f 10 9 6
f 10 8 5
f 10 5 9

