# https://github.com/mikedh/trimesh
v -0.66632615 0.29565819 0.67160879
v -0.66635419 0.29565936 0.63960865
v -0.66632302 0.40678737 0.67136158
v -0.70093830 0.40678154 0.67130121
v -0.70096954 0.29565919 0.63957327
v -0.70105675 0.35909535 0.60461946
v -0.70094144 0.29565837 0.67155136
v -0.66642953 0.35872378 0.60476558
v -0.66633332 0.40581919 0.65222772
v -0.70127038 0.32498326 0.60720851
v -0.70094141 0.40589842 0.65265654
v -0.66683712 0.32595572 0.60747197
f 5 2 1
f 7 5 1
f 7 1 3
f 7 3 4
f 9 8 6
f 9 2 8
f 9 1 2
f 9 3 1
f 10 5 7
f 10 6 8
f 10 2 5
f 10 7 4
f 11 9 6
f 11 4 3
f 11 3 9
f 11 10 4
f 11 6 10
f 12 10 8
f 12 8 2
f 12 2 10

