# https://github.com/mikedh/trimesh
v 0.86905156 -0.39122070 0.67108489
v 0.89766682 -0.32707009 0.65565586
v 0.89954246 -0.32762018 0.67063179
v 0.87379613 -0.32749867 0.67225524
v 0.87379349 -0.32743028 0.65011297
v 0.88899854 -0.36984623 0.67082970
v 0.87022867 -0.39138446 0.65504821
v 0.88856640 -0.36895980 0.65469166
v 0.88117245 -0.38392584 0.66902203
v 0.87840911 -0.38475116 0.65492651
f 3 2 4
f 5 1 4
f 5 4 2
f 6 3 4
f 6 4 1
f 7 1 5
f 8 2 3
f 8 3 6
f 8 5 2
f 9 6 1
f 9 1 7
f 9 8 6
f 10 7 5
f 10 5 8
f 10 9 7
f 10 8 9

