# https://github.com/mikedh/trimesh
v 0.87395094 -0.29283170 0.64944638
v 0.89055545 -0.27551158 0.65281005
v 0.82212849 -0.29277904 0.67214657
v 0.82211230 -0.22362815 0.67208073
v 0.82218033 -0.22361821 0.60144738
v 0.82209597 -0.29316627 0.60035628
v 0.89054629 -0.22360347 0.65268302
v 0.83127178 -0.29280226 0.60513620
v 0.88643849 -0.22350435 0.65176255
v 0.83074390 -0.22363848 0.60449575
f 1 2 3
f 3 2 4
f 6 1 3
f 6 3 4
f 6 4 5
f 7 4 2
f 8 2 1
f 8 1 6
f 9 5 4
f 9 4 7
f 10 7 2
f 10 2 8
f 10 9 7
f 10 5 9
f 10 8 6
f 10 6 5

