# https://github.com/mikedh/trimesh
v 0.86098437 0.36064708 0.33729082
v 0.85610234 0.36598188 0.18184029
v 0.85073353 0.40052177 0.18114074
v 0.83259384 0.39664852 0.32034885
v 0.81891772 0.37178456 0.33858133
v 0.85355935 0.39445040 0.33734026
v 0.83063716 0.37218884 0.18271121
v 0.84950214 0.39651154 0.31956428
v 0.82236856 0.38660270 0.33727992
v 0.82392477 0.38564971 0.21619741
v 0.82494833 0.37585705 0.21784430
v 0.81914335 0.37305571 0.32105043
v 0.83456707 0.39649008 0.18192348
f 1 2 3
f 6 1 3
f 6 5 1
f 7 2 1
f 7 1 5
f 7 3 2
f 8 6 3
f 8 3 4
f 8 4 6
f 9 6 4
f 9 5 6
f 11 10 7
f 12 5 9
f 12 9 10
f 12 10 11
f 12 11 7
f 12 7 5
f 13 3 7
f 13 7 10
f 13 4 3
f 13 10 9
f 13 9 4

