# https://github.com/mikedh/trimesh
v 0.83060004 -0.39926769 0.45888517
v 0.84715859 -0.39614254 0.35432462
v 0.84579361 -0.39416734 0.45794359
v 0.83292534 -0.34066614 0.46026281
v 0.81786924 -0.37105528 0.35569100
v 0.85006407 -0.35314897 0.35542310
v 0.84556920 -0.34355287 0.45988197
v 0.83194996 -0.39786949 0.35496096
v 0.81714423 -0.38632290 0.45910375
v 0.83045320 -0.35405918 0.35592652
v 0.81992450 -0.38669101 0.35496698
v 0.83996364 -0.34598212 0.39108470
v 0.83185661 -0.39904590 0.42449322
v 0.81857288 -0.35456448 0.46016982
v 0.84541526 -0.34648008 0.40817973
v 0.83245902 -0.34820667 0.39199904
v 0.82410969 -0.35956945 0.37423778
f 1 2 3
f 6 3 2
f 7 1 3
f 7 4 1
f 7 3 6
f 11 6 2
f 11 10 6
f 11 5 10
f 11 2 8
f 11 9 5
f 11 8 1
f 11 1 9
f 12 4 7
f 12 6 10
f 13 8 2
f 13 2 1
f 13 1 8
f 14 9 1
f 14 1 4
f 14 5 9
f 15 12 7
f 15 7 6
f 15 6 12
f 16 12 10
f 16 4 12
f 16 14 4
f 16 10 14
f 17 14 10
f 17 10 5
f 17 5 14

