# https://github.com/mikedh/trimesh
v 0.77014057 0.29567197 0.67241302
v 0.77256995 0.29859049 0.61533173
v 0.77019465 0.40629743 0.67160883
v 0.70091134 0.40621388 0.67172683
v 0.70097209 0.29569069 0.63937863
v 0.77221847 0.36648685 0.61844282
v 0.70095986 0.29564999 0.67259850
v 0.70089929 0.40513678 0.65318287
v 0.70130169 0.32089317 0.61635742
v 0.77012675 0.40491828 0.65360873
v 0.70102603 0.36509602 0.61936395
f 1 2 3
f 5 2 1
f 6 3 2
f 7 1 3
f 7 3 4
f 7 5 1
f 8 4 3
f 8 7 4
f 8 5 7
f 9 6 2
f 9 2 5
f 10 8 3
f 10 3 6
f 10 6 8
f 11 8 6
f 11 6 9
f 11 9 5
f 11 5 8

