# https://github.com/mikedh/trimesh
v 0.85267149 0.35295485 0.33785299
v 0.85551857 0.36688696 0.16449890
v 0.86098437 0.36064708 0.33729082
v 0.82234925 0.36496653 0.33751791
v 0.82854751 0.35644566 0.33847905
v 0.83063716 0.37218884 0.18271121
v 0.84593451 0.36528466 0.16602590
v 0.85176906 0.36482438 0.16556679
v 0.84037616 0.36744837 0.16465768
v 0.83433591 0.36831159 0.18345981
f 1 2 3
f 5 1 3
f 5 3 4
f 6 3 2
f 6 4 3
f 6 5 4
f 7 1 5
f 8 2 1
f 8 1 7
f 9 6 2
f 9 8 7
f 9 2 8
f 9 7 5
f 10 9 5
f 10 5 6
f 10 6 9

