# https://github.com/mikedh/trimesh
v 0.87405052 -0.22360959 0.64898180
v 0.87052112 -0.22370465 0.64822880
v 0.82218283 -0.18900134 0.60150534
v 0.77029368 -0.18896788 0.63903488
v 0.77009679 -0.22356236 0.63892282
v 0.87400998 -0.18899529 0.64917193
v 0.83074390 -0.22363848 0.60449575
v 0.77026017 -0.22364371 0.63892089
v 0.80266598 -0.22668341 0.60731373
v 0.77005348 -0.18903102 0.63903844
v 0.83071245 -0.18900088 0.60452417
v 0.80403848 -0.18907635 0.60762852
f 6 5 1
f 8 2 1
f 8 1 5
f 9 3 7
f 9 8 5
f 9 2 8
f 9 7 1
f 9 1 2
f 10 6 4
f 10 5 6
f 10 9 5
f 11 6 1
f 11 1 7
f 11 7 3
f 11 3 4
f 11 4 6
f 12 10 4
f 12 4 3
f 12 3 9
f 12 9 10

