# https://github.com/mikedh/trimesh
v 0.87400900 0.12258964 0.67210140
v 0.87147871 0.12250534 0.64905358
v 0.87403326 0.29570689 0.67223575
v 0.82209818 0.29567819 0.67231230
v 0.82210666 0.12256823 0.67222416
v 0.82206498 0.29606584 0.60263763
v 0.82213302 0.12249463 0.67222398
v 0.87097088 0.29530785 0.64925576
v 0.84001801 0.29730896 0.61207905
v 0.82238429 0.12242606 0.60347968
v 0.83573156 0.12308136 0.60715507
f 1 2 3
f 5 1 3
f 5 3 4
f 6 5 4
f 7 2 1
f 7 1 5
f 8 3 2
f 9 6 4
f 9 4 3
f 9 3 8
f 9 8 2
f 10 2 7
f 10 7 5
f 10 5 6
f 11 9 2
f 11 2 10
f 11 10 6
f 11 6 9

