# https://github.com/mikedh/trimesh
v -0.80363746 0.29492962 0.60306386
v -0.81651296 0.38894839 0.52860243
v -0.81366743 0.39393240 0.61500126
v -0.84219566 0.29519605 0.61764046
v -0.84779573 0.34170643 0.52814871
v -0.81876179 0.34338292 0.52973602
v -0.83895303 0.29537066 0.60827674
v -0.85857719 0.38497425 0.61446533
v -0.86316145 0.35558586 0.52822585
v -0.85883057 0.38473648 0.52790156
v -0.85844323 0.34448424 0.61571932
f 1 2 3
f 4 1 3
f 6 5 2
f 6 2 1
f 6 1 5
f 7 5 1
f 7 1 4
f 8 4 3
f 9 7 4
f 9 5 7
f 10 8 3
f 10 3 2
f 10 9 8
f 10 2 5
f 10 5 9
f 11 9 4
f 11 4 8
f 11 8 9

