# https://github.com/mikedh/trimesh
v -0.82819458 -0.39852986 0.52793687
v -0.81795036 -0.38201446 0.35482048
v -0.81536048 -0.38465914 0.52745089
v -0.86457212 -0.37468528 0.52777396
v -0.86253862 -0.38618578 0.35412396
v -0.83128579 -0.39701975 0.35535878
v -0.85876518 -0.38293847 0.52790815
v -0.86727753 -0.37681609 0.35467818
v -0.84773837 -0.39512640 0.35370127
v -0.84632027 -0.39332742 0.45817605
v -0.83474941 -0.39668222 0.52748521
f 1 3 4
f 3 2 4
f 6 2 3
f 6 3 1
f 7 1 4
f 7 4 5
f 8 5 4
f 8 4 2
f 8 2 5
f 9 5 2
f 9 2 6
f 9 6 1
f 10 7 5
f 10 5 9
f 11 10 9
f 11 9 1
f 11 1 7
f 11 7 10

