# https://github.com/mikedh/trimesh
v -0.81569257 -0.38441531 0.51046247
v -0.81795036 -0.38201446 0.35482048
v -0.82984450 -0.33676501 0.51159695
v -0.83042173 -0.35354771 0.35591942
v -0.86727753 -0.37681609 0.35467818
v -0.86473447 -0.37476579 0.51046817
v -0.84556372 -0.34679826 0.37323467
v -0.83669756 -0.34618339 0.37485108
v -0.85941572 -0.35980660 0.35549264
v -0.86041545 -0.35481639 0.51095601
v -0.84534045 -0.34031535 0.51121622
f 1 2 3
f 3 2 4
f 5 2 1
f 5 4 2
f 6 5 1
f 6 1 3
f 8 7 3
f 8 3 4
f 8 4 7
f 9 7 4
f 9 4 5
f 10 9 5
f 10 5 6
f 10 6 3
f 11 10 3
f 11 3 7
f 11 7 9
f 11 9 10

