# https://github.com/mikedh/trimesh
v 0.82208244 -0.32734208 0.67227019
v 0.82558996 -0.33309389 0.58070722
v 0.84217467 -0.22353373 0.62372372
v 0.77009679 -0.22356236 0.63892282
v 0.75995246 -0.30879413 0.62980935
v 0.82218033 -0.22361821 0.60144738
v 0.82211230 -0.22362815 0.67208073
v 0.77019516 -0.32742117 0.67227639
v 0.77065129 -0.32796240 0.60212825
v 0.80266598 -0.22668341 0.60731373
f 1 2 3
f 6 3 2
f 6 4 3
f 7 1 3
f 7 3 4
f 8 2 1
f 8 4 5
f 8 7 4
f 8 1 7
f 9 5 4
f 9 8 5
f 9 2 8
f 10 9 4
f 10 4 6
f 10 6 2
f 10 2 9

