# https://github.com/mikedh/trimesh
v -0.81615987 -0.39707136 0.61573595
v -0.81714521 -0.38704310 0.52867676
v -0.80311699 -0.32464577 0.59913694
v -0.86457212 -0.37468528 0.52777396
v -0.85621595 -0.34329438 0.61687573
v -0.82819458 -0.39852986 0.52793687
v -0.81980873 -0.34353249 0.53001656
v -0.85776191 -0.38352770 0.61418691
v -0.82407319 -0.39774131 0.54666630
v -0.84542799 -0.33971063 0.52827446
v -0.83526325 -0.39540648 0.61451468
v -0.85876518 -0.38293847 0.52790815
v -0.83474941 -0.39668222 0.52748521
v -0.86072713 -0.35458640 0.52825503
f 1 2 3
f 5 1 3
f 7 3 2
f 8 5 4
f 8 1 5
f 9 6 2
f 9 2 1
f 9 1 6
f 10 5 3
f 10 3 7
f 10 7 2
f 11 6 1
f 11 1 8
f 12 8 4
f 13 4 10
f 13 12 4
f 13 6 11
f 13 11 8
f 13 8 12
f 13 10 2
f 13 2 6
f 14 10 4
f 14 4 5
f 14 5 10

