# https://github.com/mikedh/trimesh
v -0.77015450 -0.22361195 0.67080799
v -0.77032700 -0.22376064 0.64051005
v -0.77022399 0.19182611 0.64006803
v -0.85665273 0.19178188 0.67077995
v -0.85669518 -0.22359007 0.67051065
v -0.77014829 0.19177813 0.67109827
v -0.80102364 -0.22675647 0.60881598
v -0.80373328 0.19231565 0.60749837
v -0.83840605 -0.22436532 0.61076788
v -0.83932053 0.19189349 0.60799597
f 1 2 3
f 6 1 3
f 6 5 1
f 6 4 5
f 7 2 1
f 7 1 5
f 7 3 2
f 8 6 3
f 8 4 6
f 8 3 7
f 9 7 5
f 10 8 7
f 10 7 9
f 10 4 8
f 10 9 5
f 10 5 4

