# https://github.com/mikedh/trimesh
v 0.14713635 0.34718170 0.60253489
v 0.14714194 0.35593223 0.60728884
v 0.14705971 0.36780684 0.64037854
v 0.09500120 0.36794297 0.64142480
v 0.09483431 0.35704186 0.60663302
v 0.09458547 0.36684052 0.64098761
v 0.14708173 0.36853631 0.64070083
v 0.09517539 0.34768423 0.60271489
v 0.09513382 0.36540866 0.63092887
v 0.14710632 0.36615520 0.63154903
f 5 2 1
f 6 1 3
f 7 3 1
f 7 6 3
f 7 4 6
f 8 6 5
f 8 5 1
f 8 1 6
f 9 6 4
f 9 5 6
f 9 4 7
f 10 2 5
f 10 9 7
f 10 5 9
f 10 7 1
f 10 1 2

