# https://github.com/mikedh/trimesh
v 0.87385573 0.07062854 0.67196591
v 0.87144004 0.07060366 0.64897785
v 0.87398154 0.12254307 0.64942350
v 0.82210666 0.12256823 0.67222416
v 0.82209004 0.07063053 0.67207915
v 0.82238429 0.12242606 0.60347968
v 0.87400900 0.12258964 0.67210140
v 0.83153578 0.07067882 0.60426356
v 0.83343908 0.12258766 0.60540604
v 0.82256268 0.07060040 0.60282771
f 1 2 3
f 5 2 1
f 5 1 4
f 6 5 4
f 7 1 3
f 7 4 1
f 8 3 2
f 9 6 4
f 9 8 6
f 9 3 8
f 9 7 3
f 9 4 7
f 10 8 2
f 10 2 5
f 10 5 6
f 10 6 8

