# https://github.com/mikedh/trimesh
v 0.01052617 0.00633533 0.49405188
v 0.01035992 0.00445875 -0.49916569
v 0.01050902 0.02570586 0.45745662
v -1.09155595 0.02496034 0.49352106
v -1.09112530 0.00449025 0.47796874
v -1.08978283 0.02419188 -0.49749139
v 0.01051288 0.02515564 0.49192357
v -1.09106922 0.00526148 0.49310640
v 0.01038979 0.02246759 -0.49906480
v -1.09047854 0.00504937 -0.49776679
f 5 2 1
f 6 4 3
f 7 1 3
f 7 3 4
f 7 4 1
f 8 5 1
f 8 1 4
f 8 4 5
f 9 6 3
f 9 1 2
f 9 3 1
f 10 5 4
f 10 4 6
f 10 2 5
f 10 9 2
f 10 6 9

