{"scene":0,"scenes":[{"nodes":[0]}],"asset":{"version":"2.0","generator":"https://github.com/mikedh/trimesh"},"accessors":[{"componentType":5125,"type":"SCALAR","bufferView":0,"count":18858,"max":[18646],"min":[0]},{"componentType":5126,"type":"VEC3","byteOffset":0,"bufferView":1,"count":18647,"max":[1.0941643714904785,0.5,0.0],"min":[-1.0941643714904785,-0.5,-0.027877995744347572]},{"componentType":5126,"type":"VEC2","byteOffset":0,"bufferView":3,"count":18647,"max":[0.9995996952056885,0.999524712562561],"min":[0.00040032024844549596,0.00047528743743896484]}],"meshes":[{"name":"geometry_0.001","extras":{"units":"meters","from_gltf_primitive":false,"name":"geometry_0.001","node":"geometry_0.002"},"primitives":[{"attributes":{"POSITION":1,"TEXCOORD_0":2},"indices":0,"mode":4,"material":0}]}],"images":[{"bufferView":2,"mimeType":"image/png"}],"textures":[{"source":0}],"materials":[{"pbrMetallicRoughness":{"baseColorTexture":{"index":0}},"name":"Material_0.001","doubleSided":false}],"nodes":[{"name":"world","children":[1]},{"name":"geometry_0.001","mesh":0}],"buffers":[{"uri":"gltf_buffer_0.bin","byteLength":75432},{"uri":"gltf_buffer_1.bin","byteLength":223764},{"uri":"gltf_buffer_2.bin","byteLength":1013448},{"uri":"gltf_buffer_3.bin","byteLength":149176}],"bufferViews":[{"buffer":0,"byteOffset":0,"byteLength":75432},{"buffer":1,"byteOffset":0,"byteLength":223764},{"buffer":2,"byteOffset":0,"byteLength":1013448},{"buffer":3,"byteOffset":0,"byteLength":149176}]}