# https://github.com/mikedh/trimesh
v 0.40369076 0.00130131 0.27465773
v 0.40295950 0.00206277 -0.27449590
v 0.40375243 0.01467594 0.27359808
v -0.40311754 0.01389791 0.27438125
v -0.40340576 0.00163519 -0.27456567
v 0.40333787 0.01420784 0.27466220
v 0.40313180 0.01354061 -0.27296824
v -0.40366313 0.00122618 0.27230236
v -0.40339244 0.01278811 -0.27358224
v -0.40329981 0.00148702 0.27405113
f 5 2 1
f 6 1 3
f 6 3 4
f 6 4 1
f 7 1 2
f 7 3 1
f 8 5 1
f 9 7 2
f 9 2 5
f 9 4 3
f 9 3 7
f 9 8 4
f 9 5 8
f 10 8 1
f 10 1 4
f 10 4 8

