{"scene":0,"scenes":[{"nodes":[0]}],"asset":{"version":"2.0","generator":"https://github.com/mikedh/trimesh"},"accessors":[{"componentType":5125,"type":"SCALAR","bufferView":0,"count":28344,"max":[28078],"min":[0]},{"componentType":5126,"type":"VEC3","byteOffset":0,"bufferView":1,"count":28079,"max":[0.4049578607082367,0.2750000059604645,0.0],"min":[-0.4049578607082367,-0.2750000059604645,-0.01551927998661995]},{"componentType":5126,"type":"VEC2","byteOffset":0,"bufferView":3,"count":28079,"max":[0.9996347427368164,0.9993531703948975],"min":[0.0003652301093097776,0.0006468296051025391]}],"meshes":[{"name":"geometry_0.001","extras":{"units":"meters","from_gltf_primitive":false,"name":"geometry_0.001","node":"geometry_0.001"},"primitives":[{"attributes":{"POSITION":1,"TEXCOORD_0":2},"indices":0,"mode":4,"material":0}]}],"images":[{"bufferView":2,"mimeType":"image/png"}],"textures":[{"source":0}],"materials":[{"pbrMetallicRoughness":{"baseColorTexture":{"index":0}},"name":"Material_0.001","doubleSided":false}],"nodes":[{"name":"world","children":[1]},{"name":"geometry_0.001","mesh":0}],"buffers":[{"uri":"gltf_buffer_0.bin","byteLength":113376},{"uri":"gltf_buffer_1.bin","byteLength":336948},{"uri":"gltf_buffer_2.bin","byteLength":905868},{"uri":"gltf_buffer_3.bin","byteLength":224632}],"bufferViews":[{"buffer":0,"byteOffset":0,"byteLength":113376},{"buffer":1,"byteOffset":0,"byteLength":336948},{"buffer":2,"byteOffset":0,"byteLength":905868},{"buffer":3,"byteOffset":0,"byteLength":224632}]}