# https://github.com/mikedh/trimesh
v 0.06560550 0.00059712 0.05759288
v 0.08412901 0.00068187 -0.01248504
v 0.08151379 0.03466056 0.02919694
v 0.04681148 0.03633873 0.05972227
v 0.04681141 0.00007684 -0.04009288
v 0.06586421 0.03479630 0.05751112
v 0.08130002 0.00071361 0.02891747
v 0.04681362 0.00008425 0.05972438
v 0.07393707 0.03380206 -0.03872453
v 0.07594395 0.02025486 0.04189552
v 0.07596521 0.03478823 0.04179998
v 0.08432228 0.00063386 0.01617184
v 0.08406405 0.03453773 -0.01260721
v 0.07418194 0.00082135 -0.03883790
v 0.04680418 0.03439313 -0.04002978
v 0.07115933 0.00073209 0.04996813
v 0.08420831 0.03470307 0.01862014
v 0.06814149 0.03481500 0.05472716
v 0.08122671 0.00065429 -0.02275013
v 0.08418120 0.02835609 0.01866469
v 0.08140219 0.03398750 -0.02272614
v 0.07606394 0.00173830 -0.03574794
v 0.07595601 0.02828349 -0.03570845
f 6 4 1
f 8 1 4
f 10 7 3
f 11 10 3
f 12 7 1
f 12 1 8
f 12 8 5
f 12 5 2
f 13 12 2
f 15 13 9
f 15 4 13
f 15 8 4
f 15 5 8
f 15 14 5
f 15 9 14
f 16 1 7
f 16 7 10
f 16 10 11
f 17 11 3
f 17 4 11
f 17 13 4
f 17 12 13
f 18 11 4
f 18 4 6
f 18 16 11
f 18 6 1
f 18 1 16
f 19 2 5
f 19 5 14
f 20 17 3
f 20 3 7
f 20 7 12
f 20 12 17
f 21 13 2
f 21 2 19
f 21 9 13
f 22 21 19
f 22 19 14
f 23 22 14
f 23 14 9
f 23 9 21
f 23 21 22

