# https://github.com/mikedh/trimesh
v 0.01661948 0.12528542 0.01078804
v 0.05396525 0.14022499 -0.01032818
v 0.04222928 0.13421541 0.01078876
v 0.02985949 0.14068121 0.04242908
v 0.01713723 0.13893134 -0.02660415
v 0.05124370 0.14026468 0.01346775
v 0.02423686 0.12880953 0.01841905
v 0.03211960 0.12874839 -0.01280110
v 0.01713723 0.13893134 0.01925668
v 0.05121922 0.14027266 -0.02350422
v 0.05265616 0.13934856 0.00014838
v 0.04323459 0.14057461 0.02933621
v 0.02945875 0.12871880 0.01070963
v 0.01676857 0.12695741 0.01890313
v 0.01689929 0.12653762 -0.02637492
v 0.01657204 0.12539104 -0.02085099
v 0.04226765 0.13413664 -0.02069725
v 0.04761867 0.13692386 0.00808987
v 0.05393210 0.14027890 0.00027572
v 0.03215763 0.12866833 0.00015316
v 0.04492944 0.13697036 0.01564611
v 0.03704769 0.13438863 0.02098752
v 0.01921179 0.12580249 0.01071160
v 0.02694419 0.13607611 0.03665933
v 0.02687373 0.13909079 0.04185676
v 0.04905316 0.13955095 -0.02641834
v 0.02945509 0.12876645 -0.02074670
v 0.04763676 0.13674787 -0.01793146
v 0.05003232 0.13924322 0.01297300
v 0.03722525 0.13145087 0.00808383
v 0.02440279 0.12598250 -0.00749007
v 0.03952590 0.13706797 0.02582101
v 0.02663616 0.12887914 0.01568996
v 0.02175563 0.12587249 0.00554548
v 0.02929472 0.13686620 0.03644377
v 0.02751548 0.13994542 0.04286101
v 0.02699322 0.12895725 -0.02580766
v 0.03716941 0.13164202 -0.02068910
v 0.05000198 0.13922739 -0.02300868
v 0.05268653 0.13928763 -0.01020599
v 0.02171501 0.12590054 -0.01554667
v 0.02439821 0.12602892 -0.00250750
v 0.02909974 0.13971996 0.04140196
v 0.01915403 0.12593269 -0.02077775
v 0.03466002 0.13174429 -0.02570561
v 0.04487601 0.13686257 -0.02565944
v 0.04801480 0.13876714 -0.02590244
f 9 4 5
f 10 5 4
f 12 10 4
f 14 9 1
f 16 9 5
f 16 1 9
f 16 5 15
f 19 12 6
f 19 2 10
f 19 10 12
f 22 3 21
f 22 13 3
f 23 14 1
f 23 7 14
f 24 14 7
f 24 7 22
f 25 9 14
f 25 14 24
f 26 15 5
f 26 5 10
f 28 8 17
f 28 20 8
f 29 18 11
f 29 3 18
f 29 21 3
f 29 6 12
f 29 12 21
f 29 19 6
f 29 11 19
f 30 3 13
f 30 13 20
f 30 18 3
f 30 20 11
f 30 11 18
f 31 8 20
f 31 1 16
f 32 22 21
f 32 21 12
f 33 22 7
f 33 13 22
f 33 23 13
f 33 7 23
f 34 20 13
f 34 13 23
f 34 23 1
f 35 12 4
f 35 25 24
f 35 32 12
f 35 24 22
f 35 22 32
f 36 4 9
f 36 9 25
f 37 15 26
f 38 17 8
f 38 8 27
f 39 10 2
f 39 2 28
f 39 26 10
f 39 28 17
f 40 28 2
f 40 11 20
f 40 20 28
f 40 19 11
f 40 2 19
f 41 27 8
f 41 8 31
f 41 31 16
f 42 31 20
f 42 20 34
f 42 34 1
f 42 1 31
f 43 35 4
f 43 4 36
f 43 36 25
f 43 25 35
f 44 37 27
f 44 16 15
f 44 15 37
f 44 41 16
f 44 27 41
f 45 38 27
f 45 27 37
f 45 37 26
f 45 17 38
f 46 39 17
f 46 45 26
f 46 17 45
f 47 46 26
f 47 26 39
f 47 39 46

