# https://github.com/mikedh/trimesh
v 0.07307906 0.00035092 -0.03972119
v 0.07116954 0.00082366 -0.04388713
v 0.07286328 0.03402485 -0.03944099
v 0.03871946 0.03440054 -0.04002951
v 0.03871832 0.00007616 -0.04009246
v 0.03766752 0.03284245 -0.07300660
v 0.03791542 0.00100123 -0.07356240
v 0.05524429 0.03298765 -0.06146253
v 0.05439151 0.03362604 -0.06097275
v 0.05265163 0.00097754 -0.06424757
v 0.04504586 0.00075254 -0.06954770
v 0.06555131 0.03302375 -0.05109226
v 0.03874492 0.03367325 -0.06164612
v 0.03960393 0.03298870 -0.07194903
v 0.06570152 0.00073119 -0.05112928
v 0.03996541 0.00091971 -0.07245077
v 0.07092185 0.03363579 -0.04362792
v 0.05896256 0.03324029 -0.05755459
f 1 2 3
f 5 1 3
f 5 3 4
f 6 5 4
f 7 5 6
f 9 4 3
f 11 1 5
f 11 8 10
f 13 6 4
f 13 4 9
f 14 9 8
f 14 13 9
f 14 6 13
f 14 8 11
f 15 2 1
f 15 11 10
f 15 1 11
f 15 12 2
f 15 10 8
f 15 8 12
f 16 11 5
f 16 5 7
f 16 14 11
f 16 7 6
f 16 6 14
f 17 3 2
f 17 2 12
f 17 9 3
f 18 12 8
f 18 8 9
f 18 17 12
f 18 9 17

