# https://github.com/mikedh/trimesh
v 0.07656747 0.16730780 -0.02032874
v 0.08425627 0.19062280 -0.02070110
v 0.06839346 0.21986222 -0.01851106
v 0.07152573 0.23833080 -0.03058391
v 0.06976277 0.17064732 -0.04360127
v 0.08306131 0.21949923 -0.01831071
v 0.07592908 0.17811850 -0.03848399
v 0.06763258 0.23555478 -0.04228667
v 0.08155774 0.17765465 -0.01807191
v 0.07561462 0.17301033 -0.03339100
v 0.07856481 0.20089436 -0.04123161
v 0.07840235 0.21862924 -0.03608243
v 0.08468841 0.19056055 -0.01807603
v 0.08107921 0.18308158 -0.02816017
v 0.07938508 0.17245561 -0.01803804
v 0.07344569 0.17274168 -0.03850906
v 0.08421656 0.20851610 -0.02326096
v 0.07601530 0.18297840 -0.04118041
v 0.07556694 0.22656722 -0.03592136
v 0.07586687 0.21873719 -0.04105489
v 0.08120294 0.17774006 -0.02069926
v 0.08434563 0.21389049 -0.01793448
v 0.08125376 0.19334480 -0.03360873
v 0.07856486 0.17554708 -0.02820608
v 0.07335929 0.17548024 -0.04116176
v 0.08412587 0.19328019 -0.02325495
v 0.08124776 0.21378245 -0.03091417
v 0.07849994 0.19608574 -0.04115699
v 0.07835992 0.18308350 -0.03617645
v 0.07311648 0.23156382 -0.03606186
v 0.07421543 0.23478402 -0.02859939
v 0.07836074 0.22397266 -0.03083641
v 0.07848381 0.21378968 -0.03837938
v 0.07303223 0.22663320 -0.04100123
v 0.07855816 0.17281874 -0.02327673
v 0.08385315 0.21379367 -0.02053532
v 0.08140442 0.20849147 -0.03359453
v 0.07161287 0.17233269 -0.04165715
v 0.07857936 0.18798084 -0.03849764
v 0.07054270 0.23430177 -0.03833108
v 0.07357120 0.23447702 -0.03088279
v 0.07051714 0.23163301 -0.04101940
v 0.06862643 0.23467795 -0.04140725
f 5 1 3
f 6 4 3
f 8 5 3
f 8 3 4
f 11 5 8
f 15 3 1
f 15 9 13
f 16 10 1
f 16 1 5
f 16 7 10
f 20 11 8
f 21 13 9
f 21 2 13
f 21 14 2
f 21 9 15
f 22 6 3
f 22 15 13
f 22 3 15
f 22 13 17
f 24 10 7
f 24 14 21
f 24 1 10
f 25 7 16
f 25 18 7
f 25 5 18
f 26 17 13
f 26 13 2
f 26 2 14
f 26 14 23
f 28 18 5
f 28 5 11
f 28 11 23
f 29 7 18
f 29 24 7
f 29 14 24
f 31 4 6
f 32 12 19
f 32 27 12
f 32 6 27
f 32 31 6
f 32 19 31
f 33 20 12
f 33 11 20
f 34 19 12
f 34 12 20
f 34 20 8
f 34 30 19
f 35 21 15
f 35 15 1
f 35 24 21
f 35 1 24
f 36 22 17
f 36 6 22
f 36 27 6
f 36 17 27
f 37 23 11
f 37 26 23
f 37 17 26
f 37 27 17
f 37 11 33
f 37 33 12
f 37 12 27
f 38 25 16
f 38 16 5
f 38 5 25
f 39 23 14
f 39 14 29
f 39 28 23
f 39 29 18
f 39 18 28
f 40 8 4
f 40 4 30
f 41 30 4
f 41 4 31
f 41 31 19
f 41 19 30
f 42 34 8
f 42 40 30
f 42 30 34
f 43 42 8
f 43 8 40
f 43 40 42

