# https://github.com/mikedh/trimesh
v 0.01246653 0.16916687 0.07598791
v 0.01986145 0.18747411 0.07552110
v 0.01154074 0.20180559 0.08986983
v -0.01795445 0.20908898 0.07583838
v -0.01856689 0.17018299 0.07450249
v 0.02099581 0.20982120 0.07730006
v 0.01162096 0.18890488 0.08991482
v 0.01904019 0.20842541 0.07553544
v -0.00620979 0.20658188 0.08987078
v -0.00153968 0.18219890 0.08933233
v 0.02164530 0.20754299 0.07656942
v -0.01769408 0.20889107 0.07571018
v 0.01967785 0.18758317 0.07550409
v 0.00743926 0.20629988 0.08947929
v -0.01282792 0.19118299 0.08982368
v 0.00731629 0.18436234 0.08979784
v -0.01295974 0.19971964 0.08974284
v -0.00768490 0.18475232 0.08988375
v 0.00315661 0.18240689 0.08936683
v -0.00985722 0.20392042 0.08985153
v -0.01819324 0.18468002 0.07568883
v -0.01004558 0.18693460 0.08991009
v -0.00796223 0.20587936 0.08932271
f 7 1 2
f 8 4 6
f 9 6 4
f 9 7 3
f 10 5 1
f 11 6 3
f 11 3 7
f 11 7 2
f 11 8 6
f 11 2 8
f 12 8 5
f 12 5 4
f 12 4 8
f 13 8 2
f 13 5 8
f 13 2 1
f 13 1 5
f 14 9 3
f 14 3 6
f 14 6 9
f 16 1 7
f 17 5 15
f 18 5 10
f 18 10 16
f 18 16 7
f 19 16 10
f 19 10 1
f 19 1 16
f 20 17 15
f 20 4 17
f 21 17 4
f 21 4 5
f 21 5 17
f 22 15 5
f 22 5 18
f 22 20 15
f 22 9 20
f 22 18 7
f 22 7 9
f 23 20 9
f 23 9 4
f 23 4 20

