# https://github.com/mikedh/trimesh
v 0.03871880 0.01753502 0.06241982
v 0.03871880 0.01753502 0.04893134
v 0.03871869 0.03637909 0.06241973
v 0.00095699 0.03644886 0.06242083
v 0.00095106 0.01753502 0.04893134
v 0.02523023 0.03636881 0.04893164
v 0.00095106 0.01753502 0.06241982
v 0.03871849 0.03632160 0.04893198
v 0.02792321 0.03641286 0.05704071
v 0.00095106 0.03635462 0.04893203
v 0.00095129 0.03641316 0.05435590
v 0.02792105 0.03640825 0.06241433
v 0.03871857 0.03637398 0.05702458
f 1 2 3
f 1 3 4
f 5 2 1
f 6 2 5
f 7 5 1
f 7 1 4
f 8 3 2
f 8 2 6
f 9 8 6
f 10 6 5
f 10 5 7
f 11 9 6
f 11 4 9
f 11 6 10
f 11 10 7
f 11 7 4
f 12 9 4
f 12 4 3
f 12 3 9
f 13 9 3
f 13 3 8
f 13 8 9

