# https://github.com/mikedh/trimesh
v 0.01444120 0.03616928 0.02735335
v 0.01445631 0.03494670 -0.01573932
v 0.00627907 0.04726877 -0.00073475
v -0.00473247 0.04728770 0.00879037
v -0.01793609 0.03483896 -0.01576385
v 0.00459337 0.04726581 0.00890180
v 0.01463305 0.03594632 0.01124577
v 0.01439502 0.03493239 -0.01600997
v -0.01793250 0.03612144 0.02735256
v -0.00469900 0.04728502 -0.00285089
v 0.00618095 0.04726765 0.00671992
v -0.01792492 0.03483364 -0.01593278
v 0.00450549 0.04724396 -0.00289664
v -0.01796344 0.03571255 0.00285905
f 7 1 2
f 7 2 3
f 7 3 1
f 8 2 1
f 8 3 2
f 9 6 4
f 9 1 6
f 10 4 3
f 10 9 4
f 11 6 1
f 11 1 3
f 11 3 4
f 11 4 6
f 12 10 8
f 12 5 10
f 12 8 1
f 12 9 5
f 12 1 9
f 13 10 3
f 13 3 8
f 13 8 10
f 14 10 5
f 14 5 9
f 14 9 10

