# https://github.com/mikedh/trimesh
v -0.03686211 0.13884885 -0.04283085
v -0.03548269 0.15193592 -0.06208763
v -0.03561217 0.26086937 -0.04674241
v -0.03671952 0.26285266 -0.04269971
v -0.07778176 0.19314482 -0.04174816
v -0.03563308 0.14375305 -0.05218428
v -0.04621698 0.25800236 -0.04152125
v -0.03578304 0.21390934 -0.08074369
v -0.03547966 0.25526078 -0.05446613
v -0.03601276 0.14074532 -0.04719044
v -0.06333480 0.16037752 -0.04360180
v -0.05390809 0.14919654 -0.04145714
v -0.04104334 0.26094585 -0.04170060
v -0.04568515 0.25711298 -0.04373355
v -0.03546553 0.22939525 -0.07533704
v -0.05066964 0.18550035 -0.07204040
v -0.05888036 0.24736412 -0.04138363
v -0.07214532 0.17251001 -0.04151070
v -0.04579966 0.14456256 -0.04390912
v -0.05051488 0.15794171 -0.05649718
v -0.04119187 0.14077609 -0.04189255
v -0.04062406 0.26018292 -0.04358517
v -0.04031071 0.25697184 -0.04850928
v -0.03559650 0.18533037 -0.08074865
v -0.06359216 0.21888490 -0.05881833
v -0.05620361 0.25002602 -0.04138081
v -0.05052633 0.23657214 -0.06126134
v -0.06413512 0.15974206 -0.04138956
v -0.06347212 0.18040503 -0.05880422
v -0.06701473 0.23727530 -0.04151160
v -0.03807695 0.14159061 -0.04671312
v -0.05314563 0.15791173 -0.05379612
v -0.04288506 0.14751709 -0.05128407
v -0.04784078 0.16803557 -0.06664350
v -0.04633564 0.14369283 -0.04167953
v -0.04043536 0.19838408 -0.08000272
v -0.05555441 0.21886507 -0.06667930
v -0.05559052 0.24941656 -0.04326638
v -0.03546055 0.24219063 -0.06742063
v -0.04267728 0.24924524 -0.05635727
v -0.06857026 0.16801734 -0.04362132
v -0.07396402 0.18319998 -0.04601179
v -0.06638998 0.19581568 -0.05909824
v -0.07773292 0.20622130 -0.04175790
v -0.05815959 0.23392457 -0.05644102
v -0.04072757 0.14160758 -0.04405048
v -0.05324407 0.15000122 -0.04366095
v -0.03756640 0.15267485 -0.06153581
v -0.04793876 0.14747558 -0.04624486
v -0.03775648 0.14457214 -0.05154527
v -0.03562929 0.16196340 -0.07024778
v -0.04030400 0.18059330 -0.07714030
v -0.05299859 0.17547906 -0.06693613
v -0.04832132 0.19067805 -0.07472577
v -0.04053634 0.21873502 -0.07713669
v -0.05034500 0.22876502 -0.06659746
v -0.03772609 0.25446114 -0.05385431
v -0.04534996 0.24164453 -0.06134619
v -0.04290373 0.24671126 -0.05878060
v -0.04537469 0.25182800 -0.05107865
v -0.06933596 0.16744366 -0.04152200
v -0.06063926 0.17037886 -0.05642963
v -0.07513514 0.18014520 -0.04175761
v -0.07120438 0.17542136 -0.04589467
f 1 3 4
f 9 6 2
f 9 3 6
f 10 6 3
f 10 3 1
f 13 1 4
f 21 1 13
f 22 4 3
f 22 13 4
f 22 14 7
f 22 7 13
f 23 3 9
f 23 22 3
f 23 14 22
f 24 15 2
f 24 8 15
f 26 12 7
f 28 11 12
f 28 17 18
f 28 26 17
f 28 12 26
f 30 18 17
f 31 6 10
f 31 10 1
f 33 31 19
f 35 7 12
f 35 21 13
f 35 13 7
f 36 8 24
f 38 26 7
f 38 7 14
f 38 17 26
f 39 9 2
f 39 2 15
f 41 11 28
f 43 16 29
f 43 25 37
f 43 42 5
f 43 29 42
f 44 5 18
f 44 18 30
f 44 30 25
f 44 43 5
f 44 25 43
f 45 25 30
f 45 37 25
f 45 30 17
f 45 17 38
f 46 19 31
f 46 35 19
f 46 21 35
f 46 31 1
f 46 1 21
f 47 12 11
f 47 11 32
f 48 33 20
f 48 2 6
f 48 6 33
f 48 20 34
f 49 32 20
f 49 20 33
f 49 47 32
f 49 33 19
f 49 12 47
f 49 35 12
f 49 19 35
f 50 33 6
f 50 6 31
f 50 31 33
f 51 24 2
f 51 48 34
f 51 2 48
f 52 51 34
f 52 24 51
f 53 29 16
f 53 52 34
f 53 16 52
f 54 36 24
f 54 16 43
f 54 43 37
f 54 37 36
f 54 52 16
f 54 24 52
f 55 15 8
f 55 8 36
f 55 36 37
f 56 55 37
f 56 15 55
f 56 39 15
f 56 45 27
f 56 37 45
f 57 23 9
f 57 9 40
f 58 27 45
f 58 56 27
f 58 39 56
f 59 40 9
f 59 9 39
f 59 39 58
f 59 58 45
f 59 45 38
f 60 14 23
f 60 57 40
f 60 23 57
f 60 38 14
f 60 59 38
f 60 40 59
f 61 41 28
f 61 28 18
f 61 18 41
f 62 32 11
f 62 11 41
f 62 29 53
f 62 20 32
f 62 53 34
f 62 34 20
f 63 18 5
f 63 5 42
f 64 41 18
f 64 63 42
f 64 18 63
f 64 62 41
f 64 42 29
f 64 29 62

