# https://github.com/mikedh/trimesh
v -0.04152210 0.00073905 0.07746382
v -0.04221205 0.00009044 0.04353561
v -0.04221194 0.03620605 0.04353831
v -0.05496537 0.03635924 0.06709888
v -0.07570142 0.00059632 0.04273907
v -0.04116816 0.03495481 0.07917721
v -0.06387757 0.00062808 0.06002535
v -0.07571948 0.03518355 0.04266692
v -0.04159105 0.03614641 0.07730915
v -0.04108917 0.03387524 0.07914132
v -0.07165027 0.00058944 0.04980613
v -0.05086895 0.03510593 0.07304507
v -0.07454404 0.03527110 0.04469580
v -0.04226124 0.03636860 0.07057034
v -0.07464027 0.00062321 0.04480324
v -0.05181978 0.03559293 0.07171627
v -0.04390693 0.03574832 0.07696153
v -0.05620240 0.00070415 0.06787473
v -0.04564117 0.00091091 0.07536599
v -0.06620791 0.03510944 0.05747582
v -0.04759943 0.03636294 0.06512901
v -0.07174074 0.03513950 0.04978105
v -0.04302364 0.03500982 0.07821209
v -0.05437520 0.03589614 0.06896260
v -0.06624830 0.02297004 0.05730676
v -0.05300444 0.03635628 0.06516725
f 7 2 1
f 8 3 2
f 8 2 5
f 9 6 3
f 10 6 1
f 10 1 2
f 10 2 3
f 10 3 6
f 11 5 2
f 11 2 7
f 13 4 3
f 13 3 8
f 14 9 3
f 14 4 9
f 15 8 5
f 15 5 11
f 17 6 9
f 17 16 12
f 17 9 4
f 18 7 1
f 19 1 6
f 19 18 1
f 19 12 18
f 20 18 12
f 20 7 18
f 21 14 3
f 21 4 14
f 22 13 8
f 22 8 15
f 22 15 11
f 22 11 20
f 22 20 4
f 22 4 13
f 23 17 12
f 23 6 17
f 23 19 6
f 23 12 19
f 24 17 4
f 24 16 17
f 24 4 20
f 24 20 12
f 24 12 16
f 25 20 11
f 25 11 7
f 25 7 20
f 26 21 3
f 26 3 4
f 26 4 21

