# https://github.com/mikedh/trimesh
v 0.06147568 0.17207775 0.04759294
v 0.06678961 0.18519616 0.04765812
v 0.03973632 0.18029489 0.06964660
v 0.03502151 0.20871920 0.07364976
v 0.03602111 0.20907143 0.04893134
v 0.05771725 0.20105088 0.05959791
v 0.05229547 0.18307614 0.06189533
v 0.06408566 0.17736200 0.04753795
v 0.03602111 0.17130369 0.04893134
v 0.04744784 0.19060015 0.06724501
v 0.06769920 0.20897477 0.04832937
v 0.04712406 0.17300205 0.06188081
v 0.06038536 0.19569663 0.05693077
v 0.05485544 0.17551309 0.05660544
v 0.03519654 0.17206056 0.06888294
v 0.04737736 0.20853429 0.06716979
v 0.03740630 0.19045794 0.07269769
v 0.04968912 0.18556743 0.06469280
v 0.06270221 0.18319234 0.05173644
v 0.06287376 0.20337738 0.05445417
v 0.05720451 0.17539378 0.05417280
v 0.05256696 0.17282933 0.05719226
v 0.03499099 0.17739821 0.07103434
v 0.03940936 0.17279236 0.06698592
v 0.04240629 0.18809575 0.06996651
v 0.03724690 0.20862154 0.07267265
v 0.06554376 0.18551689 0.04924443
v 0.06037752 0.20611914 0.05686274
v 0.06280258 0.19841952 0.05441825
v 0.06030819 0.17267137 0.04926424
v 0.06286873 0.17786303 0.04918251
v 0.03554398 0.19029442 0.07337054
v 0.03721267 0.17778630 0.07009560
v 0.05768720 0.20342216 0.05956849
v 0.06637920 0.20879312 0.04988063
f 8 5 2
f 8 1 5
f 9 5 1
f 11 5 4
f 11 2 5
f 13 6 10
f 14 7 12
f 15 9 1
f 16 10 6
f 16 11 4
f 18 13 10
f 18 7 13
f 18 12 7
f 18 3 12
f 19 13 7
f 19 7 14
f 19 8 2
f 20 6 13
f 21 19 14
f 22 14 12
f 22 21 14
f 22 15 1
f 22 12 15
f 23 4 5
f 23 5 9
f 23 9 15
f 23 3 17
f 24 15 12
f 24 12 3
f 25 17 3
f 25 10 17
f 25 18 10
f 25 3 18
f 26 16 4
f 26 4 17
f 26 17 10
f 26 10 16
f 27 19 2
f 27 13 19
f 28 6 20
f 29 20 13
f 29 2 11
f 29 11 20
f 29 27 2
f 29 13 27
f 30 1 8
f 30 22 1
f 30 21 22
f 31 8 19
f 31 19 21
f 31 30 8
f 31 21 30
f 32 23 17
f 32 17 4
f 32 4 23
f 33 23 15
f 33 15 24
f 33 24 3
f 33 3 23
f 34 28 16
f 34 16 6
f 34 6 28
f 35 28 20
f 35 20 11
f 35 11 16
f 35 16 28

