# https://github.com/mikedh/trimesh
v 0.04546993 0.20873757 0.06833094
v 0.04681189 0.20907143 0.04353594
v 0.04569573 0.25074581 0.04221532
v -0.01747545 0.26387674 0.04243882
v -0.04221208 0.20907143 0.04353594
v 0.01376059 0.23681191 0.06994500
v -0.02958053 0.20818255 0.07570671
v 0.04273112 0.25284363 0.04207941
v 0.03674032 0.23642054 0.06174254
v 0.02918467 0.20841947 0.07603600
v -0.01971276 0.23430691 0.06997335
v -0.04142441 0.25353886 0.04258321
v 0.01378862 0.25981326 0.04911832
v 0.04454392 0.22874029 0.06174720
v 0.03941009 0.24403062 0.05403438
v 0.04249502 0.20864895 0.07008200
v -0.00930000 0.22593537 0.07550133
v 0.02930421 0.22913667 0.06966440
v -0.04097714 0.20876707 0.07100134
v -0.03835575 0.25558032 0.04213450
v 0.01935094 0.26359431 0.04229600
v -0.00434397 0.24184679 0.06746451
v 0.03936054 0.24920027 0.04887537
v 0.02391284 0.24419212 0.06193282
v 0.04453547 0.23656077 0.05685373
v 0.04198150 0.22130529 0.06705605
v 0.01118963 0.22607712 0.07536065
v -0.02484256 0.22648657 0.07238028
v 0.03171018 0.23634971 0.06450098
v -0.02996145 0.24412447 0.05925562
v 0.00614091 0.26272688 0.04663084
v -0.02781323 0.26074495 0.04209501
v 0.01370908 0.24430061 0.06468203
v 0.01391999 0.23180917 0.07262544
v -0.01210339 0.23689114 0.07003429
v 0.04493194 0.24972706 0.04400932
v 0.02915050 0.25705750 0.04632092
v 0.04196856 0.23895270 0.05672539
v 0.04242403 0.21096707 0.06980299
v 0.04455210 0.22367042 0.06449837
v 0.03450858 0.21621887 0.07226906
v -0.01457387 0.23169390 0.07244260
v -0.01684093 0.22335566 0.07523407
v -0.03271640 0.21875679 0.07241056
v 0.03424950 0.24161786 0.05928631
v 0.01900853 0.23915480 0.06726903
v -0.03501820 0.25189371 0.04890746
v -0.01716096 0.25199378 0.05686827
v -0.03261579 0.23129589 0.06706816
v 0.00622793 0.24188588 0.06742551
v 0.01643447 0.25731101 0.05160492
v 0.01867596 0.22339365 0.07504821
v 0.04210613 0.25193225 0.04365159
v 0.02712445 0.26098734 0.04230717
v 0.04471994 0.21617708 0.06707004
v 0.03698291 0.22111579 0.06970259
v 0.02919070 0.24147316 0.06196536
v 0.03432919 0.25447833 0.04634091
v 0.02909318 0.23408305 0.06701932
v 0.02144549 0.23405054 0.06970809
v 0.01637138 0.24681885 0.06198192
v -0.03781553 0.25466787 0.04377335
v -0.04031010 0.23652071 0.05950168
v -0.02471690 0.25445025 0.05164816
f 1 2 3
f 7 5 2
f 8 3 2
f 8 2 5
f 10 7 2
f 14 1 3
f 16 10 2
f 16 2 1
f 17 7 10
f 19 12 5
f 19 5 7
f 20 8 5
f 20 5 12
f 25 14 3
f 25 9 14
f 27 17 10
f 29 14 9
f 31 21 4
f 31 13 21
f 32 4 21
f 32 21 8
f 32 8 20
f 34 17 27
f 35 34 22
f 35 17 34
f 36 23 15
f 36 25 3
f 38 9 25
f 38 36 15
f 38 25 36
f 39 16 1
f 39 10 16
f 40 1 14
f 40 18 26
f 40 29 18
f 40 14 29
f 41 10 39
f 42 11 28
f 42 35 11
f 42 17 35
f 43 7 17
f 43 42 28
f 43 17 42
f 44 19 7
f 44 43 28
f 44 7 43
f 45 29 9
f 45 15 23
f 45 38 15
f 45 9 38
f 46 33 6
f 48 31 4
f 48 22 31
f 48 35 22
f 48 30 11
f 48 11 35
f 49 28 11
f 49 11 30
f 49 44 28
f 50 6 33
f 50 34 6
f 50 22 34
f 50 31 22
f 51 13 31
f 51 50 33
f 51 31 50
f 51 24 37
f 51 21 13
f 52 34 27
f 52 41 18
f 52 27 10
f 52 10 41
f 53 23 36
f 53 36 3
f 53 3 8
f 54 8 21
f 54 51 37
f 54 21 51
f 55 39 1
f 55 26 39
f 55 40 26
f 55 1 40
f 56 26 18
f 56 18 41
f 56 41 39
f 56 39 26
f 57 45 24
f 57 29 45
f 57 24 46
f 58 37 24
f 58 24 45
f 58 45 23
f 58 23 53
f 58 53 8
f 58 54 37
f 58 8 54
f 59 18 29
f 59 57 46
f 59 29 57
f 60 59 46
f 60 18 59
f 60 52 18
f 60 34 52
f 60 46 6
f 60 6 34
f 61 46 24
f 61 33 46
f 61 51 33
f 61 24 51
f 62 20 12
f 62 12 47
f 62 47 32
f 62 32 20
f 63 47 12
f 63 30 47
f 63 49 30
f 63 12 19
f 63 19 44
f 63 44 49
f 64 48 4
f 64 4 32
f 64 32 47
f 64 47 30
f 64 30 48

