# https://github.com/mikedh/trimesh
v 0.04455182 0.16862566 -0.06918091
v 0.03954340 0.17300998 -0.07459474
v 0.04616889 0.22557367 -0.07124046
v 0.02253263 0.22255991 -0.06437189
v 0.02253263 0.17130369 -0.06437189
v 0.02193500 0.21125751 -0.08597387
v 0.03981102 0.19325536 -0.08002110
v 0.02211349 0.17205564 -0.08144566
v 0.02185771 0.22159157 -0.08319868
v 0.03985491 0.18030844 -0.07737754
v 0.03957148 0.20854859 -0.07993226
v 0.03444754 0.17272412 -0.07713030
v 0.02185718 0.18795380 -0.08612865
v 0.02668765 0.20603706 -0.08537236
v 0.03746769 0.22164566 -0.07770018
v 0.02687157 0.17265008 -0.08013113
v 0.03710521 0.17545794 -0.07704312
v 0.03219752 0.18786304 -0.08272090
v 0.02184557 0.17744918 -0.08347083
v 0.03467762 0.20341613 -0.08264295
v 0.03219332 0.21108619 -0.08270810
v 0.03200017 0.22142245 -0.08010091
v 0.03995639 0.21888445 -0.07742312
v 0.03449178 0.18048970 -0.07998203
v 0.03720892 0.18560671 -0.08015719
v 0.02440599 0.17763575 -0.08283382
v 0.03466124 0.19833580 -0.08269599
v 0.02413907 0.21111415 -0.08546359
v 0.02422491 0.22152554 -0.08259940
v 0.04042261 0.22189427 -0.07612901
v 0.03454884 0.21878635 -0.07989270
v 0.02946878 0.18283767 -0.08262505
v 0.02674615 0.19333448 -0.08533614
v 0.02942662 0.21631003 -0.08255183
v 0.02427616 0.18809170 -0.08550628
f 1 3 4
f 5 1 4
f 7 3 1
f 8 1 5
f 9 4 3
f 10 7 1
f 10 1 2
f 11 3 7
f 12 2 1
f 13 9 6
f 14 13 6
f 16 12 1
f 16 1 8
f 17 10 2
f 17 2 12
f 19 8 5
f 19 9 13
f 19 5 4
f 19 4 9
f 20 11 7
f 21 20 14
f 21 11 20
f 22 3 15
f 23 3 11
f 23 11 21
f 24 17 12
f 24 12 16
f 24 10 17
f 25 18 7
f 25 7 10
f 25 10 24
f 26 16 8
f 26 8 19
f 26 24 16
f 26 19 13
f 27 20 7
f 27 7 18
f 27 14 20
f 28 21 14
f 28 14 6
f 28 6 9
f 29 9 3
f 29 3 22
f 29 28 9
f 30 23 15
f 30 15 3
f 30 3 23
f 31 22 15
f 31 15 23
f 31 23 21
f 32 25 24
f 32 18 25
f 32 24 26
f 33 27 18
f 33 13 14
f 33 14 27
f 34 21 28
f 34 31 21
f 34 22 31
f 34 29 22
f 34 28 29
f 35 32 26
f 35 26 13
f 35 18 32
f 35 33 18
f 35 13 33

