# https://github.com/mikedh/trimesh
v 0.03871832 0.00007616 -0.04009246
v 0.03871899 0.00008895 -0.06167185
v 0.03871946 0.03440054 -0.04002951
v -0.04220176 0.03416922 -0.04002792
v -0.04221318 0.00007646 -0.06167399
v 0.03874492 0.03367325 -0.06164612
v -0.04221239 0.00007718 -0.04009260
v -0.04221060 0.03354663 -0.06167230
v 0.00095381 0.03369877 -0.06161752
v -0.04221813 0.03369100 -0.05620736
f 1 3 4
f 5 2 1
f 6 1 2
f 6 3 1
f 7 5 1
f 7 1 4
f 8 6 2
f 8 2 5
f 9 8 4
f 9 4 3
f 9 3 6
f 9 6 8
f 10 7 4
f 10 4 8
f 10 8 5
f 10 5 7

