# https://github.com/mikedh/trimesh
v -0.01793152 0.00007995 -0.06167443
v -0.01733187 0.00051714 -0.08109413
v -0.01793194 0.03361833 -0.06167172
v -0.04221060 0.03354663 -0.06167230
v -0.04221318 0.00007646 -0.06167399
v -0.01730827 0.03259924 -0.08056495
v -0.04047318 0.00058334 -0.07206996
v -0.01965032 0.03275041 -0.07990999
v -0.04129185 0.03299672 -0.07092136
v -0.02771258 0.00053911 -0.07774075
v -0.01973199 0.00054666 -0.08036698
v -0.02751864 0.03252464 -0.07734352
v -0.03819445 0.03291857 -0.07264445
f 5 2 1
f 5 1 3
f 5 3 4
f 6 1 2
f 6 3 1
f 8 4 3
f 8 3 6
f 8 6 2
f 9 7 5
f 9 5 4
f 9 4 8
f 10 2 5
f 10 5 7
f 11 8 2
f 11 2 10
f 12 11 10
f 12 8 11
f 13 9 8
f 13 8 12
f 13 7 9
f 13 12 10
f 13 10 7

