# https://github.com/mikedh/trimesh
v -0.02257499 0.12822041 0.01856682
v -0.02279387 0.12768644 -0.02610613
v -0.02332281 0.13894769 0.04352572
v -0.03850250 0.14069481 0.03453817
v -0.04850131 0.13672476 0.00281811
v -0.04979427 0.13973337 -0.02637376
v -0.02486424 0.13428106 0.03384536
v -0.02240593 0.13630670 0.03930331
v -0.03280446 0.12875480 -0.00253556
v -0.03525341 0.13422295 0.02351664
v -0.02688640 0.12949399 -0.02890683
v -0.02811546 0.14023959 0.04279790
v -0.05201735 0.14021423 0.01083922
v -0.02268844 0.13815567 0.04247118
v -0.02250830 0.13363541 0.03405197
v -0.04312354 0.13414013 -0.01808505
v -0.03756750 0.13978314 0.03374389
v -0.02506684 0.12886141 0.01836204
v -0.03529577 0.13148329 0.01314602
v -0.05186816 0.14041548 -0.02345365
v -0.02734996 0.13935650 0.04182798
v -0.04662937 0.14057050 0.02401996
v -0.03283033 0.12877793 -0.01018260
v -0.04048423 0.13436836 -0.02567961
v -0.03007015 0.12893647 0.01050716
v -0.03794156 0.13146524 0.00549650
v -0.03272233 0.13168579 0.01830560
v -0.04576910 0.13678576 0.01318789
v -0.04838692 0.13676213 -0.01552928
v -0.02489280 0.13694009 0.03895242
v -0.04554634 0.13966101 0.02333836
v -0.03012943 0.12877024 -0.02083579
v -0.04566227 0.13709858 -0.02563287
v -0.02736751 0.12899588 0.01575701
v -0.04316752 0.13405410 0.00548049
v -0.05076445 0.13914749 0.01042684
v -0.05063872 0.13932584 -0.02296305
v -0.04829674 0.13961408 0.01824469
v -0.03787195 0.13155455 -0.01809558
v -0.02738026 0.12890774 -0.02574220
v -0.04863964 0.13884831 -0.02585307
v -0.04923460 0.14035043 0.01880158
f 8 1 2
f 9 2 1
f 11 6 3
f 11 3 2
f 12 3 6
f 14 8 2
f 14 2 3
f 14 3 8
f 15 8 7
f 15 1 8
f 17 10 7
f 17 12 4
f 18 7 10
f 18 15 7
f 18 1 15
f 20 12 6
f 20 4 12
f 21 3 12
f 21 17 7
f 21 12 17
f 22 20 13
f 22 4 20
f 22 17 4
f 23 9 5
f 23 2 9
f 24 6 11
f 25 9 1
f 26 25 19
f 26 9 25
f 27 18 10
f 27 10 19
f 28 19 10
f 29 5 13
f 29 13 20
f 29 23 5
f 29 16 23
f 30 21 7
f 30 7 8
f 30 8 3
f 30 3 21
f 31 10 17
f 31 17 22
f 32 2 23
f 32 24 11
f 33 24 16
f 33 6 24
f 34 25 1
f 34 1 18
f 34 18 27
f 34 27 19
f 34 19 25
f 35 5 9
f 35 9 26
f 35 26 19
f 35 19 28
f 36 13 5
f 36 35 28
f 36 5 35
f 37 29 20
f 37 20 6
f 37 33 16
f 37 16 29
f 38 28 10
f 38 10 31
f 38 36 28
f 39 32 23
f 39 23 16
f 39 16 24
f 39 24 32
f 40 32 11
f 40 11 2
f 40 2 32
f 41 37 6
f 41 6 33
f 41 33 37
f 42 38 31
f 42 31 22
f 42 22 13
f 42 13 36
f 42 36 38

