# https://github.com/mikedh/trimesh
v 0.00416483 0.11748153 0.00868103
v 0.01689929 0.12653762 -0.02637492
v 0.01713723 0.13893134 0.01925668
v -0.02613995 0.13015253 0.02202730
v -0.02688640 0.12949399 -0.02890683
v 0.01676857 0.12695741 0.01890313
v -0.00121552 0.11741473 -0.00505748
v 0.01713723 0.13893134 -0.02660415
v 0.01364697 0.12611576 0.01855145
v 0.00610536 0.11737217 -0.00091670
v -0.01461791 0.12585074 -0.02587774
v -0.00436780 0.11730524 0.00850276
v 0.00588876 0.11740464 0.00657021
v 0.01647195 0.12579529 -0.02327140
v 0.00249609 0.11739926 -0.00456051
v -0.00483982 0.11748046 -0.00302736
v 0.01398281 0.12581845 -0.02596771
v -0.02263186 0.12596589 0.00556461
v -0.01442116 0.12618826 0.01841187
v 0.01632971 0.12617936 0.01584045
v -0.02279387 0.12768644 -0.02610613
v -0.02255534 0.12591511 -0.01549638
f 6 3 4
f 6 2 3
f 8 3 2
f 8 2 5
f 8 5 4
f 8 4 3
f 9 6 4
f 9 1 6
f 12 1 9
f 13 6 1
f 13 12 10
f 13 1 12
f 14 10 2
f 14 2 6
f 15 2 10
f 15 12 7
f 15 10 12
f 16 11 7
f 16 7 12
f 17 11 5
f 17 5 2
f 17 7 11
f 17 15 7
f 17 2 15
f 18 12 4
f 18 4 5
f 18 16 12
f 19 12 9
f 19 9 4
f 19 4 12
f 20 13 10
f 20 6 13
f 20 14 6
f 20 10 14
f 21 16 5
f 21 5 11
f 21 11 16
f 22 18 5
f 22 5 16
f 22 16 18

