# https://github.com/mikedh/trimesh
v 0.00097367 0.00048919 0.08869005
v 0.00095101 0.00009992 0.07051372
v 0.00095280 0.03645236 0.07051513
v -0.04159105 0.03614641 0.07730915
v -0.04221285 0.00009558 0.07051122
v 0.00094796 0.03550043 0.08869713
v -0.03536727 0.00086194 0.08085959
v -0.04221301 0.03636656 0.07051400
v 0.00095763 0.03641216 0.08675601
v -0.01971310 0.00066820 0.08624564
v -0.04053832 0.00087653 0.07822591
v -0.04224752 0.03641945 0.07322754
v -0.01483538 0.03598255 0.08697536
v -0.04116816 0.03495481 0.07917721
v -0.00697558 0.03619603 0.08766505
v -0.01997969 0.03523621 0.08653398
v -0.03080605 0.03602298 0.08233214
v -0.03060069 0.03491231 0.08378788
f 1 2 3
f 5 2 1
f 5 3 2
f 8 3 5
f 9 6 1
f 9 1 3
f 10 7 5
f 10 5 1
f 11 5 7
f 12 8 5
f 12 5 4
f 12 9 3
f 12 3 8
f 14 11 7
f 14 4 5
f 14 5 11
f 15 12 4
f 15 9 12
f 15 13 6
f 15 6 9
f 16 10 1
f 16 1 6
f 16 6 13
f 17 15 4
f 17 13 15
f 17 16 13
f 17 4 14
f 18 14 7
f 18 7 10
f 18 10 16
f 18 17 14
f 18 16 17

