# https://github.com/mikedh/trimesh
v 0.07514842 0.20892591 0.03747930
v 0.08519171 0.20874874 -0.01815288
v 0.08133132 0.22675684 0.00519656
v 0.06693375 0.23496271 0.03448297
v 0.06839346 0.20907143 -0.01851106
v 0.07871922 0.21871141 0.02591568
v 0.08148906 0.20857214 0.02361151
v 0.07279966 0.20961843 0.04114387
v 0.07152573 0.23833080 -0.03058391
v 0.07570058 0.23144848 0.02053235
v 0.07675968 0.20880776 0.03424473
v 0.08444494 0.20860990 0.01331958
v 0.06683120 0.23243702 0.03714636
v 0.07342910 0.21887246 0.03653010
v 0.08128540 0.22675624 -0.01269407
v 0.07790722 0.22338928 -0.03273902
v 0.08126431 0.22132188 0.01567946
v 0.07569499 0.23414002 0.01573398
v 0.07574629 0.21634686 0.03368311
v 0.08408716 0.21913428 0.00289528
v 0.07069842 0.22628541 0.03633102
v 0.08062285 0.21942025 -0.02896361
v 0.07857055 0.23159296 -0.01801913
v 0.07829454 0.22933310 0.01562898
v 0.08102726 0.21654053 0.02086603
v 0.07311124 0.23413129 0.02321625
v 0.08110658 0.21120804 0.02348273
v 0.07311652 0.22401035 0.03366556
v 0.08403829 0.21645759 0.00794263
v 0.08412781 0.21916729 -0.01030705
v 0.06796582 0.23427300 0.03360187
v 0.07596118 0.23167015 -0.02833663
v 0.08110460 0.22404393 -0.02045116
v 0.07601178 0.23434087 -0.02309084
v 0.07836330 0.23144365 0.01040393
v 0.08402863 0.21119250 0.01326939
v 0.07566997 0.22398419 0.02840475
v 0.06787649 0.23160422 0.03623449
v 0.07827811 0.22664897 -0.02812814
v 0.08434563 0.21389049 -0.01793448
v 0.07421543 0.23478402 -0.02859939
v 0.08140734 0.22145197 -0.02321486
v 0.08414544 0.21644962 -0.01543982
f 7 5 2
f 8 5 1
f 9 5 4
f 11 1 5
f 11 5 7
f 12 7 2
f 13 4 5
f 13 5 8
f 16 5 9
f 18 9 4
f 19 1 11
f 19 14 8
f 19 8 1
f 20 12 2
f 20 3 17
f 21 13 8
f 21 8 14
f 22 2 5
f 22 5 16
f 23 3 15
f 24 10 6
f 24 6 17
f 24 18 10
f 24 17 3
f 25 17 6
f 25 7 12
f 26 18 4
f 26 10 18
f 27 6 19
f 27 25 6
f 27 7 25
f 27 19 11
f 27 11 7
f 28 19 6
f 28 14 19
f 28 21 14
f 29 20 17
f 29 12 20
f 30 15 3
f 30 3 20
f 30 20 2
f 31 4 13
f 31 26 4
f 31 21 26
f 32 16 9
f 33 23 15
f 33 15 30
f 34 9 18
f 34 23 32
f 35 3 23
f 35 24 3
f 35 18 24
f 35 34 18
f 35 23 34
f 36 25 12
f 36 17 25
f 36 29 17
f 36 12 29
f 37 28 6
f 37 6 10
f 37 10 26
f 37 26 21
f 37 21 28
f 38 31 13
f 38 13 21
f 38 21 31
f 39 22 16
f 39 16 32
f 39 32 23
f 39 23 33
f 40 2 22
f 41 34 32
f 41 32 9
f 41 9 34
f 42 39 33
f 42 22 39
f 42 40 22
f 43 30 2
f 43 2 40
f 43 40 42
f 43 42 33
f 43 33 30

