# https://github.com/mikedh/trimesh
v 0.06888177 0.23484467 0.03147196
v 0.07684362 0.23480595 -0.01816335
v 0.06561443 0.24948629 0.01303280
v 0.04553313 0.26627023 0.01067507
v 0.04681189 0.23604839 -0.04279033
v 0.05759034 0.25746184 -0.02307297
v 0.05012291 0.25208844 0.03607384
v 0.07698637 0.23485032 0.00805062
v 0.06862643 0.23467795 -0.04140725
v 0.06307061 0.25485886 -0.00770404
v 0.04555892 0.25823365 -0.04165049
v 0.06284373 0.24670524 0.02586547
v 0.04681189 0.23604839 0.03814055
v 0.07335895 0.23699599 0.01826585
v 0.07148024 0.23473441 0.02624510
v 0.06789655 0.24448731 -0.02830032
v 0.07334551 0.24191657 -0.01265167
v 0.05255120 0.26243186 -0.01789935
v 0.05264706 0.26240202 0.00771959
v 0.06275046 0.23908638 0.03614156
v 0.04609873 0.25385966 0.03739664
v 0.04545297 0.25823079 0.03142322
v 0.07330223 0.24180497 0.00511295
v 0.06513401 0.24691701 0.02062635
v 0.07441527 0.23491609 0.01860186
v 0.07042544 0.23683574 0.02591901
v 0.07421543 0.23478402 -0.02859939
v 0.06534403 0.24980139 -0.02303279
v 0.06278652 0.24691515 -0.03602729
v 0.07326243 0.23912331 -0.02303341
v 0.04557249 0.26630374 -0.02064835
v 0.06298611 0.25475968 0.00007793
v 0.06259424 0.24165904 0.03333783
v 0.06470595 0.23530336 0.03748173
v 0.05269922 0.25962482 0.01824351
v 0.07345104 0.23925924 0.01303660
v 0.07588307 0.23694660 0.00784215
v 0.07030080 0.23686603 -0.03605881
v 0.07071628 0.24446464 -0.01796785
v 0.05497503 0.25443544 -0.03581501
v 0.06284188 0.24946674 -0.03070904
v 0.06006276 0.24658270 -0.04085345
v 0.07574533 0.23692066 -0.01800019
v 0.04533877 0.26327788 0.02095030
v 0.05014439 0.26230586 -0.02563472
v 0.05750842 0.25730951 0.01291471
v 0.05228552 0.25207873 0.03338291
v 0.06800941 0.23644703 0.03109825
v 0.04742615 0.26520298 0.01037742
v 0.05751536 0.25458729 0.02053099
v 0.07130033 0.23472893 -0.03641057
v 0.07314694 0.23688687 -0.02826891
v 0.06786293 0.24178916 -0.03337590
v 0.05754172 0.25483770 -0.03058216
v 0.04728175 0.25747345 -0.04105726
v 0.06786725 0.23649077 -0.04087999
v 0.04739025 0.26222750 0.02049841
v 0.04541742 0.26332028 -0.03101476
v 0.04760138 0.26516411 -0.02046636
v 0.04995475 0.25695050 0.02829721
v 0.05475432 0.25453614 0.02571930
v 0.05246993 0.25973784 -0.02827456
v 0.04977620 0.25978214 -0.03310686
v 0.04748907 0.25728615 0.03082284
f 11 9 5
f 13 9 1
f 13 5 9
f 15 1 9
f 15 9 2
f 15 2 8
f 17 8 2
f 18 10 6
f 19 10 18
f 22 11 5
f 22 5 13
f 22 13 21
f 22 21 7
f 23 17 10
f 25 15 8
f 26 1 15
f 26 24 12
f 26 14 24
f 26 25 14
f 26 15 25
f 28 6 10
f 31 19 18
f 31 4 19
f 32 10 19
f 32 23 10
f 32 3 23
f 33 7 20
f 34 13 1
f 34 21 13
f 34 20 7
f 34 7 21
f 36 25 8
f 36 14 25
f 36 23 3
f 36 24 14
f 36 3 24
f 37 8 17
f 37 17 23
f 37 36 8
f 37 23 36
f 39 28 10
f 39 10 17
f 39 30 16
f 39 16 28
f 41 28 16
f 41 16 29
f 42 9 11
f 42 40 29
f 43 17 2
f 43 2 27
f 43 27 30
f 43 39 17
f 43 30 39
f 44 4 31
f 44 11 22
f 45 18 6
f 46 32 19
f 46 3 32
f 46 19 35
f 47 33 12
f 47 7 33
f 48 33 20
f 48 1 26
f 48 26 12
f 48 12 33
f 48 34 1
f 48 20 34
f 49 35 19
f 49 19 4
f 50 12 24
f 50 46 35
f 50 24 3
f 50 3 46
f 51 38 27
f 51 9 38
f 51 27 2
f 51 2 9
f 52 30 27
f 52 27 38
f 52 38 16
f 52 16 30
f 53 38 29
f 53 29 16
f 53 16 38
f 54 6 28
f 54 28 41
f 54 41 29
f 54 29 40
f 55 42 11
f 55 40 42
f 56 38 9
f 56 9 42
f 56 42 29
f 56 29 38
f 57 4 44
f 57 49 4
f 57 35 49
f 58 44 31
f 58 11 44
f 58 31 45
f 59 45 31
f 59 31 18
f 59 18 45
f 60 7 47
f 60 35 57
f 61 47 12
f 61 12 50
f 61 60 47
f 61 50 35
f 61 35 60
f 62 45 6
f 62 6 54
f 63 55 11
f 63 11 58
f 63 58 45
f 63 45 62
f 63 40 55
f 63 62 54
f 63 54 40
f 64 22 7
f 64 7 60
f 64 44 22
f 64 60 57
f 64 57 44

