# https://github.com/mikedh/trimesh
v 0.04141650 0.23874609 -0.04279033
v 0.04046172 0.23777612 -0.06813085
v 0.03726962 0.26318994 -0.04144381
v -0.02270683 0.26869059 -0.04159197
v -0.03681668 0.23874609 -0.04279033
v 0.01109539 0.26003625 -0.05902621
v 0.04038314 0.26120758 -0.04183235
v -0.03057060 0.23732873 -0.07296380
v -0.03046071 0.26604416 -0.04161059
v 0.02944750 0.25463593 -0.05899039
v 0.00616231 0.27156566 -0.04170169
v -0.03577547 0.23743249 -0.07043855
v 0.01129684 0.23747501 -0.07827461
v -0.01454185 0.25197234 -0.06696943
v 0.02403956 0.26258202 -0.05129216
v 0.03952768 0.24933894 -0.05873877
v -0.03596228 0.26367778 -0.04176372
v 0.02194433 0.23750758 -0.07589357
v -0.00967732 0.23756322 -0.07849946
v 0.00877851 0.24709187 -0.07223194
v -0.01188817 0.26536786 -0.05143237
v -0.02982179 0.24939875 -0.06402958
v 0.02165802 0.25753074 -0.05912805
v 0.03685023 0.25711248 -0.05114815
v 0.02196841 0.26888869 -0.04162599
v 0.01370971 0.26508568 -0.05125825
v 0.03424689 0.24425299 -0.06676536
v -0.01969117 0.24438031 -0.07188350
v 0.00072948 0.26261329 -0.05692237
v -0.00948258 0.24715023 -0.07201940
v 0.01114864 0.23957691 -0.07714611
v -0.00694939 0.27151500 -0.04168408
v -0.02472732 0.26242491 -0.05119963
v -0.03266264 0.24175945 -0.06903016
v -0.03517508 0.25198022 -0.05866544
v 0.02667141 0.25971064 -0.05386328
v 0.01380662 0.25208433 -0.06711301
v 0.03677932 0.26231332 -0.04362160
v 0.03424142 0.25446705 -0.05654924
v 0.03961925 0.25723196 -0.04872540
v 0.01636534 0.26768385 -0.04613621
v 0.03945812 0.24672456 -0.06136246
v 0.02985092 0.23762808 -0.07320661
v -0.02273970 0.23748984 -0.07574068
v -0.02234703 0.24953958 -0.06704922
v -0.00954078 0.26018400 -0.05915158
v 0.00611567 0.27061331 -0.04358850
v -0.00956350 0.23960982 -0.07733627
v 0.01643136 0.24193409 -0.07451904
v -0.01456526 0.26804643 -0.04628176
v -0.00688363 0.27060382 -0.04354329
v -0.03017541 0.26514596 -0.04364856
v -0.03530760 0.23942178 -0.06936908
v -0.02232746 0.25738917 -0.05891699
v -0.03502707 0.25986677 -0.04864881
v 0.01378537 0.25468639 -0.06432618
v 0.02406677 0.24927963 -0.06680579
v 0.02654757 0.26501213 -0.04609387
v 0.02923147 0.26228248 -0.04863775
v 0.03992474 0.26041044 -0.04378849
v 0.02168341 0.26783949 -0.04370882
v 0.03981099 0.23944107 -0.06732042
v 0.02934310 0.23956114 -0.07223527
v -0.02737795 0.24458646 -0.06927176
f 5 1 3
f 7 1 2
f 7 3 1
f 8 2 1
f 9 5 3
f 9 3 4
f 12 8 1
f 12 1 5
f 16 7 2
f 17 12 5
f 17 5 9
f 18 2 8
f 18 8 13
f 19 13 8
f 26 23 6
f 26 15 23
f 29 26 6
f 30 29 20
f 30 28 14
f 31 13 19
f 31 18 13
f 32 4 3
f 32 25 11
f 32 3 25
f 35 12 17
f 35 22 34
f 36 23 15
f 36 10 23
f 37 29 6
f 37 20 29
f 38 3 7
f 39 24 16
f 39 10 36
f 39 27 10
f 39 16 27
f 40 7 16
f 40 16 24
f 40 24 38
f 41 15 26
f 41 11 25
f 42 27 16
f 42 16 2
f 43 2 18
f 44 19 8
f 45 14 28
f 46 21 29
f 46 30 14
f 46 29 30
f 47 26 29
f 47 41 26
f 47 11 41
f 48 30 20
f 48 28 30
f 48 44 28
f 48 19 44
f 48 31 19
f 48 20 31
f 49 31 20
f 49 18 31
f 49 20 37
f 50 4 32
f 50 33 4
f 50 21 33
f 51 29 21
f 51 50 32
f 51 21 50
f 51 47 29
f 51 32 11
f 51 11 47
f 52 9 4
f 52 4 33
f 52 17 9
f 53 34 8
f 53 8 12
f 53 35 34
f 53 12 35
f 54 35 33
f 54 22 35
f 54 45 22
f 54 14 45
f 54 46 14
f 54 33 21
f 54 21 46
f 55 35 17
f 55 33 35
f 55 52 33
f 55 17 52
f 56 37 6
f 56 6 23
f 56 23 37
f 57 37 23
f 57 23 10
f 57 10 27
f 57 49 37
f 58 25 3
f 58 3 38
f 59 36 15
f 59 58 38
f 59 15 58
f 59 38 24
f 59 39 36
f 59 24 39
f 60 40 38
f 60 38 7
f 60 7 40
f 61 41 25
f 61 15 41
f 61 58 15
f 61 25 58
f 62 42 2
f 62 2 27
f 62 27 42
f 63 27 2
f 63 2 43
f 63 57 27
f 63 43 18
f 63 18 49
f 63 49 57
f 64 28 44
f 64 45 28
f 64 34 22
f 64 22 45
f 64 44 8
f 64 8 34

