# https://github.com/mikedh/trimesh
v 0.02391902 0.16912031 -0.07946554
v 0.02509921 0.18524777 -0.08460751
v -0.01523512 0.18748987 -0.07516268
v 0.02185718 0.18795380 -0.08612865
v 0.00875607 0.17536069 -0.08544340
v 0.02181859 0.17512631 -0.08275069
v -0.01663810 0.16832281 -0.08104605
v 0.01902433 0.17275796 -0.08245272
v 0.01887294 0.18038774 -0.08518016
v -0.01505825 0.18767049 -0.08767577
v 0.02211349 0.17205564 -0.08144566
v 0.00879937 0.18799221 -0.08867489
v 0.02147882 0.18300443 -0.08520500
v -0.00931093 0.17535581 -0.08537790
v 0.00875492 0.18538574 -0.08818930
v -0.00955055 0.18799183 -0.08854222
v -0.01447524 0.17784821 -0.08542092
v 0.00611920 0.18794946 -0.08891725
v -0.01471862 0.17244887 -0.08325858
v -0.00950595 0.18537691 -0.08807914
f 1 2 3
f 3 2 4
f 6 2 1
f 7 5 1
f 7 1 3
f 8 1 5
f 8 5 6
f 9 6 5
f 10 7 3
f 11 8 6
f 11 6 1
f 11 1 8
f 13 4 2
f 13 2 6
f 13 6 9
f 14 5 7
f 15 9 5
f 15 13 9
f 15 12 4
f 15 4 13
f 16 10 3
f 16 3 4
f 16 4 12
f 17 7 10
f 18 15 5
f 18 5 14
f 18 16 12
f 18 12 15
f 19 17 14
f 19 14 7
f 19 7 17
f 20 14 17
f 20 18 14
f 20 16 18
f 20 17 10
f 20 10 16

