# https://github.com/mikedh/trimesh
v -0.04116478 0.14084073 0.03183123
v -0.04119187 0.14077609 -0.04189255
v -0.04059641 0.16729918 0.06288232
v -0.04099998 0.26886910 0.01068043
v -0.08506415 0.18808481 -0.01282151
v -0.04084608 0.26598298 -0.03099936
v -0.04091431 0.14657136 0.04218425
v -0.07164113 0.15742870 -0.01276128
v -0.07149186 0.21356436 0.04150901
v -0.04065612 0.25015290 0.04696972
v -0.07424358 0.23935551 -0.01793710
v -0.07370057 0.17538817 -0.04102555
v -0.05601738 0.14190722 -0.01283305
v -0.06874625 0.16260201 0.02577695
v -0.04081668 0.26584120 0.02092767
v -0.04097714 0.20876707 0.07100134
v -0.05339842 0.26269150 -0.01262439
v -0.08494666 0.21399690 0.00269038
v -0.07942334 0.17270060 -0.02070183
v -0.06336641 0.15519850 -0.03574075
v -0.07648773 0.21620100 -0.04102436
v -0.05310409 0.15025027 0.03360248
v -0.06345325 0.18546199 0.05179608
v -0.06113161 0.14704651 0.00787903
v -0.06601972 0.24439584 0.02318123
v -0.05301177 0.22628839 0.05664121
v -0.04111330 0.26896700 -0.02073833
v -0.06340315 0.24450720 -0.03846867
v -0.08216299 0.19083148 0.02101683
v -0.08193838 0.18274243 -0.02565918
v -0.06632865 0.16233191 -0.04118033
v -0.07152563 0.15975213 -0.02305079
v -0.05586288 0.14494520 -0.02829011
v -0.07680624 0.18543020 -0.04136420
v -0.08201585 0.21891578 -0.02306412
v -0.04790664 0.14475522 0.03103062
v -0.04789132 0.16296371 0.05411238
v -0.05567980 0.21355865 0.05956754
v -0.04302032 0.18813341 0.06978896
v -0.07141837 0.15758525 0.00532224
v -0.06359059 0.15248648 0.01821536
v -0.05342582 0.14187066 0.01309277
v -0.05335596 0.25445871 0.02841724
v -0.07660451 0.22891612 0.02076298
v -0.06868714 0.24721281 0.00788521
v -0.04104177 0.23471307 0.06038596
v -0.06584879 0.22885379 0.04118111
v -0.04574647 0.26791340 0.00003353
v -0.05069057 0.26264375 -0.02296081
v -0.07378761 0.23428177 -0.03080839
v -0.04104334 0.26094585 -0.04170060
v -0.08488754 0.19314727 0.01072985
v -0.07376499 0.18293408 0.03610263
v -0.08213356 0.17783388 -0.01552009
v -0.07389192 0.17038745 -0.03585370
v -0.04820129 0.14467154 -0.04114669
v -0.07660465 0.16794988 -0.02290624
v -0.06877591 0.16039376 -0.03353861
v -0.05325080 0.14213552 -0.02562658
v -0.06363938 0.14965635 -0.02065762
v -0.08211238 0.20604746 -0.03098978
v -0.07921798 0.18553769 -0.03595593
v -0.07128976 0.17028520 -0.04106127
v -0.08208634 0.22414100 -0.01264159
f 6 3 2
f 7 1 2
f 7 2 3
f 10 3 6
f 13 2 1
f 15 10 6
f 15 6 4
f 16 3 10
f 24 8 13
f 27 4 6
f 34 2 31
f 36 1 7
f 36 7 22
f 37 22 7
f 37 7 3
f 37 3 23
f 37 14 22
f 38 9 23
f 38 16 26
f 39 23 3
f 39 3 16
f 39 38 23
f 39 16 38
f 40 8 24
f 40 14 29
f 41 22 14
f 41 40 24
f 41 14 40
f 41 36 22
f 42 24 13
f 42 13 1
f 42 1 36
f 42 41 24
f 42 36 41
f 43 10 15
f 43 15 4
f 44 29 9
f 44 18 29
f 45 17 11
f 45 44 25
f 45 25 43
f 46 26 16
f 46 16 10
f 46 10 26
f 47 38 26
f 47 9 38
f 47 44 9
f 47 25 44
f 47 43 25
f 47 26 10
f 47 10 43
f 48 27 17
f 48 4 27
f 48 17 45
f 48 45 43
f 48 43 4
f 49 27 6
f 49 17 27
f 49 28 11
f 49 11 17
f 50 28 21
f 50 11 28
f 50 21 35
f 51 6 2
f 51 21 28
f 51 34 21
f 51 2 34
f 51 49 6
f 51 28 49
f 52 29 18
f 52 18 5
f 52 40 29
f 53 29 14
f 53 23 9
f 53 9 29
f 53 37 23
f 53 14 37
f 54 30 19
f 54 5 30
f 54 19 8
f 54 8 40
f 54 52 5
f 54 40 52
f 55 19 30
f 56 31 2
f 56 20 31
f 56 33 20
f 57 32 8
f 57 8 19
f 57 19 55
f 58 31 20
f 58 55 31
f 58 57 55
f 58 32 57
f 59 2 13
f 59 56 2
f 59 33 56
f 60 20 33
f 60 58 20
f 60 32 58
f 60 8 32
f 60 13 8
f 60 59 13
f 60 33 59
f 61 21 34
f 61 35 21
f 61 30 5
f 61 5 18
f 61 18 35
f 62 34 12
f 62 61 34
f 62 30 61
f 62 55 30
f 62 12 55
f 63 34 31
f 63 12 34
f 63 55 12
f 63 31 55
f 64 35 18
f 64 50 35
f 64 11 50
f 64 18 44
f 64 45 11
f 64 44 45

