# https://github.com/mikedh/trimesh
v 0.02443035 0.12829672 -0.02599883
v 0.04868175 0.14007452 -0.02889689
v 0.04801480 0.13876714 -0.02590244
v -0.04979427 0.13973337 -0.02637376
v -0.01486095 0.14037485 -0.05783383
v 0.04905316 0.13955095 -0.02641834
v -0.04863964 0.13884831 -0.02585307
v 0.03715065 0.13423898 -0.03093432
v -0.03854989 0.14067010 -0.04455404
v 0.04769859 0.13926868 -0.02834818
v -0.04943633 0.14028573 -0.02884512
v 0.03229485 0.13091285 -0.02590310
v 0.02206374 0.14049814 -0.05521616
v -0.00962877 0.12544126 -0.02603891
v 0.04204904 0.13974497 -0.03835991
v 0.04224386 0.13687757 -0.03083176
v 0.04304728 0.14074538 -0.03919746
v -0.03771816 0.13445638 -0.03091606
v -0.04834192 0.13941503 -0.02833358
v 0.02429208 0.12882787 -0.02848723
v -0.02534903 0.12825483 -0.02592179
v 0.00882792 0.12540608 -0.02604155
v 0.02405564 0.13441576 -0.04375779
v 0.03688983 0.13697270 -0.03853319
v 0.02725586 0.14055021 -0.05254305
v -0.04671227 0.14036175 -0.03404741
v 0.03208422 0.13148058 -0.02845723
v -0.03301504 0.13106853 -0.02588973
v -0.01449695 0.12875563 -0.03618048
v 0.01898757 0.12884122 -0.03348863
v 0.01137197 0.13403797 -0.04891480
v 0.03520968 0.14059065 -0.04725389
v 0.02407596 0.13706759 -0.04875577
v -0.03761181 0.13966436 -0.04365041
v -0.04559933 0.13950228 -0.03355689
v -0.03280852 0.13161629 -0.02845378
v -0.01981566 0.12886738 -0.03340088
v 0.00082918 0.12861647 -0.03871857
v 0.01410257 0.14018054 -0.05794943
v 0.01140353 0.13154300 -0.04399027
v 0.03456609 0.13710852 -0.04108537
v 0.02671361 0.13962404 -0.05142589
v 0.01898771 0.13432472 -0.04642500
v 0.03454282 0.13973825 -0.04623031
v -0.03085795 0.14028152 -0.05000400
v -0.02747622 0.13426239 -0.04129711
v -0.00959384 0.12601014 -0.02848860
v -0.02520793 0.12884098 -0.02847724
v -0.00948007 0.13397509 -0.04901847
v 0.01372938 0.12865295 -0.03625707
v 0.02154273 0.13954140 -0.05403539
v -0.02742955 0.13675815 -0.04649355
v -0.02246847 0.13156627 -0.03874907
v -0.00158407 0.12864877 -0.03873260
v 0.00878335 0.12596479 -0.02851904
v 0.00619395 0.13673844 -0.05426904
v 0.01377517 0.13934841 -0.05698504
v -0.03015373 0.13927166 -0.04890466
v -0.01978670 0.13442511 -0.04644598
v -0.00951165 0.13145214 -0.04400894
v -0.00426470 0.13670165 -0.05427926
v -0.01438559 0.13947364 -0.05680502
f 6 4 3
f 7 3 4
f 10 6 3
f 10 2 6
f 11 6 2
f 11 4 6
f 12 3 7
f 12 8 3
f 13 5 9
f 16 10 3
f 16 3 8
f 16 15 2
f 16 2 10
f 17 11 2
f 17 9 11
f 17 2 15
f 19 7 4
f 19 4 11
f 19 18 7
f 20 12 1
f 22 1 12
f 22 21 14
f 22 12 21
f 24 16 8
f 24 15 16
f 25 13 9
f 25 9 17
f 26 19 11
f 26 11 9
f 27 8 12
f 27 12 20
f 27 24 8
f 28 21 12
f 28 12 7
f 28 7 18
f 30 20 1
f 30 1 22
f 30 27 20
f 30 23 27
f 32 17 15
f 32 15 24
f 32 25 17
f 34 26 9
f 35 18 19
f 35 19 26
f 35 34 18
f 35 26 34
f 36 28 18
f 36 21 28
f 37 14 21
f 39 5 13
f 40 38 31
f 41 32 24
f 41 27 23
f 41 24 27
f 42 13 25
f 42 25 32
f 43 33 23
f 43 40 31
f 44 23 33
f 44 41 23
f 44 32 41
f 44 42 32
f 44 33 42
f 45 34 9
f 45 9 5
f 46 36 18
f 46 18 34
f 47 37 29
f 47 14 37
f 48 37 21
f 48 21 36
f 48 36 46
f 50 38 40
f 50 40 43
f 50 43 23
f 50 23 30
f 51 42 33
f 51 13 42
f 51 33 43
f 52 46 34
f 53 29 37
f 53 48 46
f 53 37 48
f 54 47 29
f 54 38 47
f 54 49 38
f 55 47 38
f 55 22 14
f 55 14 47
f 55 38 50
f 55 50 30
f 55 30 22
f 56 31 38
f 57 39 13
f 57 13 51
f 57 56 39
f 57 31 56
f 57 51 43
f 57 43 31
f 58 52 34
f 58 34 45
f 59 29 53
f 59 53 46
f 59 46 52
f 60 54 29
f 60 49 54
f 60 59 49
f 60 29 59
f 61 56 38
f 61 38 49
f 61 5 39
f 61 39 56
f 62 58 45
f 62 45 5
f 62 52 58
f 62 59 52
f 62 49 59
f 62 61 49
f 62 5 61

