# https://github.com/mikedh/trimesh
v 0.00095106 0.18748987 -0.06437189
v 0.00086492 0.18792893 -0.08917459
v 0.00095106 0.22255991 -0.06437189
v -0.01523512 0.22255991 -0.06437189
v -0.01523512 0.18748987 -0.06437189
v 0.00084548 0.22182747 -0.08611084
v -0.01505825 0.18767049 -0.08767577
v 0.00085922 0.21380886 -0.08823429
v -0.01497410 0.22209775 -0.08462588
v -0.01472346 0.20611880 -0.08814643
v -0.01197723 0.22142031 -0.08537929
v -0.00940661 0.21118717 -0.08825347
v -0.01484886 0.19309179 -0.08830701
v -0.00164889 0.21381672 -0.08820701
v -0.01477529 0.21912418 -0.08563206
v -0.01209578 0.18805557 -0.08819702
f 1 2 3
f 1 3 4
f 5 1 4
f 7 2 1
f 7 1 5
f 7 5 4
f 8 6 3
f 8 3 2
f 9 4 3
f 9 3 6
f 9 7 4
f 10 7 9
f 11 9 6
f 12 8 2
f 12 2 10
f 13 10 2
f 13 7 10
f 14 11 6
f 14 6 8
f 14 12 11
f 14 8 12
f 15 12 10
f 15 10 9
f 15 9 11
f 15 11 12
f 16 13 2
f 16 2 7
f 16 7 13

