# https://github.com/mikedh/trimesh
v 0.04809928 0.13667148 0.00329078
v 0.04535843 0.14344070 -0.04179669
v 0.05159696 0.24991023 -0.04712950
v -0.04221208 0.24414148 0.00307051
v -0.04454750 0.13462062 0.00345618
v 0.04681189 0.24414148 0.00307051
v 0.04255468 0.14158294 -0.04148185
v -0.04221208 0.24414148 -0.04279033
v 0.04513645 0.14174761 -0.03871303
v -0.04119187 0.14077609 -0.04189255
f 1 2 3
f 6 1 3
f 6 3 4
f 6 5 1
f 6 4 5
f 7 1 5
f 8 5 4
f 8 4 3
f 9 7 2
f 9 2 1
f 9 1 7
f 10 7 5
f 10 5 8
f 10 2 7
f 10 8 3
f 10 3 2

