# https://github.com/mikedh/trimesh
v 0.02509921 0.18524777 -0.08460751
v 0.02185718 0.18795380 -0.08612865
v 0.02420050 0.22478114 -0.08145699
v 0.00137887 0.22637309 -0.08444844
v 0.00095106 0.18748987 -0.07516268
v 0.01398055 0.20614553 -0.08829312
v 0.02179517 0.21378093 -0.08555727
v 0.00086492 0.18792893 -0.08917459
v 0.00878752 0.21117631 -0.08830781
v 0.01120264 0.22144174 -0.08544326
v 0.01127158 0.18805259 -0.08833244
v 0.00084548 0.22182747 -0.08611084
v 0.01637328 0.21884743 -0.08541106
v 0.01395899 0.19049478 -0.08822872
v 0.00085922 0.21380886 -0.08823429
v 0.02185771 0.22159157 -0.08319868
v 0.00352161 0.21382784 -0.08814929
f 5 1 3
f 5 3 4
f 7 1 2
f 7 3 1
f 7 2 6
f 8 1 5
f 9 7 6
f 9 6 8
f 10 4 3
f 11 2 1
f 11 1 8
f 12 8 5
f 12 5 4
f 12 4 10
f 13 10 3
f 13 7 9
f 13 9 10
f 14 11 8
f 14 8 6
f 14 6 2
f 14 2 11
f 15 9 8
f 15 8 12
f 16 13 3
f 16 3 7
f 16 7 13
f 17 15 12
f 17 12 10
f 17 10 9
f 17 9 15

