# https://github.com/mikedh/trimesh
v 0.04573837 0.14080580 0.02657392
v 0.07938508 0.17245561 -0.01803804
v 0.07418005 0.17231958 0.02626724
v 0.04681189 0.17130369 0.02734977
v 0.04681189 0.17130369 -0.04279033
v 0.07062211 0.15739873 0.00794547
v 0.04535843 0.14344070 -0.04179669
v 0.07161287 0.17233269 -0.04165715
v 0.07939489 0.17237371 0.00806980
v 0.06538537 0.15782032 0.02566389
v 0.05519413 0.14208514 -0.01790161
v 0.07417237 0.17241010 -0.03654811
v 0.07341626 0.15998283 -0.01015166
v 0.07561957 0.16756694 0.01560027
v 0.06012269 0.14715264 0.01295091
v 0.04562970 0.14091850 -0.03642149
v 0.06270413 0.15518946 -0.03605335
v 0.07598922 0.16523341 0.00790636
v 0.07315941 0.16278248 -0.02305007
v 0.07681580 0.17230004 0.01855147
v 0.06800294 0.15735546 0.01816090
v 0.07065173 0.16527892 0.02575535
v 0.05500547 0.14729459 0.02572377
v 0.05527203 0.14210925 0.00803956
v 0.06001345 0.15525817 -0.04097503
v 0.06769139 0.16282511 -0.03826768
v 0.05735296 0.14729407 -0.03093805
v 0.07339459 0.15999117 0.00012795
v 0.07842993 0.17016542 0.00790824
v 0.07600107 0.17009369 -0.02825175
v 0.07600146 0.16531944 -0.01791764
v 0.07335275 0.17001370 0.02585880
v 0.07327619 0.16255099 0.01291851
v 0.06535118 0.15250951 0.01289256
v 0.06005677 0.14981478 0.02083729
v 0.06302405 0.14965517 -0.02057388
v 0.05270842 0.14197081 0.01566187
v 0.07075982 0.17000833 -0.04119500
v 0.06786126 0.15750278 -0.02828992
v 0.05263358 0.14197674 -0.02566146
v 0.05510598 0.15013600 -0.04087276
v 0.07695101 0.17234742 -0.02856512
v 0.07301980 0.16759854 -0.03339231
v 0.07056788 0.15748295 -0.01779091
v 0.07838841 0.17021773 -0.01784923
v 0.07591912 0.16997956 0.01828449
v 0.07316428 0.16788191 0.02348107
v 0.06268674 0.15257672 0.02081157
v 0.05508113 0.14453527 0.01825985
v 0.05781760 0.14472374 -0.02056861
v 0.06791224 0.16537260 -0.04108393
v 0.06265695 0.15252810 -0.03065542
v 0.04739206 0.14191280 -0.03616071
v 0.05509149 0.14759190 -0.03607091
v 0.07323716 0.17019025 -0.03617183
v 0.06813007 0.15512376 -0.02051670
v 0.04753270 0.14177504 0.02604258
v 0.04993292 0.14486763 -0.03839932
v 0.04743490 0.14460740 -0.04121928
f 1 3 4
f 7 1 4
f 7 4 5
f 8 7 5
f 8 5 4
f 8 4 3
f 9 2 3
f 10 3 1
f 12 8 3
f 12 3 2
f 16 11 1
f 16 1 7
f 20 14 9
f 20 9 3
f 22 3 10
f 22 10 21
f 23 10 1
f 24 1 11
f 24 6 15
f 25 7 8
f 26 17 25
f 28 18 6
f 28 13 18
f 28 6 24
f 29 9 14
f 29 14 18
f 29 2 9
f 29 18 13
f 31 29 13
f 31 19 30
f 32 20 3
f 32 3 22
f 33 18 14
f 33 22 21
f 33 21 6
f 33 6 18
f 34 15 6
f 34 6 21
f 35 15 34
f 35 10 23
f 36 24 11
f 36 28 24
f 36 13 28
f 37 1 24
f 37 24 15
f 38 8 12
f 39 17 26
f 40 11 16
f 41 25 17
f 41 7 25
f 42 12 2
f 42 2 30
f 43 42 30
f 43 12 42
f 43 26 38
f 43 39 26
f 43 30 19
f 43 19 39
f 44 31 13
f 44 19 31
f 44 13 36
f 45 2 29
f 45 29 31
f 45 31 30
f 45 30 2
f 46 14 20
f 46 20 32
f 47 32 22
f 47 46 32
f 47 14 46
f 47 33 14
f 47 22 33
f 48 21 10
f 48 10 35
f 48 35 34
f 48 34 21
f 49 35 23
f 49 15 35
f 49 37 15
f 50 36 11
f 50 27 36
f 50 40 27
f 50 11 40
f 51 38 26
f 51 26 25
f 51 25 8
f 51 8 38
f 52 36 27
f 52 27 17
f 52 17 39
f 53 40 16
f 53 27 40
f 53 16 7
f 54 41 17
f 54 17 27
f 54 27 53
f 55 43 38
f 55 38 12
f 55 12 43
f 56 39 19
f 56 19 44
f 56 44 36
f 56 52 39
f 56 36 52
f 57 49 23
f 57 23 1
f 57 1 37
f 57 37 49
f 58 53 7
f 58 54 53
f 58 41 54
f 59 58 7
f 59 7 41
f 59 41 58

