# https://github.com/mikedh/trimesh
v 0.00459337 0.04726581 0.00890180
v 0.00627907 0.04726877 -0.00073475
v 0.00588876 0.11740464 0.00657021
v -0.00331655 0.11724563 0.00908802
v -0.00685853 0.04731284 0.00108683
v 0.00416483 0.11748153 0.00868103
v 0.00618095 0.04726765 0.00671992
v -0.00690464 0.04724197 0.00498915
v -0.00121552 0.11741473 -0.00505748
v 0.00610536 0.11737217 -0.00091670
v -0.00469900 0.04728502 -0.00285089
v -0.00473247 0.04728770 0.00879037
v -0.00683663 0.11731569 0.00105032
v 0.00450549 0.04724396 -0.00289664
v 0.00462504 0.11740393 -0.00310712
v -0.00675037 0.11723012 0.00471826
v -0.00483982 0.11748046 -0.00302736
v 0.00028586 0.05263112 -0.00494500
v -0.00438626 0.11460792 0.00852866
v -0.00115850 0.05263609 -0.00486794
v 0.00261663 0.09038272 -0.00452079
v 0.00058733 0.11739052 -0.00506917
v 0.00262152 0.09577807 -0.00453592
f 6 1 3
f 6 4 1
f 7 3 1
f 10 7 2
f 10 3 7
f 10 6 3
f 11 8 5
f 12 8 1
f 12 1 4
f 13 5 8
f 14 7 1
f 14 1 8
f 14 2 7
f 14 8 11
f 15 6 10
f 15 10 2
f 15 2 14
f 16 8 12
f 16 13 8
f 16 4 13
f 17 13 4
f 17 4 6
f 17 11 5
f 17 5 13
f 17 15 9
f 17 6 15
f 18 14 11
f 19 16 12
f 19 12 4
f 19 4 16
f 20 17 9
f 20 11 17
f 20 18 11
f 20 9 18
f 21 15 14
f 21 14 18
f 22 18 9
f 22 9 15
f 23 22 15
f 23 15 21
f 23 21 18
f 23 18 22

