# https://github.com/mikedh/trimesh
v 0.00880343 0.12550858 0.01873623
v 0.03061638 0.13180834 0.02115542
v 0.00891177 0.14030448 0.05059765
v -0.02297571 0.14008774 0.04548761
v -0.02257499 0.12822041 0.01856682
v 0.02751548 0.13994542 0.04286101
v -0.00690590 0.13144525 0.03639703
v 0.02726132 0.12991865 0.01879255
v -0.02613995 0.13015253 0.02202730
v 0.02467765 0.14047063 0.04523056
v 0.00612046 0.13144516 0.03652916
v -0.00705343 0.14025303 0.05067462
v -0.00696098 0.12590292 0.02122050
v 0.02178536 0.12814217 0.01857690
v -0.02250830 0.13363541 0.03405197
v 0.01372648 0.13677584 0.04425034
v -0.01441461 0.13697705 0.04420975
v -0.01763030 0.14017710 0.04806944
v 0.01945296 0.14040726 0.04781674
v -0.00151892 0.13402612 0.04170656
v -0.00693756 0.12533411 0.01868014
v 0.01144695 0.12872139 0.02887539
v -0.01177391 0.12880569 0.02880052
v 0.02390627 0.13174321 0.02869618
v -0.01442475 0.13152135 0.03410466
v -0.01972476 0.13676790 0.04161718
v -0.01721413 0.13924265 0.04686349
v 0.00880592 0.13936107 0.04932924
v 0.02170065 0.13427397 0.03670679
v -0.00693486 0.13932339 0.04939812
v 0.00871805 0.12605132 0.02108999
v -0.01712639 0.12899465 0.02603276
v 0.02162039 0.12873808 0.02112452
v 0.02660984 0.13172723 0.02600448
v -0.02241043 0.13917344 0.04434030
v 0.00342602 0.13410985 0.04167415
v 0.02136530 0.13681430 0.04141205
v 0.01634438 0.12882704 0.02610189
v 0.01634674 0.13425636 0.03893759
v -0.02239413 0.12881006 0.02100043
v -0.02243664 0.13138017 0.02871294
v 0.02687373 0.13909079 0.04185676
v 0.01895854 0.13960507 0.04678934
v -0.01965744 0.13167635 0.03128862
f 6 2 4
f 8 5 2
f 9 4 2
f 9 2 5
f 10 6 4
f 13 11 7
f 14 5 8
f 15 4 9
f 18 12 10
f 18 10 4
f 19 12 3
f 19 10 12
f 20 7 11
f 20 17 7
f 21 13 5
f 21 1 13
f 21 14 1
f 21 5 14
f 22 11 13
f 23 13 7
f 25 7 17
f 25 23 7
f 26 25 17
f 26 15 25
f 27 12 18
f 27 26 17
f 27 18 4
f 28 19 3
f 28 16 19
f 28 3 12
f 30 17 20
f 30 27 17
f 30 12 27
f 30 28 12
f 30 20 28
f 31 22 13
f 31 13 1
f 31 1 14
f 32 5 13
f 32 13 23
f 32 23 25
f 33 14 8
f 34 8 2
f 34 29 24
f 34 33 8
f 34 24 33
f 35 4 15
f 35 15 26
f 35 27 4
f 35 26 27
f 36 28 20
f 36 20 11
f 36 11 16
f 36 16 28
f 37 10 19
f 37 6 10
f 38 29 22
f 38 24 29
f 38 33 24
f 38 22 31
f 38 31 14
f 38 14 33
f 39 16 11
f 39 11 22
f 39 22 29
f 39 37 16
f 39 29 37
f 40 32 9
f 40 9 5
f 40 5 32
f 41 15 9
f 41 9 32
f 42 34 2
f 42 2 6
f 42 29 34
f 42 37 29
f 42 6 37
f 43 37 19
f 43 19 16
f 43 16 37
f 44 41 32
f 44 32 25
f 44 25 15
f 44 15 41

