# https://github.com/mikedh/trimesh
v 0.01246653 0.16916687 0.07598791
v 0.03555940 0.18234344 0.07210590
v 0.03108411 0.18809431 0.07546808
v 0.02099581 0.20982120 0.07730006
v 0.01183930 0.18742830 0.07506337
v 0.03600000 0.20906400 0.07316292
v 0.01160115 0.17168217 0.07780383
v 0.02752384 0.17179621 0.07208336
v 0.02918467 0.20841947 0.07603600
v 0.01904019 0.20842541 0.07553544
v 0.01188767 0.17927840 0.07541090
v 0.01138492 0.18779942 0.07588132
v 0.02095805 0.17317415 0.07536300
v 0.03283098 0.17703950 0.07191075
v 0.03130468 0.20572714 0.07540208
v 0.02600242 0.17833181 0.07527156
v 0.03502151 0.20871920 0.07364976
f 6 3 2
f 7 3 4
f 8 5 6
f 9 6 4
f 9 4 3
f 10 6 5
f 10 4 6
f 11 1 7
f 11 8 1
f 11 5 8
f 12 7 4
f 12 11 7
f 12 5 11
f 12 10 5
f 12 4 10
f 13 7 1
f 13 1 8
f 14 8 6
f 14 6 2
f 15 9 3
f 16 3 7
f 16 7 13
f 16 13 8
f 16 8 14
f 16 14 2
f 16 2 3
f 17 15 3
f 17 3 6
f 17 6 9
f 17 9 15

