# https://github.com/mikedh/trimesh
v 0.04681710 0.00007926 0.07050867
v 0.04891814 0.01753038 0.07322515
v 0.02932929 0.00100830 0.08371483
v 0.02470115 0.03502322 0.08494893
v 0.02523031 0.03641517 0.06241981
v 0.03797387 0.03485211 0.07975310
v 0.04490217 0.00079933 0.07569914
v 0.03871869 0.03637909 0.06241973
v 0.02523046 0.00009637 0.07051286
v 0.02952086 0.03457498 0.08366211
v 0.02472926 0.00082826 0.08507144
v 0.04506257 0.01753413 0.07580576
v 0.02523032 0.01753502 0.06241982
v 0.03478513 0.03486761 0.08122968
v 0.03871880 0.01753502 0.06241982
f 7 1 2
f 7 6 3
f 8 2 1
f 8 6 2
f 8 5 4
f 8 4 6
f 11 7 3
f 11 1 7
f 11 9 1
f 11 10 4
f 11 3 10
f 12 7 2
f 12 2 6
f 12 6 7
f 13 1 9
f 13 5 8
f 13 9 11
f 13 11 4
f 13 4 5
f 14 6 4
f 14 4 10
f 14 10 3
f 14 3 6
f 15 13 8
f 15 8 1
f 15 1 13

