# https://github.com/mikedh/trimesh
v 0.04809928 0.13667148 0.00329078
v 0.04459891 0.14216778 0.03111661
v -0.04454750 0.13462062 0.00345618
v -0.04221208 0.20907143 0.04893134
v 0.04681189 0.20907143 0.00307051
v -0.02717492 0.14229688 0.04680895
v 0.04681189 0.20907143 0.04893134
v -0.04221208 0.20907143 0.00307051
v -0.04029837 0.14957455 0.04695578
v 0.02656343 0.14216080 0.04676713
v 0.04476506 0.15243441 0.04671305
v -0.04064242 0.14166687 0.03403949
v 0.03426520 0.14212541 0.04148540
v 0.04456286 0.14485299 0.03649046
v -0.04039008 0.14740106 0.04397950
v 0.04188762 0.15013288 0.04648189
v -0.03757340 0.14760182 0.04653000
v 0.04465422 0.15010696 0.04392818
v 0.03955728 0.14497746 0.04138369
f 7 1 5
f 7 5 4
f 7 4 6
f 8 5 1
f 8 1 3
f 8 3 4
f 8 4 5
f 9 6 4
f 9 4 3
f 10 7 6
f 10 6 3
f 10 3 1
f 11 1 7
f 11 7 10
f 12 3 6
f 13 10 1
f 13 1 2
f 14 2 1
f 14 13 2
f 15 9 3
f 15 3 12
f 15 12 6
f 16 11 10
f 16 10 13
f 17 15 6
f 17 6 9
f 17 9 15
f 18 11 16
f 18 14 1
f 18 1 11
f 19 16 13
f 19 13 14
f 19 18 16
f 19 14 18

