# https://github.com/mikedh/trimesh
v 0.02179753 0.14097874 0.04759716
v 0.06007987 0.17144211 0.04872016
v 0.01870262 0.17265445 0.07615749
v -0.04092067 0.17242927 0.06573296
v -0.04120495 0.15100297 0.04782432
v 0.05896206 0.17214384 0.05034734
v 0.05841954 0.16716058 0.04744842
v -0.04854503 0.16620274 0.05597157
v -0.00424958 0.14968769 0.06230514
v 0.04523218 0.17242836 0.06297414
v -0.02260867 0.14123614 0.04744696
v 0.05745998 0.16780569 0.04893241
v -0.03499853 0.15778382 0.05936038
v 0.01886626 0.15502013 0.06465339
v -0.01714633 0.17256979 0.07674192
v 0.03481201 0.14649763 0.04733673
v -0.03841984 0.14887128 0.04757720
v -0.01448081 0.14211244 0.05196242
v 0.04967480 0.16795156 0.05678343
v -0.04042984 0.15198873 0.04967004
v -0.04001392 0.16553662 0.06198986
v 0.00345062 0.14725638 0.05986232
v 0.01097998 0.16822034 0.07564067
v 0.03168922 0.16517604 0.06702133
v -0.01719373 0.15776206 0.06738481
v 0.02966554 0.14390140 0.04740853
v -0.02490518 0.14495646 0.05206920
v 0.04205636 0.15236357 0.04911573
v -0.04023418 0.17031403 0.06497873
v 0.01899103 0.14750798 0.05706528
v 0.01370218 0.14209847 0.05199162
v -0.00153556 0.14718166 0.05991876
v 0.02392961 0.16017433 0.06707285
v 0.01124476 0.15972290 0.07005813
v 0.03742508 0.17249120 0.06795553
v 0.04186843 0.16283093 0.05936322
v -0.01172848 0.16835811 0.07550445
v -0.01967152 0.14732813 0.05685846
v -0.03487829 0.15007451 0.05177829
v -0.02224999 0.14238504 0.04940472
v 0.04275372 0.15152491 0.04745689
v -0.02474070 0.17007380 0.07248880
v 0.00345522 0.14967497 0.06237269
v 0.02395578 0.14485690 0.05172290
v 0.02145958 0.14208307 0.04925256
v 0.01825068 0.17080769 0.07524176
v 0.02902263 0.16784644 0.06976583
v 0.03170692 0.15514674 0.05931095
v 0.01646610 0.15764799 0.06746817
v 0.04436050 0.16523696 0.05935429
v -0.01972245 0.16245492 0.06993536
v -0.01205713 0.15978327 0.07000514
v -0.01962622 0.15254881 0.06222309
v -0.03773912 0.14981782 0.04929507
v 0.03434232 0.14751137 0.04906864
v -0.02524897 0.17229185 0.07313726
v -0.03233039 0.16268957 0.06478737
v 0.02917429 0.14493372 0.04910716
v 0.03207968 0.17236486 0.07048895
v 0.03168506 0.17007731 0.06971622
v 0.03927313 0.15787344 0.05694367
v 0.03669199 0.16528674 0.06443781
v 0.02636393 0.15516627 0.06210624
v 0.04465822 0.17032352 0.06225424
f 6 2 4
f 7 5 2
f 8 4 2
f 8 2 5
f 10 6 4
f 10 4 3
f 12 7 2
f 12 2 6
f 15 3 4
f 16 11 7
f 17 5 7
f 17 7 11
f 18 11 1
f 19 12 6
f 19 6 10
f 19 7 12
f 20 13 8
f 20 8 5
f 20 5 17
f 21 8 13
f 23 3 15
f 26 1 11
f 26 11 16
f 27 17 11
f 28 7 19
f 29 4 8
f 29 8 21
f 31 18 1
f 31 30 22
f 32 9 18
f 32 31 22
f 32 18 31
f 35 10 3
f 37 23 15
f 38 18 9
f 38 27 18
f 39 17 27
f 39 27 13
f 39 13 20
f 40 27 11
f 40 11 18
f 40 18 27
f 41 16 7
f 41 7 28
f 42 4 29
f 43 30 14
f 43 22 30
f 43 32 22
f 43 9 32
f 45 31 1
f 45 30 31
f 45 44 30
f 45 1 44
f 46 3 23
f 46 23 33
f 47 33 24
f 47 46 33
f 47 3 46
f 49 33 23
f 49 23 34
f 49 14 33
f 49 43 14
f 49 34 43
f 50 36 28
f 50 28 19
f 51 37 15
f 51 15 42
f 52 34 23
f 52 23 37
f 52 43 34
f 52 9 43
f 52 25 9
f 52 51 25
f 52 37 51
f 53 38 9
f 53 9 25
f 53 13 27
f 53 27 38
f 54 39 20
f 54 20 17
f 54 17 39
f 55 41 28
f 55 16 41
f 55 28 48
f 55 26 16
f 56 42 15
f 56 15 4
f 56 4 42
f 57 42 29
f 57 29 21
f 57 21 13
f 57 51 42
f 57 13 53
f 57 53 25
f 57 25 51
f 58 44 1
f 58 1 26
f 58 26 55
f 58 55 48
f 59 35 3
f 60 47 24
f 60 35 59
f 60 59 3
f 60 3 47
f 61 48 28
f 61 28 36
f 61 36 48
f 62 48 36
f 62 24 48
f 62 36 50
f 62 60 24
f 62 35 60
f 63 48 24
f 63 24 33
f 63 33 14
f 63 14 30
f 63 30 44
f 63 58 48
f 63 44 58
f 64 50 19
f 64 19 10
f 64 62 50
f 64 10 35
f 64 35 62

