# https://github.com/mikedh/trimesh
v 0.04670982 0.14177711 0.02728141
v 0.07935931 0.18803438 0.02621555
v 0.05981080 0.16803041 0.04641839
v 0.04681189 0.20907143 0.04893134
v 0.04681189 0.20907143 0.02734977
v 0.06865560 0.20874289 0.04713226
v 0.04562728 0.15391120 0.04770649
v 0.06857339 0.16234627 0.02603297
v 0.06806986 0.18818241 0.04686779
v 0.08024406 0.20888137 0.02662314
v 0.04567089 0.14329772 0.03190549
v 0.04526341 0.14915615 0.04201996
v 0.07046352 0.17789530 0.03866801
v 0.05056774 0.14398748 0.02626564
v 0.06505136 0.17801907 0.04657171
v 0.07578646 0.19594691 0.03653563
v 0.06017664 0.16042718 0.03856912
v 0.07655152 0.17778199 0.02613362
v 0.05001304 0.14468075 0.02858057
v 0.07060661 0.18326507 0.04142198
v 0.06515435 0.17045130 0.04130796
v 0.07852448 0.19862713 0.03125883
v 0.07589855 0.20611091 0.03652341
v 0.07061167 0.19091584 0.04406362
v 0.04750718 0.15476262 0.04687067
v 0.05999085 0.15518879 0.03106361
v 0.07156680 0.16721796 0.02625598
v 0.07338650 0.18819340 0.03885283
v 0.04761146 0.14434998 0.03135252
v 0.06770164 0.17540148 0.04121881
v 0.06514614 0.16532305 0.03641560
v 0.07838799 0.18824404 0.02847651
v 0.07087304 0.20870673 0.04410605
v 0.07853804 0.20350968 0.03128172
v 0.04726107 0.15011985 0.04133461
v 0.05485746 0.15003754 0.03102462
v 0.07565019 0.17815273 0.02841496
v 0.06777021 0.16288604 0.02832021
v 0.07925519 0.20876663 0.02888213
v 0.04961733 0.15000315 0.03864578
f 8 5 2
f 9 6 4
f 9 4 7
f 10 5 4
f 10 4 6
f 10 2 5
f 11 5 1
f 12 7 4
f 12 4 5
f 12 5 11
f 14 1 5
f 14 5 8
f 15 9 7
f 15 7 3
f 18 8 2
f 19 1 14
f 20 15 13
f 20 9 15
f 21 15 3
f 22 2 10
f 23 16 22
f 24 6 9
f 24 9 20
f 25 17 3
f 25 3 7
f 26 14 8
f 27 8 18
f 28 20 13
f 28 24 20
f 28 16 24
f 29 11 1
f 29 1 19
f 30 21 13
f 30 13 15
f 30 15 21
f 31 21 3
f 31 3 17
f 31 27 13
f 31 13 21
f 32 22 16
f 32 2 22
f 32 16 28
f 33 10 6
f 33 6 24
f 33 24 16
f 33 16 23
f 34 23 22
f 34 22 10
f 35 25 7
f 35 7 12
f 36 19 14
f 36 14 26
f 36 26 17
f 37 27 18
f 37 13 27
f 37 28 13
f 37 32 28
f 37 18 2
f 37 2 32
f 38 31 17
f 38 8 27
f 38 27 31
f 38 26 8
f 38 17 26
f 39 33 23
f 39 10 33
f 39 34 10
f 39 23 34
f 40 17 25
f 40 25 35
f 40 36 17
f 40 29 19
f 40 19 36
f 40 11 29
f 40 35 12
f 40 12 11

