# https://github.com/mikedh/trimesh
v 0.04042261 0.22189427 -0.07612901
v 0.04616889 0.22557367 -0.07124046
v -0.03681668 0.22255991 -0.06437189
v -0.03838943 0.24069492 -0.06682402
v 0.01897477 0.23692748 -0.07709338
v 0.04218567 0.23970791 -0.06554789
v -0.02004979 0.22177630 -0.08360878
v 0.03975148 0.23668150 -0.06917824
v 0.02185771 0.22159157 -0.08319868
v -0.03584644 0.22176645 -0.07835355
v -0.01721704 0.23710799 -0.07742922
v 0.03980072 0.22641091 -0.07455646
v 0.03439262 0.23667534 -0.07185095
v -0.00945607 0.22926559 -0.08274152
v -0.03050533 0.22168969 -0.08064148
v 0.03746769 0.22164566 -0.07770018
v 0.03202638 0.22907450 -0.07697383
v 0.01120668 0.22917320 -0.08247398
v 0.01112391 0.23428336 -0.08008493
v -0.01979201 0.23151204 -0.07976475
v 0.03721749 0.22392923 -0.07699753
v 0.02411441 0.22899922 -0.07970930
v 0.02431425 0.23429455 -0.07717711
v -0.01192789 0.23425309 -0.07998530
v -0.01733489 0.22655366 -0.08251325
v -0.02743813 0.23674212 -0.07452743
v 0.02166142 0.22400763 -0.08239749
v 0.03181676 0.23420568 -0.07436726
v 0.01899972 0.23158482 -0.07989155
v -0.02743870 0.22654859 -0.07987143
v -0.02478174 0.23405131 -0.07711263
v -0.03522067 0.23136858 -0.07433946
v -0.01985943 0.22421713 -0.08284018
v -0.03553744 0.22412770 -0.07761903
v -0.03272097 0.23687291 -0.07229465
v -0.03016439 0.22388154 -0.07994516
v -0.03577547 0.23743249 -0.07043855
f 1 2 3
f 6 3 2
f 6 4 3
f 6 5 4
f 8 6 2
f 10 3 4
f 11 4 5
f 12 8 2
f 12 2 1
f 13 5 6
f 13 6 8
f 13 8 12
f 14 9 7
f 15 7 9
f 16 1 3
f 16 3 10
f 16 15 9
f 16 10 15
f 17 13 12
f 18 9 14
f 19 11 5
f 19 18 14
f 21 12 1
f 21 1 16
f 21 17 12
f 21 16 9
f 21 9 17
f 23 5 13
f 23 17 22
f 24 19 14
f 24 11 19
f 24 20 11
f 25 14 7
f 25 24 14
f 25 20 24
f 26 4 11
f 27 22 17
f 27 17 9
f 27 9 18
f 28 23 13
f 28 13 17
f 28 17 23
f 29 19 5
f 29 5 23
f 29 18 19
f 29 23 22
f 29 27 18
f 29 22 27
f 30 20 25
f 31 26 11
f 31 11 20
f 31 20 30
f 32 31 30
f 32 26 31
f 33 30 25
f 33 25 7
f 33 7 15
f 33 15 30
f 34 15 10
f 34 32 30
f 34 10 4
f 34 4 32
f 35 4 26
f 35 26 32
f 36 34 30
f 36 30 15
f 36 15 34
f 37 35 32
f 37 32 4
f 37 4 35

