# https://github.com/mikedh/trimesh
v -0.01714633 0.17256979 0.07674192
v -0.01793281 0.17130369 0.04893134
v -0.01793281 0.20907143 0.04893134
v -0.04097714 0.20876707 0.07100134
v -0.04854503 0.16620274 0.05597157
v -0.01920092 0.21006574 0.07671508
v -0.04059744 0.18290613 0.07006338
v -0.04221208 0.20907143 0.04893134
v -0.03185857 0.19078322 0.07550372
v -0.03782565 0.17263928 0.06767603
v -0.02958053 0.20818255 0.07570671
v -0.02928570 0.18329581 0.07525412
v -0.03788022 0.18804269 0.07248119
v -0.04092067 0.17242927 0.06573296
v -0.03181154 0.20295514 0.07551092
v -0.03791270 0.20862871 0.07254879
v -0.03263262 0.17778251 0.07235043
v -0.03791857 0.17783407 0.06992611
v -0.04035296 0.17539747 0.06743758
v -0.02412635 0.17558795 0.07510247
f 1 2 3
f 5 2 1
f 6 1 3
f 7 4 5
f 8 3 2
f 8 2 5
f 8 5 4
f 8 6 3
f 8 4 6
f 9 1 6
f 10 5 1
f 12 1 9
f 13 4 7
f 13 12 9
f 13 7 12
f 14 5 10
f 15 9 6
f 15 6 11
f 16 11 6
f 16 6 4
f 16 15 11
f 16 9 15
f 16 13 9
f 16 4 13
f 17 12 7
f 18 17 7
f 18 10 17
f 19 7 5
f 19 5 14
f 19 18 7
f 19 14 10
f 19 10 18
f 20 17 10
f 20 10 1
f 20 1 12
f 20 12 17

