# https://github.com/mikedh/trimesh
v 0.07156718 0.16940343 0.02890116
v 0.08428214 0.18798096 -0.01805061
v 0.08425181 0.19337504 0.01310353
v 0.07773169 0.21021908 0.03188794
v 0.06839346 0.20907143 -0.01851106
v 0.08519171 0.20874874 -0.01815288
v 0.07845867 0.18318753 0.02583110
v 0.07656747 0.16730780 -0.02032874
v 0.08417173 0.18307188 -0.00498317
v 0.08444494 0.20860990 0.01331958
v 0.08120431 0.19326656 0.02360407
v 0.08412844 0.18547788 0.00529683
v 0.08155774 0.17765465 -0.01807191
v 0.07865131 0.17266274 0.01289936
v 0.08118043 0.18824717 0.02094140
v 0.08148906 0.20857214 0.02361151
v 0.08135658 0.17534562 -0.01294119
v 0.08417922 0.18548682 -0.01536267
v 0.08133362 0.17537251 0.00278982
v 0.07552177 0.17284331 0.02350264
v 0.08115681 0.17788703 0.01060782
v 0.08024406 0.20888137 0.02662314
v 0.08410019 0.19861658 0.01569075
v 0.07938508 0.17245561 -0.01803804
v 0.08404562 0.18311440 0.00012241
v 0.07828264 0.17552432 0.01818056
v 0.07574893 0.17541442 0.02576288
v 0.08399548 0.20622564 0.01566138
v 0.07418005 0.17231958 0.02626724
f 5 1 4
f 6 5 4
f 7 4 1
f 8 1 5
f 8 6 2
f 8 5 6
f 9 2 6
f 10 6 4
f 10 3 6
f 11 4 7
f 12 9 6
f 12 6 3
f 13 8 2
f 14 1 8
f 15 11 7
f 15 3 11
f 16 10 4
f 18 13 2
f 18 2 9
f 18 17 13
f 18 9 17
f 19 17 9
f 19 14 8
f 19 8 17
f 20 1 14
f 21 12 3
f 21 3 15
f 21 14 19
f 21 15 7
f 22 16 4
f 22 4 11
f 22 11 16
f 23 16 11
f 23 11 3
f 23 3 10
f 24 17 8
f 24 8 13
f 24 13 17
f 25 19 9
f 25 9 12
f 25 21 19
f 25 12 21
f 26 20 14
f 26 21 7
f 26 14 21
f 27 7 1
f 27 26 7
f 27 20 26
f 28 23 10
f 28 10 16
f 28 16 23
f 29 27 1
f 29 1 20
f 29 20 27

