# https://github.com/mikedh/trimesh
v 0.03871899 0.00008895 -0.06167185
v 0.03791542 0.00100123 -0.07356240
v 0.03871926 0.03367273 -0.06167370
v -0.01793194 0.03361833 -0.06167172
v -0.01793245 0.00006684 -0.07246850
v -0.00707132 0.03262063 -0.08218192
v 0.00617630 0.00074684 -0.08322535
v -0.01793152 0.00007995 -0.06167443
v 0.03468039 0.03246678 -0.07461617
v -0.01792988 0.03341801 -0.07246308
v 0.01902846 0.00075985 -0.08054983
v -0.00681354 0.00066209 -0.08312024
v 0.01894569 0.03276421 -0.08018307
v 0.03766752 0.03284245 -0.07300660
v 0.03479778 0.00096037 -0.07500622
v 0.00079966 0.02559420 -0.08320414
v -0.00693698 0.00111317 -0.08307452
v 0.02932430 0.00399392 -0.07729444
v -0.00158049 0.02559647 -0.08315849
v 0.02933648 0.00092513 -0.07726380
f 1 2 3
f 1 3 4
f 7 1 5
f 8 5 1
f 8 1 4
f 8 4 5
f 10 4 3
f 10 5 4
f 11 1 7
f 12 7 5
f 13 10 3
f 13 6 10
f 13 11 7
f 14 3 2
f 14 2 9
f 14 13 3
f 14 9 13
f 15 2 1
f 15 1 11
f 15 9 2
f 16 7 12
f 16 13 7
f 16 6 13
f 17 10 6
f 17 6 12
f 17 12 5
f 17 5 10
f 18 13 9
f 18 9 15
f 18 11 13
f 19 16 12
f 19 12 6
f 19 6 16
f 20 18 15
f 20 15 11
f 20 11 18

