# https://github.com/mikedh/trimesh
v -0.04221205 0.00009044 0.04353561
v -0.04156691 0.00050287 -0.07132401
v -0.04221194 0.03620605 0.04353831
v -0.07571948 0.03518355 0.04266692
v -0.08537150 0.00052297 -0.00743738
v -0.04129185 0.03299672 -0.07092136
v -0.07570142 0.00059632 0.04273907
v -0.08515742 0.03464619 -0.00718962
v -0.08520524 0.00054503 0.01355059
v -0.08513141 0.03515459 0.01347326
v -0.04221813 0.03369100 -0.05620736
v -0.07147551 0.03322799 -0.04344483
v -0.08246883 0.03508400 0.02664724
v -0.07726358 0.03533889 0.03952816
v -0.05297798 0.03363505 -0.05620655
v -0.06119301 0.00055991 -0.05621135
v -0.07945860 0.03328249 -0.02803307
v -0.08249976 0.00063135 0.02649449
v -0.07734542 0.00061273 0.03951803
v -0.07425074 0.03369221 -0.03850389
v -0.04819282 0.03302591 -0.06658636
v -0.08253503 0.00057125 -0.02022003
v -0.07973571 0.03519746 0.03435679
v -0.07977532 0.00061869 0.03424680
v -0.08218274 0.03423821 -0.02005786
v -0.06580943 0.03345590 -0.05016284
v -0.04361356 0.00068169 -0.07032232
v -0.07965955 0.00056408 -0.02805836
v -0.07701534 0.03374201 -0.03314346
v -0.06098727 0.00394257 -0.05631822
v -0.04329460 0.03296560 -0.06974202
v -0.04851124 0.00068177 -0.06706723
v -0.07167850 0.00061641 -0.04361474
f 6 1 2
f 6 3 1
f 7 1 3
f 7 3 4
f 9 5 1
f 9 1 7
f 10 3 8
f 10 8 5
f 10 5 9
f 11 3 6
f 13 10 9
f 14 4 3
f 14 3 10
f 15 8 3
f 15 3 11
f 15 11 6
f 16 2 1
f 18 13 9
f 19 7 4
f 19 4 14
f 21 15 6
f 22 5 8
f 23 19 14
f 23 14 10
f 23 10 13
f 24 18 9
f 24 9 7
f 24 7 19
f 24 19 23
f 24 23 13
f 24 13 18
f 25 8 15
f 25 15 20
f 25 22 8
f 25 17 22
f 26 16 12
f 26 12 20
f 26 20 15
f 26 15 21
f 27 6 2
f 28 5 22
f 28 16 1
f 28 1 5
f 28 22 17
f 29 25 20
f 29 17 25
f 29 28 17
f 30 26 21
f 30 16 26
f 31 27 21
f 31 21 6
f 31 6 27
f 32 27 2
f 32 2 16
f 32 21 27
f 32 30 21
f 32 16 30
f 33 12 16
f 33 16 28
f 33 20 12
f 33 29 20
f 33 28 29

