# https://github.com/mikedh/trimesh
v 0.04832442 0.24590881 0.04526728
v 0.05159696 0.24991023 -0.04712950
v 0.03463796 0.27324554 0.00279275
v -0.01450937 0.27860723 0.00777571
v -0.04221208 0.24414148 -0.04279033
v 0.00347540 0.27323187 -0.03852631
v 0.01371510 0.26523448 0.04168002
v 0.04489552 0.26788702 0.00531072
v 0.03950667 0.26772084 -0.02840120
v 0.01642080 0.27872104 -0.01261056
v -0.04047843 0.26797398 -0.02572747
v -0.01709814 0.27031702 -0.04113561
v 0.01146404 0.27579428 0.02071305
v -0.04468177 0.24744562 0.04664953
v 0.04488652 0.26256407 0.02332079
v 0.02661674 0.26781740 -0.04105398
v 0.04488660 0.26775992 -0.01519132
v -0.01449537 0.27874818 -0.01525265
v -0.04104334 0.26094585 -0.04170060
v -0.01727169 0.27061532 0.03095033
v 0.01370873 0.27880693 0.00780318
v -0.04050529 0.26792663 0.01578657
v 0.03183914 0.25956143 0.04138134
v 0.04489427 0.26533887 0.01565399
v 0.03941885 0.26223125 -0.04093421
v 0.02665370 0.27307329 -0.02844216
v 0.01641279 0.27045161 -0.04111733
v 0.04499100 0.26258552 -0.03341131
v 0.03978693 0.27060028 -0.01528493
v 0.00344478 0.27877017 -0.02066702
v -0.00952994 0.27584947 -0.03078024
v -0.02736901 0.26758583 -0.04098298
v -0.04058470 0.27062402 -0.01259396
v -0.00958982 0.27593203 0.02071603
v -0.01449165 0.26506166 0.04157754
v -0.01718308 0.27867642 0.00285005
v 0.02918001 0.27288112 0.01572442
v 0.02676549 0.27622347 0.00514892
v -0.02733295 0.27293101 0.01791773
v -0.03506180 0.25973913 0.03868417
v 0.02400260 0.26260931 0.04165858
v 0.04484652 0.25729501 0.03353097
v 0.03698481 0.26488211 -0.03856369
v -0.00423741 0.27315308 -0.03861370
v 0.02655110 0.27025694 -0.03586818
v 0.01375152 0.27617695 -0.02859621
v 0.04498010 0.26529322 -0.02577572
v 0.04555892 0.25823365 -0.04165049
v 0.02667003 0.27589312 -0.01526648
v 0.03723777 0.27021120 -0.02311083
v -0.03012896 0.27312016 -0.02311314
v -0.00424667 0.27873863 -0.02065160
v -0.03776271 0.26784578 -0.03059728
v -0.04051410 0.27057519 0.00270146
v -0.00957801 0.27864667 0.01049990
v 0.00343498 0.27326171 0.02873250
v -0.02754163 0.27595828 -0.01260044
v 0.01639574 0.27582321 0.01802679
v 0.03956352 0.26778757 0.01797576
v 0.01639364 0.27875070 0.00510563
v 0.03969538 0.27026434 0.00769652
v -0.02517546 0.27601018 0.00783932
v -0.01983585 0.27571145 0.01583263
v -0.04029663 0.25694624 0.03852912
f 5 2 1
f 8 1 2
f 14 5 1
f 14 1 7
f 17 8 2
f 19 12 2
f 19 2 5
f 19 5 14
f 24 15 1
f 24 1 8
f 25 2 16
f 27 16 2
f 27 2 12
f 29 3 8
f 29 8 17
f 30 21 10
f 30 18 21
f 32 12 19
f 33 19 14
f 33 11 19
f 35 14 7
f 36 21 18
f 40 39 22
f 40 20 39
f 40 35 20
f 40 14 35
f 41 7 1
f 41 1 23
f 42 23 1
f 42 1 15
f 42 15 23
f 43 25 16
f 43 9 28
f 43 26 9
f 44 27 12
f 44 6 27
f 44 31 6
f 44 12 31
f 45 16 27
f 45 43 16
f 45 26 43
f 46 27 6
f 46 45 27
f 46 26 45
f 46 31 30
f 46 6 31
f 46 30 10
f 47 17 2
f 47 2 28
f 47 28 9
f 47 29 17
f 48 28 2
f 48 2 25
f 48 43 28
f 48 25 43
f 49 10 38
f 49 38 3
f 49 3 29
f 49 46 10
f 49 26 46
f 50 9 26
f 50 49 29
f 50 26 49
f 50 47 9
f 50 29 47
f 51 18 31
f 51 11 33
f 51 31 12
f 51 12 32
f 52 31 18
f 52 18 30
f 52 30 31
f 53 32 19
f 53 19 11
f 53 51 32
f 53 11 51
f 54 33 14
f 54 14 22
f 55 36 4
f 55 21 36
f 55 34 13
f 55 13 21
f 56 34 20
f 56 7 13
f 56 13 34
f 56 35 7
f 56 20 35
f 57 36 18
f 57 33 54
f 57 51 33
f 57 18 51
f 58 21 13
f 58 41 37
f 58 13 7
f 58 7 41
f 58 38 21
f 58 37 38
f 59 15 24
f 59 23 15
f 59 41 23
f 59 37 41
f 60 38 10
f 60 10 21
f 60 21 38
f 61 38 37
f 61 3 38
f 61 37 59
f 61 8 3
f 61 59 24
f 61 24 8
f 62 4 36
f 62 57 54
f 62 36 57
f 62 54 22
f 62 22 39
f 63 62 39
f 63 4 62
f 63 55 4
f 63 34 55
f 63 39 20
f 63 20 34
f 64 40 22
f 64 22 14
f 64 14 40

