# https://github.com/mikedh/trimesh
v 0.04044409 0.14058470 -0.04197445
v 0.03944759 0.16020565 -0.06692653
v 0.04141650 0.17130369 -0.04279033
v -0.03681668 0.17130369 -0.04279033
v -0.02486376 0.14239177 -0.05665113
v -0.01214062 0.17228697 -0.08363917
v 0.04043204 0.17208151 -0.07359496
v 0.01634676 0.14186556 -0.05926266
v -0.03686211 0.13884885 -0.04283085
v 0.01386632 0.16513963 -0.07996502
v -0.02504031 0.17259183 -0.08063961
v 0.03178506 0.14726246 -0.05912967
v -0.01710740 0.14201412 -0.05914216
v 0.02939685 0.16774839 -0.07695287
v 0.03226368 0.17248150 -0.07793184
v 0.03739971 0.17250531 -0.07556062
v -0.03585556 0.17217558 -0.07601696
v 0.03943544 0.14750184 -0.05397141
v 0.02921286 0.14235024 -0.05409053
v 0.01893465 0.15495411 -0.07193845
v -0.00427703 0.15233097 -0.07224854
v 0.01404826 0.17237310 -0.08337773
v 0.03190572 0.17016500 -0.07704060
v 0.03686852 0.16524387 -0.07173081
v -0.02479511 0.15751329 -0.07205191
v 0.03691674 0.15001139 -0.05896857
v 0.02425216 0.14219991 -0.05675967
v 0.03685654 0.14232504 -0.04862872
v 0.01902117 0.16235579 -0.07728281
v 0.03179568 0.15756426 -0.06914167
v -0.01185994 0.16010806 -0.07736287
v 0.01116923 0.15974217 -0.07727085
v 0.00874708 0.14726847 -0.06713676
v -0.01197819 0.16999176 -0.08269185
v 0.02441110 0.17234776 -0.08083275
v 0.03696579 0.17043361 -0.07472079
v 0.03953529 0.16786957 -0.07179350
v -0.02479131 0.16511017 -0.07703214
v -0.03255721 0.14735019 -0.05892303
v -0.01980411 0.15232193 -0.06939460
v 0.02154288 0.15010901 -0.06690612
v 0.03940050 0.14233194 -0.04631063
v 0.03667765 0.15781374 -0.06682483
v 0.03164051 0.16526117 -0.07454578
v 0.02661102 0.15489135 -0.06934820
v 0.01634581 0.15744568 -0.07460371
v 0.00350317 0.14448138 -0.06452612
v 0.00347304 0.15228138 -0.07226706
v 0.01393862 0.17015811 -0.08243332
v 0.02417145 0.17027358 -0.07996940
v -0.03506862 0.15993512 -0.06922354
v -0.03555099 0.17011025 -0.07517233
v -0.01976801 0.16244022 -0.07708766
v -0.03559092 0.14172839 -0.04909984
v -0.00681405 0.14718682 -0.06719940
v -0.02736843 0.15249518 -0.06691108
v 0.02679493 0.14732695 -0.06182338
v 0.01892865 0.14468162 -0.06178005
v -0.02999141 0.16016561 -0.07181799
v -0.01454813 0.16517309 -0.07978417
v -0.02467883 0.17036657 -0.07968012
v -0.03501508 0.14469260 -0.05400671
v -0.03280314 0.14208508 -0.05152699
v -0.00682723 0.14969420 -0.06958360
f 1 3 4
f 7 1 2
f 7 3 1
f 9 1 4
f 9 8 1
f 13 9 5
f 13 8 9
f 16 11 4
f 16 4 3
f 16 15 11
f 16 3 7
f 17 9 4
f 17 4 11
f 18 2 1
f 22 6 11
f 22 11 15
f 23 14 15
f 23 15 16
f 26 18 12
f 26 2 18
f 27 19 1
f 27 1 8
f 27 12 19
f 28 1 19
f 28 19 12
f 28 12 18
f 32 10 29
f 34 6 22
f 34 10 32
f 34 32 31
f 34 11 6
f 35 22 15
f 35 15 14
f 36 16 7
f 36 23 16
f 37 7 2
f 37 2 24
f 37 36 7
f 37 24 36
f 40 25 31
f 41 33 20
f 42 28 18
f 42 18 1
f 42 1 28
f 43 26 12
f 43 2 26
f 43 24 2
f 44 43 30
f 44 24 43
f 44 36 24
f 44 14 23
f 44 23 36
f 44 29 14
f 45 20 29
f 45 44 30
f 45 29 44
f 45 41 20
f 45 43 12
f 45 30 43
f 46 32 29
f 46 29 20
f 46 20 33
f 47 33 8
f 47 8 13
f 48 46 33
f 48 32 46
f 48 21 31
f 48 31 32
f 48 33 47
f 49 34 22
f 49 10 34
f 49 22 35
f 50 35 14
f 50 14 29
f 50 49 35
f 50 29 10
f 50 10 49
f 51 9 17
f 52 17 11
f 52 11 38
f 52 51 17
f 53 31 25
f 53 25 38
f 55 13 40
f 55 47 13
f 55 48 47
f 55 21 48
f 56 25 40
f 56 39 51
f 56 5 39
f 56 40 13
f 56 13 5
f 57 12 27
f 57 45 12
f 57 41 45
f 58 8 33
f 58 33 41
f 58 41 57
f 58 57 27
f 58 27 8
f 59 38 25
f 59 56 51
f 59 25 56
f 59 52 38
f 59 51 52
f 60 34 31
f 60 31 53
f 60 11 34
f 61 53 38
f 61 38 11
f 61 60 53
f 61 11 60
f 62 39 5
f 62 51 39
f 62 54 9
f 62 9 51
f 63 5 9
f 63 9 54
f 63 62 5
f 63 54 62
f 64 55 40
f 64 21 55
f 64 40 31
f 64 31 21

