{"scene":0,"scenes":[{"nodes":[0]}],"asset":{"version":"2.0","generator":"https://github.com/mikedh/trimesh"},"accessors":[{"componentType":5125,"type":"SCALAR","bufferView":0,"count":29520,"max":[29472],"min":[0]},{"componentType":5126,"type":"VEC3","byteOffset":0,"bufferView":1,"count":29473,"max":[0.08672405779361725,0.09000000357627869,6.23275760823929e-17],"min":[-0.08672405779361725,-0.09000000357627869,-0.28056037425994873]},{"componentType":5126,"type":"VEC2","byteOffset":0,"bufferView":3,"count":29473,"max":[0.9995507597923279,0.9995349049568176],"min":[0.00044923630775883794,0.00046509504318237305]}],"meshes":[{"name":"geometry_0.001","extras":{"units":"meters","from_gltf_primitive":false,"name":"geometry_0.001","node":"geometry_0.002"},"primitives":[{"attributes":{"POSITION":1,"TEXCOORD_0":2},"indices":0,"mode":4,"material":0}]}],"images":[{"bufferView":2,"mimeType":"image/png"}],"textures":[{"source":0}],"materials":[{"pbrMetallicRoughness":{"baseColorTexture":{"index":0}},"name":"Material_0.001","doubleSided":false}],"nodes":[{"name":"world","children":[1]},{"name":"geometry_0.001","mesh":0}],"buffers":[{"uri":"gltf_buffer_0.bin","byteLength":118080},{"uri":"gltf_buffer_1.bin","byteLength":353676},{"uri":"gltf_buffer_2.bin","byteLength":956448},{"uri":"gltf_buffer_3.bin","byteLength":235784}],"bufferViews":[{"buffer":0,"byteOffset":0,"byteLength":118080},{"buffer":1,"byteOffset":0,"byteLength":353676},{"buffer":2,"byteOffset":0,"byteLength":956448},{"buffer":3,"byteOffset":0,"byteLength":235784}]}