# https://github.com/mikedh/trimesh
v -0.01523512 0.17130369 -0.06437189
v -0.01471862 0.17244887 -0.08325858
v -0.01523512 0.22255991 -0.06437189
v -0.03681668 0.22255991 -0.06437189
v -0.04069488 0.16733045 -0.07088688
v -0.01497410 0.22209775 -0.08462588
v -0.01477529 0.21912418 -0.08563206
v -0.01659258 0.22574204 -0.08297295
v -0.03274045 0.18807453 -0.08248510
v -0.02514661 0.22143260 -0.08238669
v -0.01477358 0.18010179 -0.08603928
v -0.02755792 0.17290492 -0.07988904
v -0.03584644 0.22176645 -0.07835355
v -0.01723324 0.21873170 -0.08531197
v -0.01723291 0.17255541 -0.08280834
v -0.03546080 0.17512958 -0.07753732
v -0.01966420 0.18053106 -0.08511632
v -0.03542655 0.18298643 -0.08021698
v -0.03289106 0.20863918 -0.08269270
v -0.03264638 0.22135563 -0.07990981
v -0.02495272 0.20861185 -0.08542545
v -0.03292483 0.17259954 -0.07762136
v -0.02245264 0.17518519 -0.08262160
v -0.03534649 0.21883283 -0.07961284
v -0.03260267 0.17796076 -0.07987760
v -0.03012609 0.18293897 -0.08239281
v -0.02230037 0.21378864 -0.08531496
v -0.02489597 0.18814363 -0.08535788
v -0.03679386 0.17132379 -0.07512021
v -0.02765478 0.21884541 -0.08239195
v -0.03585556 0.17217558 -0.07601696
f 1 2 3
f 1 3 4
f 5 2 1
f 5 1 4
f 7 6 3
f 7 3 2
f 8 4 3
f 8 3 6
f 11 7 2
f 13 5 4
f 13 4 8
f 14 10 8
f 14 8 6
f 14 6 7
f 15 2 5
f 15 5 12
f 15 11 2
f 18 16 5
f 19 9 18
f 20 13 8
f 20 8 10
f 21 7 11
f 22 12 5
f 23 15 12
f 23 17 11
f 23 11 15
f 24 18 5
f 24 5 13
f 24 19 18
f 24 13 20
f 25 16 18
f 25 22 16
f 25 12 22
f 25 23 12
f 26 18 9
f 26 25 18
f 26 17 23
f 26 23 25
f 27 14 7
f 27 7 21
f 27 10 14
f 27 21 19
f 28 21 11
f 28 11 17
f 28 9 19
f 28 19 21
f 28 26 9
f 28 17 26
f 29 22 5
f 29 5 16
f 30 27 19
f 30 19 24
f 30 24 20
f 30 20 10
f 30 10 27
f 31 29 16
f 31 16 22
f 31 22 29

