# https://github.com/mikedh/trimesh
v 0.04506257 0.01753413 0.07580576
v 0.04681189 0.01753502 0.04893134
v 0.04681150 0.03629602 0.04893215
v 0.03797387 0.03485211 0.07975310
v 0.03871880 0.01753502 0.04893134
v 0.04517627 0.03474836 0.07579928
v 0.03795486 0.01753055 0.07982296
v 0.03871849 0.03632160 0.04893198
v 0.03995982 0.03486240 0.07873029
v 0.04014116 0.01755502 0.07870415
v 0.04265992 0.01753325 0.07722967
f 6 1 2
f 6 2 3
f 7 5 2
f 7 2 1
f 8 4 3
f 8 3 2
f 8 2 5
f 8 7 4
f 8 5 7
f 9 6 3
f 9 3 4
f 10 6 9
f 10 9 4
f 10 4 7
f 11 10 7
f 11 7 1
f 11 1 6
f 11 6 10

