# https://github.com/mikedh/trimesh
v 0.02472926 0.00082826 0.08507144
v 0.02523046 0.00009637 0.07051286
v 0.02522337 0.03641520 0.06241434
v 0.00095763 0.03641216 0.08675601
v 0.00095101 0.00009992 0.07051372
v 0.02470115 0.03502322 0.08494893
v 0.00097367 0.00048919 0.08869005
v 0.00095106 0.01753502 0.06241982
v 0.01689936 0.03620219 0.08594463
v 0.02522335 0.03640973 0.06511203
v 0.01906597 0.00073306 0.08658543
v 0.00094796 0.03550043 0.08869713
v 0.02523032 0.01753502 0.06241982
v 0.00095699 0.03644886 0.06242083
v 0.02252116 0.03639858 0.07320005
v 0.01909994 0.03500764 0.08654536
v 0.00622495 0.03615489 0.08774433
v 0.00364012 0.03612549 0.08786466
f 6 1 2
f 7 5 2
f 8 2 5
f 10 6 2
f 11 7 2
f 11 2 1
f 12 5 7
f 12 8 5
f 12 7 11
f 13 8 3
f 13 2 8
f 13 10 2
f 13 3 10
f 14 4 3
f 14 3 8
f 14 12 4
f 14 8 12
f 15 9 6
f 15 6 10
f 15 4 9
f 15 10 3
f 15 3 4
f 16 11 1
f 16 1 6
f 16 12 11
f 16 6 9
f 17 9 4
f 17 16 9
f 17 12 16
f 18 17 4
f 18 4 12
f 18 12 17

