# https://github.com/mikedh/trimesh
v 0.06463978 0.00059549 0.05877893
v 0.06332055 0.00066540 0.06040005
v 0.04681362 0.00008425 0.05972438
v 0.04649357 0.03636762 0.07252828
v 0.06340921 0.03467400 0.06040924
v 0.04604501 0.00072851 0.07487703
v 0.06452527 0.03505086 0.05867286
v 0.04681148 0.03633873 0.05972227
v 0.05264817 0.03477419 0.07060245
v 0.05552263 0.00072840 0.06796425
v 0.04606720 0.03514349 0.07481255
v 0.05215619 0.03632851 0.06789760
v 0.05136704 0.03625689 0.06936127
v 0.05276844 0.00090954 0.07031577
v 0.04810404 0.03478314 0.07386345
v 0.04682921 0.03639832 0.06782592
v 0.04858131 0.03600364 0.07200821
v 0.04791074 0.00079978 0.07363318
f 5 2 1
f 6 3 1
f 7 5 1
f 7 1 3
f 8 3 6
f 8 7 3
f 10 6 1
f 10 1 2
f 10 2 5
f 10 5 9
f 11 8 6
f 11 4 8
f 12 7 8
f 13 9 5
f 13 5 7
f 13 7 12
f 13 12 4
f 14 10 9
f 14 6 10
f 15 11 6
f 15 14 9
f 16 12 8
f 16 8 4
f 16 4 12
f 17 9 13
f 17 15 9
f 17 11 15
f 17 13 4
f 17 4 11
f 18 15 6
f 18 6 14
f 18 14 15

