# https://github.com/mikedh/trimesh
v 0.00095106 0.01753502 0.07051290
v 0.00095106 0.01753502 0.04893134
v 0.00095280 0.03645236 0.07051513
v -0.01793265 0.03639397 0.07051288
v -0.01793281 0.01753502 0.07051290
v -0.01793244 0.03630593 0.04893254
v 0.00095106 0.03635462 0.04893203
v -0.01522044 0.03640598 0.05704976
v -0.01793281 0.01753502 0.04893134
v -0.01521717 0.03641199 0.07051078
v 0.00095129 0.03641316 0.05435590
f 1 2 3
f 5 2 1
f 5 1 3
f 5 3 4
f 7 3 2
f 8 6 4
f 8 7 6
f 9 2 5
f 9 5 4
f 9 4 6
f 9 7 2
f 9 6 7
f 10 8 4
f 10 4 3
f 10 3 8
f 11 8 3
f 11 3 7
f 11 7 8

