# https://github.com/mikedh/trimesh
v 0.04044409 0.14058470 -0.04197445
v 0.07699278 0.18781566 -0.04173196
v 0.05313983 0.25267697 -0.04141362
v 0.04133375 0.26018978 -0.04271541
v 0.04030793 0.18525420 -0.07847456
v 0.04555892 0.25823365 -0.04165049
v 0.05041157 0.14678783 -0.04136591
v 0.04018293 0.25822663 -0.04680381
v 0.05477482 0.22114424 -0.06668070
v 0.06862643 0.23467795 -0.04140725
v 0.04255468 0.14158294 -0.04148185
v 0.06021694 0.17020576 -0.05663487
v 0.03993318 0.14143341 -0.04410838
v 0.04449211 0.25454971 -0.04849822
v 0.06547556 0.18802245 -0.05909488
v 0.04002600 0.22431494 -0.07542604
v 0.07421272 0.17777436 -0.04160619
v 0.07323364 0.21112761 -0.04879434
v 0.04028426 0.16188162 -0.06771905
v 0.04205817 0.14239946 -0.04357570
v 0.04507539 0.25742462 -0.04367160
v 0.05739208 0.23159481 -0.05876762
v 0.05248848 0.20610206 -0.07220538
v 0.05243229 0.18052468 -0.06916393
v 0.03996760 0.24232968 -0.06485434
v 0.03991175 0.17519029 -0.07546409
v 0.07682355 0.21398781 -0.04160661
v 0.06345063 0.15954290 -0.04153403
v 0.07070170 0.18560643 -0.05147974
v 0.04717953 0.15528279 -0.05659055
v 0.05245642 0.25198510 -0.04342326
v 0.04480232 0.23150099 -0.06913434
v 0.06266216 0.22141089 -0.05881605
v 0.06786339 0.21095303 -0.05660066
v 0.04481359 0.21894823 -0.07466849
v 0.06540638 0.18050862 -0.05646664
v 0.05277639 0.19320994 -0.07205683
v 0.04968458 0.17063024 -0.06675799
v 0.04009131 0.25265208 -0.05455336
v 0.04033900 0.21403844 -0.07848974
v 0.04007865 0.14648873 -0.05202051
v 0.04722954 0.18576633 -0.07450970
v 0.07138568 0.22944793 -0.04144679
v 0.07340374 0.19060804 -0.04888299
v 0.06508031 0.16819199 -0.04872639
v 0.07322111 0.18302101 -0.04640710
v 0.05243679 0.15531709 -0.05119704
v 0.04703910 0.25446723 -0.04590076
v 0.06335259 0.24231225 -0.04142554
v 0.04215960 0.25196824 -0.05382097
v 0.05215763 0.22633938 -0.06660250
v 0.04968105 0.23393062 -0.06412611
v 0.04006257 0.23470148 -0.07017755
v 0.06773043 0.22398362 -0.05124007
v 0.06008057 0.21370190 -0.06404486
v 0.04988446 0.21621840 -0.07207868
v 0.04457126 0.22653440 -0.07192433
v 0.05742914 0.18572714 -0.06678180
v 0.07063670 0.19589542 -0.05404992
v 0.04993471 0.17558447 -0.06914315
v 0.04196529 0.17030121 -0.07174883
v 0.04723036 0.16051019 -0.06152069
v 0.04496982 0.20347716 -0.07737726
v 0.04000461 0.16989215 -0.07270114
f 6 4 1
f 8 1 4
f 10 3 7
f 11 6 1
f 11 7 3
f 11 3 6
f 13 1 8
f 20 11 1
f 20 1 13
f 20 7 11
f 21 6 3
f 21 4 6
f 21 14 8
f 21 8 4
f 26 25 16
f 26 13 25
f 27 17 2
f 28 17 7
f 31 21 3
f 36 15 29
f 39 8 14
f 39 25 13
f 39 13 8
f 40 26 16
f 40 5 26
f 40 16 35
f 41 19 30
f 41 20 13
f 41 7 20
f 42 26 5
f 42 5 37
f 43 17 27
f 43 10 7
f 43 7 17
f 44 27 2
f 44 18 27
f 45 17 28
f 45 36 17
f 45 12 36
f 46 2 17
f 46 36 29
f 46 17 36
f 46 44 2
f 46 29 44
f 47 28 7
f 47 41 30
f 47 7 41
f 47 45 28
f 47 12 45
f 48 31 14
f 48 14 21
f 48 21 31
f 49 31 3
f 49 3 10
f 49 10 22
f 49 22 31
f 50 14 31
f 50 39 14
f 50 25 39
f 50 31 22
f 51 33 9
f 51 22 33
f 52 51 32
f 52 22 51
f 52 50 22
f 52 25 50
f 53 16 25
f 53 52 32
f 53 25 52
f 54 34 33
f 54 18 34
f 54 33 22
f 54 22 10
f 54 10 43
f 54 43 27
f 54 27 18
f 55 34 23
f 55 9 33
f 55 33 34
f 56 40 35
f 56 23 40
f 56 55 23
f 56 9 55
f 56 51 9
f 56 35 51
f 57 35 16
f 57 51 35
f 57 32 51
f 57 53 32
f 57 16 53
f 58 15 36
f 58 37 15
f 58 42 37
f 58 24 42
f 58 36 12
f 58 12 24
f 59 15 37
f 59 34 18
f 59 18 44
f 59 44 29
f 59 29 15
f 59 37 23
f 59 23 34
f 60 24 12
f 60 12 38
f 60 42 24
f 60 26 42
f 61 38 19
f 61 60 38
f 61 26 60
f 62 30 19
f 62 19 38
f 62 38 12
f 62 47 30
f 62 12 47
f 63 37 5
f 63 5 40
f 63 40 23
f 63 23 37
f 64 19 41
f 64 61 19
f 64 26 61
f 64 41 13
f 64 13 26

