# https://github.com/mikedh/trimesh
v 0.06390182 0.20882245 0.05268202
v 0.07514842 0.20892591 0.03747930
v 0.06256489 0.23152197 0.04364955
v 0.04609873 0.25385966 0.03739664
v 0.04681189 0.20907143 0.03814055
v 0.06876651 0.22939006 0.03676221
v 0.04550015 0.21909055 0.06568904
v 0.07087304 0.20870673 0.04410605
v 0.06369551 0.23724049 0.03680917
v 0.07406090 0.21637929 0.03686289
v 0.05493292 0.22365289 0.05663617
v 0.04664669 0.20902982 0.06755619
v 0.04545185 0.25288674 0.03941956
v 0.07415332 0.20880994 0.03927234
v 0.06781000 0.22887482 0.03884752
v 0.04817629 0.25292696 0.03674976
v 0.06538387 0.21624049 0.04893844
v 0.05509323 0.21627845 0.05940068
v 0.05021388 0.20863452 0.06526992
v 0.04531017 0.23466869 0.05757164
v 0.07066978 0.21134838 0.04392968
v 0.07320998 0.21619467 0.03846853
v 0.06280200 0.23656794 0.03891214
v 0.07049755 0.22408159 0.03853445
v 0.06262944 0.22376898 0.04872468
v 0.04975201 0.22117590 0.06178518
v 0.04967226 0.21354318 0.06452973
v 0.04970699 0.23132327 0.05650982
v 0.06781749 0.22141410 0.04370287
v 0.04752942 0.25195405 0.03877268
v 0.07131979 0.22434380 0.03683841
v 0.04723060 0.21857757 0.06472212
v 0.04729586 0.23399962 0.05661426
f 10 2 5
f 12 7 5
f 13 4 5
f 14 8 5
f 14 5 2
f 15 6 9
f 16 9 6
f 16 5 4
f 16 4 13
f 16 10 5
f 16 6 10
f 18 17 11
f 18 1 17
f 19 8 1
f 19 1 18
f 19 12 5
f 19 5 8
f 20 13 5
f 20 5 7
f 21 8 14
f 21 17 1
f 21 1 8
f 22 14 2
f 22 2 10
f 22 21 14
f 23 15 9
f 23 3 15
f 23 9 16
f 24 6 15
f 24 22 10
f 25 3 11
f 25 11 17
f 25 15 3
f 26 18 11
f 27 19 18
f 27 7 12
f 27 12 19
f 28 11 3
f 28 26 11
f 28 20 7
f 28 7 26
f 29 17 21
f 29 21 22
f 29 22 24
f 29 25 17
f 29 24 15
f 29 15 25
f 30 23 16
f 30 16 13
f 30 13 20
f 31 24 10
f 31 10 6
f 31 6 24
f 32 26 7
f 32 7 27
f 32 27 18
f 32 18 26
f 33 20 28
f 33 30 20
f 33 23 30
f 33 28 3
f 33 3 23

