# https://github.com/mikedh/trimesh
v 0.01661734 -0.00039481 0.13026936
v 0.01961495 -0.00041645 0.12605238
v 0.01465137 -0.00014847 0.12637734
v 0.00162945 -0.00034863 0.13359519
v 0.00136052 -0.00054919 0.12638841
v 0.01363771 -0.00042747 0.13238601
v 0.01949377 -0.00032019 0.12596900
v 0.00139714 -0.00018640 0.12638190
v 0.00171264 -0.00037650 0.13371633
v 0.01884078 -0.00037823 0.12752864
f 6 1 3
f 6 3 4
f 6 5 2
f 6 2 1
f 7 3 1
f 7 2 5
f 8 5 4
f 8 4 3
f 8 7 5
f 8 3 7
f 9 6 4
f 9 4 5
f 9 5 6
f 10 7 1
f 10 1 2
f 10 2 7

