# https://github.com/mikedh/trimesh
v -0.00464758 -0.00036788 0.13949761
v -0.00441597 -0.00047262 0.12638968
v -0.00419242 0.00027361 0.13409130
v -0.02209063 -0.00031506 0.14174652
v -0.00432846 -0.00070086 0.13399210
v -0.02638643 -0.00025008 0.12662176
v -0.00439404 0.00014225 0.13937657
v -0.01286795 -0.00045563 0.14353538
v -0.00459817 -0.00013397 0.12639674
v -0.02697412 -0.00022540 0.13050560
v -0.02708184 -0.00042373 0.13051105
v -0.01884186 -0.00043215 0.14366993
v -0.01193879 -0.00010733 0.12639073
v -0.02518490 -0.00033131 0.13842124
v -0.02643055 -0.00040441 0.12650680
v -0.02220751 -0.00043259 0.14173422
v -0.02702885 -0.00042209 0.13175945
v -0.01890376 -0.00042981 0.14364507
v -0.02512456 -0.00033871 0.13852305
v -0.02694561 -0.00029928 0.13175462
f 5 2 3
f 7 3 4
f 7 5 3
f 7 1 5
f 8 5 1
f 8 1 7
f 9 3 2
f 10 4 3
f 10 3 6
f 11 10 6
f 12 8 7
f 12 5 8
f 13 6 3
f 13 3 9
f 13 9 2
f 14 4 10
f 15 11 6
f 15 2 5
f 15 5 11
f 15 13 2
f 15 6 13
f 16 5 12
f 17 10 11
f 17 11 5
f 17 5 16
f 18 16 12
f 18 4 16
f 18 12 7
f 18 7 4
f 19 16 4
f 19 4 14
f 19 17 16
f 19 14 17
f 20 17 14
f 20 14 10
f 20 10 17

