# https://github.com/mikedh/trimesh
v -0.02095460 -0.00024288 0.10999725
v -0.02144727 -0.00050375 0.09217787
v -0.02144408 -0.00014787 0.09218460
v -0.02756342 -0.00022928 0.10455338
v -0.02911965 -0.00042850 0.10235193
v -0.02083192 -0.00017266 0.11000396
v -0.02252267 -0.00037638 0.10928762
v -0.02799174 -0.00039012 0.09291557
v -0.02927727 -0.00037380 0.09506482
v -0.02908349 -0.00041968 0.10240093
v -0.02794358 -0.00032061 0.09296731
f 6 3 4
f 6 1 2
f 6 2 3
f 7 5 2
f 7 2 1
f 7 4 5
f 7 6 4
f 7 1 6
f 8 3 2
f 8 2 5
f 9 8 5
f 10 9 5
f 10 5 4
f 10 4 9
f 11 9 4
f 11 4 3
f 11 3 8
f 11 8 9

