# https://github.com/mikedh/trimesh
v -0.00050285 -0.00051588 0.18343194
v -0.00055142 -0.00043563 0.17580101
v 0.00046591 0.00015709 0.18158636
v -0.01541931 -0.00024608 0.17845744
v -0.01689116 -0.00040512 0.17579159
v -0.01055972 -0.00044915 0.18339586
v -0.00065487 -0.00022871 0.17584024
v -0.01688302 -0.00038615 0.17564645
v -0.00046737 -0.00012178 0.18341356
v -0.00740341 -0.00024824 0.18350909
v -0.01062617 -0.00044562 0.18334826
v -0.00737454 -0.00038795 0.18346744
f 1 2 3
f 5 2 1
f 6 5 1
f 7 3 2
f 8 5 4
f 8 4 3
f 8 3 7
f 8 7 2
f 8 2 5
f 9 1 3
f 10 3 4
f 10 9 3
f 10 1 9
f 11 4 5
f 11 5 6
f 11 10 4
f 11 6 10
f 12 10 6
f 12 6 1
f 12 1 10

