# https://github.com/mikedh/trimesh
v 0.00651864 -0.00050437 0.18241029
v 0.00969831 -0.00076589 0.17655430
v 0.00987881 0.00282967 0.17657592
v 0.00896768 0.00303920 0.17579588
v 0.00286678 0.00036524 0.17579861
v 0.00810315 0.00275934 0.17504570
v 0.00320889 -0.00010241 0.18153754
v 0.00883081 -0.00076429 0.17599821
v 0.00648892 -0.00022605 0.18243788
v 0.00327751 -0.00079756 0.17580500
v 0.00325453 -0.00060373 0.18151501
f 1 2 3
f 6 3 2
f 6 4 3
f 7 3 4
f 7 6 5
f 7 4 6
f 8 6 2
f 9 1 3
f 9 3 7
f 10 5 6
f 10 6 8
f 10 8 2
f 11 9 7
f 11 1 9
f 11 7 5
f 11 5 10
f 11 10 2
f 11 2 1

