# https://github.com/mikedh/trimesh
v 0.01088159 -0.00747808 0.17656209
v 0.01017076 -0.00701150 0.17603615
v 0.01063332 -0.00265288 0.17614379
v 0.00440606 -0.00055278 0.17584126
v 0.00600670 -0.00190510 0.17222683
v 0.00760981 -0.00463938 0.17391498
v 0.00737066 -0.00257856 0.17339612
v 0.00941587 -0.00644879 0.17543780
v 0.00669326 -0.00324184 0.17305098
v 0.00992088 -0.00684748 0.17585126
v 0.00829116 -0.00533714 0.17438449
f 1 3 4
f 5 4 3
f 7 5 3
f 7 3 1
f 7 1 5
f 8 4 6
f 8 1 2
f 9 6 4
f 9 4 5
f 9 5 6
f 10 8 2
f 10 4 8
f 10 2 1
f 10 1 4
f 11 8 6
f 11 6 5
f 11 5 1
f 11 1 8

