# https://github.com/mikedh/trimesh
v -0.00242783 -0.00042998 0.17200720
v -0.00249154 -0.00041856 0.16437570
v -0.00282312 -0.00014857 0.17204408
v -0.01651757 -0.00036469 0.17223773
v -0.01598306 -0.00038490 0.17126361
v -0.00257971 -0.00018729 0.16431124
v -0.01650349 -0.00037070 0.17213199
v -0.01083427 -0.00039063 0.16594619
v -0.01594433 -0.00033161 0.17122227
v -0.01096929 -0.00037633 0.16603970
f 1 3 4
f 5 2 1
f 6 1 2
f 6 3 1
f 7 5 1
f 7 1 4
f 8 6 2
f 8 2 5
f 9 4 3
f 9 3 6
f 9 7 4
f 9 5 7
f 10 9 6
f 10 6 8
f 10 8 5
f 10 5 9

