# https://github.com/mikedh/trimesh
v 0.00321595 -0.00073564 0.18909172
v 0.00325736 -0.00066225 0.18340848
v 0.00325069 0.00003578 0.18909644
v 0.00139827 -0.00000115 0.18911843
v 0.00136226 -0.00064987 0.18340876
v 0.00320707 -0.00072414 0.18536590
v 0.00141123 -0.00073230 0.18910326
v 0.00135726 -0.00001626 0.18340354
v 0.00146336 -0.00069849 0.18532501
v 0.00323948 -0.00003905 0.18349912
f 1 2 3
f 1 3 4
f 6 5 2
f 6 2 1
f 7 1 4
f 7 4 5
f 7 6 1
f 8 2 5
f 8 5 4
f 8 4 3
f 9 7 5
f 9 5 6
f 9 6 7
f 10 8 3
f 10 3 2
f 10 2 8

