# https://github.com/mikedh/trimesh
v 0.00040820 -0.00047412 0.16607120
v -0.00101644 -0.00080127 0.15126076
v -0.00095896 0.00020064 0.15133642
v -0.00292054 -0.00027119 0.16598750
v -0.00220155 -0.00067011 0.16053285
v -0.00226461 -0.00079130 0.15096410
v 0.00065501 0.00019111 0.16589094
v -0.00033199 -0.00075361 0.16032383
v -0.00298248 -0.00037276 0.16625676
v -0.00208571 0.00024983 0.15109007
f 6 3 2
f 7 1 2
f 7 2 3
f 8 2 1
f 8 6 2
f 8 5 6
f 9 6 5
f 9 7 4
f 9 1 7
f 9 8 1
f 9 5 8
f 10 3 6
f 10 7 3
f 10 4 7
f 10 9 4
f 10 6 9

