# https://github.com/mikedh/trimesh
v 0.00320386 -0.00060682 0.18156837
v 0.00277041 -0.00096465 0.17580475
v 0.00286678 0.00036524 0.17579861
v 0.00046591 0.00015709 0.18158636
v -0.00038064 -0.00044306 0.18168778
v 0.00320889 -0.00010241 0.18153754
v -0.00065487 -0.00022871 0.17584024
v 0.00251240 0.00018828 0.17935499
v -0.00055142 -0.00043563 0.17580101
v -0.00061020 -0.00041251 0.17958923
v -0.00061213 -0.00042520 0.17768908
f 1 2 3
f 5 2 1
f 6 1 3
f 6 5 1
f 6 4 5
f 7 4 3
f 8 6 3
f 8 3 4
f 8 4 6
f 9 7 3
f 9 3 2
f 10 5 4
f 10 4 7
f 11 9 2
f 11 2 5
f 11 5 10
f 11 10 7
f 11 7 9

