# https://github.com/mikedh/trimesh
v 0.00309148 -0.00086711 0.17003520
v 0.00191511 -0.00045214 0.16309236
v 0.00301057 0.00024174 0.17001374
v -0.00054334 -0.00071465 0.15869936
v 0.00042317 0.00015751 0.15894961
v 0.00071178 -0.00038834 0.15885375
v 0.00097126 -0.00033169 0.17004091
v 0.00110780 -0.00000060 0.16114728
v -0.00060596 0.00042155 0.15868851
v 0.00194356 -0.00071089 0.17008260
v -0.00033199 -0.00075361 0.16032383
f 1 2 3
f 6 2 1
f 6 1 4
f 6 5 2
f 8 5 3
f 8 3 2
f 8 2 5
f 9 6 4
f 9 5 6
f 9 7 3
f 9 3 5
f 10 1 3
f 10 3 7
f 11 9 4
f 11 7 9
f 11 10 7
f 11 4 1
f 11 1 10

