# https://github.com/mikedh/trimesh
v 0.00171264 -0.00037650 0.13371633
v 0.00136052 -0.00054919 0.12638841
v 0.00139714 -0.00018640 0.12638190
v -0.00419242 0.00027361 0.13409130
v -0.00392596 -0.00079269 0.13403674
v -0.00459817 -0.00013397 0.12639674
v 0.00162945 -0.00034863 0.13359519
v -0.00441597 -0.00047262 0.12638968
v -0.00442146 -0.00048685 0.13017713
v -0.00303829 -0.00069952 0.13025584
f 1 2 3
f 5 2 1
f 5 1 4
f 6 4 3
f 7 1 3
f 7 3 4
f 7 4 1
f 8 6 3
f 8 3 2
f 9 5 4
f 9 4 6
f 9 8 5
f 9 6 8
f 10 8 2
f 10 2 5
f 10 5 8

