# https://github.com/mikedh/trimesh
v 0.01466227 -0.00056856 0.13969223
v 0.01461817 -0.00034007 0.13652012
v 0.01465256 -0.00015201 0.13968943
v 0.00667110 -0.00038587 0.14013447
v 0.00171264 -0.00037650 0.13371633
v 0.01086738 -0.00043436 0.14110733
v 0.01075208 -0.00049082 0.13301135
v 0.00264077 -0.00042413 0.13487998
v 0.00267275 -0.00031117 0.13491773
v 0.01076420 -0.00025218 0.14109054
v 0.01069526 -0.00032536 0.13301013
v 0.00472990 -0.00036450 0.13790466
v 0.01461460 -0.00033144 0.13651410
v 0.00162945 -0.00034863 0.13359519
f 1 2 3
f 6 1 3
f 6 4 1
f 7 2 1
f 8 1 4
f 8 7 1
f 8 5 7
f 10 6 3
f 10 4 6
f 10 9 4
f 10 3 9
f 11 9 3
f 12 8 4
f 12 5 8
f 12 4 9
f 13 11 3
f 13 3 2
f 13 2 7
f 13 7 11
f 14 11 7
f 14 7 5
f 14 9 11
f 14 12 9
f 14 5 12

