# https://github.com/mikedh/trimesh
v 0.00896623 -0.00049964 0.10547568
v 0.00896104 -0.00055400 0.09978040
v 0.00900560 -0.00015852 0.10545796
v 0.00898585 -0.00007887 0.09978420
v 0.00396137 -0.00042791 0.09778203
v 0.00706590 -0.00054629 0.09787892
v 0.00681406 -0.00044590 0.10443734
v 0.00708614 -0.00012268 0.09788377
v 0.00497856 -0.00035977 0.10104356
v 0.00493753 -0.00043075 0.10104866
v 0.00402397 -0.00035521 0.09776391
v 0.00679980 -0.00044552 0.10441487
f 1 2 3
f 3 2 4
f 6 2 1
f 6 4 2
f 7 1 3
f 7 6 1
f 8 3 4
f 8 4 6
f 9 3 8
f 10 5 6
f 10 6 7
f 10 9 5
f 11 8 6
f 11 6 5
f 11 9 8
f 11 5 9
f 12 10 7
f 12 9 10
f 12 7 3
f 12 3 9

