# https://github.com/mikedh/trimesh
v 0.00513878 -0.00017275 0.19676487
v 0.00882972 -0.00046497 0.18445945
v 0.00880511 -0.00013166 0.18467639
v 0.00313552 -0.00005579 0.19764096
v 0.00325736 -0.00066225 0.18340848
v 0.00909913 -0.00025597 0.19187047
v 0.00306008 -0.00026437 0.19765975
v 0.00323948 -0.00003905 0.18349912
v 0.00517536 -0.00017130 0.19672723
v 0.00916191 -0.00026303 0.19177333
f 6 3 4
f 7 1 4
f 8 3 2
f 8 2 5
f 8 4 3
f 8 7 4
f 8 5 7
f 9 6 4
f 9 4 1
f 9 1 6
f 10 2 3
f 10 3 6
f 10 5 2
f 10 7 5
f 10 6 1
f 10 1 7

