# https://github.com/mikedh/trimesh
v 0.00706096 -0.00052668 0.07697272
v 0.00713344 -0.00044574 0.06760925
v 0.00405249 0.00021910 0.06556923
v 0.00125736 -0.00012695 0.07701484
v 0.00245658 -0.00111929 0.06536606
v 0.00708864 -0.00019685 0.07697017
v 0.00387867 -0.00115519 0.06553689
v 0.00134344 -0.00054060 0.07697743
v 0.00150366 -0.00012621 0.06557291
v 0.00716861 -0.00040874 0.06778137
v 0.00121946 -0.00052448 0.07508925
f 6 3 4
f 6 4 1
f 7 2 1
f 7 5 3
f 7 3 2
f 8 1 4
f 8 7 1
f 8 5 7
f 9 4 3
f 9 3 5
f 10 6 1
f 10 1 2
f 10 2 3
f 10 3 6
f 11 8 4
f 11 4 9
f 11 9 5
f 11 5 8

