# https://github.com/mikedh/trimesh
v 0.01961495 -0.00041645 0.12605238
v 0.02050905 -0.00023672 0.11935568
v 0.01949377 -0.00032019 0.12596900
v -0.02638643 -0.00025008 0.12662176
v -0.02340433 -0.00041545 0.12022245
v 0.02046871 -0.00028186 0.12380873
v 0.01921174 -0.00041755 0.11566360
v -0.02643055 -0.00040441 0.12650680
v -0.02024333 -0.00026910 0.11708404
v -0.02534601 -0.00040272 0.12355487
v -0.02020403 -0.00031596 0.11705260
v 0.01914072 -0.00030672 0.11568245
v 0.02048188 -0.00024204 0.11925905
f 1 3 4
f 6 2 4
f 6 4 3
f 6 3 1
f 7 1 5
f 7 6 1
f 8 5 1
f 8 1 4
f 9 5 4
f 9 4 2
f 10 8 4
f 10 4 5
f 10 5 8
f 11 7 5
f 11 5 9
f 12 9 2
f 12 11 9
f 12 7 11
f 13 12 2
f 13 7 12
f 13 2 6
f 13 6 7

