# https://github.com/mikedh/trimesh
v 0.00424782 -0.00135526 0.01424323
v 0.00444626 -0.00103416 0.00003833
v 0.00441224 0.00078775 0.00028515
v 0.00334639 0.00112914 0.01424373
v 0.00245042 -0.00095875 0.00012579
v 0.00371119 0.00113913 0.01423926
v 0.00250434 -0.00129354 0.01424600
v 0.00254989 0.00079294 0.00004740
v 0.00267493 0.00102177 0.00107412
v 0.00215382 0.00053164 0.01424553
v 0.00423771 0.00089607 0.00104411
v 0.00260158 0.00093031 0.01232060
f 1 2 3
f 6 1 3
f 6 4 1
f 7 5 2
f 7 2 1
f 7 1 4
f 8 3 2
f 8 2 5
f 9 3 8
f 9 4 6
f 10 8 5
f 10 5 7
f 10 9 8
f 10 7 4
f 11 9 6
f 11 6 3
f 11 3 9
f 12 10 4
f 12 4 9
f 12 9 10

