# https://github.com/mikedh/trimesh
v 0.00135759 -0.00053331 0.11498656
v 0.00165470 -0.00040556 0.10995305
v 0.00135106 -0.00015204 0.11500619
v -0.00194062 0.00017253 0.11504618
v -0.00201116 -0.00072542 0.10928564
v -0.00074563 0.00009383 0.10946806
v -0.00236207 -0.00057054 0.11499036
v 0.00162412 -0.00037424 0.11001513
v -0.00254047 0.00000157 0.10883984
v -0.00181581 -0.00075591 0.11308036
v -0.00275163 -0.00050730 0.10890544
v -0.00088243 -0.00055018 0.10940817
f 1 2 3
f 1 3 4
f 5 2 1
f 6 4 3
f 7 1 4
f 8 6 3
f 8 3 2
f 8 2 6
f 9 4 6
f 9 7 4
f 9 6 2
f 10 5 1
f 10 1 7
f 11 7 9
f 11 10 7
f 11 5 10
f 11 9 2
f 12 11 2
f 12 2 5
f 12 5 11

