# https://github.com/mikedh/trimesh
v 0.01833775 -0.00033998 0.14582496
v 0.01807461 -0.00040237 0.13897601
v 0.01465256 -0.00015201 0.13968943
v 0.01280526 -0.00025503 0.14581465
v 0.01086264 -0.00056351 0.13969091
v 0.01830788 -0.00025029 0.14590644
v 0.01284150 -0.00044285 0.14565321
v 0.01086705 -0.00016053 0.13966035
v 0.01076420 -0.00025218 0.14109054
v 0.01086738 -0.00043436 0.14110733
f 5 2 1
f 6 3 4
f 6 1 2
f 6 2 3
f 7 5 1
f 7 6 4
f 7 1 6
f 8 3 2
f 8 2 5
f 8 4 3
f 9 8 5
f 9 4 8
f 10 7 4
f 10 4 9
f 10 9 5
f 10 5 7

