# https://github.com/mikedh/trimesh
v 0.00137107 -0.00057146 0.08267812
v 0.00150314 -0.00012164 0.06747347
v 0.00113897 -0.00005768 0.08267140
v -0.02300610 -0.00044827 0.08196464
v 0.00137337 -0.00064870 0.06746521
v -0.02124326 -0.00033455 0.07086439
v 0.00141267 -0.00017217 0.07311455
v -0.02302820 -0.00044246 0.08189038
v -0.02337465 -0.00045394 0.07410374
v -0.01320985 -0.00031071 0.06558036
v -0.00705689 -0.00032606 0.06524716
v -0.01965005 -0.00041996 0.06898532
v -0.00709910 -0.00027423 0.06525445
v -0.02136577 -0.00035491 0.07101694
v -0.01974765 -0.00040814 0.06909846
f 1 3 4
f 5 2 1
f 5 1 4
f 6 3 2
f 7 1 2
f 7 2 3
f 7 3 1
f 8 4 3
f 8 3 6
f 9 5 4
f 9 8 6
f 9 4 8
f 10 6 2
f 11 2 5
f 11 5 10
f 12 10 5
f 12 5 9
f 13 11 10
f 13 10 2
f 13 2 11
f 14 12 9
f 14 9 6
f 15 6 10
f 15 10 12
f 15 14 6
f 15 12 14

