# https://github.com/mikedh/trimesh
v -0.00340686 -0.00082875 0.13982281
v -0.00384132 -0.00078465 0.13397589
v -0.00315684 0.00026849 0.13976776
v -0.00407294 0.00006396 0.14150468
v -0.00676089 -0.00049385 0.13576710
v -0.00405269 -0.00059733 0.14154845
v -0.00392596 -0.00079269 0.13403674
v -0.00369287 0.00022123 0.13387850
v -0.00625114 -0.00053209 0.13398922
v -0.00645340 -0.00013725 0.13392291
f 1 2 3
f 6 1 3
f 6 3 4
f 6 5 1
f 6 4 5
f 7 2 1
f 7 1 5
f 8 3 2
f 9 7 5
f 9 2 7
f 10 5 4
f 10 4 3
f 10 3 8
f 10 9 5
f 10 8 2
f 10 2 9

