# https://github.com/mikedh/trimesh
v 0.00136112 -0.00072969 0.18910746
v 0.00136226 -0.00064987 0.18340876
v 0.00139827 -0.00000115 0.18911843
v -0.00396480 -0.00022449 0.18936533
v -0.00243707 -0.00048620 0.18594876
v 0.00139891 -0.00001990 0.18721805
v 0.00135726 -0.00001626 0.18340354
v -0.00168897 -0.00035698 0.18367616
v -0.00392042 -0.00022066 0.18929247
v -0.00168929 -0.00033267 0.18369077
v -0.00239986 -0.00025580 0.18596118
f 1 3 4
f 5 2 1
f 5 1 4
f 6 1 2
f 6 3 1
f 7 6 2
f 7 3 6
f 8 7 2
f 8 2 5
f 8 5 4
f 9 4 3
f 9 3 7
f 10 8 4
f 10 4 9
f 10 7 8
f 11 10 9
f 11 9 7
f 11 7 10

