# https://github.com/mikedh/trimesh
v 0.00483672 -0.00077559 0.17032078
v 0.00896956 -0.00051244 0.16439390
v 0.00577004 0.00026681 0.17120156
v 0.00301057 0.00024174 0.17001374
v 0.00264002 -0.00093992 0.16673942
v 0.00898618 -0.00020325 0.16436095
v 0.00309148 -0.00086711 0.17003520
v 0.00901956 -0.00047161 0.16621143
v 0.00283412 0.00019155 0.16646569
v 0.00562913 -0.00037336 0.17076584
v 0.00915158 -0.00027147 0.16612757
v 0.00719686 -0.00030890 0.16428520
v 0.00709638 -0.00045536 0.16437724
f 5 2 1
f 7 3 4
f 7 5 1
f 7 4 5
f 8 1 2
f 9 4 3
f 9 3 6
f 9 5 4
f 10 7 1
f 10 3 7
f 10 8 3
f 10 1 8
f 11 6 3
f 11 3 8
f 11 8 2
f 11 2 6
f 12 9 6
f 12 6 2
f 12 5 9
f 13 12 2
f 13 2 5
f 13 5 12

