# https://github.com/mikedh/trimesh
v 0.01086137 -0.00057596 0.11498502
v 0.01085792 -0.00048673 0.10929629
v 0.01086199 -0.00010632 0.11498255
v 0.00135106 -0.00015204 0.11500619
v 0.00135759 -0.00053331 0.11498656
v 0.00900560 -0.00015852 0.10545796
v 0.00896623 -0.00049964 0.10547568
v 0.01077742 -0.00016017 0.10945273
v 0.00165470 -0.00040556 0.10995305
v 0.00736827 -0.00047263 0.10529170
v 0.00162412 -0.00037424 0.11001513
v 0.00743975 -0.00035008 0.10510541
f 1 2 3
f 1 3 4
f 5 1 4
f 6 4 3
f 7 2 1
f 7 1 5
f 7 6 2
f 8 6 3
f 8 3 2
f 8 2 6
f 10 7 5
f 10 5 9
f 11 9 5
f 11 5 4
f 11 4 6
f 12 6 7
f 12 7 10
f 12 11 6
f 12 10 9
f 12 9 11

