# https://github.com/mikedh/trimesh
v -0.00813106 -0.00070644 0.10928832
v -0.00814237 -0.00054646 0.09978089
v -0.00814431 0.00005031 0.10928600
v -0.02144798 -0.00017098 0.10928279
v -0.02144726 -0.00050538 0.09978043
v -0.00778579 -0.00020545 0.10752674
v -0.02144613 -0.00054178 0.10928444
v -0.00814608 -0.00012678 0.09977078
v -0.02144549 -0.00013405 0.09978051
v -0.01384374 -0.00012354 0.09978177
f 5 2 1
f 6 1 2
f 6 3 1
f 7 5 1
f 7 4 5
f 7 1 3
f 7 3 4
f 8 2 5
f 8 6 2
f 8 3 6
f 9 8 5
f 9 5 4
f 9 4 3
f 10 9 3
f 10 3 8
f 10 8 9

