{"scene":0,"scenes":[{"nodes":[0]}],"asset":{"version":"2.0","generator":"https://github.com/mikedh/trimesh"},"accessors":[{"componentType":5125,"type":"SCALAR","bufferView":0,"count":5733,"max":[5730],"min":[0]},{"componentType":5126,"type":"VEC3","byteOffset":0,"bufferView":1,"count":5731,"max":[0.029999999329447746,0.19765974581241608,0.007791994605213404],"min":[-0.029999999329447746,0.0,-0.007791994605213404]},{"componentType":5126,"type":"VEC2","byteOffset":0,"bufferView":3,"count":5731,"max":[0.9992319345474243,0.9993178844451904],"min":[0.0007680491544306278,0.0006821155548095703]}],"meshes":[{"name":"geometry_0.001","extras":{"units":"meters","from_gltf_primitive":false,"name":"geometry_0.001","node":"geometry_0.001"},"primitives":[{"attributes":{"POSITION":1,"TEXCOORD_0":2},"indices":0,"mode":4,"material":0}]}],"images":[{"bufferView":2,"mimeType":"image/png"}],"textures":[{"source":0}],"materials":[{"pbrMetallicRoughness":{"baseColorTexture":{"index":0}},"name":"Material_0.001","doubleSided":false}],"nodes":[{"name":"world","children":[1]},{"name":"geometry_0.001","mesh":0}],"buffers":[{"uri":"gltf_buffer_0.bin","byteLength":22932},{"uri":"gltf_buffer_1.bin","byteLength":68772},{"uri":"gltf_buffer_2.bin","byteLength":950112},{"uri":"gltf_buffer_3.bin","byteLength":45848}],"bufferViews":[{"buffer":0,"byteOffset":0,"byteLength":22932},{"buffer":1,"byteOffset":0,"byteLength":68772},{"buffer":2,"byteOffset":0,"byteLength":950112},{"buffer":3,"byteOffset":0,"byteLength":45848}]}