# https://github.com/mikedh/trimesh
v 0.01921174 -0.00041755 0.11566360
v 0.02972927 -0.00023255 0.09677636
v 0.03000000 -0.00021103 0.10107780
v 0.01841485 -0.00020257 0.11499768
v 0.01846136 -0.00046418 0.09029769
v 0.01844845 -0.00008080 0.09029655
v 0.01914072 -0.00030672 0.11568245
v 0.02842138 -0.00038593 0.10428875
v 0.01844727 -0.00045705 0.11498667
v 0.02679138 -0.00037819 0.09213849
v 0.02792755 -0.00023657 0.09349066
v 0.02969574 -0.00023790 0.09668138
v 0.02681925 -0.00037875 0.09215564
v 0.02796667 -0.00023899 0.09354595
f 6 3 2
f 6 4 3
f 6 5 4
f 7 3 4
f 8 7 1
f 8 3 7
f 9 4 5
f 9 7 4
f 9 1 7
f 9 8 1
f 9 5 8
f 10 5 6
f 11 10 6
f 11 6 2
f 12 2 3
f 12 3 8
f 13 10 11
f 13 12 8
f 13 8 5
f 13 5 10
f 14 13 11
f 14 12 13
f 14 11 2
f 14 2 12

