# https://github.com/mikedh/trimesh
v 0.00306008 -0.00026437 0.19765975
v 0.00325946 -0.00073452 0.18910695
v 0.00325069 0.00003578 0.18909644
v -0.00304246 -0.00040671 0.19718513
v -0.00443381 -0.00026504 0.19013520
v -0.00053115 -0.00008771 0.19764376
v 0.00327038 -0.00004755 0.19670054
v -0.00442952 -0.00048984 0.19591596
v 0.00313552 -0.00005579 0.19764096
v -0.00447819 -0.00026888 0.19020806
v -0.00445673 -0.00048747 0.19585459
f 2 1 4
f 5 3 2
f 6 4 1
f 6 3 5
f 7 1 2
f 7 2 3
f 8 2 4
f 9 6 1
f 9 1 7
f 9 7 3
f 9 3 6
f 10 5 2
f 10 6 5
f 11 10 2
f 11 2 8
f 11 6 10
f 11 8 4
f 11 4 6

