# https://github.com/mikedh/trimesh
v 0.01063332 -0.00265288 0.17614379
v 0.01065680 0.00114134 0.17610196
v -0.00065487 -0.00022871 0.17584024
v -0.00055142 -0.00043563 0.17580101
v 0.00194935 -0.00071267 0.17200466
v 0.00737066 -0.00257856 0.17339612
v 0.00739944 0.00111848 0.17343102
v -0.00074248 -0.00046077 0.17288657
v 0.00976937 0.00114721 0.17549148
v -0.00080949 -0.00033076 0.17295956
f 1 2 3
f 1 3 4
f 6 2 1
f 6 1 4
f 7 6 5
f 7 2 6
f 8 6 4
f 8 5 6
f 9 7 3
f 9 3 2
f 9 2 7
f 10 8 4
f 10 4 3
f 10 3 7
f 10 7 5
f 10 5 8

