# https://github.com/mikedh/trimesh
v 0.02377099 -0.00030605 0.08425970
v 0.02671379 -0.00033731 0.07709204
v 0.02622411 -0.00031240 0.08003099
v 0.02378185 -0.00026754 0.08417292
v 0.02415623 -0.00046179 0.07697429
v 0.02414988 -0.00019911 0.07697626
v 0.02445443 -0.00028876 0.08341811
v 0.02620253 -0.00031418 0.08008511
v 0.02665345 -0.00025580 0.07704605
v 0.02439734 -0.00028352 0.08349978
f 6 5 1
f 6 1 4
f 8 5 2
f 8 2 3
f 8 1 5
f 8 7 1
f 9 3 2
f 9 2 5
f 9 5 6
f 9 6 4
f 10 4 1
f 10 1 7
f 10 9 4
f 10 3 9
f 10 8 3
f 10 7 8

