# https://github.com/mikedh/trimesh
v 0.00417162 -0.00045504 0.15678534
v 0.00393890 -0.00034342 0.15212658
v -0.00060596 0.00042155 0.15868851
v 0.00414390 -0.00046965 0.15662236
v 0.00382516 -0.00057006 0.15213994
v -0.00063588 -0.00072092 0.15875683
v -0.00095896 0.00020064 0.15133642
v 0.00042317 0.00015751 0.15894961
v 0.00005970 -0.00068669 0.15874851
v -0.00098691 -0.00071769 0.15122827
v -0.00092828 -0.00084161 0.15305198
f 1 2 3
f 5 2 1
f 5 1 4
f 7 3 2
f 8 1 3
f 8 3 6
f 9 4 1
f 9 8 6
f 9 1 8
f 9 5 4
f 10 7 2
f 10 2 5
f 11 6 3
f 11 3 7
f 11 7 10
f 11 10 5
f 11 9 6
f 11 5 9

