# https://github.com/mikedh/trimesh
v 0.02074804 -0.00030869 0.16508907
v 0.02387108 -0.00023164 0.15013979
v 0.02416627 -0.00018907 0.16000342
v 0.00110780 -0.00000060 0.16114728
v 0.00498367 -0.00044535 0.15050995
v 0.01911034 -0.00029568 0.16638159
v 0.02260085 -0.00036734 0.16291543
v 0.00872922 -0.00036348 0.14733658
v 0.02253228 -0.00026131 0.16295235
v 0.00124893 -0.00038654 0.16108286
v 0.02417738 -0.00026466 0.15994630
v 0.02095424 -0.00039456 0.14678161
v 0.00987135 -0.00025768 0.16680597
v 0.00660516 -0.00037049 0.16360187
v 0.00870758 -0.00041711 0.14731735
v 0.00982265 -0.00026200 0.16677505
f 3 2 4
f 6 3 4
f 7 1 6
f 8 5 4
f 8 4 2
f 9 6 1
f 9 3 6
f 9 7 3
f 9 1 7
f 10 4 5
f 11 2 3
f 11 3 7
f 12 7 5
f 12 11 7
f 12 2 11
f 12 8 2
f 13 6 4
f 14 7 6
f 14 10 5
f 14 5 7
f 15 12 5
f 15 5 8
f 15 8 12
f 16 10 14
f 16 13 4
f 16 4 10
f 16 14 6
f 16 6 13

