# https://github.com/mikedh/trimesh
v -0.00275163 -0.00050730 0.10890544
v -0.00254047 0.00000157 0.10883984
v -0.00703171 -0.00064592 0.10932186
v -0.00814431 0.00005031 0.10928600
v -0.00545485 -0.00094030 0.10497399
v -0.00352046 0.00001420 0.10531601
v -0.00787828 -0.00074716 0.10924612
v -0.00318296 -0.00051819 0.10706904
v -0.00819972 -0.00017144 0.10543356
v -0.00595964 0.00007216 0.10559659
v -0.00824523 -0.00050851 0.10542543
f 1 2 3
f 3 2 4
f 7 5 1
f 7 1 3
f 7 3 4
f 8 6 2
f 8 2 1
f 8 1 5
f 8 5 6
f 9 6 5
f 10 4 2
f 10 2 6
f 10 9 4
f 10 6 9
f 11 7 4
f 11 4 9
f 11 9 5
f 11 5 7

