# https://github.com/mikedh/trimesh
v 0.02671379 -0.00033731 0.07709204
v 0.02643592 -0.00023401 0.07409219
v 0.02665345 -0.00025580 0.07704605
v 0.01085502 -0.00016098 0.07696665
v 0.01170863 -0.00049709 0.06539325
v 0.02116659 -0.00041268 0.06730470
v 0.01086211 -0.00052274 0.07697271
v 0.01177391 -0.00025621 0.06541000
v 0.01783464 -0.00036285 0.06518361
v 0.02425405 -0.00023415 0.07045994
f 1 2 3
f 1 3 4
f 3 2 4
f 6 2 1
f 7 1 4
f 7 4 5
f 7 6 1
f 7 5 6
f 8 5 4
f 9 6 5
f 9 5 8
f 10 8 4
f 10 4 2
f 10 9 8
f 10 2 6
f 10 6 9

