# https://github.com/mikedh/trimesh
v 0.01527412 -0.00721399 0.17930229
v 0.01714190 -0.00626585 0.18006742
v 0.01622159 0.00702757 0.17976949
v 0.01216060 0.00777165 0.17718430
v 0.01192034 -0.00759842 0.17722838
v 0.01719069 0.00466894 0.18002480
v 0.01767589 0.00557410 0.18039726
v 0.01327716 -0.00760980 0.17804649
v 0.01711578 -0.00586504 0.17994488
v 0.01356127 -0.00762546 0.17836395
v 0.01370723 0.00778598 0.17826277
v 0.01519453 0.00744832 0.17918902
f 7 1 2
f 7 3 1
f 7 6 4
f 7 4 3
f 8 2 1
f 9 5 4
f 9 8 5
f 9 2 8
f 9 4 6
f 9 7 2
f 9 6 7
f 10 1 3
f 10 8 1
f 10 5 8
f 11 3 4
f 11 4 5
f 11 5 10
f 12 11 10
f 12 10 3
f 12 3 11

