# https://github.com/mikedh/trimesh
v 0.40970433 0.00456037 0.07419471
v 0.40972109 0.00465930 0.00436933
v 0.40972579 0.02716503 0.07421572
v 0.20024799 0.02673508 0.07418958
v 0.20025618 0.00443958 0.07419759
v 0.40975124 0.02702498 0.00437683
v 0.20024891 0.02648925 0.00436434
v 0.20901634 0.02677575 0.07421973
v 0.20025171 0.00462908 0.00437505
v 0.23520310 0.02674765 0.03931282
v 0.30501129 0.02678551 0.00438486
f 5 2 1
f 6 1 2
f 6 3 1
f 7 6 2
f 8 4 5
f 8 3 6
f 8 7 4
f 8 5 1
f 8 1 3
f 9 7 2
f 9 2 5
f 9 5 4
f 9 4 7
f 10 8 6
f 10 7 8
f 11 10 6
f 11 6 7
f 11 7 10

