# https://github.com/mikedh/trimesh
v -0.26234110 0.00435889 0.21383822
v -0.26233906 0.00439911 0.17020911
v -0.26234298 0.02686565 0.21384112
v -0.37585906 0.02658573 0.21386591
v -0.37861453 0.00289899 0.21515169
v -0.31470135 0.02678047 0.17021789
v -0.26233134 0.02683023 0.17022091
v -0.34087460 0.02678131 0.21383595
v -0.37580938 0.02657408 0.17019937
v -0.34088839 0.02678899 0.18767453
v -0.37580381 0.00469707 0.17020519
f 5 2 1
f 5 1 3
f 5 3 4
f 7 1 2
f 7 3 1
f 8 4 3
f 9 5 4
f 9 7 2
f 9 6 7
f 10 7 6
f 10 3 7
f 10 8 3
f 10 6 9
f 10 9 4
f 10 4 8
f 11 9 2
f 11 2 5
f 11 5 9

