# https://github.com/mikedh/trimesh
v 0.39005676 0.00278496 -0.22137372
v 0.38251561 0.00364724 -0.23434708
v 0.38946225 0.02888421 -0.22105246
v 0.30498350 0.02509147 -0.22255603
v 0.30498375 0.00619991 -0.22253885
v 0.30837661 0.02917201 -0.31196395
v 0.38225495 0.02888491 -0.23378632
v 0.30836424 0.00221945 -0.31151141
v 0.37261881 0.02971995 -0.22749436
v 0.30516341 0.02429353 -0.30115523
v 0.33196525 0.02837433 -0.30296059
v 0.33233968 0.00304143 -0.30315214
v 0.34759725 0.02840349 -0.28434772
v 0.34795386 0.00287583 -0.28430279
f 5 1 3
f 5 3 4
f 7 1 2
f 7 3 1
f 8 1 5
f 9 6 4
f 9 4 3
f 9 3 7
f 10 5 4
f 10 4 6
f 10 8 5
f 10 6 8
f 11 6 9
f 12 8 6
f 12 6 11
f 13 7 2
f 13 12 11
f 13 11 9
f 13 9 7
f 14 2 1
f 14 1 8
f 14 8 12
f 14 13 2
f 14 12 13

