# https://github.com/mikedh/trimesh
v 0.40973342 0.00494819 -0.06541023
v 0.39628155 0.00220219 -0.18054173
v 0.40973003 0.02644522 -0.10037367
v 0.35735493 0.02652861 -0.06545878
v 0.34862190 0.00522921 -0.10034938
v 0.34862571 0.02508128 -0.22255792
v 0.40972408 0.02666769 -0.06545934
v 0.40975093 0.00515299 -0.10035424
v 0.35735533 0.00498976 -0.06541107
v 0.37495832 0.02673573 -0.22262798
v 0.34862665 0.02624375 -0.10037105
v 0.34865519 0.00617925 -0.22255608
v 0.40100117 0.02610980 -0.15272574
v 0.37514901 0.00190662 -0.22274524
v 0.40101657 0.00550612 -0.15266170
v 0.39221418 0.02550125 -0.17891454
f 7 4 1
f 8 1 2
f 8 7 1
f 8 3 7
f 9 2 1
f 9 1 4
f 10 7 3
f 10 4 7
f 11 6 5
f 11 10 6
f 11 4 10
f 11 9 4
f 11 5 9
f 12 5 6
f 13 3 8
f 13 10 3
f 14 9 5
f 14 2 9
f 14 5 12
f 14 10 2
f 14 12 6
f 14 6 10
f 15 13 8
f 15 8 2
f 15 2 13
f 16 13 2
f 16 2 10
f 16 10 13

