# https://github.com/mikedh/trimesh
v -0.37968888 0.00131626 0.21579111
v -0.37580648 0.00474873 0.15275833
v -0.37935626 0.02996387 0.21546897
v -0.39476920 0.02819253 0.21047329
v -0.42072151 0.00259554 0.15039002
v -0.42050804 0.02880182 0.15009914
v -0.37603309 0.02662053 0.19658088
v -0.40780090 0.00131097 0.15453402
v -0.39469479 0.00327202 0.21030486
v -0.40020578 0.02813723 0.20025041
v -0.37580925 0.02654961 0.15274311
v -0.41783146 0.00128661 0.15195143
v -0.39025651 0.00084563 0.21234984
v -0.41795090 0.02861756 0.15788421
v -0.41811965 0.00260200 0.15785166
v -0.40044542 0.01815550 0.19957262
v -0.39739350 0.00202884 0.20324416
v -0.41355666 0.00187450 0.16773926
f 1 3 4
f 6 4 3
f 6 2 5
f 7 1 2
f 7 3 1
f 8 2 1
f 10 9 4
f 11 6 3
f 11 3 7
f 11 7 2
f 11 2 6
f 12 5 2
f 12 2 8
f 13 1 4
f 13 4 9
f 13 12 8
f 13 8 1
f 14 6 5
f 14 10 4
f 14 4 6
f 15 14 5
f 15 10 14
f 16 15 9
f 16 9 10
f 16 10 15
f 17 13 9
f 18 15 5
f 18 5 12
f 18 12 13
f 18 13 17
f 18 17 9
f 18 9 15

