# https://github.com/mikedh/trimesh
v -0.20997083 0.00681203 -0.29234040
v -0.20796858 0.00309690 -0.40218379
v -0.20771599 0.02835044 -0.40183161
v -0.30759605 0.02992580 -0.31139745
v -0.29842450 0.00273798 -0.33682010
v -0.20996874 0.02467034 -0.29237411
v -0.30599577 0.00699109 -0.29227566
v -0.24715795 0.02560774 -0.37837164
v -0.30602472 0.02446480 -0.29236613
v -0.23091560 0.02855548 -0.38862908
v -0.24724211 0.00382325 -0.37803112
v -0.29891930 0.02848962 -0.33727393
v -0.21438659 0.00353236 -0.39867024
v -0.28967306 0.00299944 -0.34483615
v -0.28096063 0.02859897 -0.35233057
v -0.28094955 0.01830094 -0.35256729
f 1 2 3
f 5 2 1
f 6 1 3
f 6 3 4
f 7 5 1
f 7 4 5
f 7 1 6
f 9 7 6
f 9 6 4
f 9 4 7
f 10 4 3
f 11 8 10
f 12 5 4
f 13 10 3
f 13 3 2
f 13 11 10
f 13 2 11
f 14 11 2
f 14 2 5
f 14 5 12
f 15 10 8
f 15 12 4
f 15 4 10
f 16 14 12
f 16 12 15
f 16 11 14
f 16 15 8
f 16 8 11

