# https://github.com/mikedh/trimesh
v 0.01695808 0.00413959 0.35348574
v 0.01695508 0.00429107 0.16147801
v 0.01695993 0.02716211 0.35349367
v -0.08777969 0.02714249 0.35349827
v -0.08778473 0.00426179 0.16147961
v -0.08778157 0.02676391 0.16147109
v -0.08777972 0.00411927 0.35349364
v 0.01695634 0.02671764 0.16147123
v -0.08779548 0.02680398 0.17023893
v 0.01695365 0.02680340 0.18768264
f 1 2 3
f 5 2 1
f 6 2 5
f 7 5 1
f 7 1 3
f 7 3 4
f 8 3 2
f 8 2 6
f 9 4 3
f 9 8 6
f 9 6 5
f 9 7 4
f 9 5 7
f 10 9 3
f 10 3 8
f 10 8 9

