# https://github.com/mikedh/trimesh
v 0.17246024 0.00098158 0.41243440
v 0.17489448 0.00067270 0.40791025
v 0.17389986 0.02989206 0.40646229
v 0.07734097 0.02883809 0.44543363
v 0.07805603 0.00416952 0.40586711
v 0.16091428 0.02803154 0.42153677
v 0.17128556 0.02768607 0.41729949
v 0.08736702 0.00081119 0.44073076
v 0.07807005 0.02723333 0.40588175
v 0.17125216 0.00342892 0.41762856
v 0.10359480 0.00067281 0.43789727
v 0.07758024 0.00273946 0.44699438
v 0.14542663 0.00203290 0.42668739
v 0.10997771 0.02798100 0.43883939
v 0.10993273 0.00321985 0.43948123
v 0.16116626 0.00335715 0.42165812
f 5 3 2
f 6 3 4
f 7 2 3
f 7 3 6
f 8 5 2
f 9 5 4
f 9 4 3
f 9 3 5
f 10 1 2
f 10 2 7
f 10 7 6
f 11 8 2
f 11 2 1
f 12 4 5
f 12 5 8
f 12 8 11
f 13 11 1
f 13 1 10
f 14 6 4
f 14 4 12
f 15 12 11
f 15 11 13
f 15 14 12
f 15 6 14
f 16 15 13
f 16 13 10
f 16 10 6
f 16 6 15

