# https://github.com/mikedh/trimesh
v -0.30598056 0.00627094 -0.19634825
v -0.30290368 0.00273389 -0.33265473
v -0.30297391 0.02875207 -0.33286251
v -0.38831820 0.02978543 -0.19801584
v -0.38827099 0.00232784 -0.19785054
v -0.30598382 0.02536098 -0.19637352
v -0.37638026 0.00267663 -0.24415873
v -0.31061906 0.02907930 -0.30576628
v -0.37590531 0.02529805 -0.19644824
v -0.34075940 0.02860602 -0.29332452
v -0.30802150 0.02848162 -0.32876965
v -0.34020717 0.00294926 -0.29349686
v -0.37641956 0.02887752 -0.24406272
v -0.36579106 0.00270520 -0.25978854
v -0.30723030 0.00299036 -0.32887055
v -0.36589572 0.02889444 -0.25960096
f 5 2 1
f 6 1 2
f 6 2 3
f 7 5 4
f 8 6 3
f 8 3 4
f 8 4 6
f 9 5 1
f 9 1 6
f 9 6 4
f 9 4 5
f 11 10 3
f 11 3 2
f 12 10 11
f 13 7 4
f 14 12 2
f 14 10 12
f 14 2 5
f 14 5 7
f 15 12 11
f 15 11 2
f 15 2 12
f 16 13 4
f 16 4 3
f 16 3 10
f 16 10 14
f 16 14 7
f 16 7 13

