# https://github.com/mikedh/trimesh
v -0.37580030 0.00611630 -0.16142333
v -0.37584600 0.00630700 -0.19638892
v -0.37580526 0.02546128 -0.16146311
v -0.41746738 0.02927708 -0.16058135
v -0.41804149 0.00247504 -0.16074474
v -0.38313037 0.02916129 -0.23060374
v -0.37582463 0.02529695 -0.19639307
v -0.38387396 0.00260277 -0.23091506
v -0.40896597 0.02899542 -0.18287197
v -0.40092259 0.00264649 -0.19950352
v -0.39167292 0.02901736 -0.21718737
v -0.39190827 0.00262292 -0.21733742
v -0.40871080 0.00960016 -0.18332963
v -0.38633669 0.02878357 -0.22728685
v -0.41196102 0.00255898 -0.17553269
v -0.38634748 0.00264679 -0.22698606
f 1 3 4
f 5 1 4
f 6 4 3
f 7 1 2
f 7 3 1
f 7 6 3
f 7 2 6
f 8 2 1
f 8 1 5
f 8 6 2
f 9 5 4
f 11 9 4
f 11 4 6
f 11 10 9
f 12 8 5
f 12 10 11
f 13 9 10
f 14 11 6
f 14 6 8
f 14 12 11
f 15 12 5
f 15 10 12
f 15 13 10
f 15 5 9
f 15 9 13
f 16 14 8
f 16 8 12
f 16 12 14

