# https://github.com/mikedh/trimesh
v -0.41069815 0.00579410 -0.05669016
v -0.40447055 0.00162757 -0.16243295
v -0.40421526 0.02959527 -0.16243532
v -0.44579096 0.02894282 -0.05560387
v -0.44470995 0.00222242 -0.05661316
v -0.41922652 0.02893533 -0.15890612
v -0.41071581 0.02571173 -0.05672080
v -0.40197021 0.00592527 -0.09163624
v -0.44565125 0.01843337 -0.05550123
v -0.42717856 0.02932733 -0.13169469
v -0.41918454 0.00256994 -0.15876733
v -0.43369375 0.02982841 -0.05720072
v -0.40202801 0.02559871 -0.13524617
v -0.43672429 0.00262098 -0.09868462
v -0.42738445 0.00297889 -0.13219794
v -0.44420537 0.02924440 -0.06359665
v -0.40198662 0.02556285 -0.09164326
v -0.44445459 0.01846045 -0.06356822
v -0.43701898 0.02895511 -0.09866769
f 5 2 1
f 6 3 2
f 8 1 2
f 9 5 1
f 9 7 4
f 9 1 7
f 10 3 6
f 11 6 2
f 11 2 5
f 12 7 3
f 12 4 7
f 12 3 10
f 13 8 2
f 13 2 3
f 14 11 5
f 15 6 11
f 15 11 14
f 16 12 10
f 16 4 12
f 17 13 3
f 17 3 7
f 17 8 13
f 17 7 1
f 17 1 8
f 18 14 5
f 18 5 9
f 18 9 4
f 18 4 16
f 19 10 6
f 19 6 15
f 19 15 14
f 19 16 10
f 19 18 16
f 19 14 18

