# https://github.com/mikedh/trimesh
v 0.32859477 0.00297664 -0.30732766
v 0.32429582 0.00324473 -0.31177526
v 0.32814059 0.02844573 -0.30729062
v 0.20896751 0.02447123 -0.30983998
v 0.20897039 0.00695362 -0.30984164
v 0.20700127 0.02830587 -0.40211986
v 0.32413915 0.02846125 -0.31153865
v 0.20727155 0.00338450 -0.40273767
v 0.21238574 0.02920485 -0.38528016
v 0.28079555 0.00316999 -0.35291542
v 0.24565137 0.02828523 -0.37836519
v 0.22050004 0.00331661 -0.39499328
v 0.28041006 0.02816096 -0.35295628
v 0.21379620 0.02832469 -0.39849552
v 0.24687549 0.00383620 -0.37836572
v 0.22010055 0.02630956 -0.39562732
f 5 1 3
f 5 3 4
f 6 5 4
f 7 1 2
f 7 3 1
f 8 1 5
f 8 5 6
f 9 6 4
f 9 4 3
f 9 3 7
f 10 2 1
f 11 9 7
f 12 10 1
f 12 1 8
f 13 7 2
f 13 2 10
f 13 11 7
f 14 6 9
f 14 9 11
f 15 10 12
f 15 13 10
f 15 11 13
f 16 12 8
f 16 8 6
f 16 6 14
f 16 15 12
f 16 14 11
f 16 11 15

