# https://github.com/mikedh/trimesh
v -0.02636765 0.00303530 0.45316979
v -0.02668722 0.00418877 0.41461576
v -0.02636985 0.02828132 0.45276833
v -0.08652139 0.02823178 0.44435539
v -0.08764195 0.00066259 0.43947050
v -0.02667348 0.02713849 0.41456278
v -0.06888845 0.02710382 0.44894490
v -0.07920211 0.00082130 0.44052612
v -0.08780455 0.02709018 0.41454975
v -0.08672869 0.00337249 0.44562591
v -0.08823761 0.00137009 0.43468040
v -0.08778374 0.00418557 0.41459126
v -0.06920437 0.00381201 0.44897931
f 6 4 3
f 6 1 2
f 6 3 1
f 7 1 3
f 7 3 4
f 8 5 2
f 8 2 1
f 8 1 5
f 9 4 6
f 10 5 1
f 10 7 4
f 10 4 5
f 11 5 4
f 11 4 9
f 12 9 6
f 12 6 2
f 12 11 9
f 12 2 5
f 12 5 11
f 13 10 1
f 13 1 7
f 13 7 10

