# https://github.com/mikedh/trimesh
v 0.12169305 0.00702822 -0.33601889
v 0.12187684 0.00200009 -0.42410406
v 0.12194269 0.02651527 -0.42396212
v -0.14015184 0.02453840 -0.33602775
v -0.14109279 0.00229105 -0.41735110
v 0.12169451 0.02441900 -0.33602569
v -0.14015596 0.00695239 -0.33602441
v -0.08796389 0.00188199 -0.43342265
v -0.14083373 0.02638581 -0.41670601
v 0.07839008 0.00212724 -0.43473892
v -0.08778809 0.02680049 -0.43206694
v 0.07810702 0.02523525 -0.43312939
f 1 2 3
f 5 2 1
f 6 1 3
f 6 3 4
f 6 4 1
f 7 5 1
f 7 1 4
f 7 4 5
f 8 2 5
f 9 5 4
f 9 8 5
f 10 3 2
f 10 2 8
f 11 9 4
f 11 4 3
f 11 8 9
f 11 10 8
f 12 11 3
f 12 3 10
f 12 10 11

