# https://github.com/mikedh/trimesh
v 0.13914731 0.00432057 0.16148215
v 0.13915705 0.00442513 0.12656706
v 0.13916688 0.02686220 0.16150963
v 0.08678177 0.02674639 0.16147120
v 0.08678214 0.00439538 0.12657907
v 0.08678152 0.00430125 0.16148129
v 0.13915070 0.02671742 0.12655853
v 0.10425806 0.02678680 0.16151495
v 0.13916691 0.02678421 0.14405369
v 0.08678214 0.02659237 0.12655897
f 1 2 3
f 5 2 1
f 6 5 1
f 8 4 6
f 8 7 4
f 8 3 7
f 8 6 1
f 8 1 3
f 9 7 3
f 9 3 2
f 9 2 7
f 10 7 2
f 10 2 5
f 10 4 7
f 10 6 4
f 10 5 6

