# https://github.com/mikedh/trimesh
v -0.02668722 0.00418877 0.41461576
v -0.02668575 0.00412125 0.35349867
v -0.02669424 0.02715671 0.35349736
v -0.18518536 0.02970122 0.39905237
v -0.18431296 0.00229496 0.39808465
v -0.02667348 0.02713849 0.41456278
v -0.08778374 0.00418557 0.41459126
v -0.18379447 0.02710757 0.35349199
v -0.14015754 0.00420492 0.40582887
v -0.08780455 0.02709018 0.41454975
v -0.18378771 0.00417176 0.35349780
f 5 2 1
f 6 3 4
f 6 1 2
f 6 2 3
f 7 5 1
f 8 3 2
f 8 4 3
f 9 7 4
f 9 4 5
f 9 5 7
f 10 6 4
f 10 4 7
f 10 7 1
f 10 1 6
f 11 8 2
f 11 2 5
f 11 5 4
f 11 4 8

