# https://github.com/mikedh/trimesh
v -0.18409024 0.00073804 0.40569675
v -0.18378771 0.00417176 0.35349780
v -0.18180797 0.02918510 0.41015442
v -0.20650460 0.02790865 0.39966660
v -0.21063833 0.00097010 0.38877106
v -0.18379447 0.02710757 0.35349199
v -0.18210697 0.00317240 0.41122562
v -0.20995743 0.02703305 0.35348399
v -0.19635166 0.02814925 0.40471680
v -0.20866351 0.00075239 0.39448970
v -0.20997509 0.00418527 0.35350678
v -0.19660255 0.00317280 0.40439224
v -0.19867984 0.00117804 0.40077576
v -0.20635984 0.00312165 0.39941957
f 5 2 1
f 6 3 2
f 7 1 2
f 7 2 3
f 8 4 3
f 8 3 6
f 8 5 4
f 8 6 2
f 9 7 3
f 9 3 4
f 10 5 1
f 10 4 5
f 11 8 2
f 11 2 5
f 11 5 8
f 12 9 4
f 12 7 9
f 13 10 1
f 13 1 7
f 13 7 12
f 14 12 4
f 14 4 10
f 14 13 12
f 14 10 13

