# https://github.com/mikedh/trimesh
v -0.08774270 0.00719393 -0.41461563
v -0.08716033 0.00295040 -0.44630453
v -0.08708973 0.02912099 -0.44501461
v -0.14105583 0.02910449 -0.41740053
v -0.14109279 0.00229105 -0.41735110
v -0.13748671 0.02850637 -0.43225027
v -0.08778439 0.02407964 -0.41458070
v -0.11049390 0.02882935 -0.44018477
v -0.13725320 0.00302887 -0.43285575
v -0.09058236 0.02885242 -0.43188989
v -0.11401649 0.02405929 -0.41457090
v -0.11156445 0.00270922 -0.44062207
f 1 2 3
f 5 2 1
f 6 5 4
f 7 1 3
f 8 3 2
f 8 6 4
f 8 4 3
f 9 5 6
f 10 7 3
f 10 3 4
f 10 4 7
f 11 5 1
f 11 1 7
f 11 7 4
f 11 4 5
f 12 2 5
f 12 5 9
f 12 8 2
f 12 9 6
f 12 6 8

