# https://github.com/mikedh/trimesh
v -0.43272161 0.00159875 0.06651306
v -0.43228331 0.00344381 -0.05745618
v -0.43237053 0.02950533 0.06626484
v -0.44437521 0.02852493 0.06356443
v -0.44581169 0.00381825 -0.05542862
v -0.44138010 0.00102087 0.06487665
v -0.43369375 0.02982841 -0.05720072
v -0.44432834 0.00311944 0.06335118
v -0.43726092 0.00068510 0.04815105
v -0.44579096 0.02894282 -0.05560387
v -0.44357774 0.00128328 0.04808241
f 1 2 3
f 6 1 3
f 6 3 4
f 7 3 2
f 8 6 4
f 8 4 5
f 9 5 2
f 9 2 1
f 9 1 6
f 10 7 2
f 10 2 5
f 10 5 4
f 10 4 3
f 10 3 7
f 11 8 5
f 11 6 8
f 11 9 6
f 11 5 9

