# https://github.com/mikedh/trimesh
v 0.12187684 0.00200009 -0.42410406
v 0.12082287 0.00245558 -0.43730759
v 0.12215773 0.02960371 -0.42649802
v 0.07872635 0.02962509 -0.43506112
v 0.07788822 0.00282037 -0.44825224
v 0.07805967 0.02414670 -0.42337289
v 0.11007107 0.02848280 -0.44084595
v 0.08680812 0.02417113 -0.42356033
v 0.07805155 0.00706159 -0.42347142
v 0.07769791 0.02889229 -0.44711956
v 0.12066329 0.02886041 -0.43706228
v 0.11019742 0.00273637 -0.44106519
v 0.12154449 0.02983826 -0.43166938
f 1 2 3
f 5 2 1
f 6 3 4
f 8 6 1
f 8 1 3
f 8 3 6
f 9 5 1
f 9 1 6
f 10 6 4
f 10 9 6
f 10 5 9
f 10 7 5
f 11 2 7
f 11 7 10
f 12 7 2
f 12 2 5
f 12 5 7
f 13 10 4
f 13 4 3
f 13 11 10
f 13 3 2
f 13 2 11

