# https://github.com/mikedh/trimesh
v -0.14014363 0.00415977 0.24001722
v -0.14015040 0.00441511 0.12656439
v -0.14014880 0.02700012 0.24003982
v -0.20995957 0.02696880 0.24003178
v -0.20996884 0.00446099 0.12657099
v -0.20996646 0.00423531 0.24002491
v -0.14015047 0.02668796 0.12655864
v -0.20997569 0.02671379 0.12655852
v -0.20997484 0.02678705 0.14405241
v -0.14015551 0.02691340 0.18768512
f 5 2 1
f 6 1 3
f 6 3 4
f 6 5 1
f 7 1 2
f 7 3 1
f 8 5 6
f 8 7 2
f 8 2 5
f 9 7 8
f 9 8 6
f 9 6 4
f 10 3 7
f 10 7 9
f 10 9 4
f 10 4 3

