# https://github.com/mikedh/trimesh
v 0.41647025 0.00101890 0.15984001
v 0.43448150 0.00176143 0.10873903
v 0.41910292 0.02839423 0.15839744
v 0.40557624 0.02980017 0.16357423
v 0.40104178 0.00436204 0.12658318
v 0.40977367 0.02721488 0.10912674
v 0.41976971 0.00314866 0.15866826
v 0.42733187 0.00073815 0.10926633
v 0.40610494 0.00129258 0.16240415
v 0.43379975 0.02939757 0.10846772
v 0.40110378 0.02727029 0.12661734
v 0.42574661 0.00301923 0.14056508
v 0.42444158 0.00093056 0.13502374
v 0.40976428 0.00437474 0.10912644
v 0.42224912 0.00138731 0.11001505
v 0.42530601 0.02842530 0.14050134
f 7 3 4
f 7 4 1
f 9 1 4
f 9 4 5
f 9 8 1
f 10 6 4
f 10 4 3
f 11 6 5
f 11 5 4
f 11 4 6
f 12 7 1
f 12 1 2
f 13 8 2
f 13 2 1
f 13 1 8
f 14 2 8
f 14 10 2
f 14 6 10
f 14 5 6
f 15 9 5
f 15 8 9
f 15 14 8
f 15 5 14
f 16 12 2
f 16 2 10
f 16 10 3
f 16 3 7
f 16 7 12

