# https://github.com/mikedh/trimesh
v -0.14015596 0.00695239 -0.33602441
v -0.13983322 0.00281787 -0.43136843
v -0.13938075 0.02902855 -0.42996722
v -0.20996432 0.02446612 -0.33602368
v -0.20796858 0.00309690 -0.40218379
v -0.14015184 0.02453840 -0.33602775
v -0.20994123 0.00695856 -0.33601843
v -0.16272339 0.02855774 -0.42281212
v -0.21305032 0.02955315 -0.38441140
v -0.16258757 0.00310524 -0.42322017
v -0.20771599 0.02835044 -0.40183161
v -0.20462225 0.02530949 -0.40411630
v -0.20472586 0.00960593 -0.40410219
v -0.19792174 0.02811005 -0.40667693
v -0.19762384 0.00322043 -0.40714522
f 1 2 3
f 5 2 1
f 6 1 3
f 7 5 1
f 7 6 4
f 7 1 6
f 8 3 2
f 9 6 3
f 9 4 6
f 9 7 4
f 9 5 7
f 10 8 2
f 10 2 5
f 11 9 3
f 11 3 8
f 11 5 9
f 12 8 10
f 12 5 11
f 13 12 10
f 13 5 12
f 14 12 11
f 14 11 8
f 14 8 12
f 15 13 10
f 15 10 5
f 15 5 13

