# https://github.com/mikedh/trimesh
v 0.31018352 0.00111213 0.32364211
v 0.36257745 0.00224381 0.26380983
v 0.34727950 0.02847519 0.28514675
v 0.26150948 0.02989107 0.35398712
v 0.26134205 0.00419352 0.24002842
v 0.28952185 0.02818538 0.34536447
v 0.34020694 0.00266809 0.29417837
v 0.35710533 0.00072392 0.26619744
v 0.26136010 0.00097278 0.35516603
v 0.34876297 0.02751286 0.24017493
v 0.35886906 0.00304022 0.26968200
v 0.28981885 0.00300232 0.34550883
v 0.34867452 0.00393389 0.24005783
v 0.35088221 0.00153692 0.27892254
v 0.26134725 0.02726139 0.24003251
v 0.28402161 0.00182970 0.34916163
v 0.36214536 0.02896813 0.26325762
v 0.34752572 0.01814777 0.28517292
v 0.35863768 0.02829419 0.26943256
f 6 3 4
f 7 3 6
f 9 8 1
f 9 5 8
f 12 7 6
f 12 1 7
f 13 8 5
f 13 2 8
f 13 10 2
f 14 7 1
f 14 1 8
f 14 8 2
f 14 11 7
f 14 2 11
f 15 9 4
f 15 5 9
f 15 13 5
f 15 10 13
f 16 6 4
f 16 4 9
f 16 12 6
f 16 9 1
f 16 1 12
f 17 2 10
f 17 4 3
f 17 15 4
f 17 10 15
f 18 3 7
f 18 7 11
f 19 11 2
f 19 2 17
f 19 17 3
f 19 18 11
f 19 3 18

