# https://github.com/mikedh/trimesh
v 0.07839008 0.00212724 -0.43473892
v 0.07788822 0.00282037 -0.44825224
v 0.07872635 0.02962509 -0.43506112
v -0.08803401 0.02973254 -0.43365440
v -0.08796389 0.00188199 -0.43342265
v -0.06929631 0.02893865 -0.44834520
v 0.06816463 0.00279317 -0.44949436
v -0.08716033 0.00295040 -0.44630453
v 0.06797945 0.02854463 -0.44910935
v -0.08708973 0.02912099 -0.44501461
v -0.06910879 0.00286392 -0.44910154
v 0.07769791 0.02889229 -0.44711956
v 0.07675467 0.02654346 -0.44835860
v 0.07670792 0.00950298 -0.44842807
f 1 2 3
f 1 3 4
f 5 1 4
f 6 4 3
f 7 2 1
f 7 1 5
f 8 5 4
f 10 8 4
f 10 4 6
f 10 6 8
f 11 7 5
f 11 5 8
f 11 8 6
f 11 9 7
f 11 6 9
f 12 9 6
f 12 6 3
f 12 3 2
f 13 7 9
f 13 12 2
f 13 9 12
f 14 13 2
f 14 2 7
f 14 7 13

