# https://github.com/mikedh/trimesh
v -0.08764195 0.00066259 0.43947050
v -0.08778346 0.00419081 0.40585480
v -0.08652139 0.02823178 0.44435539
v -0.18518536 0.02970122 0.39905237
v -0.18409024 0.00073804 0.40569675
v -0.08780445 0.02712912 0.40582177
v -0.08672869 0.00337249 0.44562591
v -0.14016628 0.00415396 0.39712955
v -0.17860927 0.02823311 0.41272478
v -0.14656460 0.00209622 0.42554822
v -0.18431296 0.00229496 0.39808465
v -0.14021550 0.02711985 0.39717168
v -0.10371112 0.00077975 0.43740150
v -0.17856376 0.00322757 0.41304259
v -0.13665560 0.02585862 0.43031781
v -0.18152039 0.00140258 0.40939412
v -0.10245787 0.00332378 0.44126432
v -0.10260452 0.02756949 0.44117232
v -0.13631137 0.00330889 0.43050492
f 5 2 1
f 6 3 2
f 6 4 3
f 7 1 2
f 7 2 3
f 8 6 2
f 9 3 4
f 9 4 5
f 11 5 4
f 11 8 2
f 11 2 5
f 12 4 6
f 12 6 8
f 12 11 4
f 12 8 11
f 13 5 1
f 13 1 7
f 15 9 14
f 16 13 10
f 16 5 13
f 16 10 14
f 16 14 9
f 16 9 5
f 17 13 7
f 18 3 9
f 18 9 15
f 18 17 7
f 18 7 3
f 19 15 14
f 19 14 10
f 19 10 13
f 19 13 17
f 19 18 15
f 19 17 18

