# https://github.com/mikedh/trimesh
v -0.20996955 0.00448829 0.11784146
v -0.20997048 0.00613480 -0.19634754
v -0.20997580 0.02668714 0.11783051
v -0.41072275 0.02617647 0.11783101
v -0.40447055 0.00162757 -0.16243295
v -0.37582463 0.02529695 -0.19639307
v -0.41075158 0.00504269 0.11783584
v -0.20997595 0.02543237 -0.19637578
v -0.40212262 0.02594173 -0.16145412
v -0.37584600 0.00630700 -0.19638892
v -0.41076414 0.00583418 -0.09166456
v -0.41073376 0.02552960 -0.09164758
f 1 2 3
f 1 3 4
f 5 2 1
f 7 5 1
f 7 1 4
f 8 3 2
f 9 4 3
f 9 8 6
f 9 3 8
f 9 6 5
f 10 2 5
f 10 5 6
f 10 8 2
f 10 6 8
f 11 7 4
f 11 5 7
f 12 9 5
f 12 5 11
f 12 11 4
f 12 4 9

