# https://github.com/mikedh/trimesh
v -0.08778008 0.00413934 0.24002954
v -0.08778473 0.00426179 0.16147961
v -0.08780049 0.02698178 0.24005530
v -0.14014880 0.02700012 0.24003982
v -0.14014363 0.00415977 0.24001722
v -0.14015047 0.02668796 0.12655864
v -0.08779555 0.02676412 0.16151096
v -0.14015670 0.02678187 0.15277972
v -0.14015040 0.00441511 0.12656439
v -0.11396614 0.02667205 0.12655867
v -0.11396038 0.00438410 0.12657092
f 5 2 1
f 5 1 3
f 5 3 4
f 7 1 2
f 7 3 1
f 8 4 3
f 8 3 7
f 8 5 4
f 9 2 5
f 9 8 6
f 9 5 8
f 10 7 2
f 10 8 7
f 10 6 8
f 10 9 6
f 11 10 2
f 11 2 9
f 11 9 10

