# https://github.com/mikedh/trimesh
v -0.20997019 0.00425097 0.21383947
v -0.20996955 0.00448829 0.11784146
v -0.20995814 0.02696929 0.21383750
v -0.26234298 0.02686565 0.21384112
v -0.26234187 0.00456041 0.11784446
v -0.26234110 0.00435889 0.21383822
v -0.20997580 0.02668714 0.11783051
v -0.26234463 0.02669662 0.11783039
v -0.26233739 0.02678781 0.15276247
v -0.20997484 0.02678705 0.14405241
f 1 2 3
f 1 3 4
f 5 2 1
f 6 5 1
f 6 1 4
f 7 3 2
f 8 6 4
f 8 5 6
f 8 7 2
f 8 2 5
f 9 8 4
f 9 4 3
f 9 3 8
f 10 8 3
f 10 3 7
f 10 7 8

