# https://github.com/mikedh/trimesh
v -0.29940927 0.00119890 0.32144055
v -0.29724828 0.00442898 0.21383868
v -0.29938842 0.02983143 0.32086947
v -0.32428699 0.02885071 0.31146036
v -0.39025651 0.00084563 0.21234984
v -0.29725873 0.02685471 0.21383669
v -0.31925050 0.00121283 0.31436316
v -0.29729184 0.00449365 0.30983517
v -0.39142847 0.02973070 0.21281105
v -0.37586108 0.00311225 0.24360927
v -0.33243752 0.02886664 0.30232238
v -0.37833674 0.00169323 0.23667238
v -0.38587620 0.00265626 0.22693031
v -0.37602834 0.02864648 0.24300960
v -0.33996656 0.00260868 0.29330948
v -0.38845803 0.00172814 0.21957295
v -0.34015554 0.02871724 0.29331779
v -0.38579255 0.02870993 0.22706934
v -0.32444387 0.00268616 0.31147693
v -0.34398687 0.00233579 0.28775958
f 5 2 1
f 6 2 5
f 7 1 3
f 7 3 4
f 7 5 1
f 8 1 2
f 8 3 1
f 8 6 3
f 8 2 6
f 9 3 6
f 9 6 5
f 11 4 3
f 11 3 9
f 12 5 7
f 13 12 10
f 16 13 9
f 16 9 5
f 16 5 12
f 16 12 13
f 17 11 9
f 17 9 14
f 17 14 10
f 18 13 10
f 18 10 14
f 18 14 9
f 18 9 13
f 19 15 7
f 19 7 4
f 19 4 11
f 19 17 15
f 19 11 17
f 20 12 7
f 20 7 15
f 20 10 12
f 20 17 10
f 20 15 17

