# https://github.com/mikedh/trimesh
v -0.41073584 0.00508343 0.10038437
v -0.41069293 0.00539077 0.06552417
v -0.41072273 0.02615159 0.10037473
v -0.43631743 0.02934001 0.09778283
v -0.44138010 0.00102087 0.06487665
v -0.41071271 0.02600535 0.06546566
v -0.42320238 0.02984805 0.10138581
v -0.43125808 0.00149166 0.07486647
v -0.43653526 0.00318112 0.09812783
v -0.44265397 0.02969094 0.06496894
v -0.41072943 0.02614460 0.09164512
v -0.43272161 0.00159875 0.06651306
v -0.44093112 0.00166404 0.07310462
f 1 2 3
f 6 3 2
f 6 2 5
f 7 1 3
f 8 2 1
f 9 7 4
f 9 1 7
f 9 8 1
f 9 5 8
f 10 6 5
f 10 7 6
f 10 4 7
f 10 9 4
f 11 7 3
f 11 3 6
f 11 6 7
f 12 8 5
f 12 5 2
f 12 2 8
f 13 10 5
f 13 5 9
f 13 9 10

