# https://github.com/mikedh/trimesh
v -0.20635984 0.00312165 0.39941957
v -0.20995917 0.00422437 0.31856858
v -0.20650460 0.02790865 0.39966660
v -0.31992377 0.02943943 0.31528185
v -0.31318464 0.00039039 0.31681505
v -0.20995750 0.02707410 0.31858475
v -0.25631846 0.00320896 0.37078123
v -0.21063833 0.00097010 0.38877106
v -0.32055942 0.00302881 0.31579203
v -0.21275541 0.02833435 0.39574770
v -0.23023857 0.00300585 0.38676221
v -0.23299659 0.00174428 0.38371924
v -0.28981181 0.02827187 0.34467185
v -0.27486366 0.00212673 0.35618740
v -0.23013957 0.02630865 0.38691967
v -0.25055798 0.00239352 0.37431269
v -0.31619399 0.02858028 0.32003220
v -0.25620230 0.02847360 0.37048325
v -0.31053590 0.00114141 0.32283868
v -0.29014210 0.00313452 0.34462039
v -0.29870352 0.02869416 0.33670551
v -0.31660784 0.00321238 0.32000824
f 6 2 4
f 6 1 2
f 6 3 1
f 8 5 2
f 8 2 1
f 9 4 2
f 9 2 5
f 10 6 4
f 10 3 6
f 11 1 3
f 12 5 8
f 12 8 1
f 12 1 11
f 14 5 12
f 15 11 3
f 16 12 11
f 16 14 12
f 16 7 14
f 16 15 7
f 16 11 15
f 17 4 9
f 18 10 4
f 18 13 7
f 18 7 15
f 18 15 3
f 18 3 10
f 19 9 5
f 19 5 14
f 20 19 14
f 20 14 7
f 20 7 13
f 21 4 17
f 21 18 4
f 21 13 18
f 21 20 13
f 22 9 19
f 22 19 20
f 22 20 21
f 22 21 17
f 22 17 9

