# https://github.com/mikedh/trimesh
v -0.41212285 0.00040703 0.15323943
v -0.40202378 0.00509857 0.11783591
v -0.40708590 0.02971712 0.15434904
v -0.42050804 0.02880182 0.15009914
v -0.43547725 0.00195543 0.09988811
v -0.41783146 0.00128661 0.15195143
v -0.40202647 0.00489910 0.15277349
v -0.42769974 0.00084735 0.10030115
v -0.42320238 0.02984805 0.10138581
v -0.42455626 0.00138243 0.13418798
v -0.40189219 0.02623745 0.12657106
v -0.41238727 0.00066725 0.14566139
v -0.43531679 0.02968326 0.09972150
v -0.41073584 0.00508343 0.10038437
v -0.42072151 0.00259554 0.15039002
v -0.40198874 0.02622651 0.11783076
v -0.42384995 0.00152359 0.10140773
v -0.41072273 0.02615159 0.10037473
v -0.42700489 0.00283138 0.13176024
v -0.42671760 0.02894062 0.13177070
f 6 1 3
f 6 3 4
f 7 1 2
f 7 3 1
f 10 1 6
f 10 8 1
f 10 5 8
f 11 7 2
f 11 3 7
f 12 2 1
f 12 1 8
f 13 4 3
f 13 3 9
f 14 8 5
f 14 5 13
f 15 10 6
f 15 6 4
f 16 9 3
f 16 3 11
f 16 11 2
f 16 2 14
f 17 12 8
f 17 2 12
f 17 14 2
f 17 8 14
f 18 14 13
f 18 13 9
f 18 16 14
f 18 9 16
f 19 5 10
f 19 10 15
f 19 13 5
f 20 19 15
f 20 15 4
f 20 4 13
f 20 13 19

