# https://github.com/mikedh/trimesh
v 0.37168537 0.00103981 0.24648185
v 0.41976971 0.00314866 0.15866826
v 0.38235121 0.02821858 0.23406078
v 0.34887215 0.02995490 0.26650160
v 0.34862823 0.00423543 0.16147958
v 0.36542344 0.02837274 0.26000628
v 0.38257085 0.00301071 0.23400077
v 0.41647025 0.00101890 0.15984001
v 0.34869421 0.00104930 0.26624963
v 0.41701422 0.02925785 0.16091461
v 0.40902898 0.02822158 0.18346515
v 0.36558655 0.00309583 0.25993014
v 0.39494424 0.00174884 0.21091609
v 0.34864209 0.02734061 0.16148791
v 0.36584062 0.00072856 0.24854743
v 0.41945072 0.00886173 0.15855447
v 0.37936265 0.00171572 0.23758141
v 0.41195327 0.00185337 0.17631233
v 0.40610494 0.00129258 0.16240415
v 0.41655722 0.00892449 0.16648902
v 0.41688597 0.00316544 0.16630785
f 6 3 4
f 7 3 6
f 8 5 2
f 10 4 3
f 11 10 3
f 12 7 6
f 12 9 1
f 12 6 4
f 12 4 9
f 13 1 8
f 13 11 3
f 13 3 7
f 14 9 4
f 14 5 9
f 14 4 10
f 15 8 1
f 15 1 9
f 16 10 11
f 16 14 10
f 16 2 5
f 16 5 14
f 17 12 1
f 17 7 12
f 17 13 7
f 17 1 13
f 18 13 8
f 18 8 2
f 18 11 13
f 19 15 9
f 19 9 5
f 19 5 8
f 19 8 15
f 20 16 11
f 20 2 16
f 21 18 2
f 21 2 20
f 21 20 11
f 21 11 18

