# https://github.com/mikedh/trimesh
v -0.28851664 0.00446572 0.17021386
v -0.28851791 0.00459569 0.11783860
v -0.28852909 0.02680104 0.17019907
v -0.40199693 0.02638626 0.15274232
v -0.40202647 0.00489910 0.15277349
v -0.28852901 0.02668386 0.11783030
v -0.37580381 0.00469707 0.17020519
v -0.40202378 0.00509857 0.11783591
v -0.37580938 0.02657408 0.17019937
v -0.40198874 0.02622651 0.11783076
f 6 1 2
f 6 3 1
f 7 5 2
f 7 2 1
f 8 5 4
f 8 2 5
f 8 6 2
f 9 3 6
f 9 4 5
f 9 5 7
f 9 7 1
f 9 1 3
f 10 8 4
f 10 6 8
f 10 9 6
f 10 4 9

