# https://github.com/mikedh/trimesh
v 0.41818574 0.00148956 -0.15268925
v 0.40890663 0.00258413 -0.18342235
v 0.41746358 0.02960281 -0.15244830
v 0.39228723 0.02592105 -0.15273184
v 0.37481265 0.00592017 -0.17886606
v 0.39228858 0.00554421 -0.15266107
v 0.40886156 0.02874003 -0.18341102
v 0.37514901 0.00190662 -0.22274524
v 0.40107519 0.02611560 -0.15251336
v 0.37481152 0.02549856 -0.17890439
v 0.39186091 0.00267797 -0.21784094
v 0.37494498 0.02528293 -0.20518251
v 0.37535422 0.02969487 -0.22281727
v 0.39150927 0.02887002 -0.21733403
f 6 1 3
f 7 1 2
f 7 3 1
f 8 6 5
f 8 1 6
f 9 6 3
f 9 3 4
f 9 4 6
f 10 6 4
f 10 5 6
f 11 2 1
f 11 1 8
f 11 7 2
f 12 8 5
f 12 5 10
f 13 10 4
f 13 4 3
f 13 12 10
f 13 11 8
f 13 8 12
f 14 13 3
f 14 3 7
f 14 7 11
f 14 11 13

