# https://github.com/mikedh/trimesh
v 0.07758024 0.00273946 0.44699438
v 0.07805616 0.00409573 0.35349502
v 0.07734097 0.02883809 0.44543363
v -0.02636985 0.02828132 0.45276833
v -0.02668575 0.00412125 0.35349867
v 0.06784279 0.02733567 0.44916008
v 0.07806054 0.02719790 0.35349276
v -0.02636765 0.00303530 0.45316979
v -0.02669424 0.02715671 0.35349736
v 0.06803137 0.00345209 0.44930460
f 5 2 1
f 6 1 3
f 6 3 4
f 7 1 2
f 7 3 1
f 7 2 5
f 8 5 1
f 8 6 4
f 9 7 5
f 9 4 3
f 9 3 7
f 9 8 4
f 9 5 8
f 10 8 1
f 10 1 6
f 10 6 8

