# https://github.com/mikedh/trimesh
v 0.43549312 0.00232074 0.10712893
v 0.44992077 0.00282945 0.00446943
v 0.44404726 0.02880512 0.06406567
v 0.40977367 0.02721488 0.10912674
v 0.40972109 0.00465930 0.00436933
v 0.43500380 0.02863489 0.10655535
v 0.44333560 0.00294399 0.07217875
v 0.43736911 0.00065066 0.04840731
v 0.40976428 0.00437474 0.10912644
v 0.44875222 0.02943674 0.00446453
v 0.44322929 0.00748122 0.07201123
v 0.44316125 0.00095781 0.04775782
v 0.43594497 0.00076540 0.07416705
v 0.40975124 0.02702498 0.00437683
v 0.44137913 0.00147973 0.07354143
f 6 4 1
f 7 2 3
f 7 6 1
f 8 5 2
f 9 1 4
f 9 4 5
f 10 3 2
f 10 2 5
f 10 6 3
f 10 4 6
f 11 7 3
f 11 3 6
f 11 6 7
f 12 8 2
f 13 1 9
f 13 8 12
f 13 9 5
f 13 5 8
f 14 10 5
f 14 5 4
f 14 4 10
f 15 7 1
f 15 13 12
f 15 1 13
f 15 12 2
f 15 2 7

