# https://github.com/mikedh/trimesh
v 0.27705985 0.00066932 0.35211804
v 0.28447051 0.00277055 0.34975415
v 0.17125216 0.00342892 0.41762856
v 0.17128556 0.02768607 0.41729949
v 0.17407069 0.02735816 0.35351647
v 0.22961435 0.00314787 0.38794794
v 0.17407201 0.00408107 0.35349762
v 0.28362232 0.02909851 0.34893728
v 0.17834600 0.00366440 0.41423476
v 0.26498451 0.00193468 0.36419409
v 0.17246024 0.00098158 0.41243440
v 0.17819591 0.02781640 0.41393924
v 0.27469259 0.00226898 0.35726587
v 0.22984177 0.02827203 0.38720465
v 0.18061879 0.00141504 0.41019597
v 0.17489448 0.00067270 0.40791025
v 0.28022520 0.00258658 0.35312393
v 0.27998703 0.02837924 0.35309251
f 5 3 4
f 7 2 1
f 7 3 5
f 8 7 5
f 8 2 7
f 9 4 3
f 9 3 6
f 11 3 7
f 12 8 5
f 12 5 4
f 12 9 6
f 12 4 9
f 13 10 1
f 14 6 10
f 14 12 6
f 14 8 12
f 15 6 3
f 15 3 11
f 15 10 6
f 15 11 1
f 15 1 10
f 16 11 7
f 16 7 1
f 16 1 11
f 17 13 1
f 17 1 2
f 18 10 13
f 18 14 10
f 18 8 14
f 18 13 17
f 18 17 2
f 18 2 8

