{"scene":0,"scenes":[{"nodes":[0]}],"asset":{"version":"2.0","generator":"https://github.com/mikedh/trimesh"},"accessors":[{"componentType":5125,"type":"SCALAR","bufferView":0,"count":38184,"max":[38044],"min":[0]},{"componentType":5126,"type":"VEC3","byteOffset":0,"bufferView":1,"count":38045,"max":[0.44999998807907104,0.45386412739753723,0.0],"min":[-0.44999998807907104,-0.45386412739753723,-0.031171763315796852]},{"componentType":5126,"type":"VEC2","byteOffset":0,"bufferView":3,"count":38045,"max":[0.9996397495269775,0.9996880888938904],"min":[0.0003602305368985981,0.00031191110610961914]}],"meshes":[{"name":"geometry_0.001","extras":{"units":"meters","from_gltf_primitive":false,"name":"geometry_0.001","node":"geometry_0"},"primitives":[{"attributes":{"POSITION":1,"TEXCOORD_0":2},"indices":0,"mode":4,"material":0}]}],"images":[{"bufferView":2,"mimeType":"image/png"}],"textures":[{"source":0}],"materials":[{"pbrMetallicRoughness":{"baseColorTexture":{"index":0}},"name":"Material_0.001","doubleSided":false}],"nodes":[{"name":"world","children":[1]},{"name":"geometry_0.001","mesh":0}],"buffers":[{"uri":"gltf_buffer_0.bin","byteLength":152736},{"uri":"gltf_buffer_1.bin","byteLength":456540},{"uri":"gltf_buffer_2.bin","byteLength":1101528},{"uri":"gltf_buffer_3.bin","byteLength":304360}],"bufferViews":[{"buffer":0,"byteOffset":0,"byteLength":152736},{"buffer":1,"byteOffset":0,"byteLength":456540},{"buffer":2,"byteOffset":0,"byteLength":1101528},{"buffer":3,"byteOffset":0,"byteLength":304360}]}