# https://github.com/mikedh/trimesh
v 0.20898492 0.00685757 -0.37967096
v 0.20411397 0.00371179 -0.40443478
v 0.21238574 0.02920485 -0.38528016
v 0.12169315 0.02421321 -0.37965823
v 0.12170227 0.00713813 -0.37964641
v 0.12066329 0.02886041 -0.43706228
v 0.20033335 0.02447273 -0.37976408
v 0.20356471 0.02734965 -0.40472345
v 0.12082287 0.00245558 -0.43730759
v 0.14427106 0.02833593 -0.43060990
v 0.14428045 0.00306940 -0.43117095
v 0.16956475 0.00310951 -0.42105178
v 0.18660830 0.02699921 -0.41362337
v 0.16928376 0.02647074 -0.42162488
f 1 2 3
f 5 2 1
f 5 1 4
f 6 4 3
f 6 5 4
f 7 1 3
f 7 3 4
f 7 4 1
f 8 3 2
f 9 2 5
f 9 5 6
f 10 6 3
f 10 3 8
f 11 9 6
f 11 6 10
f 12 2 9
f 12 9 11
f 13 8 2
f 13 2 12
f 13 10 8
f 14 12 11
f 14 11 10
f 14 13 12
f 14 10 13

