# https://github.com/mikedh/trimesh
v 0.44389255 0.00206733 -0.06536850
v 0.43544041 0.00318177 -0.10625774
v 0.44225880 0.02958511 -0.06521639
v 0.40972408 0.02666769 -0.06545934
v 0.40099501 0.00518541 -0.10033446
v 0.40973342 0.00494819 -0.06541023
v 0.43492350 0.02927883 -0.10637113
v 0.41720220 0.00229049 -0.16108954
v 0.41856209 0.02674447 -0.06537460
v 0.41658987 0.02907134 -0.16085293
v 0.41886061 0.00281101 -0.15853132
v 0.40101657 0.00550612 -0.15266170
v 0.41846107 0.02873617 -0.15822467
v 0.40099676 0.02633967 -0.10037317
v 0.40107519 0.02611560 -0.15251336
v 0.40113562 0.02621160 -0.14397412
f 6 1 3
f 6 4 5
f 7 1 2
f 7 3 1
f 8 2 1
f 8 6 5
f 8 1 6
f 9 6 3
f 9 3 4
f 9 4 6
f 10 4 3
f 10 3 7
f 11 7 2
f 11 2 8
f 12 10 8
f 12 8 5
f 13 10 7
f 13 7 11
f 13 11 8
f 13 8 10
f 14 12 5
f 14 5 4
f 14 4 10
f 15 10 12
f 15 12 14
f 16 15 14
f 16 14 10
f 16 10 15

