# https://github.com/mikedh/trimesh
v -0.13045356 0.04575332 -1.07952549
v -0.05958891 0.04600755 -1.23693534
v -0.08842585 0.07832218 -1.05125007
v -0.05830672 0.11534638 -1.08014577
v -0.11899861 0.07361810 -1.15960308
v -0.10286096 0.08746499 -1.08512536
v -0.12500518 0.04421253 -1.18169902
v -0.05756664 0.11070120 -1.18270096
v -0.11738018 0.07126458 -1.08591708
v -0.07322904 0.10842254 -1.08315091
v -0.07494967 0.04415186 -1.23041322
v -0.05688832 0.06240726 -1.23092865
v -0.08562421 0.10318246 -1.16290059
v -0.07275937 0.05822294 -1.22548590
v -0.08729593 0.10511506 -1.10025686
v -0.08607693 0.07135038 -1.20713938
v -0.10079228 0.07237047 -1.19190968
v -0.08551916 0.08633599 -1.19295955
v -0.11993411 0.05786680 -1.17888931
v -0.07152875 0.10545363 -1.17845849
f 1 2 3
f 3 2 4
f 7 1 5
f 9 1 3
f 9 3 6
f 9 6 5
f 9 5 1
f 10 6 3
f 10 3 4
f 11 2 1
f 11 1 7
f 12 8 4
f 12 4 2
f 13 4 8
f 14 12 2
f 14 2 11
f 15 10 4
f 15 4 13
f 15 6 10
f 15 13 5
f 15 5 6
f 16 14 11
f 16 11 7
f 16 12 14
f 17 16 7
f 18 8 12
f 18 12 16
f 18 16 17
f 18 17 5
f 18 5 13
f 19 17 7
f 19 7 5
f 19 5 17
f 20 18 13
f 20 13 8
f 20 8 18

