# https://github.com/mikedh/trimesh
v 0.09748362 -0.09040072 -1.08154763
v 0.14103400 -0.02206670 -1.16362838
v 0.14136321 0.01007491 -1.08289167
v 0.09879592 0.09668455 -1.09751087
v 0.09806809 -0.03953090 -1.21692559
v 0.12261125 0.07301460 -1.14810647
v 0.10302016 0.08398410 -1.07827685
v 0.14072226 -0.03739386 -1.10143535
v 0.09805464 -0.09291227 -1.16781797
v 0.09645604 0.04489249 -1.21509006
v 0.14018616 0.02531566 -1.16328136
v 0.12158505 0.07252650 -1.10066933
v 0.14395825 0.02596125 -1.10033027
v 0.14059318 -0.02048056 -1.08365089
v 0.10617025 -0.06758588 -1.19124560
v 0.12487189 -0.06756131 -1.09993952
v 0.09693730 0.09451414 -1.16663479
v 0.09598779 -0.07232593 -1.19782052
v 0.12217189 0.05739388 -1.17685139
v 0.12514153 0.02532314 -1.19304514
v 0.10694712 0.08896537 -1.09948206
v 0.14079897 -0.03824376 -1.14839932
v 0.12597640 0.05900886 -1.08428145
v 0.12240861 -0.03746846 -1.19147766
v 0.10629368 -0.08346880 -1.08453310
v 0.10566407 0.08747474 -1.16271215
v 0.10751119 -0.03822005 -1.20923281
v 0.10660874 0.04047967 -1.20885535
v 0.11136665 0.07733844 -1.08243434
v 0.12200454 -0.06704490 -1.16308276
v 0.10762793 -0.08475990 -1.16344417
f 7 1 3
f 7 4 1
f 13 2 11
f 13 11 6
f 13 6 12
f 14 3 1
f 14 13 3
f 14 8 13
f 16 8 14
f 17 1 4
f 18 9 1
f 18 17 10
f 18 1 17
f 18 10 5
f 18 15 9
f 19 6 11
f 19 10 17
f 20 11 2
f 20 19 11
f 21 12 6
f 21 6 4
f 22 13 8
f 22 2 13
f 22 8 16
f 23 13 12
f 23 7 3
f 23 3 13
f 24 2 22
f 24 20 2
f 25 1 9
f 25 16 14
f 25 14 1
f 26 17 4
f 26 4 6
f 26 19 17
f 26 6 19
f 27 18 5
f 27 15 18
f 27 24 15
f 27 20 24
f 28 5 10
f 28 10 19
f 28 19 20
f 28 27 5
f 28 20 27
f 29 21 4
f 29 4 7
f 29 12 21
f 29 23 12
f 29 7 23
f 30 22 16
f 30 24 22
f 30 15 24
f 31 25 9
f 31 16 25
f 31 30 16
f 31 9 15
f 31 15 30

