# https://github.com/mikedh/trimesh
v -0.11065562 -0.07025239 -1.07130420
v -0.11813058 -0.07489240 -1.15662524
v -0.08842585 0.07832218 -1.05125007
v -0.09948620 0.08777633 -1.17360245
v -0.13429027 0.04226941 -1.08578503
v -0.13674557 -0.05235818 -1.11696291
v -0.10969273 -0.01254751 -1.03249212
v -0.13889730 0.04363191 -1.14764460
v -0.13576959 -0.03687685 -1.08495454
v -0.12349994 -0.01305567 -1.19704511
v -0.12582513 -0.05659652 -1.08148819
v -0.13507552 -0.05188340 -1.14802500
f 1 2 3
f 3 2 4
f 5 3 4
f 6 2 1
f 7 1 3
f 7 3 5
f 8 5 4
f 9 7 5
f 9 8 6
f 9 5 8
f 10 8 4
f 10 4 2
f 11 9 6
f 11 6 1
f 11 1 7
f 11 7 9
f 12 10 2
f 12 2 6
f 12 6 8
f 12 8 10

