# https://github.com/mikedh/trimesh
v -0.07486703 -0.09962829 -1.06662094
v -0.05775908 -0.05747380 -1.23285186
v -0.05958891 0.04600755 -1.23693534
v -0.09948620 0.08777633 -1.17360245
v -0.13125291 -0.00983510 -1.06094303
v -0.08677616 -0.03868865 -1.22584318
v -0.10969273 -0.01254751 -1.03249212
v -0.08731174 0.04124459 -1.22434378
v -0.08682470 -0.06810452 -1.20868106
v -0.10247480 -0.08278786 -1.07596459
v -0.12504620 0.06414673 -1.15988090
v -0.07315003 -0.05323993 -1.22725427
v -0.05952192 -0.07619158 -1.22034895
f 1 2 3
f 6 3 2
f 7 1 3
f 7 3 4
f 8 4 3
f 8 3 6
f 10 7 5
f 10 1 7
f 10 9 1
f 10 5 9
f 11 7 4
f 11 5 7
f 11 4 8
f 11 8 6
f 11 9 5
f 11 6 9
f 12 9 6
f 12 6 2
f 13 2 1
f 13 1 9
f 13 12 2
f 13 9 12

