# https://github.com/mikedh/trimesh
v 0.06114063 -0.10690167 -1.06436210
v 0.09598779 -0.07232593 -1.19782052
v 0.09158016 -0.09921133 -1.16350850
v 0.09428660 -0.07083956 -1.04871531
v 0.06401293 -0.07529965 -1.21933156
v 0.08982817 -0.09816111 -1.08485694
v 0.06894410 -0.08258875 -1.03801664
v 0.07787982 -0.07249553 -1.21353045
v 0.06209886 -0.10809485 -1.18310131
v 0.08986893 -0.08215834 -1.05609808
v 0.06350333 -0.09252002 -1.04539125
v 0.05965068 -0.08789438 -1.21144463
v 0.09049721 -0.08393399 -1.19197601
v 0.07526463 -0.10088062 -1.06886763
v 0.07426935 -0.08153182 -1.20856223
v 0.07785482 -0.10173165 -1.17934421
f 3 2 4
f 6 1 3
f 6 3 4
f 7 4 5
f 8 5 4
f 8 4 2
f 9 3 1
f 10 6 4
f 10 4 7
f 11 7 5
f 11 10 7
f 12 9 1
f 12 11 5
f 12 1 11
f 13 2 3
f 14 1 6
f 14 6 10
f 14 11 1
f 14 10 11
f 15 12 5
f 15 5 8
f 15 8 2
f 15 2 13
f 15 9 12
f 16 13 3
f 16 3 9
f 16 15 13
f 16 9 15

