# https://github.com/mikedh/trimesh
v -0.09064024 -0.09109739 -1.07183810
v -0.03983297 -0.05222345 -0.99979962
v -0.11933293 0.03980895 -1.05436003
v -0.04295589 0.12043852 -1.07826071
v -0.04811085 -0.06775676 -1.01355555
v -0.03741190 0.02455712 -0.97378511
v -0.12400387 0.06020775 -1.08298577
v -0.11933690 -0.03788481 -1.05217276
v -0.03771193 0.10842758 -1.05159285
v -0.11180650 -0.07505280 -1.08009437
v -0.03968999 -0.02220178 -0.97379941
v -0.08641851 -0.06650506 -1.03767423
v -0.12582513 -0.05659652 -1.08148819
v -0.08311021 0.07099705 -1.03833837
v -0.09108058 -0.02275408 -1.01751663
v -0.07297948 -0.07207965 -1.03108132
v -0.10188131 -0.06625297 -1.05325098
v -0.07322904 0.10842254 -1.08315091
v -0.08702860 0.03994374 -1.02049328
v -0.03810452 0.07539119 -1.01488260
v -0.11915647 0.05729467 -1.06944052
v -0.04254533 0.01878993 -0.97376692
v -0.10149747 -0.05076797 -1.03952658
v -0.12108245 -0.05268428 -1.06781561
v -0.05518420 0.10379015 -1.05465955
v -0.05479230 0.07209152 -1.01989236
v -0.07087307 0.10385982 -1.06972791
v -0.04453884 -0.01787284 -0.97579604
f 5 1 4
f 5 4 2
f 9 6 2
f 9 2 4
f 10 4 1
f 11 5 2
f 11 2 6
f 13 8 3
f 13 3 7
f 15 3 8
f 16 12 1
f 16 1 5
f 16 5 11
f 16 11 12
f 17 10 1
f 17 1 12
f 18 13 7
f 18 4 10
f 18 10 13
f 19 14 3
f 19 6 14
f 19 3 15
f 20 6 9
f 21 7 3
f 21 3 14
f 22 11 6
f 22 19 15
f 22 6 19
f 23 12 11
f 23 15 8
f 23 17 12
f 23 8 17
f 24 13 10
f 24 10 17
f 24 17 8
f 24 8 13
f 25 9 4
f 25 20 9
f 26 14 6
f 26 6 20
f 26 25 14
f 26 20 25
f 27 18 7
f 27 7 21
f 27 21 14
f 27 14 25
f 27 25 4
f 27 4 18
f 28 22 15
f 28 11 22
f 28 23 11
f 28 15 23

