# https://github.com/mikedh/trimesh
v 0.07871271 -0.09737078 -1.06680072
v 0.12841781 -0.05273500 -1.08201364
v 0.04749229 -0.00439083 -0.97401476
v 0.01183392 0.12625426 -1.07618826
v 0.01187808 -0.02555681 -1.07601315
v 0.12597640 0.05900886 -1.08428145
v 0.09084940 -0.06595286 -1.03970188
v 0.11413684 -0.07267206 -1.08132894
v 0.01203844 -0.08438163 -1.01704471
v 0.12405263 0.02458621 -1.05223411
v 0.05707984 0.08816520 -1.03591621
v 0.07680021 0.10746562 -1.08439523
v 0.10534839 -0.06505597 -1.05549911
v 0.01138341 0.04367281 -0.97521161
v 0.01946883 -0.04096461 -0.97579245
v 0.05985326 -0.06823144 -1.01909961
v 0.10748431 0.03937785 -1.03798858
v 0.12097752 0.05697686 -1.07085453
v 0.04128797 0.10644063 -1.05035672
v 0.12309356 -0.05028038 -1.06891880
v 0.00796403 -0.04419817 -0.97533642
v 0.03564820 -0.02854475 -0.97425198
v 0.04804370 0.00594653 -0.97529684
v 0.03385205 0.03119821 -0.97512970
v 0.07364493 0.10250483 -1.06993690
v 0.01040628 0.11142709 -1.04858114
v 0.12183094 -0.03459789 -1.05398137
v 0.09110046 -0.03552171 -1.02094902
v 0.05675743 0.07203328 -1.02061389
v 0.09078225 0.03970806 -1.02249553
f 8 1 5
f 9 5 1
f 10 2 6
f 12 5 4
f 12 8 5
f 12 6 2
f 12 2 8
f 13 7 1
f 13 1 8
f 16 9 1
f 16 1 7
f 16 15 9
f 18 6 12
f 18 11 17
f 18 17 10
f 18 10 6
f 19 12 4
f 19 14 11
f 20 13 8
f 20 8 2
f 21 5 9
f 21 9 15
f 22 16 7
f 22 15 16
f 22 21 15
f 22 3 14
f 22 14 21
f 23 3 10
f 23 10 17
f 24 14 3
f 24 3 23
f 25 18 12
f 25 11 18
f 25 19 11
f 25 12 19
f 26 19 4
f 26 14 19
f 26 21 14
f 26 4 5
f 26 5 21
f 27 20 2
f 27 2 10
f 27 7 13
f 27 13 20
f 28 22 7
f 28 3 22
f 28 7 27
f 28 27 10
f 28 10 3
f 29 11 14
f 29 14 24
f 30 24 23
f 30 23 17
f 30 29 24
f 30 17 11
f 30 11 29

