# https://github.com/mikedh/trimesh
v 0.02410780 -0.08397753 -0.00152836
v 0.08806457 -0.02271987 -0.03086653
v 0.08716062 0.02527100 -0.00060223
v -0.05362083 0.06962522 -0.00026956
v -0.08341049 -0.03333411 -0.03115536
v 0.05525668 0.06825386 -0.03045124
v 0.07351947 -0.05063510 -0.00018234
v 0.02536084 -0.08281018 -0.03080565
v -0.08312958 -0.03489065 -0.00119640
v 0.08718849 0.02359389 -0.03062474
v 0.05538854 0.06910112 -0.00016769
v -0.05239596 0.07008202 -0.03114556
v 0.08866818 -0.02064163 -0.00103348
v -0.03699819 -0.07909982 -0.03081658
v 0.05676169 -0.06688099 -0.03026886
v -0.08051518 0.03930392 -0.00090882
v 0.05825481 -0.06599044 -0.00037212
v 0.07223627 0.05367002 -0.00024249
v 0.07068384 0.05364867 -0.03072895
v -0.03641018 -0.08001223 -0.00179529
v 0.07183549 -0.05241029 -0.03080366
v -0.07990341 0.03920611 -0.03031916
f 8 5 2
f 11 4 7
f 12 11 6
f 12 4 11
f 12 2 5
f 13 7 2
f 13 3 7
f 13 10 3
f 13 2 10
f 14 8 1
f 14 5 8
f 14 9 5
f 15 1 8
f 16 9 4
f 16 5 9
f 17 7 4
f 17 4 9
f 17 1 15
f 18 3 10
f 18 6 11
f 18 11 7
f 18 7 3
f 19 10 2
f 19 2 12
f 19 12 6
f 19 18 10
f 19 6 18
f 20 14 1
f 20 9 14
f 20 17 9
f 20 1 17
f 21 15 8
f 21 8 2
f 21 2 7
f 21 17 15
f 21 7 17
f 22 12 5
f 22 5 16
f 22 16 4
f 22 4 12

