# https://github.com/mikedh/trimesh
v 0.06209886 -0.10809485 -1.18310131
v 0.10131163 -0.07743334 -1.18652955
v 0.06232635 0.10965012 -1.18020958
v -0.05756664 0.11070120 -1.18270096
v -0.05595283 0.02685083 -1.24431668
v -0.05851319 -0.10895001 -1.18441037
v 0.02628476 -0.05585212 -1.24336794
v 0.04272787 0.07706521 -1.22663749
v -0.05682459 -0.03560247 -1.24183154
v 0.05940203 -0.06955867 -1.22657669
v 0.02638906 -0.10233110 -1.20965166
v -0.05603992 0.07358816 -1.22435416
v 0.05929867 0.10310769 -1.19336056
v 0.04243037 0.04228017 -1.24346770
v -0.02208673 -0.05495088 -1.24361916
v 0.05890318 -0.10215588 -1.19520524
v 0.02627439 -0.08499205 -1.22648042
v -0.05519212 0.10425116 -1.19408353
v 0.09943563 0.08075961 -1.18483889
v -0.03913002 0.04268575 -1.24492252
v 0.06157836 -0.02146727 -1.24332068
v -0.05662138 -0.07082614 -1.22589582
v 0.08991778 -0.06664860 -1.20879895
v -0.02165496 -0.08650626 -1.22558846
v 0.07710249 0.05719590 -1.22337372
v 0.06057775 0.01053004 -1.24382994
v 0.08980573 -0.03489278 -1.22550224
v -0.03893416 -0.09888779 -1.20931542
v 0.06014329 0.09055379 -1.20816714
v 0.09181532 0.02546992 -1.22598338
v -0.05669502 -0.10219324 -1.19599759
v 0.09435023 0.07566661 -1.19633474
v 0.09372524 0.05805788 -1.21062809
f 1 2 3
f 6 1 3
f 6 3 4
f 9 6 4
f 9 4 5
f 11 1 6
f 12 5 4
f 13 4 3
f 15 9 5
f 16 2 1
f 16 11 10
f 16 1 11
f 17 7 10
f 17 10 11
f 18 12 4
f 18 8 12
f 18 13 8
f 18 4 13
f 19 13 3
f 19 3 2
f 20 5 12
f 20 12 8
f 20 8 14
f 20 15 5
f 20 7 15
f 21 10 7
f 22 6 9
f 22 9 15
f 23 16 10
f 23 2 16
f 24 15 7
f 24 7 17
f 24 22 15
f 24 17 11
f 25 14 8
f 26 20 14
f 26 21 7
f 26 7 20
f 27 23 10
f 27 10 21
f 27 2 23
f 28 24 11
f 28 11 6
f 28 22 24
f 29 25 8
f 29 8 13
f 30 26 14
f 30 14 25
f 30 19 2
f 30 2 27
f 30 27 21
f 30 21 26
f 31 28 6
f 31 6 22
f 31 22 28
f 32 29 13
f 32 13 19
f 32 25 29
f 33 30 25
f 33 25 32
f 33 32 19
f 33 19 30

