# https://github.com/mikedh/trimesh
v 0.02835595 -0.09251680 -1.02816030
v 0.03089170 -0.08257942 -1.01899129
v 0.00292109 -0.00864963 -0.92392219
v -0.00649758 -0.00601380 -0.92366380
v -0.05402645 -0.00833707 -0.99320041
v -0.04032275 -0.09027971 -1.03019912
v 0.01201928 -0.00698449 -0.97451653
v -0.00215022 -0.00890116 -0.92389229
v -0.05991244 -0.07662897 -1.02646608
v 0.00832688 -0.00365156 -0.92368202
v -0.06428552 -0.06362437 -1.01890649
v -0.04283070 -0.00620851 -0.97402389
f 1 2 3
f 7 2 1
f 7 1 5
f 8 6 1
f 8 1 3
f 8 3 4
f 9 5 1
f 9 1 6
f 9 8 4
f 9 6 8
f 10 3 2
f 10 2 7
f 10 4 3
f 11 9 4
f 11 5 9
f 12 10 7
f 12 7 5
f 12 4 10
f 12 11 4
f 12 5 11

