# https://github.com/mikedh/trimesh
v -0.11813058 -0.07489240 -1.15662524
v -0.09095260 -0.05534612 -1.21374482
v -0.09326236 0.04586389 -1.21774698
v -0.12504620 0.06414673 -1.15988090
v -0.13622797 -0.03800933 -1.16481748
v -0.12127447 -0.05388720 -1.18005376
v -0.14045461 -0.03969140 -1.14747751
v -0.11982855 -0.03738160 -1.19388453
v -0.10054192 -0.05188448 -1.20790980
v -0.13126432 -0.05911048 -1.14934747
v -0.13889730 0.04363191 -1.14764460
v -0.10505541 0.04208403 -1.20930725
v -0.13548636 0.04109110 -1.16218162
v -0.11917284 0.04132936 -1.19285630
f 1 2 3
f 1 3 4
f 8 6 5
f 9 2 1
f 9 1 6
f 9 6 8
f 9 3 2
f 10 6 1
f 10 5 6
f 10 7 5
f 11 7 10
f 11 10 1
f 11 1 4
f 12 9 8
f 12 3 9
f 12 4 3
f 13 5 7
f 13 7 11
f 13 11 4
f 14 13 4
f 14 4 12
f 14 12 8
f 14 8 5
f 14 5 13

