# https://github.com/mikedh/trimesh
v 0.05893217 -0.11714696 -1.08433667
v 0.10131163 -0.07743334 -1.18652955
v 0.09469418 0.09338512 -1.08289599
v -0.03772732 0.12397985 -1.08334528
v -0.05851319 -0.10895001 -1.18441037
v 0.02593888 0.12223698 -1.17840927
v 0.10515816 -0.08106980 -1.07687298
v 0.04235453 -0.11813533 -1.17867399
v -0.05670609 -0.11752169 -1.08325458
v 0.09177853 0.09186166 -1.17940326
v 0.05975983 0.12146878 -1.10114483
v -0.05756664 0.11070120 -1.18270096
v -0.05830672 0.11534638 -1.08014577
v 0.06100629 -0.11749299 -1.16417590
v -0.03847312 -0.11932489 -1.17861798
v 0.04129540 0.12333919 -1.08370159
v 0.06059634 0.12180912 -1.14837196
v -0.05677532 0.12299894 -1.14863464
v -0.05656282 -0.11866603 -1.16576621
v -0.02184050 0.12282207 -1.17853644
v 0.07680021 0.10746562 -1.08439523
v 0.07496269 0.10431418 -1.17746162
v 0.09096610 0.10443503 -1.14871358
v -0.05605333 0.12231491 -1.09944281
v 0.09082419 0.10349242 -1.10179994
f 8 5 2
f 9 1 7
f 10 7 2
f 10 3 7
f 12 2 5
f 12 10 2
f 12 6 10
f 13 7 3
f 13 9 7
f 13 12 5
f 13 5 9
f 14 7 1
f 14 2 7
f 14 8 2
f 14 1 8
f 15 8 1
f 15 1 9
f 15 5 8
f 16 13 3
f 16 4 13
f 17 16 11
f 17 6 16
f 18 12 13
f 19 15 9
f 19 9 5
f 19 5 15
f 20 16 6
f 20 4 16
f 20 18 4
f 20 6 12
f 20 12 18
f 21 16 3
f 21 11 16
f 22 10 6
f 22 6 17
f 23 17 11
f 23 3 10
f 23 22 17
f 23 10 22
f 24 18 13
f 24 13 4
f 24 4 18
f 25 21 3
f 25 3 23
f 25 23 11
f 25 11 21

