{"scene":0,"scenes":[{"nodes":[0]}],"asset":{"version":"2.0","generator":"https://github.com/mikedh/trimesh"},"accessors":[{"componentType":5125,"type":"SCALAR","bufferView":0,"count":4878,"max":[4877],"min":[0]},{"componentType":5126,"type":"VEC3","byteOffset":0,"bufferView":1,"count":4878,"max":[0.15000000596046448,0.0,0.1363212764263153],"min":[-0.15000000596046448,-1.256935715675354,-0.1363212764263153]},{"componentType":5126,"type":"VEC2","byteOffset":0,"bufferView":3,"count":4878,"max":[0.9993734359741211,0.9990059733390808],"min":[0.0006265664123930037,0.0009940266609191895]}],"meshes":[{"name":"geometry_0.002","extras":{"units":"meters","from_gltf_primitive":false,"name":"geometry_0.002","node":"geometry_0.001"},"primitives":[{"attributes":{"POSITION":1,"TEXCOORD_0":2},"indices":0,"mode":4,"material":0}]}],"images":[{"bufferView":2,"mimeType":"image/png"}],"textures":[{"source":0}],"materials":[{"pbrMetallicRoughness":{"baseColorTexture":{"index":0}},"name":"Material_0.002","doubleSided":false}],"nodes":[{"name":"world","children":[1]},{"name":"geometry_0.002","mesh":0}],"buffers":[{"uri":"gltf_buffer_0.bin","byteLength":19512},{"uri":"gltf_buffer_1.bin","byteLength":58536},{"uri":"gltf_buffer_2.bin","byteLength":712288},{"uri":"gltf_buffer_3.bin","byteLength":39024}],"bufferViews":[{"buffer":0,"byteOffset":0,"byteLength":19512},{"buffer":1,"byteOffset":0,"byteLength":58536},{"buffer":2,"byteOffset":0,"byteLength":712288},{"buffer":3,"byteOffset":0,"byteLength":39024}]}