# https://github.com/mikedh/trimesh
v 0.00832688 -0.00365156 -0.92368202
v 0.01187808 -0.00651233 -1.07601315
v 0.01044321 0.12813992 -1.08170383
v -0.04295589 0.12043852 -1.07826071
v -0.09108058 -0.02275408 -1.01751663
v -0.00584505 0.12829153 -1.08157617
v -0.00831587 0.00159001 -0.92368407
v -0.00832421 -0.00356524 -0.92382047
v -0.03771193 0.10842758 -1.05159285
v 0.00672421 0.00523753 -0.92373943
v -0.02949142 0.03417988 -0.97425273
v -0.00545821 0.12299065 -1.06864710
v 0.00988286 0.12275655 -1.06859921
f 1 2 3
f 5 2 1
f 5 4 2
f 6 3 2
f 6 2 4
f 8 7 5
f 8 5 1
f 8 1 7
f 9 4 5
f 10 7 1
f 10 9 7
f 11 9 5
f 11 5 7
f 11 7 9
f 12 6 4
f 12 4 9
f 12 3 6
f 12 9 10
f 13 10 1
f 13 1 3
f 13 12 10
f 13 3 12

