# https://github.com/mikedh/trimesh
v 0.04384774 -0.12154316 -1.08167757
v 0.10945223 -0.04390994 -1.04375936
v 0.01201928 -0.00698449 -0.97451653
v -0.08822850 -0.00701370 -1.01257863
v 0.01187808 -0.00651233 -1.07601315
v -0.05582422 -0.08646075 -1.03348515
v 0.05881077 -0.08624922 -1.03481815
v 0.06444143 -0.11228400 -1.07908580
v 0.07612069 -0.02955388 -1.00835458
v -0.07297948 -0.07207965 -1.03108132
v -0.02161689 -0.10072066 -1.03604456
v 0.05756417 -0.10157189 -1.05243221
v -0.12209990 -0.01071472 -1.04711400
v -0.03946940 -0.12283097 -1.08153067
v 0.02658056 -0.09983069 -1.03623868
v 0.04189433 -0.11630274 -1.06827264
v -0.05568836 -0.10216255 -1.05221748
v -0.09064024 -0.09109739 -1.07183810
v -0.03905159 -0.11736466 -1.06848884
v -0.06035336 -0.11393403 -1.07882726
f 5 4 3
f 8 5 2
f 8 1 5
f 9 5 3
f 9 2 5
f 9 7 2
f 9 3 7
f 10 6 3
f 10 3 4
f 11 3 6
f 12 8 2
f 12 2 7
f 13 10 4
f 13 4 5
f 14 5 1
f 15 7 3
f 15 3 11
f 15 12 7
f 16 1 8
f 16 8 12
f 16 12 15
f 16 15 11
f 16 14 1
f 17 11 6
f 17 6 10
f 18 13 5
f 18 17 10
f 18 10 13
f 19 16 11
f 19 14 16
f 19 11 17
f 20 18 5
f 20 5 14
f 20 17 18
f 20 19 17
f 20 14 19

