# https://github.com/mikedh/trimesh
v 0.01190480 -0.02559402 -0.03112753
v 0.00672421 0.00523753 -0.92373943
v 0.00682735 0.00609733 -0.04734531
v -0.02610219 0.01231332 -0.03135145
v -0.00832421 -0.00356524 -0.92382047
v 0.00292109 -0.00864963 -0.92392219
v -0.00685033 -0.02537389 -0.03137875
v -0.00831587 0.00159001 -0.92368407
v -0.02589178 -0.00632765 -0.03122262
v -0.00215022 -0.00890116 -0.92389229
f 1 2 3
f 1 3 4
f 3 2 4
f 6 5 2
f 6 2 1
f 8 5 4
f 8 4 2
f 8 2 5
f 9 7 1
f 9 1 4
f 9 4 5
f 9 5 7
f 10 6 1
f 10 1 7
f 10 7 5
f 10 5 6

