# https://github.com/mikedh/trimesh
v -0.05781848 -0.12161687 -1.09947098
v -0.05669502 -0.10219324 -1.19599759
v -0.05991244 -0.07662897 -1.02646608
v -0.12582513 -0.05659652 -1.08148819
v -0.12020129 -0.06868710 -1.16397084
v -0.10011935 -0.08168619 -1.06972082
v -0.05582422 -0.08646075 -1.03348515
v -0.07116577 -0.11627422 -1.14795151
v -0.05952192 -0.07619158 -1.22034895
v -0.07297948 -0.07207965 -1.03108132
v -0.12032416 -0.06670131 -1.08455716
v -0.07034405 -0.11536197 -1.09954622
v -0.10267969 -0.08256668 -1.17654142
v -0.05788774 -0.12216963 -1.14924043
v -0.05717069 -0.08810718 -1.21193155
v -0.10756800 -0.05545521 -1.19788813
v -0.11065562 -0.07025239 -1.07130420
v -0.07025982 -0.08174805 -1.03834882
v -0.12713987 -0.05718515 -1.16578169
v -0.07051133 -0.09730089 -1.19232460
v -0.09865468 -0.06093578 -1.20454946
v -0.10269678 -0.06697912 -1.19387424
v -0.07041267 -0.08387485 -1.20763503
v -0.07497153 -0.07187220 -1.21447811
f 7 1 2
f 9 3 7
f 11 5 8
f 12 1 7
f 12 6 11
f 12 11 8
f 12 8 1
f 13 8 5
f 14 2 1
f 14 1 8
f 15 9 7
f 15 7 2
f 16 4 10
f 16 10 3
f 16 3 9
f 17 10 4
f 17 6 10
f 17 11 6
f 17 4 11
f 18 7 3
f 18 3 10
f 18 10 6
f 18 12 7
f 18 6 12
f 19 11 4
f 19 5 11
f 19 4 16
f 19 13 5
f 20 8 13
f 20 14 8
f 20 2 14
f 20 15 2
f 21 16 9
f 22 19 16
f 22 13 19
f 22 16 21
f 23 9 15
f 23 15 20
f 23 22 21
f 23 20 13
f 23 13 22
f 24 23 21
f 24 21 9
f 24 9 23

