# https://github.com/mikedh/trimesh
v -0.01612970 -0.02788588 0.01884871
v -0.01593409 -0.02429375 0.01298766
v -0.01631275 -0.01461003 0.01868725
v -0.02849405 -0.01458497 0.01871344
v -0.02303667 -0.02205934 0.01845575
v -0.01608390 -0.01442130 0.00549251
v -0.02729587 -0.01694022 0.01897577
v -0.01598935 -0.02767662 0.01829247
v -0.01595420 -0.01500151 0.00569430
v -0.02652711 -0.01427238 0.01507077
v -0.01661842 -0.02765885 0.01897819
v -0.02801389 -0.01567820 0.01894668
v -0.02802840 -0.01435323 0.01759661
v -0.01659039 -0.01431042 0.00574447
v -0.02368344 -0.01874609 0.01517507
v -0.02321786 -0.02222947 0.01902719
v -0.01904583 -0.02404000 0.01581512
v -0.02780566 -0.01492192 0.01771248
v -0.02504780 -0.01874584 0.01715164
v -0.02107950 -0.01484115 0.00924688
v -0.01649286 -0.02671179 0.01708840
v -0.01970703 -0.02010048 0.01192735
v -0.02169670 -0.02204804 0.01647573
v -0.02119852 -0.02422817 0.01901050
v -0.02779808 -0.01555987 0.01837268
v -0.02632827 -0.01484991 0.01520995
v -0.02634658 -0.01742473 0.01776357
v -0.02592584 -0.01893642 0.01898797
v -0.02124730 -0.01427399 0.00905825
v -0.01845404 -0.01617255 0.00789752
v -0.01844249 -0.02539723 0.01714579
v -0.01597541 -0.02696840 0.01697376
v -0.01905991 -0.02074218 0.01192212
v -0.02305704 -0.01676064 0.01253897
v -0.02036191 -0.02005073 0.01254414
v -0.02305492 -0.02007114 0.01580309
v -0.02103585 -0.02269959 0.01647715
v -0.02709577 -0.01680379 0.01839770
v -0.02367683 -0.01746607 0.01386610
v -0.02571705 -0.01881856 0.01841715
v -0.01850045 -0.01487784 0.00721170
v -0.01971109 -0.01677585 0.00926046
v -0.01595492 -0.02030973 0.00902697
v -0.01644448 -0.02406624 0.01317359
v -0.02104345 -0.02404896 0.01849821
v -0.01850330 -0.02606993 0.01842709
v -0.02373920 -0.01485943 0.01189240
v -0.01970555 -0.02070751 0.01253307
v -0.02436541 -0.02009389 0.01778787
v -0.01648017 -0.01487814 0.00595033
v -0.01863834 -0.01435230 0.00704622
v -0.01597013 -0.01631086 0.00636972
v -0.01599550 -0.02303214 0.01159316
v -0.01776525 -0.01809451 0.00861549
v -0.01709501 -0.02668516 0.01777705
v -0.01864651 -0.02627942 0.01899279
v -0.02391275 -0.01428990 0.01172400
v -0.02499332 -0.01547752 0.01387062
v -0.01648057 -0.01619689 0.00661398
v -0.01648573 -0.02013678 0.00924841
v -0.01708374 -0.01877206 0.00861819
f 8 3 1
f 9 6 3
f 9 8 2
f 9 3 8
f 11 1 3
f 11 8 1
f 12 7 3
f 12 3 4
f 13 4 3
f 13 3 10
f 14 10 3
f 14 3 6
f 16 11 3
f 16 3 7
f 18 4 13
f 21 8 11
f 24 16 5
f 25 12 4
f 25 4 18
f 26 18 13
f 26 13 10
f 27 18 26
f 28 16 7
f 28 7 27
f 29 10 14
f 30 20 29
f 31 2 21
f 32 21 2
f 32 2 8
f 32 8 21
f 35 34 22
f 36 19 15
f 36 35 23
f 36 15 35
f 36 23 5
f 37 5 23
f 38 7 12
f 38 12 25
f 38 27 7
f 38 25 18
f 38 18 27
f 39 15 19
f 39 27 26
f 39 19 27
f 39 35 15
f 39 34 35
f 40 28 27
f 40 27 19
f 41 30 29
f 42 20 30
f 42 34 20
f 42 22 34
f 43 9 2
f 44 31 17
f 44 2 31
f 45 31 24
f 45 17 31
f 45 37 17
f 45 24 5
f 45 5 37
f 47 29 20
f 47 20 34
f 48 35 22
f 48 22 33
f 48 17 37
f 48 37 23
f 48 23 35
f 48 44 17
f 48 33 44
f 49 36 5
f 49 19 36
f 49 40 19
f 49 5 16
f 49 16 28
f 49 28 40
f 50 41 14
f 50 14 6
f 50 6 9
f 51 41 29
f 51 29 14
f 51 14 41
f 52 9 43
f 53 43 2
f 53 44 33
f 53 2 44
f 54 42 30
f 54 22 42
f 55 46 31
f 55 31 21
f 55 21 11
f 56 24 31
f 56 31 46
f 56 11 16
f 56 16 24
f 56 55 11
f 56 46 55
f 57 10 29
f 57 29 47
f 58 39 26
f 58 57 47
f 58 26 10
f 58 10 57
f 58 47 34
f 58 34 39
f 59 50 9
f 59 9 52
f 59 41 50
f 59 30 41
f 59 54 30
f 60 53 33
f 60 43 53
f 60 33 22
f 60 22 54
f 61 52 43
f 61 60 54
f 61 43 60
f 61 59 52
f 61 54 59

