# https://github.com/mikedh/trimesh
v -0.02378765 -0.01461003 0.01868725
v -0.02343678 -0.01372791 0.01085660
v -0.02378765 0.01528957 0.01868725
v -0.02924199 0.01496522 0.01903171
v -0.03198491 -0.00430367 0.01896342
v -0.02341518 0.00905303 0.00821010
v -0.02341828 0.01506647 0.01088940
v -0.02871509 -0.01436799 0.01893757
v -0.02976520 0.00431545 0.01445683
v -0.02338378 -0.00767909 0.00824652
v -0.02836694 -0.00754551 0.01382716
v -0.02354507 -0.01446858 0.01143738
v -0.02993009 -0.01162971 0.01900033
v -0.03205277 0.00570234 0.01893151
v -0.02706837 0.01024876 0.01253035
v -0.02338974 -0.00969311 0.00890634
v -0.02340453 0.01104514 0.00891413
v -0.02379390 -0.00428678 0.00787254
v -0.02977467 -0.00228883 0.01444251
v -0.02571047 -0.01218454 0.01254930
v -0.03127795 -0.00763391 0.01898627
v -0.03058700 0.01163465 0.01900236
v -0.02645134 0.00629215 0.01051073
v -0.02703097 0.01487917 0.01514117
v -0.02572064 -0.00758781 0.01054560
v -0.02340969 0.00638236 0.00757147
v -0.02573895 0.01089070 0.01122931
v -0.03107965 -0.00425040 0.01710019
v -0.03180993 0.00564572 0.01839575
v -0.02504053 -0.01354828 0.01254137
v -0.02505445 -0.00959720 0.01054375
v -0.02768266 -0.01087585 0.01452032
v -0.02907491 0.00628390 0.01381307
v -0.02846135 -0.00162813 0.01244877
v -0.02968562 0.01153091 0.01711416
v -0.02376520 -0.00957071 0.00922128
v -0.02509202 -0.00494071 0.00922820
v -0.02342956 -0.00433499 0.00755491
v -0.02378772 0.00633422 0.00789302
v -0.02379108 0.01091564 0.00921524
v -0.02571163 0.01353705 0.01257349
v -0.02642350 0.00893881 0.01122614
v -0.02910875 -0.00426956 0.01380169
v -0.03105230 -0.00756415 0.01844292
v -0.03113684 0.00893756 0.01839985
v -0.03041860 -0.00363963 0.01575036
v -0.03174111 -0.00425912 0.01844242
v -0.02380532 -0.01354833 0.01114360
v -0.02708811 -0.01421122 0.01582740
v -0.02769240 -0.00821224 0.01317054
v -0.02845474 0.00432608 0.01251065
v -0.03112159 0.00567052 0.01707677
v -0.03035437 0.01154607 0.01843134
v -0.02767868 0.01355869 0.01514580
v -0.02905573 0.00827935 0.01445621
v -0.02374610 -0.00761933 0.00857049
v -0.02776370 -0.00364084 0.01180647
v -0.02379028 0.00895436 0.00853331
v -0.02380195 0.01488777 0.01117503
v -0.02706078 0.01286856 0.01386653
v -0.03038325 -0.00754595 0.01710589
v -0.03113703 0.00762237 0.01776152
v -0.03138391 0.00901339 0.01895548
v -0.02391275 -0.01428990 0.01172400
f 1 3 4
f 7 1 2
f 7 3 1
f 7 4 3
f 8 1 4
f 12 2 1
f 12 1 8
f 13 8 4
f 16 10 7
f 16 7 2
f 17 7 10
f 21 13 4
f 22 14 5
f 22 21 4
f 22 5 21
f 24 4 7
f 26 17 10
f 26 6 17
f 29 9 19
f 29 5 14
f 34 19 9
f 36 10 16
f 36 31 25
f 36 16 2
f 38 26 10
f 38 10 18
f 39 6 26
f 39 34 23
f 39 18 34
f 39 38 18
f 39 26 38
f 40 7 17
f 40 17 6
f 42 15 27
f 42 23 33
f 42 27 40
f 43 19 34
f 44 21 5
f 44 13 21
f 46 29 19
f 46 28 29
f 46 19 43
f 47 29 28
f 47 5 29
f 47 44 5
f 47 28 44
f 48 30 20
f 48 20 31
f 48 36 2
f 48 31 36
f 49 12 8
f 49 8 13
f 49 13 32
f 49 32 20
f 49 20 30
f 50 31 20
f 50 25 31
f 50 32 11
f 50 20 32
f 51 33 23
f 51 9 33
f 51 34 9
f 51 23 34
f 52 33 9
f 52 9 29
f 53 22 4
f 53 4 35
f 53 35 45
f 54 35 4
f 54 4 24
f 55 42 33
f 55 15 42
f 55 35 54
f 56 36 25
f 56 10 36
f 56 25 37
f 56 37 18
f 56 18 10
f 57 34 18
f 57 18 37
f 57 37 25
f 57 43 34
f 57 25 50
f 57 50 11
f 57 11 43
f 58 39 23
f 58 6 39
f 58 23 42
f 58 42 40
f 58 40 6
f 59 40 27
f 59 7 40
f 59 27 41
f 59 41 24
f 59 24 7
f 60 41 27
f 60 27 15
f 60 55 54
f 60 15 55
f 60 54 24
f 60 24 41
f 61 44 28
f 61 11 32
f 61 32 13
f 61 13 44
f 61 28 46
f 61 46 43
f 61 43 11
f 62 29 14
f 62 52 29
f 62 45 35
f 62 35 55
f 62 55 33
f 62 33 52
f 63 14 22
f 63 53 45
f 63 22 53
f 63 62 14
f 63 45 62
f 64 30 48
f 64 49 30
f 64 12 49
f 64 48 2
f 64 2 12

