# https://github.com/mikedh/trimesh
v 0.01532776 -0.00972099 0.06149254
v 0.01562546 -0.00985328 0.05742082
v 0.01583895 0.01757178 0.05773614
v 0.01160177 0.01861187 0.05930873
v 0.01086870 -0.00985328 0.05742082
v 0.01393149 0.00964919 0.06268178
v 0.01542967 -0.00555804 0.06274700
v 0.01081365 -0.00985156 0.06333715
v 0.01517669 0.01222625 0.06131597
v 0.01395190 -0.00984280 0.06211883
v 0.01478566 -0.00037744 0.06343355
v 0.01074847 0.00971134 0.06354482
v 0.01383917 0.01614801 0.05997714
v 0.01547050 0.00218592 0.06277493
v 0.01201491 -0.00984451 0.06291808
v 0.01475932 -0.00300201 0.06341424
v 0.01063281 0.01689861 0.06081084
v 0.01203965 0.00905168 0.06336701
v 0.01512262 0.01608530 0.05929497
v 0.01518960 0.01681808 0.05874046
v 0.01521098 0.01030258 0.06196202
v 0.01084363 -0.00488189 0.06346417
v 0.01065926 0.01429824 0.06213737
v 0.01125927 0.01680195 0.06065621
v 0.01134298 0.01232753 0.06271752
v 0.01253580 0.01483087 0.06130280
v 0.01136001 0.00969703 0.06341124
v 0.01071650 0.01235279 0.06285707
v 0.01128401 0.01421573 0.06198533
f 5 3 2
f 5 4 3
f 7 1 2
f 7 2 3
f 8 5 2
f 10 8 2
f 10 2 1
f 10 1 7
f 14 7 3
f 14 11 7
f 15 10 7
f 15 7 8
f 15 8 10
f 16 8 7
f 16 7 11
f 17 4 5
f 17 5 8
f 18 12 11
f 18 11 6
f 19 13 9
f 19 9 3
f 20 3 4
f 20 4 13
f 20 19 3
f 20 13 19
f 21 14 3
f 21 3 9
f 21 9 6
f 21 6 11
f 21 11 14
f 22 12 8
f 22 8 16
f 22 16 11
f 22 11 12
f 23 17 8
f 23 8 12
f 24 13 4
f 24 4 17
f 25 6 9
f 26 9 13
f 26 13 24
f 26 24 17
f 26 17 23
f 26 25 9
f 27 18 6
f 27 6 25
f 27 12 18
f 28 25 23
f 28 23 12
f 28 27 25
f 28 12 27
f 29 26 23
f 29 23 25
f 29 25 26

