# https://github.com/mikedh/trimesh
v 0.00134042 -0.01846334 0.06176462
v 0.00135520 -0.01868725 0.05062546
v 0.00135520 -0.00985328 0.05062546
v -0.01605170 -0.00968480 0.06105692
v -0.01631275 -0.01868725 0.05062546
v 0.00125268 -0.00985662 0.06417010
v -0.01381464 -0.01811636 0.05797855
v -0.01631275 -0.00985328 0.05062546
v 0.00127239 -0.01044089 0.06413303
v -0.01394153 -0.00962698 0.06216194
v -0.01575758 -0.01812856 0.05668400
v -0.00668301 -0.00972112 0.06418282
v -0.01380727 -0.01222104 0.06129565
v -0.01529506 -0.00963759 0.06149238
v -0.00399325 -0.01169585 0.06411685
v -0.00864499 -0.01360892 0.06270049
v -0.01575242 -0.01418083 0.05927484
v -0.01386224 -0.01025258 0.06199623
v -0.01584115 -0.01089610 0.06071817
v -0.00008183 -0.01176935 0.06410716
v -0.01002484 -0.00968348 0.06353929
v -0.00663264 -0.01297312 0.06336351
v -0.01049943 -0.01547875 0.06129609
v -0.01380778 -0.01610776 0.05930663
v -0.01517628 -0.01022264 0.06134827
v -0.01127027 -0.01159549 0.06261821
v 0.00126615 -0.01636128 0.06272182
v -0.00666325 -0.01036329 0.06405683
v -0.00864977 -0.01164945 0.06334417
v -0.00527555 -0.01689466 0.06200003
v -0.01180711 -0.01675988 0.05997627
v -0.00927616 -0.01488936 0.06196868
v 0.00122709 -0.01441024 0.06336449
v -0.00998641 -0.01032509 0.06338811
v -0.00656553 -0.01491045 0.06264039
v -0.00264090 -0.01625292 0.06270318
v -0.00527764 -0.01815950 0.06131281
v 0.00130189 -0.01768456 0.06216023
v -0.00397052 -0.01431167 0.06335046
v -0.00984537 -0.01809840 0.05994815
v -0.00263915 -0.01758872 0.06205444
f 1 2 3
f 5 2 1
f 5 3 2
f 7 5 1
f 8 5 4
f 8 3 5
f 9 1 3
f 9 3 6
f 11 4 5
f 11 5 7
f 12 6 3
f 12 3 10
f 14 8 4
f 14 10 3
f 14 3 8
f 15 6 12
f 17 4 11
f 18 10 14
f 19 17 13
f 19 4 17
f 20 9 6
f 20 6 15
f 21 12 10
f 24 17 11
f 24 11 7
f 24 23 13
f 24 13 17
f 25 18 14
f 25 13 18
f 25 19 13
f 25 14 4
f 25 4 19
f 26 18 13
f 26 21 10
f 26 10 18
f 26 13 23
f 27 1 9
f 28 22 15
f 28 15 12
f 28 12 21
f 29 16 22
f 29 26 16
f 29 28 21
f 29 22 28
f 31 24 7
f 31 23 24
f 32 26 23
f 32 16 26
f 33 20 15
f 33 27 9
f 33 9 20
f 34 29 21
f 34 21 26
f 34 26 29
f 35 22 16
f 35 32 30
f 35 16 32
f 37 32 23
f 37 30 32
f 38 1 27
f 38 27 36
f 39 35 30
f 39 30 36
f 39 22 35
f 39 15 22
f 39 33 15
f 39 36 27
f 39 27 33
f 40 7 1
f 40 1 37
f 40 31 7
f 40 37 23
f 40 23 31
f 41 36 30
f 41 30 37
f 41 37 1
f 41 38 36
f 41 1 38

