# https://github.com/mikedh/trimesh
v -0.02511754 -0.01594933 0.04856790
v -0.02568852 -0.01548051 0.04810334
v -0.02514672 0.01528957 0.04179149
v -0.02595238 0.01575164 0.04916132
v -0.03046170 -0.00096199 0.04812148
v -0.02730736 -0.01731342 0.04264371
v -0.02972507 -0.00556713 0.04809393
v -0.03270155 0.00835176 0.04158050
v -0.02769915 -0.01154968 0.04811544
v -0.02973674 0.00829267 0.04807226
v -0.03023027 0.01513310 0.04166385
v -0.02867577 -0.01565225 0.04161066
v -0.03333581 -0.00095627 0.04158064
v -0.03247483 0.00366064 0.04416626
v -0.03046360 0.00366076 0.04811141
v -0.03121459 0.01297672 0.04153108
v -0.02899375 0.01353342 0.04607991
v -0.03199722 -0.00761509 0.04157288
v -0.02902134 -0.01417450 0.04281936
v -0.03180546 -0.00163353 0.04546184
v -0.03176154 0.00696324 0.04479453
v -0.03335288 0.00436908 0.04156915
v -0.03062501 0.01432724 0.04156080
v -0.02841846 0.01223978 0.04810187
v -0.02836493 0.01487055 0.04609320
v -0.03033747 -0.00886239 0.04481023
v -0.03060682 -0.01162366 0.04157706
v -0.02833473 -0.01547893 0.04280501
v -0.03114200 -0.00161838 0.04678437
v -0.03243646 -0.00094072 0.04416075
v -0.03035474 0.01087882 0.04545812
v -0.03042563 0.00694450 0.04744230
v -0.03313681 -0.00093681 0.04219512
v -0.03242343 0.00630373 0.04349348
v -0.02987419 0.01493469 0.04285240
v -0.02716125 0.01489769 0.04810934
v -0.02835752 0.01417540 0.04674729
v -0.02971714 -0.00685401 0.04747033
v -0.02968914 -0.01151795 0.04411097
v -0.03105606 -0.00423070 0.04609517
v -0.03175433 0.01089861 0.04215678
v -0.02969388 0.01090997 0.04674003
v -0.03176240 0.00498938 0.04546146
v -0.03241849 -0.00421690 0.04283060
v -0.03242807 0.00761893 0.04281434
v -0.03314015 0.00435285 0.04217334
v -0.03043981 0.01424509 0.04217332
v -0.02905832 0.01485468 0.04476759
v -0.02903873 -0.01085765 0.04610253
v -0.02967304 -0.01218207 0.04348167
v -0.03043588 -0.01154739 0.04216272
v -0.03104610 -0.00554537 0.04545654
v -0.03103711 0.01224933 0.04276633
v -0.03193444 0.01098687 0.04156502
v -0.03110623 0.00500273 0.04675550
v -0.03242144 -0.00290811 0.04350625
v -0.03268160 -0.00495325 0.04157851
v -0.03249895 0.00830363 0.04218875
v -0.03173837 0.00827286 0.04413784
v -0.02834457 -0.01085165 0.04745406
v -0.03036766 -0.00686325 0.04611933
v -0.03171047 -0.00619169 0.04346584
v -0.03171613 0.01024684 0.04277981
v -0.03103447 0.01287180 0.04212220
f 1 3 4
f 5 1 4
f 6 1 2
f 6 3 1
f 7 1 5
f 9 2 1
f 9 1 7
f 11 4 3
f 12 3 6
f 15 5 4
f 15 4 10
f 15 14 5
f 16 3 12
f 19 2 9
f 22 8 16
f 22 18 13
f 22 16 18
f 23 11 3
f 23 3 16
f 24 10 4
f 27 18 16
f 27 16 12
f 27 12 19
f 28 19 12
f 28 12 6
f 28 6 2
f 28 2 19
f 29 7 5
f 29 5 14
f 29 14 20
f 30 20 14
f 32 15 10
f 33 22 13
f 33 14 22
f 33 30 14
f 36 24 4
f 36 4 25
f 37 17 24
f 37 36 25
f 37 24 36
f 38 9 7
f 40 29 20
f 40 7 29
f 40 38 7
f 42 24 17
f 42 17 31
f 42 31 10
f 42 10 24
f 43 34 14
f 43 21 34
f 45 34 21
f 45 8 22
f 45 22 34
f 46 34 22
f 46 22 14
f 46 14 34
f 47 35 11
f 47 11 23
f 47 23 16
f 48 25 4
f 48 4 11
f 48 11 35
f 48 37 25
f 48 17 37
f 49 38 26
f 49 26 39
f 49 19 9
f 50 49 39
f 50 19 49
f 51 39 26
f 51 26 18
f 51 18 27
f 51 50 39
f 51 27 19
f 51 19 50
f 52 38 40
f 53 16 41
f 53 35 47
f 53 48 35
f 53 31 17
f 53 17 48
f 54 41 16
f 54 16 8
f 54 8 41
f 55 43 14
f 55 14 15
f 55 15 32
f 55 32 21
f 55 21 43
f 56 33 13
f 56 13 44
f 56 30 33
f 56 20 30
f 56 40 20
f 56 52 40
f 56 44 52
f 57 44 13
f 57 13 18
f 58 41 8
f 58 8 45
f 59 45 21
f 59 58 45
f 59 21 32
f 59 32 10
f 59 10 31
f 60 49 9
f 60 9 38
f 60 38 49
f 61 52 26
f 61 26 38
f 61 38 52
f 62 52 44
f 62 18 26
f 62 26 52
f 62 57 18
f 62 44 57
f 63 53 41
f 63 31 53
f 63 59 31
f 63 41 58
f 63 58 59
f 64 53 47
f 64 47 16
f 64 16 53

