# https://github.com/mikedh/trimesh
v 0.01136599 -0.01992514 0.05893664
v 0.01902314 -0.01868725 0.04994592
v 0.01849408 -0.01691332 0.05676811
v 0.01160177 0.01861187 0.05930873
v 0.01086870 0.01732818 0.04994592
v 0.01902314 0.01732818 0.04994592
v 0.01845058 -0.01813258 0.05597775
v 0.01086870 -0.01868725 0.04994592
v 0.01859489 0.01689549 0.05621097
v 0.01722212 -0.01823850 0.05681861
v 0.01853695 0.01618262 0.05682405
v 0.01786979 0.01684946 0.05683408
f 1 3 4
f 5 1 4
f 6 5 4
f 6 2 5
f 7 1 2
f 7 2 3
f 8 5 2
f 8 2 1
f 8 1 5
f 9 3 2
f 9 2 6
f 9 6 4
f 10 7 3
f 10 3 1
f 10 1 7
f 11 4 3
f 11 3 9
f 12 11 9
f 12 9 4
f 12 4 11

