# https://github.com/mikedh/trimesh
v -0.02990348 -0.00849420 0.03363705
v -0.02990348 -0.00849420 0.02684169
v -0.02990348 -0.00033977 0.02684169
v -0.03489061 -0.00030541 0.03360619
v -0.03339595 -0.00831666 0.03359731
v -0.03463767 -0.00030329 0.02693471
v -0.02990348 -0.00033977 0.03363705
v -0.03327698 -0.00829342 0.02690357
v -0.03453965 -0.00363411 0.02894931
v -0.03384416 -0.00690428 0.02892935
v -0.03457775 -0.00359511 0.03290582
v -0.03382492 -0.00626726 0.02692925
v -0.03462786 -0.00295565 0.03359016
v -0.03384914 -0.00694117 0.03289075
v -0.03456668 -0.00163962 0.02697023
v -0.03395666 -0.00627774 0.03359051
f 1 2 3
f 5 2 1
f 5 1 4
f 7 1 3
f 7 4 1
f 7 6 4
f 7 3 6
f 8 6 3
f 8 3 2
f 8 2 5
f 9 4 6
f 10 8 5
f 11 4 9
f 11 9 10
f 12 6 8
f 12 10 9
f 12 8 10
f 13 4 11
f 14 11 10
f 14 10 5
f 15 12 9
f 15 9 6
f 15 6 12
f 16 13 11
f 16 11 14
f 16 14 5
f 16 5 4
f 16 4 13

