# https://github.com/mikedh/trimesh
v 0.01630500 0.01732818 0.04790731
v 0.01630500 0.01732818 0.01800771
v 0.01705763 0.02733108 0.01742389
v -0.01626197 0.02607488 0.04852695
v -0.01631275 0.01732818 0.01800771
v 0.01619593 0.02600378 0.04781619
v -0.01631275 0.01732818 0.04858685
v -0.01714655 0.02746979 0.01714947
v 0.00135520 0.02616215 0.04858685
v 0.00135520 0.01732818 0.04858685
f 1 2 3
f 5 2 1
f 6 1 3
f 7 5 1
f 8 3 2
f 8 2 5
f 8 7 4
f 8 5 7
f 9 1 6
f 9 4 7
f 9 8 4
f 9 6 3
f 9 3 8
f 10 9 7
f 10 7 1
f 10 1 9

