# https://github.com/mikedh/trimesh
v 0.00931035 -0.03342546 0.03888064
v 0.02941077 -0.01837302 0.02490017
v 0.02573853 -0.01884459 0.04741059
v 0.00613890 -0.01842272 0.06093318
v 0.00135520 -0.01868725 0.01868725
v 0.02461104 -0.01830957 0.04952479
v 0.02247784 -0.02743638 0.03561275
v 0.00794070 -0.03207022 0.01910384
v 0.00135669 -0.03360323 0.04224263
v 0.01268093 -0.01832336 0.05966549
v 0.02935486 -0.01838121 0.03960906
v 0.01784994 -0.02733810 0.04607413
v 0.02707526 -0.01862003 0.01873430
v 0.01322455 -0.03278807 0.02827170
v 0.00133146 -0.01975311 0.06097852
v 0.00135820 -0.03270920 0.01880014
v 0.00675153 -0.01839687 0.06095071
v 0.02802154 -0.01838659 0.04360649
v 0.03005815 -0.01837828 0.03561386
v 0.02108930 -0.02468364 0.04676067
v 0.01722106 -0.03003410 0.04021653
v 0.00861876 -0.03005954 0.04810720
v 0.02885193 -0.01843537 0.02287494
v 0.01845668 -0.02734905 0.01907675
v 0.00334033 -0.03489847 0.02694818
v 0.00133574 -0.03500249 0.02693340
v 0.00595885 -0.02277215 0.05805635
v 0.02598532 -0.01833652 0.04755884
v 0.02574087 -0.02346302 0.03951530
v 0.02710704 -0.02284133 0.03094628
v 0.02301949 -0.02275305 0.04676073
v 0.01907729 -0.02076056 0.05329783
v 0.02111966 -0.02670719 0.04284887
v 0.01854599 -0.03012345 0.03559989
v 0.00595665 -0.03275603 0.04351123
v 0.01455164 -0.03001254 0.04410284
v 0.01320191 -0.03136548 0.02168524
v 0.02435575 -0.02409638 0.02303327
v 0.01517250 -0.02936871 0.01908837
v 0.00531740 -0.03349867 0.02167315
v 0.00930792 -0.03417995 0.03359079
v 0.00134146 -0.03359323 0.02095205
v 0.00133383 -0.03291519 0.04425019
v 0.00727837 -0.02082445 0.05938946
v 0.01189496 -0.02533574 0.05336445
v 0.02635150 -0.02013814 0.04475608
v 0.02700540 -0.02079429 0.04214555
v 0.02843171 -0.02086905 0.03626663
v 0.03006543 -0.01839770 0.02960485
v 0.02437794 -0.02009928 0.04804773
v 0.01795387 -0.01830969 0.05622155
v 0.01715267 -0.02467355 0.05069237
v 0.02170000 -0.02142905 0.05003573
v 0.01983307 -0.02738129 0.04346347
v 0.02049041 -0.02803866 0.04023133
v 0.02569451 -0.02276185 0.04148854
v 0.02051282 -0.02879546 0.02831434
v 0.00400448 -0.03416929 0.03954513
v 0.01326247 -0.03206039 0.03950394
v 0.00994571 -0.03139055 0.04480342
v 0.02509483 -0.02143025 0.01907043
v 0.02706048 -0.02144727 0.02434219
v 0.01384218 -0.03004459 0.01911256
v 0.01782268 -0.02938343 0.02301438
f 10 2 5
f 15 4 5
f 16 5 13
f 17 10 5
f 17 5 4
f 17 4 15
f 19 2 6
f 19 6 11
f 23 13 5
f 23 5 2
f 26 15 5
f 28 18 11
f 28 11 6
f 28 6 3
f 33 31 20
f 39 16 13
f 39 13 24
f 40 16 8
f 40 8 37
f 40 37 14
f 40 14 25
f 41 25 14
f 41 14 34
f 42 26 5
f 42 5 16
f 42 16 40
f 42 40 25
f 42 25 26
f 43 26 9
f 43 15 26
f 43 27 15
f 43 22 27
f 43 35 22
f 43 9 35
f 44 17 15
f 44 15 27
f 44 10 17
f 45 27 22
f 45 44 27
f 45 10 44
f 45 32 10
f 45 36 12
f 45 22 36
f 46 28 3
f 46 18 28
f 47 11 18
f 47 18 46
f 48 19 11
f 48 47 29
f 48 11 47
f 48 29 7
f 48 7 30
f 49 30 2
f 49 2 19
f 49 48 30
f 49 19 48
f 50 3 6
f 50 46 3
f 50 31 46
f 51 32 6
f 51 10 32
f 51 6 2
f 51 2 10
f 52 12 20
f 52 45 12
f 52 32 45
f 53 20 31
f 53 31 50
f 53 50 6
f 53 6 32
f 53 52 20
f 53 32 52
f 54 33 20
f 54 20 12
f 54 36 21
f 54 12 36
f 55 7 29
f 55 29 33
f 55 34 7
f 55 21 34
f 55 54 21
f 55 33 54
f 56 33 29
f 56 31 33
f 56 29 47
f 56 47 46
f 56 46 31
f 57 34 14
f 57 7 34
f 57 38 30
f 57 30 7
f 58 35 9
f 58 1 35
f 58 41 1
f 58 9 26
f 58 26 25
f 58 25 41
f 59 21 36
f 59 1 41
f 59 41 34
f 59 34 21
f 60 36 22
f 60 22 35
f 60 59 36
f 60 35 1
f 60 1 59
f 61 38 24
f 61 24 13
f 61 13 23
f 62 23 2
f 62 2 30
f 62 30 38
f 62 61 23
f 62 38 61
f 63 8 16
f 63 16 39
f 63 39 37
f 63 37 8
f 64 39 24
f 64 37 39
f 64 24 38
f 64 38 57
f 64 57 14
f 64 14 37

