# https://github.com/mikedh/trimesh
v 0.00134010 0.01722563 0.06194225
v 0.00135520 0.01732818 0.04858685
v 0.00133538 0.03051289 0.04834264
v -0.00737106 0.02975761 0.04829472
v -0.01631275 0.01732818 0.04858685
v -0.01202637 0.02833592 0.04824662
v -0.00132252 0.02342528 0.05740869
v -0.01528385 0.01694938 0.05820711
v -0.00335827 0.03041395 0.04828626
v -0.01604350 0.02637891 0.04826920
v 0.00133681 0.02751601 0.05281879
v -0.00794064 0.02539990 0.05402482
v -0.00601692 0.01701532 0.06162318
v -0.01003284 0.02904314 0.04826787
v -0.01605274 0.01704626 0.05767407
v 0.00132120 0.02024342 0.06014751
v -0.00067387 0.02945414 0.05009677
v -0.01254619 0.02537484 0.05202565
v -0.00528779 0.02809306 0.05141250
v -0.01267679 0.01693922 0.05955795
v -0.00789767 0.02143916 0.05803484
v -0.00003448 0.02411239 0.05674939
v -0.00329791 0.01818405 0.06136947
v 0.00130902 0.02944437 0.05009332
v -0.01454281 0.02600614 0.04998713
v -0.01315003 0.02139618 0.05596986
v -0.01058301 0.02670701 0.05134909
v -0.00530127 0.02944249 0.04944130
v -0.00265761 0.02744244 0.05276643
v -0.00596648 0.02274894 0.05737094
v -0.00857708 0.01751585 0.06071615
v -0.00003931 0.02279227 0.05806248
v 0.00131407 0.01825172 0.06141708
v 0.00132076 0.03021327 0.04884195
v -0.01513447 0.02008291 0.05598773
v -0.01121199 0.02008304 0.05794076
v -0.00858717 0.02337015 0.05600027
v -0.01518362 0.02402318 0.05203016
v -0.00994294 0.02876006 0.04877264
v -0.01190185 0.02668136 0.05072062
v -0.00990548 0.02537977 0.05333436
v -0.00864315 0.02876406 0.04941018
v -0.00397878 0.02875102 0.05074234
v -0.00064395 0.02412141 0.05674559
v -0.00396471 0.02676589 0.05342967
v -0.00331879 0.02015421 0.06003335
v -0.00867169 0.01701476 0.06099982
v -0.01582380 0.01873969 0.05662741
v -0.00993558 0.02142551 0.05734195
v -0.00924887 0.02010484 0.05866854
v -0.01256137 0.01743035 0.05927650
v -0.00595258 0.02472553 0.05536286
v -0.01323121 0.02335407 0.05399470
v -0.01587683 0.02470831 0.05069519
v -0.01258045 0.02735854 0.04935991
v -0.01190878 0.02809117 0.04870881
v -0.00730607 0.02946695 0.04879800
v -0.00329998 0.03012708 0.04877657
v -0.00130991 0.02276399 0.05806375
v -0.00530083 0.02144696 0.05869367
v -0.00527828 0.01884464 0.06066027
v -0.00729608 0.01815219 0.06066994
v -0.01513236 0.01746466 0.05795874
v -0.01187522 0.02203953 0.05597716
f 8 5 2
f 9 3 2
f 9 2 6
f 10 6 2
f 10 2 5
f 11 1 2
f 11 2 3
f 13 2 1
f 14 9 6
f 14 4 9
f 15 10 5
f 15 5 8
f 16 1 11
f 17 3 9
f 20 8 2
f 20 2 13
f 22 16 11
f 23 13 1
f 24 17 11
f 24 11 3
f 28 9 4
f 29 11 17
f 32 16 22
f 33 23 1
f 33 1 16
f 33 16 23
f 34 24 3
f 34 3 17
f 34 17 24
f 36 26 35
f 37 21 30
f 38 18 25
f 40 25 18
f 40 18 27
f 40 27 39
f 41 27 18
f 41 37 12
f 42 12 19
f 42 39 27
f 42 4 14
f 42 14 39
f 42 41 12
f 42 27 41
f 43 29 17
f 43 28 19
f 43 19 29
f 44 22 11
f 44 11 29
f 44 32 22
f 45 29 19
f 45 19 12
f 45 44 29
f 45 7 44
f 46 23 16
f 47 31 20
f 47 20 13
f 49 21 37
f 50 49 36
f 50 21 49
f 51 20 31
f 51 50 36
f 51 31 50
f 51 36 35
f 52 37 30
f 52 12 37
f 52 45 12
f 52 30 7
f 52 7 45
f 53 18 38
f 53 41 18
f 53 38 35
f 53 35 26
f 54 38 25
f 54 25 10
f 54 10 15
f 54 15 48
f 54 48 35
f 54 35 38
f 55 25 40
f 55 6 10
f 55 10 25
f 56 40 39
f 56 55 40
f 56 6 55
f 56 39 14
f 56 14 6
f 57 28 4
f 57 4 42
f 57 42 19
f 57 19 28
f 58 43 17
f 58 17 9
f 58 9 28
f 58 28 43
f 59 44 7
f 59 32 44
f 59 7 30
f 59 46 16
f 59 16 32
f 60 30 21
f 60 59 30
f 60 46 59
f 61 13 23
f 61 23 46
f 61 46 60
f 62 47 13
f 62 31 47
f 62 13 61
f 62 50 31
f 62 21 50
f 62 61 60
f 62 60 21
f 63 48 15
f 63 15 8
f 63 8 20
f 63 20 51
f 63 51 35
f 63 35 48
f 64 26 36
f 64 36 49
f 64 53 26
f 64 49 37
f 64 37 41
f 64 41 53

