# https://github.com/mikedh/trimesh
v 0.01001567 0.03178462 0.04162114
v 0.00973086 0.03095435 0.01769267
v 0.00464287 0.03490425 0.02893369
v -0.00666138 0.03415041 0.03753468
v 0.00135520 0.03023937 0.04179149
v -0.00704668 0.03150822 0.01740325
v 0.00262410 0.03416181 0.03885385
v 0.00926277 0.03351537 0.02558480
v 0.00198970 0.03419465 0.02295555
v -0.00729081 0.03250495 0.04269896
v 0.00725949 0.03412435 0.03486962
v -0.00334468 0.03490932 0.03558181
v 0.00329897 0.03280587 0.01905143
v 0.00595187 0.03418492 0.02494191
v -0.00668967 0.03425257 0.02563503
v -0.00265305 0.03348115 0.04150818
v 0.00596727 0.03347993 0.03952777
v 0.00198377 0.03489303 0.03555331
v 0.00795596 0.03418695 0.03288574
v 0.00596653 0.03214000 0.01837124
v -0.00264360 0.03282153 0.01902180
v 0.00131436 0.03490453 0.02628528
v 0.00795528 0.03417555 0.02763543
v 0.00397843 0.03346405 0.02103109
v 0.00795222 0.03277347 0.02103137
v -0.00600081 0.03489982 0.03157810
v -0.00665823 0.03350427 0.04015678
v -0.00401201 0.03417791 0.03885954
v 0.00131491 0.03349503 0.04150687
v 0.00926522 0.03281817 0.03886313
v 0.00396024 0.03414454 0.03820007
v 0.00396476 0.03489916 0.03355126
v -0.00265850 0.03416220 0.02298705
v 0.00395480 0.03419287 0.02361167
v 0.00398230 0.03486782 0.02761447
v -0.00533837 0.03491634 0.03358172
v 0.00729444 0.03414666 0.02630958
v 0.00530915 0.03279702 0.01967786
v 0.00862514 0.03347527 0.02429789
v 0.00794422 0.03205906 0.01909120
v -0.00466519 0.03486797 0.02764178
v -0.00531803 0.03347441 0.04081639
v 0.00392594 0.03344562 0.04085745
v 0.00727012 0.03280153 0.04084810
v 0.00860105 0.03344849 0.03685999
v 0.00923641 0.03349002 0.03553317
v 0.00463089 0.03489967 0.03222479
v -0.00332969 0.03350567 0.02100247
v -0.00199506 0.03489961 0.02627480
v 0.00661288 0.03344239 0.02232448
v 0.00930022 0.03281369 0.02231150
v -0.00600043 0.03489779 0.03026334
v -0.00670639 0.03300733 0.04157215
v 0.00928999 0.03224076 0.04089105
v -0.00532128 0.03278612 0.01968030
v -0.00664504 0.03346295 0.02231311
v -0.00531996 0.03417872 0.02429105
v 0.00531873 0.03414669 0.02431075
v 0.00925715 0.03139746 0.01838300
v -0.00597800 0.03212368 0.01836531
v -0.00531650 0.03348730 0.02168546
v -0.00662739 0.03281474 0.02032898
v -0.00667910 0.03226334 0.01898024
v -0.00673657 0.03190923 0.01816586
f 5 2 1
f 6 2 5
f 8 1 2
f 10 6 5
f 10 5 1
f 15 10 4
f 15 6 10
f 18 12 7
f 20 2 6
f 20 6 13
f 21 13 6
f 21 9 13
f 23 19 8
f 23 3 19
f 24 13 9
f 26 15 4
f 27 4 10
f 28 7 12
f 28 12 4
f 28 4 27
f 29 16 10
f 29 10 1
f 29 28 16
f 29 7 28
f 31 17 11
f 31 18 7
f 32 12 18
f 32 11 19
f 32 31 11
f 32 18 31
f 34 9 22
f 34 24 9
f 35 22 3
f 35 34 22
f 35 14 34
f 36 3 22
f 36 32 3
f 36 12 32
f 36 26 4
f 36 4 12
f 37 23 8
f 37 14 35
f 37 35 3
f 37 3 23
f 38 20 13
f 38 13 24
f 39 37 8
f 39 14 37
f 40 2 20
f 40 38 25
f 40 20 38
f 42 10 16
f 42 28 27
f 42 16 28
f 43 29 1
f 43 7 29
f 43 31 7
f 43 17 31
f 44 30 17
f 44 43 1
f 44 17 43
f 45 11 17
f 45 17 30
f 46 30 1
f 46 1 8
f 46 8 19
f 46 45 30
f 46 19 11
f 46 11 45
f 47 32 19
f 47 19 3
f 47 3 32
f 48 33 9
f 48 9 21
f 49 22 9
f 49 9 33
f 49 36 22
f 50 24 34
f 50 38 24
f 50 25 38
f 50 14 39
f 51 39 8
f 51 8 2
f 51 50 39
f 51 25 50
f 52 41 15
f 52 15 26
f 52 49 41
f 52 26 36
f 52 36 49
f 53 42 27
f 53 27 10
f 53 10 42
f 54 44 1
f 54 1 30
f 54 30 44
f 55 48 21
f 56 6 15
f 57 49 33
f 57 15 41
f 57 41 49
f 57 56 15
f 58 50 34
f 58 34 14
f 58 14 50
f 59 40 25
f 59 25 51
f 59 51 2
f 59 2 40
f 60 55 21
f 60 21 6
f 61 33 48
f 61 48 55
f 61 57 33
f 61 56 57
f 62 6 56
f 62 61 55
f 62 56 61
f 63 6 62
f 63 62 55
f 63 55 60
f 64 63 60
f 64 60 6
f 64 6 63

