# https://github.com/mikedh/trimesh
v 0.00135389 -0.03088150 0.04856550
v 0.00133089 -0.03029009 0.04954562
v -0.00997535 -0.02895495 0.04822352
v -0.01527484 -0.01830907 0.05689304
v 0.00135520 -0.01868725 0.04858685
v -0.00393411 -0.02275858 0.05807384
v -0.00531072 -0.03036048 0.04827778
v 0.00133146 -0.01975311 0.06097852
v -0.01631275 -0.01868725 0.04858685
v -0.01121171 -0.02539162 0.05269155
v -0.00261501 -0.03012822 0.04945303
v -0.00796980 -0.02964633 0.04823322
v 0.00135574 -0.02233662 0.05895347
v -0.00865043 -0.01831627 0.06024339
v -0.01525347 -0.02623855 0.04819811
v -0.00132305 -0.02942880 0.05078659
v -0.00920598 -0.02670038 0.05203895
v 0.00133616 -0.02749839 0.05346422
v -0.00329116 -0.02215165 0.05871899
v -0.00675871 -0.01859188 0.06066585
v -0.01193830 -0.01829297 0.05887509
v -0.00850854 -0.02139833 0.05797182
v -0.01598865 -0.02569261 0.04828567
v -0.01315649 -0.02669790 0.04940137
v -0.01049142 -0.02667238 0.05137537
v -0.00983855 -0.02869965 0.04872856
v -0.00657716 -0.02802819 0.05138734
v 0.00135420 -0.02948149 0.05080388
v -0.00260308 -0.02675328 0.05406417
v -0.00669013 -0.01905972 0.06038396
v -0.01378153 -0.02073398 0.05594486
v -0.00660862 -0.02473981 0.05540928
v -0.00986780 -0.02073269 0.05797274
v -0.01599654 -0.01836904 0.05632161
v -0.01441813 -0.02404412 0.05201950
v -0.01314249 -0.02536036 0.05135572
v -0.01051051 -0.02800193 0.04939673
v -0.00655313 -0.02936677 0.04939736
v -0.00327448 -0.02874421 0.05140904
v -0.00788137 -0.02936815 0.04874688
v -0.00130865 -0.02744572 0.05341534
v -0.00391605 -0.02539723 0.05537822
v -0.00592794 -0.02146779 0.05872049
v -0.00855660 -0.01881006 0.05995544
v -0.01441002 -0.01942729 0.05663397
v -0.00857708 -0.02536514 0.05400238
v -0.01183203 -0.01876712 0.05859973
v -0.01378903 -0.02269142 0.05400672
v -0.01576543 -0.02409768 0.05076512
v -0.01245128 -0.02468991 0.05267121
v -0.01510127 -0.02599682 0.04872184
v -0.00593746 -0.02608593 0.05404834
v -0.00458181 -0.02940677 0.05007337
v -0.00657096 -0.02210014 0.05800282
v -0.01581936 -0.01883360 0.05608916
v -0.01581249 -0.02547773 0.04880428
v -0.00525741 -0.03008146 0.04875984
v -0.01511101 -0.01877218 0.05666502
f 7 5 1
f 9 4 5
f 11 7 1
f 12 5 7
f 13 1 5
f 13 5 8
f 15 9 5
f 15 12 3
f 15 5 12
f 16 11 1
f 16 1 2
f 19 13 8
f 19 6 13
f 20 8 5
f 20 5 14
f 21 14 5
f 21 5 4
f 23 9 15
f 24 15 3
f 25 17 10
f 26 3 12
f 28 2 1
f 28 1 13
f 28 13 18
f 28 18 16
f 28 16 2
f 30 19 8
f 30 8 20
f 33 31 10
f 34 4 9
f 34 9 23
f 36 25 10
f 36 24 25
f 37 25 24
f 37 24 3
f 37 3 26
f 37 26 17
f 37 17 25
f 38 12 7
f 39 11 16
f 40 27 17
f 40 17 26
f 40 38 27
f 40 26 12
f 40 12 38
f 41 18 13
f 41 13 29
f 41 16 18
f 41 39 16
f 41 29 39
f 42 29 13
f 42 13 6
f 42 6 32
f 43 6 19
f 43 19 30
f 43 30 22
f 44 22 30
f 44 33 22
f 44 14 21
f 44 30 20
f 44 20 14
f 45 21 4
f 46 17 27
f 46 10 17
f 46 32 22
f 46 33 10
f 46 22 33
f 47 31 33
f 47 45 31
f 47 21 45
f 47 44 21
f 47 33 44
f 48 10 31
f 49 34 23
f 49 36 35
f 49 35 48
f 50 36 10
f 50 35 36
f 50 48 35
f 50 10 48
f 51 15 24
f 51 24 36
f 51 36 49
f 52 39 29
f 52 27 39
f 52 29 42
f 52 42 32
f 52 46 27
f 52 32 46
f 53 39 27
f 53 27 38
f 53 11 39
f 54 32 6
f 54 6 43
f 54 43 22
f 54 22 32
f 55 31 45
f 55 48 31
f 55 49 48
f 55 34 49
f 56 51 49
f 56 49 23
f 56 23 15
f 56 15 51
f 57 53 38
f 57 38 7
f 57 7 11
f 57 11 53
f 58 55 45
f 58 45 4
f 58 4 34
f 58 34 55

