# https://github.com/mikedh/trimesh
v 0.00600574 -0.03238350 0.01895216
v 0.02707526 -0.01862003 0.01873430
v 0.02653944 -0.01956035 0.01900623
v -0.01631275 -0.01868725 0.01868725
v -0.00535540 -0.01840077 0.00360526
v -0.01456483 -0.02888884 0.01903135
v 0.02595578 -0.01831198 0.01630168
v 0.01993050 -0.02624219 0.01902017
v -0.00327777 -0.02746164 0.01046059
v -0.01600400 -0.01836185 0.00763796
v 0.02669765 -0.01834262 0.01760547
v -0.00796749 -0.03162302 0.01899971
v 0.02436807 -0.02142578 0.01777643
v 0.01191188 -0.02083999 0.00659979
v -0.01612970 -0.02788588 0.01884871
v -0.01183549 -0.02472325 0.01056501
v 0.01927208 -0.01828056 0.00904597
v 0.02635419 -0.01941894 0.01842019
v 0.01328693 -0.03024486 0.01898677
v -0.00198932 -0.03146294 0.01640478
v 0.00399802 -0.02351724 0.00656193
v -0.01574803 -0.02405803 0.01254682
v -0.01118938 -0.02800898 0.01450347
v -0.01121350 -0.02146069 0.00724497
v -0.01065828 -0.01836623 0.00497005
v 0.00669430 -0.01839964 0.00363495
v 0.02438473 -0.01880679 0.01450580
v 0.01514052 -0.02405804 0.01117756
v 0.02569711 -0.01879164 0.01643187
v 0.00934130 -0.03164283 0.01897201
v -0.00723769 -0.02941316 0.01446904
v 0.00463795 -0.02940097 0.01311072
v -0.00465846 -0.03235758 0.01895982
v -0.00263383 -0.02354350 0.00656754
v -0.00984550 -0.03071557 0.01841996
v -0.01247308 -0.02603808 0.01252639
v -0.01381147 -0.02668566 0.01443824
v -0.00723889 -0.02410525 0.00792030
v -0.01578196 -0.02078814 0.00928448
v -0.01184766 -0.02015267 0.00659050
v 0.01334260 -0.01835339 0.00567154
v -0.00865048 -0.01837302 0.00432870
v -0.00067330 -0.02089213 0.00451998
v 0.00861813 -0.02147831 0.00592493
v 0.02462126 -0.01830287 0.01432539
v 0.01912649 -0.02402934 0.01452824
v 0.01518634 -0.02213511 0.00924823
v 0.02643381 -0.01883269 0.01775792
v 0.02436705 -0.01939876 0.01513009
v -0.00393484 -0.03013363 0.01440238
v 0.00334524 -0.03145661 0.01640801
v 0.00332993 -0.02812435 0.01111262
v 0.00790376 -0.03004168 0.01513573
v -0.00132673 -0.03213686 0.01772155
v -0.00994801 -0.03094583 0.01899724
v -0.01314638 -0.02933296 0.01844558
v -0.00787852 -0.03071399 0.01711536
v -0.01383308 -0.02472120 0.01184166
v -0.00989998 -0.02669652 0.01181499
v -0.01585343 -0.02745632 0.01773262
v -0.01051398 -0.02343131 0.00853957
v -0.00462417 -0.02544602 0.00853235
v -0.00727778 -0.02150216 0.00589650
v -0.01054837 -0.01885666 0.00521340
f 3 2 4
f 6 3 4
f 8 3 6
f 11 4 2
f 11 10 4
f 11 7 10
f 12 8 6
f 13 3 8
f 15 6 4
f 15 4 10
f 17 10 7
f 18 2 3
f 18 3 13
f 19 8 12
f 22 15 10
f 25 10 17
f 29 18 13
f 29 7 11
f 29 27 7
f 30 19 12
f 30 12 1
f 33 1 12
f 37 36 23
f 39 22 10
f 40 10 25
f 40 39 10
f 40 24 39
f 42 26 5
f 42 41 26
f 42 25 17
f 42 17 41
f 43 26 21
f 43 5 26
f 43 21 34
f 44 21 26
f 44 14 28
f 44 41 14
f 44 26 41
f 45 27 17
f 45 17 7
f 45 7 27
f 46 13 8
f 46 8 19
f 46 19 28
f 46 17 27
f 47 28 14
f 47 46 28
f 47 17 46
f 47 41 17
f 47 14 41
f 48 29 11
f 48 18 29
f 48 11 2
f 48 2 18
f 49 29 13
f 49 27 29
f 49 46 27
f 49 13 46
f 50 31 9
f 50 20 33
f 51 20 32
f 52 21 44
f 52 44 28
f 52 34 21
f 52 9 34
f 52 50 9
f 52 32 20
f 52 20 50
f 53 30 1
f 53 51 32
f 53 1 51
f 53 19 30
f 53 28 19
f 53 52 28
f 53 32 52
f 54 33 20
f 54 1 33
f 54 51 1
f 54 20 51
f 55 35 12
f 55 12 6
f 56 23 35
f 56 37 23
f 56 55 6
f 56 35 55
f 57 12 35
f 57 31 50
f 57 50 33
f 57 33 12
f 57 35 23
f 57 23 31
f 58 16 36
f 58 39 16
f 58 22 39
f 58 37 22
f 58 36 37
f 59 31 23
f 59 23 36
f 59 36 16
f 59 9 31
f 60 6 15
f 60 15 22
f 60 22 37
f 60 56 6
f 60 37 56
f 61 39 24
f 61 16 39
f 61 59 16
f 61 38 59
f 62 38 34
f 62 34 9
f 62 59 38
f 62 9 59
f 63 34 38
f 63 43 34
f 63 5 43
f 63 42 5
f 63 61 24
f 63 38 61
f 64 40 25
f 64 24 40
f 64 63 24
f 64 25 42
f 64 42 63

