# https://github.com/mikedh/trimesh
v -0.02275158 -0.00835234 0.05637643
v -0.02310811 -0.00849420 0.04858685
v -0.02242858 0.00713513 0.04858685
v -0.02204038 0.01502970 0.05429518
v -0.03004952 0.00636925 0.04824843
v -0.02203799 0.00769571 0.05766105
v -0.02879263 -0.00833755 0.04834138
v -0.02734873 0.01434939 0.04825248
v -0.02576008 -0.00164152 0.05472981
v -0.03004403 -0.00361983 0.04827259
v -0.02242858 0.01528957 0.04858685
v -0.02567899 0.01088447 0.05271454
v -0.02710694 0.00562556 0.05273407
v -0.02277109 -0.00231991 0.05773399
v -0.02772200 -0.00555168 0.05138403
v -0.02940180 -0.00631842 0.04830004
v -0.02686547 0.01511142 0.04836978
v -0.02302150 0.01150991 0.05533022
v -0.02941298 0.00904622 0.04828288
v -0.02443856 0.00428880 0.05609877
v -0.02776810 0.00430991 0.05211836
v -0.02372080 -0.00627271 0.05604532
v -0.02271952 -0.00634453 0.05702912
v -0.02643256 -0.00823557 0.05207501
v -0.02774482 -0.00294586 0.05205046
v -0.02838932 -0.00622961 0.05008205
v -0.02503853 0.01350653 0.05201798
v -0.02504399 0.00759244 0.05468981
v -0.02204872 0.00968664 0.05700062
v -0.02774319 0.01291223 0.04872700
v -0.02799991 0.01302553 0.04825971
v -0.02703484 0.00825944 0.05203283
v -0.02311655 0.00431384 0.05739179
v -0.02314063 -0.00226403 0.05740123
v -0.02579048 0.00299504 0.05473601
v -0.02841269 0.00631682 0.05074102
v -0.02908633 0.00496915 0.05010236
v -0.02212576 0.00704291 0.05775977
v -0.02310629 -0.00822323 0.05606899
v -0.02507145 -0.00557139 0.05472536
v -0.02907259 -0.00295389 0.05009517
v -0.02912463 -0.00624262 0.04882112
v -0.02775608 -0.00823371 0.05015147
v -0.02370565 0.01484021 0.05265552
v -0.02701717 0.01354264 0.04935906
v -0.02503641 0.00957163 0.05400825
v -0.02244701 0.00956326 0.05668950
v -0.02913824 0.00896150 0.04875359
v -0.02439928 -0.00294611 0.05605428
v -0.02377112 -0.00295276 0.05670441
v -0.02974778 0.00632042 0.04873655
v -0.02240481 0.00760644 0.05735661
v -0.02369082 -0.00825024 0.05541043
v -0.02637081 -0.00688763 0.05269735
v -0.02975109 -0.00360090 0.04878146
v -0.02852919 -0.00826464 0.04884866
v -0.02635404 0.01481280 0.04935318
v -0.02241022 0.01485983 0.05404095
v -0.02708586 0.01421665 0.04876172
v -0.02636692 0.01286148 0.05070567
v -0.02907420 0.00761725 0.04938447
v -0.02307456 -0.00625290 0.05670267
v -0.02838601 -0.00757211 0.04944425
f 1 2 3
f 6 1 3
f 6 3 4
f 7 2 1
f 8 3 2
f 10 5 8
f 11 4 3
f 11 3 8
f 16 10 8
f 16 8 2
f 16 2 7
f 17 11 8
f 17 4 11
f 23 1 6
f 24 7 1
f 25 9 21
f 27 12 18
f 28 13 20
f 29 6 4
f 29 4 18
f 31 8 5
f 31 5 19
f 31 19 30
f 32 13 28
f 34 33 20
f 34 14 33
f 35 20 13
f 35 13 21
f 35 21 9
f 35 34 20
f 35 9 34
f 36 21 13
f 36 13 32
f 37 5 10
f 37 21 36
f 38 23 6
f 38 14 23
f 38 33 14
f 38 20 33
f 39 1 23
f 40 25 15
f 40 9 25
f 41 15 25
f 41 26 15
f 41 37 10
f 41 25 21
f 41 21 37
f 42 10 16
f 43 24 15
f 43 15 26
f 43 7 24
f 44 4 17
f 45 31 30
f 46 18 12
f 46 32 28
f 46 12 32
f 47 6 29
f 47 46 28
f 47 29 18
f 47 18 46
f 48 30 19
f 48 12 30
f 48 32 12
f 49 40 22
f 49 9 40
f 50 23 14
f 50 14 34
f 50 34 9
f 50 9 49
f 50 49 22
f 51 37 36
f 51 5 37
f 52 28 20
f 52 20 38
f 52 38 6
f 52 47 28
f 52 6 47
f 53 24 1
f 53 1 39
f 53 39 22
f 53 22 40
f 54 40 15
f 54 15 24
f 54 53 40
f 54 24 53
f 55 41 10
f 55 26 41
f 55 42 26
f 55 10 42
f 56 42 16
f 56 16 7
f 56 7 43
f 57 44 17
f 57 27 44
f 58 44 27
f 58 27 18
f 58 18 4
f 58 4 44
f 59 8 31
f 59 31 45
f 59 45 57
f 59 57 17
f 59 17 8
f 60 45 30
f 60 30 12
f 60 12 27
f 60 57 45
f 60 27 57
f 61 36 32
f 61 32 48
f 61 51 36
f 61 5 51
f 61 48 19
f 61 19 5
f 62 50 22
f 62 23 50
f 62 39 23
f 62 22 39
f 63 26 42
f 63 42 56
f 63 56 43
f 63 43 26

