# https://github.com/mikedh/trimesh
v 0.00133574 -0.03500249 0.02693340
v 0.00135820 -0.03270920 0.01880014
v 0.00135520 -0.02752122 0.02684169
v -0.01960828 -0.02738334 0.02348505
v -0.00857961 -0.03271978 0.02235921
v 0.00135520 -0.02752122 0.01868725
v -0.01603221 -0.03044764 0.02690302
v 0.00135163 -0.03420195 0.02297567
v -0.01738424 -0.02710055 0.01891585
v -0.01258499 -0.03224130 0.02694489
v -0.01754691 -0.02947011 0.02657624
v -0.00263614 -0.03347521 0.02102815
v -0.01940622 -0.02712732 0.02222480
v -0.00660748 -0.03424117 0.02694890
v -0.01318381 -0.03071884 0.02174551
v 0.00134146 -0.03359323 0.02095205
v -0.00857587 -0.03146185 0.01904880
v -0.00330244 -0.03420172 0.02362935
v -0.00859429 -0.03350560 0.02562457
v -0.01187819 -0.03205670 0.02432098
v -0.01645627 -0.02867048 0.02104600
v 0.00134932 -0.03304835 0.01960977
v -0.00131596 -0.03417870 0.02300244
v -0.00595342 -0.03216128 0.01905176
v -0.01055545 -0.03075680 0.01908704
v -0.00066162 -0.03500065 0.02693958
v -0.00661595 -0.03344820 0.02298883
v -0.01053469 -0.03203654 0.02236177
v -0.01384501 -0.03144165 0.02562801
v -0.01057711 -0.03283549 0.02561028
v -0.01873474 -0.02711939 0.02088226
v -0.01646580 -0.02935508 0.02301044
v -0.00394921 -0.03280343 0.01972159
v -0.00855000 -0.03203632 0.02041189
v -0.01712068 -0.02739456 0.01912534
v -0.00463901 -0.03417892 0.02431147
v -0.00065850 -0.03490423 0.02627403
v -0.00791426 -0.03344556 0.02430602
v -0.00461033 -0.03343093 0.02167717
v -0.01255896 -0.03215295 0.02628472
v -0.01524263 -0.03090741 0.02690895
v -0.01844762 -0.02806361 0.02297814
v -0.01449294 -0.03004274 0.02171798
v -0.01515276 -0.03074615 0.02564806
v -0.01711939 -0.02799933 0.02040221
v 0.00132591 -0.03491270 0.02629477
v -0.00658640 -0.03415142 0.02627501
v -0.01910155 -0.02741236 0.02236488
v -0.01845918 -0.02737547 0.02104732
v -0.01855238 -0.02816412 0.02363702
v -0.01930084 -0.02764788 0.02360859
f 6 3 2
f 8 2 3
f 8 3 1
f 9 6 2
f 9 3 6
f 10 1 3
f 10 3 7
f 11 7 3
f 11 3 4
f 13 4 3
f 13 3 9
f 16 2 8
f 17 9 2
f 19 14 10
f 22 16 12
f 22 12 2
f 22 2 16
f 23 16 8
f 23 12 16
f 23 18 12
f 24 17 2
f 25 9 17
f 26 1 10
f 26 10 14
f 28 20 15
f 28 15 25
f 29 15 20
f 30 19 10
f 31 13 9
f 33 24 2
f 33 2 12
f 34 17 24
f 34 5 28
f 34 28 25
f 34 25 17
f 34 27 5
f 34 24 27
f 35 9 25
f 35 31 9
f 36 26 14
f 37 18 23
f 37 23 8
f 37 36 18
f 37 26 36
f 38 5 27
f 38 19 30
f 38 28 5
f 38 30 20
f 38 20 28
f 38 27 36
f 39 12 18
f 39 36 27
f 39 18 36
f 39 33 12
f 39 27 24
f 39 24 33
f 40 29 20
f 40 10 29
f 40 30 10
f 40 20 30
f 41 29 10
f 41 10 7
f 42 21 32
f 43 32 21
f 43 15 29
f 43 29 32
f 43 21 35
f 43 35 25
f 43 25 15
f 44 7 11
f 44 11 32
f 44 41 7
f 44 32 29
f 44 29 41
f 45 35 21
f 45 31 35
f 46 37 8
f 46 8 1
f 46 1 26
f 46 26 37
f 47 14 19
f 47 19 38
f 47 38 36
f 47 36 14
f 48 4 13
f 48 13 31
f 49 21 42
f 49 45 21
f 49 31 45
f 49 48 31
f 49 42 48
f 50 42 32
f 50 32 11
f 51 48 42
f 51 4 48
f 51 42 50
f 51 50 11
f 51 11 4

