# https://github.com/mikedh/trimesh
v -0.03131171 -0.00892377 0.04232787
v -0.02990348 -0.00849420 0.03363705
v -0.02990348 0.00713513 0.04179149
v -0.03295106 0.00705899 0.04168269
v -0.03462786 -0.00295565 0.03359016
v -0.03339595 -0.00831666 0.03359731
v -0.03317853 -0.00225124 0.04154460
v -0.02990348 0.00713513 0.03363705
v -0.03454468 0.00433530 0.03623287
v -0.03311567 -0.00690032 0.03820717
v -0.03460081 0.00635123 0.03358424
v -0.03447549 0.00710352 0.03362406
v -0.03384235 0.00502707 0.03953567
v -0.03455147 -0.00095932 0.03622898
v -0.03311642 -0.00823309 0.03624436
v -0.03239907 -0.00622358 0.04148831
v -0.03395666 -0.00627774 0.03359051
v -0.03455343 0.00634454 0.03426039
v -0.03313898 0.00630236 0.04152661
v -0.03382171 -0.00163817 0.03954103
v -0.03381684 -0.00558124 0.03622836
v -0.03242094 -0.00822775 0.03949792
v -0.03384484 -0.00625037 0.03490978
v -0.03385082 0.00698510 0.03823728
v -0.03308461 -0.00490449 0.04019575
v -0.03457812 -0.00295904 0.03422698
v -0.03380055 -0.00292194 0.03886194
v -0.03181988 -0.00823794 0.04151080
v -0.03382543 0.00633895 0.03890267
v -0.03322114 0.00696995 0.04087591
f 1 2 3
f 1 3 4
f 6 2 1
f 7 1 4
f 8 3 2
f 11 5 9
f 12 4 3
f 12 3 8
f 12 8 11
f 14 9 5
f 14 13 9
f 15 6 1
f 16 1 7
f 17 5 11
f 17 11 8
f 17 8 2
f 17 2 6
f 18 12 11
f 18 11 9
f 19 13 7
f 19 7 4
f 20 7 13
f 20 13 14
f 21 15 10
f 22 15 1
f 22 10 15
f 22 16 10
f 23 17 6
f 23 6 15
f 23 15 21
f 24 18 9
f 24 4 12
f 24 12 18
f 25 16 7
f 25 10 16
f 26 14 5
f 26 23 21
f 26 5 17
f 26 17 23
f 27 20 14
f 27 26 21
f 27 14 26
f 27 21 10
f 27 10 25
f 27 25 7
f 27 7 20
f 28 22 1
f 28 1 16
f 28 16 22
f 29 24 9
f 29 9 13
f 30 29 13
f 30 13 19
f 30 19 4
f 30 4 24
f 30 24 29

