# https://github.com/mikedh/trimesh
v -0.00679924 0.02616215 0.04858685
v -0.00679924 0.02616215 0.03363705
v -0.00668602 0.03428116 0.03688727
v -0.00731803 0.03418615 0.03686231
v -0.01148184 0.02762420 0.04961989
v -0.00674757 0.03470473 0.03360651
v -0.00670592 0.03031976 0.04759470
v -0.01087646 0.02616215 0.03363705
v -0.00668685 0.03226890 0.04355885
v -0.00672585 0.02985887 0.04835553
v -0.00869355 0.03430670 0.03358498
v -0.00669433 0.03365617 0.03957871
v -0.01061707 0.03136761 0.04347478
v -0.01060929 0.02939750 0.04739735
v -0.00863122 0.03418728 0.03490723
v -0.00795053 0.03205794 0.04345163
v -0.01063460 0.03276707 0.03952932
v -0.00925393 0.02940977 0.04807469
v -0.00796223 0.03010217 0.04746671
v -0.00931048 0.03274136 0.04079012
v -0.00797486 0.03342759 0.03950761
v -0.00995141 0.03342214 0.03753785
v -0.01071770 0.03375685 0.03359607
v -0.01063135 0.02890464 0.04818241
v -0.00796633 0.03414171 0.03622123
v -0.01060988 0.03347697 0.03620075
f 6 3 2
f 6 4 3
f 7 1 2
f 8 2 1
f 8 1 5
f 9 7 2
f 9 2 3
f 10 5 1
f 10 1 7
f 11 6 2
f 11 2 8
f 12 9 3
f 12 3 4
f 14 13 5
f 15 4 6
f 15 6 11
f 16 7 9
f 17 5 13
f 18 5 10
f 19 13 14
f 19 16 13
f 19 7 16
f 19 14 18
f 19 18 10
f 19 10 7
f 20 16 9
f 20 9 12
f 20 17 13
f 20 13 16
f 21 12 4
f 21 20 12
f 21 17 20
f 22 21 4
f 22 17 21
f 23 8 5
f 23 5 17
f 23 11 8
f 23 15 11
f 24 18 14
f 24 14 5
f 24 5 18
f 25 22 4
f 25 4 15
f 26 23 17
f 26 17 22
f 26 15 23
f 26 25 15
f 26 22 25

