# https://github.com/mikedh/trimesh
v -0.01596099 -0.01565764 0.05826253
v -0.01631275 -0.01596910 0.04858685
v -0.01631275 -0.00849420 0.04858685
v -0.02275158 -0.00835234 0.05637643
v -0.02540735 -0.01571685 0.04833926
v -0.01622662 -0.00845232 0.06135255
v -0.02237113 -0.01548420 0.05266559
v -0.02592323 -0.01495512 0.04822701
v -0.01594904 -0.01029808 0.06088345
v -0.01725339 -0.00829073 0.06079123
v -0.01908123 -0.01213249 0.05802568
v -0.02879263 -0.00833755 0.04834138
v -0.02434952 -0.01479688 0.05072213
v -0.01715325 -0.00889355 0.06065893
v -0.01903821 -0.01547963 0.05598515
v -0.02234563 -0.01146902 0.05532635
v -0.01774995 -0.01280331 0.05862881
v -0.01976738 -0.00953650 0.05862104
v -0.02862309 -0.00895550 0.04824489
v -0.02852919 -0.00826464 0.04884866
v -0.02563932 -0.01415319 0.04941034
v -0.02437945 -0.01550749 0.05007974
v -0.01714397 -0.01085839 0.05994562
v -0.01708699 -0.01478726 0.05799833
v -0.01972987 -0.01345207 0.05668040
v -0.02301677 -0.01347652 0.05333976
v -0.01922931 -0.00829355 0.05945857
v -0.02169236 -0.01015802 0.05666321
v -0.02570351 -0.00889809 0.05271580
v -0.02518323 -0.01557809 0.04883748
v -0.02728528 -0.01228824 0.04825023
v -0.01646950 -0.01019542 0.06061465
v -0.01643857 -0.01548690 0.05802869
v -0.02169455 -0.01150371 0.05598146
v -0.02583980 -0.00827924 0.05281107
v -0.01914498 -0.00887543 0.05933053
v -0.02234784 -0.01017481 0.05601026
v -0.02440164 -0.01082688 0.05339040
v -0.02567793 -0.01481429 0.04875503
v -0.02634116 -0.01280588 0.04942412
v -0.02702604 -0.01219630 0.04876861
v -0.02437502 -0.00955178 0.05404607
v -0.02497342 -0.01281384 0.05138774
v -0.02835744 -0.00885902 0.04877324
v -0.02563820 -0.01149323 0.05139996
f 1 2 3
f 5 2 1
f 7 5 1
f 8 3 2
f 8 2 5
f 9 1 3
f 9 3 6
f 10 6 3
f 14 6 10
f 15 7 1
f 19 12 3
f 19 3 8
f 20 10 3
f 20 3 12
f 22 5 7
f 22 7 13
f 22 13 21
f 23 11 17
f 23 17 1
f 23 1 9
f 23 18 11
f 24 11 15
f 24 17 11
f 24 1 17
f 25 15 11
f 25 7 15
f 26 13 7
f 27 4 18
f 28 11 18
f 28 18 4
f 30 8 5
f 30 22 21
f 30 5 22
f 31 19 8
f 32 23 9
f 32 14 23
f 32 9 6
f 32 6 14
f 33 24 15
f 33 15 1
f 33 1 24
f 34 25 11
f 34 16 26
f 34 26 7
f 34 7 25
f 34 11 28
f 35 4 27
f 35 20 29
f 35 27 10
f 35 10 20
f 36 14 10
f 36 10 27
f 36 23 14
f 36 27 18
f 36 18 23
f 37 28 4
f 37 34 28
f 37 16 34
f 38 26 16
f 38 16 37
f 39 30 21
f 39 21 8
f 39 8 30
f 40 31 8
f 40 8 21
f 41 19 31
f 41 31 40
f 42 35 29
f 42 4 35
f 42 29 38
f 42 38 37
f 42 37 4
f 43 13 26
f 43 26 38
f 43 40 21
f 43 21 13
f 44 19 41
f 44 20 12
f 44 12 19
f 45 41 40
f 45 44 41
f 45 29 20
f 45 20 44
f 45 40 43
f 45 43 38
f 45 38 29

