# https://github.com/mikedh/trimesh
v 0.02717501 -0.02072388 0.02276533
v 0.03101163 -0.01449476 0.02283844
v 0.02855266 -0.01890797 0.02296569
v 0.02717758 -0.01461003 0.02276447
v 0.02862306 -0.01536487 0.01789114
v 0.03052254 -0.01562199 0.02298722
v 0.02745696 -0.02041681 0.02289878
v 0.02682225 -0.01909619 0.01886486
v 0.02954338 -0.01443808 0.01885682
v 0.02675225 -0.02039415 0.02091227
v 0.02905517 -0.01747061 0.02170367
v 0.02993507 -0.01432179 0.01960921
v 0.02702517 -0.02011105 0.02106552
v 0.02836517 -0.01684482 0.01906238
v 0.03068278 -0.01435298 0.02162087
v 0.02840903 -0.01884855 0.02237523
v 0.02770219 -0.01881416 0.02041164
v 0.02965913 -0.01552497 0.02039860
v 0.03046459 -0.01489796 0.02170274
v 0.02706948 -0.01884937 0.01904941
v 0.02970841 -0.01486932 0.01970012
v 0.03037999 -0.01550926 0.02238652
v 0.02907356 -0.01554090 0.01905502
f 6 2 4
f 6 4 3
f 7 3 4
f 7 4 1
f 8 4 5
f 9 5 4
f 10 1 4
f 10 4 8
f 11 6 3
f 12 9 4
f 13 7 1
f 13 1 10
f 14 8 5
f 15 12 4
f 15 4 2
f 16 3 7
f 16 7 13
f 16 11 3
f 17 13 10
f 17 10 8
f 17 16 13
f 17 11 16
f 17 14 11
f 18 11 14
f 19 15 2
f 19 2 6
f 19 12 15
f 20 17 8
f 20 8 14
f 20 14 17
f 21 9 12
f 21 19 18
f 21 12 19
f 22 19 6
f 22 6 11
f 22 11 18
f 22 18 19
f 23 5 9
f 23 9 21
f 23 14 5
f 23 21 18
f 23 18 14

