# https://github.com/mikedh/trimesh
v -0.01626197 0.02607488 0.04852695
v -0.01087646 0.02616215 0.01800771
v -0.01148184 0.02762420 0.04961989
v -0.01064847 0.03291342 0.03890003
v -0.01714655 0.02746979 0.01714947
v -0.01063135 0.02890464 0.04818241
v -0.01592801 0.03145055 0.03621682
v -0.01068870 0.03292033 0.02361806
v -0.01452848 0.02734572 0.04804367
v -0.01064281 0.03096315 0.01832796
v -0.01067584 0.03365376 0.03490683
v -0.01592354 0.03143363 0.02627019
v -0.01252734 0.02866985 0.04738260
v -0.01585272 0.03005188 0.04144853
v -0.01591913 0.03005644 0.02105109
v -0.01392662 0.03207717 0.03751989
v -0.01066856 0.03365723 0.02759575
v -0.01124836 0.02873750 0.04807923
v -0.01066651 0.03157237 0.04288708
v -0.01589638 0.03070815 0.03947001
v -0.01582502 0.02668293 0.04801145
v -0.01259411 0.03068252 0.04345657
v -0.01322717 0.03004861 0.01843599
v -0.01127043 0.03137972 0.01974276
v -0.01327935 0.03206262 0.02371037
v -0.01591615 0.03074848 0.02303940
v -0.01328957 0.03281659 0.03422043
v -0.01126969 0.03272832 0.03885569
v -0.01064471 0.03154899 0.01967191
v -0.01522450 0.03138099 0.03816232
v -0.01390672 0.03137979 0.04015221
v -0.01596020 0.02880797 0.01839640
v -0.01125619 0.03078327 0.01841863
v -0.01391573 0.03138707 0.02236811
v -0.01125661 0.03276391 0.02370639
v -0.01461427 0.03211873 0.02695561
v -0.01525049 0.03139690 0.02435926
v -0.01128652 0.03346540 0.03487257
v -0.01458653 0.03214834 0.03558230
v -0.01125511 0.03141934 0.04280039
v -0.01391836 0.03068339 0.04214037
v -0.01128736 0.03346459 0.02761753
v -0.01391023 0.03207360 0.02497876
v -0.01325949 0.03281816 0.02827376
f 1 2 3
f 5 2 1
f 6 3 2
f 7 5 1
f 9 1 3
f 10 2 5
f 10 6 2
f 12 5 7
f 13 9 3
f 17 11 4
f 18 13 3
f 18 3 6
f 18 6 13
f 19 6 4
f 20 7 1
f 20 1 14
f 21 14 1
f 21 1 9
f 21 9 14
f 22 9 13
f 22 13 6
f 22 6 19
f 23 10 5
f 24 23 15
f 26 15 5
f 26 5 12
f 28 4 11
f 29 8 17
f 29 24 8
f 29 10 24
f 29 17 4
f 29 4 6
f 29 6 10
f 30 16 7
f 30 7 20
f 31 20 14
f 31 30 20
f 31 28 16
f 31 16 30
f 32 23 5
f 32 5 15
f 32 15 23
f 33 24 10
f 33 10 23
f 33 23 24
f 34 24 15
f 34 26 25
f 34 15 26
f 35 17 8
f 35 34 25
f 35 8 24
f 35 24 34
f 36 12 7
f 37 26 12
f 37 25 26
f 37 12 36
f 38 11 17
f 38 28 11
f 38 16 28
f 39 7 16
f 39 38 27
f 39 16 38
f 39 36 7
f 39 27 36
f 40 19 4
f 40 4 28
f 40 28 31
f 40 22 19
f 41 31 14
f 41 40 31
f 41 22 40
f 41 14 9
f 41 9 22
f 42 35 25
f 42 17 35
f 42 38 17
f 42 27 38
f 43 37 36
f 43 25 37
f 43 42 25
f 43 36 42
f 44 42 36
f 44 36 27
f 44 27 42

