# https://github.com/mikedh/trimesh
v 0.00125268 -0.00985662 0.06417010
v 0.00135520 -0.00985328 0.05877990
v 0.00128352 0.00782500 0.06400112
v -0.00684179 0.00787681 0.06428867
v -0.00679924 -0.00985328 0.05877990
v 0.00106117 -0.00001361 0.06554969
v -0.00668301 -0.00972112 0.06418282
v -0.00679924 0.00781467 0.05877990
v 0.00112804 -0.00129358 0.06549817
v 0.00053651 0.00779204 0.06423245
v 0.00018816 -0.00033431 0.06553266
v 0.00135520 0.00781467 0.05877990
v 0.00023242 0.00000070 0.06551135
f 1 2 3
f 5 2 1
f 7 5 1
f 7 4 5
f 8 2 5
f 8 5 4
f 9 1 3
f 9 3 6
f 9 7 1
f 10 6 3
f 10 3 4
f 10 4 6
f 11 4 7
f 11 9 6
f 11 7 9
f 12 3 2
f 12 2 8
f 12 8 4
f 12 4 3
f 13 11 6
f 13 6 4
f 13 4 11

