# https://github.com/mikedh/trimesh
v 0.02597772 0.01697826 0.04694755
v 0.02937774 0.01704941 0.02355877
v 0.02641602 0.02211750 0.03487195
v 0.01597568 0.03032395 0.03692541
v 0.01630500 0.01732818 0.01800771
v 0.01911996 0.02806664 0.02298091
v 0.02104746 0.02471402 0.04347310
v 0.03004623 0.01703328 0.03291030
v 0.02797306 0.01698208 0.01893354
v 0.01630500 0.01732818 0.04790731
v 0.02506840 0.02345203 0.02496639
v 0.01599684 0.02837739 0.01822473
v 0.02566940 0.02075267 0.04146482
v 0.02245042 0.02606610 0.03551631
v 0.02729926 0.01697223 0.04425116
v 0.03005457 0.01703091 0.02823542
v 0.01593672 0.02630692 0.04759961
v 0.02772600 0.01950428 0.02299417
v 0.01598476 0.03035684 0.02426665
v 0.02752973 0.01713623 0.01815794
v 0.02238357 0.02402356 0.01907324
v 0.02303952 0.02206143 0.04477494
v 0.02908715 0.01751330 0.03751849
v 0.01910206 0.02734434 0.04080377
v 0.02710675 0.02151113 0.03354616
v 0.02113785 0.02740874 0.02697090
v 0.02505837 0.02279813 0.03816944
v 0.02866068 0.01701712 0.02088222
v 0.01595576 0.02897728 0.01960520
v 0.02547310 0.01709152 0.04769947
v 0.02843261 0.01954097 0.02693119
v 0.02569073 0.02077958 0.01970288
v 0.01911269 0.02669079 0.01902534
v 0.02310020 0.02474198 0.02236394
v 0.02042982 0.02538304 0.01839745
v 0.02370477 0.02274619 0.04213892
v 0.02568283 0.02007600 0.04279292
v 0.01973052 0.02405948 0.04676671
v 0.02935189 0.01702242 0.03759602
v 0.02840595 0.01750587 0.04017574
v 0.01911249 0.02806842 0.03818888
v 0.02106690 0.02603665 0.04020281
v 0.01710767 0.02734600 0.04410564
v 0.02438796 0.02408953 0.03620157
v 0.02841360 0.01952566 0.03420002
v 0.01914225 0.02872487 0.02627305
v 0.01849798 0.02943304 0.03156464
v 0.02706558 0.02148922 0.02694612
v 0.02114537 0.02742422 0.03354688
v 0.02837927 0.01818703 0.02231834
v 0.01594869 0.02828673 0.04357853
v 0.01595955 0.02965339 0.02158007
v 0.02438568 0.01879334 0.04743003
v 0.02908586 0.01821174 0.02558829
v 0.02976670 0.01752801 0.03287569
v 0.02701346 0.01814858 0.01837960
v 0.02574425 0.02213713 0.02299346
v 0.01646432 0.02870550 0.01968971
v 0.02370084 0.02272515 0.01906268
v 0.02240821 0.02607072 0.02499771
v 0.02045193 0.02670006 0.02166458
v 0.01778327 0.02732850 0.01839266
v 0.02368312 0.02209859 0.04346756
v 0.02504396 0.02210125 0.04015133
f 9 1 5
f 10 5 1
f 15 1 9
f 16 15 9
f 16 8 15
f 17 5 10
f 20 9 5
f 20 5 12
f 28 16 9
f 28 2 16
f 29 12 5
f 29 5 17
f 30 17 10
f 30 10 1
f 35 20 12
f 37 13 36
f 38 22 7
f 39 15 8
f 39 8 23
f 40 39 23
f 40 15 39
f 40 37 15
f 40 13 37
f 40 23 3
f 40 3 27
f 41 4 24
f 42 24 7
f 42 41 24
f 42 14 41
f 42 7 36
f 42 36 27
f 43 7 24
f 43 38 7
f 43 17 38
f 44 25 14
f 44 3 25
f 44 27 3
f 44 42 27
f 44 14 42
f 45 25 3
f 45 3 23
f 46 26 6
f 46 6 19
f 47 26 46
f 47 46 19
f 47 19 4
f 48 26 25
f 48 11 26
f 48 25 31
f 48 31 18
f 49 14 25
f 49 25 26
f 49 26 47
f 49 41 14
f 49 47 4
f 49 4 41
f 50 18 2
f 50 2 28
f 51 29 17
f 51 17 43
f 51 43 24
f 51 24 4
f 52 4 19
f 52 19 6
f 52 51 4
f 52 29 51
f 53 30 1
f 53 22 38
f 53 38 17
f 53 17 30
f 53 1 15
f 53 15 37
f 54 31 16
f 54 16 2
f 54 2 18
f 54 18 31
f 55 8 16
f 55 16 31
f 55 31 25
f 55 25 45
f 55 45 23
f 55 23 8
f 56 9 20
f 56 20 35
f 56 28 9
f 56 50 28
f 56 32 18
f 56 18 50
f 57 18 32
f 57 48 18
f 57 11 48
f 57 34 11
f 58 6 33
f 58 52 6
f 58 29 52
f 58 12 29
f 59 21 34
f 59 32 56
f 59 56 35
f 59 35 21
f 59 57 32
f 59 34 57
f 60 26 11
f 60 11 34
f 60 6 26
f 61 33 6
f 61 60 34
f 61 6 60
f 61 35 33
f 61 34 21
f 61 21 35
f 62 35 12
f 62 33 35
f 62 58 33
f 62 12 58
f 63 36 7
f 63 7 22
f 63 37 36
f 63 53 37
f 63 22 53
f 64 36 13
f 64 27 36
f 64 40 27
f 64 13 40

