# https://github.com/mikedh/trimesh
v 0.00469725 -0.02179027 0.05909763
v 0.00608151 -0.02126510 0.05928029
v 0.00318682 -0.01842367 0.06153695
v -0.00598847 -0.01837841 0.06100369
v -0.00673519 -0.02055936 0.05923967
v 0.00613890 -0.01842272 0.06093318
v -0.00194641 -0.02082475 0.06000265
v 0.00330962 -0.02085352 0.06004330
v 0.00598274 -0.02020534 0.06001917
v -0.00199141 -0.01839791 0.06166342
v -0.00675871 -0.01859188 0.06066585
v -0.00266959 -0.02179388 0.05910777
v -0.00392971 -0.01947977 0.06069139
v 0.00462095 -0.02147690 0.05936261
v 0.00619247 -0.01927259 0.06051934
v 0.00600726 -0.02097883 0.05951711
v 0.00321579 -0.01888314 0.06130347
v -0.00194504 -0.01888807 0.06138521
v -0.00700654 -0.01922611 0.06017068
v -0.00535779 -0.02114027 0.05914198
v 0.00608517 -0.01902237 0.06067190
v -0.00592844 -0.01883046 0.06073721
v -0.00525574 -0.02083366 0.05941589
v -0.00260768 -0.02146348 0.05939101
v -0.00658961 -0.01949371 0.06008848
v -0.00661826 -0.02024876 0.05950870
f 5 2 1
f 6 2 5
f 10 6 4
f 10 3 6
f 11 4 6
f 12 8 7
f 12 1 8
f 14 8 1
f 14 1 2
f 15 2 6
f 16 9 8
f 16 15 9
f 16 2 15
f 16 14 2
f 16 8 14
f 17 8 9
f 17 3 10
f 17 9 15
f 18 7 8
f 18 17 10
f 18 8 17
f 18 13 7
f 18 10 4
f 18 4 13
f 19 11 6
f 19 6 5
f 20 5 1
f 20 1 12
f 21 15 6
f 21 6 3
f 21 17 15
f 21 3 17
f 22 13 4
f 22 4 11
f 22 11 19
f 23 20 12
f 23 7 13
f 23 13 22
f 23 5 20
f 24 23 12
f 24 12 7
f 24 7 23
f 25 23 22
f 25 22 19
f 26 5 23
f 26 23 25
f 26 25 19
f 26 19 5

