# https://github.com/mikedh/trimesh
v 0.00128352 0.00782500 0.06400112
v 0.00135520 0.00781467 0.05810036
v 0.00135520 0.01189189 0.05810036
v -0.01720440 0.01262286 0.05949835
v -0.01613415 0.00773073 0.06186423
v -0.01631275 0.00781467 0.05810036
v 0.00126541 0.01177200 0.06366809
v -0.00877511 0.00770648 0.06420309
v -0.01534436 0.00768931 0.06226900
v 0.00053651 0.00779204 0.06423245
v -0.00870275 0.01162436 0.06335896
v -0.01402365 0.00768765 0.06287014
v -0.01452568 0.01021304 0.06196671
v 0.00056441 0.00975535 0.06408038
v -0.01198450 0.00894470 0.06332703
v -0.01580564 0.01023123 0.06130788
v -0.01522322 0.00893087 0.06200996
v -0.01327799 0.01159766 0.06204495
v -0.00338065 0.01038584 0.06411409
v -0.01205946 0.00770532 0.06354884
v -0.01064626 0.01030682 0.06334030
v -0.01389364 0.00894877 0.06263492
v -0.01128523 0.01162492 0.06277245
v -0.01591372 0.01157899 0.06075764
v -0.00071875 0.01041869 0.06411602
v -0.00607014 0.00972227 0.06411172
v -0.00876580 0.00836997 0.06410030
f 1 2 3
f 6 3 2
f 6 4 3
f 6 5 4
f 7 1 3
f 7 3 4
f 9 6 2
f 9 5 6
f 10 8 2
f 10 2 1
f 11 7 4
f 12 9 2
f 12 2 8
f 14 10 1
f 14 1 7
f 16 4 5
f 17 5 9
f 17 16 5
f 17 13 16
f 19 8 10
f 19 7 11
f 20 15 12
f 20 12 8
f 22 12 15
f 22 13 17
f 22 17 9
f 22 9 12
f 22 18 13
f 23 11 4
f 23 4 18
f 23 21 11
f 23 15 21
f 23 22 15
f 23 18 22
f 24 16 13
f 24 13 18
f 24 18 4
f 24 4 16
f 25 19 10
f 25 10 14
f 25 14 7
f 25 7 19
f 26 19 11
f 26 8 19
f 27 11 21
f 27 26 11
f 27 8 26
f 27 20 8
f 27 21 15
f 27 15 20

