# https://github.com/mikedh/trimesh
v 0.00950963 0.02616215 0.04111195
v 0.01030788 0.02825163 0.04919324
v -0.00679924 0.02616215 0.04858685
v -0.00670639 0.03300733 0.04157215
v 0.00928999 0.03224076 0.04089105
v -0.00663268 0.03005536 0.04806188
v -0.00679924 0.02616215 0.04179149
v 0.00135520 0.02616215 0.04858685
v 0.00262560 0.03213885 0.04484244
v 0.00135520 0.02616215 0.04111195
v 0.00135420 0.03362566 0.04110826
v -0.00397783 0.03210852 0.04482207
v 0.00133538 0.03051289 0.04834264
v 0.00726321 0.03138167 0.04482895
v 0.00662666 0.03293943 0.04089615
v -0.00664925 0.03142261 0.04547382
v -0.00531348 0.03276349 0.04284398
v -0.00067323 0.03281655 0.04350758
v -0.00398233 0.03079324 0.04749601
v 0.00923882 0.03137816 0.04348843
v 0.00727710 0.03011870 0.04750522
v 0.00394937 0.03278723 0.04283299
v -0.00667780 0.03279966 0.04217714
v -0.00001856 0.03281695 0.04351255
v -0.00465527 0.03141896 0.04610945
v 0.00658830 0.03208113 0.04347789
v 0.00395548 0.03076720 0.04743521
v 0.00860330 0.03011272 0.04685749
v 0.00657995 0.03275730 0.04151367
v 0.00593765 0.03139122 0.04548659
v 0.00394878 0.03140750 0.04614023
v 0.00859124 0.03074938 0.04547873
v 0.00926848 0.02954518 0.04754125
v 0.00859169 0.03204841 0.04218072
v 0.00528868 0.03206962 0.04415027
v 0.00594300 0.03075129 0.04680688
v 0.00923601 0.03206461 0.04151630
f 5 2 1
f 6 3 2
f 6 4 3
f 7 1 3
f 7 3 4
f 8 1 2
f 8 2 3
f 8 3 1
f 10 5 1
f 10 1 7
f 10 7 4
f 11 10 4
f 13 6 2
f 15 5 10
f 15 10 11
f 16 4 6
f 17 11 4
f 17 16 12
f 18 17 12
f 18 11 17
f 18 12 13
f 19 13 12
f 19 6 13
f 20 2 5
f 22 15 11
f 22 11 9
f 23 17 4
f 23 4 16
f 23 16 17
f 24 9 11
f 24 11 18
f 24 18 13
f 24 13 9
f 25 16 6
f 25 6 19
f 25 19 12
f 25 12 16
f 26 14 20
f 27 13 2
f 27 2 21
f 29 15 22
f 29 22 26
f 30 14 26
f 30 28 14
f 30 21 28
f 31 9 13
f 31 13 27
f 32 20 14
f 32 14 28
f 33 28 21
f 33 21 2
f 33 2 20
f 33 32 28
f 33 20 32
f 34 5 15
f 34 15 29
f 34 29 26
f 34 26 20
f 35 30 26
f 35 26 22
f 35 31 30
f 35 22 9
f 35 9 31
f 36 27 21
f 36 21 30
f 36 31 27
f 36 30 31
f 37 34 20
f 37 20 5
f 37 5 34

