# https://github.com/mikedh/trimesh
v 0.00135520 -0.00033977 0.05062546
v 0.00125143 -0.00025844 0.00008575
v 0.00135520 0.01732818 0.05062546
v -0.01631275 0.01732818 0.05062546
v -0.01631275 -0.00033977 0.05062546
v 0.00135556 0.01710877 0.00225498
v -0.00871975 -0.00032603 0.00040650
v 0.00135684 0.01109451 0.00039071
v -0.01597294 -0.00032490 0.00251659
v -0.00806934 0.00505137 0.00042542
v 0.00137380 0.01570716 0.00170853
v -0.01599182 0.01704316 0.00630317
v -0.00400236 0.00974345 0.00045792
v -0.00874404 0.00304355 0.00041331
v -0.01593528 0.00830388 0.00321174
v -0.00198534 0.01367050 0.00118867
v -0.01201720 -0.00032248 0.00109892
v -0.01595682 0.00303172 0.00252871
v -0.01128568 0.01030650 0.00187662
v 0.00136409 0.01370444 0.00103958
v -0.00064968 0.01107228 0.00044623
v -0.00197297 0.01565212 0.00185235
v -0.01199286 0.00367564 0.00115895
v -0.00999970 0.00835748 0.00118820
v -0.00666782 0.01167534 0.00120009
v -0.01521454 0.01228481 0.00393260
v -0.00267265 0.01040920 0.00044972
v 0.00002440 0.01710287 0.00228296
v -0.01396962 0.00433802 0.00183820
v -0.01132379 0.00567375 0.00115110
v -0.00738689 0.00638878 0.00045001
v -0.00464953 0.01497907 0.00186866
v -0.01327760 0.01034153 0.00257839
v -0.01591594 0.01098925 0.00385178
v -0.00397852 0.01302009 0.00119647
v -0.01530319 0.00631344 0.00257738
v -0.01330833 0.00632634 0.00183277
v -0.00398246 0.01699505 0.00254883
v -0.00864685 0.01498769 0.00257551
v -0.01586220 0.01493453 0.00525180
v -0.01457332 0.01098528 0.00326622
v -0.00731478 0.01368261 0.00186727
v -0.00797401 0.01697601 0.00321188
v -0.01258566 0.01365292 0.00326465
v -0.00597418 0.01633586 0.00255262
v -0.00931701 0.01232661 0.00190118
v -0.01518784 0.01426801 0.00463572
v -0.01061923 0.01692309 0.00386593
v -0.01127472 0.01298038 0.00261129
v -0.01258019 0.01694825 0.00459560
v -0.00928101 0.01630695 0.00323439
v -0.01125418 0.01496698 0.00328284
v -0.01589529 0.01632238 0.00585998
v -0.01526101 0.01695490 0.00585438
f 1 3 4
f 5 1 4
f 6 4 3
f 7 2 1
f 7 1 5
f 8 1 2
f 9 7 5
f 9 5 4
f 11 6 3
f 11 3 1
f 11 1 8
f 12 9 4
f 13 2 10
f 14 10 2
f 14 2 7
f 17 14 7
f 17 7 9
f 18 9 12
f 18 12 15
f 18 17 9
f 20 16 11
f 20 11 8
f 21 20 8
f 21 16 20
f 22 11 16
f 23 14 17
f 25 24 19
f 25 13 24
f 27 21 8
f 27 16 21
f 27 13 25
f 27 8 2
f 27 2 13
f 28 6 11
f 28 11 22
f 28 12 4
f 28 4 6
f 29 23 17
f 29 17 18
f 30 10 14
f 30 14 23
f 30 24 10
f 30 23 29
f 31 24 13
f 31 13 10
f 31 10 24
f 32 22 16
f 34 15 12
f 35 27 25
f 35 16 27
f 35 32 16
f 36 29 18
f 36 18 15
f 36 15 33
f 37 19 24
f 37 24 30
f 37 30 29
f 37 29 36
f 37 36 33
f 37 33 19
f 38 28 22
f 38 22 32
f 40 34 12
f 41 33 15
f 41 15 34
f 41 34 26
f 42 35 25
f 42 32 35
f 43 12 28
f 43 28 38
f 44 41 26
f 44 33 41
f 45 42 39
f 45 32 42
f 45 39 43
f 45 43 38
f 45 38 32
f 46 42 25
f 46 25 19
f 46 39 42
f 47 44 26
f 47 26 34
f 47 34 40
f 49 19 33
f 49 33 44
f 49 46 19
f 49 39 46
f 50 12 43
f 50 43 48
f 50 44 47
f 51 48 43
f 51 43 39
f 52 49 44
f 52 48 51
f 52 51 39
f 52 39 49
f 52 50 48
f 52 44 50
f 53 50 47
f 53 47 40
f 53 40 12
f 54 53 12
f 54 12 50
f 54 50 53

