# https://github.com/mikedh/trimesh
v -0.02730736 -0.01731342 0.04264371
v -0.02669433 -0.01702430 0.01790251
v -0.02514672 -0.00849420 0.04179149
v -0.03198723 -0.00829547 0.04091934
v -0.03045163 -0.01552928 0.02826106
v -0.02514672 -0.00849420 0.01868725
v -0.03169519 -0.00841529 0.04170505
v -0.03038763 -0.01485226 0.03687328
v -0.03192271 -0.00828246 0.02098010
v -0.03044435 -0.01553084 0.03421355
v -0.03038868 -0.01221396 0.04150573
v -0.03333185 -0.00830907 0.02757829
v -0.03098578 -0.00841888 0.01881186
v -0.02972482 -0.01485046 0.02231102
v -0.02975624 -0.01551467 0.03818316
v -0.03115184 -0.01025015 0.04151568
v -0.03335243 -0.00830440 0.03423602
v -0.03136851 -0.00833733 0.01962189
v -0.02973702 -0.01552325 0.02367197
v -0.03172533 -0.01155027 0.02430146
v -0.02973622 -0.01221810 0.01909814
v -0.03103766 -0.01286882 0.03818902
v -0.02914325 -0.01487363 0.04154973
v -0.03180839 -0.00891898 0.04086504
v -0.03179903 -0.01291232 0.03289832
v -0.02841932 -0.01554709 0.01969810
v -0.03254808 -0.00831524 0.02296463
v -0.03038840 -0.01351838 0.02234498
v -0.03037317 -0.01483451 0.02497280
v -0.03179042 -0.01288571 0.02893925
v -0.03048452 -0.01023961 0.01901711
v -0.03171830 -0.01085405 0.03884051
v -0.02902991 -0.01547898 0.04083525
v -0.02971835 -0.01418082 0.04083302
v -0.03316710 -0.00892794 0.03421225
v -0.03108956 -0.01421291 0.03423602
v -0.02848291 -0.01488455 0.01902035
v -0.03246740 -0.01023394 0.02562630
v -0.03103469 -0.01153776 0.02168628
v -0.02974443 -0.01349383 0.02036912
v -0.03108161 -0.01420438 0.02763234
v -0.03104307 -0.00954986 0.01975974
v -0.03269571 -0.00829834 0.03826364
v -0.02867577 -0.01565225 0.04161066
v -0.03248241 -0.01089147 0.02761973
v -0.03242191 -0.01090579 0.03487321
v -0.03173458 -0.01154270 0.03753274
v -0.02801389 -0.01567820 0.01894668
v -0.03238897 -0.00887743 0.02302747
v -0.02904488 -0.01484495 0.02037643
v -0.03178631 -0.01224672 0.02626747
v -0.03175453 -0.00891105 0.02104128
v -0.03244023 -0.00956686 0.03753948
v -0.03314542 -0.00891045 0.02759652
v -0.03250470 -0.00891609 0.03822257
f 1 2 3
f 5 2 1
f 6 3 2
f 7 1 3
f 7 3 4
f 9 4 3
f 9 3 6
f 10 5 1
f 11 1 7
f 13 6 2
f 15 10 1
f 15 8 10
f 16 11 7
f 17 9 12
f 18 9 6
f 18 6 13
f 19 2 5
f 22 8 15
f 23 1 11
f 24 16 7
f 24 7 4
f 25 5 10
f 26 19 14
f 26 2 19
f 27 12 9
f 28 14 19
f 29 19 5
f 29 28 19
f 29 20 28
f 30 5 25
f 31 13 2
f 31 2 21
f 32 22 11
f 32 11 16
f 32 16 24
f 33 15 1
f 34 22 15
f 34 33 23
f 34 15 33
f 34 23 11
f 34 11 22
f 35 17 12
f 36 25 10
f 36 10 8
f 37 21 2
f 38 12 27
f 39 28 20
f 40 14 28
f 40 37 26
f 40 21 37
f 40 28 39
f 40 39 31
f 40 31 21
f 41 29 5
f 41 5 30
f 42 18 13
f 42 13 31
f 42 31 39
f 43 32 24
f 43 24 4
f 43 4 9
f 43 9 17
f 44 33 1
f 44 1 23
f 44 23 33
f 45 30 25
f 45 25 35
f 46 35 25
f 46 25 36
f 47 36 8
f 47 8 22
f 47 46 36
f 47 22 32
f 48 37 2
f 48 2 26
f 48 26 37
f 49 38 27
f 49 20 38
f 49 39 20
f 50 40 26
f 50 26 14
f 50 14 40
f 51 20 29
f 51 29 41
f 51 41 30
f 51 30 45
f 51 45 38
f 51 38 20
f 52 9 18
f 52 18 42
f 52 42 39
f 52 39 49
f 52 49 27
f 52 27 9
f 53 43 17
f 53 17 35
f 53 35 46
f 53 46 47
f 53 47 32
f 54 45 35
f 54 35 12
f 54 12 38
f 54 38 45
f 55 53 32
f 55 32 43
f 55 43 53

