# https://github.com/mikedh/trimesh
v -0.01594858 -0.02965074 0.03959960
v -0.01637546 -0.02762286 0.01863203
v -0.01631275 -0.01596910 0.01868725
v -0.01789703 -0.01558957 0.05684947
v -0.03005687 -0.01568833 0.03626993
v -0.01605462 -0.01638442 0.05773365
v -0.01603309 -0.02976965 0.02357466
v -0.02303577 -0.02139207 0.04541914
v -0.02801389 -0.01567820 0.01894668
v -0.01620401 -0.01587441 0.05795284
v -0.01588860 -0.02093361 0.05419595
v -0.02313178 -0.02543029 0.03360116
v -0.02592456 -0.01561910 0.04756378
v -0.02509237 -0.02212335 0.02303075
v -0.02859673 -0.01564431 0.02028747
v -0.01669473 -0.01570998 0.05769668
v -0.01600471 -0.03038071 0.02626301
v -0.01597270 -0.02695574 0.04623553
v -0.01643826 -0.01745018 0.05668551
v -0.01594990 -0.01763631 0.05690536
v -0.02569814 -0.02146130 0.03883786
v -0.02103244 -0.01805548 0.05201750
v -0.02507444 -0.02013839 0.01909648
v -0.02105373 -0.02539717 0.02108958
v -0.02710969 -0.02083621 0.02762870
v -0.02929325 -0.01563609 0.02226616
v -0.01653030 -0.01624632 0.05747360
v -0.01782722 -0.02939289 0.03488633
v -0.01837606 -0.02202087 0.05069775
v -0.02107313 -0.02535921 0.04147431
v -0.01592791 -0.02828635 0.04357105
v -0.02767564 -0.01744421 0.04149064
v -0.02322545 -0.01560426 0.05156810
v -0.01904704 -0.01810506 0.05396726
v -0.02702681 -0.01743630 0.01911220
v -0.01849300 -0.02676597 0.01972635
v -0.02111458 -0.02672464 0.02562538
v -0.02437797 -0.02211150 0.02104660
v -0.02707751 -0.02083276 0.03421756
v -0.02932050 -0.01564867 0.03960435
v -0.02978837 -0.01682973 0.02888646
v -0.02702917 -0.02014179 0.02433109
v -0.01772393 -0.01612450 0.05663178
v -0.01602905 -0.03041530 0.03560399
v -0.01594988 -0.02433540 0.05026752
v -0.01974648 -0.02336100 0.04736112
v -0.02433190 -0.02208779 0.04149483
v -0.02437025 -0.02344482 0.03751961
v -0.01915034 -0.02805710 0.03755230
v -0.01912440 -0.02672435 0.04210967
v -0.02435166 -0.02071610 0.04410479
v -0.02301671 -0.01940687 0.04803844
v -0.02134052 -0.01566988 0.05364605
v -0.01638271 -0.02072735 0.05397441
v -0.01705794 -0.02202557 0.05204865
v -0.02776121 -0.01622058 0.01903931
v -0.02834301 -0.01615830 0.02035831
v -0.01776065 -0.02873274 0.02366040
v -0.02106617 -0.02471827 0.01974695
v -0.02243982 -0.02542640 0.02496119
v -0.01984829 -0.02808906 0.02826924
v -0.02836650 -0.01814040 0.03751490
v -0.02512108 -0.02346268 0.02962371
v -0.03003624 -0.01567058 0.02557892
f 7 2 3
f 9 3 2
f 10 6 3
f 11 7 3
f 15 4 3
f 15 3 9
f 16 10 3
f 16 3 4
f 17 7 11
f 20 11 3
f 20 3 6
f 20 19 11
f 20 6 19
f 23 9 2
f 26 4 15
f 27 16 4
f 27 6 10
f 27 10 16
f 27 19 6
f 31 17 11
f 31 1 17
f 33 26 13
f 33 4 26
f 35 9 23
f 36 2 7
f 38 24 14
f 40 13 26
f 40 32 13
f 41 39 5
f 41 25 39
f 42 14 25
f 42 38 14
f 42 35 23
f 42 23 38
f 43 27 4
f 43 19 27
f 43 34 19
f 44 28 17
f 44 17 1
f 45 31 11
f 45 18 31
f 46 45 29
f 46 18 45
f 46 8 30
f 47 30 8
f 47 32 21
f 48 39 12
f 48 21 39
f 48 47 21
f 48 30 47
f 49 44 1
f 49 28 44
f 49 12 28
f 49 48 12
f 49 30 48
f 50 1 31
f 50 49 1
f 50 30 49
f 50 31 18
f 50 46 30
f 50 18 46
f 51 13 32
f 51 47 8
f 51 32 47
f 52 33 13
f 52 22 33
f 52 8 46
f 52 46 29
f 52 29 22
f 52 51 8
f 52 13 51
f 53 33 22
f 53 22 34
f 53 4 33
f 53 43 4
f 53 34 43
f 54 11 19
f 54 19 34
f 55 34 22
f 55 22 29
f 55 54 34
f 55 11 54
f 55 45 11
f 55 29 45
f 56 15 9
f 56 9 35
f 57 26 15
f 57 56 35
f 57 15 56
f 57 42 26
f 57 35 42
f 58 36 7
f 58 24 36
f 58 37 24
f 58 7 17
f 59 36 24
f 59 23 2
f 59 2 36
f 59 38 23
f 59 24 38
f 60 14 24
f 60 24 37
f 61 28 12
f 61 17 28
f 61 58 17
f 61 37 58
f 62 39 21
f 62 5 39
f 62 40 5
f 62 21 32
f 62 32 40
f 63 39 25
f 63 12 39
f 63 25 14
f 63 14 60
f 63 60 37
f 63 61 12
f 63 37 61
f 64 40 26
f 64 5 40
f 64 41 5
f 64 26 42
f 64 42 25
f 64 25 41

