# https://github.com/mikedh/trimesh
v 0.01927766 0.01691741 0.05558986
v 0.02547310 0.01709152 0.04769947
v 0.01336996 0.02775368 0.04767040
v 0.00134626 0.03080730 0.04784667
v 0.00135520 0.01732818 0.04790731
v 0.00861732 0.02137661 0.05801240
v 0.01906027 0.02339370 0.04874614
v 0.02525784 0.01692914 0.04823478
v 0.02522789 0.01758737 0.04753644
v 0.00599600 0.03033750 0.04761845
v 0.00134010 0.01722563 0.06194225
v 0.01318998 0.02269368 0.05468370
v 0.02189508 0.01690614 0.05289383
v 0.02121437 0.02221820 0.04754818
v 0.00330433 0.02742677 0.05272064
v 0.01003669 0.01698262 0.06093905
v 0.00131407 0.01825172 0.06141708
v 0.01774222 0.02138375 0.05265609
v 0.01054724 0.02671456 0.05137761
v 0.02372017 0.01744916 0.05005282
v 0.01796481 0.02491869 0.04759405
v 0.02187975 0.02155639 0.04754270
v 0.00394620 0.02876340 0.05074511
v 0.00383025 0.01710791 0.06149340
v 0.01312637 0.01934725 0.05801439
v 0.01202495 0.01696099 0.06028867
v 0.00132076 0.03021327 0.04884195
v 0.00132120 0.02024342 0.06014751
v 0.00798927 0.01813161 0.06069810
v 0.01507656 0.02532348 0.05005975
v 0.02103549 0.01937546 0.05139894
v 0.00991276 0.02867853 0.04873750
v 0.00861485 0.02403527 0.05537891
v 0.02393121 0.01695990 0.05026128
v 0.01064494 0.02901705 0.04760701
v 0.02303038 0.01941167 0.04873029
v 0.00329254 0.03010915 0.04876252
v 0.00727590 0.02670624 0.05269145
v 0.01057471 0.02070086 0.05799505
v 0.01509972 0.01939876 0.05669124
v 0.01464355 0.01697430 0.05896066
v 0.00133681 0.02751601 0.05281879
v 0.00196518 0.01827479 0.06136319
v 0.00531450 0.02143661 0.05867713
v 0.01710879 0.02399375 0.05003321
v 0.01578648 0.02336071 0.05203073
v 0.01251198 0.02538193 0.05199644
v 0.01593672 0.02630692 0.04759961
v 0.01906881 0.01737383 0.05537828
v 0.02169112 0.01804688 0.05203601
v 0.01904165 0.02135008 0.05138684
v 0.02105303 0.02201548 0.04809038
v 0.01120520 0.02734777 0.05007339
v 0.00866167 0.02970588 0.04761058
v 0.02366712 0.01805856 0.04943006
v 0.00529309 0.02942668 0.04941334
v 0.00529585 0.02806991 0.05142064
v 0.00858934 0.02736853 0.05137272
v 0.00596313 0.02472470 0.05535694
v 0.01122992 0.01880662 0.05932069
v 0.01055928 0.02334916 0.05535332
v 0.01512210 0.02266765 0.05335093
v 0.01255901 0.01809572 0.05928757
v 0.01382543 0.01806483 0.05866208
f 8 5 2
f 9 2 5
f 9 8 2
f 10 5 4
f 10 9 5
f 13 5 8
f 16 5 13
f 17 5 11
f 20 8 9
f 21 7 14
f 22 9 10
f 24 16 11
f 24 11 5
f 24 5 16
f 26 16 13
f 26 13 1
f 27 4 5
f 27 5 17
f 28 27 17
f 29 11 16
f 34 20 13
f 34 13 8
f 34 8 20
f 36 9 22
f 37 10 4
f 37 27 23
f 37 4 27
f 39 25 12
f 39 33 6
f 40 12 25
f 41 26 1
f 41 1 40
f 42 15 23
f 42 23 27
f 42 27 28
f 43 17 11
f 43 11 29
f 43 29 28
f 43 28 17
f 44 29 6
f 44 28 29
f 45 7 21
f 46 45 30
f 46 18 45
f 47 46 30
f 48 3 30
f 48 35 3
f 48 21 14
f 48 14 35
f 48 45 21
f 48 30 45
f 49 31 18
f 49 1 13
f 49 40 1
f 49 18 40
f 50 13 20
f 50 20 31
f 50 49 13
f 50 31 49
f 51 18 31
f 51 45 18
f 51 7 45
f 52 22 14
f 52 51 31
f 52 14 7
f 52 7 51
f 52 36 22
f 52 31 36
f 53 32 19
f 53 35 32
f 53 3 35
f 53 19 47
f 53 47 30
f 53 30 3
f 54 32 35
f 54 35 14
f 54 22 10
f 54 14 22
f 55 20 9
f 55 9 36
f 55 36 31
f 55 31 20
f 56 37 23
f 56 10 37
f 56 54 10
f 57 23 15
f 57 15 38
f 57 56 23
f 58 19 32
f 58 32 54
f 58 54 56
f 58 57 38
f 58 56 57
f 58 38 33
f 58 33 19
f 59 38 15
f 59 33 38
f 59 15 42
f 59 42 28
f 59 28 44
f 59 44 6
f 59 6 33
f 60 25 39
f 60 16 26
f 60 29 16
f 60 39 6
f 60 6 29
f 61 39 12
f 61 33 39
f 61 12 47
f 61 47 19
f 61 19 33
f 62 40 18
f 62 12 40
f 62 18 46
f 62 47 12
f 62 46 47
f 63 26 41
f 63 60 26
f 63 25 60
f 64 41 40
f 64 40 25
f 64 63 41
f 64 25 63

