# https://github.com/mikedh/trimesh
v 0.00135520 0.02616215 0.04179149
v 0.00135520 0.02616215 0.02616215
v 0.00135520 0.03023937 0.04179149
v -0.00729081 0.03250495 0.04269896
v -0.01087646 0.02616215 0.02616215
v 0.00135520 0.03023937 0.02616215
v -0.00679924 0.02616215 0.04179149
v -0.01087646 0.03023937 0.02616215
v -0.01087646 0.02616215 0.03363705
v -0.01087646 0.03023937 0.03363705
f 1 2 3
f 1 3 4
f 5 2 1
f 6 3 2
f 6 4 3
f 6 2 5
f 7 5 1
f 7 1 4
f 8 6 5
f 8 4 6
f 9 7 4
f 9 5 7
f 9 8 5
f 10 9 4
f 10 4 8
f 10 8 9

