# https://github.com/mikedh/trimesh
v 0.01074453 0.01174434 0.06304112
v 0.01086870 0.01189189 0.05810036
v 0.01142793 0.01834055 0.05956115
v -0.01605274 0.01704626 0.05767407
v -0.01614575 0.01176722 0.06054312
v -0.01537125 0.01170186 0.06099607
v -0.01720440 0.01262286 0.05949835
v 0.00741848 0.01170949 0.06357429
v -0.01385199 0.01547154 0.05991932
v 0.00872275 0.01687797 0.06136274
v -0.01516945 0.01282394 0.06060555
v -0.01577532 0.01348961 0.05993961
v -0.00536583 0.01303076 0.06338831
v 0.00935945 0.01360955 0.06270478
v -0.00331312 0.01693843 0.06204505
v -0.01582367 0.01679789 0.05797804
v -0.00739714 0.01172748 0.06352812
v 0.00740395 0.01233858 0.06339673
v 0.01000209 0.01490336 0.06203933
v 0.00187980 0.01697567 0.06199886
v -0.00792231 0.01682598 0.06132512
v -0.01072879 0.01167624 0.06290865
v -0.00007446 0.01566833 0.06271057
v 0.01066258 0.01295541 0.06267313
v 0.01063281 0.01689861 0.06081084
v 0.00865490 0.01558097 0.06200757
v -0.00533553 0.01498382 0.06269419
v -0.01189555 0.01677320 0.05998948
v -0.01267893 0.01167245 0.06225140
v 0.00122010 0.01307057 0.06339148
v 0.00997496 0.01624899 0.06137582
v 0.00740876 0.01428818 0.06270267
v -0.00597275 0.01625483 0.06201727
v -0.00202101 0.01567575 0.06271375
v -0.00730699 0.01425811 0.06266899
v -0.01385286 0.01283270 0.06126462
v -0.01125303 0.01355892 0.06199371
v -0.00734763 0.01229212 0.06336263
v -0.00795822 0.01555766 0.06196217
v -0.01317405 0.01351297 0.06126620
v -0.01067661 0.01225229 0.06272150
v -0.01120977 0.01615055 0.06067578
v -0.00931881 0.01488124 0.06196895
v -0.01259020 0.01224617 0.06206565
v -0.00997698 0.01289974 0.06263955
v -0.01317722 0.01479763 0.06060902
v -0.00923639 0.01617962 0.06130667
f 1 2 3
f 3 2 4
f 6 5 2
f 7 4 2
f 7 2 5
f 8 2 1
f 11 5 6
f 12 11 9
f 12 7 5
f 12 5 11
f 16 12 9
f 16 4 7
f 16 7 12
f 17 8 13
f 18 8 1
f 18 1 14
f 20 10 3
f 20 3 15
f 21 15 3
f 21 3 4
f 22 8 17
f 23 8 18
f 23 20 15
f 24 19 14
f 24 14 1
f 24 1 3
f 25 3 10
f 25 24 3
f 25 19 24
f 26 19 10
f 26 14 19
f 26 10 20
f 28 16 9
f 28 21 4
f 28 4 16
f 29 8 22
f 29 6 2
f 29 2 8
f 30 13 8
f 30 8 23
f 31 25 10
f 31 10 19
f 31 19 25
f 32 26 20
f 32 20 23
f 32 23 18
f 32 18 14
f 32 14 26
f 33 27 15
f 33 15 21
f 34 23 15
f 34 15 27
f 34 27 13
f 34 30 23
f 34 13 30
f 35 13 27
f 35 27 33
f 36 11 6
f 36 6 29
f 38 22 17
f 38 17 13
f 38 13 35
f 39 35 33
f 39 33 21
f 40 11 36
f 41 29 22
f 42 21 28
f 42 28 9
f 43 39 21
f 43 35 39
f 43 42 37
f 44 40 36
f 44 36 29
f 44 37 40
f 44 41 37
f 44 29 41
f 45 38 35
f 45 35 43
f 45 43 37
f 45 37 41
f 45 41 22
f 45 22 38
f 46 40 37
f 46 37 42
f 46 42 9
f 46 9 11
f 46 11 40
f 47 43 21
f 47 21 42
f 47 42 43

