# https://github.com/mikedh/trimesh
v 0.00135520 -0.00985328 0.05877990
v 0.00135520 -0.00985328 0.05062546
v 0.00135520 0.01732818 0.05674129
v -0.00732314 0.01881259 0.06020059
v -0.00679924 -0.00985328 0.05062546
v 0.00135520 0.01732818 0.05810036
v -0.00679924 -0.00985328 0.05877990
v 0.00135520 0.01732818 0.05062546
v 0.00135520 0.00781467 0.05877990
v -0.00679924 0.01732818 0.05062546
f 1 2 3
f 5 2 1
f 6 1 3
f 6 3 4
f 7 5 1
f 7 1 4
f 7 4 5
f 8 3 2
f 8 2 5
f 8 4 3
f 9 6 4
f 9 4 1
f 9 1 6
f 10 8 5
f 10 5 4
f 10 4 8

