# https://github.com/mikedh/trimesh
v 0.01081365 -0.00985156 0.06333715
v 0.01086870 -0.00985328 0.05810036
v 0.01086870 0.01189189 0.05810036
v 0.00126541 0.01177200 0.06366809
v 0.00135520 -0.00985328 0.05810036
v 0.01069122 0.01035102 0.06341340
v 0.01084363 -0.00488189 0.06346417
v 0.00134680 -0.00985355 0.06415679
v 0.00135520 0.01189189 0.05810036
v 0.01074453 0.01174434 0.06304112
v 0.00116029 0.00110260 0.06490077
v 0.00937809 0.01167400 0.06333978
v 0.00213717 -0.00128146 0.06508633
v 0.00738671 0.00905280 0.06411176
v 0.01002439 -0.00981886 0.06352767
v 0.00128956 -0.00207101 0.06508361
v 0.00149657 0.00095827 0.06493119
v 0.00807085 0.00516118 0.06414758
v 0.00418396 0.00902623 0.06415576
v 0.00807598 0.00776548 0.06413072
f 5 3 2
f 7 1 2
f 7 2 3
f 8 5 2
f 8 2 1
f 9 4 3
f 9 3 5
f 10 3 4
f 10 7 3
f 10 6 7
f 11 5 8
f 11 9 5
f 11 4 9
f 12 10 4
f 12 6 10
f 14 6 12
f 14 12 4
f 15 1 7
f 15 8 1
f 16 11 8
f 16 15 13
f 16 8 15
f 17 13 14
f 17 16 13
f 17 11 16
f 18 15 7
f 18 13 15
f 19 17 14
f 19 14 4
f 19 4 11
f 19 11 17
f 20 14 13
f 20 13 18
f 20 6 14
f 20 18 7
f 20 7 6

