# https://github.com/mikedh/trimesh
v 0.02752973 0.01713623 0.01815794
v 0.02732912 0.01701862 0.01757045
v 0.01061928 0.03092213 0.01830900
v -0.00801452 0.03169327 0.01827625
v -0.01631275 0.01732818 0.01800771
v 0.00470412 0.01706774 0.00231237
v 0.02727138 0.01764802 0.01826369
v 0.01584421 0.02142997 0.00855786
v 0.00264417 0.02745865 0.00982834
v -0.01599182 0.01704316 0.00630317
v -0.01064281 0.03096315 0.01832796
v 0.02707279 0.01754787 0.01768807
v 0.01930488 0.01699476 0.00767196
v 0.00395752 0.03213957 0.01770624
v 0.00796796 0.02153430 0.00518871
v 0.00926232 0.02671547 0.01049473
v -0.00728739 0.02220551 0.00591792
v 0.02253445 0.02350811 0.01831245
v 0.00400732 0.03237884 0.01826126
v -0.01538113 0.02902224 0.01828563
v -0.01198942 0.01700328 0.00439169
v 0.02459368 0.01696827 0.01297747
v -0.00263034 0.02944140 0.01241223
v 0.01334259 0.01703663 0.00434422
v 0.01512914 0.02599387 0.01313134
v 0.00796990 0.02541966 0.00852635
v 0.00791217 0.02939100 0.01376713
v -0.00329207 0.02221299 0.00518225
v 0.02501949 0.02008134 0.01709609
v -0.00400766 0.03237231 0.01826686
v 0.00795676 0.03143410 0.01770759
v -0.01401730 0.02965072 0.01830535
v -0.01616123 0.02859001 0.01816661
v -0.01251608 0.02143807 0.00728878
v 0.02592566 0.01698639 0.01495497
v 0.01733003 0.01698959 0.00634762
v 0.02238027 0.01879398 0.01186697
v 0.00264174 0.02944453 0.01243611
v -0.00853613 0.02872287 0.01310971
v 0.00929550 0.01758499 0.00325727
v 0.01185653 0.02080205 0.00595170
v 0.01256047 0.02536882 0.01047161
v 0.01727819 0.02760007 0.01827281
v 0.00400334 0.02481677 0.00720372
v 0.00596782 0.02805811 0.01112183
v 0.01055612 0.02935460 0.01508599
v 0.00468034 0.02023926 0.00387320
v -0.00726485 0.01890449 0.00392649
v -0.00324935 0.02613310 0.00851017
v 0.02593515 0.01963521 0.01827027
v -0.00464407 0.03073844 0.01505243
v -0.00397650 0.03212399 0.01769728
v 0.00801267 0.03167757 0.01827766
v 0.00665458 0.03142345 0.01704243
v -0.01255201 0.01954681 0.00599268
v -0.01583979 0.02148846 0.00923792
v 0.02638137 0.01816185 0.01708086
v 0.02433588 0.01943466 0.01511940
v 0.00934780 0.01704246 0.00301494
v 0.01648207 0.02011586 0.00791141
v 0.02169376 0.01810220 0.01054012
v 0.01907924 0.02272067 0.01252019
v -0.00196842 0.02748856 0.00981485
v -0.01059282 0.03003172 0.01645997
f 5 2 1
f 7 5 1
f 10 2 5
f 12 7 1
f 12 1 2
f 18 11 7
f 18 3 11
f 19 11 3
f 20 5 7
f 30 4 11
f 30 11 19
f 30 19 14
f 32 20 7
f 32 7 11
f 33 10 5
f 33 5 20
f 35 2 10
f 35 10 21
f 35 21 22
f 36 22 21
f 36 13 22
f 38 23 14
f 39 17 34
f 41 36 24
f 41 15 26
f 41 40 15
f 41 24 40
f 42 25 8
f 42 26 16
f 42 41 26
f 42 8 41
f 43 3 18
f 44 26 15
f 44 9 26
f 45 26 9
f 45 16 26
f 45 9 38
f 45 38 27
f 45 27 16
f 46 25 42
f 46 42 16
f 46 16 27
f 46 43 25
f 46 3 43
f 46 31 3
f 46 27 31
f 47 6 28
f 47 40 6
f 47 15 40
f 47 44 15
f 47 28 44
f 48 17 28
f 48 28 6
f 48 6 21
f 49 44 28
f 49 28 17
f 49 17 39
f 50 29 18
f 50 18 7
f 51 39 4
f 51 23 39
f 52 30 14
f 52 14 23
f 52 23 51
f 52 51 4
f 52 4 30
f 53 19 3
f 53 3 31
f 54 14 19
f 54 53 31
f 54 19 53
f 54 31 27
f 54 38 14
f 54 27 38
f 55 21 10
f 55 34 17
f 55 48 21
f 55 17 48
f 56 10 33
f 56 39 34
f 56 33 39
f 56 55 10
f 56 34 55
f 57 12 2
f 57 2 35
f 57 29 50
f 57 50 7
f 57 7 12
f 58 35 22
f 58 57 35
f 58 29 57
f 58 22 37
f 58 18 29
f 59 36 21
f 59 21 6
f 59 24 36
f 59 40 24
f 59 6 40
f 60 13 36
f 60 41 8
f 60 36 41
f 61 37 22
f 61 22 13
f 61 13 60
f 61 60 8
f 62 58 37
f 62 18 58
f 62 43 18
f 62 25 43
f 62 8 25
f 62 61 8
f 62 37 61
f 63 38 9
f 63 23 38
f 63 9 44
f 63 44 49
f 63 49 39
f 63 39 23
f 64 11 4
f 64 4 39
f 64 32 11
f 64 20 32
f 64 39 33
f 64 33 20

