# https://github.com/mikedh/trimesh
v -0.01622662 -0.00845232 0.06135255
v -0.01631275 -0.00849420 0.04858685
v -0.01600881 0.01502088 0.05898022
v -0.02176065 0.01484243 0.05468107
v -0.02310811 -0.00849420 0.04858685
v -0.01631275 0.01528957 0.04858685
v -0.01914585 0.00367332 0.06071122
v -0.01602676 -0.00767560 0.06169447
v -0.02242858 0.01528957 0.04858685
v -0.02047275 0.00891648 0.05864329
v -0.02243881 -0.00822783 0.05672491
v -0.01601512 0.00569436 0.06229282
v -0.01914201 0.01154185 0.05864545
v -0.01917014 -0.00227405 0.06069242
v -0.02243450 0.00428068 0.05803767
v -0.01598289 0.01101618 0.06093233
v -0.01847150 0.00691290 0.06063725
v -0.01778133 0.01479130 0.05796654
v -0.02043056 0.01219098 0.05732654
v -0.01722573 0.00168079 0.06204529
v -0.01849137 -0.00564000 0.06068337
v -0.02249601 0.00695390 0.05745306
v -0.02243710 -0.00226197 0.05805048
v -0.01601465 -0.00498348 0.06228684
v -0.01652394 0.00892117 0.06132297
v -0.01785174 0.00496237 0.06139357
v -0.02045241 0.00627055 0.05934713
v -0.02108599 0.01482369 0.05531341
v -0.01777158 0.01219189 0.05932293
v -0.02042950 0.01349410 0.05666891
v -0.01846109 -0.00825656 0.06001270
v -0.02310811 0.00713513 0.04858685
v -0.02174549 0.00955448 0.05732615
v -0.02181297 -0.00095128 0.05873142
v -0.02042348 -0.00495646 0.05935926
v -0.01599147 0.00900049 0.06159134
v -0.01721287 -0.00097050 0.06203668
v -0.01653550 -0.00497993 0.06201465
v -0.01647803 0.01091648 0.06067097
v -0.01713178 0.00758554 0.06130953
v -0.02180576 0.00299735 0.05872104
v -0.02111308 0.00692958 0.05867033
v -0.01652910 0.01488010 0.05872915
v -0.02109585 -0.00819126 0.05802107
v -0.01782849 -0.00759099 0.06063753
v -0.01783988 -0.00427601 0.06134201
v -0.01654543 0.00565566 0.06201706
v -0.02110034 -0.00563542 0.05867649
v -0.01725339 -0.00829073 0.06079123
v -0.01654014 -0.00759480 0.06141381
v -0.02240756 -0.00623977 0.05736798
f 5 2 1
f 6 3 2
f 6 2 5
f 8 1 2
f 8 2 3
f 9 4 3
f 9 3 6
f 9 6 5
f 11 5 1
f 16 8 3
f 19 10 13
f 20 7 14
f 22 4 9
f 23 5 11
f 23 22 5
f 23 15 22
f 24 8 16
f 24 12 20
f 25 10 17
f 26 17 7
f 26 7 20
f 27 7 17
f 27 17 10
f 28 18 3
f 28 3 4
f 29 16 3
f 29 18 13
f 30 19 13
f 30 13 18
f 30 18 28
f 30 28 4
f 30 4 19
f 32 22 9
f 32 9 5
f 32 5 22
f 33 19 4
f 33 4 22
f 33 22 10
f 33 10 19
f 34 14 7
f 34 15 23
f 35 21 14
f 35 34 23
f 35 14 34
f 36 24 16
f 36 12 24
f 36 16 25
f 37 24 20
f 37 20 14
f 38 8 24
f 38 24 37
f 39 25 16
f 39 13 10
f 39 10 25
f 39 29 13
f 39 16 29
f 40 25 17
f 40 36 25
f 40 12 36
f 40 17 26
f 41 27 15
f 41 7 27
f 41 34 7
f 41 15 34
f 42 22 15
f 42 15 27
f 42 27 10
f 42 10 22
f 43 29 3
f 43 3 18
f 43 18 29
f 44 11 1
f 44 1 31
f 44 31 21
f 45 21 31
f 45 38 21
f 46 14 21
f 46 21 38
f 46 38 37
f 46 37 14
f 47 40 26
f 47 12 40
f 47 26 20
f 47 20 12
f 48 44 21
f 48 21 35
f 48 35 23
f 49 45 31
f 49 31 1
f 49 1 8
f 50 8 38
f 50 38 45
f 50 49 8
f 50 45 49
f 51 48 23
f 51 23 11
f 51 11 44
f 51 44 48

