# https://github.com/mikedh/trimesh
v -0.00679924 0.03023937 0.03363705
v -0.00673657 0.03190923 0.01816586
v -0.00667910 0.03226334 0.01898024
v -0.00674757 0.03470473 0.03360651
v -0.01100257 0.03058227 0.01783486
v -0.00667476 0.03362747 0.02294867
v -0.00704668 0.03150822 0.01740325
v -0.01087646 0.03023937 0.03363705
v -0.01064635 0.03348789 0.02629757
v -0.01058936 0.03212566 0.02105502
v -0.00668967 0.03425257 0.02563503
v -0.01071770 0.03375685 0.03359607
v -0.00798701 0.03277797 0.02102704
v -0.00863241 0.03346999 0.02369389
v -0.01063806 0.03275961 0.02304497
v -0.00926767 0.03143028 0.01839799
v -0.00928091 0.03419260 0.02894156
v -0.00733421 0.03351629 0.02297839
v -0.00732662 0.03415604 0.02563347
v -0.00992940 0.03344699 0.02498887
v -0.00995099 0.03273188 0.02237430
v -0.01064281 0.03096315 0.01832796
v -0.00732392 0.03215702 0.01901759
v -0.00993035 0.03208342 0.02040992
v -0.00930615 0.03419329 0.03292854
v -0.00798068 0.03415491 0.02632508
v -0.00869355 0.03430670 0.03358498
f 1 2 3
f 6 1 3
f 6 4 1
f 7 2 1
f 7 1 5
f 8 5 1
f 8 1 4
f 11 4 6
f 12 8 4
f 12 9 5
f 12 5 8
f 13 6 3
f 15 10 5
f 15 5 9
f 16 7 5
f 17 4 11
f 17 9 12
f 18 14 6
f 18 6 13
f 18 13 14
f 19 11 6
f 19 6 14
f 20 15 9
f 20 14 15
f 21 15 14
f 21 14 13
f 21 10 15
f 22 16 5
f 22 5 10
f 23 2 7
f 23 7 16
f 23 3 2
f 23 13 3
f 24 23 16
f 24 13 23
f 24 21 13
f 24 10 21
f 24 22 10
f 24 16 22
f 25 17 12
f 25 4 17
f 26 17 11
f 26 11 19
f 26 9 17
f 26 20 9
f 26 19 14
f 26 14 20
f 27 25 12
f 27 12 4
f 27 4 25

