# https://github.com/mikedh/trimesh
v 0.01902314 -0.01868725 0.01664864
v 0.01855604 -0.01824390 0.00848288
v 0.01902314 -0.00033977 0.01664864
v -0.01631275 -0.00033977 0.01732818
v -0.01631275 -0.01868725 0.01732818
v -0.00871975 -0.00032603 0.00040650
v 0.00135520 -0.01868725 0.01732818
v 0.01868028 -0.00031709 0.00298688
v -0.00265116 -0.01826851 0.00319731
v -0.01597294 -0.00032490 0.00251659
v 0.00135520 -0.00033977 0.01732818
v 0.01857229 -0.01023740 0.00461355
v 0.00399790 -0.01827306 0.00321216
v 0.01143450 -0.00031721 0.00040172
v -0.01600400 -0.01836185 0.00763796
v -0.01192175 -0.00898752 0.00190738
v 0.00860823 -0.01823452 0.00396039
v 0.01532521 -0.00498396 0.00184710
v 0.00470238 -0.00907035 0.00042113
v -0.01203079 -0.00167436 0.00114106
v -0.01589492 -0.01030652 0.00389967
v -0.00993042 -0.01687471 0.00392556
v 0.01255375 -0.01557672 0.00395038
v 0.01603044 -0.00031611 0.00169581
v 0.01860817 -0.00365343 0.00318530
v 0.00269540 -0.01303114 0.00115595
v 0.01266146 -0.00629547 0.00121490
v -0.01331403 -0.00566765 0.00184271
v -0.01201720 -0.00032248 0.00109892
v -0.00739647 -0.00504928 0.00042713
v -0.01596925 -0.00099878 0.00252939
v -0.00533688 -0.01435056 0.00185370
v -0.00992674 -0.01819688 0.00463051
v -0.01323378 -0.01229427 0.00327619
v 0.01852156 -0.01220435 0.00530186
v 0.01255366 -0.01820383 0.00524958
v 0.01401456 -0.00297939 0.00115928
v 0.01858216 -0.00761448 0.00388621
v 0.01599182 -0.00300000 0.00183521
v -0.00133004 -0.01695747 0.00250938
v 0.00663187 -0.01430151 0.00186785
v 0.01009510 -0.00434104 0.00043693
v 0.01458928 -0.00958888 0.00260599
v -0.01459610 -0.00697581 0.00252415
v -0.00874211 -0.00100248 0.00042310
v -0.01133406 -0.00503968 0.00117011
v -0.00268449 -0.00909113 0.00042727
v -0.01396122 -0.00299672 0.00183733
v -0.00729526 -0.01692026 0.00325669
v -0.00728163 -0.01822613 0.00390802
v -0.01187496 -0.01684630 0.00461683
v -0.00993223 -0.01361964 0.00257308
v -0.01585034 -0.01421173 0.00526733
v 0.01190410 -0.01756021 0.00464534
v 0.01847317 -0.01748570 0.00792190
v 0.01524131 -0.01289159 0.00394986
v 0.01405469 -0.00031976 0.00101916
v 0.01334634 -0.00500159 0.00119174
v 0.01791200 -0.00630305 0.00324877
v 0.01727869 -0.00365031 0.00251110
v 0.00332986 -0.01698475 0.00255007
v -0.00134057 -0.01301737 0.00114559
v -0.00465542 -0.01630902 0.00251484
v 0.00664934 -0.01758705 0.00322236
f 7 1 3
f 7 5 1
f 7 4 5
f 8 3 1
f 10 5 4
f 11 7 3
f 11 4 7
f 11 8 4
f 11 3 8
f 12 8 1
f 12 1 2
f 13 1 5
f 13 5 9
f 15 9 5
f 17 2 1
f 17 1 13
f 19 6 14
f 24 4 8
f 29 14 6
f 29 24 14
f 29 10 4
f 29 4 24
f 31 21 15
f 31 15 5
f 31 5 10
f 35 12 2
f 36 2 17
f 38 25 8
f 38 8 12
f 39 24 8
f 39 18 37
f 40 13 9
f 41 23 17
f 41 26 19
f 41 19 27
f 42 27 19
f 42 19 14
f 42 14 37
f 43 27 18
f 43 41 27
f 43 23 41
f 43 38 12
f 44 28 16
f 44 21 31
f 44 34 21
f 44 16 34
f 45 29 6
f 45 20 29
f 45 6 30
f 46 45 30
f 46 20 45
f 46 30 16
f 46 16 28
f 47 30 6
f 47 6 19
f 47 32 16
f 47 16 30
f 48 44 31
f 48 28 44
f 48 46 28
f 48 20 46
f 48 29 20
f 48 31 10
f 48 10 29
f 50 9 15
f 50 15 33
f 50 33 22
f 50 22 49
f 51 33 15
f 51 22 33
f 52 51 34
f 52 22 51
f 52 49 22
f 52 32 49
f 52 34 16
f 52 16 32
f 53 15 21
f 53 21 34
f 53 51 15
f 53 34 51
f 54 36 17
f 54 17 23
f 54 23 36
f 55 35 2
f 55 2 36
f 56 36 23
f 56 55 36
f 56 35 55
f 56 23 43
f 56 43 12
f 56 12 35
f 57 37 14
f 57 14 24
f 57 39 37
f 57 24 39
f 58 37 18
f 58 18 27
f 58 42 37
f 58 27 42
f 59 25 38
f 59 43 18
f 59 38 43
f 60 39 8
f 60 8 25
f 60 25 59
f 60 59 18
f 60 18 39
f 61 40 26
f 61 13 40
f 61 26 41
f 62 40 32
f 62 26 40
f 62 32 47
f 62 47 19
f 62 19 26
f 63 40 9
f 63 32 40
f 63 49 32
f 63 50 49
f 63 9 50
f 64 41 17
f 64 17 13
f 64 61 41
f 64 13 61

