# https://github.com/mikedh/trimesh
v 0.01552075 -0.01925117 0.05726414
v 0.01866394 -0.01636698 0.05697768
v 0.01544581 -0.00492839 0.06291430
v 0.01583895 0.01757178 0.05773614
v 0.01738645 0.01703097 0.05706466
v 0.01526822 0.01558099 0.05954484
v 0.01526888 -0.01312290 0.06098801
v 0.01603842 -0.01908836 0.05703757
v 0.01864305 0.00025254 0.06202290
v 0.01539134 0.01706086 0.05843450
v 0.01523288 -0.01825380 0.05819247
v 0.01536670 0.00842372 0.06228465
v 0.01870396 0.01569640 0.05706441
v 0.01863155 -0.00618607 0.06138123
v 0.01529267 -0.01899934 0.05760239
v 0.01776014 0.01543106 0.05796890
v 0.01715655 0.01678485 0.05744924
v 0.01573918 -0.01809629 0.05796642
v 0.01740008 -0.00106847 0.06272539
v 0.01853931 0.01022916 0.06009149
v 0.01844366 -0.01355528 0.05859752
v 0.01667500 -0.00427949 0.06268667
v 0.01579343 0.01544962 0.05930461
v 0.01849116 0.01548534 0.05738985
v 0.01526182 -0.01498578 0.06025996
v 0.01547050 0.00218592 0.06277493
v 0.01861190 -0.00298703 0.06200680
v 0.01720612 0.00836195 0.06136434
v 0.01539597 0.01103409 0.06167663
v 0.01863611 -0.00813697 0.06067022
v 0.01607638 -0.00488256 0.06274466
v 0.01798848 -0.00489616 0.06201970
v 0.01733521 -0.00165882 0.06272857
v 0.01644705 0.01671450 0.05798697
v 0.01707402 0.01286084 0.05994900
v 0.01841493 0.01349066 0.05866939
v 0.01839645 -0.01619569 0.05729938
v 0.01669784 0.00089957 0.06274748
v 0.01591483 0.00840679 0.06203238
v 0.01786034 0.00960260 0.06071408
v 0.01534598 0.01298438 0.06092219
v 0.01573002 -0.01484058 0.06001425
v 0.01647521 0.01477236 0.05930827
v 0.01647486 0.01223480 0.06061179
v 0.01842642 0.01217970 0.05933251
v 0.01650591 0.01028501 0.06130119
v 0.01584424 0.01286538 0.06069680
v 0.01588402 0.01093430 0.06144555
f 8 5 2
f 8 1 4
f 8 4 5
f 11 7 6
f 11 1 8
f 11 6 10
f 12 7 3
f 12 6 7
f 13 9 2
f 13 2 5
f 15 10 4
f 15 4 1
f 15 11 10
f 15 1 11
f 17 5 4
f 17 13 5
f 18 11 8
f 18 8 2
f 19 9 12
f 20 9 13
f 23 10 6
f 24 17 16
f 24 13 17
f 25 7 11
f 25 11 18
f 26 12 3
f 27 14 9
f 27 9 19
f 30 21 2
f 30 14 7
f 30 2 9
f 30 9 14
f 31 22 3
f 31 3 7
f 31 7 22
f 32 22 7
f 32 7 14
f 32 27 22
f 32 14 27
f 33 19 3
f 33 3 22
f 33 27 19
f 33 22 27
f 34 10 23
f 34 17 4
f 34 4 10
f 34 16 17
f 36 13 24
f 36 24 16
f 37 25 18
f 37 18 2
f 37 2 21
f 38 19 12
f 38 12 26
f 38 26 3
f 38 3 19
f 39 12 9
f 39 9 28
f 39 29 12
f 40 28 9
f 40 9 20
f 41 6 12
f 41 12 29
f 42 21 30
f 42 37 21
f 42 25 37
f 42 30 7
f 42 7 25
f 43 34 23
f 43 16 34
f 43 36 16
f 43 35 36
f 43 23 6
f 43 6 41
f 44 20 35
f 44 41 29
f 45 20 13
f 45 13 36
f 45 36 35
f 45 35 20
f 46 39 28
f 46 29 39
f 46 28 40
f 46 40 20
f 47 43 41
f 47 35 43
f 47 44 35
f 47 41 44
f 48 44 29
f 48 29 46
f 48 46 20
f 48 20 44

