# https://github.com/mikedh/trimesh
v -0.02922394 0.00713513 0.04179149
v -0.02922394 0.00713513 0.02684169
v -0.02986332 0.01560394 0.04203885
v -0.03039798 0.01490607 0.04147865
v -0.03417347 0.00705326 0.02691105
v -0.03295106 0.00705899 0.04168269
v -0.03111474 0.01622382 0.02652658
v -0.03175464 0.01157826 0.04147736
v -0.03322114 0.00696995 0.04087591
v -0.03173982 0.01487216 0.03620980
v -0.03240216 0.00957813 0.04149080
v -0.03105589 0.01487437 0.03953318
v -0.03386076 0.00965891 0.02893711
v -0.03308760 0.00761622 0.04084965
v -0.03310879 0.01029228 0.03820069
v -0.03174124 0.01223001 0.04083790
v -0.03245515 0.01356280 0.02762151
v -0.03397343 0.00700783 0.03758145
v -0.03314263 0.01159287 0.03557667
v -0.03245459 0.01226584 0.03818393
v -0.03241041 0.01090625 0.04017202
v -0.03247390 0.01357892 0.03491189
v -0.03310202 0.01157634 0.02696122
v -0.03381588 0.00963885 0.03490824
v -0.03385591 0.00766558 0.03755872
v -0.03245945 0.01292607 0.03688841
v -0.03178251 0.01492487 0.02694115
v -0.03380910 0.00897679 0.02695256
v -0.03382398 0.00896600 0.03622905
f 1 2 3
f 6 1 3
f 7 3 2
f 7 2 5
f 8 3 4
f 9 5 2
f 9 2 1
f 9 1 6
f 10 3 7
f 11 6 3
f 11 3 8
f 12 4 3
f 12 3 10
f 14 9 6
f 14 6 11
f 15 14 11
f 16 8 4
f 16 4 12
f 18 5 9
f 20 19 15
f 20 16 12
f 21 15 11
f 21 11 8
f 21 8 16
f 21 20 15
f 21 16 20
f 22 10 7
f 22 17 13
f 23 13 17
f 24 13 5
f 24 5 18
f 24 22 13
f 24 19 22
f 25 18 9
f 25 9 14
f 25 14 15
f 26 20 12
f 26 12 10
f 26 10 22
f 26 22 19
f 26 19 20
f 27 22 7
f 27 17 22
f 27 23 17
f 27 7 23
f 28 23 7
f 28 7 5
f 28 5 13
f 28 13 23
f 29 15 19
f 29 19 24
f 29 25 15
f 29 24 18
f 29 18 25

