# https://github.com/mikedh/trimesh
v 0.00135520 -0.02752122 0.04858685
v 0.00135520 -0.02752122 0.01868725
v 0.00135520 -0.01868725 0.04858685
v -0.01631275 -0.01868725 0.04858685
v -0.01637546 -0.02762286 0.01863203
v 0.00135520 -0.01868725 0.01868725
v -0.01580978 -0.02675110 0.04678276
v -0.01631275 -0.01868725 0.01868725
v -0.01449684 -0.02675696 0.04812039
v -0.01574020 -0.02601221 0.04805479
f 1 2 3
f 1 3 4
f 5 2 1
f 6 3 2
f 6 4 3
f 6 2 5
f 7 5 1
f 7 4 5
f 8 6 5
f 8 5 4
f 8 4 6
f 9 7 1
f 9 1 4
f 10 9 4
f 10 4 7
f 10 7 9

