# https://github.com/mikedh/trimesh
v 0.01619593 0.02600378 0.04781619
v 0.01705763 0.02733108 0.01742389
v 0.01582091 0.03077864 0.03486157
v 0.00929681 0.03294822 0.03825130
v 0.00950963 0.02616215 0.01800771
v 0.00928584 0.03296669 0.02291579
v 0.01383156 0.03000431 0.04213005
v 0.01585489 0.03011822 0.03819965
v 0.00950963 0.02616215 0.04518917
v 0.01581660 0.03078666 0.02626467
v 0.00992944 0.03348015 0.03423044
v 0.00941132 0.03125559 0.01815384
v 0.00926848 0.02954518 0.04754125
v 0.01579665 0.02868219 0.04281938
v 0.01253753 0.03144004 0.03951444
v 0.01317757 0.03068689 0.02036415
v 0.00931580 0.03366633 0.03421779
v 0.00991948 0.03347685 0.02692942
v 0.01186236 0.03282223 0.03354998
v 0.00932286 0.03162662 0.01896487
v 0.01246748 0.02866459 0.04677762
v 0.01030788 0.02825163 0.04919324
v 0.01585467 0.02939454 0.04082511
v 0.00990524 0.03141096 0.04286486
v 0.01122985 0.03280435 0.03554512
v 0.01386542 0.03142498 0.03687431
v 0.01579254 0.02934850 0.02033482
v 0.01250888 0.03207092 0.02427918
v 0.01527124 0.02884746 0.01830054
v 0.00930732 0.03366899 0.02692226
v 0.01189845 0.03278657 0.02759337
v 0.01122956 0.03073433 0.01839266
v 0.00995818 0.03147245 0.01903058
v 0.01313877 0.02865547 0.04611003
v 0.00988939 0.02937642 0.04745225
v 0.01443768 0.02732216 0.04741097
v 0.01182666 0.03068028 0.04280667
v 0.01054234 0.03204347 0.04019047
v 0.00930171 0.03158713 0.04288824
v 0.00989854 0.03276162 0.03822223
v 0.01519054 0.03075758 0.03687982
v 0.01319773 0.03207191 0.03485437
v 0.01584287 0.03010779 0.02297099
v 0.01185606 0.03205556 0.02299242
v 0.00991296 0.03277741 0.02296317
v 0.01584657 0.02879514 0.01900021
v 0.01320719 0.03208237 0.02627173
v 0.00988937 0.03004636 0.04611979
v 0.01315254 0.02798502 0.04743289
v 0.01582783 0.02678980 0.04684968
v 0.01053189 0.03068543 0.04413678
v 0.00928999 0.03224076 0.04089105
v 0.01449072 0.03140242 0.02563428
v 0.01599684 0.02837739 0.01822473
v 0.00929082 0.03020036 0.04621714
v 0.01593672 0.02630692 0.04759961
v 0.00991585 0.03206561 0.04083707
f 5 2 1
f 8 1 2
f 8 2 3
f 9 5 1
f 10 3 2
f 12 2 5
f 13 5 9
f 17 4 11
f 19 3 10
f 19 18 11
f 20 12 5
f 20 13 6
f 20 5 13
f 22 13 9
f 22 9 1
f 23 7 14
f 23 15 7
f 23 8 15
f 23 14 1
f 23 1 8
f 25 19 11
f 26 15 8
f 26 25 15
f 29 16 27
f 30 17 11
f 30 11 18
f 30 6 4
f 30 4 17
f 31 19 10
f 31 18 19
f 32 16 29
f 32 29 2
f 32 2 12
f 33 20 6
f 33 16 32
f 33 32 12
f 33 12 20
f 34 14 7
f 35 22 21
f 35 13 22
f 36 22 1
f 36 14 34
f 37 7 15
f 37 34 7
f 38 37 15
f 38 24 37
f 40 25 11
f 40 11 4
f 40 15 25
f 40 38 15
f 40 4 38
f 41 26 8
f 41 8 3
f 41 3 26
f 42 26 3
f 42 3 19
f 42 19 25
f 42 25 26
f 43 10 2
f 43 2 27
f 43 27 16
f 44 16 33
f 44 43 16
f 44 28 43
f 45 18 28
f 45 30 18
f 45 6 30
f 45 28 44
f 45 44 33
f 45 33 6
f 46 29 27
f 46 27 2
f 47 28 18
f 47 18 31
f 47 31 10
f 48 13 35
f 48 35 21
f 49 21 22
f 49 22 36
f 49 36 34
f 49 34 21
f 50 1 14
f 50 14 36
f 51 21 34
f 51 34 37
f 51 48 21
f 51 37 24
f 52 13 39
f 52 4 6
f 52 6 13
f 52 39 24
f 53 43 28
f 53 10 43
f 53 47 10
f 53 28 47
f 54 46 2
f 54 2 29
f 54 29 46
f 55 39 13
f 55 13 48
f 55 48 51
f 55 51 24
f 55 24 39
f 56 50 36
f 56 36 1
f 56 1 50
f 57 52 24
f 57 24 38
f 57 38 4
f 57 4 52

