# https://github.com/mikedh/trimesh
v -0.00668301 -0.00972112 0.06418282
v -0.00679924 -0.00985328 0.05810036
v -0.00679924 0.00781467 0.05810036
v -0.01589162 0.00763342 0.06201137
v -0.01750258 -0.01057025 0.05983049
v -0.00684179 0.00787681 0.06428867
v -0.01397436 -0.00365670 0.06338675
v -0.01631275 0.00781467 0.05810036
v -0.01260277 -0.00961868 0.06273180
v -0.01589011 -0.00167494 0.06272044
v -0.01204151 0.00365919 0.06406563
v -0.01455172 0.00766695 0.06266163
v -0.01587774 -0.00695174 0.06196452
v -0.01064265 -0.00964465 0.06337697
v -0.01592874 0.00232664 0.06270277
v -0.01202130 -0.00299882 0.06409293
v -0.00939439 0.00769168 0.06411277
v -0.01329420 -0.00564629 0.06336795
v -0.01529506 -0.00963759 0.06149238
v -0.01525818 -0.00494095 0.06267321
v -0.00734552 -0.00970176 0.06407840
v -0.01522825 0.00564765 0.06268286
v -0.01265716 0.00767975 0.06337589
v -0.01069273 0.00633102 0.06408786
v -0.01325553 -0.00896530 0.06266606
v -0.01136491 -0.00498810 0.06405082
v -0.01590906 -0.00895225 0.06139664
v -0.01395689 0.00432288 0.06338206
v -0.01333934 0.00632206 0.06338451
v -0.01131720 -0.00896067 0.06335908
v -0.00802739 -0.00902488 0.06409271
v -0.01605170 -0.00968480 0.06105692
v -0.01518636 -0.00823981 0.06195640
v -0.01262457 -0.00697974 0.06336383
f 1 2 3
f 5 2 1
f 6 1 3
f 8 3 2
f 8 2 5
f 8 5 4
f 8 6 3
f 12 8 4
f 12 6 8
f 13 10 5
f 14 9 5
f 15 4 5
f 15 5 10
f 16 10 7
f 16 1 6
f 16 6 11
f 16 15 10
f 16 11 15
f 18 16 7
f 19 5 9
f 20 7 10
f 20 10 13
f 20 18 7
f 21 14 5
f 21 5 1
f 22 12 4
f 22 4 15
f 23 17 6
f 23 6 12
f 24 11 6
f 24 6 17
f 24 17 23
f 25 19 9
f 25 20 13
f 25 18 20
f 26 16 18
f 26 1 16
f 27 13 5
f 28 22 15
f 28 15 11
f 29 24 23
f 29 11 24
f 29 28 11
f 29 23 12
f 29 12 22
f 29 22 28
f 30 25 9
f 30 9 14
f 31 21 1
f 31 1 26
f 31 26 30
f 31 30 14
f 31 14 21
f 32 27 5
f 32 5 19
f 32 19 27
f 33 25 13
f 33 13 27
f 33 27 19
f 33 19 25
f 34 18 25
f 34 25 30
f 34 30 26
f 34 26 18

