# https://github.com/mikedh/trimesh
v 0.01568905 -0.01875746 0.05751597
v 0.01523288 -0.01825380 0.05819247
v 0.00134042 -0.01846334 0.06176462
v 0.00134680 -0.00985355 0.06415679
v 0.01562546 -0.00985328 0.05742082
v 0.01200699 -0.01241091 0.06271728
v 0.01199807 -0.01814679 0.06011338
v 0.01532776 -0.00972099 0.06149254
v 0.00135520 -0.01868725 0.05742082
v 0.00871504 -0.01239155 0.06339594
v 0.01448008 -0.01817376 0.05873998
v 0.00934314 -0.01823667 0.06070524
v 0.01515647 -0.01424761 0.06067688
v 0.00135520 -0.00985328 0.05742082
v 0.00124934 -0.01376540 0.06351242
v 0.01002439 -0.00981886 0.06352767
v 0.01001610 -0.01433404 0.06265117
v 0.01507891 -0.01677016 0.05929481
v 0.01445581 -0.01359967 0.06136303
v 0.00130189 -0.01768456 0.06216023
v 0.01001770 -0.01111282 0.06342436
v 0.01395190 -0.00984280 0.06211883
v 0.01135788 -0.01754042 0.06066688
v 0.01319477 -0.01748552 0.06001733
v 0.01513350 -0.01175835 0.06134373
v 0.01253806 -0.01429109 0.06197323
v 0.01258961 -0.01687901 0.06065868
v 0.01388339 -0.01179533 0.06201342
f 8 1 5
f 9 5 1
f 9 1 3
f 11 7 1
f 11 1 2
f 12 3 1
f 12 1 7
f 13 1 8
f 14 8 5
f 14 4 8
f 14 5 9
f 15 10 4
f 15 4 14
f 15 14 9
f 16 8 4
f 17 3 12
f 17 10 15
f 17 6 10
f 18 2 1
f 18 1 13
f 18 11 2
f 20 15 9
f 20 9 3
f 20 17 15
f 20 3 17
f 21 16 4
f 21 4 10
f 21 10 6
f 21 6 16
f 22 16 6
f 22 8 16
f 23 17 12
f 23 12 7
f 24 18 13
f 24 7 11
f 24 11 18
f 25 19 13
f 25 13 8
f 26 19 6
f 26 6 17
f 27 24 13
f 27 13 19
f 27 19 26
f 27 7 24
f 27 23 7
f 27 26 17
f 27 17 23
f 28 6 19
f 28 19 25
f 28 22 6
f 28 25 8
f 28 8 22

