# https://github.com/mikedh/trimesh
v 0.01902314 -0.00033977 0.03295751
v 0.01868028 -0.00031709 0.00298688
v 0.01902314 0.01732818 0.03295751
v 0.00135520 0.01732818 0.03295751
v 0.00135520 -0.00033977 0.03295751
v 0.00135556 0.01710877 0.00225498
v 0.01857137 0.01694271 0.00711480
v 0.00125143 -0.00025844 0.00008575
v 0.01265059 0.00834805 0.00121212
v 0.01143450 -0.00031721 0.00040172
v 0.01851948 0.00959862 0.00395535
v 0.01057961 0.01692125 0.00327857
v 0.00135684 0.01109451 0.00039071
v 0.01399668 0.00503340 0.00115366
v 0.01857913 0.01160375 0.00458470
v 0.00667588 0.01700997 0.00248773
v 0.00872712 0.00838565 0.00043996
v 0.01603044 -0.00031611 0.00169581
v 0.01724593 0.00567463 0.00249664
v 0.01859169 0.00567140 0.00320157
v 0.01590521 0.01360417 0.00394236
v 0.00602902 0.01367870 0.00118381
v 0.01075794 0.00505138 0.00043458
v 0.01405469 -0.00031976 0.00101916
v 0.01594625 0.00500417 0.00184934
v 0.01526711 0.01031362 0.00256613
v 0.01658892 0.00764734 0.00250894
v 0.01254572 0.01689658 0.00395614
v 0.01789101 0.01425240 0.00525383
v 0.00136409 0.01370444 0.00103958
v 0.00601006 0.01565332 0.00184347
v 0.00471051 0.01108905 0.00044999
v 0.00868250 0.01233977 0.00118027
v 0.01143054 0.00303285 0.00043032
v 0.01007997 0.00637978 0.00043251
v 0.01333744 0.00699314 0.00118725
v 0.01194147 0.01426480 0.00260225
v 0.01592104 0.01161211 0.00324238
v 0.01722601 0.00962040 0.00328489
v 0.01528628 0.00700282 0.00185581
v 0.01851719 0.01485414 0.00592757
v 0.01720355 0.01356660 0.00458894
v 0.01786583 0.01684071 0.00657257
v 0.00799328 0.01500253 0.00187865
v 0.00137380 0.01570716 0.00170853
v 0.00738475 0.00975245 0.00046630
v 0.01394907 0.00965097 0.00190117
v 0.01325674 0.01294362 0.00260313
v 0.01847012 0.01619012 0.00661439
v 0.00733236 0.01696996 0.00256885
v 0.00931216 0.01429654 0.00190262
f 1 2 3
f 1 3 4
f 5 1 4
f 6 4 3
f 7 6 3
f 7 3 2
f 8 5 4
f 8 4 6
f 10 5 8
f 13 8 6
f 15 7 2
f 16 6 7
f 16 7 12
f 17 8 13
f 19 2 18
f 20 15 2
f 20 11 15
f 20 2 19
f 24 14 18
f 24 18 2
f 24 2 1
f 24 1 5
f 24 5 10
f 25 19 18
f 25 18 14
f 27 20 19
f 27 11 20
f 28 12 7
f 29 21 28
f 30 13 6
f 31 6 16
f 32 17 13
f 32 30 22
f 32 13 30
f 33 9 17
f 33 32 22
f 34 10 8
f 34 8 23
f 34 23 14
f 34 24 10
f 34 14 24
f 35 23 8
f 35 8 17
f 35 17 9
f 36 14 23
f 36 35 9
f 36 23 35
f 37 28 21
f 37 12 28
f 38 21 15
f 39 27 26
f 39 11 27
f 39 26 38
f 39 38 15
f 39 15 11
f 40 27 19
f 40 19 25
f 40 25 14
f 40 14 36
f 41 7 15
f 41 15 29
f 42 29 15
f 42 15 21
f 42 21 29
f 43 29 28
f 43 28 7
f 43 41 29
f 44 33 22
f 44 22 31
f 45 30 6
f 45 6 31
f 45 31 22
f 45 22 30
f 46 33 17
f 46 17 32
f 46 32 33
f 47 9 33
f 47 26 27
f 47 27 40
f 47 40 36
f 47 36 9
f 48 37 21
f 48 21 38
f 48 38 26
f 48 26 47
f 48 47 33
f 48 33 37
f 49 43 7
f 49 7 41
f 49 41 43
f 50 16 12
f 50 12 44
f 50 44 31
f 50 31 16
f 51 37 33
f 51 33 44
f 51 44 12
f 51 12 37

