# https://github.com/mikedh/trimesh
v -0.02922394 -0.00849420 0.02684169
v -0.03046448 -0.00887331 0.01804215
v -0.02901201 0.01518565 0.01879761
v -0.03111474 0.01622382 0.02652658
v -0.03396921 -0.00562026 0.02691412
v -0.03327698 -0.00829342 0.02690357
v -0.03259983 0.01299572 0.02694601
v -0.03248197 0.00501406 0.01972409
v -0.03310952 -0.00689525 0.02363002
v -0.03166829 0.01516664 0.02687288
v -0.03105113 0.01355582 0.02177816
v -0.03329081 0.01100694 0.02695359
v -0.03177929 0.00762944 0.01908587
v -0.03310631 -0.00823771 0.02562588
v -0.03242406 -0.00363056 0.01973830
v -0.03202803 0.01435204 0.02691205
v -0.03044565 0.01585283 0.02304881
v -0.03384982 0.00435836 0.02364529
v -0.03239941 0.01160439 0.02367129
v -0.03179441 -0.00562335 0.01907609
v -0.03108544 0.01028324 0.01910411
v -0.03378411 -0.00558688 0.02563869
v -0.03172516 -0.00821434 0.02038255
v -0.03042820 0.01492409 0.02167859
v -0.03173615 0.01421686 0.02501986
v -0.03394757 0.00836877 0.02693576
v -0.03316205 -0.00097512 0.02100182
v -0.03311522 0.00831718 0.02300168
v -0.03309308 0.01094807 0.02562659
v -0.03039710 0.01224187 0.01909094
v -0.03172475 0.01093325 0.02107086
v -0.03386203 -0.00230069 0.02364837
v -0.03113102 -0.00827238 0.01904798
v -0.03247834 -0.00629624 0.02105399
v -0.03110021 0.01490143 0.02371633
v -0.03241287 0.01290715 0.02567248
v -0.03314932 0.00300124 0.02100586
v -0.03246932 0.00696643 0.02037021
v -0.03383964 0.00701241 0.02498380
v -0.03386202 0.00835371 0.02626751
v -0.02924199 0.01496522 0.01903171
v -0.03173177 0.01289976 0.02304626
v -0.03104318 0.01222913 0.02046562
v -0.03242144 0.01024718 0.02239323
v -0.03176166 0.00894385 0.01972929
v -0.03387082 -0.00361685 0.02427919
v -0.03314977 -0.00364012 0.02167061
v -0.03314045 0.00565856 0.02168651
v -0.03245575 0.00832342 0.02104215
v -0.03308775 -0.00627335 0.02302430
f 1 2 3
f 1 3 4
f 6 2 1
f 10 1 4
f 12 5 6
f 12 6 1
f 12 1 7
f 13 3 2
f 14 6 5
f 14 2 6
f 16 7 1
f 16 1 10
f 17 4 3
f 20 13 2
f 20 8 13
f 20 15 8
f 21 3 13
f 22 14 5
f 22 9 14
f 23 14 9
f 23 2 14
f 24 17 3
f 25 10 4
f 25 16 10
f 26 5 12
f 27 8 15
f 29 12 7
f 29 19 28
f 30 3 21
f 32 18 27
f 32 26 18
f 32 5 26
f 33 23 20
f 33 20 2
f 33 2 23
f 34 23 9
f 34 15 20
f 34 20 23
f 35 24 11
f 35 17 24
f 35 25 4
f 35 4 17
f 36 7 16
f 36 16 25
f 36 29 7
f 36 25 19
f 36 19 29
f 37 27 18
f 37 8 27
f 38 13 8
f 39 18 26
f 40 26 12
f 40 12 29
f 40 39 26
f 40 29 28
f 40 28 39
f 41 24 3
f 41 3 30
f 42 31 19
f 42 11 31
f 42 35 11
f 42 19 25
f 42 25 35
f 43 30 21
f 43 21 31
f 43 31 11
f 43 41 30
f 43 11 24
f 43 24 41
f 44 28 19
f 44 19 31
f 45 31 21
f 45 21 13
f 46 22 5
f 46 5 32
f 46 9 22
f 47 32 27
f 47 27 15
f 47 15 34
f 47 46 32
f 48 28 38
f 48 39 28
f 48 18 39
f 48 37 18
f 48 38 8
f 48 8 37
f 49 44 31
f 49 31 45
f 49 28 44
f 49 38 28
f 49 45 13
f 49 13 38
f 50 47 34
f 50 34 9
f 50 9 46
f 50 46 47

