# https://github.com/mikedh/trimesh
v -0.02514672 -0.00033977 0.03363705
v -0.02514672 -0.00033977 0.02684169
v -0.02514672 0.00713513 0.02684169
v -0.03447549 0.00710352 0.03362406
v -0.03489061 -0.00030541 0.03360619
v -0.02514672 0.00713513 0.03363705
v -0.03463767 -0.00030329 0.02693471
v -0.02582626 0.00713513 0.02684169
v -0.03457872 0.00635664 0.02962419
v -0.03417347 0.00705326 0.02691105
v -0.03460081 0.00635123 0.03358424
v -0.03452815 0.00433192 0.02696607
v -0.03454308 0.00569419 0.02827659
f 1 2 3
f 5 2 1
f 5 1 4
f 6 1 3
f 6 4 1
f 7 2 5
f 8 6 3
f 8 4 6
f 8 3 2
f 10 8 2
f 10 2 7
f 10 9 4
f 10 4 8
f 11 9 5
f 11 5 4
f 11 4 9
f 12 10 7
f 12 7 5
f 12 5 9
f 13 12 9
f 13 9 10
f 13 10 12

