{"scene":0,"scenes":[{"nodes":[0]}],"asset":{"version":"2.0","generator":"https://github.com/mikedh/trimesh"},"accessors":[{"componentType":5125,"type":"SCALAR","bufferView":0,"count":29202,"max":[29195],"min":[0]},{"componentType":5126,"type":"VEC3","byteOffset":0,"bufferView":1,"count":29196,"max":[0.03500000014901161,0.06560412794351578,0.03533589094877243],"min":[-0.03500000014901161,0.0,-0.03533589094877243]},{"componentType":5126,"type":"VEC2","byteOffset":0,"bufferView":3,"count":29196,"max":[0.9995652437210083,0.9995853900909424],"min":[0.00043478261795826256,0.0004146099090576172]}],"meshes":[{"name":"geometry_0.002","extras":{"units":"meters","from_gltf_primitive":false,"name":"geometry_0.002","node":"geometry_0.001"},"primitives":[{"attributes":{"POSITION":1,"TEXCOORD_0":2},"indices":0,"mode":4,"material":0}]}],"images":[{"bufferView":2,"mimeType":"image/png"}],"textures":[{"source":0}],"materials":[{"pbrMetallicRoughness":{"baseColorTexture":{"index":0}},"name":"Material_0.002","doubleSided":false}],"nodes":[{"name":"world","children":[1]},{"name":"geometry_0.002","mesh":0}],"buffers":[{"uri":"gltf_buffer_0.bin","byteLength":116808},{"uri":"gltf_buffer_1.bin","byteLength":350352},{"uri":"gltf_buffer_2.bin","byteLength":1001228},{"uri":"gltf_buffer_3.bin","byteLength":233568}],"bufferViews":[{"buffer":0,"byteOffset":0,"byteLength":116808},{"buffer":1,"byteOffset":0,"byteLength":350352},{"buffer":2,"byteOffset":0,"byteLength":1001228},{"buffer":3,"byteOffset":0,"byteLength":233568}]}