# https://github.com/mikedh/trimesh
v -0.01631275 -0.01461003 0.01121235
v -0.01608390 -0.01442130 0.00549251
v -0.01597613 0.01831417 0.00701680
v -0.01627550 0.01932664 0.00787486
v -0.02370391 0.01523899 0.01129320
v -0.01631275 0.01528957 0.01121235
v -0.01599070 -0.01165660 0.00435691
v -0.02354507 -0.01446858 0.01143738
v -0.01979639 0.01553455 0.00799382
v -0.01604544 0.01907868 0.00756712
v -0.01681268 0.01917320 0.00810493
v -0.02177766 -0.01092948 0.00793410
v -0.01603058 0.00704889 0.00297391
v -0.02178973 0.01489064 0.00926895
v -0.01779745 0.01682762 0.00730091
v -0.01908390 -0.01420890 0.00729216
v -0.02319465 -0.00361786 0.00721706
v -0.01596815 0.01433848 0.00505549
v -0.01983232 0.00830458 0.00527179
v -0.01646664 0.01819610 0.00724680
v -0.01719182 -0.01027386 0.00458756
v -0.01650740 -0.01161388 0.00460930
v -0.02043775 -0.01352602 0.00797867
v -0.02307664 -0.00958698 0.00856279
v -0.01600761 -0.00567797 0.00298203
v -0.01778977 0.01554969 0.00663258
v -0.02178825 0.01026809 0.00723210
v -0.01859494 0.00366836 0.00388049
v -0.01789870 0.01027831 0.00464306
v -0.02116492 -0.00828401 0.00661738
v -0.01659039 -0.01431042 0.00574447
v -0.01603246 -0.00902193 0.00362259
v -0.02326052 -0.01429857 0.01102523
v -0.02315960 -0.00697754 0.00786965
v -0.02176835 0.01221259 0.00796467
v -0.02313428 0.00564945 0.00720989
v -0.01789380 0.00699977 0.00387770
v -0.01855456 -0.00097725 0.00385909
v -0.01602096 0.01237167 0.00434706
v -0.01786446 0.01224959 0.00528240
v -0.02177489 -0.00892407 0.00726130
v -0.01852050 -0.00696339 0.00459355
v -0.02314967 -0.01356425 0.01044308
v -0.02188834 -0.00564095 0.00654369
v -0.02308981 0.01089810 0.00856176
v -0.02115845 0.00697688 0.00588549
v -0.02190170 0.00102149 0.00588015
v -0.01723768 0.00435383 0.00322140
v -0.01726148 0.00896684 0.00396385
v -0.01650843 0.01423188 0.00530188
v -0.01658400 0.01229192 0.00459043
v -0.01914896 0.01358301 0.00660227
v -0.01717066 -0.00761468 0.00392615
v -0.01921679 -0.00430454 0.00457464
v -0.01915301 -0.00829503 0.00525397
v -0.02315382 0.01488039 0.01050320
v -0.02311990 0.00893757 0.00791461
v -0.01924023 0.00634757 0.00453917
v -0.02251918 0.00432736 0.00653019
v -0.01658764 0.00701146 0.00323242
v -0.01724926 -0.00166161 0.00318378
v -0.01652410 -0.00898692 0.00386902
v -0.01654084 -0.00562857 0.00324660
v -0.02053789 -0.00296961 0.00523121
f 6 1 3
f 7 1 2
f 7 3 1
f 8 2 1
f 8 6 5
f 8 1 6
f 10 6 3
f 10 4 6
f 11 6 4
f 11 5 6
f 11 10 3
f 11 4 10
f 14 11 9
f 15 9 11
f 16 2 8
f 17 8 5
f 18 3 7
f 20 15 11
f 20 11 3
f 20 3 15
f 21 16 12
f 22 7 2
f 22 16 21
f 23 12 16
f 25 18 7
f 25 13 18
f 26 15 3
f 26 3 18
f 26 9 15
f 29 19 27
f 30 21 12
f 31 22 2
f 31 2 16
f 31 16 22
f 32 7 22
f 32 25 7
f 33 23 16
f 33 16 8
f 34 24 8
f 34 8 17
f 35 14 9
f 36 17 5
f 39 18 13
f 40 29 27
f 41 30 12
f 41 12 24
f 41 34 30
f 41 24 34
f 43 12 23
f 43 23 33
f 43 24 12
f 43 33 8
f 43 8 24
f 44 34 17
f 44 30 34
f 45 35 27
f 46 27 19
f 47 28 38
f 48 28 37
f 49 39 13
f 49 37 19
f 49 19 29
f 50 26 18
f 51 29 40
f 51 49 29
f 51 39 49
f 51 40 50
f 51 50 18
f 51 18 39
f 52 40 27
f 52 27 35
f 52 35 9
f 52 9 26
f 52 50 40
f 52 26 50
f 53 25 32
f 54 42 44
f 55 21 30
f 55 44 42
f 55 30 44
f 55 42 53
f 56 45 5
f 56 14 35
f 56 35 45
f 56 5 11
f 56 11 14
f 57 36 5
f 57 5 45
f 57 45 27
f 57 46 36
f 57 27 46
f 58 37 28
f 58 46 19
f 58 19 37
f 59 47 17
f 59 17 36
f 59 36 46
f 59 46 58
f 59 58 28
f 59 28 47
f 60 48 37
f 60 13 48
f 60 49 13
f 60 37 49
f 61 38 28
f 61 28 48
f 61 54 38
f 61 48 13
f 61 13 25
f 62 53 32
f 62 55 53
f 62 21 55
f 62 32 22
f 62 22 21
f 63 53 42
f 63 42 54
f 63 25 53
f 63 61 25
f 63 54 61
f 64 47 38
f 64 38 54
f 64 17 47
f 64 54 44
f 64 44 17

