# https://github.com/mikedh/trimesh
v 0.01866235 -0.01836039 0.05563497
v 0.03379257 -0.00764630 0.02495753
v 0.03176201 -0.00498115 0.04550309
v 0.01881271 0.01712480 0.05582810
v 0.01871260 0.00769140 0.00358151
v 0.03043285 0.01622901 0.03355585
v 0.02050665 0.00153853 0.06072921
v 0.02974673 -0.01824402 0.03821113
v 0.01861605 0.01497988 0.05762938
v 0.03456245 0.00364271 0.03355612
v 0.02901592 0.00958157 0.04810523
v 0.01881819 0.01715639 0.00741172
v 0.02435905 -0.00827727 0.05604401
v 0.03379734 -0.00832997 0.03690307
v 0.01878483 -0.01846216 0.00879958
v 0.01862511 -0.01697885 0.00771614
v 0.01875003 -0.00500298 0.06163737
v 0.02769259 0.01682494 0.04350043
v 0.03238312 0.00956184 0.03885162
v 0.02370476 0.01281750 0.05404379
v 0.02775430 0.00296952 0.05277697
v 0.01872169 0.01639143 0.00689546
v 0.03103357 0.01022397 0.01899663
v 0.02769209 -0.01485641 0.04810288
v 0.03245435 -0.01358357 0.02895480
v 0.03385197 0.00029021 0.03957232
v 0.03457277 -0.00632374 0.02893215
v 0.01861719 -0.01765009 0.05619520
v 0.02771912 -0.00627130 0.01117041
v 0.01872018 0.00902636 0.06036830
v 0.02176514 -0.00561211 0.05941510
v 0.02974194 0.01686732 0.02492801
v 0.03313536 0.00957499 0.03488854
v 0.02969777 0.01350066 0.04285703
v 0.02236539 0.01408399 0.05468930
v 0.02630648 0.01413071 0.04941526
v 0.02773686 -0.00435276 0.05277203
v 0.02638685 0.00755128 0.05338856
v 0.01869889 0.01235161 0.00495806
v 0.02633651 0.01092047 0.01117453
v 0.03172046 -0.00960600 0.04349001
v 0.02574479 -0.01817765 0.04807224
v 0.03247332 -0.01360110 0.03489931
v 0.02907429 -0.01818166 0.02303439
v 0.03455462 -0.00303908 0.03621259
v 0.03379514 0.00494553 0.03752704
v 0.03179485 0.00161713 0.04550565
v 0.03384504 0.00230229 0.02293674
v 0.03380275 -0.00961899 0.02828244
v 0.01867442 -0.01097152 0.05952664
v 0.01924256 -0.00564739 0.00385551
v 0.02505783 -0.01482026 0.01191314
v 0.01874934 0.00227819 0.06161717
v 0.02046782 -0.00426303 0.06068697
v 0.02641619 0.00098862 0.05480784
v 0.02974772 0.01683937 0.03619661
v 0.03179488 0.01356799 0.02891101
v 0.03102156 0.00954907 0.04352135
v 0.01970469 0.01675095 0.05533188
v 0.02040936 0.01018934 0.05867306
v 0.02367721 0.01541918 0.05204600
v 0.02831046 0.01482197 0.04479230
v 0.02769190 -0.01090534 0.05071694
v 0.02372948 -0.00567271 0.05745875
f 15 8 1
f 16 15 1
f 22 9 4
f 22 4 12
f 28 16 1
f 28 9 16
f 32 12 4
f 38 21 11
f 38 36 20
f 38 11 36
f 39 16 9
f 39 9 22
f 39 5 16
f 40 22 12
f 40 32 23
f 40 12 32
f 40 39 22
f 40 5 39
f 40 29 5
f 40 23 29
f 41 14 3
f 41 24 8
f 42 1 8
f 42 8 24
f 42 28 1
f 43 8 25
f 43 41 8
f 43 14 41
f 44 25 8
f 44 8 15
f 44 2 25
f 45 10 26
f 45 27 10
f 45 14 27
f 45 26 3
f 45 3 14
f 46 26 10
f 46 33 19
f 46 10 33
f 47 3 26
f 47 37 3
f 47 21 37
f 47 11 21
f 47 26 46
f 48 10 27
f 48 27 2
f 48 29 23
f 48 2 29
f 49 25 2
f 49 2 27
f 49 43 25
f 49 27 14
f 49 14 43
f 50 9 28
f 50 31 17
f 50 28 13
f 50 13 31
f 51 16 5
f 51 5 29
f 52 15 16
f 52 51 29
f 52 16 51
f 52 44 15
f 52 29 2
f 52 2 44
f 53 17 7
f 53 7 30
f 53 30 9
f 53 50 17
f 53 9 50
f 54 31 7
f 54 7 17
f 54 17 31
f 55 38 7
f 55 21 38
f 55 37 21
f 56 32 4
f 56 4 18
f 56 6 32
f 56 18 34
f 56 34 19
f 56 33 6
f 56 19 33
f 57 32 6
f 57 6 33
f 57 23 32
f 57 48 23
f 57 33 10
f 57 10 48
f 58 34 11
f 58 19 34
f 58 11 47
f 58 47 46
f 58 46 19
f 59 4 9
f 59 9 35
f 59 18 4
f 60 20 35
f 60 38 20
f 60 30 7
f 60 7 38
f 60 35 9
f 60 9 30
f 61 35 20
f 61 20 36
f 61 59 35
f 61 36 18
f 61 18 59
f 62 34 18
f 62 18 36
f 62 36 11
f 62 11 34
f 63 37 13
f 63 24 41
f 63 41 3
f 63 3 37
f 63 42 24
f 63 13 28
f 63 28 42
f 64 31 13
f 64 13 37
f 64 37 55
f 64 55 7
f 64 7 31

