# https://github.com/mikedh/trimesh
v -0.02378765 0.01528957 0.02752122
v -0.02378765 0.01528957 0.02004632
v -0.02378765 0.01868725 0.02684169
v -0.03012631 0.01844029 0.02754897
v -0.03173205 0.01519527 0.02754516
v -0.02378765 0.01868725 0.02004632
v -0.02378765 0.01868725 0.02752122
v -0.03060281 0.01498540 0.02229834
v -0.03056322 0.01763701 0.02758345
v -0.03135912 0.01502107 0.02494773
v -0.02966498 0.01518400 0.02014886
v -0.03122948 0.01631263 0.02757555
v -0.02976935 0.01824340 0.02498684
v -0.03006397 0.01505983 0.02094902
v -0.03107883 0.01622210 0.02630601
v -0.03040949 0.01754759 0.02630842
v -0.03036496 0.01555528 0.02237528
v -0.02802706 0.01837344 0.02031147
v -0.03111340 0.01558744 0.02500871
v -0.02903118 0.01816285 0.02239743
v -0.02984104 0.01560544 0.02103232
v -0.02845224 0.01822858 0.02103624
v -0.02922113 0.01627643 0.02035663
v -0.02850056 0.01761324 0.02037529
f 1 2 3
f 6 3 2
f 6 4 3
f 7 1 3
f 7 3 4
f 8 2 1
f 9 7 4
f 9 1 7
f 10 8 1
f 10 1 5
f 11 6 2
f 12 5 1
f 12 1 9
f 14 11 2
f 14 2 8
f 15 10 5
f 15 5 12
f 15 12 9
f 16 9 4
f 16 4 13
f 16 15 9
f 16 13 15
f 17 8 10
f 18 13 4
f 18 4 6
f 18 6 11
f 19 15 13
f 19 10 15
f 19 17 10
f 19 13 17
f 20 17 13
f 20 13 18
f 21 17 20
f 21 14 8
f 21 8 17
f 21 11 14
f 22 20 18
f 23 21 20
f 23 20 22
f 23 11 21
f 24 23 22
f 24 22 18
f 24 18 11
f 24 11 23

