# https://github.com/mikedh/trimesh
v -0.01625987 0.01524283 0.05869653
v -0.01714821 0.01596589 0.00644644
v -0.01596727 0.02029015 0.00835793
v -0.01601976 0.03098518 0.03824972
v -0.03173205 0.01519527 0.02754516
v -0.01597516 0.01628261 0.05822641
v -0.02061770 0.01500737 0.00836274
v -0.02108375 0.02738188 0.02238161
v -0.01595215 0.02691369 0.04755214
v -0.02905125 0.01553058 0.04408453
v -0.01729166 0.01494263 0.05820285
v -0.01910066 0.01748490 0.00862019
v -0.02643729 0.02346274 0.03621418
v -0.01600572 0.03024618 0.02165908
v -0.02635757 0.01944957 0.01847701
v -0.01595385 0.01830099 0.05688077
v -0.03131892 0.01499760 0.03823932
v -0.01651497 0.01613111 0.05799734
v -0.02048967 0.01553542 0.00853345
v -0.02708988 0.02278552 0.02631499
v -0.02118850 0.02879232 0.03290366
v -0.02439404 0.02144369 0.04541998
v -0.01652139 0.02606011 0.01449442
v -0.01597560 0.02627857 0.01434302
v -0.02729307 0.01500139 0.01564787
v -0.02660504 0.01496637 0.04887257
v -0.02843075 0.02153717 0.03287492
v -0.02969381 0.01752269 0.03951161
v -0.02039021 0.01676784 0.05463771
v -0.02906413 0.01888189 0.02372646
v -0.02436028 0.02408962 0.02172746
v -0.02177558 0.02672229 0.04009392
v -0.02182060 0.02806970 0.02701911
v -0.01605047 0.03171267 0.02956995
v -0.01909263 0.02738881 0.01917130
v -0.01779820 0.02142446 0.01058025
v -0.02924199 0.01496522 0.01903171
v -0.02369091 0.01619682 0.01189601
v -0.02924954 0.01498228 0.04421919
v -0.02568777 0.01877187 0.04667951
v -0.03112488 0.01690573 0.03227216
v -0.02909374 0.02024947 0.02763407
v -0.02842302 0.02153286 0.02895124
v -0.02184284 0.02812551 0.03489121
v -0.03034410 0.01555077 0.04081875
v -0.03041405 0.01754310 0.03620040
v -0.02640892 0.02209425 0.04013154
v -0.01909372 0.01741972 0.05527292
v -0.02461674 0.01494916 0.05154998
v -0.02636609 0.02210553 0.02242245
v -0.01982129 0.02604509 0.04472908
v -0.02308967 0.02676445 0.02565956
v -0.01787628 0.03008572 0.02430707
v -0.01791107 0.03078803 0.03225561
v -0.01784883 0.02934237 0.02170597
v -0.01650302 0.02743577 0.01646967
v -0.02305879 0.02472358 0.02043996
v -0.01646811 0.02013784 0.00857967
v -0.01710659 0.02276912 0.01127565
v -0.02901571 0.01616437 0.01977051
v -0.02590361 0.01499007 0.01371128
v -0.01923902 0.01491979 0.05682108
v -0.02240895 0.01616357 0.01058496
v -0.02369133 0.02011247 0.01518026
f 6 1 2
f 6 2 3
f 11 7 2
f 11 2 1
f 14 4 9
f 16 6 3
f 16 3 9
f 18 11 1
f 18 1 6
f 18 6 16
f 19 12 2
f 19 2 7
f 24 14 9
f 24 9 3
f 34 4 14
f 37 17 5
f 39 26 10
f 39 17 37
f 40 10 26
f 40 29 22
f 41 5 17
f 42 5 41
f 42 30 5
f 42 20 30
f 43 27 21
f 43 20 42
f 43 42 41
f 43 41 27
f 43 21 33
f 44 27 13
f 44 21 27
f 44 13 32
f 44 32 4
f 45 28 17
f 45 10 28
f 45 39 10
f 45 17 39
f 46 17 28
f 46 41 17
f 46 27 41
f 46 28 13
f 46 13 27
f 47 13 28
f 47 32 13
f 47 22 32
f 47 40 22
f 47 28 10
f 47 10 40
f 48 18 16
f 48 16 9
f 48 22 29
f 49 39 37
f 49 26 39
f 49 40 26
f 49 29 40
f 50 30 20
f 50 20 31
f 50 31 15
f 50 15 30
f 51 32 22
f 51 9 4
f 51 4 32
f 51 48 9
f 51 22 48
f 52 31 20
f 52 43 33
f 52 20 43
f 52 33 8
f 52 8 31
f 53 8 33
f 53 34 14
f 53 33 34
f 54 4 34
f 54 44 4
f 54 21 44
f 54 34 33
f 54 33 21
f 55 35 8
f 55 53 14
f 55 8 53
f 56 24 23
f 56 23 35
f 56 14 24
f 56 55 14
f 56 35 55
f 57 31 8
f 57 8 35
f 57 15 31
f 58 36 3
f 58 12 36
f 58 3 2
f 58 2 12
f 59 24 3
f 59 3 36
f 59 23 24
f 60 37 5
f 60 5 30
f 60 30 15
f 60 15 25
f 60 25 37
f 61 37 25
f 61 7 37
f 62 37 7
f 62 7 11
f 62 49 37
f 62 29 49
f 62 48 29
f 62 11 18
f 62 18 48
f 63 19 7
f 63 61 38
f 63 7 61
f 63 12 19
f 63 36 12
f 64 63 38
f 64 36 63
f 64 15 57
f 64 59 36
f 64 23 59
f 64 57 35
f 64 35 23
f 64 38 61
f 64 61 25
f 64 25 15

