# https://github.com/mikedh/trimesh
v 0.00136179 -0.03430751 0.03959041
v 0.00133574 -0.03500249 0.02693340
v 0.00135520 -0.02752122 0.02684169
v -0.01610042 -0.02717386 0.04568650
v -0.00990166 -0.03350888 0.03224591
v 0.00135520 -0.02752122 0.04858685
v -0.00394158 -0.03489247 0.03357113
v -0.01754691 -0.02947011 0.02657624
v -0.01342699 -0.02720268 0.04838820
v -0.00660748 -0.03424117 0.02694890
v 0.00134972 -0.03494326 0.03626358
v -0.01582103 -0.03004593 0.03821556
v 0.00133598 -0.03104898 0.04827320
v -0.00724906 -0.03416278 0.02760187
v -0.00397428 -0.03489379 0.02828027
v -0.00267710 -0.03490568 0.02694709
v -0.00195754 -0.03491757 0.03557792
v -0.01582420 -0.03076046 0.03356168
v -0.01580833 -0.02937205 0.04083544
v -0.00723265 -0.03205547 0.04352636
v 0.00135069 -0.03149541 0.04747739
v -0.00726536 -0.03415229 0.03423522
v -0.01323076 -0.03212799 0.02894181
v -0.00065309 -0.03490487 0.03624501
v -0.01254512 -0.03211402 0.03622646
v -0.00656952 -0.03014859 0.04812076
v -0.01181491 -0.03070233 0.04284364
v -0.00460980 -0.03347708 0.04090732
v -0.00395017 -0.03422847 0.03825864
v -0.00992307 -0.03349820 0.03026595
v -0.01122271 -0.03278502 0.02692268
v -0.01585064 -0.03078026 0.02960356
v -0.01319256 -0.03211784 0.03356314
v -0.01384994 -0.03138685 0.03687411
v -0.00923402 -0.03344696 0.03554650
v -0.00393556 -0.03072949 0.04812630
v -0.01380410 -0.02867495 0.04540502
v -0.00987857 -0.03070207 0.04482645
v -0.00196894 -0.03280640 0.04422607
v -0.00662624 -0.03416247 0.03554941
v -0.00196129 -0.03420871 0.03954296
v -0.01524263 -0.03090741 0.02690895
v -0.00925840 -0.03350929 0.02691919
v -0.01123739 -0.03281450 0.03491375
v -0.01452653 -0.03142403 0.03422286
v -0.01252458 -0.03143082 0.03951999
v -0.00990237 -0.03276076 0.03821189
v -0.00063179 -0.03146925 0.04745811
v -0.00393590 -0.03143822 0.04678573
v -0.01577139 -0.02869957 0.04281158
v -0.01052826 -0.03205581 0.04018498
v -0.00787298 -0.03136140 0.04482151
v -0.01053435 -0.02878095 0.04812059
v 0.00133383 -0.03291519 0.04425019
v -0.00394426 -0.03278488 0.04352664
v -0.00329662 -0.03419456 0.03887950
v -0.01603221 -0.03044764 0.02690302
v -0.01453412 -0.03142851 0.02827673
v -0.01381586 -0.03002561 0.04214205
v -0.01055807 -0.03281695 0.03687542
v -0.00860697 -0.03343490 0.03688286
v -0.00329282 -0.03211570 0.04550323
v -0.01584849 -0.02744126 0.04547032
v -0.00918761 -0.03002746 0.04678997
f 1 2 3
f 6 1 3
f 8 3 2
f 8 4 3
f 9 6 3
f 9 3 4
f 11 2 1
f 13 6 9
f 15 2 7
f 15 14 10
f 16 10 8
f 16 8 2
f 16 15 10
f 16 2 15
f 17 7 2
f 17 2 11
f 18 12 8
f 19 4 8
f 19 8 12
f 21 1 6
f 21 6 13
f 22 5 14
f 22 15 7
f 22 14 15
f 24 17 11
f 24 11 1
f 29 7 17
f 30 14 5
f 30 5 23
f 31 30 23
f 32 18 8
f 33 23 5
f 33 32 23
f 33 18 32
f 35 5 22
f 36 13 9
f 36 9 26
f 37 9 4
f 38 37 27
f 40 22 7
f 40 7 29
f 40 35 22
f 41 17 24
f 41 24 1
f 42 8 31
f 43 31 8
f 43 8 10
f 43 10 14
f 43 14 30
f 43 30 31
f 44 33 5
f 44 25 33
f 44 5 35
f 45 34 12
f 45 12 18
f 45 18 33
f 45 33 25
f 45 25 34
f 46 19 12
f 46 12 34
f 46 34 25
f 47 28 20
f 48 21 13
f 48 13 36
f 49 36 26
f 49 48 36
f 50 4 19
f 51 38 27
f 51 20 38
f 51 47 20
f 51 27 46
f 52 38 20
f 52 49 26
f 52 20 49
f 53 26 9
f 53 9 37
f 53 37 38
f 54 1 21
f 54 48 39
f 54 21 48
f 54 41 1
f 54 39 41
f 55 20 28
f 55 41 39
f 55 28 41
f 56 29 17
f 56 17 41
f 56 41 28
f 56 28 29
f 57 42 32
f 57 32 8
f 57 8 42
f 58 23 32
f 58 32 42
f 58 42 31
f 58 31 23
f 59 46 27
f 59 19 46
f 59 50 19
f 59 27 37
f 59 37 50
f 60 46 25
f 60 25 44
f 60 44 35
f 60 51 46
f 60 47 51
f 61 35 40
f 61 40 29
f 61 29 28
f 61 28 47
f 61 60 35
f 61 47 60
f 62 39 48
f 62 48 49
f 62 55 39
f 62 49 20
f 62 20 55
f 63 50 37
f 63 37 4
f 63 4 50
f 64 52 26
f 64 38 52
f 64 53 38
f 64 26 53

