{"scene":0,"scenes":[{"nodes":[0]}],"asset":{"version":"2.0","generator":"https://github.com/mikedh/trimesh"},"accessors":[{"componentType":5125,"type":"SCALAR","bufferView":0,"count":96,"max":[15],"min":[0]},{"componentType":5126,"type":"VEC3","byteOffset":0,"bufferView":1,"count":16,"max":[0.02500000037252903,0.6499999761581421,0.6000000238418579],"min":[-0.02500000037252903,-0.6499999761581421,-0.6000000238418579]},{"componentType":5125,"type":"SCALAR","bufferView":2,"count":36,"max":[7],"min":[0]},{"componentType":5126,"type":"VEC3","byteOffset":0,"bufferView":3,"count":8,"max":[0.004999999888241291,0.6000000238418579,0.550000011920929],"min":[-0.004999999888241291,-0.6000000238418579,-0.550000011920929]}],"meshes":[{"name":"frame","extras":{"processed":true},"primitives":[{"attributes":{"POSITION":1},"indices":0,"mode":4,"material":0}]},{"name":"glass","extras":{"shape":"box","extents":[1.0999999999999999,0.01,1.2]},"primitives":[{"attributes":{"POSITION":3},"indices":2,"mode":4,"material":1}]}],"materials":[{"pbrMetallicRoughness":{"baseColorFactor":[0.2980392156862745,0.25098039215686274,0.2,1.0],"roughnessFactor":0.6,"metallicFactor":0.0},"name":"window_frame","doubleSided":false},{"pbrMetallicRoughness":{"baseColorFactor":[0.9019607843137255,0.9490196078431372,0.9490196078431372,0.12156862745098039],"roughnessFactor":0.02,"metallicFactor":0.0},"name":"window_glass","alphaMode":"BLEND","doubleSided":true}],"nodes":[{"name":"world","children":[1,2]},{"name":"frame","mesh":0},{"name":"glass","mesh":1}],"buffers":[{"uri":"gltf_buffer_0.bin","byteLength":384},{"uri":"gltf_buffer_1.bin","byteLength":192},{"uri":"gltf_buffer_2.bin","byteLength":144},{"uri":"gltf_buffer_3.bin","byteLength":96}],"bufferViews":[{"buffer":0,"byteOffset":0,"byteLength":384},{"buffer":1,"byteOffset":0,"byteLength":192},{"buffer":2,"byteOffset":0,"byteLength":144},{"buffer":3,"byteOffset":0,"byteLength":96}]}