# https://github.com/mikedh/trimesh
v 0.01522436 0.02718761 0.04621481
v 0.01673583 0.02911355 0.05170939
v -0.01456700 0.02718761 0.05079809
v -0.00603468 0.03621754 0.04681525
v 0.01177605 0.03400609 0.04603240
v -0.00526210 0.03539321 0.05050516
v -0.01456700 0.02718761 0.04621481
v 0.01499893 0.03219978 0.04614678
v -0.01409634 0.03246668 0.05051043
v 0.00366605 0.03638228 0.04607464
v 0.01324308 0.03324908 0.04603787
v -0.00892975 0.03462473 0.05048310
v -0.01428164 0.03351353 0.04610432
v -0.00305290 0.03621087 0.04826632
v 0.00654696 0.03463307 0.05048594
v 0.01316466 0.03227859 0.04966745
v -0.00674567 0.03537601 0.04976142
v -0.00605362 0.03634912 0.04607525
v -0.01339670 0.03397724 0.04604113
v -0.00528113 0.03615521 0.04752625
v 0.00213768 0.03544505 0.05051380
v 0.00739102 0.03562001 0.04607745
v 0.01318212 0.03312175 0.04676233
v 0.01466826 0.03162845 0.04897096
v 0.01096091 0.03309300 0.05041634
v -0.00965487 0.03534671 0.04679864
v -0.00971347 0.03547011 0.04604750
v -0.01405693 0.03314427 0.04826160
v 0.00434075 0.03536243 0.04975088
v 0.00065781 0.03619645 0.04827469
v 0.01098588 0.03382752 0.04819994
v 0.01479362 0.03100631 0.05052072
v 0.01387579 0.03234512 0.04824716
v -0.01333787 0.03385431 0.04677987
v -0.01185530 0.03379585 0.04974379
v 0.00290093 0.03617783 0.04754184
v 0.00365743 0.03624082 0.04679475
v 0.00734653 0.03548361 0.04675813
v 0.01171245 0.03387326 0.04676674
v 0.01166021 0.03304383 0.04966711
v 0.00953386 0.03460704 0.04750630
v 0.01388547 0.03157934 0.05042847
v -0.01331960 0.03311367 0.04974258
v -0.01114788 0.03385285 0.05048182
v -0.01037587 0.03458265 0.04898357
f 1 2 3
f 7 1 3
f 8 2 1
f 9 3 2
f 11 1 7
f 11 8 1
f 12 9 2
f 12 2 6
f 13 7 3
f 13 3 9
f 17 12 6
f 18 14 10
f 19 11 7
f 19 7 13
f 19 5 11
f 20 6 14
f 20 17 6
f 20 4 17
f 20 18 4
f 20 14 18
f 21 6 2
f 21 2 15
f 21 14 6
f 22 5 10
f 23 11 5
f 23 8 11
f 24 2 8
f 25 15 2
f 26 17 4
f 26 12 17
f 26 4 18
f 27 18 10
f 27 10 5
f 27 5 19
f 27 26 18
f 27 19 26
f 28 13 9
f 29 21 15
f 30 10 14
f 30 14 21
f 32 24 16
f 32 2 24
f 33 16 24
f 33 24 8
f 33 8 23
f 34 19 13
f 34 13 28
f 34 26 19
f 36 21 29
f 36 30 21
f 36 10 30
f 37 22 10
f 37 36 29
f 37 10 36
f 38 29 15
f 38 37 29
f 38 22 37
f 39 23 5
f 39 33 23
f 39 31 33
f 40 31 25
f 40 25 16
f 40 33 31
f 40 16 33
f 41 15 25
f 41 25 31
f 41 38 15
f 41 22 38
f 41 31 39
f 41 39 5
f 41 5 22
f 42 25 2
f 42 2 32
f 42 32 16
f 42 16 25
f 43 28 9
f 43 35 34
f 43 34 28
f 44 9 12
f 44 43 9
f 44 35 43
f 45 26 34
f 45 34 35
f 45 35 44
f 45 44 12
f 45 12 26

