# https://github.com/mikedh/trimesh
v 0.00071062 0.02718761 0.02635390
v 0.00071062 0.02718761 0.02024285
v 0.00066075 0.03643250 0.02649548
v -0.00822376 0.03550083 0.02652736
v -0.01456700 0.02718761 0.02635390
v -0.00448149 0.03460819 0.02060016
v -0.01044377 0.03479161 0.02653242
v 0.00066181 0.03478770 0.02051309
v -0.00374480 0.03619448 0.02579735
v -0.01610777 0.02936009 0.01915519
v -0.00377578 0.03634381 0.02651768
v -0.00816487 0.03380842 0.02059761
v -0.00524784 0.03541169 0.02355044
v -0.00376833 0.03541374 0.02281024
v -0.01438184 0.03296524 0.02643738
v -0.00742752 0.03537330 0.02506967
v -0.00599195 0.03460039 0.02132549
v 0.00066180 0.03550001 0.02278761
v -0.01348817 0.03344612 0.02649031
v -0.00889541 0.03457758 0.02361557
v 0.00065815 0.03627480 0.02577561
v -0.01335072 0.03168240 0.02055690
v -0.00818751 0.03535888 0.02583713
v -0.01186373 0.03386615 0.02507342
v -0.01037410 0.03307146 0.02058830
v -0.01403354 0.03236601 0.02357551
v -0.01039012 0.03464393 0.02581173
v -0.01037232 0.03383154 0.02284283
v -0.01419718 0.03117231 0.02047775
v -0.01334571 0.03316495 0.02507947
v -0.01328224 0.03229743 0.02213149
v -0.01107862 0.03306072 0.02134189
v -0.01402721 0.03159602 0.02135005
f 1 2 3
f 5 2 1
f 7 1 3
f 7 5 1
f 10 2 5
f 10 8 2
f 10 6 8
f 11 7 3
f 11 4 7
f 11 3 9
f 12 6 10
f 14 8 6
f 14 13 9
f 15 10 5
f 16 11 9
f 16 4 11
f 16 9 13
f 17 6 12
f 17 16 13
f 17 14 6
f 17 13 14
f 18 14 9
f 18 8 14
f 18 3 2
f 18 2 8
f 19 15 5
f 19 5 7
f 20 17 12
f 20 16 17
f 21 18 9
f 21 9 3
f 21 3 18
f 23 7 4
f 23 4 16
f 23 16 20
f 24 19 7
f 25 12 10
f 25 10 22
f 26 10 15
f 27 23 20
f 27 7 23
f 27 24 7
f 28 20 12
f 28 12 25
f 28 27 20
f 28 24 27
f 29 22 10
f 29 10 26
f 30 26 15
f 30 15 19
f 30 19 24
f 31 30 24
f 31 26 30
f 32 31 24
f 32 24 28
f 32 28 25
f 32 25 22
f 32 22 31
f 33 29 26
f 33 26 31
f 33 31 22
f 33 22 29

