# https://github.com/mikedh/trimesh
v -0.02373357 -0.00565928 0.02635390
v -0.02373357 -0.00565928 0.02024285
v -0.02373357 0.01802103 0.02635390
v -0.02859973 0.01778695 0.02647358
v -0.03134752 -0.00472715 0.02650923
v -0.02551425 0.01912752 0.01947110
v -0.02904389 0.01688867 0.02655778
v -0.03113012 -0.00560190 0.02640194
v -0.03045716 0.00420525 0.02055137
v -0.02811477 0.01606772 0.02206599
v -0.03131344 0.01018746 0.02653614
v -0.02959492 -0.00541202 0.02058801
v -0.02813978 0.01753719 0.02435373
v -0.02964164 0.01012780 0.02058649
v -0.03122857 -0.00097726 0.02354752
v -0.03053974 0.01315641 0.02657304
v -0.03047364 -0.00545349 0.02352791
v -0.03041137 -0.00023707 0.02054243
v -0.02882203 0.01603472 0.02435878
v -0.02889426 0.01681857 0.02585408
v -0.02740305 0.01756239 0.02205946
v -0.02818187 0.01463134 0.02056597
v -0.03120039 0.00644562 0.02357384
v -0.03037906 0.01088474 0.02359714
v -0.03121063 -0.00471451 0.02581411
v -0.03038718 -0.00246969 0.02131317
v -0.03036984 0.01309841 0.02585444
v -0.02682150 0.01761604 0.02053711
v -0.03041451 0.00720011 0.02131085
v -0.03117081 0.01013551 0.02584112
v -0.03117425 -0.00396104 0.02505937
v -0.03041903 0.00868085 0.02208402
v -0.03114195 0.00939492 0.02509215
f 1 2 3
f 6 3 2
f 6 4 3
f 7 1 3
f 7 3 4
f 8 2 1
f 8 1 5
f 12 2 8
f 12 6 2
f 13 4 6
f 14 6 9
f 15 5 11
f 16 11 5
f 16 5 1
f 16 1 7
f 17 12 8
f 18 9 6
f 18 6 12
f 18 15 9
f 19 13 10
f 20 7 4
f 20 4 13
f 20 13 19
f 20 19 16
f 20 16 7
f 21 13 6
f 21 10 13
f 22 6 14
f 23 15 11
f 23 9 15
f 24 22 14
f 25 17 8
f 25 8 5
f 26 12 17
f 26 18 12
f 26 15 18
f 27 19 10
f 27 16 19
f 27 10 22
f 27 22 24
f 28 21 6
f 28 6 22
f 28 22 10
f 28 10 21
f 29 14 9
f 29 9 23
f 30 11 16
f 30 27 24
f 30 16 27
f 31 25 5
f 31 5 15
f 31 15 26
f 31 26 17
f 31 17 25
f 32 24 14
f 32 14 29
f 32 29 23
f 33 23 11
f 33 11 30
f 33 32 23
f 33 30 24
f 33 24 32

