# https://github.com/mikedh/trimesh
v 0.01604664 -0.01792983 0.00566282
v 0.01546947 -0.01744344 0.00485257
v 0.01726125 0.00029091 0.00348280
v 0.00071062 -0.00031211 0.01031239
v 0.00071062 -0.01788138 0.01031239
v 0.00911331 -0.00031211 0.01031239
v 0.01549241 -0.01079712 0.00203555
v 0.00070228 -0.01779631 0.00064932
v 0.00911331 -0.01788138 0.01031239
v 0.01538666 -0.01373174 0.00285461
v 0.00812012 -0.01747139 0.00128591
v 0.00059518 -0.00010550 0.00318941
v 0.01206477 -0.00575486 0.00049432
v 0.01539684 -0.01662588 0.00426005
v 0.01100696 -0.01733455 0.00213457
v 0.01488186 -0.00422850 0.00134581
v 0.01042778 -0.01315033 0.00055761
v 0.01276243 -0.00125939 0.00128758
v 0.00075368 -0.01045247 0.00048602
v 0.01385228 -0.01734177 0.00362931
v 0.01482170 -0.00861051 0.00133447
v 0.00517558 -0.01686306 0.00056035
v 0.00958314 -0.01670493 0.00135802
v 0.01249487 -0.01379031 0.00137525
v 0.00792283 -0.00060758 0.00201442
v 0.01415717 -0.00277626 0.00131372
v 0.00071988 -0.01690417 0.00040186
v 0.00843522 -0.00580074 0.00048389
v 0.01319927 -0.01517420 0.00214777
v 0.01194998 -0.01014462 0.00050729
v 0.00819906 -0.01535282 0.00058523
v 0.01408676 -0.01082692 0.00135312
v 0.01487712 -0.00056394 0.00206233
v 0.01000626 -0.00128820 0.00128442
v 0.01392510 -0.01589754 0.00288305
v 0.01468140 -0.01295968 0.00216416
v 0.01555444 -0.00134328 0.00215324
v 0.01572736 -0.00046799 0.00247006
f 6 1 3
f 6 3 4
f 6 4 5
f 7 3 1
f 8 1 5
f 9 6 5
f 9 5 1
f 9 1 6
f 10 7 1
f 11 1 8
f 12 8 5
f 12 5 4
f 12 4 3
f 14 10 1
f 14 1 2
f 15 1 11
f 20 2 1
f 20 1 15
f 20 14 2
f 21 16 3
f 21 3 7
f 21 13 16
f 22 11 8
f 23 15 11
f 24 23 17
f 25 12 3
f 26 16 13
f 26 13 18
f 27 8 12
f 27 12 19
f 27 22 8
f 28 18 13
f 28 27 19
f 28 13 27
f 29 15 23
f 29 23 24
f 30 13 21
f 30 27 13
f 30 17 27
f 31 11 22
f 31 23 11
f 31 17 23
f 31 27 17
f 31 22 27
f 32 21 7
f 32 30 21
f 32 24 17
f 32 17 30
f 33 25 3
f 33 18 25
f 33 26 18
f 34 25 18
f 34 18 28
f 34 12 25
f 34 28 19
f 34 19 12
f 35 20 15
f 35 15 29
f 35 14 20
f 35 29 10
f 35 10 14
f 36 29 24
f 36 7 10
f 36 10 29
f 36 32 7
f 36 24 32
f 37 3 16
f 37 16 26
f 37 26 33
f 38 37 33
f 38 33 3
f 38 3 37

