# https://github.com/mikedh/trimesh
v 0.03252264 -0.01018761 0.04009691
v 0.03194472 -0.01006952 0.03107369
v 0.03318702 -0.00032562 0.04009393
v 0.01751601 -0.00031211 0.04010376
v 0.01751601 -0.01024257 0.04010376
v 0.01751601 -0.00031211 0.03093718
v 0.03266949 -0.00857344 0.03482792
v 0.01751601 -0.01024257 0.03093718
v 0.03263871 -0.00031590 0.03096093
v 0.03266601 -0.00929643 0.03709401
v 0.03266602 -0.00560248 0.03182708
v 0.03270196 -0.00930519 0.04008215
v 0.03274633 -0.00036238 0.03179213
f 1 3 4
f 5 1 4
f 6 5 4
f 8 2 1
f 8 1 5
f 8 5 6
f 9 8 6
f 9 2 8
f 9 6 4
f 9 4 3
f 10 1 2
f 10 2 7
f 10 7 3
f 11 7 2
f 11 2 9
f 11 3 7
f 12 10 3
f 12 3 1
f 12 1 10
f 13 11 9
f 13 9 3
f 13 3 11

