# https://github.com/mikedh/trimesh
v 0.00662502 -0.03607581 0.04830997
v 0.02837738 -0.01907820 0.02879164
v 0.02236698 -0.01902276 0.06018893
v -0.02238857 -0.01905057 0.05804556
v -0.02342519 -0.01920014 0.02037758
v -0.02390937 -0.01903135 0.02125311
v -0.00447528 -0.03078994 0.06007778
v 0.02206940 -0.02850150 0.04607347
v 0.00441298 -0.03375564 0.02060781
v 0.02377846 -0.01898667 0.05867300
v 0.02550956 -0.01916379 0.02042101
v 0.01032804 -0.03000981 0.05923082
v -0.02034510 -0.01917567 0.06039640
v -0.01330023 -0.03372284 0.03411128
v 0.01326656 -0.03450305 0.03410264
v 0.02679124 -0.01906279 0.02353465
v 0.02908399 -0.01908531 0.04610007
v -0.02457107 -0.01900503 0.05430199
v 0.00447585 -0.03376200 0.05567698
v 0.00812313 -0.03005752 0.06005498
v 0.01470436 -0.03218306 0.05194172
v -0.01540846 -0.02841475 0.05631757
v -0.00887050 -0.03522381 0.04754755
v -0.01762653 -0.02920353 0.02664280
v 0.00369758 -0.03686900 0.03257960
v 0.01686288 -0.02916063 0.02141588
v 0.02827771 -0.01904522 0.04984255
v 0.02660073 -0.02409869 0.03861058
v -0.02381740 -0.01901041 0.05579498
v 0.01471641 -0.02707847 0.05992377
v 0.00733238 -0.03150947 0.05852862
v 0.02127234 -0.02623333 0.05408263
v 0.01547069 -0.03377528 0.04157723
v 0.00811842 -0.03442664 0.05269677
v -0.01833359 -0.02401483 0.05848680
v -0.02135131 -0.02705698 0.04608175
v -0.00958098 -0.03215657 0.05562245
v -0.00227842 -0.03606614 0.04978311
v -0.02131814 -0.02480951 0.02515446
v -0.00882895 -0.03225218 0.02063008
v 0.00666460 -0.03684891 0.04237094
v 0.01030246 -0.03448321 0.02736761
v -0.00521888 -0.03685363 0.03633646
v 0.01394188 -0.03065464 0.02066393
v 0.02275456 -0.02546678 0.02513285
v 0.02578448 -0.02406551 0.04750829
v 0.02879500 -0.02039885 0.03561763
v 0.01246786 -0.02850133 0.05988824
v 0.00810399 -0.03074805 0.05923094
v 0.00512442 -0.03082312 0.06001635
v 0.01990622 -0.02923915 0.05049676
v 0.01763321 -0.02846417 0.05563305
v 0.02123922 -0.02402034 0.05703091
v 0.02574027 -0.02115040 0.05342730
v 0.01987921 -0.03076093 0.03560510
v 0.01250727 -0.03447949 0.04756296
v 0.00522176 -0.03529168 0.05200561
v 0.00737511 -0.03367935 0.05488677
v -0.02058415 -0.02034008 0.05921262
v -0.02056322 -0.02328386 0.05629133
v -0.01103999 -0.02849247 0.06001310
v -0.01546195 -0.03147426 0.04903875
v -0.01769770 -0.03078416 0.03410381
v -0.02691880 -0.01905911 0.03253772
f 10 4 3
f 11 5 6
f 11 9 5
f 13 3 4
f 16 6 10
f 16 11 6
f 18 10 6
f 20 13 7
f 20 3 13
f 27 16 10
f 27 2 16
f 27 17 2
f 29 4 10
f 29 10 18
f 30 3 20
f 38 37 23
f 38 19 7
f 38 7 37
f 39 6 5
f 40 5 9
f 40 14 24
f 40 9 25
f 40 39 5
f 40 24 39
f 41 25 15
f 41 1 38
f 41 15 33
f 42 25 9
f 42 15 25
f 42 26 15
f 43 23 14
f 43 40 25
f 43 14 40
f 43 38 23
f 43 41 38
f 43 25 41
f 44 9 11
f 44 11 26
f 44 42 9
f 44 26 42
f 45 26 11
f 45 11 16
f 45 16 2
f 46 17 27
f 46 28 17
f 46 8 28
f 47 2 17
f 47 17 28
f 47 45 2
f 47 28 45
f 48 30 20
f 48 20 12
f 49 31 12
f 49 12 20
f 50 20 7
f 50 7 19
f 50 19 31
f 50 49 20
f 50 31 49
f 51 46 32
f 51 8 46
f 51 33 8
f 52 51 32
f 52 21 51
f 52 30 48
f 52 48 12
f 52 12 21
f 53 10 3
f 53 52 32
f 53 3 30
f 53 30 52
f 54 27 10
f 54 53 32
f 54 10 53
f 54 46 27
f 54 32 46
f 55 28 8
f 55 8 33
f 55 45 28
f 55 33 15
f 55 15 26
f 55 26 45
f 56 41 33
f 56 1 41
f 56 34 1
f 56 21 34
f 56 51 21
f 56 33 51
f 57 1 34
f 57 38 1
f 57 19 38
f 58 31 19
f 58 57 34
f 58 19 57
f 58 12 31
f 58 34 21
f 58 21 12
f 59 35 13
f 59 13 4
f 60 4 29
f 60 29 18
f 60 18 36
f 60 36 22
f 60 22 35
f 60 59 4
f 60 35 59
f 61 35 22
f 61 7 13
f 61 13 35
f 61 37 7
f 61 22 37
f 62 22 36
f 62 37 22
f 62 23 37
f 62 14 23
f 63 24 14
f 63 62 36
f 63 14 62
f 63 39 24
f 64 36 18
f 64 18 6
f 64 6 39
f 64 63 36
f 64 39 63

