# https://github.com/mikedh/trimesh
v 0.02214472 -0.01684589 0.06168323
v 0.02693585 -0.00710497 0.06031998
v 0.02305075 -0.00929421 0.06366619
v 0.02131130 -0.00031320 0.06526397
v 0.02133541 -0.00031211 0.06072855
v 0.02379760 -0.00032953 0.06376633
v 0.02100053 -0.01012036 0.06470602
v 0.02506614 -0.01296347 0.06073335
v 0.02444803 -0.00708152 0.06296912
v 0.02711274 -0.00032379 0.06046627
v 0.02155793 -0.01303687 0.06366617
v 0.02235014 -0.00710661 0.06441673
v 0.02114001 -0.01622723 0.06274301
v 0.02396798 -0.01615020 0.06034741
v 0.02577705 -0.01077650 0.06075995
v 0.02674190 -0.00033677 0.06093869
v 0.02229706 -0.01155783 0.06363618
v 0.02158921 -0.01005228 0.06439324
v 0.02378360 -0.00559325 0.06363467
v 0.02097628 -0.01536886 0.06321043
v 0.02361802 -0.01294836 0.06217588
v 0.02539594 -0.01309842 0.06029814
v 0.02583556 -0.00777305 0.06150195
v 0.02099689 -0.01312898 0.06398333
v 0.02244969 -0.00032737 0.06466190
v 0.02214729 -0.01591653 0.06215095
v 0.02362428 -0.01073034 0.06289436
v 0.02366766 -0.01595605 0.06076105
v 0.02612184 -0.01085828 0.06029667
v 0.02656899 -0.00704600 0.06079031
v 0.02149025 -0.01524335 0.06291248
v 0.02513216 -0.00780894 0.06222246
f 7 4 5
f 10 5 4
f 10 4 6
f 10 2 5
f 12 4 7
f 13 5 1
f 14 1 5
f 16 2 10
f 16 10 6
f 16 6 9
f 18 12 7
f 18 3 12
f 18 17 3
f 18 7 17
f 19 12 3
f 19 3 9
f 19 9 6
f 20 7 5
f 20 5 13
f 21 17 11
f 21 8 15
f 22 14 5
f 22 8 14
f 22 15 8
f 23 15 2
f 24 17 7
f 24 11 17
f 24 20 11
f 24 7 20
f 25 19 6
f 25 6 4
f 25 4 12
f 25 12 19
f 26 13 1
f 27 3 17
f 27 17 21
f 27 9 3
f 27 21 15
f 28 14 8
f 28 8 21
f 28 21 26
f 28 26 1
f 28 1 14
f 29 2 15
f 29 15 22
f 29 22 5
f 29 5 2
f 30 16 9
f 30 9 23
f 30 23 2
f 30 2 16
f 31 20 13
f 31 13 26
f 31 11 20
f 31 26 21
f 31 21 11
f 32 23 9
f 32 9 27
f 32 27 15
f 32 15 23

