# https://github.com/mikedh/trimesh
v -0.01609476 -0.01024257 0.05079809
v -0.01609476 -0.01024257 0.03093718
v -0.01609476 0.00809058 0.05079809
v -0.03101881 0.00802611 0.05069506
v -0.03065676 -0.01002873 0.03102560
v -0.02966418 -0.00993670 0.05053453
v -0.01609476 0.00809058 0.03093718
v -0.03060281 -0.01000028 0.04610997
v -0.03052364 -0.00695878 0.05057088
v -0.03248715 0.00803365 0.03098007
v -0.03037879 -0.00992477 0.04752079
v -0.03280098 -0.00250583 0.04082487
v -0.03195016 -0.00472069 0.04608942
v -0.03280931 -0.00021945 0.03179745
v -0.03121398 -0.00920467 0.04307220
v -0.03278639 0.00722563 0.04156168
v -0.03115491 -0.00769761 0.04682461
v -0.03198233 -0.00101701 0.04829106
v -0.03281935 0.00124680 0.03103584
v -0.03196760 -0.00621962 0.03329261
v -0.03199079 -0.00623170 0.04309113
v -0.03280644 0.00796825 0.04004124
v -0.03117152 -0.00474725 0.04979754
v -0.03118619 -0.00844577 0.04532294
v -0.03199517 0.00496541 0.04832706
v -0.03280384 0.00047940 0.04382496
v -0.03206069 -0.00473964 0.03103753
v -0.03281363 -0.00248096 0.03555811
v -0.03122883 -0.00920637 0.03406027
v -0.03280265 -0.00174969 0.04234911
v -0.03197171 0.00794474 0.04678379
v -0.03282462 0.00724118 0.03329679
v -0.03195302 -0.00399507 0.04680779
v -0.03119993 -0.00325953 0.05054572
v -0.03281909 0.00348383 0.04383325
v -0.03134828 -0.00773225 0.03104123
v -0.03200150 -0.00545604 0.03180271
v -0.03278242 -0.00172215 0.03329163
v -0.03193897 0.00718089 0.04755261
v -0.03280654 0.00795039 0.03480434
v -0.03282065 0.00423560 0.03103552
v -0.03279576 -0.00102346 0.04307972
v -0.03118770 0.00719538 0.05054267
v -0.03278969 0.00572463 0.04305865
v -0.03282762 0.00573747 0.03179674
v -0.03123230 -0.00844933 0.03180554
v -0.03127266 0.00795255 0.04980232
f 1 2 3
f 1 3 4
f 5 2 1
f 7 3 2
f 8 5 1
f 8 1 6
f 9 6 1
f 9 1 4
f 10 7 2
f 10 2 5
f 10 4 3
f 10 3 7
f 11 8 6
f 11 6 9
f 15 5 8
f 17 11 9
f 17 8 11
f 22 4 10
f 23 17 9
f 23 13 17
f 24 15 8
f 24 8 17
f 24 21 15
f 24 17 13
f 24 13 21
f 27 19 10
f 27 10 5
f 27 14 19
f 28 19 14
f 28 21 12
f 28 20 21
f 29 5 15
f 29 21 20
f 29 15 21
f 30 21 13
f 30 12 21
f 30 28 12
f 31 22 16
f 31 4 22
f 33 13 23
f 33 30 13
f 34 23 9
f 34 9 4
f 34 33 23
f 34 18 33
f 34 25 18
f 35 22 32
f 35 30 26
f 35 28 30
f 35 26 18
f 35 18 25
f 36 27 5
f 37 20 28
f 37 36 20
f 37 27 36
f 38 28 14
f 38 14 27
f 38 37 28
f 38 27 37
f 40 32 22
f 40 22 10
f 40 10 32
f 41 10 19
f 42 33 18
f 42 18 26
f 42 26 30
f 42 30 33
f 43 34 4
f 43 25 34
f 43 39 25
f 44 16 22
f 44 22 35
f 44 35 25
f 44 25 39
f 44 39 31
f 44 31 16
f 45 35 32
f 45 19 28
f 45 28 35
f 45 41 19
f 45 32 10
f 45 10 41
f 46 29 20
f 46 20 36
f 46 36 5
f 46 5 29
f 47 4 31
f 47 31 39
f 47 43 4
f 47 39 43

