# https://github.com/mikedh/trimesh
v 0.01369660 0.01725715 0.01107628
v 0.01329400 0.01697885 0.00326479
v 0.01176069 0.02729215 0.01152454
v -0.00675417 0.02974580 0.01141448
v -0.01303924 0.01649327 0.01107628
v 0.00437154 0.02344302 0.00357477
v 0.01341072 0.02603633 0.01136841
v 0.00071062 0.01649327 0.01107628
v -0.01199899 0.02745761 0.01144757
v 0.00286982 0.03010195 0.01091215
v -0.01284048 0.01621731 0.00259518
v 0.01014737 0.02266317 0.00505251
v -0.00899078 0.02892712 0.01147274
v -0.00225676 0.02860485 0.00871192
v 0.00291463 0.03040440 0.01142774
v 0.00816652 0.01704547 0.00117458
v -0.01283943 0.02686251 0.01132084
v 0.00077382 0.01643864 0.00097848
v 0.01012353 0.02558885 0.00798320
v 0.01302323 0.02042034 0.00509723
v -0.00813035 0.02342424 0.00511045
v 0.00363867 0.02789238 0.00792664
v 0.00661816 0.02961841 0.01147305
v -0.00304501 0.03047822 0.01142545
v 0.00874014 0.02052430 0.00287136
v -0.00837561 0.01626519 0.00188640
v 0.01038491 0.01701134 0.00181319
v 0.00080495 0.01857670 0.00127744
v 0.01230513 0.02478401 0.00875245
v 0.00729439 0.02341094 0.00431359
v -0.01031093 0.02555402 0.00806196
v -0.00295483 0.02422932 0.00435663
v 0.00218026 0.02861516 0.00865421
v 0.00578728 0.02853117 0.00946752
v 0.00872742 0.02850945 0.01094229
v 0.00881635 0.02882906 0.01149668
v -0.00517246 0.02932833 0.01022925
v 0.01164313 0.01827984 0.00291998
v 0.00590496 0.02060100 0.00208581
v 0.00879353 0.01908609 0.00211675
v 0.00663372 0.01844016 0.00130113
v -0.00071434 0.01783495 0.00130417
v -0.00597406 0.02064496 0.00292010
v 0.01157404 0.02702683 0.01096433
v 0.01302256 0.02484765 0.00947011
v 0.01157569 0.02333459 0.00656199
v 0.00871425 0.02270929 0.00433757
v 0.00510221 0.02637451 0.00646820
v -0.00957552 0.02780120 0.01027659
v -0.01250414 0.02558198 0.00948512
v -0.01254035 0.02191258 0.00586046
v -0.00146646 0.02215115 0.00285536
v -0.00071858 0.02352540 0.00355219
v -0.00302093 0.03014107 0.01091050
v 0.00650935 0.02929880 0.01092403
v 0.00725198 0.02630517 0.00721014
v -0.00660863 0.02708727 0.00801027
v 0.01316314 0.01760108 0.00347576
v 0.01095196 0.02121439 0.00434258
v 0.00584702 0.02199426 0.00287055
v 0.00808353 0.01769538 0.00134659
v 0.01029543 0.01764967 0.00202982
v -0.00071327 0.02073309 0.00213045
v -0.00834914 0.01700663 0.00209186
f 7 1 2
f 7 3 1
f 8 2 1
f 8 1 3
f 8 3 5
f 9 5 3
f 11 8 5
f 13 9 3
f 17 11 5
f 17 5 9
f 18 2 8
f 20 7 2
f 23 10 15
f 24 4 13
f 24 23 15
f 24 13 23
f 24 15 10
f 26 18 8
f 26 8 11
f 27 18 16
f 27 2 18
f 33 10 22
f 34 22 10
f 36 23 13
f 36 13 3
f 36 35 23
f 37 4 24
f 38 2 27
f 40 25 38
f 40 39 25
f 41 16 18
f 41 18 28
f 41 28 39
f 41 39 40
f 42 28 18
f 42 18 26
f 42 26 28
f 43 11 21
f 43 21 32
f 44 29 19
f 44 3 7
f 44 19 35
f 44 36 3
f 44 35 36
f 45 7 20
f 45 44 7
f 45 29 44
f 46 12 19
f 46 19 29
f 46 45 20
f 46 29 45
f 47 19 12
f 47 25 30
f 48 30 6
f 48 6 22
f 48 22 34
f 49 9 13
f 49 13 4
f 50 17 9
f 50 49 31
f 50 9 49
f 51 31 21
f 51 21 11
f 51 50 31
f 51 11 17
f 51 17 50
f 52 43 32
f 53 22 6
f 53 52 32
f 53 6 39
f 53 33 22
f 53 32 14
f 53 14 33
f 54 33 14
f 54 24 10
f 54 10 33
f 54 37 24
f 54 14 37
f 55 34 10
f 55 10 23
f 55 35 34
f 55 23 35
f 56 35 19
f 56 34 35
f 56 48 34
f 56 30 48
f 56 47 30
f 56 19 47
f 57 21 31
f 57 31 49
f 57 49 4
f 57 4 37
f 57 32 21
f 57 37 14
f 57 14 32
f 58 38 20
f 58 20 2
f 58 2 38
f 59 38 25
f 59 20 38
f 59 46 20
f 59 12 46
f 59 47 12
f 59 25 47
f 60 30 25
f 60 25 39
f 60 39 6
f 60 6 30
f 61 27 16
f 61 41 40
f 61 16 41
f 62 40 38
f 62 38 27
f 62 61 40
f 62 27 61
f 63 43 52
f 63 39 28
f 63 53 39
f 63 52 53
f 64 26 11
f 64 11 43
f 64 43 63
f 64 63 28
f 64 28 26

