# https://github.com/mikedh/trimesh
v 0.01062593 -0.02854114 0.06069269
v 0.02356465 -0.01631932 0.06066545
v 0.01738716 -0.00866164 0.06607626
v -0.00129099 -0.00811153 0.06141195
v -0.00158102 -0.01635362 0.06072855
v 0.02133541 -0.00871480 0.06072855
v 0.01476954 -0.02192512 0.06354088
v 0.01489209 -0.02660216 0.06024072
v 0.00069207 -0.02156146 0.06609220
v 0.02114336 -0.00866070 0.06486923
v 0.00071062 -0.02399243 0.06072855
v 0.01180022 -0.02632043 0.06207999
v 0.01989687 -0.02037022 0.06140987
v 0.02317957 -0.01761079 0.06028124
v -0.00167957 -0.01437925 0.06521299
v 0.01050895 -0.01847176 0.06592928
v 0.02024019 -0.00861249 0.06525461
v 0.01200638 -0.02823672 0.06037670
v 0.00069347 -0.02379174 0.06549081
v 0.01398247 -0.02488186 0.06212310
v 0.02000121 -0.01593401 0.06360184
v 0.02166371 -0.01983384 0.06025485
v 0.02212425 -0.01742543 0.06139623
v -0.00160364 -0.01642291 0.06579249
v 0.01233055 -0.00875511 0.06593702
v -0.00182019 -0.00910188 0.06246138
v 0.01716953 -0.01531832 0.06511233
v 0.01183720 -0.02790882 0.06077074
v 0.00786162 -0.02858472 0.06160925
v 0.00673637 -0.02078530 0.06594584
v 0.01256098 -0.02345123 0.06361299
v 0.01547882 -0.02263926 0.06279239
v 0.02080918 -0.01229259 0.06431480
v 0.02285668 -0.01741555 0.06072236
v 0.02136916 -0.01961185 0.06067781
v 0.02067412 -0.01814531 0.06212756
v 0.00070945 -0.01800028 0.06607512
v -0.00177770 -0.00995032 0.06307531
v 0.01655000 -0.01241256 0.06591450
v 0.01192201 -0.02060667 0.06509873
v 0.01699691 -0.01969650 0.06356144
v 0.00963034 -0.02719173 0.06220342
v 0.01470327 -0.02632264 0.06061132
v 0.00447311 -0.02149077 0.06596991
v 0.01107994 -0.02564518 0.06281471
v 0.02323238 -0.01613667 0.06109332
v 0.02004657 -0.01376679 0.06430101
v 0.02015791 -0.01007940 0.06508337
v 0.02071388 -0.01667649 0.06281743
v 0.01737028 -0.01017106 0.06597067
v 0.01428362 -0.01541241 0.06590865
v 0.01260701 -0.02200915 0.06432128
v 0.00826264 -0.02001876 0.06593019
v 0.01856629 -0.01601806 0.06429051
v 0.01771189 -0.02042717 0.06281013
v 0.01047922 -0.02820756 0.06106737
v 0.00744875 -0.02665462 0.06322434
v 0.01542732 -0.02485307 0.06135428
v 0.01868019 -0.01307211 0.06510333
v 0.01355794 -0.01619963 0.06589043
v 0.00966836 -0.02209347 0.06509608
v 0.00747149 -0.02749191 0.06262074
v 0.00886794 -0.02649053 0.06295107
v 0.00666550 -0.02355291 0.06509283
f 6 5 4
f 10 2 6
f 11 5 8
f 14 6 2
f 14 5 6
f 16 3 9
f 17 10 6
f 17 6 4
f 17 4 3
f 18 11 8
f 18 1 11
f 22 13 8
f 22 8 5
f 22 5 14
f 24 19 9
f 24 15 5
f 24 5 11
f 24 11 19
f 25 3 4
f 25 15 24
f 26 4 5
f 26 5 15
f 26 25 4
f 28 1 18
f 29 19 11
f 29 11 1
f 30 16 9
f 31 20 7
f 32 7 20
f 34 14 2
f 34 22 14
f 35 23 13
f 35 13 22
f 35 34 23
f 35 22 34
f 36 13 23
f 37 25 24
f 37 24 9
f 37 9 3
f 37 3 25
f 38 26 15
f 38 15 25
f 38 25 26
f 41 27 40
f 43 28 18
f 43 18 8
f 43 20 12
f 43 12 28
f 44 30 9
f 44 9 19
f 45 12 20
f 45 20 31
f 45 42 12
f 46 2 10
f 46 10 33
f 46 34 2
f 46 23 34
f 47 21 33
f 48 33 10
f 48 10 17
f 49 36 23
f 49 23 46
f 49 46 33
f 49 33 21
f 50 17 3
f 50 3 39
f 50 48 17
f 50 39 48
f 51 39 3
f 51 3 16
f 51 27 39
f 51 40 27
f 52 31 7
f 52 41 40
f 52 7 41
f 53 40 16
f 53 16 30
f 54 41 21
f 54 27 41
f 54 47 27
f 54 21 47
f 55 41 7
f 55 7 32
f 55 13 36
f 55 36 49
f 55 49 21
f 55 21 41
f 56 28 12
f 56 12 42
f 56 1 28
f 56 42 29
f 56 29 1
f 58 32 20
f 58 20 43
f 58 55 32
f 58 13 55
f 58 43 8
f 58 8 13
f 59 47 33
f 59 33 48
f 59 27 47
f 59 48 39
f 59 39 27
f 60 51 16
f 60 16 40
f 60 40 51
f 61 53 30
f 61 40 53
f 61 52 40
f 61 31 52
f 62 57 19
f 62 19 29
f 62 29 42
f 63 42 45
f 63 45 31
f 63 31 61
f 63 62 42
f 63 57 62
f 64 61 30
f 64 30 44
f 64 44 19
f 64 19 57
f 64 63 61
f 64 57 63

