# https://github.com/mikedh/trimesh
v 0.00036423 -0.00477886 0.07796632
v 0.00009742 -0.00187512 0.06612878
v 0.00141707 -0.00151845 0.07887164
v -0.00128197 0.00031516 0.07877753
v -0.00300082 -0.00314459 0.07713475
v 0.00012934 -0.00015797 0.06607349
v -0.00251175 -0.00236255 0.07890912
v 0.00151823 -0.00370541 0.07834972
v -0.00178613 -0.00503175 0.07689090
v 0.00063438 -0.00025774 0.07884130
v -0.00161477 -0.00049727 0.06613943
v -0.00307064 -0.00194482 0.07817559
v 0.00021814 -0.00486910 0.07726168
v 0.00118358 -0.00307940 0.07887928
v 0.00123082 -0.00145832 0.07688105
v -0.00247501 -0.00433870 0.07780430
v -0.00036967 0.00042837 0.07754350
v 0.00067534 -0.00030560 0.07757615
v 0.00083605 -0.00076496 0.07923655
v -0.00124118 0.00003834 0.06609320
v -0.00101135 -0.00185795 0.06617475
v -0.00228598 -0.00066571 0.07907524
v -0.00299244 -0.00195877 0.07689265
v 0.00134170 -0.00371649 0.07740095
v -0.00034821 -0.00492071 0.07673595
v -0.00210174 -0.00287078 0.07886236
v 0.00102559 -0.00415420 0.07835271
v -0.00303084 -0.00308448 0.07810097
v -0.00195351 -0.00487250 0.07767733
v -0.00020101 0.00028439 0.07882062
v -0.00122886 0.00033292 0.07756901
v -0.00144893 -0.00142877 0.06617009
v -0.00187040 -0.00018585 0.07911543
v -0.00224321 -0.00075861 0.07302065
v -0.00254880 -0.00347761 0.07832131
v -0.00199514 -0.00427269 0.07817372
v 0.00025618 -0.00017419 0.07920234
v -0.00148947 -0.00013769 0.06689115
f 8 2 6
f 13 8 1
f 13 1 9
f 14 8 3
f 15 8 6
f 15 6 3
f 15 3 8
f 18 10 3
f 18 3 6
f 18 17 10
f 18 6 17
f 19 3 10
f 19 14 3
f 20 6 2
f 20 17 6
f 21 2 9
f 22 12 7
f 22 7 19
f 23 11 5
f 23 5 12
f 24 13 2
f 24 2 8
f 24 8 13
f 25 13 9
f 25 9 2
f 25 2 13
f 26 19 7
f 26 14 19
f 27 1 8
f 27 8 14
f 27 14 26
f 28 12 5
f 28 5 16
f 28 7 12
f 29 16 9
f 29 9 1
f 30 17 4
f 30 10 17
f 31 4 17
f 31 17 20
f 32 21 9
f 32 9 16
f 32 16 5
f 32 5 11
f 32 11 20
f 32 20 2
f 32 2 21
f 33 22 19
f 34 12 22
f 34 23 12
f 34 11 23
f 34 22 33
f 35 26 7
f 35 28 16
f 35 7 28
f 36 27 26
f 36 1 27
f 36 29 1
f 36 26 35
f 36 35 16
f 36 16 29
f 37 19 10
f 37 10 30
f 37 33 19
f 37 30 4
f 37 4 33
f 38 31 20
f 38 34 33
f 38 20 11
f 38 11 34
f 38 33 4
f 38 4 31

