# https://github.com/mikedh/trimesh
v -0.01236251 -0.00491570 0.06578935
v -0.01227536 -0.00489540 0.06072855
v -0.01229288 0.01040542 0.06655856
v -0.01896561 0.01033654 0.06561994
v -0.01915029 -0.00489540 0.06072855
v -0.01227536 0.01038222 0.06072855
v -0.01747412 -0.00487992 0.06602589
v -0.01322706 -0.00494401 0.06601119
v -0.01915029 0.01038222 0.06072855
v -0.01810080 0.01029486 0.06592486
v -0.01898321 -0.00486447 0.06559400
v -0.01817879 -0.00103708 0.06594736
f 1 2 3
f 6 3 2
f 6 2 5
f 8 5 2
f 8 2 1
f 8 1 3
f 8 3 7
f 9 4 3
f 9 3 6
f 9 6 5
f 10 3 4
f 11 8 7
f 11 5 8
f 11 9 5
f 11 4 9
f 12 7 3
f 12 3 10
f 12 11 7
f 12 10 4
f 12 4 11

