# https://github.com/mikedh/trimesh
v -0.00435762 -0.00529417 0.06100544
v 0.00034095 -0.00151037 0.06072945
v 0.00009742 -0.00187512 0.06612878
v -0.01239051 0.00275111 0.06569440
v -0.01227536 0.00274341 0.06072855
v -0.00528731 0.00313056 0.06102026
v -0.01236251 -0.00491570 0.06578935
v -0.00407193 -0.00506797 0.06053104
v 0.00012934 -0.00015797 0.06607349
v -0.00499900 0.00292505 0.06046073
v -0.00892494 -0.00509482 0.06452500
v -0.01227536 -0.00489540 0.06072855
v -0.00828497 0.00292845 0.06374334
v 0.00028172 -0.00016601 0.06069965
v -0.00673260 -0.00518788 0.06309331
v -0.01101693 -0.00502511 0.06538750
v -0.01108651 0.00278069 0.06523629
f 6 5 4
f 7 3 4
f 8 2 3
f 8 3 1
f 9 3 2
f 9 4 3
f 10 5 6
f 12 7 4
f 12 4 5
f 12 10 8
f 12 5 10
f 12 8 1
f 13 9 6
f 13 6 4
f 14 2 8
f 14 8 10
f 14 9 2
f 14 10 6
f 14 6 9
f 15 1 3
f 15 3 11
f 16 11 3
f 16 3 7
f 16 7 12
f 16 12 1
f 16 15 11
f 16 1 15
f 17 13 4
f 17 4 9
f 17 9 13

