# https://github.com/mikedh/trimesh
v -0.01725972 -0.02035592 0.06235469
v -0.01609476 -0.01940914 0.05079809
v -0.01609476 -0.00031211 0.06072855
v -0.02682598 -0.00025636 0.06015858
v -0.02670350 -0.01747597 0.05055826
v -0.02595071 -0.01894427 0.05057453
v -0.02354591 -0.01516795 0.05926885
v -0.01609476 -0.00031211 0.05079809
v -0.02516776 -0.00922736 0.06003757
v -0.02358102 -0.01886156 0.05636781
v -0.03136702 -0.00031197 0.05079654
v -0.02359192 -0.01369214 0.06003848
v -0.02598548 -0.00624009 0.06005426
v -0.02733233 -0.01219095 0.05490075
v -0.02501611 -0.01885477 0.05346812
v -0.02076696 -0.01893057 0.06013736
v -0.03068823 -0.00628635 0.05059989
v -0.02830206 -0.00025286 0.05796280
v -0.02580435 -0.01067712 0.05855473
v -0.02432794 -0.01663959 0.05710753
v -0.02579990 -0.01886738 0.05123936
v -0.02734825 -0.01516262 0.05198080
v -0.02215193 -0.01886512 0.05854724
v -0.02139147 -0.01812983 0.06001390
v -0.03045903 -0.00028094 0.05352082
v -0.02735499 -0.00473496 0.05859185
v -0.02736333 -0.00694054 0.05782631
v -0.02659551 -0.01219450 0.05637468
v -0.02577483 -0.01738741 0.05344349
v -0.02653928 -0.01738070 0.05125054
v -0.02831692 -0.01376381 0.05058698
v -0.02354286 -0.01812863 0.05710669
v -0.02204132 -0.01812133 0.05926224
v -0.03042253 -0.00397658 0.05272831
v -0.02668239 -0.00250334 0.06005062
v -0.02579735 -0.01515097 0.05566354
v -0.02732561 -0.00992983 0.05640463
v -0.02814510 -0.01369674 0.05130337
v -0.03043070 -0.00101922 0.05349435
v -0.02889547 -0.00546284 0.05568902
v -0.02815167 -0.00251817 0.05786401
v -0.02965115 -0.00769406 0.05271893
v -0.02985920 -0.00925062 0.05060340
v -0.02962812 -0.00321535 0.05493902
v -0.02812524 -0.00545932 0.05712698
v -0.02968397 -0.00920375 0.05126305
v -0.02805402 -0.00993339 0.05490147
v -0.03042348 -0.00547864 0.05200179
v -0.02889135 -0.00321032 0.05640381
v -0.02883427 -0.00840921 0.05417116
v -0.03048956 -0.00623376 0.05129259
f 1 2 3
f 1 3 4
f 6 2 1
f 8 3 2
f 8 6 5
f 8 2 6
f 8 4 3
f 12 1 9
f 13 9 1
f 13 1 4
f 15 6 1
f 15 1 10
f 17 11 8
f 17 8 5
f 18 4 8
f 19 12 9
f 19 7 12
f 21 5 6
f 21 6 15
f 23 10 1
f 23 1 16
f 24 12 7
f 24 16 1
f 24 1 12
f 25 18 8
f 25 8 11
f 27 19 9
f 27 9 13
f 27 13 26
f 28 20 7
f 28 7 19
f 29 15 10
f 29 21 15
f 30 22 5
f 30 5 21
f 30 29 22
f 30 21 29
f 31 17 5
f 31 5 22
f 32 23 20
f 32 20 10
f 32 10 23
f 33 7 20
f 33 20 23
f 33 24 7
f 33 23 16
f 33 16 24
f 34 11 17
f 35 26 13
f 35 13 4
f 36 28 14
f 36 20 28
f 36 14 22
f 36 22 29
f 36 29 10
f 36 10 20
f 37 14 28
f 37 28 19
f 37 19 27
f 38 31 22
f 38 22 14
f 39 25 11
f 39 11 34
f 40 37 27
f 41 26 35
f 41 35 4
f 41 4 18
f 43 17 31
f 43 31 38
f 44 18 25
f 44 25 39
f 44 39 34
f 44 34 40
f 45 40 27
f 45 27 26
f 45 26 41
f 46 38 14
f 46 14 42
f 46 43 38
f 46 42 17
f 46 17 43
f 47 42 14
f 47 14 37
f 48 42 40
f 48 40 34
f 48 34 17
f 49 41 18
f 49 18 44
f 49 45 41
f 49 44 40
f 49 40 45
f 50 47 37
f 50 37 40
f 50 40 42
f 50 42 47
f 51 48 17
f 51 17 42
f 51 42 48

