# https://github.com/mikedh/trimesh
v -0.00616431 -0.01788138 0.01031239
v -0.00603840 -0.01774924 0.00156220
v -0.00616431 0.01649327 0.01031239
v -0.01456700 0.01649327 0.01031239
v -0.01603049 -0.01880306 0.00895631
v -0.00612330 0.01640735 0.00171493
v -0.00594388 -0.01622101 0.00108002
v -0.01439061 0.00576942 0.00048407
v -0.01436828 0.01626010 0.00316963
v -0.01091746 0.00728829 0.00045431
v -0.01432697 -0.00465344 0.00132870
v -0.01286703 0.01240807 0.00129586
v -0.00773031 0.01259133 0.00123189
v -0.01159359 -0.00023661 0.00044829
v -0.00877721 -0.01613027 0.00213690
v -0.01439546 0.00127148 0.00052859
v -0.01061997 0.01619431 0.00212402
v -0.01428109 0.01165181 0.00138643
v -0.01296129 0.00797682 0.00047268
v -0.00660697 -0.01615591 0.00128125
v -0.01167982 -0.01751379 0.00431678
v -0.01364628 -0.00021102 0.00049773
v -0.01356826 0.01461816 0.00214745
v -0.01366067 0.00724489 0.00046359
v -0.01157417 0.00801403 0.00044942
v -0.00735346 -0.01756346 0.00197498
v -0.01391953 -0.01675730 0.00572666
v -0.00945144 -0.01746100 0.00291689
v -0.01425992 0.01387145 0.00209327
v -0.01351614 0.01610928 0.00276676
v -0.01407873 -0.01758328 0.00627583
v -0.01407012 -0.01135125 0.00364000
v -0.01423800 0.01536831 0.00270131
v -0.01311215 -0.01673073 0.00506498
v -0.01388621 -0.01524568 0.00506055
f 1 3 4
f 5 2 1
f 5 1 4
f 6 4 3
f 7 1 2
f 7 3 1
f 7 6 3
f 9 8 5
f 9 5 4
f 9 4 6
f 13 10 6
f 13 6 7
f 13 7 10
f 14 10 7
f 16 11 5
f 16 5 8
f 17 9 6
f 17 6 12
f 18 8 9
f 19 18 12
f 19 12 6
f 20 15 11
f 20 11 7
f 20 7 2
f 22 16 8
f 22 8 14
f 22 14 7
f 22 7 11
f 22 11 16
f 23 17 12
f 23 12 18
f 24 8 18
f 24 18 19
f 24 14 8
f 25 19 6
f 25 6 10
f 25 24 19
f 25 10 14
f 25 14 24
f 26 20 2
f 26 15 20
f 28 21 11
f 28 11 15
f 28 15 26
f 28 5 21
f 28 26 2
f 28 2 5
f 29 23 18
f 29 18 9
f 30 9 17
f 30 17 23
f 31 21 5
f 31 5 27
f 32 27 5
f 32 5 11
f 32 11 21
f 33 29 9
f 33 9 30
f 33 30 23
f 33 23 29
f 34 32 21
f 34 31 27
f 34 21 31
f 35 34 27
f 35 27 32
f 35 32 34

