# https://github.com/mikedh/trimesh
v -0.02373357 -0.01024257 0.03093718
v -0.02373357 -0.01024257 0.02024285
v -0.02373357 -0.00565928 0.02024285
v -0.03187438 -0.00560005 0.03096681
v -0.03065676 -0.01002873 0.03102560
v -0.02948089 -0.00557055 0.02036671
v -0.02373357 -0.00565928 0.03093718
v -0.03039495 -0.00843280 0.02656859
v -0.03134828 -0.00773225 0.03104123
v -0.03133390 -0.00547046 0.02727628
v -0.02819616 -0.00991037 0.02056975
v -0.03116395 -0.00768110 0.02953781
v -0.02964926 -0.00618119 0.02132388
v -0.02981354 -0.00545875 0.02126957
v -0.02973053 -0.00994664 0.02580156
v -0.03046657 -0.00994802 0.02955832
v -0.03116980 -0.00619427 0.02730945
v -0.02895757 -0.00768541 0.02055110
v -0.02963422 -0.00913561 0.02433003
v -0.02892494 -0.00990226 0.02280576
f 1 2 3
f 5 2 1
f 6 3 2
f 7 1 3
f 9 5 1
f 9 1 7
f 9 7 4
f 10 4 7
f 11 6 2
f 12 5 9
f 12 9 4
f 14 10 7
f 14 7 3
f 14 3 6
f 14 6 13
f 15 11 2
f 15 2 5
f 16 12 8
f 16 5 12
f 16 15 5
f 16 8 15
f 17 8 12
f 17 13 8
f 17 14 13
f 17 10 14
f 17 12 4
f 17 4 10
f 18 13 6
f 18 6 11
f 19 15 8
f 19 8 13
f 19 13 18
f 20 19 18
f 20 18 11
f 20 11 15
f 20 15 19

