# https://github.com/mikedh/trimesh
v 0.02582283 0.01720604 0.02104128
v 0.02519159 0.01689451 0.01902441
v 0.02118174 0.02416598 0.02063781
v 0.01342569 0.03130533 0.02119032
v 0.01369660 0.01725715 0.02100673
v 0.01360266 0.01719221 0.00357542
v 0.02136247 0.02430417 0.02132004
v 0.02423053 0.01976557 0.02058695
v 0.01965594 0.01895306 0.01096888
v 0.01330417 0.01847599 0.00402757
v 0.01467191 0.01694138 0.00420333
v 0.01680691 0.02864185 0.02059868
v 0.02524684 0.01842671 0.02124887
v 0.01396041 0.03101845 0.02131139
v 0.02268333 0.02121658 0.01913505
v 0.01329683 0.03110969 0.02051218
v 0.02069762 0.01692309 0.01075830
v 0.01666939 0.01895810 0.00728895
v 0.01387122 0.01832104 0.00432355
v 0.01897932 0.02415354 0.01615450
v 0.02442152 0.01987863 0.02127973
v 0.02492149 0.01749377 0.01911653
v 0.01695004 0.02881044 0.02128067
v 0.01606603 0.02859048 0.01912370
v 0.01383239 0.03082582 0.02062550
v 0.01842371 0.01692667 0.00781385
v 0.01447592 0.01750321 0.00433920
v 0.01327437 0.02508713 0.01000430
v 0.02188866 0.01970168 0.01541499
v 0.02039453 0.02340805 0.01765797
v 0.02505395 0.01831440 0.02057621
v 0.01455589 0.03003348 0.01988556
v 0.01595374 0.01895929 0.00655906
v 0.01822416 0.01753239 0.00798390
v 0.01329141 0.02068954 0.00549728
v 0.01525116 0.02633126 0.01393248
v 0.01746528 0.02260722 0.01174977
v 0.02264781 0.01970086 0.01690173
v 0.02194336 0.01749863 0.01314998
v 0.01892087 0.02264314 0.01392958
v 0.01740351 0.01970174 0.00873978
v 0.02048678 0.01752361 0.01091090
v 0.01450793 0.01970478 0.00575473
v 0.01599072 0.02708769 0.01618460
v 0.01329487 0.02814734 0.01447268
v 0.01378685 0.02485369 0.01023129
v 0.02113698 0.02192279 0.01690962
v 0.01967209 0.02041380 0.01245341
v 0.02216375 0.01691536 0.01300532
v 0.01380036 0.02045581 0.00572720
v 0.01455221 0.02780815 0.01543326
v 0.01520722 0.02482508 0.01170260
v 0.01385337 0.02785693 0.01464696
f 5 2 1
f 10 6 5
f 11 2 5
f 11 5 6
f 12 7 3
f 13 5 1
f 14 4 5
f 14 5 7
f 15 3 7
f 16 10 5
f 16 5 4
f 19 6 10
f 20 12 3
f 21 7 5
f 21 5 13
f 21 13 8
f 21 15 7
f 21 8 15
f 22 1 2
f 23 14 7
f 23 7 12
f 24 12 20
f 25 16 4
f 25 4 14
f 26 2 11
f 27 11 6
f 27 6 19
f 28 10 16
f 30 20 3
f 30 3 15
f 31 13 1
f 31 1 22
f 31 22 8
f 31 8 13
f 32 23 12
f 32 14 23
f 32 12 24
f 32 25 14
f 32 16 25
f 33 26 11
f 33 11 27
f 34 17 26
f 34 33 18
f 34 26 33
f 35 19 10
f 35 10 28
f 37 36 20
f 38 15 8
f 38 8 22
f 39 29 38
f 39 38 22
f 39 22 2
f 40 37 20
f 41 34 18
f 41 9 34
f 42 34 9
f 42 17 34
f 42 9 39
f 43 19 35
f 43 33 27
f 43 27 19
f 43 41 18
f 43 18 33
f 44 24 20
f 44 20 36
f 45 28 16
f 45 16 32
f 46 35 28
f 47 30 15
f 47 15 38
f 47 38 29
f 47 29 40
f 47 40 20
f 47 20 30
f 48 39 9
f 48 29 39
f 48 40 29
f 48 37 40
f 48 41 37
f 48 9 41
f 49 39 2
f 49 42 39
f 49 17 42
f 49 26 17
f 49 2 26
f 50 37 41
f 50 46 37
f 50 35 46
f 50 43 35
f 50 41 43
f 51 44 36
f 51 24 44
f 51 45 32
f 51 32 24
f 52 46 28
f 52 28 36
f 52 36 37
f 52 37 46
f 53 51 36
f 53 45 51
f 53 36 28
f 53 28 45

