# https://github.com/mikedh/trimesh
v -0.00616431 0.02718761 0.04621481
v -0.00616431 0.02718761 0.03093718
v -0.00601921 0.03631190 0.02804203
v -0.00676478 0.03622774 0.04605500
v -0.01502396 0.03253319 0.02616400
v -0.00605362 0.03634912 0.04607525
v -0.01456700 0.02718761 0.03093718
v -0.00616431 0.03177089 0.02635390
v -0.01189700 0.03541033 0.03480608
v -0.01456700 0.02718761 0.04621481
v -0.00609644 0.03597710 0.02642891
v -0.00974266 0.03620366 0.03555544
v -0.01428164 0.03351353 0.04610432
v -0.00968076 0.03537281 0.02804610
v -0.00895792 0.03622108 0.04231322
v -0.00971347 0.03547011 0.04604750
v -0.01336298 0.03466415 0.03329463
v -0.00822376 0.03550083 0.02652736
v -0.00819212 0.03615796 0.03031822
v -0.00823659 0.03615348 0.04456371
v -0.01188980 0.03540419 0.04003819
v -0.01409013 0.03391114 0.03033995
v -0.01116101 0.03543482 0.03180255
v -0.00671934 0.03616470 0.02805069
v -0.01259739 0.03391067 0.02654616
v -0.00896888 0.03619365 0.03254854
v -0.01115320 0.03543756 0.04301970
v -0.00972691 0.03619279 0.03930699
v -0.01334627 0.03463302 0.04155388
v -0.01407879 0.03388889 0.04453839
v -0.01260612 0.03464607 0.03030872
v -0.01040687 0.03538517 0.02957449
v -0.01332211 0.03388496 0.02809000
v -0.01039981 0.03537610 0.04526709
v -0.01258300 0.03463436 0.04454312
v -0.01408714 0.03314784 0.02655547
v -0.01339670 0.03397724 0.04604113
v -0.01189347 0.03466596 0.04604176
f 1 2 3
f 6 1 3
f 7 2 1
f 8 3 2
f 8 7 5
f 8 2 7
f 10 1 6
f 10 7 1
f 10 5 7
f 11 8 5
f 11 3 8
f 12 6 3
f 13 10 6
f 13 5 10
f 15 6 12
f 16 13 6
f 16 6 4
f 18 11 5
f 20 4 6
f 20 6 15
f 20 16 4
f 21 12 9
f 21 9 17
f 23 17 9
f 23 9 12
f 24 3 11
f 24 11 18
f 24 19 3
f 24 18 14
f 24 14 19
f 25 18 5
f 25 14 18
f 26 12 3
f 26 3 19
f 26 23 12
f 26 19 23
f 27 20 15
f 28 15 12
f 28 12 21
f 28 27 15
f 28 21 27
f 29 21 17
f 29 27 21
f 30 22 5
f 30 5 13
f 30 29 17
f 30 17 22
f 31 22 17
f 31 17 23
f 32 23 19
f 32 19 14
f 32 31 23
f 32 14 25
f 32 25 31
f 33 31 25
f 33 22 31
f 34 16 20
f 34 20 27
f 35 27 29
f 35 29 30
f 35 34 27
f 36 33 25
f 36 25 5
f 36 5 22
f 36 22 33
f 37 35 30
f 37 30 13
f 38 37 13
f 38 13 16
f 38 16 34
f 38 34 35
f 38 35 37

