# https://github.com/mikedh/trimesh
v 0.01522436 0.02718761 0.04621481
v 0.01654867 0.02875153 0.02034218
v 0.01025761 0.03543440 0.04080994
v -0.00605362 0.03634912 0.04607525
v -0.00616431 0.02718761 0.03093718
v 0.00067064 0.03501304 0.02118863
v 0.01024844 0.03469261 0.04601580
v 0.01466297 0.03313615 0.04152537
v 0.00071062 0.02718761 0.02100673
v -0.00616431 0.02718761 0.04621481
v 0.01023084 0.03461024 0.02730524
v 0.00140927 0.03701381 0.03027021
v -0.00609644 0.03597710 0.02642891
v 0.00215825 0.03702475 0.04306890
v 0.00513684 0.03615622 0.04603313
v 0.01467805 0.03241503 0.04605073
v 0.01172368 0.03465521 0.04227520
v 0.00733950 0.03397412 0.02131545
v 0.01464892 0.03236201 0.02729603
v 0.00808060 0.03619650 0.03405890
v 0.00065815 0.03627480 0.02577561
v -0.00601110 0.03702352 0.03554848
v -0.00616431 0.03177089 0.02635390
v 0.00066730 0.03702544 0.04381318
v 0.00734580 0.03622287 0.04227885
v 0.00806515 0.03543362 0.04603128
v 0.01319029 0.03390048 0.04230451
v 0.00952312 0.03535739 0.04377189
v 0.00436739 0.03464377 0.02131755
v 0.01469036 0.03315257 0.03330160
v 0.01167949 0.03233019 0.02137293
v 0.00586795 0.03617469 0.02880402
v 0.00439719 0.03699135 0.03404843
v -0.00304946 0.03701209 0.03026478
v -0.00524375 0.03615297 0.02656860
v -0.00603433 0.03699499 0.04005723
v -0.00229503 0.03704868 0.04381725
v 0.00365321 0.03700860 0.04154838
v 0.00809972 0.03620996 0.04003431
v 0.00584894 0.03614755 0.04527210
v 0.01391072 0.03317333 0.04452193
v 0.00877210 0.03536835 0.04525974
v 0.00364992 0.03542729 0.02356026
v 0.01024039 0.03539789 0.03330815
v 0.01246578 0.03386400 0.02879415
v 0.00880096 0.03461846 0.02504156
v 0.01463348 0.03161978 0.02433936
v 0.00878942 0.03539360 0.02880253
v 0.00436760 0.03617894 0.02729443
v 0.00440051 0.03700995 0.04005469
v 0.00365180 0.03700016 0.03252063
v 0.00736085 0.03619740 0.03178607
v -0.00451853 0.03700661 0.03176572
v 0.00066180 0.03550001 0.02278761
v -0.00378952 0.03703869 0.04307789
v 0.01244625 0.03383698 0.04526202
v 0.00140190 0.03544827 0.02277947
v 0.00512176 0.03539077 0.02432004
v 0.01389221 0.03309221 0.02880428
v 0.01318911 0.03387855 0.03177616
v 0.01171454 0.03462016 0.03180722
v 0.01166647 0.03306471 0.02359154
v 0.01482208 0.03042114 0.02125141
v 0.00804021 0.03536654 0.02733153
f 9 2 1
f 9 1 5
f 9 6 2
f 10 5 1
f 10 1 4
f 15 4 1
f 16 1 2
f 16 2 8
f 23 10 4
f 23 4 13
f 23 5 10
f 23 9 5
f 23 13 6
f 23 6 9
f 24 15 14
f 24 4 15
f 26 15 1
f 26 1 16
f 26 16 7
f 27 8 3
f 27 3 17
f 28 17 3
f 28 7 17
f 28 3 25
f 29 18 2
f 29 2 6
f 30 8 2
f 30 2 19
f 30 3 8
f 31 2 18
f 34 12 21
f 35 6 13
f 35 34 21
f 36 22 13
f 36 13 4
f 37 34 22
f 37 12 34
f 37 24 14
f 37 4 24
f 38 14 15
f 39 25 3
f 39 3 20
f 40 15 26
f 40 38 15
f 40 25 38
f 41 16 8
f 41 8 27
f 42 26 7
f 42 7 28
f 42 28 25
f 42 40 26
f 42 25 40
f 44 20 3
f 44 3 30
f 47 19 2
f 49 21 12
f 49 12 32
f 49 43 21
f 50 14 38
f 50 38 25
f 50 25 39
f 50 39 20
f 50 20 33
f 50 37 14
f 50 12 37
f 51 32 12
f 51 50 33
f 51 12 50
f 52 33 20
f 52 51 33
f 52 32 51
f 52 48 32
f 52 20 44
f 52 44 48
f 53 13 22
f 53 22 34
f 53 35 13
f 53 34 35
f 54 35 21
f 54 6 35
f 55 37 22
f 55 22 36
f 55 36 4
f 55 4 37
f 56 7 16
f 56 16 41
f 56 17 7
f 56 41 27
f 56 27 17
f 57 43 29
f 57 29 6
f 57 6 54
f 57 54 21
f 57 21 43
f 58 18 29
f 58 29 43
f 58 46 18
f 58 43 49
f 58 49 32
f 59 30 19
f 59 19 45
f 60 44 30
f 60 59 45
f 60 30 59
f 61 45 11
f 61 60 45
f 61 44 60
f 61 48 44
f 61 11 48
f 62 31 18
f 62 18 46
f 62 46 11
f 62 47 31
f 62 11 45
f 62 45 19
f 62 19 47
f 63 47 2
f 63 2 31
f 63 31 47
f 64 32 48
f 64 58 32
f 64 46 58
f 64 48 11
f 64 11 46

