# https://github.com/mikedh/trimesh
v -0.01609476 -0.01940914 0.05079809
v -0.01609476 -0.01940914 0.02024285
v -0.01609476 -0.01024257 0.02024285
v -0.02982827 -0.00999574 0.04984494
v -0.02664229 -0.01893443 0.04755250
v -0.02803051 -0.01012674 0.02034780
v -0.01609476 -0.01024257 0.05079809
v -0.02595071 -0.01894427 0.05057453
v -0.02842157 -0.00997593 0.02124833
v -0.02437820 -0.01884220 0.02208795
v -0.02807351 -0.01442812 0.05051977
v -0.02954612 -0.01014588 0.05071478
v -0.03043875 -0.01144104 0.03330861
v -0.02370786 -0.01890190 0.02057365
v -0.02728773 -0.01282438 0.02135573
v -0.02966017 -0.01368199 0.04308013
v -0.02730702 -0.01662224 0.04979681
v -0.02885828 -0.01292743 0.04977143
v -0.03065676 -0.01002873 0.03102560
v -0.02735644 -0.01811516 0.03181127
v -0.02657779 -0.01886758 0.02959458
v -0.02732020 -0.01213441 0.02060456
v -0.02503781 -0.01731962 0.02138151
v -0.03060281 -0.01000028 0.04610997
v -0.02655507 -0.01815552 0.04979872
v -0.02812287 -0.01590743 0.04756222
v -0.02890618 -0.01221655 0.05054592
v -0.02965323 -0.01064587 0.02657095
v -0.02815439 -0.01741267 0.03708532
v -0.02587379 -0.01885939 0.02659888
v -0.02818351 -0.01064351 0.02133558
v -0.02428726 -0.01803526 0.02065168
v -0.03042447 -0.01144168 0.04381163
v -0.02911047 -0.00996623 0.02351501
v -0.02960778 -0.01219365 0.04754060
v -0.02738181 -0.01818059 0.04531948
v -0.02962210 -0.01067941 0.04978474
v -0.02811220 -0.01591091 0.02958898
v -0.02965991 -0.01367953 0.03407457
v -0.02582802 -0.01735205 0.02363205
v -0.02987782 -0.01000937 0.02650896
v -0.02807323 -0.01211459 0.02284399
v -0.02960788 -0.01292572 0.04604519
v -0.02888583 -0.01517298 0.04459180
v -0.02816050 -0.01741828 0.04007267
v -0.02962249 -0.01291072 0.03106324
v -0.02888017 -0.01519225 0.03257045
v -0.02807712 -0.01364021 0.02509003
v -0.02887593 -0.01063970 0.02358426
v -0.03038905 -0.01069102 0.04607931
v -0.02811595 -0.01666993 0.04532581
v -0.03044025 -0.01067289 0.03105772
v -0.02812747 -0.01663279 0.03181302
v -0.02731174 -0.01437050 0.02360852
f 1 2 3
f 5 2 1
f 6 3 2
f 7 1 3
f 8 5 1
f 9 3 6
f 9 7 3
f 12 8 1
f 12 1 7
f 12 11 8
f 12 7 4
f 14 6 2
f 17 8 11
f 21 14 2
f 21 2 5
f 22 9 6
f 23 15 22
f 25 17 5
f 25 5 8
f 25 8 17
f 26 5 17
f 26 17 11
f 26 11 18
f 27 18 11
f 27 11 12
f 29 21 5
f 29 20 21
f 30 10 14
f 30 14 21
f 31 22 15
f 31 9 22
f 32 22 6
f 32 6 14
f 32 23 22
f 32 14 10
f 32 10 23
f 33 13 16
f 33 24 19
f 33 19 13
f 34 24 4
f 34 19 24
f 34 4 7
f 34 7 9
f 35 4 24
f 35 26 18
f 36 5 26
f 37 27 12
f 37 12 4
f 37 18 27
f 37 35 18
f 37 4 35
f 38 30 21
f 39 16 13
f 40 23 10
f 40 10 30
f 40 15 23
f 41 19 34
f 42 9 31
f 42 31 15
f 43 33 16
f 43 26 35
f 44 43 16
f 44 26 43
f 45 29 5
f 45 5 36
f 45 44 16
f 45 39 29
f 45 16 39
f 46 28 38
f 46 41 28
f 46 39 13
f 47 29 39
f 47 46 38
f 47 39 46
f 48 40 30
f 48 30 38
f 48 38 28
f 49 34 9
f 49 9 42
f 49 42 48
f 49 48 28
f 49 41 34
f 49 28 41
f 50 43 35
f 50 35 24
f 50 24 33
f 50 33 43
f 51 36 26
f 51 26 44
f 51 45 36
f 51 44 45
f 52 46 13
f 52 13 19
f 52 19 41
f 52 41 46
f 53 20 29
f 53 29 47
f 53 47 38
f 53 38 21
f 53 21 20
f 54 48 42
f 54 42 15
f 54 15 40
f 54 40 48

