# https://github.com/mikedh/trimesh
v -0.02194751 -0.00863815 0.06345590
v -0.01915029 -0.00489540 0.06072855
v -0.01898321 -0.00486447 0.06559400
v -0.02089924 0.01600183 0.06280579
v -0.02629024 0.00724041 0.06034743
v -0.01880959 0.01477197 0.06473553
v -0.02497311 -0.00863032 0.06049628
v -0.02402303 0.01474805 0.06033341
v -0.02306779 -0.00249877 0.06369370
v -0.02301372 0.01092467 0.06294567
v -0.02346108 -0.00910762 0.06198009
v -0.02554411 -0.00705495 0.06032526
v -0.02163506 -0.00478813 0.06436727
v -0.02022050 0.00950562 0.06515616
v -0.02221802 0.01312757 0.06293642
v -0.02307488 0.00720944 0.06367297
v -0.02512302 0.01090007 0.06075611
v -0.02374725 -0.00399090 0.06291733
v -0.02471960 0.01322543 0.06028038
v -0.02462742 -0.00851508 0.06095074
v -0.02231756 -0.00628031 0.06367250
v -0.01964570 -0.00484545 0.06535594
v -0.01885164 0.01178873 0.06543232
v -0.02151196 0.01461417 0.06295386
v -0.02087289 0.01168302 0.06439000
v -0.02521371 0.00794203 0.06150492
v -0.02437578 0.01309068 0.06075983
v -0.02368297 -0.00770574 0.06217981
v -0.02595752 -0.00321822 0.06084410
v -0.02547279 0.01098121 0.06028973
v -0.02027113 -0.00406155 0.06515327
v -0.01939089 0.01466825 0.06442670
v -0.02368887 0.01459505 0.06081876
v -0.01947208 0.01172538 0.06516039
v -0.02158467 0.00949094 0.06437242
v -0.02375812 0.00795410 0.06297359
v -0.02240638 -0.00853781 0.06310715
v -0.02523132 -0.00397885 0.06149879
v -0.02631518 -0.00328579 0.06036478
v -0.02594525 0.00715869 0.06081207
v -0.02518399 -0.00695607 0.06078727
f 1 2 3
f 6 3 2
f 6 2 4
f 8 4 2
f 11 7 2
f 11 2 1
f 12 2 7
f 16 9 14
f 19 8 2
f 19 2 12
f 20 12 7
f 20 7 11
f 21 13 9
f 21 1 13
f 21 9 18
f 22 13 1
f 22 1 3
f 23 14 3
f 23 3 6
f 25 24 15
f 25 15 10
f 26 10 17
f 27 17 10
f 27 10 15
f 27 19 17
f 28 21 18
f 28 20 11
f 29 9 16
f 30 19 12
f 30 17 19
f 31 22 3
f 31 3 14
f 31 14 9
f 31 9 13
f 31 13 22
f 32 6 4
f 32 4 24
f 32 25 6
f 32 24 25
f 33 24 4
f 33 4 8
f 33 8 19
f 33 19 27
f 33 27 15
f 33 15 24
f 34 23 6
f 34 6 25
f 34 25 14
f 34 14 23
f 35 16 14
f 35 14 25
f 35 25 10
f 35 10 16
f 36 16 10
f 36 10 26
f 37 28 11
f 37 11 1
f 37 1 21
f 37 21 28
f 38 28 18
f 38 18 9
f 38 9 29
f 39 12 29
f 39 30 12
f 39 5 30
f 40 39 29
f 40 5 39
f 40 26 17
f 40 30 5
f 40 17 30
f 40 29 16
f 40 36 26
f 40 16 36
f 41 12 20
f 41 20 28
f 41 28 38
f 41 38 29
f 41 29 12

