# https://github.com/mikedh/trimesh
v 0.00740226 -0.03316616 0.02053835
v 0.02631759 -0.01768846 0.02039111
v -0.02370786 -0.01890190 0.02057365
v -0.02431547 -0.01776741 0.02031923
v 0.00669141 -0.01760810 0.00102070
v 0.02521772 -0.01971584 0.02054786
v -0.02231905 -0.01743536 0.01607122
v 0.02603751 -0.01828257 0.02050191
v -0.01701659 -0.02716139 0.02060417
v 0.01546947 -0.01744344 0.00485257
v -0.02389975 -0.01749567 0.01900536
v 0.02218624 -0.01745115 0.01228987
v 0.01480077 -0.03013388 0.02056714
v -0.01901017 -0.02325915 0.01769857
v -0.00295352 -0.02696580 0.00790665
v -0.01247397 -0.01753266 0.00491566
v -0.02352392 -0.01874936 0.01990429
v 0.02269799 -0.02027947 0.01620862
v 0.02610277 -0.01757491 0.01971448
v -0.01410031 -0.02939691 0.02058708
v 0.02369978 -0.02196956 0.02055960
v 0.00870558 -0.02613912 0.00872885
v -0.02154753 -0.02197493 0.02055015
v 0.01329121 -0.01746866 0.00337316
v -0.00365144 -0.02039287 0.00211913
v -0.01675106 -0.02035376 0.01100279
v -0.02277640 -0.01877935 0.01842352
v 0.01749201 -0.02393737 0.01320766
v 0.02582987 -0.01816582 0.01982142
v -0.00443956 -0.03294268 0.01910953
v 0.02421528 -0.02032350 0.01916971
v 0.01021522 -0.02986122 0.01545501
v 0.00434909 -0.02992731 0.01240013
v 0.00512021 -0.02328942 0.00429997
v -0.01850893 -0.02567341 0.02058983
v -0.00883433 -0.01757692 0.00263915
v 0.01311250 -0.02315170 0.00800456
v -0.01829006 -0.02251629 0.01544053
v -0.01777752 -0.01749908 0.01006290
v -0.01018439 -0.02392738 0.00802561
v -0.01976295 -0.02178994 0.01696203
v 0.01971915 -0.01802008 0.00948397
v 0.01828776 -0.02692173 0.01916179
v -0.00596861 -0.03316251 0.02054619
v 0.02352392 -0.02179233 0.01989885
v 0.02500714 -0.01958805 0.01988283
v 0.01174154 -0.03143051 0.01993027
v 0.01608407 -0.02611821 0.01472758
v -0.00223308 -0.02917617 0.01091643
v 0.00291829 -0.03300351 0.01832200
v 0.00656250 -0.03142385 0.01614395
v 0.00876120 -0.02912619 0.01317752
v 0.00874091 -0.02101759 0.00356641
v 0.00290904 -0.02184354 0.00280288
v 0.00217889 -0.02771619 0.00865655
v -0.01979537 -0.02330190 0.01916853
v -0.00448929 -0.01764243 0.00110777
v 0.01382032 -0.01948713 0.00510436
v -0.01679020 -0.02248795 0.01320847
v -0.01752384 -0.02398056 0.01619147
v -0.01826521 -0.01885359 0.01173028
v -0.01304623 -0.01964074 0.00658294
v -0.00801327 -0.02035856 0.00360720
v -0.02134525 -0.02181637 0.01991458
f 3 2 4
f 8 2 3
f 8 3 6
f 11 4 2
f 12 10 7
f 16 7 10
f 17 3 4
f 17 4 11
f 19 11 2
f 19 12 7
f 19 7 11
f 20 13 9
f 21 9 13
f 21 6 3
f 21 3 9
f 23 3 17
f 24 16 10
f 27 17 11
f 27 11 7
f 27 23 17
f 29 19 2
f 29 2 8
f 29 8 6
f 29 18 12
f 29 12 19
f 31 6 21
f 31 18 29
f 35 9 3
f 35 3 23
f 36 24 5
f 36 16 24
f 39 7 16
f 41 38 14
f 41 27 7
f 41 7 38
f 42 10 12
f 42 12 18
f 42 18 28
f 42 28 37
f 43 21 13
f 44 20 40
f 44 1 13
f 44 13 20
f 45 31 21
f 45 18 31
f 45 21 43
f 45 43 28
f 45 28 18
f 46 31 29
f 46 29 6
f 46 6 31
f 47 32 13
f 47 13 1
f 48 13 32
f 48 43 13
f 48 28 43
f 48 37 28
f 48 22 37
f 49 30 44
f 49 44 40
f 49 40 15
f 50 49 33
f 50 30 49
f 50 44 30
f 50 1 44
f 51 50 33
f 51 1 50
f 51 47 1
f 51 32 47
f 52 33 22
f 52 51 33
f 52 32 51
f 52 48 32
f 52 22 48
f 53 5 24
f 53 37 22
f 53 22 34
f 54 25 5
f 54 53 34
f 54 5 53
f 54 15 25
f 55 54 34
f 55 15 54
f 55 49 15
f 55 33 49
f 55 34 22
f 55 22 33
f 56 35 23
f 56 14 35
f 56 41 14
f 57 36 5
f 57 5 25
f 58 24 10
f 58 42 37
f 58 10 42
f 58 53 24
f 58 37 53
f 59 38 7
f 59 7 26
f 59 26 40
f 60 35 14
f 60 14 38
f 60 9 35
f 60 38 59
f 60 20 9
f 60 59 40
f 60 40 20
f 61 39 26
f 61 26 7
f 61 7 39
f 62 39 16
f 62 26 39
f 62 40 26
f 63 25 15
f 63 15 40
f 63 57 25
f 63 36 57
f 63 40 62
f 63 62 16
f 63 16 36
f 64 23 27
f 64 27 41
f 64 56 23
f 64 41 56

