# https://github.com/mikedh/trimesh
v -0.00499900 0.00292505 0.06046073
v 0.00079765 0.00612188 0.06047533
v -0.01747162 0.01032945 0.06610754
v -0.00381727 0.03053396 0.06034516
v -0.02094203 0.01992263 0.06026142
v 0.00067817 0.02234378 0.06597579
v -0.01239051 0.00275111 0.06569440
v -0.01495829 0.02596635 0.06027096
v 0.00068001 0.03059192 0.06037410
v -0.00828497 0.00292845 0.06374334
v -0.01227536 0.00274341 0.06072855
v -0.01239584 0.00663258 0.06609976
v 0.00073953 0.01227968 0.06524587
v -0.00827342 0.02513703 0.06442458
v -0.01108651 0.00278069 0.06523629
v -0.00596161 0.00305793 0.06172274
v -0.02327137 0.01624890 0.06033126
v 0.00073135 0.01444742 0.06596495
v 0.00077022 0.00940339 0.06369097
v -0.00964838 0.02862245 0.06080267
v -0.00380046 0.02801383 0.06296576
v -0.01055977 0.02080195 0.06585617
v -0.02245652 0.01770499 0.06026963
v -0.02366039 0.01493196 0.06066759
v 0.00089331 0.00647683 0.06096090
v -0.00978200 0.02896385 0.06031363
v -0.01114495 0.02501496 0.06360939
v -0.00374942 0.03016733 0.06080547
v -0.00819788 0.02714347 0.06295509
v -0.00458464 0.02449793 0.06519341
v 0.00064668 0.02804157 0.06294764
v -0.00612579 0.02234463 0.06591860
v -0.01862128 0.01613929 0.06435848
v -0.01896561 0.01033654 0.06561994
v -0.00754309 0.02975789 0.06033093
v -0.01274483 0.02747828 0.06030243
v -0.01046925 0.02291816 0.06507219
v -0.01847184 0.02047611 0.06217657
v -0.00753275 0.02654679 0.06363395
v -0.01033861 0.02707493 0.06220516
v -0.00453129 0.02868850 0.06225825
v 0.00064524 0.03021943 0.06081078
v -0.00456199 0.02591075 0.06444820
v -0.00828903 0.02369559 0.06517267
v -0.01505731 0.01631189 0.06585550
v -0.02071918 0.01606479 0.06292601
v -0.00747087 0.02939945 0.06079265
v -0.01252882 0.02496416 0.06291884
v -0.01042100 0.02431636 0.06433970
v -0.01489746 0.01916790 0.06509398
v -0.00971223 0.02577042 0.06362687
v -0.00817644 0.02861343 0.06145163
v -0.00531160 0.02587909 0.06439921
v -0.00534633 0.02448113 0.06515617
v -0.00909183 0.02155554 0.06586913
v -0.01735317 0.01254070 0.06587163
v -0.02067958 0.01752146 0.06217838
v -0.01875791 0.01320940 0.06519337
v -0.01773816 0.01903690 0.06360645
v -0.00451515 0.02945254 0.06147784
v -0.01255013 0.02716532 0.06078450
v -0.01472738 0.02415853 0.06217345
v -0.01408079 0.02276563 0.06362421
v -0.01266083 0.02139756 0.06504296
f 5 2 1
f 8 2 5
f 9 8 4
f 9 2 8
f 12 6 3
f 12 3 7
f 15 1 10
f 15 11 1
f 15 7 11
f 15 13 7
f 16 10 1
f 16 1 2
f 16 2 10
f 17 1 11
f 18 12 7
f 18 7 13
f 18 6 12
f 19 15 10
f 19 13 15
f 23 5 1
f 23 1 17
f 24 17 11
f 24 11 7
f 25 9 6
f 25 6 18
f 25 18 13
f 25 13 19
f 25 2 9
f 25 19 10
f 25 10 2
f 26 4 8
f 28 9 4
f 31 6 9
f 32 3 6
f 32 6 30
f 34 24 7
f 34 7 3
f 35 26 20
f 35 4 26
f 36 26 8
f 36 20 26
f 38 8 5
f 40 20 36
f 41 21 28
f 41 39 21
f 41 29 39
f 42 28 21
f 42 21 31
f 42 31 9
f 42 9 28
f 43 30 6
f 43 6 31
f 43 31 21
f 44 14 37
f 45 3 22
f 47 4 35
f 48 27 40
f 49 37 14
f 50 45 22
f 51 39 29
f 51 14 39
f 51 49 14
f 51 27 49
f 51 40 27
f 51 29 40
f 52 40 29
f 52 20 40
f 52 29 41
f 52 47 35
f 52 35 20
f 53 43 21
f 53 21 39
f 53 39 14
f 54 44 32
f 54 32 30
f 54 30 43
f 54 43 53
f 54 53 14
f 54 14 44
f 55 44 37
f 55 37 22
f 55 32 44
f 55 22 3
f 55 3 32
f 56 34 3
f 56 3 45
f 57 23 17
f 57 17 24
f 57 24 46
f 57 5 23
f 57 38 5
f 58 33 46
f 58 34 56
f 58 56 45
f 58 50 33
f 58 45 50
f 58 46 24
f 58 24 34
f 59 46 33
f 59 57 46
f 59 38 57
f 59 33 50
f 60 41 28
f 60 28 4
f 60 4 47
f 60 52 41
f 60 47 52
f 61 36 8
f 61 48 40
f 61 40 36
f 62 8 38
f 62 61 8
f 62 48 61
f 63 27 48
f 63 59 50
f 63 48 62
f 63 62 38
f 63 38 59
f 63 49 27
f 64 50 22
f 64 22 37
f 64 63 50
f 64 37 49
f 64 49 63

