# https://github.com/mikedh/trimesh
v 0.03262476 -0.00032278 0.04619001
v 0.03263871 -0.00031590 0.03096093
v 0.03189821 0.00788485 0.03480907
v 0.02591870 0.00809058 0.04621481
v 0.02591870 -0.00031211 0.03093718
v 0.03138069 0.00791084 0.04612315
v 0.03270064 0.00414091 0.03707567
v 0.03274633 -0.00036238 0.03179213
v 0.02591870 -0.00031211 0.04621481
v 0.02591870 0.00809058 0.03093718
v 0.03267764 0.00340637 0.04308799
v 0.03197433 0.00565859 0.03104843
v 0.03275008 -0.00034550 0.04533425
v 0.03152265 0.00797397 0.03100797
v 0.03191614 0.00562308 0.04608465
v 0.03184070 0.00784305 0.04230566
v 0.03266855 0.00189202 0.03255196
v 0.03268627 0.00338793 0.03481358
v 0.03269668 0.00190724 0.04456628
v 0.03187523 0.00712103 0.03256804
v 0.03267056 0.00413881 0.04158324
v 0.03186975 0.00635131 0.04532843
v 0.03269936 0.00039808 0.03179749
v 0.03266704 0.00261807 0.03331784
v 0.03270608 0.00039796 0.04532592
f 6 4 1
f 8 5 2
f 9 1 4
f 9 4 5
f 9 5 8
f 10 2 5
f 10 5 4
f 13 9 8
f 13 1 9
f 13 8 7
f 13 7 11
f 14 6 3
f 14 12 2
f 14 2 10
f 14 10 4
f 14 4 6
f 15 6 1
f 16 3 6
f 17 2 12
f 18 3 7
f 18 7 8
f 19 13 11
f 19 15 1
f 19 11 15
f 20 14 3
f 20 12 14
f 20 18 12
f 20 3 18
f 21 11 7
f 21 7 3
f 21 3 16
f 22 15 11
f 22 21 16
f 22 11 21
f 22 16 6
f 22 6 15
f 23 17 8
f 23 8 2
f 23 2 17
f 24 17 12
f 24 12 18
f 24 18 8
f 24 8 17
f 25 19 1
f 25 1 13
f 25 13 19

