# https://github.com/mikedh/trimesh
v -0.01456700 -0.01788138 0.02024285
v -0.01407873 -0.01758328 0.00627583
v -0.01456700 0.01649327 0.02024285
v -0.02754094 0.01615256 0.02051675
v -0.02755725 -0.01146562 0.02051852
v -0.01423800 0.01536831 0.00270131
v -0.02460750 -0.01745456 0.02052629
v -0.01436828 0.01626010 0.00316963
v -0.02362113 0.00568103 0.00713279
v -0.02356000 -0.00832041 0.01020470
v -0.02968213 0.00050168 0.01827863
v -0.01920552 0.01008345 0.00350289
v -0.02502212 -0.01130693 0.01470951
v -0.01858774 -0.00312777 0.00283401
v -0.02988500 0.00872630 0.02049172
v -0.02587381 -0.00167464 0.01086024
v -0.01772809 0.01301722 0.00353043
v -0.02434078 0.01373834 0.01166564
v -0.02578902 -0.01356733 0.01840441
v -0.02204490 -0.01421019 0.01251506
v -0.02059133 -0.00825140 0.00656387
v -0.01862513 0.00421565 0.00205232
v -0.01440040 -0.00396266 0.00118493
v -0.02985652 -0.00398786 0.02048184
v -0.02812709 0.00718282 0.01535450
v -0.02655605 -0.00615674 0.01387723
v -0.02283948 -0.00165290 0.00642420
v -0.01560447 0.01452984 0.00293365
v -0.02211173 0.01007175 0.00645393
v -0.02053911 0.01593877 0.00799382
v -0.02728159 -0.00836401 0.01687347
v -0.02279603 -0.01200080 0.01172932
v -0.01986153 -0.01728644 0.01247343
v -0.02351738 -0.01501260 0.01546572
v -0.01845080 -0.00747253 0.00434004
v -0.02061082 -0.01271515 0.00951397
v -0.01995484 0.00785386 0.00348361
v -0.01420392 -0.01070620 0.00344512
v -0.01440196 0.01023270 0.00108648
v -0.01648918 -0.00095163 0.00133952
v -0.02966834 0.00419508 0.01829797
v -0.02740022 0.00348116 0.01307360
v -0.02583116 0.00937061 0.01164134
v -0.02508096 -0.00538253 0.01088883
v -0.02582299 -0.00833397 0.01389799
v -0.02809865 -0.00244601 0.01536899
v -0.02513709 -0.00020978 0.00932952
v -0.01994996 -0.00459340 0.00430222
v -0.02280384 -0.00611235 0.00797090
v -0.01929797 -0.00091575 0.00284163
v -0.02362528 -0.00019239 0.00715099
v -0.01764767 0.01592792 0.00506232
v -0.01490633 0.01526343 0.00293123
v -0.02063117 0.01225709 0.00576960
v -0.02362422 0.01600403 0.01237885
v -0.02734279 -0.01137959 0.01983248
v -0.02579708 -0.01131309 0.01617253
v -0.02914648 -0.00697807 0.02048545
v -0.02354136 -0.01054551 0.01171293
v -0.02428197 -0.01278673 0.01471451
v -0.02428803 -0.01579344 0.01769622
v -0.02206042 -0.01726044 0.01547293
v -0.01843190 -0.00898737 0.00512830
v -0.02137275 -0.01051677 0.00876823
f 1 2 3
f 6 3 2
f 7 2 1
f 7 1 3
f 7 3 4
f 7 4 5
f 8 4 3
f 8 3 6
f 15 5 4
f 19 7 5
f 24 15 11
f 24 5 15
f 33 2 7
f 34 32 20
f 36 20 32
f 36 33 20
f 36 2 33
f 37 22 9
f 37 12 22
f 37 29 12
f 37 9 29
f 38 23 6
f 38 6 2
f 38 2 35
f 38 35 14
f 38 14 23
f 39 6 23
f 39 28 6
f 39 22 12
f 39 12 17
f 39 17 28
f 40 23 14
f 40 39 23
f 40 22 39
f 41 11 15
f 41 15 25
f 42 41 25
f 42 11 41
f 43 42 25
f 43 9 42
f 43 29 9
f 43 18 29
f 43 4 18
f 43 25 15
f 43 15 4
f 44 26 16
f 44 16 27
f 45 31 26
f 45 44 10
f 45 26 44
f 46 24 11
f 46 16 26
f 46 42 16
f 46 11 42
f 46 26 31
f 47 27 16
f 47 42 9
f 47 16 42
f 48 35 21
f 48 14 35
f 49 44 27
f 49 10 44
f 49 48 21
f 49 27 48
f 50 48 27
f 50 14 48
f 50 40 14
f 50 22 40
f 51 9 22
f 51 50 27
f 51 22 50
f 51 47 9
f 51 27 47
f 52 28 17
f 52 8 28
f 52 30 8
f 53 28 8
f 53 8 6
f 53 6 28
f 54 17 12
f 54 12 29
f 54 29 18
f 54 18 30
f 54 52 17
f 54 30 52
f 55 30 18
f 55 18 4
f 55 4 8
f 55 8 30
f 56 19 5
f 57 56 31
f 57 19 56
f 57 45 13
f 57 31 45
f 58 5 24
f 58 46 31
f 58 24 46
f 58 56 5
f 58 31 56
f 59 45 10
f 59 13 45
f 60 32 34
f 60 59 32
f 60 13 59
f 60 57 13
f 61 7 19
f 61 60 34
f 61 19 57
f 61 57 60
f 62 34 20
f 62 20 33
f 62 61 34
f 62 33 7
f 62 7 61
f 63 35 2
f 63 2 21
f 63 21 35
f 64 21 2
f 64 2 36
f 64 49 21
f 64 10 49
f 64 36 32
f 64 59 10
f 64 32 59

