# https://github.com/mikedh/trimesh
v 0.03194472 -0.01006952 0.03107369
v 0.03185735 -0.00856436 0.02880812
v 0.03152265 0.00797397 0.03100797
v 0.02591870 0.00809058 0.03093718
v 0.02591870 -0.01024257 0.03093718
v 0.02863100 0.00873493 0.01987638
v 0.03197433 0.00565859 0.03104843
v 0.02850483 -0.01094662 0.01916924
v 0.03191194 -0.00559557 0.02731162
v 0.03107497 0.00636901 0.02656251
v 0.03110464 -0.01004865 0.02655805
v 0.02591870 -0.00031211 0.02024285
v 0.03009559 -0.00032504 0.02038386
v 0.03108019 0.00790021 0.02805761
v 0.03187363 0.00191985 0.02731304
v 0.03185969 -0.00930204 0.02957432
v 0.03108320 -0.00928243 0.02583834
v 0.03031376 0.00339044 0.02207129
v 0.02958605 0.00787977 0.02205212
v 0.03187534 0.00564164 0.03029799
v 0.03111805 -0.00037865 0.02357059
v 0.03182965 -0.01004607 0.03032831
v 0.03029617 -0.01002622 0.02360165
v 0.02950430 0.00713941 0.02134342
v 0.03106909 0.00414804 0.02505670
v 0.03185420 0.00339695 0.02806156
v 0.03030800 -0.00482228 0.02132290
v 0.03031715 0.00113980 0.02132924
v 0.02926975 0.00798930 0.02116642
v 0.03032829 0.00637157 0.02356442
v 0.03111121 -0.00331920 0.02357668
v 0.03111455 -0.00631830 0.02432201
v 0.02957098 -0.00854343 0.02058348
v 0.02954807 -0.01003528 0.02134689
v 0.03032175 -0.00705495 0.02207604
v 0.02919994 -0.01012546 0.02044252
f 5 1 4
f 6 4 3
f 7 3 4
f 7 4 1
f 8 1 5
f 9 7 1
f 9 1 2
f 11 1 8
f 12 8 5
f 12 5 4
f 12 4 6
f 12 6 8
f 13 8 6
f 14 6 3
f 15 7 9
f 16 11 2
f 16 2 1
f 17 9 2
f 17 2 11
f 19 6 14
f 20 14 3
f 20 3 7
f 20 10 14
f 21 15 9
f 22 16 1
f 22 1 11
f 22 11 16
f 23 17 11
f 23 11 8
f 24 13 6
f 25 21 18
f 25 15 21
f 26 10 20
f 26 25 10
f 26 15 25
f 26 20 7
f 26 7 15
f 28 21 13
f 28 18 21
f 28 24 18
f 28 13 24
f 29 24 6
f 29 6 19
f 29 19 24
f 30 10 25
f 30 19 14
f 30 14 10
f 30 24 19
f 30 25 18
f 30 18 24
f 31 21 9
f 31 27 13
f 31 13 21
f 32 9 17
f 32 17 23
f 32 31 9
f 32 27 31
f 33 8 13
f 33 13 27
f 34 33 23
f 34 23 8
f 35 32 23
f 35 23 33
f 35 33 27
f 35 27 32
f 36 34 8
f 36 8 33
f 36 33 34

