# https://github.com/mikedh/trimesh
v 0.00048713 -0.00044025 0.06071504
v 0.00071062 -0.00031211 0.05079809
v 0.00071062 0.01802103 0.06072855
v -0.02285062 0.01749922 0.05996665
v -0.03142676 -0.00029285 0.05059233
v 0.00071062 0.01802103 0.05079809
v -0.02682598 -0.00025636 0.06015858
v -0.02797244 0.01783693 0.05067867
v -0.02913249 0.01543577 0.05056283
v -0.02437947 0.01456307 0.06000726
v -0.02845502 0.01694928 0.05058596
v -0.02966653 0.00645263 0.05495723
v -0.02589644 0.01750167 0.05561781
v -0.03141787 0.00498869 0.05061073
v -0.03045903 -0.00028094 0.05352082
v -0.02666261 0.00640880 0.06004832
v -0.02581388 0.01602004 0.05705871
v -0.02740361 0.01751289 0.05265449
v -0.03042947 0.01017372 0.05124921
v -0.03062836 0.01021713 0.05057035
v -0.02830206 -0.00025286 0.05796280
v -0.03123828 0.00496791 0.05126815
v -0.02591303 0.01017636 0.06002224
v -0.02805593 0.01676826 0.05194459
v -0.02733707 0.01455233 0.05561397
v -0.02969278 0.01317149 0.05128076
v -0.03045336 0.00498616 0.05348613
v -0.02819167 0.00570394 0.05788775
v -0.03122255 -0.00028730 0.05129700
v -0.03047493 0.00717475 0.05275000
v -0.02893782 0.01535287 0.05124241
v -0.02807652 0.01456737 0.05414442
v -0.02813083 0.01091486 0.05638149
v -0.02734750 0.01233191 0.05708847
v -0.02989179 0.01322950 0.05057790
v -0.02893366 0.00646187 0.05642195
v -0.02743790 0.00343262 0.05936284
v -0.02740502 0.00794012 0.05862344
v -0.02964236 0.00868441 0.05419539
v -0.02882696 0.01240213 0.05416050
v -0.02582110 0.01380148 0.05852889
v -0.02743222 0.00048562 0.05938006
v -0.02663237 0.00940424 0.05929088
v -0.02660094 0.01160866 0.05854618
v -0.02817543 0.00867308 0.05715168
v -0.02884827 0.01092254 0.05493846
v -0.02958278 0.01166423 0.05270422
v -0.02583060 0.01234915 0.05926615
f 1 2 3
f 5 2 1
f 6 3 2
f 7 1 3
f 8 4 3
f 8 3 6
f 9 6 2
f 9 2 5
f 10 7 3
f 10 3 4
f 11 8 6
f 11 6 9
f 13 4 8
f 15 5 1
f 15 1 7
f 17 10 4
f 17 4 13
f 18 13 8
f 20 9 5
f 20 5 14
f 21 15 7
f 22 14 5
f 22 20 14
f 23 16 7
f 23 7 10
f 24 18 8
f 24 8 11
f 25 17 13
f 25 13 18
f 26 20 19
f 27 15 21
f 27 22 15
f 29 22 5
f 29 5 15
f 29 15 22
f 30 19 20
f 30 20 22
f 30 22 27
f 30 27 12
f 31 24 11
f 31 11 9
f 31 9 26
f 32 25 18
f 32 18 24
f 32 24 31
f 32 31 26
f 34 17 25
f 35 26 9
f 35 9 20
f 35 20 26
f 36 27 21
f 36 21 28
f 36 12 27
f 37 28 21
f 37 7 16
f 37 16 28
f 38 28 16
f 39 30 12
f 39 19 30
f 40 32 26
f 40 33 34
f 40 34 25
f 40 25 32
f 41 10 17
f 41 17 34
f 42 37 21
f 42 21 7
f 42 7 37
f 43 38 16
f 43 16 23
f 44 34 33
f 44 38 43
f 44 43 23
f 44 41 34
f 45 36 28
f 45 28 38
f 45 39 12
f 45 12 36
f 45 44 33
f 45 38 44
f 46 33 40
f 46 45 33
f 46 39 45
f 47 40 26
f 47 26 19
f 47 19 39
f 47 46 40
f 47 39 46
f 48 44 23
f 48 23 10
f 48 10 41
f 48 41 44

