# https://github.com/mikedh/trimesh
v -0.02373357 -0.00565928 0.03093718
v -0.02373357 -0.00565928 0.02635390
v -0.02373357 0.00809058 0.03093718
v -0.03248715 0.00803365 0.03098007
v -0.03187438 -0.00560005 0.03096681
v -0.02373357 0.00809058 0.02635390
v -0.03206069 -0.00473964 0.03103753
v -0.03202614 -0.00023474 0.02650581
v -0.03172645 0.00802200 0.02644735
v -0.03201731 -0.00172324 0.02728681
v -0.03201006 0.00573329 0.02654387
v -0.03119602 -0.00543802 0.02653963
v -0.03205405 0.00796830 0.02804552
v -0.03197361 -0.00472348 0.03028406
v -0.03200518 0.00722148 0.02728793
f 1 2 3
f 5 2 1
f 6 3 2
f 6 4 3
f 7 1 3
f 7 3 4
f 7 5 1
f 9 6 2
f 9 2 8
f 9 4 6
f 10 7 4
f 10 4 8
f 11 9 8
f 11 8 4
f 12 2 5
f 12 10 8
f 12 8 2
f 13 4 9
f 14 12 5
f 14 5 7
f 14 7 10
f 14 10 12
f 15 11 4
f 15 4 13
f 15 13 9
f 15 9 11

