# https://github.com/mikedh/trimesh
v -0.01303924 0.01649327 0.02024285
v -0.01301232 0.01645726 0.00275396
v -0.01264535 0.02957204 0.01527469
v -0.01302442 0.03174202 0.02025423
v -0.02735304 0.01639491 0.02031492
v -0.01267228 0.03109490 0.01824422
v -0.01266484 0.02055797 0.00491166
v -0.01715972 0.01611470 0.00478800
v -0.01779859 0.02874028 0.02058064
v -0.01281476 0.01772193 0.00329624
v -0.01496751 0.01615615 0.00337210
v -0.02690830 0.01617104 0.01899027
v -0.01760966 0.02407587 0.01247949
v -0.02682150 0.01761604 0.02053711
v -0.01419718 0.03117231 0.02047775
v -0.01617989 0.02932040 0.01917807
v -0.01331153 0.02039565 0.00513401
v -0.01407978 0.01744046 0.00367195
v -0.02303891 0.01610120 0.01153309
v -0.02659425 0.01753164 0.01986460
v -0.01561369 0.03029650 0.02054069
v -0.01409094 0.03098858 0.01984289
v -0.01396568 0.02930070 0.01619372
v -0.01839344 0.02634768 0.01693876
v -0.01696898 0.01672255 0.00502978
v -0.01265625 0.02658720 0.01081038
v -0.01483081 0.01669541 0.00361137
v -0.02279625 0.01969915 0.01464109
v -0.01328433 0.03081520 0.01836546
v -0.01548102 0.03010055 0.01985896
v -0.01763506 0.02781322 0.01841530
v -0.02227698 0.02432161 0.02053744
v -0.01685414 0.02631951 0.01470097
v -0.01473072 0.02111192 0.00659580
v -0.01984123 0.01963602 0.01027036
v -0.01470328 0.02703566 0.01326547
v -0.02390483 0.01616531 0.01297655
v -0.02433817 0.01969608 0.01761869
v -0.02056988 0.02263785 0.01467568
v -0.01396680 0.03005236 0.01765659
v -0.01764777 0.02855068 0.01990342
v -0.01614030 0.02778650 0.01617193
v -0.02454345 0.02134114 0.02054834
v -0.02212267 0.02416243 0.01989275
v -0.01470582 0.02409803 0.00953347
v -0.01762480 0.01812898 0.00657774
v -0.02130186 0.01747312 0.01018749
v -0.01325103 0.02930251 0.01542692
v -0.01391470 0.02702682 0.01248613
v -0.01614797 0.02481725 0.01176368
v -0.02279269 0.01672611 0.01169500
v -0.02664168 0.01680165 0.01910407
v -0.02581499 0.01894350 0.01990115
v -0.02130116 0.02118364 0.01393214
v -0.02599374 0.01907537 0.02054699
v -0.02061646 0.02411705 0.01690134
v -0.02280162 0.02193438 0.01763744
v -0.01835649 0.02334451 0.01248989
v -0.01831247 0.01815659 0.00728102
v -0.02084424 0.01612618 0.00850863
v -0.01326556 0.02632773 0.01096856
v -0.01539423 0.02482455 0.01099732
v -0.02434819 0.02120534 0.01986755
v -0.02206908 0.02338298 0.01842305
f 6 1 3
f 6 4 1
f 7 3 1
f 10 7 1
f 10 1 2
f 11 2 1
f 11 1 8
f 11 10 2
f 12 1 5
f 14 5 1
f 14 1 9
f 15 1 4
f 18 7 10
f 18 10 11
f 18 17 7
f 19 8 1
f 19 1 12
f 20 5 14
f 21 9 1
f 21 1 15
f 21 16 9
f 22 15 4
f 22 21 15
f 25 11 8
f 26 3 7
f 27 18 11
f 27 17 18
f 27 25 17
f 27 11 25
f 29 22 4
f 29 4 6
f 29 6 3
f 29 3 23
f 30 16 21
f 30 21 22
f 33 13 24
f 34 17 25
f 34 26 7
f 34 7 17
f 37 19 12
f 38 28 37
f 40 29 23
f 40 23 16
f 40 16 30
f 40 30 22
f 40 22 29
f 41 31 24
f 41 24 9
f 41 9 16
f 41 16 31
f 42 31 16
f 42 16 23
f 42 36 33
f 42 23 36
f 42 33 24
f 42 24 31
f 43 9 32
f 44 32 9
f 44 9 24
f 44 43 32
f 45 26 34
f 45 34 35
f 46 34 25
f 46 25 8
f 48 36 23
f 48 23 3
f 49 3 26
f 49 48 3
f 49 36 48
f 50 13 33
f 50 33 36
f 51 37 28
f 51 19 37
f 51 47 19
f 51 28 47
f 52 20 38
f 52 12 5
f 52 5 20
f 52 38 37
f 52 37 12
f 53 38 20
f 53 20 14
f 54 47 28
f 54 35 47
f 55 14 9
f 55 9 43
f 55 53 14
f 55 43 53
f 56 44 24
f 57 28 38
f 57 54 28
f 57 39 54
f 58 45 35
f 58 13 45
f 58 35 54
f 58 54 39
f 58 39 56
f 58 56 24
f 58 24 13
f 59 35 34
f 59 34 46
f 59 46 8
f 60 8 19
f 60 19 47
f 60 59 8
f 60 47 35
f 60 35 59
f 61 49 26
f 61 26 45
f 62 50 36
f 62 36 49
f 62 49 61
f 62 61 45
f 62 45 13
f 62 13 50
f 63 53 43
f 63 38 53
f 63 57 38
f 64 44 56
f 64 56 39
f 64 39 57
f 64 57 63
f 64 63 43
f 64 43 44

