# https://github.com/mikedh/trimesh
v 0.03207066 -0.01010096 0.04609432
v 0.03270196 -0.00930519 0.04008215
v 0.03262476 -0.00032278 0.04619001
v 0.02591870 -0.00031211 0.04621481
v 0.02591870 -0.01024257 0.04010376
v 0.02591870 -0.00031211 0.04010376
v 0.02591870 -0.01024257 0.04621481
v 0.03270165 -0.00636733 0.04532971
v 0.03252264 -0.01018761 0.04009691
v 0.03318702 -0.00032562 0.04009393
v 0.03267484 -0.00858532 0.04309156
v 0.03267794 -0.00485378 0.04607969
v 0.03267398 -0.00932247 0.04082749
v 0.03275008 -0.00034550 0.04533425
v 0.03267302 -0.00111256 0.04608700
f 6 4 3
f 6 5 4
f 6 2 5
f 7 1 3
f 7 3 4
f 7 4 5
f 9 5 2
f 9 7 5
f 9 1 7
f 10 6 3
f 10 2 6
f 11 8 1
f 11 10 8
f 11 2 10
f 11 1 9
f 12 3 1
f 12 1 8
f 12 8 10
f 13 11 9
f 13 9 2
f 13 2 11
f 14 12 10
f 14 10 3
f 15 14 3
f 15 3 12
f 15 12 14

