# https://github.com/mikedh/trimesh
v 0.00071062 -0.01788138 0.01031239
v 0.00070228 -0.01779631 0.00064932
v 0.00071062 -0.00031211 0.01031239
v -0.00616431 -0.00031211 0.01031239
v -0.00616431 -0.01788138 0.01031239
v -0.00651392 -0.00032611 0.00239551
v 0.00075368 -0.01045247 0.00048602
v 0.00059518 -0.00010550 0.00318941
v -0.00603840 -0.01774924 0.00156220
v 0.00071988 -0.01690417 0.00040186
v -0.00446988 -0.01255613 0.00048562
v -0.00223910 -0.01691171 0.00053517
v -0.00609738 -0.00884925 0.00123304
v -0.00302847 -0.01115609 0.00051009
v -0.00513936 -0.01760738 0.00124533
v -0.00446502 -0.01475709 0.00051434
v -0.00370167 -0.01616229 0.00057734
v -0.00590614 -0.01684654 0.00123573
f 1 3 4
f 5 2 1
f 5 1 4
f 6 5 4
f 7 3 1
f 8 6 4
f 8 4 3
f 8 7 6
f 8 3 7
f 9 2 5
f 9 5 6
f 10 7 1
f 10 1 2
f 11 7 10
f 12 10 2
f 13 9 6
f 13 6 11
f 14 11 6
f 14 6 7
f 14 7 11
f 15 12 2
f 15 2 9
f 16 11 10
f 16 10 12
f 17 16 12
f 17 12 15
f 18 15 9
f 18 9 13
f 18 13 11
f 18 11 16
f 18 17 15
f 18 16 17

