# https://github.com/mikedh/trimesh
v -0.02373357 0.00809058 0.05079809
v -0.02373357 0.00809058 0.02635390
v -0.02373357 0.01802103 0.05079809
v -0.02819301 0.01754650 0.05049029
v -0.03209608 0.00797058 0.04607134
v -0.02859973 0.01778695 0.02647358
v -0.03101881 0.00802611 0.05069506
v -0.03127266 0.00795255 0.04980232
v -0.02373357 0.01802103 0.02635390
v -0.02964050 0.01751065 0.04452574
v -0.03172645 0.00802200 0.02644735
v -0.02888763 0.01606299 0.05051291
v -0.03118916 0.01463225 0.03405455
v -0.03205405 0.00796830 0.02804552
v -0.03038578 0.01385576 0.04823071
v -0.02883196 0.01751958 0.04826454
v -0.02970603 0.01758456 0.03182616
v -0.03114707 0.01314894 0.02955157
v -0.03196459 0.01169549 0.03329802
v -0.03036476 0.01244105 0.04974368
v -0.03197370 0.01172108 0.04229708
v -0.02964704 0.01532169 0.04899929
v -0.03043973 0.01683748 0.03931496
v -0.02973301 0.01535308 0.02657397
v -0.03114058 0.01165993 0.02734117
v -0.03039316 0.01606161 0.03183415
v -0.03194086 0.00944348 0.02881227
v -0.03116143 0.00869865 0.04977245
v -0.02971581 0.01389219 0.05051100
v -0.03123189 0.01318431 0.04531930
v -0.03044579 0.01684787 0.03707624
v -0.03119892 0.01464728 0.04156642
v -0.02960477 0.01679297 0.02883284
v -0.03114982 0.01091262 0.02657238
v -0.03037773 0.01458447 0.02807071
v -0.03193996 0.00869895 0.02804943
v -0.03047962 0.01093893 0.05053177
v -0.03198793 0.00871832 0.04605205
v -0.03040760 0.01606598 0.04377950
v -0.03123666 0.01392551 0.04382760
v -0.02892178 0.01757193 0.02734739
v -0.02962517 0.01605182 0.02736188
v -0.03196394 0.01096166 0.04378790
v -0.02904389 0.01688867 0.02655778
f 1 2 3
f 7 1 3
f 8 2 1
f 8 1 7
f 9 6 3
f 9 3 2
f 10 4 3
f 10 3 6
f 11 9 2
f 11 6 9
f 12 7 3
f 12 3 4
f 14 8 5
f 14 11 2
f 14 2 8
f 16 12 4
f 16 4 10
f 17 10 6
f 19 14 5
f 19 13 18
f 21 19 5
f 22 12 16
f 22 16 10
f 23 10 17
f 24 6 11
f 26 18 13
f 27 19 18
f 27 14 19
f 27 18 25
f 28 8 7
f 29 7 12
f 29 12 22
f 29 22 15
f 29 15 20
f 30 28 20
f 30 20 15
f 31 23 17
f 31 26 13
f 31 17 26
f 32 13 19
f 32 19 21
f 32 31 13
f 32 23 31
f 33 26 17
f 34 25 24
f 34 24 11
f 34 27 25
f 35 25 18
f 35 24 25
f 35 18 26
f 35 26 33
f 36 11 14
f 36 14 27
f 36 34 11
f 36 27 34
f 37 28 7
f 37 20 28
f 37 29 20
f 37 7 29
f 38 5 8
f 38 8 28
f 38 28 30
f 39 22 10
f 39 10 23
f 39 23 32
f 39 30 15
f 39 15 22
f 40 32 21
f 40 21 30
f 40 39 32
f 40 30 39
f 41 33 17
f 41 17 6
f 42 35 33
f 42 24 35
f 42 33 41
f 43 38 30
f 43 30 21
f 43 21 5
f 43 5 38
f 44 42 41
f 44 41 6
f 44 6 24
f 44 24 42

