# https://github.com/mikedh/trimesh
v 0.03110466 -0.01007091 0.05055105
v 0.03207066 -0.01010096 0.04609432
v 0.03112271 0.00784546 0.04756803
v 0.02591870 0.00809058 0.05079809
v 0.02591870 -0.01024257 0.04621481
v 0.03038231 0.00785388 0.05054762
v 0.03186778 -0.00035656 0.04980827
v 0.02591870 -0.01024257 0.05079809
v 0.02591870 0.00809058 0.04621481
v 0.03138069 0.00791084 0.04612315
v 0.03107335 0.00486021 0.05053041
v 0.03188046 -0.00559760 0.04981634
v 0.03205571 0.00489722 0.04610593
v 0.03186598 -0.00782950 0.04903798
v 0.03186666 0.00338554 0.04829365
v 0.03193445 0.00488080 0.04680418
v 0.03182000 -0.01006004 0.04756248
v 0.03187817 0.00188549 0.04904898
f 8 5 2
f 8 2 1
f 8 1 4
f 8 4 5
f 9 2 5
f 9 5 4
f 10 6 3
f 10 4 6
f 10 9 4
f 11 6 4
f 11 4 1
f 11 3 6
f 12 11 1
f 12 7 11
f 13 2 9
f 13 9 10
f 13 12 2
f 13 7 12
f 14 12 1
f 14 2 12
f 16 13 10
f 16 10 3
f 16 3 11
f 16 15 13
f 16 11 15
f 17 14 1
f 17 1 2
f 17 2 14
f 18 15 11
f 18 11 7
f 18 7 13
f 18 13 15

