# https://github.com/mikedh/trimesh
v 0.02631759 -0.01768846 0.02039111
v 0.02905973 -0.01084432 0.02050728
v 0.01598824 -0.01788138 0.02024285
v 0.01598824 -0.00031211 0.02024285
v 0.01564961 -0.00937898 0.00181855
v 0.02753005 -0.01527817 0.02051327
v 0.02582363 -0.00040588 0.01161884
v 0.01576107 -0.01768960 0.00525040
v 0.01554597 -0.01604639 0.00403341
v 0.02977700 -0.00709115 0.02050160
v 0.02681481 -0.01680082 0.02048914
v 0.01572736 -0.00046799 0.00247006
v 0.02274606 -0.00928621 0.00798804
v 0.03009559 -0.00032504 0.02038386
v 0.01565106 -0.00274490 0.00186974
v 0.01903553 -0.01220290 0.00505463
v 0.02565927 -0.01215292 0.01389104
v 0.02881086 -0.00557868 0.01757409
v 0.02355599 -0.00041564 0.00868702
v 0.01554785 -0.01453080 0.00329742
v 0.02055992 -0.00706722 0.00503715
v 0.01826334 -0.01509100 0.00580868
v 0.02722188 -0.01297164 0.01763476
v 0.02492455 -0.01586527 0.01543472
v 0.02958893 -0.00332953 0.01908004
v 0.02873432 -0.00853636 0.01836152
v 0.02500239 -0.00854333 0.01090719
v 0.01991900 -0.00050874 0.00503774
v 0.01758824 -0.01149198 0.00359973
v 0.02129357 -0.01002067 0.00651287
v 0.01770122 -0.00351501 0.00285794
v 0.02204818 -0.00629839 0.00647163
v 0.01675396 -0.01726524 0.00580702
v 0.01828180 -0.01365205 0.00504479
v 0.02266409 -0.01510617 0.01097331
v 0.02570458 -0.01659634 0.01766232
v 0.02568751 -0.01587484 0.01690984
v 0.02954377 -0.00704641 0.01983350
v 0.02960509 -0.00034353 0.01908878
v 0.02723762 -0.01072299 0.01611855
v 0.02575301 -0.00631923 0.01160916
v 0.01561057 -0.01233831 0.00251667
v 0.01907697 -0.00999606 0.00433318
v 0.01769369 -0.00784840 0.00283371
v 0.01628290 -0.00280018 0.00215325
v 0.02060068 -0.00347136 0.00503849
v 0.02206212 -0.00343689 0.00648135
v 0.02126743 -0.00703585 0.00574691
v 0.02424476 -0.00706779 0.00940827
v 0.01603025 -0.01584943 0.00429758
v 0.02129337 -0.01736271 0.01090821
v 0.01972582 -0.01508378 0.00726773
v 0.01609066 -0.01438269 0.00361057
v 0.02493112 -0.01068351 0.01165015
v 0.02270251 -0.01142497 0.00875342
v 0.02659281 -0.01671651 0.01981350
v 0.02493126 -0.01735730 0.01690538
v 0.02730805 -0.01517650 0.01983764
v 0.02643193 -0.01216234 0.01542392
v 0.02871996 -0.00999605 0.01911888
v 0.02881346 -0.01078546 0.01983940
v 0.02798970 -0.00704400 0.01612677
v 0.01687525 -0.01075277 0.00287576
v 0.01833484 -0.00927504 0.00357005
f 6 4 3
f 8 1 3
f 9 3 4
f 9 8 3
f 10 6 2
f 10 4 6
f 11 6 3
f 11 3 1
f 14 4 10
f 15 4 12
f 19 12 4
f 19 4 14
f 19 14 7
f 20 15 5
f 20 9 4
f 20 4 15
f 25 14 10
f 25 18 7
f 26 10 2
f 28 12 19
f 34 29 16
f 35 17 24
f 37 24 17
f 38 25 10
f 38 18 25
f 38 26 18
f 38 10 26
f 39 25 7
f 39 7 14
f 39 14 25
f 41 7 18
f 42 20 5
f 43 16 29
f 43 30 16
f 43 21 30
f 45 5 15
f 45 15 12
f 45 12 28
f 45 28 31
f 45 44 5
f 45 31 44
f 46 31 28
f 46 44 31
f 46 21 44
f 46 32 21
f 47 19 7
f 47 32 46
f 47 46 28
f 47 28 19
f 48 30 21
f 48 21 32
f 48 32 13
f 48 13 30
f 49 27 13
f 49 13 32
f 49 41 27
f 49 7 41
f 49 47 7
f 49 32 47
f 50 33 8
f 50 8 9
f 50 22 33
f 50 34 22
f 51 1 8
f 51 8 33
f 51 35 24
f 52 34 16
f 52 22 34
f 52 35 51
f 52 51 33
f 52 33 22
f 53 29 34
f 53 42 29
f 53 20 42
f 53 34 50
f 53 50 9
f 53 9 20
f 54 17 35
f 54 40 17
f 54 27 40
f 55 30 13
f 55 54 35
f 55 13 27
f 55 27 54
f 55 35 52
f 55 52 16
f 55 16 30
f 56 11 1
f 56 1 36
f 56 6 11
f 57 37 36
f 57 24 37
f 57 51 24
f 57 36 1
f 57 1 51
f 58 37 23
f 58 36 37
f 58 56 36
f 58 6 56
f 58 23 2
f 58 2 6
f 59 40 23
f 59 17 40
f 59 37 17
f 59 23 37
f 60 40 26
f 60 26 2
f 61 2 23
f 61 23 40
f 61 60 2
f 61 40 60
f 62 41 18
f 62 18 26
f 62 26 40
f 62 40 27
f 62 27 41
f 63 42 5
f 63 29 42
f 63 5 44
f 64 44 21
f 64 21 43
f 64 63 44
f 64 43 29
f 64 29 63

