# https://github.com/mikedh/trimesh
v 0.03033195 -0.00031752 0.02106573
v 0.02960509 -0.00034353 0.01908878
v 0.02603306 0.01692879 0.02123736
v 0.00071062 0.01725715 0.02100673
v 0.00071062 -0.00031211 0.02100673
v 0.00078110 0.01719622 0.00104709
v 0.02873348 0.00933321 0.02059451
v 0.02973372 0.00568165 0.02126080
v 0.02744071 0.01387940 0.02127327
v 0.00059518 -0.00010550 0.00318941
v 0.01598966 0.01466232 0.00430984
v 0.02954515 0.00339035 0.01984134
v 0.02895947 0.00940282 0.02128614
v 0.00856222 -0.00051577 0.00180666
v 0.01384769 0.01683356 0.00357344
v 0.02191925 0.01456690 0.01097495
v 0.02958026 0.00037032 0.01911047
v 0.02802976 0.00710000 0.01763532
v 0.02951069 0.00564760 0.02057068
v 0.02721002 0.01234591 0.01915375
v 0.01632407 -0.00053025 0.00274537
v 0.00080934 0.01284802 0.00124610
v 0.01106107 0.01692716 0.00204172
v 0.02040942 0.01676936 0.01023667
v 0.02880709 0.00186774 0.01763491
v 0.02874237 0.00488841 0.01838129
v 0.02722454 0.01382444 0.02058272
v 0.02795295 0.01008144 0.01916821
v 0.02290963 -0.00044486 0.00788096
v 0.00984944 0.00824108 0.00124151
v 0.01248752 0.01479078 0.00207178
v 0.02190647 0.01677118 0.01245317
v 0.01965738 0.01462012 0.00799165
v 0.02800667 0.00261992 0.01616207
v 0.02569145 0.01158343 0.01542067
v 0.02075986 -0.00048439 0.00570111
v 0.00766778 0.00832616 0.00128524
v 0.00885594 0.01695928 0.00132244
v 0.01423021 -0.00049410 0.00185067
v 0.01315784 0.01618463 0.00284927
v 0.01531133 0.01395757 0.00360385
v 0.02497062 0.01677885 0.01837339
v 0.01966245 0.01603689 0.00876565
v 0.02496550 0.00785755 0.01252003
v 0.02582363 -0.00040588 0.01161884
v 0.02644215 0.01158567 0.01689777
v 0.02417790 0.01235343 0.01318563
v 0.01972249 0.01250018 0.00724982
v 0.01109086 0.01337491 0.00129782
v 0.01174081 0.01620803 0.00209075
v 0.01527301 0.01607603 0.00428094
v 0.01324073 0.01186731 0.00206727
v 0.01752768 0.01249156 0.00504187
v 0.01388228 0.01473665 0.00285224
v 0.02567214 0.01602266 0.01913920
v 0.02490289 0.01379071 0.01543421
v 0.02572039 0.00862660 0.01397045
v 0.02506140 0.00183052 0.01098028
v 0.02193522 0.01312540 0.01024004
v 0.01047737 0.00895806 0.00124537
v 0.01030754 0.01550301 0.00135183
v 0.02583549 0.01684061 0.02055886
v 0.02565914 0.01377807 0.01691584
v 0.02649706 0.00485785 0.01394331
f 5 2 1
f 6 4 3
f 8 5 1
f 9 3 4
f 9 4 5
f 10 5 4
f 10 4 6
f 12 8 1
f 13 9 5
f 13 5 8
f 14 5 10
f 17 12 1
f 17 1 2
f 19 13 8
f 19 7 13
f 19 18 7
f 19 8 12
f 20 13 7
f 21 2 5
f 21 5 14
f 22 14 10
f 22 10 6
f 23 6 3
f 24 23 3
f 24 15 23
f 25 12 17
f 25 17 2
f 26 19 12
f 26 18 19
f 26 12 25
f 27 9 13
f 27 13 20
f 27 3 9
f 28 20 7
f 28 7 18
f 32 24 3
f 32 16 24
f 34 26 25
f 34 18 26
f 36 2 21
f 37 22 6
f 37 6 30
f 37 30 14
f 37 14 22
f 38 6 23
f 39 21 14
f 39 14 30
f 40 23 15
f 41 36 21
f 42 32 3
f 43 24 16
f 43 16 33
f 45 34 25
f 45 25 2
f 45 36 29
f 45 2 36
f 46 28 18
f 46 18 35
f 46 20 28
f 47 16 32
f 48 29 36
f 48 11 33
f 49 6 38
f 50 40 31
f 50 23 40
f 51 40 15
f 51 15 24
f 51 24 43
f 51 43 33
f 51 33 11
f 52 41 21
f 52 49 31
f 52 21 39
f 52 39 49
f 53 41 11
f 53 36 41
f 53 48 36
f 53 11 48
f 54 31 40
f 54 40 51
f 54 51 11
f 54 11 41
f 54 52 31
f 54 41 52
f 56 32 42
f 56 47 32
f 56 35 47
f 56 46 35
f 57 35 18
f 57 47 35
f 57 44 47
f 58 45 29
f 58 48 44
f 58 29 48
f 59 47 44
f 59 16 47
f 59 44 48
f 59 48 33
f 59 33 16
f 60 30 6
f 60 6 49
f 60 49 39
f 60 39 30
f 61 50 31
f 61 31 49
f 61 49 38
f 61 38 23
f 61 23 50
f 62 55 42
f 62 42 3
f 62 3 27
f 62 27 55
f 63 55 27
f 63 27 20
f 63 20 46
f 63 46 56
f 63 56 42
f 63 42 55
f 64 57 18
f 64 18 34
f 64 34 45
f 64 45 58
f 64 58 44
f 64 44 57

