# https://github.com/mikedh/trimesh
v 0.00595784 -0.03039080 0.06030856
v 0.01048062 -0.02896443 0.06034359
v 0.00370692 -0.02371677 0.06536578
v -0.00987246 -0.02381176 0.06420017
v -0.00616431 -0.02399243 0.06072855
v -0.00302071 -0.02722669 0.06365588
v 0.00592009 -0.02649376 0.06367397
v 0.00894289 -0.02960828 0.06024955
v -0.00530599 -0.03040967 0.06034725
v 0.00758555 -0.02399243 0.06072855
v 0.00893651 -0.02363347 0.06461630
v -0.00379778 -0.02376029 0.06540418
v 0.00439716 -0.02791661 0.06292030
v 0.00217250 -0.02724130 0.06365482
v 0.00809784 -0.02787000 0.06213907
v -0.00984443 -0.02525475 0.06338507
v -0.00829672 -0.02369539 0.06466793
v 0.01068034 -0.02405978 0.06390538
v 0.00665855 -0.02503300 0.06437974
v -0.00520918 -0.03005311 0.06079923
v -0.00376488 -0.02435324 0.06515724
v 0.00881908 -0.02924857 0.06066549
v 0.00736430 -0.02717570 0.06287881
v 0.00587263 -0.02930275 0.06144566
v -0.01005054 -0.02410095 0.06399298
v -0.00612795 -0.02997689 0.06062354
v -0.00669759 -0.02641038 0.06358381
v 0.01076564 -0.02809515 0.06105566
v 0.01050429 -0.02376768 0.06411861
v 0.00964556 -0.02501947 0.06368126
v 0.00367455 -0.02580122 0.06439541
v -0.00448490 -0.02794061 0.06294551
v 0.00586001 -0.03005746 0.06068989
v -0.00672746 -0.02504667 0.06437137
v 0.00367385 -0.02434346 0.06510885
v -0.00595686 -0.02926866 0.06145188
v 0.01032528 -0.02861880 0.06074483
v 0.00886122 -0.02424448 0.06432010
v 0.01040822 -0.02435687 0.06382850
v 0.01032574 -0.02785845 0.06142817
v -0.00821815 -0.02430270 0.06439760
v -0.00450938 -0.02576705 0.06437020
v -0.00969699 -0.02496886 0.06361249
f 9 8 1
f 9 5 8
f 10 8 5
f 10 2 8
f 11 10 5
f 14 13 7
f 17 11 5
f 17 5 4
f 17 12 3
f 17 3 11
f 19 11 3
f 20 9 1
f 21 6 14
f 22 8 2
f 23 7 13
f 24 22 15
f 24 23 13
f 24 15 23
f 25 4 5
f 25 5 16
f 26 16 5
f 26 5 9
f 26 9 20
f 28 2 10
f 28 10 18
f 29 18 10
f 29 10 11
f 30 19 7
f 30 7 23
f 31 14 7
f 31 7 19
f 31 21 14
f 32 20 14
f 32 14 6
f 33 20 1
f 33 13 14
f 33 14 20
f 33 24 13
f 33 22 24
f 33 1 8
f 33 8 22
f 34 21 12
f 34 12 17
f 35 3 12
f 35 12 21
f 35 21 31
f 35 31 19
f 35 19 3
f 36 27 16
f 36 16 26
f 36 32 27
f 36 26 20
f 36 20 32
f 37 22 2
f 37 2 28
f 37 15 22
f 38 11 19
f 38 19 30
f 38 29 11
f 39 18 29
f 39 38 30
f 39 29 38
f 39 28 18
f 40 30 23
f 40 23 15
f 40 39 30
f 40 28 39
f 40 37 28
f 40 15 37
f 41 34 17
f 41 17 4
f 41 4 25
f 42 34 27
f 42 6 21
f 42 21 34
f 42 32 6
f 42 27 32
f 43 41 25
f 43 25 16
f 43 16 27
f 43 27 34
f 43 34 41

