# https://github.com/mikedh/trimesh
v -0.00612795 -0.02997689 0.06062354
v 0.00071062 -0.02399243 0.06072855
v 0.00069243 -0.02228848 0.06595293
v -0.02195623 -0.00484319 0.06415600
v -0.02472111 -0.01007236 0.06026691
v 0.00076139 -0.00755154 0.06038739
v -0.01051018 -0.02135587 0.06512030
v 0.00069347 -0.02379174 0.06549081
v -0.01322706 -0.00494401 0.06601119
v -0.00354762 -0.00532117 0.06024727
v -0.00826272 -0.02957229 0.06026395
v -0.01773169 -0.01743232 0.06358184
v -0.00603966 -0.02732556 0.06311683
v -0.00532862 -0.02150050 0.06593436
v 0.00081394 -0.00792875 0.06079823
v -0.01660019 -0.01013278 0.06590912
v -0.02382935 -0.00528734 0.06259816
v -0.00749021 -0.00519464 0.06367610
v -0.02109257 -0.00482185 0.06469088
v -0.01566810 -0.02502692 0.06020980
v -0.00604876 -0.02963850 0.06104438
v -0.00157207 -0.02229337 0.06595439
v -0.00602543 -0.02364233 0.06515925
v -0.01747412 -0.00487992 0.06602589
v -0.01357805 -0.01542840 0.06590555
v -0.02497311 -0.00863032 0.06049628
v -0.02077729 -0.01152818 0.06361989
v -0.01034862 -0.00503110 0.06512915
v -0.01269005 -0.02729290 0.06021271
v -0.02099359 -0.01835695 0.06029961
v -0.01327069 -0.02484683 0.06209511
v -0.00813625 -0.02852991 0.06144816
v -0.00823511 -0.02281085 0.06507651
v -0.01964570 -0.00484545 0.06535594
v 0.00070945 -0.01800028 0.06607512
v -0.00981946 -0.01919641 0.06590094
v -0.01508678 -0.01316057 0.06591615
v -0.01572284 -0.01606642 0.06510963
v -0.02150446 -0.00927056 0.06365691
v -0.01794117 -0.01234022 0.06509605
v 0.00076417 -0.00865262 0.06154012
v -0.01692039 -0.02112960 0.06214733
v -0.02395458 -0.01233011 0.06025970
v -0.01923298 -0.01665701 0.06289117
v -0.01117370 -0.02272880 0.06433569
v -0.01248302 -0.02626756 0.06138294
v -0.00812673 -0.02922651 0.06071311
v -0.00962342 -0.02711151 0.06211760
v -0.01741535 -0.00713562 0.06594881
v -0.02220233 -0.01000263 0.06289041
v -0.02087573 -0.00778614 0.06438558
v -0.01947543 -0.00782042 0.06515205
v -0.01784189 -0.01528579 0.06434453
v -0.01720419 -0.01383712 0.06507955
v -0.01944622 -0.02057601 0.06026629
v -0.01612956 -0.02404091 0.06069538
v -0.02219495 -0.01219968 0.06220219
v -0.01771449 -0.01888878 0.06285517
v -0.01637248 -0.01749652 0.06432329
v -0.01112347 -0.02416411 0.06357204
v -0.01539742 -0.02478204 0.06065474
v -0.01248072 -0.02698181 0.06066736
v -0.00743879 -0.02715283 0.06286520
v -0.01107379 -0.02627909 0.06214763
f 8 1 2
f 11 6 2
f 11 2 1
f 11 10 6
f 15 8 2
f 15 2 6
f 17 4 10
f 18 6 10
f 18 15 6
f 19 10 4
f 19 9 10
f 20 5 10
f 21 1 8
f 21 8 13
f 21 11 1
f 22 8 3
f 23 13 8
f 23 22 14
f 23 8 22
f 24 9 19
f 25 14 24
f 26 17 10
f 26 10 5
f 28 18 10
f 28 10 9
f 29 20 10
f 29 10 11
f 32 21 13
f 33 23 14
f 33 13 23
f 34 24 19
f 35 24 14
f 35 14 22
f 35 22 3
f 35 9 24
f 35 28 9
f 35 3 8
f 35 8 15
f 36 25 7
f 36 14 25
f 36 33 14
f 36 7 33
f 37 25 24
f 37 24 16
f 38 7 25
f 38 25 37
f 39 4 17
f 40 37 16
f 41 15 18
f 41 18 28
f 41 35 15
f 41 28 35
f 43 5 20
f 45 42 31
f 45 33 7
f 46 20 29
f 47 11 21
f 47 21 32
f 49 16 24
f 49 24 34
f 50 39 17
f 50 17 26
f 50 27 39
f 51 19 4
f 51 4 39
f 51 39 27
f 51 27 40
f 52 40 16
f 52 51 40
f 52 34 19
f 52 19 51
f 52 49 34
f 52 16 49
f 53 40 27
f 53 44 12
f 53 27 44
f 54 38 37
f 54 37 40
f 54 53 38
f 54 40 53
f 55 42 30
f 55 43 20
f 55 30 43
f 56 31 42
f 56 55 20
f 56 42 55
f 57 43 30
f 57 30 44
f 57 44 27
f 57 27 50
f 57 5 43
f 57 50 26
f 57 26 5
f 58 12 44
f 58 44 30
f 58 30 42
f 59 42 45
f 59 58 42
f 59 12 58
f 59 53 12
f 59 38 53
f 59 45 7
f 59 7 38
f 60 33 45
f 60 45 31
f 61 46 31
f 61 20 46
f 61 56 20
f 61 31 56
f 62 47 32
f 62 29 11
f 62 11 47
f 62 32 48
f 62 48 46
f 62 46 29
f 63 48 32
f 63 32 13
f 63 60 48
f 63 13 33
f 63 33 60
f 64 31 46
f 64 46 48
f 64 60 31
f 64 48 60

