# https://github.com/mikedh/trimesh
v 0.02379760 -0.00032953 0.06376633
v 0.02773097 -0.00032562 0.05962808
v 0.01853863 0.02215678 0.05948692
v 0.00070783 0.03096509 0.05993424
v 0.00495892 -0.00029482 0.05963427
v 0.00818244 0.02006677 0.06586269
v 0.02430272 0.01082754 0.06072042
v 0.01244368 -0.00033613 0.06530081
v 0.02686021 0.00566393 0.05953067
v 0.00516426 0.03048922 0.05956615
v 0.00073135 0.01444742 0.06596495
v 0.01997134 0.01080208 0.06431982
v 0.02738374 -0.00033518 0.06012197
v 0.01707057 0.02364571 0.05947266
v 0.02769630 0.00040923 0.05960318
v 0.02460623 0.01244358 0.05951811
v 0.02439453 0.00636434 0.06219813
v 0.00086550 0.00550833 0.05965160
v 0.00437358 0.02655558 0.06361981
v 0.01887399 -0.00031395 0.06610057
v 0.00077022 0.00940339 0.06369097
v 0.02059913 0.01677683 0.06137818
v 0.00821726 -0.00032195 0.06293592
v 0.02657100 0.00260393 0.06075139
v 0.02507081 0.00859133 0.06078008
v 0.02233439 0.01692306 0.05949917
v 0.02300621 0.00488013 0.06365841
v 0.02284279 0.01082313 0.06218573
v 0.00958824 0.02889497 0.05947679
v 0.00212229 0.02946491 0.06147505
v 0.01099101 0.02356872 0.06355498
v 0.00067817 0.02234378 0.06597579
v 0.01468681 -0.00033476 0.06597818
v 0.01654284 0.00875127 0.06591786
v 0.00073953 0.01227968 0.06524587
v 0.00064524 0.03021943 0.06081078
v 0.02736912 0.00037133 0.06006685
v 0.02511372 0.00335192 0.06219985
v 0.02509824 0.00636079 0.06149011
v 0.02083426 0.01918736 0.05954749
v 0.02202509 0.01672764 0.05999077
v 0.02087255 0.00338475 0.06514741
v 0.02222002 0.00787951 0.06360722
v 0.02072812 0.01155192 0.06360191
v 0.00584358 0.02792274 0.06218664
v 0.00507531 0.03013400 0.06005664
v 0.00813193 0.02221696 0.06518144
v 0.01312312 0.02487652 0.06139510
v 0.01198221 0.01636716 0.06589942
v 0.00066520 0.02675476 0.06391455
v 0.02103330 -0.00032350 0.06540422
v 0.00140613 0.03018332 0.06077952
v 0.02443120 0.00261078 0.06293073
v 0.02650658 0.00558068 0.06003480
v 0.01904518 0.01901433 0.06139358
v 0.02426808 0.01230162 0.06000673
v 0.02060142 0.01895305 0.05995637
v 0.02230452 0.00336276 0.06437316
v 0.01805031 0.00570189 0.06594330
v 0.02288671 0.00861130 0.06288298
v 0.02060885 0.01528590 0.06212030
v 0.02140227 0.01011253 0.06362147
v 0.00730116 0.02650149 0.06292534
v 0.00213993 0.02870670 0.06221738
f 13 5 2
f 14 9 5
f 15 2 5
f 15 5 9
f 15 13 2
f 18 4 10
f 21 18 5
f 23 13 8
f 23 5 13
f 23 21 5
f 24 15 9
f 25 16 7
f 25 9 16
f 26 14 3
f 26 16 9
f 26 9 14
f 28 25 7
f 28 17 25
f 29 14 5
f 29 5 18
f 29 18 10
f 32 11 20
f 33 20 11
f 33 11 8
f 33 13 1
f 33 8 13
f 35 8 11
f 35 11 32
f 35 23 8
f 35 21 23
f 36 4 18
f 36 18 21
f 36 35 32
f 36 21 35
f 37 24 13
f 37 13 15
f 37 15 24
f 38 1 13
f 38 13 24
f 39 25 17
f 39 38 24
f 39 17 38
f 40 26 3
f 41 16 26
f 41 22 28
f 41 26 40
f 43 27 17
f 46 10 4
f 46 30 45
f 46 45 29
f 46 29 10
f 47 32 6
f 47 19 32
f 48 14 29
f 49 32 20
f 49 6 32
f 49 34 12
f 49 47 6
f 49 12 31
f 49 31 47
f 50 32 19
f 50 36 32
f 51 33 1
f 51 20 33
f 52 36 30
f 52 4 36
f 52 46 4
f 52 30 46
f 53 1 38
f 53 38 17
f 53 17 27
f 54 39 24
f 54 24 9
f 54 9 25
f 54 25 39
f 55 3 14
f 55 14 48
f 55 48 31
f 55 31 12
f 56 7 16
f 56 16 41
f 56 41 28
f 56 28 7
f 57 41 40
f 57 22 41
f 57 55 22
f 57 40 3
f 57 3 55
f 58 27 43
f 58 43 12
f 58 12 42
f 58 53 27
f 58 1 53
f 58 51 1
f 58 42 51
f 59 51 42
f 59 20 51
f 59 49 20
f 59 34 49
f 59 42 12
f 59 12 34
f 60 43 17
f 60 17 28
f 61 44 28
f 61 28 22
f 61 22 55
f 61 55 12
f 61 12 44
f 62 44 12
f 62 12 43
f 62 43 60
f 62 60 28
f 62 28 44
f 63 45 19
f 63 31 48
f 63 48 29
f 63 29 45
f 63 47 31
f 63 19 47
f 64 45 30
f 64 19 45
f 64 50 19
f 64 30 36
f 64 36 50

