# https://github.com/mikedh/trimesh
v 0.00071062 -0.00031211 0.01031239
v 0.00059518 -0.00010550 0.00318941
v 0.00077382 0.01643864 0.00097848
v -0.00616431 0.01649327 0.01031239
v -0.00651392 -0.00032611 0.00239551
v 0.00071062 0.01649327 0.01031239
v 0.00080934 0.01284802 0.00124610
v -0.00598570 -0.00040963 0.00275410
v -0.00616431 -0.00031211 0.01031239
v -0.00612330 0.01640735 0.00171493
v -0.00646132 0.00746079 0.00184961
f 6 3 4
f 6 4 1
f 7 1 2
f 7 6 1
f 7 3 6
f 7 5 3
f 7 2 5
f 8 5 2
f 8 2 1
f 9 1 4
f 9 4 5
f 9 8 1
f 9 5 8
f 10 4 3
f 11 5 4
f 11 4 10
f 11 10 3
f 11 3 5

