# https://github.com/mikedh/trimesh
v 0.02811415 -0.01896231 0.05049510
v 0.03125491 -0.01007599 0.02728338
v 0.03103161 -0.01019910 0.05073553
v 0.01751601 -0.01024257 0.05079809
v 0.01751601 -0.01940914 0.02024285
v 0.03129827 -0.01011798 0.04982792
v 0.01751601 -0.01940914 0.05079809
v 0.02720895 -0.01887986 0.02442386
v 0.01751601 -0.01024257 0.02024285
v 0.03050151 -0.01006890 0.02428902
v 0.03033032 -0.01749214 0.03708840
v 0.03028940 -0.01522919 0.04829405
v 0.02956825 -0.01897973 0.04304227
v 0.03207066 -0.01010096 0.04609432
v 0.02951465 -0.01595902 0.02736377
v 0.02793584 -0.01443203 0.02065706
v 0.03103558 -0.01228431 0.04899825
v 0.02879071 -0.01894100 0.03036184
v 0.02873477 -0.01891567 0.04829382
v 0.03204461 -0.01007686 0.03179655
v 0.03107657 -0.01528552 0.04233110
v 0.03029673 -0.01374788 0.02733024
v 0.02574681 -0.01888300 0.02061866
v 0.02919994 -0.01012546 0.02044252
v 0.02874771 -0.01516361 0.02364485
v 0.03114971 -0.01080842 0.04981788
v 0.03041145 -0.01304806 0.05051829
v 0.03106358 -0.01374229 0.04683298
v 0.02955176 -0.01894219 0.03560652
v 0.02797901 -0.01738869 0.02439442
v 0.02950796 -0.01819560 0.04603472
v 0.02872500 -0.01818327 0.04972234
v 0.03033254 -0.01749228 0.04156351
v 0.03185713 -0.01229096 0.03483984
v 0.03110459 -0.01078826 0.02731606
v 0.03107701 -0.01452712 0.03334519
v 0.02978002 -0.01008569 0.02202806
v 0.02950118 -0.01445112 0.02512581
v 0.02880067 -0.01747800 0.05051117
v 0.03192510 -0.01081642 0.04608713
v 0.02649124 -0.01810508 0.02138403
v 0.03028646 -0.01597769 0.04681023
v 0.03112184 -0.01528118 0.03635354
v 0.03034922 -0.01079818 0.02433421
v 0.03104656 -0.01303299 0.03033206
v 0.03029400 -0.01672164 0.03335915
v 0.03188670 -0.01078272 0.03183208
v 0.02951465 -0.01224825 0.02288250
v 0.03185124 -0.01230307 0.04384098
v 0.02793702 -0.01515120 0.02141163
v 0.03034024 -0.01673265 0.04457590
v 0.03107411 -0.01152148 0.02804568
v 0.02954283 -0.01819484 0.03261430
v 0.02870949 -0.01221316 0.02064087
v 0.02962383 -0.01078077 0.02206864
v 0.03186067 -0.01156878 0.04533829
v 0.02951058 -0.01744556 0.03036338
f 6 4 3
f 7 1 3
f 7 3 4
f 7 4 5
f 9 5 4
f 10 9 4
f 13 7 5
f 13 1 7
f 14 10 4
f 14 4 6
f 17 14 6
f 19 1 13
f 20 2 10
f 20 10 14
f 23 18 5
f 23 8 18
f 24 5 9
f 24 23 5
f 24 16 23
f 26 17 6
f 26 6 3
f 26 3 17
f 27 17 3
f 27 12 17
f 28 17 12
f 29 13 5
f 29 5 18
f 29 11 13
f 30 18 8
f 30 15 18
f 30 25 15
f 31 19 13
f 32 19 12
f 32 1 19
f 33 13 11
f 34 20 14
f 35 10 2
f 36 15 22
f 37 24 9
f 37 9 10
f 38 22 15
f 38 15 25
f 39 27 3
f 39 3 1
f 39 1 32
f 39 32 12
f 39 12 27
f 40 14 17
f 40 17 28
f 41 30 8
f 41 8 23
f 41 23 16
f 42 12 19
f 42 19 31
f 42 28 12
f 43 33 11
f 43 21 33
f 43 36 34
f 44 35 22
f 44 10 35
f 44 22 38
f 44 37 10
f 45 36 22
f 46 11 29
f 46 43 11
f 46 36 43
f 47 20 34
f 47 34 36
f 47 36 45
f 48 44 38
f 48 38 25
f 48 25 16
f 49 28 21
f 49 34 14
f 49 43 34
f 49 21 43
f 50 41 16
f 50 16 25
f 50 25 30
f 50 30 41
f 51 21 28
f 51 28 42
f 51 33 21
f 51 13 33
f 51 42 31
f 51 31 13
f 52 45 22
f 52 22 35
f 52 47 45
f 52 20 47
f 52 35 2
f 52 2 20
f 53 46 29
f 53 29 18
f 54 48 16
f 54 16 24
f 55 24 37
f 55 37 44
f 55 44 48
f 55 54 24
f 55 48 54
f 56 40 28
f 56 28 49
f 56 49 14
f 56 14 40
f 57 53 18
f 57 18 15
f 57 46 53
f 57 15 36
f 57 36 46

