# https://github.com/mikedh/trimesh
v 0.01850938 -0.02032571 0.06239566
v 0.01751601 -0.01940914 0.02024285
v 0.01751601 -0.00031211 0.02024285
v 0.00058546 -0.00038255 0.05843108
v 0.00071062 -0.01940914 0.06072855
v 0.00071062 -0.01940914 0.02024285
v 0.01751601 -0.00031211 0.06072855
v 0.00071062 -0.00031211 0.02024285
v 0.00528335 -0.00018559 0.06005705
v 0.00084076 -0.00720345 0.06002729
f 1 2 3
f 6 3 2
f 6 5 4
f 6 2 1
f 6 1 5
f 7 1 3
f 8 6 4
f 8 3 6
f 9 5 1
f 9 1 7
f 9 8 4
f 9 7 3
f 9 3 8
f 10 9 4
f 10 4 5
f 10 5 9

