{"scene":0,"scenes":[{"nodes":[0]}],"asset":{"version":"2.0","generator":"https://github.com/mikedh/trimesh"},"accessors":[{"componentType":5125,"type":"SCALAR","bufferView":0,"count":50520,"max":[50485],"min":[0]},{"componentType":5126,"type":"VEC3","byteOffset":0,"bufferView":1,"count":50486,"max":[0.0332820862531662,0.07944363355636597,0.03750000149011612],"min":[-0.0332820862531662,0.0,-0.03750000149011612]},{"componentType":5126,"type":"VEC2","byteOffset":0,"bufferView":3,"count":50486,"max":[0.9993954300880432,0.9995700716972351],"min":[0.0006045949412509799,0.0004299283027648926]}],"meshes":[{"name":"geometry_0.002","extras":{"units":"meters","from_gltf_primitive":false,"name":"geometry_0.002","node":"geometry_0.001"},"primitives":[{"attributes":{"POSITION":1,"TEXCOORD_0":2},"indices":0,"mode":4,"material":0}]}],"images":[{"bufferView":2,"mimeType":"image/png"}],"textures":[{"source":0}],"materials":[{"pbrMetallicRoughness":{"baseColorTexture":{"index":0}},"name":"Material_0.002","doubleSided":false}],"nodes":[{"name":"world","children":[1]},{"name":"geometry_0.002","mesh":0}],"buffers":[{"uri":"gltf_buffer_0.bin","byteLength":202080},{"uri":"gltf_buffer_1.bin","byteLength":605832},{"uri":"gltf_buffer_2.bin","byteLength":914768},{"uri":"gltf_buffer_3.bin","byteLength":403888}],"bufferViews":[{"buffer":0,"byteOffset":0,"byteLength":202080},{"buffer":1,"byteOffset":0,"byteLength":605832},{"buffer":2,"byteOffset":0,"byteLength":914768},{"buffer":3,"byteOffset":0,"byteLength":403888}]}