# https://github.com/mikedh/trimesh
v 0.02297881 0.01764050 0.05802314
v 0.02755715 0.01767711 0.02801014
v 0.02352816 0.02494476 0.04373549
v 0.01486280 0.03271246 0.04382727
v 0.01522436 0.01802103 0.02100673
v 0.01906502 0.02939004 0.02883249
v 0.01678594 0.02782977 0.05411452
v 0.02759216 0.01770304 0.04609635
v 0.02614006 0.01772294 0.02271887
v 0.02426387 0.02422613 0.03254478
v 0.01980864 0.02944131 0.04004584
v 0.01482208 0.03042114 0.02125141
v 0.02196145 0.02341502 0.05266195
v 0.01522436 0.01802103 0.05996467
v 0.02598736 0.01763929 0.05205963
v 0.02200568 0.02492351 0.02434157
v 0.02575944 0.02203168 0.03253706
v 0.01687947 0.03164938 0.03254093
v 0.02130496 0.02797274 0.03404244
v 0.01833520 0.02939077 0.04748729
v 0.02553483 0.01781638 0.02114508
v 0.01897624 0.02262484 0.05853744
v 0.01478003 0.02737270 0.05726801
v 0.02346434 0.02042219 0.05418575
v 0.02569342 0.02049734 0.04752088
v 0.02127046 0.02721489 0.02885293
v 0.01828263 0.02858506 0.02360164
v 0.02496181 0.02200803 0.02733372
v 0.02723723 0.01902617 0.03031832
v 0.02427187 0.02428802 0.04155919
v 0.01686998 0.03165247 0.04153076
v 0.01488145 0.03272519 0.03025383
v 0.01980629 0.02944286 0.03404235
v 0.01984133 0.02864603 0.04525684
v 0.01973490 0.02634076 0.05186675
v 0.01480569 0.03035077 0.05203611
v 0.02170072 0.01777759 0.05961783
v 0.01748838 0.02633072 0.05560605
v 0.01495074 0.02530737 0.05963394
v 0.02118262 0.02116593 0.05709006
v 0.02729020 0.01831159 0.04603849
v 0.02275042 0.02418824 0.04898574
v 0.02419239 0.02118582 0.05119961
v 0.02354184 0.02498189 0.03106121
v 0.02048089 0.02718657 0.02583741
v 0.02202185 0.02349530 0.02136810
v 0.02654973 0.01829062 0.02506954
v 0.02727273 0.01902126 0.04379523
v 0.02573401 0.02125989 0.02881476
v 0.02206783 0.02720792 0.03480639
v 0.02206965 0.02721511 0.03929059
v 0.01613008 0.03161684 0.04526116
v 0.01481835 0.03189022 0.02575677
v 0.01757476 0.03088007 0.03032709
v 0.01833235 0.03009769 0.04451685
v 0.01678178 0.02933177 0.05115521
v 0.01977361 0.02785295 0.04821030
v 0.01477076 0.02882372 0.05501446
v 0.01973785 0.02410421 0.05558470
v 0.01755059 0.02409908 0.05850989
v 0.01900828 0.02190563 0.05922561
v 0.02267663 0.02042385 0.05560453
v 0.02125298 0.01893842 0.05926016
v 0.02570266 0.01823440 0.05194974
f 9 2 1
f 9 1 5
f 14 5 1
f 15 1 2
f 15 2 8
f 21 9 5
f 21 5 12
f 23 12 5
f 23 5 14
f 24 1 15
f 26 6 19
f 30 17 10
f 31 11 18
f 32 31 18
f 32 4 31
f 33 18 11
f 33 11 19
f 33 19 6
f 37 14 1
f 38 35 7
f 39 23 14
f 39 14 37
f 41 15 8
f 42 25 3
f 42 35 13
f 43 25 42
f 43 42 13
f 43 13 24
f 44 26 19
f 44 10 17
f 44 28 16
f 44 16 26
f 45 26 16
f 45 16 27
f 45 27 6
f 45 6 26
f 46 21 12
f 46 12 27
f 46 27 16
f 46 16 28
f 46 28 9
f 46 9 21
f 47 2 9
f 47 9 28
f 48 29 17
f 48 8 2
f 48 2 29
f 48 41 8
f 48 17 30
f 48 30 3
f 48 3 25
f 48 25 41
f 49 17 29
f 49 44 17
f 49 28 44
f 49 29 2
f 49 47 28
f 49 2 47
f 50 30 10
f 50 44 19
f 50 10 44
f 51 3 30
f 51 34 3
f 51 11 34
f 51 30 50
f 51 50 19
f 51 19 11
f 52 31 4
f 52 4 36
f 53 4 32
f 53 36 4
f 53 27 12
f 53 6 27
f 54 32 18
f 54 53 32
f 54 6 53
f 54 33 6
f 54 18 33
f 55 34 11
f 55 11 31
f 55 31 52
f 55 52 20
f 55 20 34
f 56 7 35
f 56 36 7
f 56 52 36
f 56 20 52
f 57 34 20
f 57 56 35
f 57 20 56
f 57 35 42
f 57 42 3
f 57 3 34
f 58 7 36
f 58 38 7
f 58 23 38
f 58 36 53
f 58 53 12
f 58 12 23
f 59 13 35
f 59 35 38
f 59 22 40
f 60 38 23
f 60 23 39
f 60 59 38
f 60 22 59
f 61 39 37
f 61 60 39
f 61 22 60
f 62 40 1
f 62 1 24
f 62 59 40
f 62 24 13
f 62 13 59
f 63 37 1
f 63 1 40
f 63 61 37
f 63 40 22
f 63 22 61
f 64 41 25
f 64 15 41
f 64 25 43
f 64 43 24
f 64 24 15

