# https://github.com/mikedh/trimesh
v 0.02114336 -0.00866070 0.06486923
v 0.02133541 -0.00871480 0.06072855
v 0.02133541 -0.00031211 0.06072855
v 0.00600688 -0.00033142 0.06087225
v 0.00073533 -0.00904086 0.06190713
v 0.00076139 -0.00755154 0.06038739
v 0.01887399 -0.00031395 0.06610057
v 0.00567457 -0.00900871 0.06377083
v 0.00562878 -0.00032118 0.06043726
v 0.02103330 -0.00032350 0.06540422
v 0.01244368 -0.00033613 0.06530081
v 0.01307072 -0.00874920 0.06606937
v 0.00066051 -0.00827466 0.06115295
v 0.01886035 -0.00635169 0.06594677
v 0.00821726 -0.00032195 0.06293592
v 0.00938728 -0.00887662 0.06519351
v 0.01468681 -0.00033476 0.06597818
v 0.02092732 -0.00709794 0.06513706
v 0.01808730 -0.00864965 0.06593205
v 0.00669734 -0.00033750 0.06159009
v 0.02024019 -0.00861249 0.06525461
f 1 2 3
f 6 2 5
f 8 5 2
f 8 2 1
f 9 3 2
f 9 2 6
f 9 7 3
f 9 5 4
f 10 1 3
f 10 3 7
f 13 9 6
f 13 6 5
f 13 5 9
f 14 10 7
f 15 5 11
f 15 11 7
f 15 7 9
f 16 11 5
f 16 5 8
f 16 8 1
f 16 1 12
f 17 12 7
f 17 7 11
f 17 16 12
f 17 11 16
f 18 1 10
f 18 10 14
f 19 12 1
f 19 14 7
f 19 7 12
f 20 4 5
f 20 5 15
f 20 15 9
f 20 9 4
f 21 18 14
f 21 14 19
f 21 19 1
f 21 1 18

