# https://github.com/mikedh/trimesh
v -0.01456700 0.01802103 0.06072855
v -0.01456700 0.01802103 0.02024285
v -0.01414051 0.02731305 0.05944740
v -0.01420502 0.03340513 0.04683556
v -0.02996096 0.01772148 0.04082243
v -0.01419718 0.03117231 0.02047775
v -0.01415711 0.02662562 0.06021167
v -0.02531815 0.01760849 0.05647508
v -0.01417661 0.03184750 0.05204450
v -0.02142028 0.02867927 0.03032851
v -0.02657784 0.01790407 0.02032784
v -0.02382099 0.01764211 0.05867469
v -0.01421496 0.03340147 0.02802256
v -0.02135318 0.02635892 0.05191634
v -0.02211185 0.02494859 0.02137154
v -0.02736330 0.02123461 0.02957001
v -0.02758343 0.01764544 0.02276591
v -0.02245652 0.01770499 0.06026963
v -0.01626870 0.03316520 0.03931321
v -0.01767490 0.03006789 0.02363996
v -0.01695803 0.02860605 0.05487349
v -0.02134624 0.02343632 0.05628635
v -0.02582517 0.02195809 0.04969598
v -0.01844790 0.03009315 0.04895500
v -0.02359922 0.02269786 0.02062496
v -0.02593534 0.02425230 0.04080581
v -0.02438196 0.02494265 0.02809750
v -0.02758823 0.01762848 0.05205399
v -0.02917284 0.01768613 0.02877969
v -0.02701079 0.01772641 0.02120110
v -0.01699924 0.03237851 0.03181938
v -0.01425337 0.03422723 0.04081557
v -0.01480431 0.03237805 0.02509969
v -0.01917946 0.02936473 0.02510418
v -0.01700455 0.02936627 0.02061315
v -0.01415611 0.02954194 0.05643731
v -0.02357269 0.02118426 0.05556961
v -0.01840775 0.02787946 0.05412950
v -0.02207263 0.02041148 0.05852078
v -0.01762107 0.02710192 0.05629120
v -0.01481435 0.03232661 0.04973619
v -0.01702014 0.03236832 0.04304630
v -0.02580816 0.02121332 0.02363680
v -0.02891595 0.01979588 0.03557224
v -0.02815107 0.02050710 0.04378671
v -0.02363659 0.02566993 0.04752565
v -0.01923945 0.03092989 0.04156034
v -0.02593110 0.02422845 0.03408110
v -0.02994932 0.01771286 0.03479834
v -0.01424587 0.03421075 0.03327606
v -0.01422384 0.03267337 0.02500267
v -0.01621006 0.03081742 0.02288747
v -0.01700370 0.03158603 0.02733916
v -0.02290949 0.02643407 0.02734548
v -0.01844660 0.02858546 0.02139234
v -0.01549390 0.03008401 0.05411711
v -0.02507266 0.01820425 0.05630148
v -0.02357564 0.02342656 0.05261757
v -0.02213328 0.02416933 0.05410999
v -0.01839556 0.02932684 0.05118995
v -0.02138797 0.01967649 0.05998933
v -0.02208888 0.02116513 0.05776188
v -0.01473417 0.02637617 0.06002192
v -0.01469949 0.02932104 0.05629214
f 6 3 2
f 7 1 2
f 7 2 3
f 11 6 2
f 12 2 1
f 13 9 6
f 13 4 9
f 17 12 8
f 17 2 12
f 18 12 1
f 18 1 7
f 28 17 8
f 29 17 28
f 30 11 2
f 30 2 17
f 35 25 15
f 35 6 11
f 35 11 25
f 36 3 6
f 36 6 9
f 40 38 22
f 40 21 38
f 41 9 4
f 41 4 24
f 42 24 4
f 42 32 19
f 42 4 32
f 43 16 27
f 43 27 15
f 43 15 25
f 43 29 16
f 43 17 29
f 43 30 17
f 43 25 11
f 43 11 30
f 45 28 23
f 45 5 28
f 45 44 5
f 45 26 44
f 46 14 24
f 46 45 23
f 46 26 45
f 47 31 10
f 47 19 31
f 47 42 19
f 47 26 46
f 47 46 24
f 47 24 42
f 48 10 27
f 48 47 10
f 48 26 47
f 48 27 16
f 48 44 26
f 48 16 44
f 49 29 28
f 49 28 5
f 49 5 44
f 49 44 16
f 49 16 29
f 50 32 4
f 50 4 13
f 50 13 31
f 50 31 19
f 50 19 32
f 51 33 13
f 51 13 6
f 51 6 33
f 52 33 6
f 52 35 20
f 52 6 35
f 53 31 13
f 53 13 33
f 53 20 34
f 53 52 20
f 53 33 52
f 53 34 10
f 53 10 31
f 54 27 10
f 54 10 34
f 54 34 15
f 54 15 27
f 55 34 20
f 55 20 35
f 55 35 15
f 55 15 34
f 56 36 9
f 56 38 21
f 57 8 12
f 57 37 28
f 57 28 8
f 58 23 28
f 58 28 37
f 58 46 23
f 58 14 46
f 59 38 14
f 59 22 38
f 59 14 58
f 59 58 37
f 59 37 22
f 60 24 14
f 60 14 38
f 60 38 56
f 60 56 9
f 60 41 24
f 60 9 41
f 61 39 12
f 61 12 18
f 61 18 7
f 62 22 37
f 62 37 57
f 62 57 12
f 62 12 39
f 62 61 22
f 62 39 61
f 63 40 22
f 63 7 3
f 63 3 40
f 63 61 7
f 63 22 61
f 64 21 40
f 64 56 21
f 64 36 56
f 64 40 3
f 64 3 36

