# https://github.com/mikedh/trimesh
v 0.01751601 -0.00031211 0.05996467
v 0.01751601 -0.00031211 0.02100673
v 0.01880326 0.01894118 0.06163322
v 0.00071062 0.01802103 0.05996467
v 0.00068328 -0.00033107 0.05614257
v 0.00071062 0.01802103 0.02100673
v 0.00467394 -0.00027552 0.05926534
v 0.01751601 0.01802103 0.02100673
v 0.00071062 -0.00031211 0.02100673
v 0.00120634 0.00510828 0.05929006
f 1 2 3
f 5 2 1
f 6 4 3
f 6 5 4
f 7 1 3
f 7 5 1
f 8 6 3
f 8 3 2
f 8 2 6
f 9 6 2
f 9 2 5
f 9 5 6
f 10 7 3
f 10 3 4
f 10 4 5
f 10 5 7

