# https://github.com/mikedh/trimesh
v 0.00071062 0.01649327 0.02024285
v 0.00071062 0.01649327 0.01107628
v 0.00070340 0.03470765 0.02028284
v -0.00676679 0.03413077 0.02049230
v -0.01303924 0.01649327 0.02024285
v 0.00068786 0.03054286 0.01133953
v -0.00972704 0.03328542 0.02051220
v -0.00373189 0.03387276 0.01832833
v -0.01303924 0.01649327 0.01107628
v 0.00065990 0.03397465 0.01827866
v -0.00666744 0.03084588 0.01311622
v -0.01274805 0.03196764 0.02046651
v 0.00067312 0.03105814 0.01224647
v -0.00815841 0.03233544 0.01687923
v -0.01259788 0.02723337 0.01161649
v -0.00520999 0.03158774 0.01388370
v -0.00888563 0.03304135 0.01911083
v -0.00666883 0.03305415 0.01759340
v -0.00595516 0.03011259 0.01163591
v -0.01031867 0.03079894 0.01540983
v -0.00521254 0.03234114 0.01536206
v -0.00449482 0.03085804 0.01239011
v -0.01033880 0.03153995 0.01688871
v -0.00670360 0.03390338 0.01980410
v -0.01029677 0.02855676 0.01175518
v -0.00814018 0.03082121 0.01389609
v -0.01250570 0.02931597 0.01469402
v -0.01252114 0.03155084 0.01913092
v -0.00966150 0.03307796 0.01986052
v -0.01253292 0.02785775 0.01241603
v -0.01176340 0.02926631 0.01396233
v -0.01178209 0.02780141 0.01174958
f 1 2 3
f 1 3 4
f 5 2 1
f 6 3 2
f 7 5 1
f 7 1 4
f 8 4 3
f 9 6 2
f 9 2 5
f 10 8 3
f 12 9 5
f 12 5 7
f 13 8 10
f 13 10 3
f 13 3 6
f 15 6 9
f 15 9 12
f 17 7 4
f 18 14 17
f 19 6 15
f 21 8 13
f 21 13 16
f 21 18 8
f 21 14 18
f 21 16 11
f 21 11 14
f 22 16 13
f 22 13 6
f 22 6 19
f 22 19 11
f 22 11 16
f 23 17 14
f 23 14 20
f 24 4 8
f 24 8 18
f 24 18 17
f 24 17 4
f 25 19 15
f 26 20 14
f 26 14 11
f 26 25 20
f 26 11 19
f 26 19 25
f 27 15 12
f 27 23 20
f 28 27 12
f 28 23 27
f 29 7 17
f 29 17 23
f 29 23 28
f 29 28 12
f 29 12 7
f 30 15 27
f 31 27 20
f 31 20 25
f 31 30 27
f 32 25 15
f 32 15 30
f 32 31 25
f 32 30 31

