# https://github.com/mikedh/trimesh
v 0.02620930 0.00793806 0.05960741
v 0.03120726 0.00790617 0.02877600
v 0.02801964 0.01755247 0.04379191
v 0.01880326 0.01894118 0.06163322
v 0.01751601 0.00809058 0.02100673
v 0.02578536 0.01752837 0.05274616
v 0.03125513 0.00788125 0.04682963
v 0.01751601 0.00809058 0.05996467
v 0.02575854 0.01752838 0.02133976
v 0.02723903 0.01750704 0.04823542
v 0.02350220 0.01525585 0.05924626
v 0.03111339 0.01085698 0.03479708
v 0.02872676 0.00929411 0.05421571
v 0.02813533 0.00786080 0.05648905
v 0.01751601 0.01802103 0.02100673
v 0.02926975 0.00798930 0.02116642
v 0.02803315 0.01752441 0.03031382
v 0.02954816 0.01307234 0.04682429
v 0.02271457 0.01746501 0.05857881
v 0.02574612 0.00999404 0.05930046
v 0.02567130 0.01447602 0.05637435
v 0.02977439 0.00793296 0.02274318
v 0.02966968 0.00785587 0.05280836
v 0.02679878 0.00791009 0.05875938
v 0.02650755 0.01753823 0.02359156
v 0.03033143 0.01308638 0.04003825
v 0.03031373 0.01232918 0.03104905
v 0.02796094 0.01601924 0.04826487
v 0.02210602 0.01755857 0.05930580
v 0.02795957 0.01374669 0.05195984
v 0.02500084 0.01301872 0.05860061
v 0.02723112 0.01077790 0.05638957
v 0.02491755 0.01598084 0.05638522
v 0.02647384 0.00930001 0.05858638
v 0.02872133 0.01306792 0.02432689
v 0.03032246 0.01307150 0.03405225
v 0.02955502 0.01458839 0.04230552
v 0.03109642 0.01008621 0.04305980
v 0.03108071 0.01012056 0.03178288
v 0.02567847 0.01597174 0.05490033
v 0.02947868 0.01153675 0.04978012
v 0.02722277 0.01673456 0.04975864
v 0.02797751 0.00858145 0.05641002
v 0.02796334 0.01154873 0.05420940
v 0.02492918 0.01668561 0.05561123
v 0.02878901 0.01009737 0.02134685
v 0.02719495 0.01452573 0.02135378
v 0.02874212 0.01528372 0.02810192
v 0.03030937 0.01086342 0.02806657
v 0.02955664 0.01458115 0.03179778
v 0.03108858 0.00930964 0.04532537
v 0.03111186 0.01085057 0.04003819
v 0.03035298 0.01232765 0.04306995
v 0.02648737 0.01675369 0.05199680
v 0.02948924 0.00856886 0.05274735
v 0.02962643 0.00863666 0.02277689
v 0.02643550 0.01675107 0.02212301
v 0.02871607 0.01455247 0.02657543
v 0.02732312 0.01751900 0.02655467
v 0.03104588 0.00862021 0.02881784
v 0.02953272 0.01236556 0.02657506
v 0.02875203 0.01605498 0.03030084
v 0.03107292 0.00860559 0.04678728
v 0.03033786 0.01158074 0.04532989
f 8 1 4
f 10 3 4
f 10 4 6
f 12 7 2
f 14 8 5
f 15 8 4
f 15 5 8
f 16 15 9
f 16 5 15
f 17 4 3
f 19 6 4
f 20 11 4
f 20 4 1
f 22 14 5
f 22 5 16
f 23 2 7
f 23 13 14
f 23 22 2
f 23 14 22
f 24 1 8
f 24 8 14
f 25 4 17
f 25 15 4
f 25 9 15
f 28 18 3
f 28 3 10
f 29 19 4
f 29 4 11
f 29 11 19
f 31 21 11
f 31 11 20
f 32 21 31
f 33 19 11
f 33 11 21
f 34 20 1
f 34 1 24
f 34 32 31
f 34 31 20
f 36 26 12
f 36 12 27
f 37 3 18
f 37 17 3
f 39 27 12
f 39 12 2
f 40 33 21
f 41 18 28
f 41 28 30
f 42 30 28
f 42 28 10
f 42 10 6
f 43 14 13
f 43 32 34
f 43 34 24
f 43 24 14
f 44 21 32
f 44 40 21
f 44 30 40
f 44 41 30
f 44 43 13
f 44 32 43
f 45 6 19
f 45 19 33
f 45 40 6
f 45 33 40
f 47 35 46
f 47 46 16
f 47 16 9
f 49 27 39
f 50 26 36
f 50 37 26
f 50 17 37
f 50 36 27
f 50 27 48
f 51 7 38
f 52 38 7
f 52 7 12
f 52 12 26
f 53 37 18
f 53 26 37
f 53 52 26
f 53 38 52
f 54 40 30
f 54 6 40
f 54 42 6
f 54 30 42
f 55 13 23
f 55 23 41
f 55 44 13
f 55 41 44
f 56 46 35
f 56 22 16
f 56 16 46
f 56 2 22
f 57 47 9
f 57 9 25
f 57 35 47
f 58 57 25
f 58 35 57
f 59 25 17
f 59 17 48
f 59 58 25
f 59 48 58
f 60 49 39
f 60 39 2
f 60 56 49
f 60 2 56
f 61 48 27
f 61 27 49
f 61 58 48
f 61 35 58
f 61 56 35
f 61 49 56
f 62 50 48
f 62 48 17
f 62 17 50
f 63 7 51
f 63 41 23
f 63 23 7
f 63 18 41
f 64 53 18
f 64 51 38
f 64 38 53
f 64 63 51
f 64 18 63

