# https://github.com/mikedh/trimesh
v 0.01369660 0.01725715 0.02100673
v 0.01369660 0.01725715 0.01107628
v 0.01342569 0.03130533 0.02119032
v 0.00067064 0.03501304 0.02118863
v 0.00071062 0.01725715 0.02100673
v 0.00510391 0.03011164 0.01159876
v 0.01253742 0.03185545 0.02127462
v 0.01314607 0.02642368 0.01163467
v 0.00071062 0.01725715 0.01107628
v 0.00290407 0.03483616 0.02125012
v 0.00068786 0.03054286 0.01133953
v 0.01305900 0.02928873 0.01618420
v 0.00065990 0.03397465 0.01827866
v 0.00726641 0.03226677 0.01686419
v 0.01238486 0.03076129 0.01839010
v 0.01014085 0.02926304 0.01317764
v 0.00066181 0.03478770 0.02051309
v 0.00067312 0.03105814 0.01224647
v 0.00663834 0.03413360 0.02123678
v 0.00364043 0.03310101 0.01685886
v 0.01317399 0.03090651 0.01983107
v 0.01092751 0.03151220 0.01838898
v 0.01233183 0.02705336 0.01169335
v 0.00726906 0.03081134 0.01390653
v 0.00947344 0.03150220 0.01688401
v 0.00286535 0.03462007 0.02056588
v 0.00363534 0.03083699 0.01235244
v 0.01107801 0.03258607 0.02127553
v 0.00581993 0.03385086 0.01984146
v 0.01245461 0.03163344 0.02059802
v 0.01305867 0.02704051 0.01244304
v 0.00797266 0.02929626 0.01169128
v 0.00580812 0.03231786 0.01611470
v 0.00945821 0.03000113 0.01393817
v 0.00656227 0.03392787 0.02056832
v 0.00213677 0.03388543 0.01832875
v 0.01098028 0.03237307 0.02059200
v 0.00436580 0.03385872 0.01907288
v 0.00581026 0.03080279 0.01311419
f 1 2 3
f 5 2 1
f 7 5 1
f 7 1 3
f 8 3 2
f 9 2 5
f 10 4 5
f 11 8 2
f 11 6 8
f 11 2 9
f 12 3 8
f 13 9 5
f 17 13 5
f 17 5 4
f 18 11 9
f 18 9 13
f 20 18 13
f 21 3 12
f 21 12 15
f 23 16 12
f 25 15 12
f 25 12 16
f 25 22 15
f 25 24 14
f 26 17 4
f 26 4 10
f 27 6 11
f 27 11 18
f 27 18 20
f 28 19 10
f 28 10 5
f 28 5 7
f 29 26 10
f 29 10 19
f 30 21 15
f 30 7 3
f 30 3 21
f 30 15 22
f 31 23 12
f 31 12 8
f 31 8 23
f 32 23 8
f 32 8 6
f 32 16 23
f 33 14 24
f 33 29 14
f 33 27 20
f 34 25 16
f 34 24 25
f 34 32 24
f 34 16 32
f 35 25 14
f 35 19 28
f 35 29 19
f 35 14 29
f 36 13 17
f 36 17 26
f 36 20 13
f 37 22 25
f 37 35 28
f 37 25 35
f 37 30 22
f 37 28 7
f 37 7 30
f 38 26 29
f 38 36 26
f 38 20 36
f 38 33 20
f 38 29 33
f 39 32 6
f 39 24 32
f 39 33 24
f 39 6 27
f 39 27 33

