# https://github.com/mikedh/trimesh
v 0.00668629 0.02235159 0.06543319
v 0.00785134 0.02307767 0.06487687
v 0.00141676 0.02590756 0.06440498
v -0.00464985 0.02658863 0.06401067
v -0.00463015 0.02255683 0.06591625
v 0.00670321 0.02613044 0.06340238
v 0.00516923 0.02511795 0.06442557
v 0.00755612 0.02254937 0.06517213
v 0.00141549 0.02447700 0.06515387
v 0.00751772 0.02551789 0.06357976
v 0.00663350 0.02301692 0.06518262
v 0.00655108 0.02580889 0.06368298
v -0.00458464 0.02449793 0.06519341
v 0.00733119 0.02436608 0.06436256
v 0.00514236 0.02370335 0.06513871
v -0.00456199 0.02591075 0.06444820
v -0.00473173 0.02328663 0.06567159
v 0.00736252 0.02519785 0.06385129
f 6 4 3
f 8 1 5
f 9 5 1
f 9 7 3
f 10 5 4
f 10 4 6
f 10 8 5
f 10 2 8
f 11 8 2
f 11 1 8
f 12 6 3
f 12 3 7
f 12 10 6
f 13 9 3
f 14 11 2
f 14 7 11
f 14 12 7
f 15 9 1
f 15 1 11
f 15 11 7
f 15 7 9
f 16 13 3
f 16 3 4
f 16 4 13
f 17 13 4
f 17 4 5
f 17 5 9
f 17 9 13
f 18 14 2
f 18 2 10
f 18 10 12
f 18 12 14

