# https://github.com/mikedh/trimesh
v 0.01522436 0.01802103 0.05996467
v 0.01522436 0.01802103 0.05079809
v 0.01479362 0.03100631 0.05052072
v -0.00823474 0.03480637 0.05054051
v -0.01456700 0.01802103 0.06072855
v -0.01456700 0.01802103 0.05079809
v 0.00068001 0.03059192 0.06037410
v -0.01439652 0.03223343 0.05069390
v 0.01471192 0.02576362 0.05934529
v 0.00587257 0.03478414 0.05053497
v 0.00071062 0.01802103 0.06072855
v -0.01456700 0.02642373 0.05079809
v -0.01351871 0.03274052 0.05062655
v -0.01415711 0.02662562 0.06021167
v 0.00064041 0.03390456 0.05497721
v 0.01015432 0.03079175 0.05635149
v -0.01046957 0.03408200 0.05055626
v -0.01404435 0.03012339 0.05562180
v 0.00214331 0.03467986 0.05273909
v -0.00597496 0.03234700 0.05711842
v 0.01459184 0.02859816 0.05559689
v 0.01021350 0.03312896 0.05119438
v 0.00725006 0.03008663 0.05926696
v -0.01405700 0.03163864 0.05268670
v -0.00526775 0.03465889 0.05271917
v 0.00579929 0.03306302 0.05490648
v -0.00231821 0.03239735 0.05787658
v -0.00818379 0.03306456 0.05489591
v -0.00886574 0.03008842 0.05931123
v 0.01164049 0.02857107 0.05851380
v 0.01237452 0.03083875 0.05410819
v 0.01033722 0.03332134 0.05053066
v 0.01309063 0.02709525 0.05919482
v -0.01332555 0.03234149 0.05195875
v 0.00433423 0.03462354 0.05196548
v 0.00653789 0.03383279 0.05267879
v 0.00723820 0.03152593 0.05710733
v 0.00359633 0.03387102 0.05420134
v 0.00062961 0.03239395 0.05786103
v -0.00375988 0.03387686 0.05495383
v -0.00890517 0.03383566 0.05271364
v -0.01111982 0.02860128 0.06002903
v -0.00672366 0.03019149 0.06006502
v -0.01035630 0.03232137 0.05490238
v -0.00739497 0.03158332 0.05782301
v 0.01162331 0.03004254 0.05634386
v 0.00870756 0.03004158 0.05853940
v 0.01463579 0.03084835 0.05115465
v 0.01016995 0.03151531 0.05489415
v 0.01460062 0.02711228 0.05783405
v -0.01183878 0.03305175 0.05192824
v 0.00579998 0.03457948 0.05119593
v 0.00433520 0.03088167 0.05932597
v 0.00136776 0.03315272 0.05641082
v -0.00375556 0.03312758 0.05642072
v -0.00596798 0.03391955 0.05421009
v -0.00817511 0.03459503 0.05123495
v -0.01328219 0.02857277 0.05853167
v -0.00522889 0.03161049 0.05854970
v -0.01251362 0.03005293 0.05704678
v -0.01036066 0.03303108 0.05341410
v -0.00888940 0.03159880 0.05706282
v 0.01236179 0.03002582 0.05560870
v 0.01167621 0.03153243 0.05338030
f 1 2 3
f 5 2 1
f 6 3 2
f 6 2 5
f 9 7 1
f 9 1 3
f 10 3 4
f 11 7 5
f 11 5 1
f 11 1 7
f 12 8 6
f 12 6 5
f 12 5 8
f 13 6 8
f 14 8 5
f 14 5 7
f 17 6 13
f 17 4 3
f 17 3 6
f 18 8 14
f 19 10 4
f 21 9 3
f 24 8 18
f 25 19 4
f 25 15 19
f 32 3 10
f 33 23 7
f 33 7 9
f 33 30 23
f 34 13 8
f 34 8 24
f 35 10 19
f 36 32 10
f 36 22 32
f 38 19 15
f 38 35 19
f 38 36 35
f 38 26 36
f 39 27 7
f 40 27 15
f 40 15 25
f 43 29 42
f 43 42 14
f 43 14 7
f 44 34 24
f 44 24 18
f 45 20 28
f 45 29 43
f 46 16 30
f 46 31 16
f 47 30 16
f 47 23 30
f 47 37 23
f 47 16 37
f 48 31 21
f 48 21 3
f 48 3 32
f 49 16 31
f 49 22 36
f 49 37 16
f 49 36 26
f 49 26 37
f 50 33 9
f 50 9 21
f 50 30 33
f 50 46 30
f 50 21 46
f 51 17 13
f 51 13 34
f 51 34 44
f 52 36 10
f 52 10 35
f 52 35 36
f 53 39 7
f 53 7 23
f 53 23 37
f 54 38 15
f 54 15 27
f 54 27 39
f 54 39 53
f 54 26 38
f 54 53 37
f 54 37 26
f 55 27 40
f 56 40 25
f 56 55 40
f 56 28 20
f 56 20 55
f 56 41 28
f 57 4 17
f 57 17 41
f 57 25 4
f 57 56 25
f 57 41 56
f 58 18 14
f 58 14 42
f 59 45 43
f 59 20 45
f 59 55 20
f 59 27 55
f 59 43 7
f 59 7 27
f 60 42 29
f 60 58 42
f 60 44 18
f 60 18 58
f 61 44 28
f 61 28 41
f 61 51 44
f 61 41 17
f 61 17 51
f 62 29 45
f 62 60 29
f 62 44 60
f 62 45 28
f 62 28 44
f 63 46 21
f 63 21 31
f 63 31 46
f 64 31 48
f 64 49 31
f 64 22 49
f 64 48 32
f 64 32 22

