# https://github.com/mikedh/trimesh
v 0.01850938 -0.02032571 0.06239566
v 0.03123284 -0.00933082 0.05058528
v 0.02738374 -0.00033518 0.06012197
v 0.01751601 0.00809058 0.05996467
v 0.01751601 -0.01940914 0.05079809
v 0.03028144 0.00803150 0.05073557
v 0.02620930 0.00793806 0.05960741
v 0.02649893 -0.01220464 0.05929552
v 0.02789824 -0.01924700 0.05068814
v 0.01751601 -0.00031211 0.06072855
v 0.03032844 0.00189210 0.05424811
v 0.01751601 0.00809058 0.05079809
v 0.02952115 -0.00628409 0.05643237
v 0.02654775 -0.01000510 0.06003637
v 0.02968468 -0.01527384 0.05053945
v 0.02441259 -0.01893804 0.05788751
v 0.03127400 0.00342290 0.05059484
v 0.02878930 0.00334241 0.05715614
v 0.03106024 -0.00780504 0.05201154
v 0.02735297 -0.00558764 0.06004489
v 0.02506611 -0.01445513 0.06003413
v 0.02804232 -0.01004275 0.05785528
v 0.02837719 -0.01835623 0.05059075
v 0.03029531 0.00407699 0.05349932
v 0.03055108 0.00715144 0.05059811
v 0.02733134 0.00409377 0.05935011
v 0.02957376 -0.00036500 0.05646903
v 0.03107568 0.00188665 0.05201721
v 0.02951190 -0.01149336 0.05420383
v 0.02881923 -0.00559991 0.05789644
v 0.02724680 -0.01519241 0.05636042
v 0.02236698 -0.01902276 0.06018893
v 0.02806321 -0.00776492 0.05857985
v 0.02952409 0.00335825 0.05569237
v 0.03024662 0.00557381 0.05273889
v 0.02800810 0.00708011 0.05713157
v 0.02807747 0.00257098 0.05864458
v 0.03108462 0.00340175 0.05130779
v 0.03025530 -0.01078079 0.05272660
v 0.02952155 -0.00852762 0.05567561
v 0.02880938 -0.00034997 0.05791672
v 0.02573070 -0.01665062 0.05779723
v 0.02799210 -0.01519961 0.05489038
v 0.02725607 -0.01294969 0.05782374
v 0.02362043 -0.01741547 0.05995835
v 0.02877907 -0.00850844 0.05714946
v 0.03036123 0.00711368 0.05130363
v 0.02731753 0.00632811 0.05861453
v 0.02873596 0.00557675 0.05643559
v 0.02884541 0.00784049 0.05498882
v 0.02947231 -0.01447876 0.05196208
v 0.03104836 -0.00929659 0.05129989
v 0.03027726 -0.00778492 0.05423339
v 0.02729794 -0.01892523 0.05272761
v 0.02875905 -0.01296053 0.05494422
v 0.02650390 -0.01373413 0.05853515
v 0.02426248 -0.01739493 0.05924552
v 0.02733841 0.00784951 0.05792591
v 0.02659782 0.00709202 0.05938680
v 0.02874702 0.00710258 0.05568095
v 0.02966968 0.00785587 0.05280836
v 0.02797370 -0.01818031 0.05193838
v 0.02500596 -0.01886660 0.05710946
v 0.02501624 -0.01592868 0.05925733
f 7 1 3
f 7 6 4
f 9 1 5
f 10 5 1
f 10 4 5
f 10 7 4
f 10 1 7
f 12 5 4
f 12 4 6
f 15 5 12
f 16 1 9
f 17 2 15
f 19 2 17
f 20 3 1
f 20 1 14
f 21 14 1
f 21 8 14
f 22 14 8
f 23 9 5
f 23 5 15
f 25 17 15
f 25 15 12
f 25 12 6
f 26 7 3
f 27 19 11
f 27 13 19
f 28 19 17
f 28 11 19
f 28 24 11
f 30 3 20
f 30 13 27
f 32 1 16
f 33 20 14
f 33 14 22
f 33 30 20
f 34 11 24
f 34 27 11
f 34 18 27
f 37 26 3
f 38 28 17
f 38 24 28
f 38 35 24
f 38 17 25
f 40 22 29
f 41 30 27
f 41 3 30
f 41 37 3
f 41 27 18
f 41 18 37
f 44 22 8
f 45 21 1
f 45 1 32
f 46 33 22
f 46 13 30
f 46 30 33
f 46 40 13
f 46 22 40
f 47 25 6
f 47 38 25
f 47 35 38
f 48 26 37
f 48 37 18
f 49 18 34
f 49 48 18
f 49 36 48
f 50 6 7
f 51 39 29
f 51 15 39
f 52 39 15
f 52 15 2
f 52 2 19
f 53 40 29
f 53 29 39
f 53 19 13
f 53 13 40
f 53 52 19
f 53 39 52
f 54 43 31
f 55 29 22
f 55 22 44
f 55 51 29
f 55 43 51
f 55 44 31
f 55 31 43
f 56 42 31
f 56 31 44
f 56 44 8
f 56 8 21
f 57 45 32
f 57 32 16
f 57 16 42
f 58 48 36
f 58 50 7
f 59 7 26
f 59 26 48
f 59 58 7
f 59 48 58
f 60 49 34
f 60 34 24
f 60 24 35
f 60 35 50
f 60 36 49
f 60 58 36
f 60 50 58
f 61 47 6
f 61 6 50
f 61 50 35
f 61 35 47
f 62 23 15
f 62 15 51
f 62 51 43
f 62 43 54
f 62 54 9
f 62 9 23
f 63 42 16
f 63 16 9
f 63 9 54
f 63 54 31
f 63 31 42
f 64 56 21
f 64 42 56
f 64 57 42
f 64 21 45
f 64 45 57

