{"scene":0,"scenes":[{"nodes":[0]}],"asset":{"version":"2.0","generator":"https://github.com/mikedh/trimesh"},"accessors":[{"componentType":5125,"type":"SCALAR","bufferView":0,"count":26802,"max":[26746],"min":[0]},{"componentType":5126,"type":"VEC3","byteOffset":0,"bufferView":1,"count":26747,"max":[0.07500000298023224,0.0,0.07493526488542557],"min":[-0.07500000298023224,-0.044530611485242844,-0.07493526488542557]},{"componentType":5126,"type":"VEC2","byteOffset":0,"bufferView":3,"count":26747,"max":[0.9995300769805908,0.9995629191398621],"min":[0.000469924823846668,0.00043708086013793945]}],"meshes":[{"name":"geometry_0.002","extras":{"units":"meters","from_gltf_primitive":false,"name":"geometry_0.002","node":"geometry_0.001"},"primitives":[{"attributes":{"POSITION":1,"TEXCOORD_0":2},"indices":0,"mode":4,"material":0}]}],"images":[{"bufferView":2,"mimeType":"image/png"}],"textures":[{"source":0}],"materials":[{"pbrMetallicRoughness":{"baseColorTexture":{"index":0}},"name":"Material_0.002","doubleSided":false}],"nodes":[{"name":"world","children":[1]},{"name":"geometry_0.002","mesh":0}],"buffers":[{"uri":"gltf_buffer_0.bin","byteLength":107208},{"uri":"gltf_buffer_1.bin","byteLength":320964},{"uri":"gltf_buffer_2.bin","byteLength":967464},{"uri":"gltf_buffer_3.bin","byteLength":213976}],"bufferViews":[{"buffer":0,"byteOffset":0,"byteLength":107208},{"buffer":1,"byteOffset":0,"byteLength":320964},{"buffer":2,"byteOffset":0,"byteLength":967464},{"buffer":3,"byteOffset":0,"byteLength":213976}]}