# https://github.com/mikedh/trimesh
v 0.01212411 -0.07375321 -0.00019840
v 0.03978554 -0.06030085 -0.04048637
v 0.03977843 -0.06029578 -0.00001949
v -0.03523198 -0.06030467 -0.00003759
v -0.02300233 -0.07122583 -0.04028763
v 0.03031366 -0.05956133 -0.04401224
v 0.03381078 -0.06677710 -0.04040175
v -0.02296641 -0.07134662 -0.00054742
v -0.03040034 -0.05980271 -0.04406517
v 0.03910935 -0.06377147 -0.04040027
v 0.03394028 -0.06668510 -0.00065747
v 0.01212269 -0.07389809 -0.04028370
v -0.02093416 -0.07173488 -0.00020273
v -0.03393527 -0.06674644 -0.04029655
v 0.02751099 -0.06955717 -0.00032493
v 0.03906249 -0.06366129 -0.00024052
v 0.03650172 -0.06526516 -0.00037024
v 0.02526487 -0.06226447 -0.04391593
v -0.01646296 -0.06484502 -0.04399286
v -0.03464003 -0.06602374 -0.00015197
v -0.01211619 -0.07387117 -0.00027798
v -0.02522478 -0.06225563 -0.04403205
v -0.03565821 -0.06114541 -0.04016145
v 0.02096723 -0.07179413 -0.00026962
v 0.02946215 -0.06033152 -0.04388947
v 0.02301226 -0.07124297 -0.04024530
v -0.01211303 -0.07391508 -0.04030701
v 0.01647421 -0.06469366 -0.04400658
v -0.03198967 -0.06749776 -0.00017558
v -0.01424459 -0.07363592 -0.00048415
v 0.02301544 -0.07129925 -0.00050572
v -0.03388644 -0.06683462 -0.00068398
v -0.01422029 -0.07362153 -0.00930663
f 1 3 4
f 6 3 2
f 6 4 3
f 9 4 6
f 10 2 3
f 10 7 6
f 10 6 2
f 13 1 4
f 14 5 8
f 15 7 11
f 16 10 3
f 17 11 7
f 17 7 10
f 17 10 16
f 17 16 15
f 17 15 11
f 20 13 4
f 21 12 1
f 21 1 13
f 22 14 9
f 22 5 14
f 22 19 5
f 23 4 9
f 23 9 14
f 23 20 4
f 23 14 20
f 24 3 1
f 24 1 12
f 24 16 3
f 24 15 16
f 25 18 6
f 25 6 7
f 25 7 18
f 26 18 7
f 26 7 15
f 27 19 12
f 27 5 19
f 27 12 21
f 28 12 19
f 28 26 12
f 28 18 26
f 28 6 18
f 28 19 22
f 28 22 9
f 28 9 6
f 29 8 13
f 29 13 20
f 30 21 13
f 30 13 8
f 30 27 21
f 31 26 15
f 31 15 24
f 31 24 12
f 31 12 26
f 32 29 20
f 32 20 14
f 32 14 8
f 32 8 29
f 33 5 27
f 33 27 30
f 33 30 8
f 33 8 5

