# https://github.com/mikedh/trimesh
v -0.03521022 -0.04665651 -0.00044215
v -0.03522727 -0.03756474 -0.02066697
v -0.03522736 0.03516254 -0.00038869
v -0.05340952 0.03516286 -0.00037902
v -0.05568946 -0.03757613 -0.00005696
v -0.05340909 0.03516254 -0.02066697
v -0.03522727 0.03516254 -0.02066697
v -0.05340909 -0.03756474 -0.02066697
v -0.05626507 -0.03334534 -0.00009375
v -0.04204580 -0.04665599 -0.00042774
f 5 1 3
f 5 3 4
f 7 1 2
f 7 3 1
f 7 2 6
f 7 6 4
f 7 4 3
f 8 2 1
f 8 6 2
f 9 5 4
f 9 4 6
f 9 8 5
f 9 6 8
f 10 8 1
f 10 1 5
f 10 5 8

