# https://github.com/mikedh/trimesh
v 0.07324110 0.01457342 -0.00010026
v 0.07350103 0.01463622 -0.03202863
v 0.06403577 0.03877839 -0.03202838
v 0.05799715 0.03518473 -0.00003754
v 0.05795455 0.01470799 -0.03203061
v 0.06679286 0.03383988 -0.00029087
v 0.05795449 0.01470829 -0.00045813
v 0.06617078 0.03472754 -0.04049429
v 0.07124246 0.02293427 -0.00020433
v 0.05795008 0.02380470 -0.00044575
v 0.07103188 0.02363664 -0.04039578
v 0.06672708 0.03389719 -0.04028869
v 0.06726686 0.02387259 -0.04029770
v 0.07130285 0.02303454 -0.03201701
v 0.06882482 0.02949143 -0.04032501
v 0.06890644 0.02942301 -0.00048716
f 5 2 1
f 5 4 3
f 6 3 4
f 7 5 1
f 7 1 4
f 8 5 3
f 9 1 2
f 9 6 4
f 9 4 1
f 10 7 4
f 10 4 5
f 10 5 7
f 11 2 5
f 12 8 3
f 12 3 6
f 13 11 5
f 13 5 8
f 13 8 11
f 14 9 2
f 14 2 11
f 15 11 8
f 15 8 12
f 15 14 11
f 16 15 12
f 16 12 6
f 16 6 9
f 16 9 14
f 16 14 15

