# https://github.com/mikedh/trimesh
v -0.05292812 -0.03721618 -0.00041822
v -0.05609185 -0.04015611 -0.03913724
v -0.05677425 0.03714927 -0.03962541
v -0.06666558 0.03387219 -0.00022406
v -0.07362269 -0.01425257 -0.00052009
v -0.05341538 0.03516729 -0.00037899
v -0.06516722 -0.03651661 -0.00022260
v -0.07391136 -0.01216076 -0.04032347
v -0.05568946 -0.03757613 -0.00005696
v -0.07384291 -0.01211589 -0.00024474
v -0.06196073 -0.02592559 -0.04417187
v -0.07120171 -0.02315666 -0.04026202
v -0.07127563 0.02298704 -0.04022071
v -0.06943453 -0.02758718 -0.00017200
v -0.07355516 -0.01428805 -0.03655564
v -0.06532153 -0.03657008 -0.04036973
v -0.06483539 -0.01667684 -0.04413392
v -0.06681001 0.03384364 -0.04027875
v -0.07366421 0.01411365 -0.00058485
v -0.07174587 -0.02105486 -0.00023975
v -0.07173173 0.02089884 -0.00016816
v -0.07128187 -0.02314101 -0.00043707
v -0.06884991 -0.02958546 -0.01385024
v -0.06668376 -0.03402024 -0.04031751
v -0.06249841 -0.03756907 -0.04043934
v -0.06243800 -0.02499989 -0.04417031
v -0.06470054 0.01641968 -0.04405145
v -0.06887672 0.02950365 -0.00048936
v -0.06264226 0.03526834 -0.04041426
v -0.07353923 0.01429868 -0.04034378
v -0.07384012 0.01199668 -0.00024044
v -0.07133950 0.02306017 -0.00057360
v -0.06886651 -0.02961048 -0.00048112
v -0.06203827 0.02584686 -0.04399717
v -0.06886984 0.02948888 -0.04032977
v -0.06225392 0.02527830 -0.04400100
v -0.06674706 -0.03397073 -0.00056844
f 6 3 4
f 6 1 2
f 6 2 3
f 9 7 2
f 9 2 1
f 9 1 6
f 9 6 4
f 10 8 5
f 11 3 2
f 14 7 9
f 15 5 8
f 15 8 12
f 16 2 7
f 17 12 8
f 20 14 10
f 20 10 5
f 21 14 9
f 21 9 4
f 21 10 14
f 22 15 12
f 22 5 15
f 22 20 5
f 22 14 20
f 24 23 12
f 25 16 11
f 25 11 2
f 25 2 16
f 26 12 17
f 26 24 12
f 26 11 16
f 26 16 24
f 27 17 8
f 27 26 17
f 27 11 26
f 28 4 18
f 28 21 4
f 29 18 4
f 29 4 3
f 30 27 8
f 31 8 10
f 31 21 19
f 31 10 21
f 31 30 8
f 31 19 30
f 32 19 21
f 32 30 19
f 32 13 30
f 32 21 28
f 33 14 22
f 33 22 12
f 33 12 23
f 33 7 14
f 33 23 24
f 34 18 29
f 34 29 3
f 34 3 11
f 35 28 18
f 35 32 28
f 35 13 32
f 35 18 34
f 36 30 13
f 36 27 30
f 36 35 34
f 36 13 35
f 36 34 11
f 36 11 27
f 37 33 24
f 37 24 16
f 37 16 7
f 37 7 33

