# https://github.com/mikedh/trimesh
v 0.00113794 0.05334449 -0.00042911
v 0.03531976 0.06257163 -0.04044028
v 0.03400584 0.06675835 -0.00063531
v -0.01427839 0.07363691 -0.00048962
v -0.02589062 0.06195924 -0.04401102
v 0.01434796 0.07354348 -0.04022163
v 0.03522694 0.06243517 -0.00004744
v 0.00113636 0.05334435 -0.03203061
v -0.03068348 0.05334471 -0.00038952
v 0.03403896 0.06670260 -0.04027799
v 0.01424359 0.07352196 -0.00024094
v -0.02306952 0.07122980 -0.04029752
v 0.02588391 0.06187345 -0.04403969
v -0.03061973 0.05333104 -0.00039014
v -0.01250000 0.05334435 -0.03203061
v 0.02309295 0.07129988 -0.00701257
v -0.01219910 0.07402058 -0.00034517
v 0.01896480 0.07233029 -0.00016650
v -0.00110590 0.06680515 -0.04408942
v -0.03020277 0.06822490 -0.00014392
v 0.02304290 0.07120568 -0.04021040
v 0.02952470 0.06888728 -0.00043180
v -0.01440238 0.07349045 -0.04019529
v 0.00310432 0.06676921 -0.04412356
v -0.02309227 0.07128467 -0.00028468
v -0.02951540 0.06883058 -0.04018862
v 0.01860931 0.06428800 -0.04406297
v 0.02950961 0.06884422 -0.04018240
v -0.01855499 0.06449615 -0.04387804
v -0.03098056 0.06365243 -0.04019457
v -0.02764021 0.06963706 -0.00031329
v 0.02509487 0.06234827 -0.04399817
v -0.03070468 0.05562198 -0.00038475
v -0.02958934 0.06888412 -0.00049538
f 7 2 3
f 8 7 1
f 8 2 7
f 10 3 2
f 13 2 8
f 13 10 2
f 14 8 1
f 14 1 7
f 14 7 9
f 15 9 5
f 15 14 9
f 15 8 14
f 15 13 8
f 15 5 13
f 16 6 11
f 17 11 6
f 18 16 11
f 18 11 17
f 20 9 7
f 20 18 17
f 20 7 18
f 21 6 16
f 22 3 10
f 22 16 18
f 22 18 7
f 22 7 3
f 23 12 4
f 23 4 17
f 23 17 6
f 24 13 5
f 24 5 19
f 24 23 6
f 24 19 23
f 25 4 12
f 25 20 17
f 25 17 4
f 26 12 5
f 27 6 21
f 27 24 6
f 27 13 24
f 28 22 10
f 28 21 16
f 28 16 22
f 29 23 19
f 29 19 5
f 29 5 12
f 29 12 23
f 30 26 5
f 30 5 9
f 30 20 26
f 31 25 12
f 31 12 26
f 31 20 25
f 32 27 21
f 32 13 27
f 32 21 28
f 32 28 10
f 32 10 13
f 33 30 9
f 33 9 20
f 33 20 30
f 34 31 26
f 34 26 20
f 34 20 31

