# https://github.com/mikedh/trimesh
v 0.03906249 -0.06366129 -0.00024052
v 0.07386914 -0.01215937 -0.04040529
v 0.07387161 -0.01219191 -0.00025541
v 0.03977293 0.03516284 -0.00041156
v 0.03977505 0.03516349 -0.04448746
v 0.06631004 0.03478578 -0.03203079
v 0.05799715 0.03518473 -0.00003754
v 0.06011308 -0.04480756 -0.00057332
v 0.03910935 -0.06377147 -0.04040027
v 0.03905700 -0.05474132 -0.04388385
v 0.07365040 0.01421143 -0.00038554
v 0.06617078 0.03472754 -0.04049429
v 0.07384561 0.01200108 -0.00011423
v 0.06887199 -0.02965878 -0.00045808
v 0.04715890 -0.05820213 -0.00040798
v 0.06435733 -0.03832080 -0.04021794
v 0.06484372 -0.01652705 -0.04397777
v 0.07388789 0.01203657 -0.04039552
v 0.04065007 -0.06264045 -0.00020873
v 0.07128636 -0.02311239 -0.00046576
v 0.05998243 -0.04477893 -0.04028188
v 0.06447390 -0.03826539 -0.00060967
v 0.05527050 -0.03817939 -0.04396696
v 0.07118246 -0.02309995 -0.04044241
v 0.06438835 0.01847898 -0.04413717
v 0.07120757 0.02303056 -0.04039444
v 0.07176950 -0.02107125 -0.00021777
v 0.04481865 -0.06005156 -0.00037094
v 0.05813461 -0.04715792 -0.00027673
v 0.07355376 -0.01428495 -0.00929847
v 0.04470810 -0.06001313 -0.04025511
v 0.06668148 -0.03402809 -0.04042974
v 0.04052813 -0.05368012 -0.04388477
v 0.06884696 -0.02959639 -0.02748193
v 0.05782007 0.03389103 -0.04411239
v 0.07130285 0.02303454 -0.03201701
v 0.06234079 0.02527910 -0.04400002
v 0.06675882 -0.03405021 -0.00033986
v 0.07352203 -0.01435076 -0.00049442
v 0.04072616 -0.06275682 -0.04037106
v 0.06231564 -0.02520629 -0.04392582
v 0.07355714 0.01416243 -0.03882685
f 7 5 4
f 10 1 4
f 10 4 5
f 10 9 1
f 11 6 7
f 12 7 6
f 12 5 7
f 13 11 7
f 18 2 17
f 18 11 13
f 18 13 3
f 18 3 2
f 19 13 7
f 19 7 4
f 19 4 1
f 21 16 8
f 22 8 16
f 23 10 5
f 23 5 17
f 24 17 2
f 25 17 5
f 25 18 17
f 26 12 6
f 26 18 25
f 27 3 13
f 27 13 19
f 27 14 20
f 28 19 1
f 28 1 9
f 28 15 19
f 29 19 15
f 29 27 19
f 29 8 22
f 29 21 8
f 29 15 21
f 30 2 3
f 30 24 2
f 30 20 24
f 31 21 15
f 31 15 28
f 32 16 21
f 32 21 23
f 33 23 21
f 33 10 23
f 33 21 31
f 34 24 20
f 34 20 14
f 34 32 24
f 35 25 5
f 35 5 12
f 36 26 6
f 36 6 11
f 37 26 25
f 37 12 26
f 37 35 12
f 37 25 35
f 38 14 27
f 38 27 29
f 38 29 22
f 38 22 16
f 38 16 32
f 38 34 14
f 38 32 34
f 39 27 20
f 39 20 30
f 39 30 3
f 39 3 27
f 40 31 28
f 40 28 9
f 40 33 31
f 40 9 10
f 40 10 33
f 41 32 23
f 41 23 17
f 41 17 24
f 41 24 32
f 42 36 11
f 42 11 18
f 42 18 26
f 42 26 36

