# https://github.com/mikedh/trimesh
v 0.03977843 -0.06029578 -0.00001949
v 0.03978554 -0.06030085 -0.04048637
v 0.03977376 -0.04210788 -0.04442537
v -0.03522727 -0.04211019 -0.02066697
v -0.03782169 -0.06466637 -0.02065620
v 0.03977279 -0.04211040 -0.00043571
v -0.03402798 -0.05771820 -0.04404518
v -0.01477258 -0.04211016 -0.00046856
v 0.04009082 -0.05164711 -0.00009894
v 0.03400547 -0.05785931 -0.04373259
v -0.03522911 -0.04210799 -0.04438307
v -0.01477267 -0.06029201 -0.00046868
v 0.03804712 -0.05535976 -0.04394056
v 0.02400422 -0.06068727 -0.00015871
f 5 2 1
f 7 2 5
f 8 4 5
f 8 6 3
f 9 1 2
f 9 2 3
f 9 3 6
f 9 8 1
f 9 6 8
f 10 2 7
f 11 7 5
f 11 5 4
f 11 3 7
f 11 8 3
f 11 4 8
f 12 8 5
f 12 1 8
f 13 10 7
f 13 7 3
f 13 3 2
f 13 2 10
f 14 12 5
f 14 5 1
f 14 1 12

