# https://github.com/mikedh/trimesh
v -0.04128533 -0.06251630 -0.03202725
v -0.03522513 -0.05346921 -0.04434543
v -0.03522727 0.03516254 -0.02066697
v -0.05340909 0.03516254 -0.02066697
v -0.05333558 -0.03752514 -0.04435645
v -0.05340909 -0.03756474 -0.02066697
v -0.03522727 -0.03756474 -0.02066697
v -0.04718618 -0.05811061 -0.04030750
v -0.03522684 0.03516346 -0.04446616
v -0.05340703 0.03516280 -0.04442213
v -0.03738796 -0.05728590 -0.03953593
v -0.04068551 -0.05370664 -0.04406155
v -0.04720115 -0.05818716 -0.03202964
v -0.03977835 -0.06029538 -0.04048786
v -0.04738732 -0.04754457 -0.04406394
v -0.03912584 -0.05476106 -0.04404296
f 6 3 4
f 7 2 3
f 7 6 1
f 7 3 6
f 9 3 2
f 9 2 5
f 9 4 3
f 10 6 4
f 10 5 6
f 10 9 5
f 10 4 9
f 11 7 1
f 11 2 7
f 12 5 2
f 13 8 1
f 13 1 6
f 13 6 5
f 13 5 8
f 14 2 11
f 14 11 1
f 14 1 8
f 15 12 8
f 15 8 5
f 15 5 12
f 16 12 2
f 16 2 14
f 16 14 8
f 16 8 12

