# https://github.com/mikedh/trimesh
v -0.03068223 0.03516268 -0.00039695
v -0.03068139 0.03516346 -0.04446780
v -0.03020277 0.06822490 -0.00014392
v -0.03028920 0.06834713 -0.04036658
v -0.06626943 0.03474130 -0.04037105
v -0.06598129 0.03455221 -0.00007296
v -0.03826424 0.05536380 -0.04401229
v -0.04717534 0.05815604 -0.00029935
v -0.05734092 0.03479639 -0.04399768
v -0.04474453 0.06003837 -0.04017424
v -0.03042672 0.05963666 -0.04400304
v -0.06005533 0.04473386 -0.00028700
v -0.03821624 0.06439861 -0.04039249
v -0.06006701 0.04471455 -0.04022095
v -0.06453192 0.03815808 -0.00060310
v -0.03413875 0.05779241 -0.04398165
v -0.03400541 0.06684638 -0.00041862
v -0.03829019 0.06445865 -0.00048035
v -0.06438014 0.03819100 -0.04030789
v -0.05549269 0.03792337 -0.04394514
v -0.06530413 0.03650311 -0.00025049
v -0.03405222 0.06671324 -0.04024263
v -0.04482977 0.06003302 -0.00051951
f 1 2 3
f 3 2 4
f 6 2 1
f 6 1 3
f 8 6 3
f 9 6 5
f 9 2 6
f 9 7 2
f 11 4 2
f 11 2 7
f 12 6 8
f 13 7 10
f 13 4 11
f 14 12 8
f 14 8 10
f 14 10 7
f 15 12 14
f 16 13 11
f 16 11 7
f 16 7 13
f 17 3 4
f 18 13 10
f 18 17 13
f 18 8 3
f 18 3 17
f 19 9 5
f 19 15 14
f 19 5 15
f 20 14 7
f 20 7 9
f 20 19 14
f 20 9 19
f 21 15 5
f 21 5 6
f 21 6 12
f 21 12 15
f 22 17 4
f 22 4 13
f 22 13 17
f 23 18 10
f 23 10 8
f 23 8 18

