# https://github.com/mikedh/trimesh
v -0.02348573 -0.07064303 -0.00009014
v -0.01477273 -0.06029201 -0.02066697
v -0.01477258 -0.04211016 -0.00046856
v -0.03522740 -0.04211010 -0.00043883
v -0.03782169 -0.06466637 -0.02065620
v -0.03522727 -0.04211019 -0.02066697
v -0.03523198 -0.06030467 -0.00003759
v -0.01477267 -0.06029201 -0.00046868
v -0.02367707 -0.07109956 -0.00702756
v -0.01477273 -0.04211019 -0.02066697
v -0.03579253 -0.05440970 -0.00012358
v -0.02749727 -0.06944431 -0.00017692
v -0.02760576 -0.06968966 -0.00702881
f 6 5 4
f 6 2 5
f 7 1 3
f 8 2 3
f 8 3 1
f 9 5 2
f 9 8 1
f 9 2 8
f 10 3 2
f 10 2 6
f 10 6 4
f 10 4 3
f 11 7 3
f 11 3 4
f 11 4 5
f 11 5 7
f 12 7 5
f 12 1 7
f 12 9 1
f 13 12 5
f 13 5 9
f 13 9 12

