# https://github.com/mikedh/trimesh
v 0.03522748 0.03516284 -0.00041622
v 0.03522919 0.03516252 -0.04447990
v 0.03682333 0.06522641 -0.00704189
v -0.03311709 0.06727969 -0.00704236
v -0.03068223 0.03516268 -0.00039695
v 0.02963142 0.06031395 -0.04393770
v 0.01931426 0.06241918 -0.00017208
v -0.03068139 0.03516346 -0.04446780
v 0.03531976 0.06257163 -0.04044028
v 0.03522811 0.05334488 -0.00037997
v -0.01931120 0.06241881 -0.00010151
v 0.03390494 0.05781629 -0.04407680
v -0.02951406 0.06027413 -0.04394496
v -0.03068348 0.05334471 -0.00038952
f 1 2 3
f 5 2 1
f 7 3 4
f 8 5 4
f 8 2 5
f 9 3 2
f 9 4 3
f 10 7 1
f 10 1 3
f 10 3 7
f 11 5 1
f 11 1 7
f 11 7 4
f 12 2 8
f 12 9 2
f 12 6 9
f 13 8 4
f 13 12 8
f 13 6 12
f 13 9 6
f 13 4 9
f 14 11 4
f 14 4 5
f 14 5 11

