# https://github.com/mikedh/trimesh
v -0.03464003 -0.06602374 -0.00015197
v -0.03476380 -0.06630838 -0.04034065
v -0.03522727 -0.03756474 -0.03203061
v -0.06532430 -0.03662914 -0.00055544
v -0.04713989 -0.05816690 -0.00035740
v -0.06532153 -0.03657008 -0.04036973
v -0.03522359 -0.03756743 -0.00043698
v -0.03488104 -0.05729844 -0.04408052
v -0.03816365 -0.06443846 -0.00050623
v -0.06452503 -0.03738602 -0.00011625
v -0.06005837 -0.04477742 -0.00057328
v -0.04470053 -0.06005977 -0.04017162
v -0.05635964 -0.03659282 -0.04406317
v -0.03648825 -0.06522175 -0.00025991
v -0.05801398 -0.04716983 -0.00027069
v -0.06285825 -0.04080326 -0.00043226
v -0.04474895 -0.06007923 -0.00055686
v -0.03824920 -0.06441085 -0.03882126
v -0.03814311 -0.05537146 -0.04406305
v -0.04886163 -0.03756149 -0.04437929
v -0.05993423 -0.04475034 -0.04033674
v -0.04078609 -0.06270115 -0.00032476
v -0.06439010 -0.03826480 -0.00049520
v -0.03649966 -0.06536073 -0.04025775
v -0.03522513 -0.05346921 -0.04434543
v -0.06433424 -0.03826885 -0.04038611
v -0.05536992 -0.03807559 -0.04410442
f 7 1 3
f 8 1 2
f 8 3 1
f 10 7 4
f 10 1 7
f 13 6 4
f 13 4 7
f 13 7 3
f 14 9 2
f 14 2 1
f 15 5 1
f 15 1 10
f 16 15 10
f 16 11 15
f 17 5 12
f 18 2 9
f 18 17 12
f 18 9 17
f 19 8 2
f 20 13 3
f 21 12 5
f 21 5 15
f 21 15 11
f 21 11 16
f 21 19 12
f 22 14 1
f 22 1 5
f 22 5 17
f 22 17 9
f 22 9 14
f 23 4 6
f 23 16 10
f 23 10 4
f 24 18 12
f 24 2 18
f 24 19 2
f 24 12 19
f 25 20 3
f 25 3 8
f 25 8 19
f 26 6 13
f 26 21 16
f 26 23 6
f 26 16 23
f 27 19 21
f 27 25 19
f 27 13 20
f 27 20 25
f 27 26 13
f 27 21 26

