# https://github.com/mikedh/trimesh
v -0.05609185 -0.04015611 -0.03913724
v -0.05333558 -0.03752514 -0.04435645
v -0.05340703 0.03516280 -0.04442213
v -0.06531390 0.03673179 -0.03202720
v -0.06249841 -0.03756907 -0.04043934
v -0.05677425 0.03714927 -0.03962541
v -0.06421386 -0.03858999 -0.03203145
v -0.06033939 -0.02960449 -0.04398160
v -0.06264226 0.03526834 -0.04041426
v -0.05635964 -0.03659282 -0.04406317
v -0.06035121 0.02943302 -0.04395364
v -0.05782919 -0.03399132 -0.04409115
v -0.05784238 0.03385421 -0.04402000
f 1 2 3
f 5 2 1
f 6 1 3
f 6 4 1
f 7 5 1
f 7 1 4
f 7 4 5
f 8 3 2
f 9 6 3
f 9 4 6
f 9 8 5
f 9 5 4
f 10 2 5
f 11 3 8
f 11 8 9
f 12 8 2
f 12 2 10
f 12 10 5
f 12 5 8
f 13 11 9
f 13 9 3
f 13 3 11

