# https://github.com/mikedh/trimesh
v 0.06621396 0.03465767 -0.00022156
v 0.06617078 0.03472754 -0.04049429
v 0.05410400 0.05187162 -0.00032039
v 0.03487606 0.06629507 -0.00702912
v 0.03522919 0.03516252 -0.04447990
v 0.04480524 0.05995985 -0.04025055
v 0.03522051 0.03515256 -0.00041624
v 0.06004460 0.04481464 -0.00030604
v 0.05734618 0.03481407 -0.04409123
v 0.05995246 0.04467246 -0.04041995
v 0.04589408 0.05919014 -0.00026724
v 0.03484343 0.06628724 -0.04028882
v 0.06443024 0.03810499 -0.00032667
v 0.04650760 0.04869938 -0.04387369
v 0.06433701 0.03817783 -0.04038172
v 0.03829003 0.06438780 -0.00702013
v 0.04716886 0.05806569 -0.00017912
v 0.03483866 0.05732549 -0.04402451
v 0.06536119 0.03647763 -0.00030051
v 0.05544414 0.03816040 -0.04401244
v 0.04481161 0.06005181 -0.00702083
v 0.03830250 0.06434882 -0.04030866
v 0.04662923 0.04886421 -0.00005537
v 0.03808130 0.05541510 -0.04400103
f 7 5 1
f 9 2 1
f 9 1 5
f 10 6 3
f 10 3 8
f 11 4 7
f 13 8 1
f 14 6 10
f 15 2 9
f 15 10 8
f 15 8 13
f 16 4 11
f 16 12 4
f 17 3 6
f 17 6 11
f 17 8 3
f 17 1 8
f 17 11 7
f 18 7 4
f 18 4 12
f 18 5 7
f 18 9 5
f 19 13 1
f 19 1 2
f 19 15 13
f 19 2 15
f 20 14 10
f 20 15 9
f 20 10 15
f 21 16 11
f 21 11 6
f 22 12 16
f 22 18 12
f 22 21 6
f 22 16 21
f 23 17 7
f 23 7 1
f 23 1 17
f 24 6 14
f 24 14 20
f 24 20 9
f 24 9 18
f 24 22 6
f 24 18 22

