# https://github.com/mikedh/trimesh
v 0.05337220 0.03514047 -0.00038559
v 0.05535480 0.05052535 -0.00703754
v 0.04482311 0.05997209 -0.00027223
v 0.01896480 0.07233029 -0.00016650
v 0.03522051 0.03515256 -0.00041624
v 0.03829003 0.06438780 -0.00702013
v 0.05340623 0.04879531 -0.00004223
v 0.04481161 0.06005181 -0.00702083
v 0.03400584 0.06675835 -0.00063531
v 0.01899574 0.07251348 -0.00702558
v 0.03813848 0.06430360 -0.00018565
v 0.01722693 0.06306774 -0.00015094
v 0.05342267 0.03517066 -0.00038521
v 0.02309295 0.07129988 -0.00701257
v 0.03387593 0.06665751 -0.00019956
v 0.01931376 0.05334579 -0.00042810
v 0.01705994 0.06249461 -0.00036131
v 0.02315100 0.07123932 -0.00025098
v 0.01704566 0.06016296 -0.00041991
f 5 2 1
f 7 5 1
f 7 2 3
f 8 6 3
f 8 3 2
f 8 2 6
f 10 6 2
f 10 2 5
f 11 7 3
f 11 4 7
f 11 3 6
f 11 6 9
f 12 7 4
f 12 5 7
f 13 7 1
f 13 1 2
f 13 2 7
f 14 9 6
f 14 6 10
f 15 11 9
f 15 4 11
f 16 10 5
f 16 5 12
f 17 12 4
f 17 4 10
f 18 14 10
f 18 10 4
f 18 9 14
f 18 15 9
f 18 4 15
f 19 16 12
f 19 12 17
f 19 17 10
f 19 10 16

