# https://github.com/mikedh/trimesh
v -0.18022651 0.00807884 0.11789456
v -0.18022301 0.00855094 -0.05052215
v -0.18022746 0.01688916 0.11788758
v -0.20939038 0.01958191 0.11804698
v -0.21394031 0.00821990 0.06497320
v -0.18022602 0.01654512 -0.05051781
v -0.20917409 0.00776368 0.11794044
v -0.21388578 0.01649391 -0.05051576
v -0.21388573 0.00869661 -0.05051877
v -0.21390235 0.01678995 0.06493785
f 1 2 3
f 1 3 4
f 6 3 2
f 6 4 3
f 7 2 1
f 7 1 4
f 7 4 5
f 8 4 6
f 8 6 2
f 9 7 5
f 9 2 7
f 9 8 2
f 9 5 8
f 10 8 5
f 10 5 4
f 10 4 8

