# https://github.com/mikedh/trimesh
v -0.18022301 0.00855094 -0.05052215
v -0.17993378 0.00866868 -0.10844708
v -0.18092385 0.01787766 -0.10852612
v -0.22352737 0.01646796 -0.05052489
v -0.22364902 0.00842584 -0.08900802
v -0.18022602 0.01654512 -0.05051781
v -0.22355501 0.00865010 -0.05052919
v -0.20913004 0.00881585 -0.10825370
v -0.22392374 0.01958331 -0.08915655
v -0.20912576 0.01645009 -0.10827832
f 5 2 1
f 6 4 1
f 6 1 2
f 6 2 3
f 7 5 1
f 7 1 4
f 8 3 2
f 8 2 5
f 9 8 5
f 9 6 3
f 9 4 6
f 9 7 4
f 9 5 7
f 10 9 3
f 10 3 8
f 10 8 9

