# https://github.com/mikedh/trimesh
v 0.16341837 0.00697185 0.18709576
v 0.19513714 0.00831965 0.13237465
v 0.19176390 0.02803940 0.15846647
v 0.15588537 0.02800058 0.19402160
v 0.16620771 0.00842192 0.13233138
v 0.15860295 0.02812717 0.19162834
v 0.19159259 0.00707855 0.15822618
v 0.15660060 0.00841040 0.16117616
v 0.19621244 0.02755749 0.13787938
v 0.15857368 0.00716972 0.19142749
v 0.16621179 0.01689125 0.13231651
v 0.16010014 0.02727971 0.17936102
v 0.15563282 0.00703655 0.19368082
v 0.15660718 0.01686312 0.16117192
v 0.19511475 0.01684233 0.13228276
f 6 1 3
f 7 3 1
f 7 5 2
f 7 1 5
f 9 7 2
f 9 3 7
f 9 6 3
f 10 6 4
f 10 1 6
f 11 5 8
f 12 4 6
f 12 6 9
f 12 11 4
f 12 9 11
f 13 10 4
f 13 8 5
f 13 5 1
f 13 1 10
f 14 11 8
f 14 4 11
f 14 13 4
f 14 8 13
f 15 11 9
f 15 9 2
f 15 2 5
f 15 5 11

