# https://github.com/mikedh/trimesh
v 0.00212937 0.00069108 0.00683955
v 0.00746655 0.00841881 -0.02160878
v 0.00873114 0.02749862 0.01856811
v -0.00722982 0.03426236 0.00727836
v -0.01663991 0.00831975 -0.02164925
v 0.00416165 0.03449959 -0.00640230
v -0.01663645 0.00821481 0.02648365
v 0.00742230 0.00825569 0.02648636
v -0.00566939 0.00099252 -0.00591460
v 0.00441199 0.02635214 -0.02147445
v 0.00414774 0.03519503 0.00831725
v -0.01663715 0.01677748 0.02650464
v 0.00620164 0.00083191 0.00185692
v -0.00453636 0.00052866 0.00652137
v -0.00435950 0.02629829 -0.02155009
v -0.00786425 0.03500051 -0.00515397
v -0.01769622 0.02768512 -0.01491614
v 0.00739154 0.01670842 0.02646571
v 0.00551934 0.00110431 -0.00570381
v -0.01659166 0.01656261 -0.02162744
v -0.00579189 0.03436858 -0.00763820
v -0.01390449 0.02777473 0.00488309
f 8 2 3
f 9 5 2
f 9 7 5
f 10 6 3
f 10 3 2
f 11 4 3
f 11 3 6
f 12 3 4
f 12 7 8
f 13 8 1
f 13 2 8
f 14 8 7
f 14 1 8
f 14 7 9
f 14 13 1
f 15 10 2
f 16 11 6
f 16 4 11
f 17 5 7
f 17 7 12
f 17 4 16
f 18 12 8
f 18 8 3
f 18 3 12
f 19 9 2
f 19 2 13
f 19 14 9
f 19 13 14
f 20 15 2
f 20 2 5
f 20 17 15
f 20 5 17
f 21 6 10
f 21 10 15
f 21 16 6
f 21 17 16
f 21 15 17
f 22 17 12
f 22 12 4
f 22 4 17

