# https://github.com/mikedh/trimesh
v -0.05992836 0.00882579 -0.21409445
v -0.04973613 0.00777474 -0.24513596
v -0.05137789 0.02783797 -0.23722455
v -0.11791190 0.02756927 -0.20968996
v -0.11600011 0.00813334 -0.22082458
v -0.05995443 0.01625064 -0.21407289
v -0.05032949 0.00898368 -0.22848002
v -0.07917287 0.00883212 -0.20927930
v -0.09148265 0.02753615 -0.23306379
v -0.05000660 0.02756792 -0.24544823
v -0.05028735 0.01596572 -0.22845356
v -0.11800788 0.00864154 -0.20989125
v -0.07917992 0.01633985 -0.20927373
v -0.09143011 0.00817259 -0.23299847
v -0.11617661 0.02743692 -0.22110516
v -0.11041831 0.00814463 -0.22385748
v -0.06301689 0.00811999 -0.24249340
v -0.11057561 0.02745638 -0.22419418
v -0.06265532 0.02752410 -0.24265751
f 6 3 4
f 7 1 2
f 8 5 2
f 8 2 1
f 8 1 6
f 9 4 3
f 11 6 1
f 11 1 7
f 11 3 6
f 11 10 3
f 11 7 2
f 11 2 10
f 12 8 4
f 12 5 8
f 13 8 6
f 13 6 4
f 13 4 8
f 15 12 4
f 15 5 12
f 16 14 2
f 16 2 5
f 17 10 2
f 17 2 14
f 17 14 9
f 18 16 5
f 18 5 15
f 18 9 14
f 18 14 16
f 18 15 4
f 18 4 9
f 19 17 9
f 19 10 17
f 19 9 3
f 19 3 10

