# https://github.com/mikedh/trimesh
v 0.22526120 0.00818169 -0.10663547
v 0.22338860 0.00811827 -0.11038495
v 0.22332757 0.02738849 -0.11038192
v 0.21968496 0.02729653 -0.09884935
v 0.19508765 0.00892350 -0.09858647
v 0.22523225 0.02743128 -0.10650686
v 0.21929099 0.00876559 -0.09859532
v 0.19502773 0.01672734 -0.12271255
v 0.20551262 0.02707442 -0.12320648
v 0.19510964 0.01671617 -0.09863480
v 0.19499327 0.00897214 -0.12268017
v 0.21833184 0.02730853 -0.11968547
v 0.21845304 0.00829841 -0.11963317
f 1 2 3
f 5 2 1
f 6 1 3
f 6 4 1
f 7 5 1
f 7 1 4
f 9 4 6
f 10 7 4
f 10 5 7
f 10 4 9
f 10 9 8
f 11 2 5
f 11 10 8
f 11 5 10
f 11 8 9
f 12 9 6
f 12 6 3
f 13 12 3
f 13 3 2
f 13 2 11
f 13 11 9
f 13 9 12

