# https://github.com/mikedh/trimesh
v -0.22849127 0.00793931 0.06499742
v -0.22838950 0.00816644 0.03608301
v -0.23179022 0.02730818 0.06702398
v -0.24141410 0.02829271 0.06457670
v -0.24702886 0.00718379 0.03601332
v -0.23996763 0.02746558 0.03633921
v -0.24099747 0.00711229 0.06448799
v -0.22832255 0.01664571 0.03609185
v -0.24739907 0.02845475 0.03605378
v -0.24268289 0.00719241 0.05870442
v -0.24288879 0.02835065 0.05895113
f 7 1 3
f 7 3 4
f 7 5 2
f 7 2 1
f 8 1 2
f 8 3 1
f 8 6 3
f 8 2 5
f 9 4 3
f 9 3 6
f 9 8 5
f 9 6 8
f 10 7 4
f 10 5 7
f 10 9 5
f 11 10 4
f 11 4 9
f 11 9 10

