# https://github.com/mikedh/trimesh
v 0.15179270 0.00842451 0.10343634
v 0.15178010 0.00843183 0.06976742
v 0.13531193 0.02730565 0.09620737
v 0.07477699 0.01679716 0.10346595
v 0.07478776 0.00825576 0.08901249
v 0.15178510 0.01674083 0.10347440
v 0.07478261 0.00828842 0.10344914
v 0.09398180 0.02693596 0.06983089
v 0.15179227 0.01669148 0.06977389
v 0.09402340 0.00830289 0.06977449
v 0.07477888 0.01672186 0.08903298
v 0.12707357 0.02701313 0.09400437
v 0.12068974 0.02644843 0.07507835
v 0.09724618 0.02669154 0.07385766
v 0.13431911 0.02652660 0.08436248
f 6 3 4
f 7 5 1
f 7 6 4
f 7 1 6
f 9 6 1
f 9 1 2
f 9 3 6
f 10 5 8
f 10 2 1
f 10 1 5
f 10 9 2
f 10 8 9
f 11 8 5
f 11 4 8
f 11 7 4
f 11 5 7
f 12 4 3
f 12 3 8
f 13 9 8
f 13 8 3
f 14 12 8
f 14 8 4
f 14 4 12
f 15 13 3
f 15 3 9
f 15 9 13

