# https://github.com/mikedh/trimesh
v -0.22355501 0.00865010 -0.05052919
v -0.22364902 0.00842584 -0.08900802
v -0.22435870 0.02759381 -0.08932237
v -0.24514297 0.02774219 -0.04988578
v -0.24503506 0.00809856 -0.04982881
v -0.22352737 0.01646796 -0.05052489
v -0.23331228 0.00820027 -0.08736498
v -0.23679094 0.02772021 -0.05153110
v -0.23733119 0.00818572 -0.07739354
v -0.23348395 0.02767477 -0.08753587
v -0.24281629 0.00828715 -0.05882787
v -0.24291387 0.02743313 -0.05886773
v -0.23711405 0.02748764 -0.07714356
f 5 2 1
f 6 5 1
f 6 4 5
f 6 1 2
f 6 2 3
f 7 3 2
f 7 2 5
f 8 6 3
f 8 4 6
f 9 7 5
f 10 3 7
f 10 8 3
f 10 4 8
f 10 7 9
f 11 9 5
f 11 5 4
f 12 11 4
f 12 9 11
f 13 10 9
f 13 9 12
f 13 12 4
f 13 4 10

