# https://github.com/mikedh/trimesh
v -0.04974124 0.00703016 0.24527812
v -0.05030824 0.00784457 0.22377290
v -0.04981271 0.02850070 0.24538475
v -0.07751221 0.02835649 0.23793564
v -0.07920729 0.00770661 0.22384759
v -0.05030000 0.01690668 0.22368392
v -0.06311538 0.02815747 0.24236858
v -0.07737351 0.00707140 0.23764173
v -0.07934865 0.02833221 0.22899545
v -0.07916895 0.01676358 0.22370152
v -0.05865668 0.00699824 0.24318533
v -0.05123028 0.02819745 0.23708258
v -0.06321159 0.01001683 0.24202031
v -0.05033019 0.02832068 0.23818801
f 6 1 2
f 6 3 1
f 7 1 3
f 7 3 4
f 8 5 2
f 8 7 4
f 9 4 3
f 9 8 4
f 9 5 8
f 10 6 2
f 10 2 5
f 10 9 6
f 10 5 9
f 11 8 2
f 11 2 1
f 11 1 7
f 12 6 9
f 13 11 7
f 13 7 8
f 13 8 11
f 14 12 9
f 14 9 3
f 14 3 6
f 14 6 12

