# https://github.com/mikedh/trimesh
v -0.20910228 0.00870211 -0.08900341
v -0.20913004 0.00881585 -0.10825370
v -0.21457503 0.02726965 -0.10865721
v -0.23278757 0.02779779 -0.08895713
v -0.23239823 0.00805687 -0.08882640
v -0.20909574 0.01645885 -0.08901022
v -0.22512862 0.00823811 -0.10655007
v -0.22320325 0.02681911 -0.09106616
v -0.20912576 0.01645009 -0.10827832
v -0.22799088 0.00819869 -0.10092805
v -0.22516350 0.02748329 -0.10676335
v -0.22800264 0.02754951 -0.10089850
f 6 5 1
f 6 4 5
f 6 1 2
f 7 2 1
f 7 1 5
f 7 3 2
f 8 6 3
f 8 3 4
f 8 4 6
f 9 6 2
f 9 2 3
f 9 3 6
f 10 7 5
f 10 5 4
f 11 4 3
f 11 3 7
f 11 7 10
f 12 11 10
f 12 10 4
f 12 4 11

