# https://github.com/mikedh/trimesh
v -0.17060682 0.00870922 -0.10822281
v -0.17062169 0.00884987 -0.16114064
v -0.17709799 0.02687752 -0.16255439
v -0.22516350 0.02748329 -0.10676335
v -0.22512862 0.00823811 -0.10655007
v -0.17077501 0.01647183 -0.10814527
v -0.19164508 0.00845471 -0.15878099
v -0.20958446 0.02699503 -0.11633741
v -0.17065765 0.01651671 -0.16127133
v -0.22313013 0.00823942 -0.11081262
v -0.19172701 0.02720220 -0.15879769
v -0.17950132 0.02695689 -0.15974513
v -0.21296638 0.02670279 -0.11069312
v -0.22332172 0.02743238 -0.11073184
v -0.21345558 0.02732749 -0.12889065
v -0.20409765 0.02719977 -0.14306802
v -0.21336428 0.00840943 -0.12898728
v -0.20409643 0.00837914 -0.14283701
f 6 5 1
f 6 4 5
f 7 2 1
f 7 3 2
f 8 6 3
f 9 6 1
f 9 1 2
f 9 2 3
f 9 3 6
f 10 7 1
f 10 1 5
f 11 3 7
f 12 8 3
f 12 4 8
f 12 11 4
f 12 3 11
f 13 8 4
f 13 4 6
f 13 6 8
f 14 10 5
f 14 5 4
f 15 14 4
f 15 4 11
f 16 15 11
f 16 11 7
f 17 10 14
f 17 14 15
f 17 15 16
f 18 7 10
f 18 10 17
f 18 17 16
f 18 16 7

