# https://github.com/mikedh/trimesh
v 0.07477639 0.00833938 0.04090783
v 0.07478571 0.00839566 0.02646908
v 0.07450872 0.02655479 0.04191426
v 0.01820118 0.02740895 0.02413742
v -0.01664110 0.00812932 0.04091987
v 0.07480485 0.01653326 0.02645389
v -0.01663645 0.00821481 0.02648365
v -0.01664027 0.01694622 0.04091140
v 0.05853910 0.02653731 0.03177463
v 0.03861725 0.02691765 0.03637599
v -0.01663715 0.01677748 0.02650464
v 0.06588820 0.02650904 0.03614948
f 5 2 1
f 5 1 3
f 6 2 4
f 6 1 2
f 6 3 1
f 7 4 2
f 7 2 5
f 8 5 3
f 9 6 4
f 9 4 3
f 10 8 3
f 10 3 4
f 10 4 8
f 11 8 4
f 11 4 7
f 11 7 5
f 11 5 8
f 12 9 3
f 12 3 6
f 12 6 9

