# https://github.com/mikedh/trimesh
v -0.20917409 0.00776368 0.11794044
v -0.20909054 0.00822969 0.06496432
v -0.20954560 0.02826153 0.11820653
v -0.22043123 0.02860876 0.11636017
v -0.24099747 0.00711229 0.06448799
v -0.24141410 0.02829271 0.06457670
v -0.22061174 0.00710066 0.11632531
v -0.20909068 0.01680662 0.06493797
v -0.23214310 0.01492573 0.09157609
v -0.23179022 0.02730818 0.06702398
v -0.23718661 0.00713362 0.07757011
v -0.22813243 0.00713104 0.10120942
v -0.23217438 0.02850603 0.09171287
v -0.23730318 0.02820878 0.07751147
v -0.22331083 0.02840583 0.11058422
f 6 4 3
f 7 1 3
f 7 3 4
f 7 5 2
f 7 2 1
f 8 1 2
f 8 3 1
f 8 2 5
f 8 5 6
f 10 8 6
f 10 6 3
f 10 3 8
f 11 6 5
f 12 9 11
f 12 11 5
f 12 5 7
f 13 4 6
f 13 11 9
f 13 9 12
f 14 13 6
f 14 6 11
f 14 11 13
f 15 13 12
f 15 4 13
f 15 12 7
f 15 7 4

