# https://github.com/mikedh/trimesh
v -0.14663435 0.00731256 0.19492486
v -0.14655136 0.00801137 0.15157387
v -0.14656061 0.02836317 0.19487975
v -0.18014494 0.02824053 0.17102392
v -0.20600422 0.00729729 0.13966631
v -0.14654222 0.01711711 0.15157238
v -0.15838049 0.02817705 0.19166248
v -0.17090975 0.00696193 0.18042083
v -0.19035434 0.02779710 0.14596057
v -0.16577014 0.01694656 0.14195175
v -0.20369568 0.00723938 0.14274706
v -0.15836264 0.00713190 0.19162899
v -0.16585458 0.02801512 0.18504947
v -0.20595205 0.02839708 0.13961509
v -0.14965955 0.02810658 0.18839591
v -0.16579120 0.00802703 0.14195109
v -0.18030111 0.00708782 0.17120494
v -0.16591019 0.01970298 0.18505141
v -0.20372979 0.02800740 0.14271231
f 1 2 3
f 6 3 2
f 7 1 3
f 7 3 4
f 8 2 1
f 10 6 2
f 10 9 6
f 11 5 2
f 11 2 8
f 12 8 1
f 12 1 7
f 13 7 4
f 14 4 3
f 14 9 10
f 15 3 6
f 15 6 9
f 15 14 3
f 15 9 14
f 16 10 2
f 16 2 5
f 16 14 10
f 16 5 14
f 17 11 8
f 17 13 4
f 17 8 13
f 18 12 7
f 18 7 13
f 18 13 8
f 18 8 12
f 19 4 14
f 19 17 4
f 19 11 17
f 19 14 5
f 19 5 11

