# https://github.com/mikedh/trimesh
v 0.06516228 0.00837803 0.02646905
v 0.06516312 0.00838915 0.01684271
v 0.05403834 0.02651930 0.02826155
v 0.00550490 0.03549706 0.00628766
v 0.00697609 0.00120839 0.00230712
v 0.04592139 0.01661155 0.00241339
v 0.06517775 0.01650759 0.02165283
v 0.00742230 0.00825569 0.02648636
v 0.00757937 0.03499506 0.00138202
v 0.04591759 0.00835383 0.00241674
v 0.06519418 0.01646905 0.02643626
v 0.06516586 0.01652033 0.01682910
v 0.00539113 0.00229620 0.00852856
v 0.01486949 0.02732551 0.02242611
v 0.00646057 0.03538470 0.00227222
v 0.00857648 0.00270390 0.00195870
v 0.00739154 0.01670842 0.02646571
v 0.00873114 0.02749862 0.01856811
f 5 2 1
f 8 1 3
f 10 2 5
f 10 9 6
f 11 1 2
f 11 7 3
f 11 3 1
f 12 3 7
f 12 9 3
f 12 6 9
f 12 10 6
f 12 2 10
f 12 11 2
f 12 7 11
f 13 5 1
f 13 1 8
f 14 3 4
f 15 4 3
f 15 3 9
f 15 9 5
f 15 13 4
f 15 5 13
f 16 10 5
f 16 5 9
f 16 9 10
f 17 13 8
f 17 4 13
f 17 8 3
f 17 3 14
f 18 17 14
f 18 14 4
f 18 4 17

