# https://github.com/mikedh/trimesh
v 0.10846266 0.00896612 -0.20929235
v 0.10709972 0.00809567 -0.22600776
v 0.10737063 0.02733627 -0.22630764
v 0.06662816 0.02738625 -0.23271749
v 0.06515848 0.00885936 -0.20929114
v 0.06475602 0.00783959 -0.24144291
v 0.10881957 0.02733092 -0.21475131
v 0.09193582 0.00801873 -0.23302077
v 0.06492023 0.02788673 -0.24177371
v 0.06518130 0.01658303 -0.20930626
v 0.10156391 0.00809624 -0.22881332
v 0.07801976 0.00806311 -0.23790694
v 0.09201106 0.02737447 -0.23318157
v 0.10847314 0.01662626 -0.20931285
v 0.07806902 0.02738892 -0.23810432
v 0.10179568 0.02727193 -0.22903752
f 5 2 1
f 6 2 5
f 7 1 2
f 7 2 3
f 8 2 6
f 9 7 3
f 9 4 7
f 10 5 1
f 10 7 4
f 10 4 9
f 10 9 6
f 10 6 5
f 11 3 2
f 11 2 8
f 12 8 6
f 12 6 9
f 13 9 3
f 14 10 1
f 14 1 7
f 14 7 10
f 15 12 9
f 15 9 13
f 15 13 8
f 15 8 12
f 16 11 8
f 16 8 13
f 16 13 3
f 16 3 11

