# https://github.com/mikedh/trimesh
v -0.21394731 0.00833855 0.00241475
v -0.21388573 0.00869661 -0.05051877
v -0.21387524 0.01669801 0.00248446
v -0.23912508 0.02774839 -0.04113580
v -0.23856369 0.00813280 -0.05061073
v -0.21388578 0.01649391 -0.05051576
v -0.23802104 0.01674523 0.00241347
v -0.23679094 0.02772021 -0.05153110
v -0.23801825 0.00806928 0.00239799
v -0.23800866 0.02775618 -0.05051723
f 1 2 3
f 5 2 1
f 6 3 2
f 7 3 4
f 8 4 3
f 8 3 6
f 8 6 2
f 8 2 5
f 9 1 3
f 9 3 7
f 9 5 1
f 9 7 4
f 9 4 5
f 10 8 5
f 10 5 4
f 10 4 8

