# https://github.com/mikedh/trimesh
v -0.11767257 0.00871875 -0.16119707
v -0.11600011 0.00813334 -0.22082458
v -0.11617661 0.02743692 -0.22110516
v -0.18938833 0.02744530 -0.16079861
v -0.18934329 0.00834890 -0.16077348
v -0.11768383 0.01629898 -0.16119364
v -0.16600395 0.00837089 -0.18512807
v -0.11973084 0.02715038 -0.20831817
v -0.12881387 0.00824705 -0.21336796
v -0.18478267 0.00830737 -0.16637374
v -0.16603237 0.02727721 -0.18508026
v -0.12858027 0.02755196 -0.21371319
v -0.17480493 0.02681020 -0.16510015
v -0.11967730 0.00820225 -0.21878321
v -0.18010553 0.02731760 -0.17111196
v -0.18708055 0.02743035 -0.16358403
v -0.11972850 0.02743995 -0.21906784
f 6 5 1
f 6 4 5
f 6 1 2
f 6 2 3
f 8 6 3
f 9 2 7
f 10 7 2
f 10 5 4
f 10 2 1
f 10 1 5
f 12 8 3
f 12 4 8
f 12 9 7
f 12 7 11
f 13 8 4
f 13 4 6
f 13 6 8
f 14 3 2
f 14 2 9
f 15 11 7
f 15 7 10
f 16 12 11
f 16 4 12
f 16 11 15
f 16 15 10
f 16 10 4
f 17 12 3
f 17 9 12
f 17 14 9
f 17 3 14

