# https://github.com/mikedh/trimesh
v 0.15665967 0.00815637 0.18050003
v 0.16620771 0.00842192 0.13233138
v 0.15758144 0.01959470 0.18150041
v -0.14686959 0.01959501 0.19047518
v -0.14663435 0.00731256 0.19492486
v -0.11767061 0.01720361 0.13231557
v 0.16624833 0.00833892 0.16123250
v -0.13695646 0.00723487 0.20455576
v 0.16621179 0.01689125 0.13231651
v -0.14655136 0.00801137 0.15157387
v 0.04110581 0.00806940 0.22866591
v -0.13865701 0.01472827 0.20698625
v 0.16623112 0.01687280 0.16114941
v -0.14654222 0.01711711 0.15157238
v -0.11767860 0.00804199 0.13232324
v 0.08444649 0.00797843 0.22389614
v 0.04110599 0.01687711 0.22852614
v -0.05033712 0.00776065 0.22868023
v 0.11332664 0.00815460 0.20935426
v -0.11823116 0.01955217 0.21010075
v 0.08440972 0.01669559 0.22364160
v -0.07920729 0.00770661 0.22384759
v -0.05029946 0.01679638 0.22849312
v 0.11329010 0.01673839 0.20929565
v -0.07916895 0.01676358 0.22370152
f 6 4 3
f 7 1 2
f 7 3 1
f 8 5 2
f 8 2 1
f 9 6 3
f 9 7 2
f 10 5 4
f 12 4 5
f 12 5 8
f 13 9 3
f 13 3 7
f 13 7 9
f 14 10 4
f 14 4 6
f 14 6 10
f 15 10 6
f 15 2 5
f 15 5 10
f 15 9 2
f 15 6 9
f 16 8 1
f 17 11 16
f 18 11 17
f 18 16 11
f 18 8 16
f 19 16 1
f 19 1 3
f 20 17 3
f 20 3 4
f 20 4 12
f 21 17 16
f 21 3 17
f 22 12 8
f 22 8 18
f 23 18 17
f 23 17 20
f 24 19 3
f 24 3 21
f 24 21 16
f 24 16 19
f 25 22 18
f 25 18 23
f 25 12 22
f 25 23 20
f 25 20 12

