# https://github.com/mikedh/trimesh
v 0.14696115 0.00875705 -0.12270071
v 0.14696160 0.00902405 -0.17083730
v 0.13861624 0.01968989 -0.19669269
v 0.06518446 0.01662391 -0.12270152
v 0.06515848 0.00885936 -0.20929114
v 0.14696738 0.01683382 -0.12269563
v 0.13732583 0.00896019 -0.19488734
v 0.06515478 0.00850901 -0.12269373
v 0.06518130 0.01658303 -0.20930626
v 0.14696211 0.01670767 -0.17081824
v 0.10846266 0.00896612 -0.20929235
v 0.10847314 0.01662626 -0.20931285
f 6 3 4
f 6 1 2
f 7 2 1
f 7 3 2
f 8 6 4
f 8 1 6
f 8 7 1
f 8 5 7
f 9 4 3
f 9 8 4
f 9 5 8
f 10 6 2
f 10 2 3
f 10 3 6
f 11 7 5
f 11 3 7
f 12 9 3
f 12 3 11
f 12 11 5
f 12 5 9

