# https://github.com/mikedh/trimesh
v -0.01663175 0.00839106 -0.12269358
v -0.01663838 0.00879539 -0.21410540
v -0.01663804 0.01637199 -0.12270165
v -0.11768499 0.01632716 -0.12270043
v -0.11800788 0.00864154 -0.20989125
v -0.11783901 0.01959718 -0.20957503
v -0.11767821 0.00859618 -0.12269271
v -0.01665637 0.01626533 -0.21412511
v -0.07918365 0.00885894 -0.21410456
v -0.07917986 0.01628583 -0.21408486
f 1 2 3
f 1 3 4
f 5 2 1
f 6 4 3
f 6 5 4
f 7 5 1
f 7 1 4
f 7 4 5
f 8 6 3
f 8 3 2
f 9 8 2
f 9 2 5
f 10 9 5
f 10 5 6
f 10 6 8
f 10 8 9

