# https://github.com/mikedh/trimesh
v 0.00746655 0.00841881 -0.02160878
v 0.00743308 0.00881411 -0.22851706
v 0.00716358 0.02665457 -0.22856273
v -0.00435950 0.02629829 -0.02155009
v -0.01663995 0.00833583 -0.03608441
v 0.00441199 0.02635214 -0.02147445
v -0.01663991 0.00831975 -0.02164925
v -0.01661082 0.00891171 -0.23815865
v -0.00705675 0.02706098 -0.24314449
v -0.01659166 0.01656261 -0.02162744
v -0.00224542 0.02704642 -0.24318571
v -0.01662860 0.01621964 -0.23815016
v -0.00220094 0.00884731 -0.23817040
v -0.01664457 0.01643643 -0.03603160
f 1 2 3
f 5 2 1
f 6 1 3
f 7 5 1
f 7 1 6
f 9 4 6
f 10 7 6
f 10 6 4
f 10 4 9
f 11 9 6
f 11 6 3
f 11 3 2
f 11 8 9
f 12 10 9
f 12 9 8
f 12 8 5
f 13 11 2
f 13 8 11
f 13 2 5
f 13 5 8
f 14 7 10
f 14 10 12
f 14 12 5
f 14 5 7

