# https://github.com/mikedh/trimesh
v 0.19396988 0.00711677 0.15545260
v 0.23991110 0.00705644 0.06890774
v 0.21858860 0.00733519 0.11971506
v 0.19410426 0.02822667 0.15553544
v 0.19026786 0.01679870 0.06977352
v 0.22817894 0.02822199 0.10087924
v 0.19993955 0.02812487 0.14818821
v 0.22807134 0.00715315 0.10096181
v 0.19024753 0.00849745 0.06978279
v 0.19030359 0.01678992 0.13228200
v 0.23110655 0.02772278 0.07059382
v 0.19975925 0.00719513 0.14811876
v 0.19587427 0.00714649 0.15317669
v 0.19602641 0.02823035 0.15319689
v 0.21851460 0.02806753 0.11985874
v 0.23858172 0.00703532 0.07296524
v 0.19025728 0.01676819 0.12271862
v 0.19028088 0.00836927 0.13234549
v 0.20071136 0.02753471 0.13075979
v 0.24011982 0.02815922 0.06897916
v 0.23736151 0.01485977 0.07730691
v 0.23738397 0.02755426 0.07712038
f 8 6 3
f 9 5 2
f 9 2 1
f 10 1 4
f 12 3 7
f 12 8 3
f 13 4 1
f 13 12 7
f 13 1 8
f 13 8 12
f 14 13 7
f 14 4 13
f 15 7 3
f 15 3 6
f 15 14 7
f 15 6 14
f 16 8 1
f 16 1 2
f 17 10 4
f 17 4 5
f 17 5 9
f 18 9 1
f 18 1 10
f 18 17 9
f 18 10 17
f 19 11 5
f 19 5 4
f 19 4 11
f 20 11 4
f 20 2 5
f 20 5 11
f 20 14 6
f 20 4 14
f 21 6 8
f 21 8 16
f 21 16 2
f 21 2 20
f 22 21 20
f 22 20 6
f 22 6 21

