# https://github.com/mikedh/trimesh
v 0.07478571 0.00839566 0.02646908
v 0.07477434 0.00855335 -0.12269545
v 0.07480485 0.01653326 0.02645389
v 0.00717670 0.01958227 -0.02164283
v 0.00745416 0.00844953 -0.12269296
v 0.07481208 0.01668357 -0.12269843
v 0.02185233 0.00828828 0.00241184
v 0.00722852 0.01963942 -0.12270372
v 0.06516228 0.00837803 0.02646905
v 0.02191606 0.01650329 0.00238209
v 0.00746655 0.00841881 -0.02160878
v 0.06519418 0.01646905 0.02643626
v 0.04591089 0.01652583 0.01678778
v 0.04590668 0.00832416 0.01684755
f 6 4 3
f 6 1 2
f 6 3 1
f 7 5 2
f 8 5 4
f 8 4 6
f 8 6 2
f 8 2 5
f 9 1 3
f 10 4 7
f 11 7 4
f 11 4 5
f 11 5 7
f 12 3 4
f 12 9 3
f 13 12 4
f 13 4 10
f 13 10 7
f 14 13 7
f 14 9 12
f 14 12 13
f 14 1 9
f 14 7 2
f 14 2 1

