# https://github.com/mikedh/trimesh
v 0.04090953 0.00705294 0.24666822
v 0.04110581 0.00806940 0.22866591
v 0.04093761 0.02801110 0.24699220
v -0.04981271 0.02850070 0.24538475
v -0.05033712 0.00776065 0.22868023
v 0.04110599 0.01687711 0.22852614
v -0.03520309 0.00702310 0.24780352
v 0.04121687 0.02780317 0.23911501
v -0.05123028 0.02819745 0.23708258
v -0.05029946 0.01679638 0.22849312
v 0.03548025 0.00704725 0.24761065
v -0.03983473 0.02840627 0.24716555
v -0.04974124 0.00703016 0.24527812
v 0.03557537 0.02811852 0.24785724
v -0.03992509 0.01006181 0.24719351
f 5 2 1
f 8 1 2
f 8 3 1
f 8 2 6
f 9 8 6
f 9 4 8
f 10 6 2
f 10 2 5
f 10 9 6
f 10 5 9
f 11 7 1
f 11 1 3
f 13 5 1
f 13 1 7
f 13 9 5
f 13 4 9
f 14 8 4
f 14 3 8
f 14 4 12
f 14 12 7
f 14 11 3
f 14 7 11
f 15 12 4
f 15 4 13
f 15 13 7
f 15 7 12

