# https://github.com/mikedh/trimesh
v 0.06515478 0.00850901 -0.12269373
v 0.06516265 0.00889386 -0.22859827
v 0.06518446 0.01662391 -0.12270152
v 0.04112804 0.01649040 -0.12269905
v 0.02667028 0.00851790 -0.15153884
v 0.04130505 0.01954634 -0.23902849
v 0.06523368 0.01648562 -0.22858406
v 0.04130708 0.00774704 -0.23940926
v 0.04110237 0.00842536 -0.12269289
v 0.02669132 0.01642796 -0.15157207
v 0.02663044 0.00894813 -0.23816131
v 0.02670330 0.01628128 -0.23816435
f 1 3 4
f 6 4 3
f 7 1 2
f 7 3 1
f 7 6 3
f 8 2 1
f 8 7 2
f 8 6 7
f 9 1 4
f 9 4 5
f 9 8 1
f 9 5 8
f 10 5 4
f 10 4 6
f 11 8 5
f 11 5 10
f 12 11 10
f 12 10 6
f 12 6 8
f 12 8 11

