# https://github.com/mikedh/trimesh
v 0.24625099 0.00714403 0.04061034
v 0.24777014 0.00765182 -0.03530200
v 0.24792435 0.02773335 0.03479153
v 0.23899576 0.02773217 0.04100120
v 0.22876360 0.00884984 -0.03607940
v 0.24659017 0.02805346 0.04063588
v 0.24801910 0.00728261 0.03049353
v 0.22879129 0.00865237 0.04093484
v 0.24780967 0.02762678 -0.03539066
v 0.24734656 0.01011142 0.03515677
v 0.22878838 0.01668732 0.04093757
v 0.24007776 0.02745729 -0.03665534
v 0.22876874 0.01660230 -0.03607165
f 5 2 1
f 6 1 3
f 6 4 1
f 7 1 2
f 8 5 1
f 8 1 4
f 9 7 2
f 9 3 7
f 9 6 3
f 10 7 3
f 10 3 1
f 10 1 7
f 11 8 4
f 11 5 8
f 12 9 2
f 12 2 5
f 12 4 6
f 12 6 9
f 13 11 4
f 13 4 12
f 13 12 5
f 13 5 11

