# https://github.com/mikedh/trimesh
v 0.02646310 0.00885649 -0.22857939
v 0.02663044 0.00894813 -0.23816131
v 0.01258306 0.02748122 -0.24297633
v -0.00190371 0.02691574 -0.22854333
v -0.00220094 0.00884731 -0.23817040
v 0.02669205 0.01630627 -0.22854719
v -0.00220126 0.00881970 -0.22854135
v -0.00224542 0.02704642 -0.24318571
v 0.00812653 0.02651306 -0.22870572
v 0.02670330 0.01628128 -0.23816435
f 5 2 1
f 6 1 2
f 7 5 1
f 7 6 4
f 7 1 6
f 8 3 2
f 8 2 5
f 8 4 3
f 8 7 4
f 8 5 7
f 9 6 3
f 9 3 4
f 9 4 6
f 10 6 2
f 10 2 3
f 10 3 6

