# https://github.com/mikedh/trimesh
v 0.11088258 0.00697912 0.22371611
v 0.11332664 0.00815460 0.20935426
v 0.11364581 0.02785785 0.21469588
v 0.08336905 0.02792163 0.23527542
v 0.08442144 0.00831933 0.21420098
v 0.11099008 0.02789951 0.22370020
v 0.11539747 0.02447491 0.21303510
v 0.09405165 0.00834768 0.20934446
v 0.08336973 0.00698937 0.23520049
v 0.08440496 0.01688919 0.21409705
v 0.09206276 0.02786096 0.23228082
v 0.09401027 0.01684247 0.20931336
v 0.08538530 0.02730816 0.22657610
v 0.10140849 0.00696415 0.22820457
v 0.08764764 0.00713182 0.23378511
v 0.09171133 0.01963037 0.23239834
f 6 3 4
f 7 1 2
f 7 6 1
f 7 3 6
f 8 2 1
f 9 8 1
f 9 5 8
f 10 8 5
f 10 9 4
f 10 5 9
f 11 6 4
f 12 7 2
f 12 2 8
f 12 8 10
f 12 3 7
f 13 10 4
f 13 4 3
f 13 12 10
f 13 3 12
f 14 1 6
f 14 6 11
f 14 9 1
f 15 4 9
f 15 9 14
f 16 15 14
f 16 14 11
f 16 11 4
f 16 4 15

