# https://github.com/mikedh/trimesh
v -0.18995725 0.00779360 0.14201366
v -0.18985261 0.00808144 0.11789587
v -0.19201935 0.02787126 0.14382107
v -0.20595205 0.02839708 0.13961509
v -0.22061174 0.00710066 0.11632531
v -0.22043123 0.02860876 0.11636017
v -0.20600422 0.00729729 0.13966631
v -0.18983971 0.01687573 0.11787913
v -0.21343781 0.02843931 0.12876568
v -0.21322764 0.00714321 0.12896491
v -0.20756330 0.02735796 0.12021303
v -0.21857945 0.02821514 0.12014397
v -0.21869260 0.00710558 0.11992363
f 6 4 3
f 7 1 3
f 7 3 4
f 8 1 2
f 8 3 1
f 8 2 5
f 8 5 6
f 9 4 6
f 9 7 4
f 10 2 1
f 10 1 7
f 10 7 9
f 11 8 6
f 11 6 3
f 11 3 8
f 12 9 6
f 12 6 5
f 13 10 9
f 13 9 12
f 13 12 5
f 13 5 2
f 13 2 10

