# https://github.com/mikedh/trimesh
v 0.24766312 0.00765847 -0.03601155
v 0.24295013 0.00816415 -0.05878208
v 0.24772501 0.02761639 -0.03602316
v 0.24007776 0.02745729 -0.03665534
v 0.22399201 0.00884268 -0.05536617
v 0.21923862 0.02738022 -0.10831620
v 0.22876874 0.01660230 -0.03607165
v 0.21951746 0.00806908 -0.10836186
v 0.23739725 0.02732835 -0.07728467
v 0.22876360 0.00884984 -0.03607940
v 0.22394608 0.01661186 -0.05536331
v 0.22491272 0.02701579 -0.08643767
v 0.22526120 0.00818169 -0.10663547
v 0.21922517 0.00875567 -0.08423019
v 0.22806769 0.02749443 -0.10073149
v 0.24291225 0.02725923 -0.05877466
v 0.23757316 0.00810798 -0.07711620
v 0.22523225 0.02743128 -0.10650686
v 0.22807731 0.00836420 -0.10090497
f 1 2 3
f 6 4 3
f 7 1 3
f 7 3 4
f 10 1 7
f 10 8 1
f 10 5 8
f 11 7 6
f 11 10 7
f 11 5 10
f 12 7 4
f 12 4 6
f 12 6 7
f 13 1 8
f 13 8 6
f 14 8 5
f 14 6 8
f 14 11 6
f 14 5 11
f 15 6 3
f 15 3 9
f 16 9 3
f 16 3 2
f 17 2 1
f 17 1 13
f 17 16 2
f 17 9 16
f 17 15 9
f 18 13 6
f 18 6 15
f 19 17 13
f 19 15 17
f 19 18 15
f 19 13 18

