# https://github.com/mikedh/trimesh
v -0.11767839 0.00804234 0.11788666
v -0.11767257 0.00871875 -0.16119707
v -0.11766807 0.01719947 0.11788844
v -0.18022746 0.01688916 0.11788758
v -0.18022651 0.00807884 0.11789456
v -0.17065765 0.01651671 -0.16127133
v -0.11768383 0.01629898 -0.16119364
v -0.18092385 0.01787766 -0.10852612
v -0.17062169 0.00884987 -0.16114064
v -0.17993378 0.00866868 -0.10844708
f 1 2 3
f 5 2 1
f 5 1 3
f 5 3 4
f 7 3 2
f 7 2 6
f 8 4 3
f 8 7 6
f 8 3 7
f 8 5 4
f 9 6 2
f 9 8 6
f 10 9 2
f 10 2 5
f 10 5 8
f 10 8 9

