{"scene":0,"scenes":[{"nodes":[0]}],"asset":{"version":"2.0","generator":"https://github.com/mikedh/trimesh"},"accessors":[{"componentType":5125,"type":"SCALAR","bufferView":0,"count":37116,"max":[37045],"min":[0]},{"componentType":5126,"type":"VEC3","byteOffset":0,"bufferView":1,"count":37046,"max":[0.25,0.25020986795425415,6.945978705853745e-18],"min":[-0.25,-0.25020986795425415,-0.03642631322145462]},{"componentType":5126,"type":"VEC2","byteOffset":0,"bufferView":3,"count":37046,"max":[0.9995574951171875,0.9996786713600159],"min":[0.00044247787445783615,0.00032132863998413086]}],"meshes":[{"name":"geometry_0.001","extras":{"units":"meters","from_gltf_primitive":false,"name":"geometry_0.001","node":"geometry_0"},"primitives":[{"attributes":{"POSITION":1,"TEXCOORD_0":2},"indices":0,"mode":4,"material":0}]}],"images":[{"bufferView":2,"mimeType":"image/png"}],"textures":[{"source":0}],"materials":[{"pbrMetallicRoughness":{"baseColorTexture":{"index":0}},"name":"Material_0.001","doubleSided":false}],"nodes":[{"name":"world","children":[1]},{"name":"geometry_0.001","mesh":0}],"buffers":[{"uri":"gltf_buffer_0.bin","byteLength":148464},{"uri":"gltf_buffer_1.bin","byteLength":444552},{"uri":"gltf_buffer_2.bin","byteLength":1175980},{"uri":"gltf_buffer_3.bin","byteLength":296368}],"bufferViews":[{"buffer":0,"byteOffset":0,"byteLength":148464},{"buffer":1,"byteOffset":0,"byteLength":444552},{"buffer":2,"byteOffset":0,"byteLength":1175980},{"buffer":3,"byteOffset":0,"byteLength":296368}]}