# https://github.com/mikedh/trimesh
v 0.04130708 0.00774704 -0.23940926
v 0.04094990 0.00762986 -0.24655104
v 0.04097429 0.02766797 -0.24695765
v -0.05031658 0.02801156 -0.23817056
v -0.05026610 0.00786049 -0.23879814
v 0.04139059 0.02767436 -0.23958384
v -0.03511459 0.00792781 -0.24756549
v 0.03526570 0.02777108 -0.24774631
v -0.04973613 0.00777474 -0.24513596
v -0.03497910 0.02781570 -0.24783035
v 0.03554008 0.00769050 -0.24736037
v -0.05000660 0.02756792 -0.24544823
f 5 2 1
f 5 1 4
f 6 4 1
f 6 1 2
f 6 2 3
f 8 6 3
f 8 4 6
f 9 2 5
f 10 8 7
f 10 4 8
f 11 8 3
f 11 3 2
f 11 7 8
f 11 9 7
f 11 2 9
f 12 9 5
f 12 5 4
f 12 4 10
f 12 10 7
f 12 7 9

