# https://github.com/mikedh/trimesh
v 0.21726167 0.00831987 -0.12180673
v 0.21528093 0.00820429 -0.12557329
v 0.21534143 0.02726976 -0.12526091
v 0.20371178 0.02671362 -0.12514700
v 0.17101334 0.00886137 -0.12269806
v 0.17077231 0.02724731 -0.18015101
v 0.21726657 0.02729286 -0.12168316
v 0.19993396 0.02724361 -0.14807229
v 0.17102409 0.01681778 -0.12270402
v 0.17040080 0.00805787 -0.17977836
v 0.17475011 0.02691426 -0.16464062
v 0.20980459 0.02736168 -0.13431304
v 0.19997899 0.00835989 -0.14799788
v 0.20989978 0.00831992 -0.13438137
v 0.17327898 0.00827202 -0.17782621
v 0.17329959 0.02721133 -0.17789212
f 5 2 1
f 7 5 1
f 7 1 2
f 7 2 3
f 9 7 4
f 9 5 7
f 10 2 5
f 10 9 6
f 10 5 9
f 11 7 6
f 11 4 7
f 11 9 4
f 11 6 9
f 12 7 3
f 12 8 6
f 12 6 7
f 13 2 10
f 14 2 13
f 14 12 3
f 14 3 2
f 14 13 8
f 14 8 12
f 15 13 10
f 15 10 6
f 16 15 6
f 16 6 8
f 16 8 13
f 16 13 15

