# https://github.com/mikedh/trimesh
v 0.22404437 0.00848002 0.06982484
v 0.22406854 0.00862017 -0.08427355
v 0.22567288 0.01980733 -0.08482801
v 0.19507308 0.01677931 0.06978161
v 0.19505897 0.00853426 0.06978293
v 0.19510964 0.01671617 -0.09863480
v 0.22396026 0.01674351 0.06972253
v 0.22885153 0.00878854 -0.05537448
v 0.21929099 0.00876559 -0.09859532
v 0.21989154 0.01969645 -0.09903665
v 0.22879129 0.00865237 0.04093484
v 0.19508765 0.00892350 -0.09858647
v 0.22878838 0.01668732 0.04093757
v 0.22875777 0.01659706 -0.05536345
f 5 2 1
f 5 1 4
f 7 3 4
f 7 4 1
f 8 2 3
f 9 3 2
f 10 6 4
f 10 4 3
f 10 3 9
f 11 1 2
f 11 2 8
f 12 9 2
f 12 2 5
f 12 10 9
f 12 6 10
f 12 5 4
f 12 4 6
f 13 7 1
f 13 1 11
f 13 3 7
f 13 11 8
f 14 13 8
f 14 8 3
f 14 3 13

