# https://github.com/mikedh/trimesh
v 0.02667028 0.00851790 -0.15153884
v 0.02646310 0.00885649 -0.22857939
v 0.02669132 0.01642796 -0.15157207
v 0.00617012 0.02639639 -0.16120401
v 0.00745136 0.00857623 -0.15153673
v 0.00812653 0.02651306 -0.22870572
v 0.02669205 0.01630627 -0.22854719
v 0.00743308 0.00881411 -0.22851706
v 0.00721465 0.02431483 -0.15157096
v 0.00716358 0.02665457 -0.22856273
f 6 4 3
f 7 1 2
f 7 3 1
f 7 6 3
f 7 2 6
f 8 2 1
f 8 1 5
f 8 6 2
f 8 5 4
f 9 5 1
f 9 1 3
f 9 3 4
f 9 4 5
f 10 8 4
f 10 4 6
f 10 6 8

