# https://github.com/mikedh/trimesh
v -0.01663838 0.00879539 -0.21410540
v -0.01661082 0.00891171 -0.23815865
v -0.01665637 0.01626533 -0.21412511
v -0.05137789 0.02783797 -0.23722455
v -0.05992836 0.00882579 -0.21409445
v -0.01662860 0.01621964 -0.23815016
v -0.05026610 0.00786049 -0.23879814
v -0.05995443 0.01625064 -0.21407289
v -0.04565158 0.02777731 -0.23866772
v -0.05989916 0.00899112 -0.22853230
v -0.05031658 0.02801156 -0.23817056
v -0.05995451 0.01596066 -0.22843848
f 1 2 3
f 6 3 2
f 7 2 1
f 7 1 5
f 7 6 2
f 8 5 1
f 8 1 3
f 8 3 4
f 9 4 3
f 9 3 6
f 9 6 7
f 10 7 5
f 11 9 7
f 11 7 4
f 11 4 9
f 12 4 7
f 12 7 10
f 12 8 4
f 12 10 5
f 12 5 8

