# https://github.com/mikedh/trimesh
v 0.09402555 0.00830398 0.08900571
v 0.09403042 0.00838242 0.04091142
v 0.09540796 0.02676315 0.07256731
v 0.07747886 0.02649130 0.06072884
v 0.07477639 0.00833938 0.04090783
v 0.07450872 0.02655479 0.04191426
v 0.07477888 0.01672186 0.08903298
v 0.09405072 0.01655063 0.04088290
v 0.08301065 0.02669043 0.06411433
v 0.09404530 0.01671233 0.08903374
v 0.07478776 0.00825576 0.08901249
v 0.09118942 0.02651034 0.05356375
v 0.09227792 0.02678202 0.07041670
f 1 2 3
f 7 4 6
f 8 3 2
f 8 2 5
f 8 5 6
f 9 6 4
f 9 4 7
f 10 1 3
f 10 3 7
f 11 10 7
f 11 1 10
f 11 5 2
f 11 2 1
f 11 7 6
f 11 6 5
f 12 8 6
f 12 3 8
f 13 6 9
f 13 12 6
f 13 3 12
f 13 9 7
f 13 7 3

