# https://github.com/mikedh/trimesh
v -0.21394031 0.00821990 0.06497320
v -0.21394731 0.00833855 0.00241475
v -0.21390235 0.01678995 0.06493785
v -0.22841063 0.01673838 0.06494837
v -0.23808211 0.00788984 0.03612988
v -0.23802104 0.01674523 0.00241347
v -0.22849127 0.00793931 0.06499742
v -0.21387524 0.01669801 0.00248446
v -0.23948821 0.01953309 0.03638476
v -0.23801825 0.00806928 0.00239799
f 7 1 3
f 7 3 4
f 7 5 2
f 7 2 1
f 8 1 2
f 8 3 1
f 8 2 6
f 9 4 3
f 9 8 6
f 9 3 8
f 9 7 4
f 9 5 7
f 10 6 2
f 10 2 5
f 10 9 6
f 10 5 9

