# https://github.com/mikedh/trimesh
v -0.07882664 0.00701755 0.23713079
v -0.07914491 0.00789989 0.21893893
v -0.07893383 0.02855296 0.23743263
v -0.15543027 0.02833951 0.19397085
v -0.15539826 0.00706069 0.19392095
v -0.09359764 0.01686579 0.20929883
v -0.07916600 0.01683980 0.21887884
v -0.09364019 0.00792345 0.20930780
v -0.12856676 0.00708449 0.21376865
v -0.14717838 0.02834994 0.19087058
v -0.09149758 0.00716726 0.23277083
v -0.12849175 0.02775998 0.21381812
v -0.14265281 0.02811047 0.20409382
v -0.08082342 0.02764331 0.22821274
v -0.14654265 0.01689348 0.19008022
v -0.09154637 0.02800366 0.23305893
v -0.14794062 0.02798685 0.20009962
v -0.14256566 0.00723793 0.20400330
v -0.13700036 0.00777111 0.19496804
v -0.12248515 0.01688794 0.19482598
v -0.15313511 0.02807462 0.19594467
v -0.15309080 0.00710507 0.19586838
v -0.13691925 0.01686993 0.19008003
f 7 1 2
f 7 3 1
f 8 2 1
f 8 1 5
f 8 7 2
f 8 6 7
f 9 5 1
f 10 4 3
f 11 9 1
f 11 1 3
f 13 9 12
f 13 12 3
f 13 3 4
f 14 7 6
f 14 6 10
f 14 10 3
f 14 3 7
f 15 5 4
f 15 4 10
f 16 11 3
f 16 3 12
f 16 12 9
f 16 9 11
f 17 13 4
f 18 9 13
f 18 13 17
f 19 8 5
f 20 10 6
f 20 6 8
f 20 8 19
f 21 17 4
f 21 4 5
f 22 5 9
f 22 9 18
f 22 18 17
f 22 21 5
f 22 17 21
f 23 19 5
f 23 5 15
f 23 20 19
f 23 15 10
f 23 10 20

