# https://github.com/mikedh/trimesh
v -0.23808211 0.00788984 0.03612988
v -0.23856369 0.00813280 -0.05061073
v -0.23800866 0.02775618 -0.05051723
v -0.24755472 0.02845307 0.03520249
v -0.24871292 0.00730123 0.02135537
v -0.23996763 0.02746558 0.03633921
v -0.24708580 0.00718860 0.03552691
v -0.24709293 0.02789903 -0.03993769
v -0.24754082 0.00767019 -0.03539418
v -0.24514297 0.02774219 -0.04988578
v -0.24503506 0.00809856 -0.04982881
v -0.24704487 0.01961546 -0.03994559
f 1 2 3
f 6 1 3
f 6 3 4
f 7 2 1
f 7 4 5
f 7 6 4
f 7 1 6
f 8 5 4
f 8 4 3
f 9 7 5
f 9 2 7
f 9 5 8
f 10 8 3
f 10 3 2
f 11 10 2
f 11 2 9
f 12 11 9
f 12 9 8
f 12 8 10
f 12 10 11

