# https://github.com/mikedh/trimesh
v -0.01664110 0.00812932 0.04091987
v -0.01663995 0.00833583 -0.03608441
v -0.01590502 0.02788331 0.00185711
v -0.05031056 0.01709677 0.04090434
v -0.05031256 0.00808570 0.04091853
v -0.05030369 0.01661809 -0.03605777
v -0.01664027 0.01694622 0.04091140
v -0.03638682 0.02667007 -0.02678508
v -0.05031603 0.00835496 -0.03608219
v -0.01664457 0.01643643 -0.03603160
v -0.04367362 0.02662540 -0.02672513
v -0.02014905 0.02703184 -0.01704968
v -0.04209155 0.02671608 -0.02060046
f 1 2 3
f 5 2 1
f 7 1 3
f 7 3 4
f 7 5 1
f 7 4 5
f 9 5 4
f 9 4 6
f 9 6 2
f 9 2 5
f 10 3 2
f 10 2 6
f 10 6 8
f 11 8 6
f 11 6 4
f 11 3 8
f 12 10 8
f 12 8 3
f 12 3 10
f 13 11 4
f 13 4 3
f 13 3 11

