# https://github.com/mikedh/trimesh
v -0.11768065 0.00803039 0.15157513
v -0.11767839 0.00804234 0.11788666
v -0.11766807 0.01719947 0.11788844
v -0.18990996 0.01694758 0.14199204
v -0.18995725 0.00779360 0.14201366
v -0.18983971 0.01687573 0.11787913
v -0.11766647 0.01714906 0.15154412
v -0.16577034 0.01696760 0.15157516
v -0.18985261 0.00808144 0.11789587
v -0.16580551 0.00795030 0.15159334
f 5 2 1
f 6 3 2
f 6 4 3
f 6 5 4
f 7 3 4
f 7 1 2
f 7 2 3
f 8 4 5
f 8 7 4
f 8 1 7
f 9 6 2
f 9 2 5
f 9 5 6
f 10 8 5
f 10 5 1
f 10 1 8

