# https://github.com/mikedh/trimesh
v 0.15342660 0.00723070 0.19567663
v 0.15665967 0.00815637 0.18050003
v 0.15350093 0.02791120 0.19611981
v 0.11281649 0.02789610 0.22283795
v 0.11227227 0.00819235 0.19538081
v 0.12892540 0.00704925 0.21358189
v 0.15780381 0.02784532 0.18182024
v 0.13251915 0.00844198 0.18045769
v 0.14812264 0.00716985 0.19980969
v 0.12923433 0.02758496 0.21337086
v 0.11276994 0.00699138 0.22276458
v 0.11254525 0.01727813 0.19521919
v 0.13253517 0.01680216 0.18043420
v 0.14310417 0.02771599 0.20389194
v 0.12016350 0.02779361 0.21899327
v 0.11548817 0.02722586 0.21319752
v 0.14301513 0.01971748 0.20378821
v 0.12015669 0.00703604 0.21887931
f 7 1 2
f 7 3 1
f 7 4 3
f 8 2 1
f 8 1 5
f 9 1 3
f 9 5 1
f 11 4 5
f 11 9 6
f 11 5 9
f 12 5 4
f 13 7 2
f 13 2 8
f 13 12 7
f 13 8 5
f 13 5 12
f 14 9 3
f 14 10 6
f 15 6 10
f 15 4 11
f 15 10 14
f 15 14 3
f 15 3 4
f 16 12 4
f 16 4 7
f 16 7 12
f 17 14 6
f 17 6 9
f 17 9 14
f 18 15 11
f 18 11 6
f 18 6 15

