# https://github.com/mikedh/trimesh
v 0.17102544 0.00891282 -0.15158690
v 0.16845223 0.00826937 -0.18247389
v 0.17247847 0.02688705 -0.16724240
v 0.14108035 0.02725678 -0.19452612
v 0.13731455 0.00897336 -0.17079016
v 0.16846809 0.02722735 -0.18255615
v 0.14696638 0.00880051 -0.15155139
v 0.13632819 0.00831195 -0.20768881
v 0.14698227 0.01679363 -0.15154987
v 0.13642007 0.02742394 -0.20816132
v 0.17103955 0.01682305 -0.15157983
v 0.14822324 0.02735116 -0.19948702
v 0.13735535 0.01671721 -0.17083063
v 0.14798534 0.00834486 -0.19890306
f 1 2 3
f 6 3 2
f 6 4 3
f 7 2 1
f 8 7 5
f 8 2 7
f 9 3 4
f 9 5 7
f 10 4 6
f 11 1 3
f 11 3 9
f 11 9 7
f 11 7 1
f 12 10 6
f 12 6 2
f 12 8 10
f 13 9 4
f 13 4 10
f 13 5 9
f 13 10 8
f 13 8 5
f 14 12 2
f 14 2 8
f 14 8 12

