# https://github.com/mikedh/trimesh
v 0.23991110 0.00705644 0.06890774
v 0.24625099 0.00714403 0.04061034
v 0.24267084 0.02814107 0.05884458
v 0.23110655 0.02772278 0.07059382
v 0.22397979 0.00868579 0.04093517
v 0.24011982 0.02815922 0.06897916
v 0.24259494 0.00719892 0.05879850
v 0.22404437 0.00848002 0.06982484
v 0.24659017 0.02805346 0.04063588
v 0.22396026 0.01674351 0.06972253
v 0.22394925 0.01666906 0.04089378
v 0.23854287 0.02746439 0.04191909
f 5 2 1
f 6 3 4
f 6 4 1
f 7 1 2
f 7 6 1
f 7 3 6
f 8 5 1
f 8 1 4
f 9 7 2
f 9 3 7
f 9 4 3
f 10 8 4
f 10 5 8
f 11 9 2
f 11 2 5
f 11 10 4
f 11 5 10
f 12 11 4
f 12 4 9
f 12 9 11

