# https://github.com/mikedh/trimesh
v 0.13732583 0.00896019 -0.19488734
v 0.13418050 0.00829962 -0.20901047
v 0.13738707 0.02761092 -0.20456636
v 0.11071330 0.02719507 -0.21357171
v 0.10816818 0.00899255 -0.18550827
v 0.10737063 0.02733627 -0.22630764
v 0.11810713 0.00897554 -0.18523270
v 0.10860393 0.01782056 -0.18540218
v 0.13412151 0.02751862 -0.20986302
v 0.10709972 0.00809567 -0.22600776
v 0.13881291 0.02727344 -0.19654258
v 0.12900313 0.02751172 -0.21339689
v 0.11077701 0.00804389 -0.22396595
v 0.11813676 0.01659120 -0.18524773
v 0.12893070 0.01990184 -0.21324044
v 0.11087525 0.02729751 -0.22433636
v 0.11943195 0.00824054 -0.21850914
f 1 2 3
f 6 4 3
f 7 5 2
f 7 2 1
f 8 6 5
f 8 4 6
f 8 5 7
f 9 3 2
f 10 5 6
f 11 1 3
f 11 3 4
f 11 4 8
f 12 6 3
f 12 3 9
f 13 2 5
f 13 5 10
f 13 10 6
f 14 7 1
f 14 1 11
f 14 11 8
f 14 8 7
f 15 12 9
f 15 9 2
f 15 13 12
f 16 13 6
f 16 6 12
f 16 12 13
f 17 15 2
f 17 2 13
f 17 13 15

