# https://github.com/mikedh/trimesh
v 0.13253589 0.00844573 0.06976817
v 0.13252906 0.00844779 0.04090981
v 0.11321692 0.02649981 0.06986716
v 0.09398180 0.02693596 0.06983089
v 0.09402340 0.00830289 0.06977449
v 0.13253668 0.01664206 0.04089483
v 0.09360832 0.02652745 0.05587115
v 0.13254212 0.01661970 0.06977145
v 0.10107911 0.02637880 0.05984786
v 0.09405072 0.01655063 0.04088290
v 0.11087073 0.02647890 0.06763735
v 0.09403042 0.00838242 0.04091142
f 5 2 1
f 5 1 3
f 5 3 4
f 6 1 2
f 7 4 3
f 7 5 4
f 8 6 3
f 8 3 1
f 8 1 6
f 9 6 7
f 10 7 6
f 10 6 2
f 11 9 7
f 11 7 3
f 11 3 6
f 11 6 9
f 12 10 2
f 12 2 5
f 12 5 7
f 12 7 10

