# https://github.com/mikedh/trimesh
v 0.00697609 0.00120839 0.00230712
v 0.02185466 0.00836452 -0.02165071
v 0.02191606 0.01650329 0.00238209
v 0.00646057 0.03538470 0.00227222
v 0.00717670 0.01958227 -0.02164283
v 0.02187141 0.01663011 -0.02166940
v 0.02185233 0.00828828 0.00241184
v 0.00746655 0.00841881 -0.02160878
v 0.00487668 0.03564161 -0.00465145
v 0.00757937 0.03499506 0.00138202
v 0.00620216 0.00193864 -0.00618798
v 0.00692294 0.03441548 -0.00359197
f 6 3 2
f 6 2 5
f 7 3 4
f 7 4 1
f 7 1 2
f 7 2 3
f 8 5 2
f 9 1 4
f 9 6 5
f 9 5 8
f 10 4 3
f 10 3 6
f 10 9 4
f 11 8 2
f 11 2 1
f 11 9 8
f 11 1 9
f 12 10 6
f 12 6 9
f 12 9 10

