# https://github.com/mikedh/trimesh
v 0.08336973 0.00698937 0.23520049
v 0.08444649 0.00797843 0.22389614
v 0.08336905 0.02792163 0.23527542
v 0.04093761 0.02801110 0.24699220
v 0.04109495 0.00818145 0.22378664
v 0.05897859 0.02790556 0.24305816
v 0.08538530 0.02730816 0.22657610
v 0.04090953 0.00705294 0.24666822
v 0.07764823 0.02790976 0.23733185
v 0.04110585 0.01692987 0.22371626
v 0.04209630 0.02743354 0.23859075
v 0.05907837 0.00701417 0.24282400
v 0.07757625 0.00697818 0.23722266
f 5 2 1
f 7 1 2
f 7 3 1
f 8 5 1
f 9 1 3
f 9 3 4
f 9 4 6
f 10 7 2
f 10 2 5
f 10 8 4
f 10 5 8
f 11 4 3
f 11 3 7
f 11 10 4
f 11 7 10
f 12 6 4
f 12 4 8
f 13 12 8
f 13 8 1
f 13 1 9
f 13 9 6
f 13 6 12

