# https://github.com/mikedh/trimesh
v 0.00987267 -0.02297307 1.17805455
v 0.01081342 -0.01226329 1.15022162
v 0.01451857 -0.01582199 1.17297683
v -0.02390368 -0.01114672 1.17829710
v -0.00165483 -0.01657164 1.14966818
v -0.01834879 -0.00795028 1.16635059
v 0.00644389 -0.01543232 1.15106446
v -0.02045117 -0.01936662 1.18170016
v -0.01263120 -0.01119091 1.15030746
v -0.00768559 -0.01490496 1.15168853
f 1 2 3
f 1 3 4
f 6 3 2
f 6 4 3
f 7 5 2
f 7 2 1
f 7 1 5
f 8 5 1
f 8 1 4
f 9 4 6
f 9 8 4
f 9 6 2
f 9 2 5
f 10 9 5
f 10 5 8
f 10 8 9

