# https://github.com/mikedh/trimesh
v 0.01158486 -0.01353772 1.27932112
v 0.03448705 -0.00895407 1.19586293
v 0.03871693 -0.01132681 1.25764966
v 0.01197803 0.01385865 1.28010904
v 0.01497008 0.01644359 1.17236982
v 0.02789376 -0.00932576 1.26973331
v 0.01451857 -0.01582199 1.17297683
v 0.03859857 0.00971437 1.25730938
v 0.02644812 -0.00867970 1.18281657
v 0.03437073 0.01057339 1.19597763
v 0.02831131 0.01061687 1.26868329
v 0.02647405 0.01030866 1.18275340
f 5 1 4
f 6 1 3
f 6 4 1
f 7 2 3
f 7 3 1
f 7 1 5
f 8 3 2
f 8 5 4
f 8 6 3
f 9 7 5
f 9 2 7
f 10 8 2
f 10 5 8
f 11 8 4
f 11 4 6
f 11 6 8
f 12 9 5
f 12 5 10
f 12 10 2
f 12 2 9

