# https://github.com/mikedh/trimesh
v -0.16128737 0.02602451 1.16292511
v -0.14788502 0.07956898 1.11716625
v -0.16326869 0.02675826 1.11788455
v -0.14585017 0.07840668 1.16296206
v -0.16867463 0.04822835 1.16301793
v -0.17238556 0.02488132 1.16304490
v -0.16065426 0.07350167 1.16299418
v -0.16783588 0.04848223 1.11775076
v -0.17062935 0.02473665 1.11709224
v -0.16862240 0.04821599 1.15016773
v -0.15972979 0.07332776 1.11656171
f 1 3 4
f 3 2 4
f 6 1 4
f 7 4 2
f 7 6 4
f 7 5 6
f 9 3 1
f 9 1 6
f 9 6 8
f 9 2 3
f 10 8 6
f 10 6 5
f 10 5 7
f 11 7 2
f 11 9 8
f 11 2 9
f 11 10 7
f 11 8 10

