# https://github.com/mikedh/trimesh
v 0.00326527 -0.05132493 1.12089196
v 0.00275196 -0.05144190 1.11741718
v 0.00692113 -0.00825518 1.09873064
v -0.01263120 -0.01119091 1.15030746
v -0.00339505 -0.05156706 1.11989142
v 0.01081342 -0.01226329 1.15022162
v -0.00768559 -0.01490496 1.15168853
v -0.00109307 -0.01079510 1.09881043
v -0.00961808 -0.00848741 1.11374431
v 0.00644389 -0.01543232 1.15106446
v -0.00202453 -0.05140011 1.11545581
v 0.00288104 -0.01126159 1.09864758
f 1 2 3
f 5 2 1
f 6 1 3
f 7 5 1
f 7 4 5
f 7 6 4
f 9 6 3
f 9 4 6
f 9 3 8
f 9 5 4
f 10 7 1
f 10 1 6
f 10 6 7
f 11 3 2
f 11 2 5
f 11 9 8
f 11 5 9
f 12 11 8
f 12 8 3
f 12 3 11

