# https://github.com/mikedh/trimesh
v 0.01007644 -0.04640357 1.22735200
v 0.02814802 -0.03621938 1.22288541
v 0.01443152 -0.01910536 1.27409685
v -0.03945044 -0.00873391 1.25617293
v -0.04666215 -0.01150709 1.22739920
v -0.01869707 -0.03660705 1.25558652
v 0.00788342 -0.03891546 1.25696843
v -0.03653899 -0.02923134 1.22485807
v -0.03708041 -0.01967342 1.25462923
v -0.03020076 -0.03673537 1.22943641
v -0.04398965 -0.01941296 1.22796673
v -0.02930134 -0.03710934 1.23662590
f 5 3 2
f 5 4 3
f 7 1 2
f 7 2 3
f 7 6 1
f 7 3 6
f 8 5 2
f 8 2 1
f 9 6 3
f 9 3 4
f 9 4 5
f 10 8 1
f 11 9 5
f 11 5 8
f 12 10 1
f 12 1 6
f 12 6 9
f 12 9 11
f 12 11 8
f 12 8 10

