# https://github.com/mikedh/trimesh
v -0.07360484 -0.12224872 0.04698556
v -0.07434477 -0.12277191 0.00029463
v -0.07862036 -0.09010678 0.00003768
v -0.10957000 -0.08463568 0.04657233
v -0.08265268 -0.11660123 0.04612066
v -0.10949735 -0.08441846 0.00056933
v -0.07857008 -0.09009074 0.04782403
v -0.10384128 -0.09334905 0.04620523
v -0.10372079 -0.09334531 0.00149226
v -0.08079622 -0.11796889 0.00039872
f 1 2 3
f 5 2 1
f 6 3 2
f 7 1 3
f 7 4 1
f 7 6 4
f 7 3 6
f 8 5 1
f 8 1 4
f 9 5 8
f 9 8 4
f 9 4 6
f 10 9 6
f 10 6 2
f 10 2 5
f 10 5 9

