# https://github.com/mikedh/trimesh
v -0.16230597 -0.01359522 1.16291601
v -0.14284045 -0.00151085 1.11791878
v -0.16128737 0.02602451 1.16292511
v -0.17238556 0.02488132 1.16304490
v -0.17139162 -0.01216235 1.11741792
v -0.16326869 0.02675826 1.11788455
v -0.17293038 -0.01243944 1.16304498
v -0.14226928 0.00155310 1.12463045
v -0.17062935 0.02473665 1.11709224
v -0.14310274 -0.00010906 1.12491667
v -0.14289260 0.00193044 1.11495223
f 5 2 1
f 6 4 3
f 7 1 3
f 7 3 4
f 7 5 1
f 7 4 5
f 8 3 1
f 8 6 3
f 9 5 4
f 9 4 6
f 10 8 1
f 10 1 2
f 10 2 8
f 11 8 2
f 11 6 8
f 11 9 6
f 11 2 5
f 11 5 9

