# https://github.com/mikedh/trimesh
v -0.17138276 0.03689156 1.27864142
v -0.14584271 0.07842531 1.24006650
v -0.15954617 0.03939511 1.24006088
v -0.14589422 0.07841957 1.27858181
v -0.16099091 0.07362494 1.27859151
v -0.15959202 0.03940710 1.27861209
v -0.16911574 0.04839720 1.27868356
v -0.16090787 0.07361198 1.24009572
v -0.17121599 0.03687820 1.24014698
v -0.15557205 0.05457400 1.24004238
v -0.16893832 0.04835367 1.24011129
f 3 2 4
f 5 4 2
f 6 3 4
f 7 4 5
f 7 6 4
f 7 1 6
f 8 5 2
f 8 7 5
f 9 6 1
f 9 3 6
f 9 1 7
f 10 8 2
f 10 2 3
f 11 3 9
f 11 10 3
f 11 8 10
f 11 9 7
f 11 7 8

