# https://github.com/mikedh/trimesh
v -0.16231390 0.02554139 1.33415336
v -0.14589422 0.07841957 1.27858181
v -0.14677304 0.07895247 1.33365575
v -0.16155630 0.02640516 1.27855862
v -0.16649284 0.05977564 1.30440427
v -0.16099091 0.07362494 1.27859151
v -0.16642160 0.06049632 1.33367918
v -0.17318261 0.02442385 1.27860740
v -0.15574672 0.05446607 1.27854697
v -0.17265268 0.02407984 1.33490378
v -0.16638819 0.06039371 1.31722404
v -0.16056092 0.07341866 1.33395928
v -0.16911574 0.04839720 1.27868356
f 1 2 3
f 2 1 4
f 6 3 2
f 8 4 1
f 9 6 2
f 9 2 4
f 9 8 6
f 9 4 8
f 10 1 3
f 10 8 1
f 11 7 6
f 11 6 5
f 11 5 7
f 12 3 6
f 12 6 7
f 12 10 3
f 12 7 10
f 13 7 5
f 13 5 6
f 13 6 8
f 13 10 7
f 13 8 10

