# https://github.com/mikedh/trimesh
v -0.11791795 -0.07133780 0.03215230
v -0.10431860 -0.06440697 0.00004799
v -0.10438259 -0.01302076 0.04790368
v -0.13374128 -0.01240301 0.03216499
v -0.13008211 -0.03624946 0.00080137
v -0.13056020 -0.03599464 0.03229106
v -0.12277207 -0.06152671 0.00095957
v -0.10431928 -0.01300779 0.00003922
v -0.12294635 -0.06147318 0.03214058
v -0.13353069 -0.01260577 0.00005468
f 1 2 3
f 6 3 4
f 7 2 1
f 7 6 5
f 8 3 2
f 8 4 3
f 9 1 3
f 9 3 6
f 9 7 1
f 9 6 7
f 10 6 4
f 10 5 6
f 10 4 8
f 10 8 2
f 10 7 5
f 10 2 7

