# https://github.com/mikedh/trimesh
v 0.05477748 0.16358432 1.33383818
v 0.05547588 0.16266847 1.11781427
v 0.04544712 0.17936460 1.33345376
v 0.01089105 0.18541229 1.33417715
v 0.01125993 0.17451013 1.11803384
v 0.01253535 0.17480979 1.33316461
v 0.03418716 0.17892795 1.11804673
v 0.04850794 0.17421077 1.11671540
v 0.01072688 0.18159327 1.11623786
v 0.04514374 0.17750204 1.15028608
f 1 2 3
f 1 3 4
f 6 5 2
f 6 2 1
f 6 1 4
f 6 4 5
f 8 3 2
f 9 5 4
f 9 4 7
f 9 7 8
f 9 8 2
f 9 2 5
f 10 7 4
f 10 4 3
f 10 8 7
f 10 3 8

