# https://github.com/mikedh/trimesh
v -0.16056092 0.07341866 1.33395928
v -0.13283459 0.10408828 1.11750273
v -0.14411570 0.08415693 1.33366408
v -0.13226416 0.10414124 1.33441591
v -0.14824662 0.09866677 1.33350728
v -0.15972979 0.07332776 1.11656171
v -0.15587215 0.08324664 1.33397356
v -0.14397348 0.08564709 1.11820537
v -0.14714820 0.09802747 1.11628109
v -0.15553295 0.08273337 1.11654513
f 1 3 4
f 3 2 4
f 5 4 2
f 6 3 1
f 7 1 4
f 7 4 5
f 8 6 2
f 8 2 3
f 8 3 6
f 9 5 2
f 9 2 6
f 10 6 1
f 10 1 7
f 10 7 5
f 10 9 6
f 10 5 9

