# https://github.com/mikedh/trimesh
v -0.00045357 0.12856086 1.32170242
v 0.00048199 0.12834018 1.31807233
v 0.01089105 0.18541229 1.33417715
v -0.01365850 0.18518345 1.33393786
v -0.01380470 0.18505200 1.31723531
v -0.01548732 0.17427695 1.33331712
v 0.01253535 0.17480979 1.33316461
v -0.00211555 0.12858242 1.31749596
v 0.01077378 0.18523559 1.31728424
v -0.00099153 0.12861065 1.32148030
f 5 4 3
f 6 3 4
f 6 4 5
f 7 1 2
f 7 6 1
f 7 3 6
f 8 6 5
f 8 2 1
f 9 5 3
f 9 3 7
f 9 7 2
f 9 8 5
f 9 2 8
f 10 8 1
f 10 1 6
f 10 6 8

