# https://github.com/mikedh/trimesh
v -0.16160069 0.02626018 1.24007033
v -0.14585814 0.07841059 1.18866290
v -0.16146207 0.02603957 1.18862475
v -0.14584271 0.07842531 1.24006650
v -0.16893832 0.04835367 1.24011129
v -0.17308459 0.02430551 1.24013211
v -0.16090787 0.07361198 1.24009572
v -0.16876036 0.04831245 1.18871025
v -0.16073880 0.07353844 1.18869470
v -0.17264489 0.02451217 1.18873783
v -0.15548360 0.05455082 1.18864086
f 1 3 4
f 3 2 4
f 6 1 4
f 6 3 1
f 7 4 2
f 7 6 4
f 7 5 6
f 8 6 5
f 8 5 7
f 9 3 8
f 9 8 7
f 9 7 2
f 10 8 3
f 10 3 6
f 10 6 8
f 11 9 2
f 11 2 3
f 11 3 9

