# https://github.com/mikedh/trimesh
v 0.00975331 -0.01168804 1.12453006
v 0.05026519 -0.00136397 1.11747276
v 0.04973566 0.00249787 1.12240343
v 0.01003197 0.01136056 1.12452765
v 0.00689477 -0.00822677 1.08588034
v 0.04988631 -0.00253163 1.12070046
v 0.00830080 -0.01002880 1.11260660
v 0.00827281 0.00888772 1.08584313
v 0.04981707 0.00202238 1.11530783
v 0.01050686 -0.00471712 1.08590961
v 0.01116512 0.00583862 1.08550155
f 1 3 4
f 6 2 3
f 6 3 1
f 6 5 2
f 6 1 5
f 7 5 1
f 7 1 4
f 7 4 5
f 8 5 4
f 9 3 2
f 9 8 4
f 9 4 3
f 10 9 2
f 10 2 5
f 11 10 5
f 11 5 8
f 11 8 9
f 11 9 10

