# https://github.com/mikedh/trimesh
v 0.17276063 0.02459262 1.25295280
v 0.17243518 0.02453752 1.20155323
v 0.15939584 0.07423149 1.20154159
v 0.14559364 0.07981626 1.25293766
v 0.16175646 0.02682327 1.25294037
v 0.14580302 0.07973003 1.20151513
v 0.15958570 0.07431545 1.25294244
v 0.16470285 0.06018611 1.20156829
v 0.16489858 0.06029606 1.25300401
v 0.16147161 0.02682195 1.20143159
v 0.15548429 0.05496521 1.25296265
f 5 2 1
f 7 6 4
f 7 3 6
f 8 1 2
f 8 2 3
f 9 5 1
f 9 7 4
f 9 1 8
f 9 8 3
f 9 3 7
f 10 6 3
f 10 3 2
f 10 2 5
f 10 5 4
f 10 4 6
f 11 9 4
f 11 4 5
f 11 5 9

