# https://github.com/mikedh/trimesh
v 0.09783339 0.13646539 1.20151102
v 0.10153713 0.14147042 1.11650860
v 0.09356754 0.15582477 1.20155530
v 0.05998715 0.17320720 1.20156316
v 0.06915319 0.15514737 1.11848266
v 0.09284955 0.15513611 1.11620549
v 0.06961688 0.15432254 1.20142882
v 0.07043637 0.16862506 1.20156579
v 0.05941033 0.17154221 1.11675465
v 0.07002260 0.16688789 1.11658450
f 1 2 3
f 5 2 1
f 6 3 2
f 7 5 1
f 7 1 4
f 8 3 6
f 8 1 3
f 8 4 1
f 9 7 4
f 9 5 7
f 9 6 2
f 9 2 5
f 10 8 6
f 10 6 9
f 10 9 4
f 10 4 8

