# https://github.com/mikedh/trimesh
v 0.15925344 0.07416852 1.16299095
v 0.15824912 0.07401292 1.11634829
v 0.14660394 0.09909367 1.16296709
v 0.12963829 0.10486838 1.16294117
v 0.14562292 0.07961086 1.16290980
v 0.13083750 0.10572242 1.11712229
v 0.13599783 0.09571667 1.16304803
v 0.15458628 0.08494346 1.16306598
v 0.14576415 0.09846893 1.11619692
v 0.14615558 0.07974504 1.11751376
v 0.15371379 0.08356478 1.11627688
v 0.14552509 0.07956583 1.15006028
f 5 2 1
f 6 4 3
f 7 3 4
f 7 5 1
f 7 4 5
f 8 1 2
f 8 7 1
f 8 3 7
f 9 6 3
f 9 2 6
f 9 3 8
f 10 4 6
f 10 6 2
f 11 9 8
f 11 8 2
f 11 2 9
f 12 5 4
f 12 4 10
f 12 10 2
f 12 2 5

