# https://github.com/mikedh/trimesh
v 0.05971249 -0.17208629 1.33401552
v 0.08857911 -0.14173942 1.30431365
v 0.08437279 -0.16033457 1.30434156
v 0.09044967 -0.14417724 1.33429530
v 0.06958451 -0.15389625 1.33291265
v 0.08357387 -0.15990265 1.33472963
v 0.05981554 -0.17205399 1.30443298
v 0.06936789 -0.16766458 1.33417082
v 0.06954874 -0.16759521 1.30434319
v 0.06937954 -0.15327124 1.30435691
f 3 2 4
f 5 1 4
f 5 4 2
f 6 3 4
f 6 4 1
f 8 6 1
f 8 3 6
f 8 1 7
f 9 2 3
f 9 8 7
f 9 3 8
f 10 5 2
f 10 9 7
f 10 2 9
f 10 7 1
f 10 1 5

