# https://github.com/mikedh/trimesh
v 0.01451857 -0.01582199 1.17297683
v 0.02779719 0.00175213 1.18155040
v 0.02164224 -0.01141740 1.17767134
v 0.01044578 0.02364486 1.17725017
v 0.01333868 0.01439155 1.16572628
v 0.02647405 0.01030866 1.18275340
v 0.00782490 0.01797315 1.16441032
v 0.01704719 -0.00789722 1.16486047
v 0.01899750 0.02020467 1.18071965
v 0.02151119 0.00157808 1.17080810
v 0.01144186 -0.01312037 1.16292120
v 0.02196451 0.00645462 1.17355968
f 1 3 4
f 6 3 2
f 8 2 3
f 8 7 5
f 9 4 3
f 9 3 6
f 9 6 5
f 9 7 4
f 9 5 7
f 10 6 2
f 10 8 5
f 10 2 8
f 11 1 4
f 11 4 7
f 11 7 8
f 11 8 3
f 11 3 1
f 12 10 5
f 12 5 6
f 12 6 10

