# https://github.com/mikedh/trimesh
v -0.17422026 -0.01293361 1.33419645
v -0.12947741 -0.00031160 1.31899899
v -0.13021741 0.00000821 1.32397961
v -0.17265268 0.02407984 1.33490378
v -0.17320140 0.02434201 1.31723225
v -0.16130799 0.02637797 1.33014257
v -0.14775323 0.00004456 1.33010371
v -0.17414693 -0.01253611 1.31720519
v -0.12939228 0.00091311 1.31953289
v -0.16231390 0.02554139 1.33415336
v -0.16158675 0.02641955 1.31729833
f 1 2 3
f 5 1 4
f 6 5 4
f 7 1 3
f 8 2 1
f 8 1 5
f 9 6 3
f 9 3 2
f 10 6 4
f 10 3 6
f 10 7 3
f 10 4 1
f 10 1 7
f 11 8 5
f 11 2 8
f 11 9 2
f 11 5 6
f 11 6 9

