# https://github.com/mikedh/trimesh
v 0.00620772 0.01474350 1.13746065
v 0.00403445 0.02272004 1.11590183
v 0.00293220 0.07677907 1.11839544
v -0.00093781 0.07701415 1.12475496
v -0.00880841 0.01419279 1.13781229
v -0.00432084 0.02320451 1.11565621
v 0.00143054 0.07703838 1.12332394
v -0.00171655 0.07694848 1.11608061
v -0.00184676 0.03740054 1.11535314
v -0.00269153 0.07706717 1.12115334
f 1 2 3
f 5 2 1
f 5 1 4
f 6 2 5
f 7 1 3
f 7 4 1
f 8 3 2
f 8 7 3
f 9 8 2
f 9 2 6
f 9 6 8
f 10 4 7
f 10 7 8
f 10 5 4
f 10 8 6
f 10 6 5

