# https://github.com/mikedh/trimesh
v -0.06675801 0.15584017 1.18865502
v -0.02473659 0.18028559 1.11667732
v -0.02812176 0.17172596 1.18860544
v -0.02509295 0.18280910 1.18879144
v -0.06281947 0.17015823 1.11645963
v -0.02811104 0.17319875 1.11728433
v -0.06318434 0.17209054 1.18876720
v -0.03714283 0.17799267 1.11718048
v -0.06809516 0.15803849 1.11658289
v -0.03738524 0.18015180 1.18882193
f 1 3 4
f 3 2 4
f 6 2 3
f 6 3 1
f 8 4 2
f 8 2 5
f 9 5 2
f 9 2 6
f 9 6 1
f 9 7 5
f 9 1 7
f 10 7 1
f 10 1 4
f 10 4 8
f 10 8 5
f 10 5 7

