# https://github.com/mikedh/trimesh
v 0.13716717 0.11357738 1.20151829
v 0.13718120 0.11347029 1.16296934
v 0.13103817 0.12162720 1.20153481
v 0.09959493 0.15162509 1.20152341
v 0.11059422 0.12541606 1.16283830
v 0.10670172 0.14593159 1.16300291
v 0.10678743 0.14605173 1.20155700
v 0.11104315 0.12555848 1.20131624
v 0.13098189 0.12158421 1.16298367
v 0.09952827 0.15152941 1.16297249
f 1 2 3
f 5 2 1
f 7 1 3
f 8 5 1
f 8 4 5
f 8 7 4
f 8 1 7
f 9 3 2
f 9 2 5
f 9 7 3
f 9 6 7
f 10 5 4
f 10 7 6
f 10 4 7
f 10 9 5
f 10 6 9

