# https://github.com/mikedh/trimesh
v -0.06640806 0.15698392 1.33356830
v -0.01497108 0.17395739 1.27857430
v -0.01548732 0.17427695 1.33331712
v -0.01365850 0.18518345 1.33393786
v -0.06308681 0.17254254 1.27862134
v -0.06268122 0.17176673 1.33464927
v -0.06679486 0.15586996 1.27862022
v -0.01370745 0.18483278 1.27865092
v -0.06309440 0.17256290 1.31717259
v -0.04562742 0.16677996 1.27858358
v -0.04809606 0.17775629 1.27867198
v -0.04840073 0.17775646 1.33390665
f 3 2 4
f 6 1 3
f 6 3 4
f 7 2 3
f 7 3 1
f 8 4 2
f 8 2 5
f 9 1 6
f 9 7 1
f 9 5 7
f 10 7 5
f 10 5 2
f 10 2 7
f 11 8 5
f 11 4 8
f 12 9 6
f 12 6 4
f 12 4 11
f 12 11 5
f 12 5 9

