# https://github.com/mikedh/trimesh
v 0.01062431 -0.18468283 1.33437171
v 0.01052306 -0.18036010 1.11655913
v 0.01150302 -0.17681704 1.33440874
v -0.04152297 -0.17022438 1.33412449
v -0.03670418 -0.17739081 1.12590902
v 0.01215253 -0.17342893 1.11834293
v -0.02426793 -0.17916486 1.11633716
v -0.03701139 -0.17983921 1.33387618
v -0.04169487 -0.17037806 1.11612757
v -0.03920687 -0.17591248 1.11620986
f 1 3 4
f 6 4 3
f 6 1 2
f 6 3 1
f 7 2 1
f 8 1 4
f 8 7 1
f 8 5 7
f 9 4 6
f 9 6 2
f 9 2 7
f 10 8 4
f 10 4 9
f 10 5 8
f 10 9 7
f 10 7 5

