# https://github.com/mikedh/trimesh
v -0.11702905 -0.00232109 1.11890155
v -0.11721642 0.00191663 1.11521589
v -0.11720300 0.00151194 1.12460759
v -0.14226928 0.00155310 1.12463045
v -0.14284045 -0.00151085 1.11791878
v -0.11691687 0.00234217 1.12322320
v -0.14310274 -0.00010906 1.12491667
v -0.14289260 0.00193044 1.11495223
v -0.11747212 0.00000451 1.12443440
v -0.14275011 -0.00242742 1.11962453
f 5 2 1
f 6 4 3
f 6 1 2
f 6 3 1
f 7 3 4
f 8 2 5
f 8 6 2
f 8 4 6
f 8 7 4
f 8 5 7
f 9 1 3
f 9 3 7
f 10 7 5
f 10 5 1
f 10 9 7
f 10 1 9

