# https://github.com/mikedh/trimesh
v -0.15504526 -0.05498967 1.31666601
v -0.15818450 -0.05220704 1.11706798
v -0.16389896 -0.01379784 1.11853205
v -0.17444608 -0.01263999 1.33021902
v -0.16872998 -0.04799164 1.33005110
v -0.16660731 -0.04754426 1.11670195
v -0.16218492 -0.01332929 1.33027537
v -0.15503139 -0.05481486 1.13762592
v -0.17139162 -0.01216235 1.11741792
v -0.15627245 -0.05168866 1.33001820
f 6 5 4
f 7 4 5
f 8 2 3
f 8 7 1
f 8 3 7
f 8 1 5
f 8 6 2
f 8 5 6
f 9 3 2
f 9 2 6
f 9 6 4
f 9 7 3
f 9 4 7
f 10 7 5
f 10 5 1
f 10 1 7

