# https://github.com/mikedh/trimesh
v 0.17031492 0.03701954 1.20156627
v 0.16898518 0.03664425 1.11743724
v 0.15824912 0.07401292 1.11634829
v 0.14580302 0.07973003 1.20151513
v 0.15903785 0.03981886 1.20148991
v 0.14615558 0.07974504 1.11751376
v 0.15939584 0.07423149 1.20154159
v 0.16385999 0.06011418 1.11637092
v 0.16002646 0.03986268 1.11743760
v 0.16470285 0.06018611 1.20156829
f 5 2 1
f 5 1 4
f 6 5 4
f 7 6 4
f 7 3 6
f 8 1 2
f 8 3 7
f 9 2 5
f 9 5 6
f 9 8 2
f 9 6 3
f 9 3 8
f 10 7 4
f 10 4 1
f 10 8 7
f 10 1 8

