# https://github.com/mikedh/trimesh
v -0.10808875 0.14528367 1.18862798
v -0.06281947 0.17015823 1.11645963
v -0.07218915 0.15284767 1.18860536
v -0.06318434 0.17209054 1.18876720
v -0.09528902 0.15360877 1.11784637
v -0.09602924 0.15435870 1.18879547
v -0.07305460 0.16767461 1.18879402
v -0.07278416 0.15317727 1.11859983
v -0.07161911 0.16614423 1.11645084
v -0.10445217 0.14128439 1.11635611
f 3 2 4
f 6 1 3
f 6 5 1
f 7 4 2
f 7 5 6
f 7 6 3
f 7 3 4
f 8 2 3
f 9 7 2
f 9 5 7
f 10 8 3
f 10 3 1
f 10 1 5
f 10 5 9
f 10 9 2
f 10 2 8

