# https://github.com/mikedh/trimesh
v 0.00642868 -0.00728829 1.33254569
v 0.00702825 -0.00802624 1.31690329
v 0.00910792 0.00951541 1.31728259
v -0.00152876 0.01253956 1.31716320
v -0.00784404 -0.00734506 1.31679537
v 0.00667620 0.00958219 1.33278290
v -0.00740623 -0.00702293 1.32963623
v -0.00939028 0.00716869 1.33305322
v -0.00737505 -0.00687770 1.33247581
v -0.00851494 0.00856836 1.31724693
f 1 2 3
f 3 2 4
f 5 4 2
f 6 1 3
f 6 3 4
f 7 5 2
f 7 2 1
f 8 1 6
f 8 6 4
f 9 7 1
f 9 1 8
f 9 8 5
f 9 5 7
f 10 8 4
f 10 4 5
f 10 5 8

