# https://github.com/mikedh/trimesh
v 0.06420895 -0.17017987 1.30428089
v 0.09460821 -0.13737490 1.22724105
v 0.08437279 -0.16033457 1.30434156
v 0.09484560 -0.13721961 1.29128870
v 0.06937954 -0.15327124 1.30435691
v 0.06411584 -0.17006826 1.22720950
v 0.09471689 -0.13704779 1.27844187
v 0.08857911 -0.14173942 1.30431365
v 0.08409721 -0.16021799 1.22725883
v 0.06928244 -0.15351959 1.22719781
v 0.06415682 -0.17015292 1.27861102
f 3 2 4
f 5 1 3
f 6 3 1
f 7 5 4
f 7 4 2
f 8 5 3
f 8 3 4
f 8 4 5
f 9 6 2
f 9 2 3
f 9 3 6
f 10 6 5
f 10 2 6
f 10 7 2
f 10 5 7
f 11 6 1
f 11 1 5
f 11 5 6

