# https://github.com/mikedh/trimesh
v -0.07859579 0.08977188 0.04793055
v -0.07861714 0.08979605 0.00004969
v -0.07473608 0.12274863 0.04746437
v -0.07568591 0.12400277 0.00010082
v -0.11142139 0.08559715 0.04656170
v -0.11057069 0.08519158 0.00009213
v -0.08270904 0.11876201 0.04647291
v -0.10536407 0.09416292 0.04646071
v -0.10510902 0.09443529 0.00112777
v -0.08217290 0.11912532 0.00036194
f 1 2 3
f 3 2 4
f 5 1 3
f 6 2 1
f 6 1 5
f 6 4 2
f 7 3 4
f 8 5 3
f 8 3 7
f 9 6 5
f 9 5 8
f 9 8 7
f 10 4 6
f 10 6 9
f 10 9 7
f 10 7 4

