# https://github.com/mikedh/trimesh
v 0.13961981 0.10229085 1.33606263
v 0.14320138 0.10493791 1.20150249
v 0.13085781 0.12113425 1.33410782
v 0.09874997 0.15075259 1.33511689
v 0.11104315 0.12555848 1.20131624
v 0.10678743 0.14605173 1.20155700
v 0.12459083 0.11125017 1.20146550
v 0.11185518 0.12680875 1.33385023
v 0.13103817 0.12162720 1.20153481
v 0.10665156 0.14577304 1.33371644
v 0.09959493 0.15162509 1.20152341
v 0.12474581 0.11263600 1.33334183
f 1 2 3
f 1 3 4
f 7 5 2
f 7 2 1
f 8 1 4
f 8 4 5
f 9 3 2
f 9 2 5
f 10 4 3
f 10 9 6
f 10 3 9
f 11 5 4
f 11 10 6
f 11 4 10
f 11 9 5
f 11 6 9
f 12 7 1
f 12 1 8
f 12 8 5
f 12 5 7

