# https://github.com/mikedh/trimesh
v 0.00073351 0.15394813 1.12415159
v 0.01072688 0.18159327 1.11623786
v 0.01157362 0.17330840 1.16295127
v -0.01364623 0.18387311 1.16306322
v -0.01384628 0.18123986 1.11635314
v 0.01058405 0.18388849 1.16306282
v -0.01484505 0.17323684 1.16293123
v 0.00133309 0.15443713 1.11756908
v -0.00101983 0.18170083 1.11604492
v -0.00047426 0.15400297 1.12474598
v -0.00128668 0.15371441 1.11678736
v 0.01054420 0.18353114 1.15050792
v -0.00251377 0.15385874 1.12111593
f 6 3 2
f 6 4 3
f 7 3 4
f 7 4 5
f 8 2 3
f 8 3 1
f 9 5 4
f 10 1 3
f 10 3 7
f 11 5 9
f 11 8 1
f 11 9 2
f 11 2 8
f 12 6 2
f 12 2 9
f 12 9 4
f 12 4 6
f 13 11 1
f 13 1 10
f 13 10 7
f 13 7 5
f 13 5 11

