# https://github.com/mikedh/trimesh
v 0.03651632 0.01252919 1.20176174
v 0.02647405 0.01030866 1.18275340
v 0.02824824 0.03051270 1.20677427
v 0.00908499 0.04163458 1.20603242
v 0.00715753 0.03716505 1.19662703
v 0.02422434 0.02458271 1.19219338
v 0.02473995 0.01703599 1.18534922
v 0.02519144 0.02747831 1.19722410
v 0.01497008 0.01644359 1.17236982
v 0.01608081 0.03992997 1.20672959
v 0.00858039 0.02825369 1.18252676
v 0.01556353 0.03522643 1.19834394
v 0.01554762 0.02629809 1.18509112
f 1 3 4
f 5 2 1
f 5 1 4
f 7 6 1
f 7 1 2
f 8 3 1
f 8 1 6
f 9 7 2
f 9 6 7
f 10 4 3
f 10 3 8
f 10 5 4
f 11 9 2
f 11 2 5
f 12 11 5
f 12 5 10
f 12 10 8
f 13 12 8
f 13 8 6
f 13 6 9
f 13 9 11
f 13 11 12

