# https://github.com/mikedh/trimesh
v 0.00788342 -0.03891546 1.25696843
v 0.03926703 -0.00965585 1.20650390
v 0.03475847 -0.02864109 1.24806936
v 0.01158486 -0.01353772 1.27932112
v 0.00872214 -0.04069496 1.20683836
v 0.03871693 -0.01132681 1.25764966
v 0.01681224 -0.02819742 1.26606003
v 0.00914523 -0.02844714 1.26859285
v 0.02133997 -0.02606374 1.19234443
v 0.02649391 -0.03689277 1.24578877
v 0.02789376 -0.00932576 1.26973331
v 0.02591764 -0.01840368 1.26736904
v 0.01900882 -0.03681625 1.25538129
v 0.03426806 -0.02880334 1.21872915
v 0.03580356 -0.01920285 1.25695407
v 0.03614611 -0.01916690 1.20771423
v 0.02614676 -0.03697696 1.21980583
v 0.01711308 -0.03835451 1.20837218
f 6 3 2
f 8 5 1
f 8 4 5
f 8 7 4
f 9 5 4
f 9 4 2
f 10 1 5
f 11 6 2
f 11 2 4
f 12 11 4
f 12 4 7
f 13 8 1
f 13 7 8
f 13 1 10
f 13 10 3
f 13 12 7
f 14 2 3
f 15 3 6
f 15 6 11
f 15 11 12
f 15 13 3
f 15 12 13
f 16 14 9
f 16 9 2
f 16 2 14
f 17 14 3
f 17 3 10
f 17 10 5
f 17 9 14
f 18 17 5
f 18 5 9
f 18 9 17

