# https://github.com/mikedh/trimesh
v 0.08454227 -0.15945686 1.16307880
v 0.12721170 -0.11600400 1.11602926
v 0.13149397 -0.11957722 1.16292182
v 0.12272515 -0.11217134 1.14996744
v 0.09549683 -0.13847913 1.11656185
v 0.09491511 -0.13731088 1.16294440
v 0.11843157 -0.13269843 1.11651785
v 0.11112565 -0.12574828 1.11651260
v 0.10983257 -0.12501057 1.16297806
v 0.08322718 -0.15838528 1.11631372
v 0.11925292 -0.13320080 1.16303037
v 0.09317067 -0.15326326 1.11769505
v 0.09306530 -0.15419377 1.16304229
f 3 2 4
f 6 4 5
f 7 2 3
f 8 5 4
f 8 4 2
f 8 2 5
f 9 6 1
f 9 3 4
f 9 4 6
f 10 6 5
f 10 1 6
f 10 5 2
f 10 2 7
f 11 7 3
f 11 9 1
f 11 3 9
f 12 10 7
f 12 1 10
f 12 7 11
f 13 12 11
f 13 11 1
f 13 1 12

