# https://github.com/mikedh/trimesh
v -0.09143476 -0.01299687 0.04795287
v -0.09146886 -0.01300779 0.00003246
v -0.09146885 0.06409473 0.00005312
v -0.12350948 0.06143021 0.04655071
v -0.13378360 -0.01267557 0.04631237
v -0.09143963 0.06409052 0.04793867
v -0.13353069 -0.01260577 0.00005468
v -0.12362833 0.06224576 0.00018127
v -0.12824000 0.04704841 0.04667368
v -0.12803165 0.04776595 0.00132706
f 1 2 3
f 5 2 1
f 6 1 3
f 7 3 2
f 7 2 5
f 8 6 3
f 8 4 6
f 8 3 7
f 9 5 1
f 9 1 6
f 9 6 4
f 9 4 8
f 10 9 8
f 10 8 7
f 10 7 5
f 10 5 9

