# https://github.com/mikedh/trimesh
v 0.14562761 -0.07974259 1.33330351
v 0.16625435 -0.04844854 1.11661020
v 0.15762617 -0.07454295 1.11631677
v 0.16779030 -0.04841855 1.33420386
v 0.15579165 -0.05543448 1.33365716
v 0.16507561 -0.06056619 1.33312332
v 0.14583957 -0.07983523 1.11711759
v 0.15845479 -0.07348579 1.33478791
v 0.16368345 -0.05961247 1.11813721
v 0.15565511 -0.05547019 1.11756186
f 5 4 2
f 6 2 4
f 7 2 3
f 7 3 1
f 8 5 1
f 8 4 5
f 8 6 4
f 8 1 3
f 8 3 6
f 9 6 3
f 9 3 2
f 9 2 6
f 10 5 2
f 10 2 7
f 10 7 1
f 10 1 5

