# https://github.com/mikedh/trimesh
v -0.10363263 0.13990111 1.33555491
v -0.06307923 0.17252218 1.24007008
v -0.07227070 0.15297138 1.24013598
v -0.06268122 0.17176673 1.33464927
v -0.09604258 0.15464501 1.33342968
v -0.07237354 0.15321581 1.33324548
v -0.10827982 0.14552049 1.24008476
v -0.10421358 0.14105284 1.33584976
v -0.07273408 0.16828452 1.33323446
v -0.09611934 0.15447781 1.24008244
v -0.09617506 0.15454248 1.31718432
v -0.07309651 0.16792679 1.24008643
f 3 2 4
f 6 1 3
f 6 3 4
f 7 2 3
f 7 3 1
f 8 4 5
f 8 6 4
f 8 1 6
f 8 7 1
f 8 5 7
f 9 5 4
f 9 4 2
f 10 2 7
f 10 5 9
f 11 10 7
f 11 7 5
f 11 5 10
f 12 10 9
f 12 9 2
f 12 2 10

