# https://github.com/mikedh/trimesh
v -0.16146207 0.02603957 1.18862475
v -0.14585017 0.07840668 1.16296206
v -0.16128737 0.02602451 1.16292511
v -0.14585814 0.07841059 1.18866290
v -0.16876036 0.04831245 1.18871025
v -0.17264489 0.02451217 1.18873783
v -0.15860962 0.07820190 1.16295192
v -0.16073880 0.07353844 1.18869470
v -0.15544874 0.05449348 1.16292838
v -0.16867463 0.04822835 1.16301793
v -0.16065426 0.07350167 1.16299418
v -0.17238556 0.02488132 1.16304490
f 1 3 4
f 3 2 4
f 6 1 4
f 6 3 1
f 7 4 2
f 8 6 4
f 8 5 6
f 8 4 7
f 9 7 2
f 9 2 3
f 9 3 7
f 10 6 5
f 10 7 3
f 11 8 7
f 11 7 10
f 11 10 5
f 11 5 8
f 12 10 3
f 12 3 6
f 12 6 10

