# https://github.com/mikedh/trimesh
v 0.07210197 -0.12386321 0.04697311
v 0.10895845 -0.08667172 0.00015453
v 0.10825670 -0.08578447 0.04740530
v 0.07558786 -0.09011388 0.04812638
v 0.07557313 -0.09009994 0.00006686
v 0.10364772 -0.09475406 0.04626783
v 0.07289707 -0.12457281 0.00028539
v 0.08007763 -0.11953171 0.04632563
v 0.10391705 -0.09411977 0.00015368
v 0.08030901 -0.11877649 0.00024377
f 1 3 4
f 5 1 4
f 5 3 2
f 5 4 3
f 6 2 3
f 7 1 5
f 8 6 3
f 8 3 1
f 8 1 7
f 9 5 2
f 9 2 6
f 9 6 8
f 10 7 5
f 10 5 9
f 10 9 8
f 10 8 7

