# https://github.com/mikedh/trimesh
v 0.01158486 -0.01353772 1.27932112
v 0.01766386 -0.02100323 1.18215726
v 0.01070410 0.04759276 1.23921975
v 0.00942031 0.02921508 1.26860440
v -0.03696336 -0.00820877 1.19615018
v -0.03945044 -0.00873391 1.25617293
v 0.00715753 0.03716505 1.19662703
v -0.02877548 0.01034740 1.26858131
v -0.02997222 0.03653780 1.21816277
v -0.02868518 0.02590117 1.19641074
v -0.02920378 -0.00912962 1.26740356
v -0.01903126 0.02722274 1.26644454
v -0.01953862 0.03454608 1.19803806
v -0.03741728 0.02876274 1.21769953
v -0.03727876 0.00819048 1.19623737
v 0.00839284 0.04053273 1.25626801
v -0.02924091 0.03615264 1.24784978
v -0.03861811 0.02635028 1.24710297
v -0.02066278 0.03751728 1.25533843
v -0.03813196 0.01786439 1.25540600
v -0.02891275 0.01843545 1.26514153
f 1 2 3
f 1 3 4
f 6 5 2
f 6 2 1
f 7 3 2
f 10 7 2
f 11 8 6
f 11 6 1
f 11 1 8
f 12 8 1
f 12 1 4
f 13 9 3
f 13 3 7
f 13 10 9
f 13 7 10
f 14 9 10
f 15 10 2
f 15 2 5
f 15 14 10
f 15 5 6
f 16 4 3
f 17 3 9
f 17 9 14
f 18 15 6
f 18 14 15
f 18 17 14
f 19 12 4
f 19 4 16
f 19 16 3
f 19 3 17
f 20 18 6
f 20 6 8
f 21 19 17
f 21 12 19
f 21 17 18
f 21 18 20
f 21 20 8
f 21 8 12

