# https://github.com/mikedh/trimesh
v 0.03389182 -0.18017393 1.33442254
v 0.05405852 -0.16174796 1.11843651
v 0.04811955 -0.17483621 1.33507807
v 0.05328321 -0.16333916 1.33390980
v 0.01215253 -0.17342893 1.11834293
v 0.01150302 -0.17681704 1.33440874
v 0.04769282 -0.17306053 1.11633865
v 0.01062431 -0.18468283 1.33437171
v 0.01052306 -0.18036010 1.11655913
v 0.03407794 -0.17762524 1.12521348
v 0.02167039 -0.17955798 1.11634696
f 3 2 4
f 5 4 2
f 6 3 4
f 6 4 5
f 7 2 3
f 7 3 1
f 8 1 3
f 8 3 6
f 9 5 2
f 9 2 7
f 9 8 6
f 9 6 5
f 10 7 1
f 10 1 8
f 11 9 7
f 11 7 10
f 11 10 8
f 11 8 9

