# https://github.com/mikedh/trimesh
v -0.01249370 -0.03387729 1.26171916
v -0.01068590 -0.02946436 1.26702324
v -0.03350546 -0.02026515 1.25938535
v -0.02920378 -0.00912962 1.26740356
v -0.01401443 -0.01267613 1.27804804
v -0.03459043 -0.01137525 1.26130002
v -0.02150282 -0.03284533 1.25866486
v -0.02882198 -0.01753764 1.26486693
v -0.01899386 -0.02705467 1.26533541
v -0.01866310 -0.01699293 1.27264189
f 5 2 1
f 5 1 4
f 6 3 4
f 6 4 1
f 7 1 2
f 7 6 1
f 7 3 6
f 8 5 4
f 8 4 3
f 9 7 2
f 9 2 5
f 9 8 3
f 9 3 7
f 10 9 5
f 10 5 8
f 10 8 9

