# https://github.com/mikedh/trimesh
v 0.15811241 0.07375322 1.33586931
v 0.15925344 0.07416852 1.16299095
v 0.14699497 0.09900901 1.33376723
v 0.13130579 0.10541063 1.33388288
v 0.14189383 0.08673853 1.16310353
v 0.15529193 0.08430374 1.33344237
v 0.14629734 0.08014045 1.33363956
v 0.14660394 0.09909367 1.16296709
v 0.13739790 0.09697106 1.33421735
v 0.12963829 0.10486838 1.16294117
v 0.15458628 0.08494346 1.16306598
v 0.14265998 0.08507345 1.31728227
f 1 3 4
f 6 1 2
f 6 3 1
f 7 5 2
f 7 2 1
f 8 3 6
f 8 4 3
f 9 7 1
f 9 1 4
f 9 4 7
f 10 4 8
f 10 8 2
f 10 2 5
f 11 8 6
f 11 6 2
f 11 2 8
f 12 7 4
f 12 4 10
f 12 10 5
f 12 5 7

