# https://github.com/mikedh/trimesh
v -0.06679486 0.15586996 1.27862022
v -0.02509295 0.18280910 1.18879144
v -0.02816150 0.17198247 1.27859744
v -0.02535862 0.18347831 1.27865430
v -0.06318434 0.17209054 1.18876720
v -0.02812176 0.17172596 1.18860544
v -0.06308681 0.17254254 1.27862134
v -0.04814567 0.17726131 1.20169250
v -0.06675801 0.15584017 1.18865502
v -0.04809606 0.17775629 1.27867198
v -0.03738524 0.18015180 1.18882193
f 1 3 4
f 3 2 4
f 6 2 3
f 6 3 1
f 6 5 2
f 7 5 1
f 9 6 1
f 9 1 5
f 9 5 6
f 10 7 1
f 10 1 4
f 10 8 5
f 10 5 7
f 11 4 2
f 11 2 5
f 11 5 8
f 11 10 4
f 11 8 10

