# https://github.com/mikedh/trimesh
v 0.10263794 0.14259225 1.33580786
v 0.09772493 0.13647596 1.25288602
v 0.09365643 0.15595233 1.25295652
v 0.06010462 0.17286290 1.33465017
v 0.07370246 0.15337981 1.33222042
v 0.06004961 0.17356150 1.25296208
v 0.09423061 0.15558625 1.33300085
v 0.06963753 0.15427883 1.25304059
v 0.07010003 0.16922439 1.33382035
v 0.07052673 0.16882039 1.25296658
f 1 2 3
f 5 2 1
f 5 1 4
f 6 3 2
f 7 1 3
f 8 5 4
f 8 4 6
f 8 6 2
f 8 2 5
f 9 4 1
f 9 1 7
f 9 6 4
f 9 7 3
f 10 9 3
f 10 3 6
f 10 6 9

