# https://github.com/mikedh/trimesh
v 0.05976540 -0.17170518 1.22724964
v 0.08926321 -0.14251994 1.11667409
v 0.08409721 -0.16021799 1.22725883
v 0.08844224 -0.14152347 1.22721535
v 0.07016491 -0.15378229 1.11701693
v 0.06928244 -0.15351959 1.22719781
v 0.08322718 -0.15838528 1.11631372
v 0.05942840 -0.16944430 1.11641789
v 0.06944912 -0.16544811 1.11632185
v 0.06951376 -0.16746105 1.22723600
f 1 3 4
f 3 2 4
f 5 4 2
f 6 1 4
f 6 4 5
f 7 2 3
f 8 6 5
f 8 1 6
f 8 5 2
f 9 7 3
f 9 1 8
f 9 8 2
f 9 2 7
f 10 9 3
f 10 3 1
f 10 1 9

