# https://github.com/mikedh/trimesh
v 0.00143054 0.07703838 1.12332394
v 0.00293220 0.07677907 1.11839544
v 0.00073351 0.15394813 1.12415159
v -0.00047426 0.15400297 1.12474598
v -0.00171655 0.07694848 1.11608061
v -0.00093781 0.07701415 1.12475496
v 0.00133309 0.15443713 1.11756908
v -0.00251377 0.15385874 1.12111593
v -0.00105485 0.08986319 1.12481861
v -0.00269153 0.07706717 1.12115334
v -0.00128668 0.15371441 1.11678736
v -0.00172700 0.08979857 1.11610536
f 1 2 3
f 6 1 3
f 6 3 4
f 6 5 2
f 6 2 1
f 7 3 2
f 7 2 5
f 7 4 3
f 8 4 7
f 9 6 4
f 9 4 8
f 10 5 6
f 10 9 8
f 10 6 9
f 11 8 7
f 12 10 8
f 12 5 10
f 12 8 11
f 12 11 7
f 12 7 5

