# https://github.com/mikedh/trimesh
v 0.03859857 0.00971437 1.25730938
v 0.03927973 0.01103333 1.20652273
v 0.02739680 0.03767253 1.21942183
v 0.00839284 0.04053273 1.25626801
v 0.01197803 0.01385865 1.28010904
v 0.00908499 0.04163458 1.20603242
v 0.03559270 0.02814413 1.24781141
v 0.02831131 0.01061687 1.26868329
v 0.02422434 0.02458271 1.19219338
v 0.02585885 0.03780716 1.24753397
v 0.00942031 0.02921508 1.26860440
v 0.03709938 0.01967853 1.25513200
v 0.03554058 0.02893203 1.21840117
v 0.01608081 0.03992997 1.20672959
v 0.01819623 0.03891983 1.25493949
v 0.02643942 0.01903932 1.26656382
v 0.03661655 0.02049585 1.20730579
v 0.01807433 0.02796860 1.26613071
f 8 5 2
f 8 2 1
f 9 2 5
f 9 5 6
f 10 3 6
f 10 7 3
f 11 6 5
f 11 4 6
f 12 1 2
f 12 2 7
f 12 8 1
f 13 7 2
f 13 3 7
f 13 9 3
f 14 9 6
f 14 6 3
f 14 3 9
f 15 4 11
f 15 10 6
f 15 6 4
f 15 12 7
f 15 7 10
f 16 5 8
f 16 8 12
f 17 13 2
f 17 2 9
f 17 9 13
f 18 15 11
f 18 11 5
f 18 5 16
f 18 16 12
f 18 12 15

