# https://github.com/mikedh/trimesh
v -0.11317409 -0.13707933 1.33567192
v -0.11403190 -0.13789448 1.11705771
v -0.12596003 -0.11161537 1.11659244
v -0.14698051 -0.09743635 1.33396681
v -0.12099102 -0.13196720 1.33383873
v -0.14673442 -0.09766018 1.11797394
v -0.12751684 -0.11128775 1.33458864
v -0.14126357 -0.10678819 1.33378046
v -0.12055800 -0.13148837 1.11657310
v -0.14121814 -0.10613339 1.11772675
f 1 2 3
f 5 2 1
f 6 4 3
f 7 1 3
f 7 3 4
f 7 4 1
f 8 5 1
f 8 1 4
f 8 4 6
f 9 6 3
f 9 3 2
f 9 2 5
f 10 8 6
f 10 6 9
f 10 9 5
f 10 5 8

