# https://github.com/mikedh/trimesh
v 0.08786999 -0.15332517 1.33575876
v 0.13149397 -0.11957722 1.16292182
v 0.11901494 -0.13421847 1.33338071
v 0.12727832 -0.11600460 1.33549167
v 0.09491511 -0.13731088 1.16294440
v 0.08967813 -0.15633177 1.16295123
v 0.09473333 -0.13930710 1.33297098
v 0.10983257 -0.12501057 1.16297806
v 0.10598323 -0.14521226 1.16306312
v 0.10700932 -0.14481947 1.33349733
v 0.11090809 -0.12594044 1.33306302
v 0.11925292 -0.13320080 1.16303037
f 1 3 4
f 3 2 4
f 6 5 2
f 6 1 5
f 7 5 1
f 7 1 4
f 8 4 2
f 8 2 5
f 10 3 1
f 10 1 6
f 10 9 3
f 10 6 9
f 11 7 4
f 11 4 8
f 11 8 5
f 11 5 7
f 12 2 3
f 12 3 9
f 12 9 6
f 12 6 2

