# https://github.com/mikedh/trimesh
v -0.07858935 0.06409055 0.04798106
v -0.07861715 0.06409520 0.00004466
v -0.07861714 0.08979605 0.00004969
v -0.11142139 0.08559715 0.04656170
v -0.12350948 0.06143021 0.04655071
v -0.07866342 0.08983793 0.04793020
v -0.12362833 0.06224576 0.00018127
v -0.07859579 0.08977188 0.04793055
v -0.11057069 0.08519158 0.00009213
v -0.11935309 0.07120292 0.04652426
v -0.11914911 0.07198120 0.00012544
v -0.11947208 0.07123884 0.03202641
f 1 2 3
f 5 2 1
f 6 3 4
f 6 5 1
f 7 2 5
f 8 6 1
f 8 1 3
f 8 3 6
f 9 3 2
f 9 4 3
f 10 7 5
f 10 6 4
f 10 5 6
f 11 9 2
f 11 2 7
f 11 4 9
f 12 10 4
f 12 4 11
f 12 11 7
f 12 7 10

