# https://github.com/mikedh/trimesh
v -0.13363356 -0.10616736 1.33534052
v -0.13225538 -0.10525204 1.11654603
v -0.15162278 -0.06816849 1.33345995
v -0.16274415 -0.06247753 1.33506459
v -0.14673442 -0.09766018 1.11797394
v -0.14330810 -0.08520300 1.33301378
v -0.14698051 -0.09743635 1.33396681
v -0.16188021 -0.06227244 1.11663713
v -0.15479148 -0.08395260 1.33408640
v -0.15160495 -0.06915245 1.11705226
v -0.15488166 -0.08239321 1.11678031
f 1 3 4
f 5 2 1
f 6 1 2
f 6 2 3
f 6 3 1
f 7 5 1
f 7 1 4
f 8 4 3
f 9 7 4
f 9 5 7
f 10 8 3
f 10 3 2
f 10 2 8
f 11 8 2
f 11 2 5
f 11 5 9
f 11 9 4
f 11 4 8

