# https://github.com/mikedh/trimesh
v 0.17005682 0.03678896 1.33478042
v 0.17063546 0.03707419 1.25296590
v 0.15958570 0.07431545 1.25294244
v 0.14629734 0.08014045 1.33363956
v 0.15906218 0.03991106 1.25293510
v 0.15811241 0.07375322 1.33586931
v 0.16577394 0.05905812 1.33408339
v 0.16010165 0.04137409 1.33396006
v 0.14559364 0.07981626 1.25293766
v 0.16489858 0.06029606 1.25300401
f 5 2 1
f 5 3 2
f 6 3 4
f 7 1 2
f 7 6 1
f 7 3 6
f 8 5 1
f 8 4 5
f 8 6 4
f 8 1 6
f 9 5 4
f 9 4 3
f 9 3 5
f 10 7 2
f 10 2 3
f 10 3 7

