# https://github.com/mikedh/trimesh
v 0.01144186 -0.01312037 1.16292120
v 0.04987351 0.00047444 1.12385366
v 0.01704719 -0.00789722 1.16486047
v 0.00782490 0.01797315 1.16441032
v 0.00975331 -0.01168804 1.12453006
v 0.01333868 0.01439155 1.16572628
v 0.00620772 0.01474350 1.13746065
v 0.04958126 0.00092022 1.12436143
v 0.01003197 0.01136056 1.12452765
v 0.04973566 0.00249787 1.12240343
v 0.02103999 -0.00415500 1.12107156
f 1 2 3
f 5 2 1
f 6 1 3
f 6 4 1
f 7 5 1
f 7 1 4
f 8 6 3
f 8 3 2
f 9 5 7
f 10 4 6
f 10 6 8
f 10 7 4
f 10 9 7
f 10 8 2
f 11 10 2
f 11 2 5
f 11 5 9
f 11 9 10

