# https://github.com/mikedh/trimesh
v -0.10553331 0.12988696 1.24007225
v -0.06318434 0.17209054 1.18876720
v -0.07227070 0.15297138 1.24013598
v -0.06307923 0.17252218 1.24007008
v -0.10827982 0.14552049 1.24008476
v -0.07218915 0.15284767 1.18860536
v -0.09602924 0.15435870 1.18879547
v -0.08830571 0.14281528 1.24015192
v -0.10551303 0.12960662 1.18865463
v -0.09611934 0.15447781 1.24008244
v -0.07305460 0.16767461 1.18879402
v -0.07309651 0.16792679 1.24008643
v -0.08823452 0.14282044 1.18861800
f 6 2 4
f 6 4 3
f 7 2 6
f 8 5 1
f 8 1 3
f 9 6 3
f 9 3 1
f 9 1 5
f 9 5 7
f 10 7 5
f 10 5 8
f 11 4 2
f 11 2 7
f 12 8 3
f 12 3 4
f 12 10 8
f 12 4 11
f 12 11 7
f 12 7 10
f 13 9 7
f 13 7 6
f 13 6 9

