# https://github.com/mikedh/trimesh
v 0.14310762 0.10487412 1.16295156
v 0.14010490 0.10286186 1.11621875
v 0.13010874 0.12116239 1.11657478
v 0.09952827 0.15152941 1.16297249
v 0.11059422 0.12541606 1.16283830
v 0.13098189 0.12158421 1.16298367
v 0.12434472 0.11119284 1.16287841
v 0.11170335 0.12641659 1.11674486
v 0.10625896 0.14542727 1.11675424
v 0.10670172 0.14593159 1.16300291
v 0.11070481 0.12535854 1.15023732
v 0.12506506 0.11247371 1.11702341
v 0.09886243 0.15095240 1.11652843
f 1 2 3
f 6 1 3
f 7 2 1
f 7 4 5
f 9 6 3
f 10 4 7
f 10 9 4
f 10 6 9
f 10 7 1
f 10 1 6
f 11 7 5
f 12 8 2
f 12 2 7
f 12 11 8
f 12 7 11
f 13 4 9
f 13 8 11
f 13 11 5
f 13 5 4
f 13 2 8
f 13 9 3
f 13 3 2

