# https://github.com/mikedh/trimesh
v 0.10897612 0.08657524 0.04718566
v 0.10986802 0.08681393 0.00016669
v 0.09393710 0.10796085 0.04631418
v 0.07213093 0.12433147 0.04775119
v 0.07557768 0.08979554 0.00008291
v 0.07348384 0.12584683 0.00014875
v 0.10443327 0.09519077 0.04639957
v 0.07556634 0.08978219 0.04802800
v 0.10387940 0.09556565 0.00025156
v 0.08145827 0.12017025 0.04603171
v 0.08097753 0.11951111 0.00013077
f 1 3 4
f 5 2 1
f 6 5 4
f 7 1 2
f 7 3 1
f 8 5 1
f 8 1 4
f 8 4 5
f 9 7 2
f 9 3 7
f 10 6 4
f 10 4 3
f 11 2 5
f 11 5 6
f 11 9 2
f 11 3 9
f 11 10 3
f 11 6 10

