# https://github.com/mikedh/trimesh
v 0.01075734 -0.14736538 0.04664621
v 0.01105409 -0.14735497 0.00134024
v 0.01133152 -0.01300479 0.00000733
v -0.05294611 -0.01302357 0.04799607
v -0.05050951 -0.13657267 0.00018427
v 0.00750021 -0.00668005 0.05913575
v -0.03693289 -0.14228888 0.04639345
v -0.05292051 -0.01300536 0.00001178
v -0.03661413 -0.14223594 0.00132512
v -0.05049576 -0.13636508 0.04689746
v -0.05291043 -0.12864200 0.00008569
f 1 2 3
f 5 3 2
f 6 1 3
f 7 2 1
f 8 6 3
f 8 4 6
f 9 7 5
f 9 5 2
f 9 2 7
f 10 5 7
f 10 6 4
f 10 7 1
f 10 1 6
f 11 4 8
f 11 10 4
f 11 5 10
f 11 8 3
f 11 3 5

