# https://github.com/mikedh/trimesh
v -0.09142307 -0.09007104 0.04776111
v -0.09139698 -0.09001200 0.00006537
v -0.09142354 -0.06437055 0.04785700
v -0.12299607 -0.06114028 0.04640913
v -0.10993678 -0.08488204 0.03213632
v -0.09146818 -0.06440697 0.00003990
v -0.10957000 -0.08463568 0.04657233
v -0.12277207 -0.06152671 0.00095957
v -0.11802738 -0.07101354 0.04626078
v -0.10949735 -0.08441846 0.00056933
v -0.11783642 -0.07106333 0.00050939
f 1 2 3
f 1 3 4
f 5 2 1
f 6 3 2
f 6 4 3
f 7 5 1
f 7 1 4
f 8 4 6
f 9 7 4
f 9 5 7
f 9 4 8
f 10 2 5
f 11 9 8
f 11 5 9
f 11 10 5
f 11 8 6
f 11 6 2
f 11 2 10

