# https://github.com/mikedh/trimesh
v -0.14846843 0.09787848 1.18867406
v -0.11407097 0.13805012 1.11617176
v -0.12515578 0.10917418 1.18878189
v -0.11503484 0.13887985 1.18868452
v -0.14232054 0.10586926 1.11654775
v -0.12190543 0.13251666 1.18871340
v -0.12693167 0.11157685 1.11721120
v -0.14257020 0.10685206 1.18868220
v -0.12090443 0.13197011 1.11726027
v -0.14714820 0.09802747 1.11628109
f 3 2 4
f 6 3 4
f 7 2 3
f 8 6 5
f 8 5 1
f 8 1 3
f 8 3 6
f 9 6 4
f 9 4 2
f 9 2 5
f 9 5 6
f 10 5 2
f 10 2 7
f 10 1 5
f 10 7 3
f 10 3 1

