# https://github.com/mikedh/trimesh
v -0.14824662 0.09866677 1.33350728
v -0.10185452 0.15042136 1.18867741
v -0.12515578 0.10917418 1.18878189
v -0.10064212 0.14898072 1.33498328
v -0.10954346 0.14439819 1.33332214
v -0.11192824 0.12353614 1.18860391
v -0.12667300 0.11002783 1.33383407
v -0.14846843 0.09787848 1.18867406
v -0.14275027 0.10719692 1.33371192
v -0.11309530 0.12482829 1.33403626
v -0.14257020 0.10685206 1.18868220
v -0.10863102 0.14478473 1.18874585
f 5 4 2
f 6 2 4
f 7 1 3
f 7 4 1
f 7 3 6
f 8 3 1
f 8 6 3
f 9 1 4
f 9 4 5
f 9 8 1
f 10 7 6
f 10 6 4
f 10 4 7
f 11 9 5
f 11 8 9
f 11 2 6
f 11 6 8
f 12 11 5
f 12 5 2
f 12 2 11

