{"scene":0,"scenes":[{"nodes":[0]}],"asset":{"version":"2.0","generator":"https://github.com/mikedh/trimesh"},"accessors":[{"componentType":5125,"type":"SCALAR","bufferView":0,"count":9378,"max":[9375],"min":[0]},{"componentType":5126,"type":"VEC3","byteOffset":0,"bufferView":1,"count":9376,"max":[0.17499999701976776,1.3364439010620117,0.18617548048496246],"min":[-0.17499999701976776,0.0,-0.18617548048496246]},{"componentType":5126,"type":"VEC2","byteOffset":0,"bufferView":3,"count":9376,"max":[0.9994913339614868,0.9993224740028381],"min":[0.0005086470046080649,0.0006775259971618652]}],"meshes":[{"name":"geometry_0.001","extras":{"units":"meters","from_gltf_primitive":false,"name":"geometry_0.001","node":"geometry_0.001"},"primitives":[{"attributes":{"POSITION":1,"TEXCOORD_0":2},"indices":0,"mode":4,"material":0}]}],"images":[{"bufferView":2,"mimeType":"image/png"}],"textures":[{"source":0}],"materials":[{"pbrMetallicRoughness":{"baseColorTexture":{"index":0}},"name":"Material_0.001","doubleSided":false}],"nodes":[{"name":"world","children":[1]},{"name":"geometry_0.001","mesh":0}],"buffers":[{"uri":"gltf_buffer_0.bin","byteLength":37512},{"uri":"gltf_buffer_1.bin","byteLength":112512},{"uri":"gltf_buffer_2.bin","byteLength":872680},{"uri":"gltf_buffer_3.bin","byteLength":75008}],"bufferViews":[{"buffer":0,"byteOffset":0,"byteLength":37512},{"buffer":1,"byteOffset":0,"byteLength":112512},{"buffer":2,"byteOffset":0,"byteLength":872680},{"buffer":3,"byteOffset":0,"byteLength":75008}]}