# https://github.com/mikedh/trimesh
v 0.00670435 -0.00826301 1.07307061
v 0.00646289 -0.00716020 1.02157503
v 0.00769818 0.00938862 1.07302405
v -0.00861593 0.00832263 1.07296626
v -0.00870718 -0.00596561 1.02165341
v -0.00798516 -0.00722814 1.07300559
v 0.00717612 0.00911926 1.02163633
v -0.00848525 -0.00668588 1.06019765
v -0.00847251 0.00822557 1.02164459
v -0.00108448 0.01261939 1.04522946
v 0.00506965 0.01054168 1.04677623
v 0.00029877 0.01185229 1.03777702
f 1 2 3
f 1 3 4
f 6 5 2
f 6 2 1
f 6 1 4
f 7 3 2
f 8 6 4
f 8 4 5
f 8 5 6
f 9 7 2
f 9 2 5
f 9 5 4
f 10 9 4
f 10 4 3
f 11 10 3
f 11 3 7
f 11 7 10
f 12 10 7
f 12 7 9
f 12 9 10

