# https://github.com/mikedh/trimesh
v 0.01007644 -0.04640357 1.22735200
v 0.02728273 -0.02842221 1.20334870
v 0.02814802 -0.03621938 1.22288541
v -0.04666215 -0.01150709 1.22739920
v -0.01800041 -0.02569530 1.18639161
v 0.00820824 -0.03605608 1.19712180
v -0.02109950 -0.04279505 1.22830418
v 0.01451857 -0.01582199 1.17297683
v -0.04398965 -0.01941296 1.22796673
v -0.01052501 -0.03551551 1.19703724
v -0.02829334 -0.01007473 1.18338289
v 0.00878261 -0.02723671 1.18343137
v -0.02726683 -0.02631648 1.19803426
v -0.01994530 -0.03745989 1.20733312
v -0.04155752 -0.00958813 1.20683945
v -0.02646377 -0.01726353 1.18629546
v -0.03922948 -0.01783398 1.20843173
f 1 3 4
f 3 2 4
f 6 2 3
f 6 3 1
f 8 4 2
f 9 7 1
f 9 1 4
f 10 6 1
f 11 8 5
f 12 8 2
f 12 2 6
f 12 6 10
f 12 10 5
f 12 5 8
f 14 10 1
f 14 1 7
f 14 7 9
f 14 13 5
f 14 5 10
f 15 4 8
f 15 8 11
f 16 11 5
f 16 5 13
f 17 14 9
f 17 13 14
f 17 9 4
f 17 4 15
f 17 16 13
f 17 15 11
f 17 11 16

