# https://github.com/mikedh/trimesh
v 0.00713713 -0.00702667 1.32954916
v 0.02102616 -0.01135784 1.27432118
v 0.01982025 0.02023310 1.27173650
v 0.01039674 0.02206745 1.27434523
v 0.01158486 -0.01353772 1.27932112
v 0.00812372 0.01064082 1.32944191
v 0.00751580 -0.00795995 1.30422072
v 0.01048197 0.00589607 1.32936695
v 0.00875359 0.01595171 1.27968361
v 0.00935777 -0.00538173 1.32877437
f 3 2 4
f 5 2 1
f 5 4 2
f 6 3 4
f 7 5 1
f 8 6 1
f 8 2 3
f 8 3 6
f 9 4 5
f 9 5 7
f 9 6 4
f 9 7 1
f 9 1 6
f 10 8 1
f 10 1 2
f 10 2 8

