# https://github.com/mikedh/trimesh
v 0.13352286 -0.01284010 0.04692362
v 0.13404855 -0.01295501 0.00048808
v 0.12293201 0.06284448 0.00029364
v -0.05289530 0.06407138 0.04806422
v -0.05292051 -0.01300536 0.00001178
v 0.12238030 0.06239494 0.04680286
v 0.12807385 0.04718591 0.04669591
v -0.05294611 -0.01302357 0.04799607
v -0.05291631 0.06409521 0.00002605
v 0.12789077 0.04773762 0.00111925
f 5 3 2
f 6 3 4
f 6 4 1
f 7 1 2
f 7 6 1
f 7 3 6
f 8 5 2
f 8 2 1
f 8 1 4
f 9 4 3
f 9 3 5
f 9 8 4
f 9 5 8
f 10 7 2
f 10 2 3
f 10 3 7

