# https://github.com/mikedh/trimesh
v 0.10390112 0.13182143 1.25293831
v 0.10397596 0.13193911 1.20147244
v 0.09365643 0.15595233 1.25295652
v 0.06004961 0.17356150 1.25296208
v 0.06961688 0.15432254 1.20142882
v 0.06963753 0.15427883 1.25304059
v 0.09356754 0.15582477 1.20155530
v 0.07052673 0.16882039 1.25296658
v 0.05998715 0.17320720 1.20156316
v 0.07043637 0.16862506 1.20156579
f 1 2 3
f 5 2 1
f 6 1 3
f 6 5 1
f 7 3 2
f 7 2 5
f 8 6 3
f 8 4 6
f 8 3 7
f 9 6 4
f 9 5 6
f 10 8 7
f 10 7 5
f 10 5 9
f 10 9 4
f 10 4 8

