{"scene":0,"scenes":[{"nodes":[0]}],"asset":{"version":"2.0","generator":"https://github.com/mikedh/trimesh"},"accessors":[{"componentType":5125,"type":"SCALAR","bufferView":0,"count":63198,"max":[62880],"min":[0]},{"componentType":5126,"type":"VEC3","byteOffset":0,"bufferView":1,"count":62881,"max":[0.800000011920929,0.7316530346870422,0.23441950976848602],"min":[-0.800000011920929,0.0,-0.23441950976848602]},{"componentType":5126,"type":"VEC2","byteOffset":0,"bufferView":3,"count":62881,"max":[0.999566376209259,0.99956214427948],"min":[0.0004336513520684093,0.00043785572052001953]}],"meshes":[{"name":"geometry_0.002","extras":{"units":"meters","from_gltf_primitive":false,"name":"geometry_0.002","node":"geometry_0.001"},"primitives":[{"attributes":{"POSITION":1,"TEXCOORD_0":2},"indices":0,"mode":4,"material":0}]}],"images":[{"bufferView":2,"mimeType":"image/png"}],"textures":[{"source":0}],"materials":[{"pbrMetallicRoughness":{"baseColorTexture":{"index":0}},"name":"Material_0.002","doubleSided":false}],"nodes":[{"name":"world","children":[1]},{"name":"geometry_0.002","mesh":0}],"buffers":[{"uri":"gltf_buffer_0.bin","byteLength":252792},{"uri":"gltf_buffer_1.bin","byteLength":754572},{"uri":"gltf_buffer_2.bin","byteLength":909512},{"uri":"gltf_buffer_3.bin","byteLength":503048}],"bufferViews":[{"buffer":0,"byteOffset":0,"byteLength":252792},{"buffer":1,"byteOffset":0,"byteLength":754572},{"buffer":2,"byteOffset":0,"byteLength":909512},{"buffer":3,"byteOffset":0,"byteLength":503048}]}