# https://github.com/mikedh/trimesh
v -0.31511030 -0.18862481 0.50023834
v -0.31552555 -0.18877967 0.48236414
v -0.31518430 0.22012265 0.48131189
v -0.38427323 0.21796582 0.53071440
v -0.38530566 -0.18875644 0.53082573
v -0.31517522 0.21878477 0.50063499
v -0.36548200 -0.18876177 0.53079875
v -0.38579062 -0.18886951 0.43826495
v -0.36656954 0.21773779 0.53067311
v -0.36579876 -0.18873184 0.43838652
v -0.38545896 0.22034502 0.43837540
v -0.36610459 0.21995731 0.43839121
f 1 2 3
f 6 1 3
f 7 2 1
f 7 1 6
f 7 4 5
f 8 7 5
f 8 2 7
f 9 6 3
f 9 3 4
f 9 7 6
f 9 4 7
f 10 3 2
f 10 2 8
f 11 8 5
f 11 5 4
f 11 4 3
f 12 10 8
f 12 8 11
f 12 11 3
f 12 3 10

