# https://github.com/mikedh/trimesh
v -0.68461398 -0.23331795 0.48461676
v -0.68461361 -0.23330857 0.43846120
v -0.68461162 -0.12711700 0.49944603
v -0.73076396 -0.12711570 0.49907715
v -0.73077132 -0.23331335 0.43846321
v -0.70011948 -0.12712520 0.48139011
v -0.68461243 -0.18865918 0.49966118
v -0.73077022 -0.23331054 0.48461499
v -0.68473635 -0.12712528 0.48154125
v -0.73070424 -0.12711222 0.48125127
v -0.73075302 -0.18865701 0.49918904
v -0.68474305 -0.20914851 0.43851814
v -0.73077215 -0.20845540 0.43858990
f 5 2 1
f 7 3 4
f 7 1 2
f 7 2 3
f 8 5 1
f 8 1 7
f 9 3 2
f 10 9 6
f 10 4 3
f 10 3 9
f 11 8 7
f 11 7 4
f 11 4 8
f 12 9 2
f 12 6 9
f 12 2 5
f 13 4 10
f 13 8 4
f 13 5 8
f 13 12 5
f 13 10 6
f 13 6 12

