# https://github.com/mikedh/trimesh
v -0.39230679 -0.23319440 0.43846315
v -0.39230671 -0.23314240 0.33077241
v -0.39000486 -0.20672942 0.43844521
v -0.73077215 -0.20845540 0.43858990
v -0.73077452 -0.23328531 0.30000405
v -0.38871430 -0.20695750 0.33066076
v -0.73077132 -0.23331335 0.43846321
v -0.68461578 -0.23323605 0.30000617
v -0.73084342 -0.20842197 0.29965872
v -0.68462274 -0.20961924 0.30002306
f 1 3 4
f 5 2 1
f 6 1 2
f 6 3 1
f 7 5 1
f 7 1 4
f 8 6 2
f 8 2 5
f 9 4 3
f 9 3 6
f 9 7 4
f 9 5 7
f 9 8 5
f 10 9 6
f 10 6 8
f 10 8 9

