# https://github.com/mikedh/trimesh
v 0.73076485 0.14980537 0.49917456
v 0.73076131 0.14979325 0.48176185
v 0.73087298 0.22245086 0.48465618
v 0.62308141 0.22166227 0.49932736
v 0.62307389 0.14977903 0.48193496
v 0.73085546 0.22194439 0.49950648
v 0.62307661 0.14980421 0.49964903
v 0.62308277 0.22214401 0.48463657
v 0.62301345 0.21171565 0.49998129
v 0.73070291 0.21211102 0.49964024
f 1 2 3
f 5 2 1
f 6 1 3
f 6 3 4
f 7 5 1
f 8 3 2
f 8 2 5
f 8 4 3
f 9 5 7
f 9 8 5
f 9 4 8
f 9 6 4
f 10 9 7
f 10 7 1
f 10 1 6
f 10 6 9

