# https://github.com/mikedh/trimesh
v -0.76433767 -0.12712495 0.37691457
v -0.76432178 -0.12713685 0.31538035
v -0.76431618 0.23287282 0.30000396
v -0.79762827 0.23323508 0.37688544
v -0.79779990 -0.12714850 0.37694706
v -0.76452484 0.23297442 0.37693126
v -0.76424507 0.10368146 0.29998471
v -0.79756137 0.23348643 0.29999021
v -0.79765560 -0.12715970 0.31540370
v -0.79730478 0.10367493 0.30006164
f 5 2 1
f 6 5 1
f 6 4 5
f 7 1 2
f 7 6 1
f 7 3 6
f 8 5 4
f 8 3 7
f 8 6 3
f 8 4 6
f 9 7 2
f 9 2 5
f 9 5 8
f 10 9 8
f 10 8 7
f 10 7 9

