# https://github.com/mikedh/trimesh
v 0.79857878 -0.23119948 0.30000337
v 0.79671532 -0.23287913 0.25062937
v 0.79704948 -0.12718596 0.25037158
v 0.73068724 -0.12708464 0.28621121
v 0.73077559 -0.23281611 0.30000043
v 0.74070554 -0.20092046 0.19176099
v 0.79843044 -0.12713024 0.30009283
v 0.76563824 -0.20189768 0.19244652
v 0.74460777 -0.12717295 0.23120443
v 0.73076777 -0.23268889 0.25380576
v 0.76938162 -0.12699016 0.23108486
v 0.76544328 -0.22228763 0.19245379
v 0.74058603 -0.22156321 0.19235330
f 1 2 3
f 5 2 1
f 7 1 3
f 7 5 1
f 7 4 5
f 8 3 2
f 9 6 4
f 10 5 4
f 10 4 6
f 10 2 5
f 11 7 3
f 11 4 7
f 11 9 4
f 11 3 8
f 11 8 6
f 11 6 9
f 12 8 2
f 12 6 8
f 12 2 10
f 13 12 10
f 13 10 6
f 13 6 12

