# https://github.com/mikedh/trimesh
v -0.31545406 -0.23087385 0.73074940
v -0.31538600 -0.23334616 0.68461770
v -0.31542033 -0.18866651 0.69508919
v -0.79847722 -0.18880637 0.73094404
v -0.79845828 -0.23217629 0.73103194
v -0.79855557 -0.18867965 0.66929421
v -0.31538465 -0.18865748 0.73066380
v -0.38962714 -0.20831811 0.66915786
v -0.79837008 -0.23236737 0.66936207
v -0.66925484 -0.18867395 0.73074381
v -0.76355014 -0.18879412 0.66952812
v -0.39230831 -0.23336268 0.66923463
f 5 2 1
f 6 5 4
f 7 5 1
f 7 4 5
f 7 3 6
f 7 1 2
f 7 2 3
f 8 3 2
f 9 5 6
f 9 6 8
f 10 7 6
f 10 6 4
f 10 4 7
f 11 8 6
f 11 6 3
f 11 3 8
f 12 2 5
f 12 5 9
f 12 9 8
f 12 8 2

