# https://github.com/mikedh/trimesh
v 0.79774448 -0.23196287 0.73153708
v 0.79857878 -0.23119948 0.30000337
v 0.79865943 -0.18872471 0.73123429
v 0.73081210 -0.18866390 0.73111215
v 0.73077559 -0.23281611 0.30000043
v 0.76586506 -0.18863456 0.30005590
v 0.73080384 -0.23054066 0.73113350
v 0.79850419 -0.18873910 0.30001977
v 0.73023911 -0.18842570 0.48214167
v 0.73099254 -0.20903154 0.29969980
f 1 2 3
f 1 3 4
f 5 2 1
f 7 5 1
f 7 1 4
f 8 3 2
f 9 4 3
f 9 8 6
f 9 3 8
f 9 7 4
f 9 5 7
f 10 8 2
f 10 2 5
f 10 6 8
f 10 9 6
f 10 5 9

