# https://github.com/mikedh/trimesh
v 0.79849329 -0.12712043 0.31541853
v 0.79704948 -0.12718596 0.25037158
v 0.79872155 0.16520591 0.30008621
v 0.73096780 0.16515135 0.28599314
v 0.73068724 -0.12708464 0.28621121
v 0.76949966 0.16513256 0.23116660
v 0.76629798 0.10366718 0.31540221
v 0.76609242 -0.12717475 0.31541012
v 0.79680060 0.16521955 0.24966269
v 0.74319859 0.16575732 0.23091620
v 0.79873994 0.10366928 0.31546749
v 0.74460777 -0.12717295 0.23120443
v 0.76938162 -0.12699016 0.23108486
f 1 2 3
f 7 3 4
f 7 4 5
f 8 2 1
f 8 7 5
f 9 3 2
f 10 5 4
f 10 9 6
f 10 4 3
f 10 3 9
f 11 1 3
f 11 3 7
f 11 8 1
f 11 7 8
f 12 8 5
f 12 2 8
f 12 5 10
f 13 9 2
f 13 6 9
f 13 2 12
f 13 12 10
f 13 10 6

