# https://github.com/mikedh/trimesh
v -0.39228962 -0.12711797 0.49982288
v -0.38513420 -0.12707449 0.46917834
v -0.39230753 0.18057237 0.49977257
v -0.68461461 0.18057527 0.49978216
v -0.73070424 -0.12711222 0.48125127
v -0.38585214 0.18054487 0.46905881
v -0.73076396 -0.12711570 0.49907715
v -0.68464594 0.18064185 0.48128309
v -0.73082092 0.10370789 0.48150329
v -0.73076679 0.10365093 0.49933587
f 1 2 3
f 1 3 4
f 5 2 1
f 6 3 2
f 6 2 5
f 7 5 1
f 7 1 4
f 8 4 3
f 8 3 6
f 9 8 6
f 9 6 5
f 9 5 7
f 9 4 8
f 10 9 7
f 10 7 4
f 10 4 9

