# https://github.com/mikedh/trimesh
v -0.36540618 -0.18874893 0.68464667
v -0.36548200 -0.18876177 0.53079875
v -0.36611183 0.21603952 0.66920558
v -0.38457673 0.21661539 0.66917671
v -0.38530566 -0.18875644 0.53082573
v -0.36656954 0.21773779 0.53067311
v -0.38487484 -0.00404463 0.68476903
v -0.38427323 0.21796582 0.53071440
v -0.36655827 -0.00407699 0.68472507
v -0.38486497 -0.18875353 0.68456427
f 1 2 3
f 6 3 2
f 6 4 3
f 6 2 5
f 7 3 4
f 7 4 5
f 8 6 5
f 8 5 4
f 8 4 6
f 9 7 1
f 9 1 3
f 9 3 7
f 10 7 5
f 10 1 7
f 10 5 2
f 10 2 1

