# https://github.com/mikedh/trimesh
v 0.00769234 -0.23271133 0.37692347
v 0.00764409 -0.21803997 0.23082088
v 0.00929936 -0.18863021 0.37692074
v -0.01029837 -0.18894530 0.37690319
v -0.06923385 -0.23276426 0.34615261
v -0.06921475 -0.19416422 0.23127034
v -0.06927197 -0.21014246 0.37700565
v 0.00770806 -0.19403781 0.23120492
v -0.06913761 -0.18939203 0.28430171
v -0.06910878 -0.21819186 0.23093635
v -0.06923437 -0.23277084 0.37692476
f 1 2 3
f 5 2 1
f 7 1 3
f 7 3 4
f 7 6 5
f 8 3 2
f 8 2 6
f 9 4 3
f 9 8 6
f 9 3 8
f 9 7 4
f 9 6 7
f 10 6 2
f 10 2 5
f 10 5 6
f 11 7 5
f 11 5 1
f 11 1 7

