# https://github.com/mikedh/trimesh
v 0.00929936 -0.18863021 0.37692074
v 0.00979109 -0.18860063 0.28641610
v 0.01033282 0.10364683 0.28599661
v -0.01033213 0.10371177 0.33068975
v -0.03845878 -0.08096142 0.28432744
v 0.00907237 -0.00404340 0.37692053
v -0.02308938 -0.18867405 0.28416894
v -0.03846036 0.07287889 0.28434536
v 0.00918766 0.10364770 0.33076950
v -0.01029837 -0.18894530 0.37690319
v -0.02308074 0.10364516 0.28417159
v -0.01021326 -0.00402969 0.37694427
f 1 2 3
f 6 1 3
f 7 3 2
f 9 6 3
f 9 3 4
f 10 5 7
f 10 7 2
f 10 2 1
f 10 8 5
f 11 8 4
f 11 4 3
f 11 3 7
f 11 7 5
f 11 5 8
f 12 9 4
f 12 6 9
f 12 4 8
f 12 8 10
f 12 10 1
f 12 1 6

