# https://github.com/mikedh/trimesh
v 0.39230801 -0.18865738 0.73050430
v 0.38675468 -0.18873107 0.66924395
v 0.39232294 0.23279525 0.72679662
v 0.33081433 0.23286934 0.72694958
v 0.33076976 -0.18865750 0.73041864
v 0.36642575 0.22802079 0.66931804
v 0.33079597 -0.18887463 0.69500823
v 0.38714599 0.22775884 0.66968096
v 0.33058174 0.23247083 0.69332619
v 0.36693456 -0.18869213 0.66914445
f 1 3 4
f 5 1 4
f 7 2 1
f 7 1 5
f 8 2 6
f 8 1 2
f 8 3 1
f 9 4 3
f 9 8 6
f 9 3 8
f 9 7 5
f 9 5 4
f 10 6 2
f 10 2 7
f 10 9 6
f 10 7 9

