# https://github.com/mikedh/trimesh
v -0.73077933 0.16518395 0.28373429
v -0.74280523 0.19392478 0.19230498
v -0.73086058 0.23228708 0.28211125
v -0.79756137 0.23348643 0.29999021
v -0.79656052 0.16521389 0.24956104
v -0.76962098 0.21917470 0.19262245
v -0.76353627 0.16521175 0.29998872
v -0.73081443 0.23254412 0.24939008
v -0.74399026 0.16556313 0.23057684
v -0.79669011 0.23270117 0.25068730
v -0.76978811 0.19504030 0.19250665
v -0.77019059 0.16513470 0.23055444
v -0.79748879 0.16522999 0.30003698
v -0.74299866 0.21845643 0.19235773
f 7 1 3
f 7 3 4
f 8 1 2
f 8 3 1
f 8 4 3
f 9 2 1
f 10 8 6
f 10 4 8
f 11 10 6
f 11 5 10
f 12 1 7
f 12 9 1
f 12 5 11
f 12 11 2
f 12 2 9
f 13 7 4
f 13 12 7
f 13 5 12
f 13 10 5
f 13 4 10
f 14 8 2
f 14 6 8
f 14 11 6
f 14 2 11

