# https://github.com/mikedh/trimesh
v 0.01036743 0.16518812 0.28603426
v 0.00771555 0.16530261 0.24983195
v 0.00802946 0.23129780 0.28230438
v -0.73086058 0.23228708 0.28211125
v -0.73077933 0.16518395 0.28373429
v 0.00764383 0.21944069 0.22620653
v 0.00774129 0.23112211 0.24641328
v -0.73155238 0.19274185 0.22986748
v 0.00762940 0.19537101 0.22927279
v -0.73081443 0.23254412 0.24939008
v -0.73098910 0.16527239 0.25067980
v -0.72996000 0.21821385 0.22919787
f 1 3 4
f 5 1 4
f 7 3 1
f 7 1 6
f 8 5 4
f 9 6 1
f 9 1 2
f 9 8 6
f 9 2 8
f 10 7 6
f 10 4 3
f 10 3 7
f 10 8 4
f 11 8 2
f 11 5 8
f 11 2 1
f 11 1 5
f 12 10 6
f 12 6 8
f 12 8 10

