# https://github.com/mikedh/trimesh
v -0.73077049 -0.23341510 0.66923245
v -0.73077022 -0.23331054 0.48461499
v -0.73044545 -0.18864929 0.49919520
v -0.79855557 -0.18867965 0.66929421
v -0.79786240 -0.23264190 0.48459266
v -0.73074429 -0.20939278 0.66933645
v -0.79837008 -0.23236737 0.66936207
v -0.73081687 -0.18871373 0.48123962
v -0.76355558 -0.18867327 0.66926526
v -0.79812729 -0.18872055 0.48460957
f 1 2 3
f 5 2 1
f 6 1 3
f 7 5 1
f 7 6 4
f 7 1 6
f 8 3 2
f 8 2 5
f 9 6 3
f 9 3 4
f 9 4 6
f 10 7 4
f 10 5 7
f 10 8 5
f 10 4 3
f 10 3 8

