# https://github.com/mikedh/trimesh
v 0.73077678 -0.23274065 0.57692413
v 0.73077409 -0.23270496 0.48461500
v 0.73086955 -0.18870126 0.48217250
v 0.42323707 -0.18889917 0.49968074
v 0.42307683 -0.23297726 0.57692525
v 0.42302592 -0.18863140 0.48196889
v 0.73070980 -0.20892153 0.57688428
v 0.73063479 -0.18883545 0.49909463
v 0.42311045 -0.20913373 0.57694616
v 0.42307701 -0.23288433 0.48461710
f 1 2 3
f 5 2 1
f 6 3 2
f 7 1 3
f 8 6 4
f 8 3 6
f 8 7 3
f 8 4 7
f 9 6 5
f 9 4 6
f 9 7 4
f 9 5 1
f 9 1 7
f 10 6 2
f 10 2 5
f 10 5 6

