# https://github.com/mikedh/trimesh
v 0.48461568 -0.18865744 0.73068356
v 0.48459956 -0.18900130 0.69528639
v 0.48461550 -0.00397124 0.69516547
v 0.42307748 -0.00404306 0.73045922
v 0.38710258 -0.18874155 0.68480610
v 0.48461580 -0.00404248 0.73059794
v 0.39230801 -0.18865738 0.73050430
v 0.38706652 -0.08097791 0.68491473
v 0.48457943 -0.00400213 0.73059775
v 0.39230805 -0.08096518 0.73054067
v 0.42298269 -0.00393767 0.69510772
f 1 2 3
f 5 3 2
f 6 1 3
f 7 5 2
f 7 2 1
f 8 3 5
f 8 5 7
f 9 6 3
f 9 4 6
f 10 6 4
f 10 8 7
f 10 4 8
f 10 7 1
f 10 1 6
f 11 8 4
f 11 3 8
f 11 9 3
f 11 4 9

