# https://github.com/mikedh/trimesh
v -0.39230844 -0.23323565 0.48461620
v -0.39230679 -0.23319440 0.43846315
v -0.38494541 -0.18875898 0.46905692
v -0.48462770 -0.18864671 0.48143226
v -0.48461621 -0.23320545 0.43846110
v -0.39257751 -0.18871023 0.48226940
v -0.48461634 -0.23324643 0.48461849
v -0.39000486 -0.20672942 0.43844521
v -0.40801118 -0.18820234 0.48217936
v -0.48464475 -0.20963067 0.43845948
f 1 2 3
f 5 2 1
f 6 1 3
f 7 5 1
f 7 1 6
f 8 3 2
f 8 2 5
f 9 6 3
f 9 3 4
f 9 7 6
f 9 4 7
f 10 7 4
f 10 5 7
f 10 8 5
f 10 4 3
f 10 3 8

