# https://github.com/mikedh/trimesh
v 0.48461520 0.14980421 0.49986687
v 0.62309206 0.18068808 0.48164723
v 0.62307665 0.18057423 0.49967361
v 0.38731718 0.22669040 0.51542763
v 0.38806299 0.22669800 0.46926785
v 0.62309072 0.22184531 0.48108526
v 0.38649983 0.19596564 0.51551918
v 0.38704197 0.16523119 0.46923890
v 0.62308141 0.22166227 0.49932736
v 0.62306398 0.19599894 0.49971475
v 0.48461580 0.14992623 0.48208324
v 0.42307734 0.14980436 0.49988782
v 0.39230381 0.16518911 0.49985333
v 0.42306429 0.14992070 0.48204966
f 1 2 3
f 6 5 4
f 7 1 3
f 7 4 5
f 8 7 5
f 8 6 2
f 8 5 6
f 9 6 4
f 9 3 2
f 9 2 6
f 10 7 3
f 10 4 7
f 10 9 4
f 10 3 9
f 11 8 2
f 11 2 1
f 12 1 7
f 13 12 7
f 13 7 8
f 13 8 12
f 14 12 8
f 14 8 11
f 14 11 1
f 14 1 12

