# https://github.com/mikedh/trimesh
v -0.06923385 -0.23276426 0.34615261
v -0.06910878 -0.21819186 0.23093635
v -0.06913761 -0.18939203 0.28430171
v -0.31551617 -0.18962303 0.28363928
v -0.31540406 -0.23183183 0.24757968
v -0.31538803 -0.19380909 0.23132710
v -0.31533525 -0.20989292 0.34613002
v -0.06921475 -0.19416422 0.23127034
v -0.31538017 -0.21641698 0.23065385
v -0.06930121 -0.21046662 0.34620401
v -0.31539053 -0.23310042 0.34615497
v -0.29974096 -0.21756955 0.23127902
f 1 2 3
f 5 2 1
f 6 4 3
f 7 3 4
f 8 6 3
f 8 3 2
f 9 5 4
f 9 4 6
f 9 8 2
f 9 6 8
f 10 1 3
f 10 3 7
f 11 5 1
f 11 10 7
f 11 1 10
f 11 7 4
f 11 4 5
f 12 9 2
f 12 2 5
f 12 5 9

