# https://github.com/mikedh/trimesh
v 0.48462245 -0.23315446 0.72981961
v 0.48461258 -0.23290261 0.66923058
v 0.48461568 -0.18865744 0.73068356
v -0.17692304 -0.18865761 0.73066179
v -0.17692471 -0.23321500 0.66923099
v 0.36693456 -0.18869213 0.66914445
v -0.17692295 -0.23343436 0.72996540
v 0.48459956 -0.18900130 0.69528639
v -0.17691570 -0.18860248 0.69525123
v 0.48460602 -0.20857898 0.66923560
v -0.01138975 -0.18888358 0.66912702
v 0.38675468 -0.18873107 0.66924395
v -0.17685389 -0.21090785 0.66930128
f 1 2 3
f 5 2 1
f 7 1 3
f 7 3 4
f 7 5 1
f 7 4 5
f 9 4 3
f 9 3 6
f 9 5 4
f 10 2 6
f 10 8 3
f 10 3 2
f 11 9 6
f 11 6 2
f 11 2 5
f 12 10 6
f 12 8 10
f 12 6 3
f 12 3 8
f 13 11 5
f 13 5 9
f 13 9 11

