# https://github.com/mikedh/trimesh
v 0.79865943 -0.18872471 0.73123429
v 0.79889691 -0.18868839 0.66928958
v 0.79812732 0.23380158 0.66921664
v 0.73091287 0.23268362 0.73006805
v 0.73093244 -0.18929525 0.69544028
v 0.79769701 0.23320280 0.73078209
v 0.73081210 -0.18866390 0.73111215
v 0.76647213 -0.18869382 0.66933643
v 0.73078557 0.23322947 0.69554375
v 0.76752509 0.23317887 0.66911203
f 1 2 3
f 5 2 1
f 6 1 3
f 7 5 1
f 7 6 4
f 7 1 6
f 8 2 5
f 9 8 5
f 9 6 3
f 9 4 6
f 9 7 4
f 9 5 7
f 10 3 2
f 10 2 8
f 10 9 3
f 10 8 9

