# https://github.com/mikedh/trimesh
v 0.33072581 -0.12722181 0.28438899
v 0.22307768 0.19603349 0.28467443
v 0.08460884 -0.09618079 0.28448726
v 0.08452383 0.16524940 0.28438994
v 0.33065042 0.19604076 0.28473019
v 0.08471220 0.13437210 0.28450273
v 0.08467082 -0.12722558 0.28420574
v 0.33087747 -0.11154790 0.28452965
v 0.10009051 0.16512414 0.28448395
v 0.08461387 -0.12711605 0.28420673
v 0.33088627 0.19587643 0.28473287
f 5 1 4
f 5 4 2
f 6 3 2
f 6 4 3
f 7 4 1
f 8 3 1
f 9 6 2
f 9 2 4
f 9 4 6
f 10 3 4
f 10 4 7
f 10 7 1
f 10 1 3
f 11 8 1
f 11 1 5
f 11 3 8
f 11 5 2
f 11 2 3

