# https://github.com/mikedh/trimesh
v -0.02307943 -0.23303447 0.66923185
v -0.02307685 -0.23295103 0.53077067
v -0.02276877 -0.20953249 0.53064038
v -0.31553088 -0.20939374 0.68494960
v -0.31538600 -0.23334616 0.68461770
v -0.02274281 -0.21070165 0.66915630
v -0.17687359 -0.20986840 0.68555792
v -0.31532661 -0.20943190 0.53059572
v -0.17692471 -0.23321701 0.68461560
v -0.31538590 -0.23324338 0.53077127
f 6 1 2
f 6 2 3
f 7 4 5
f 7 1 6
f 7 6 3
f 7 3 4
f 8 3 2
f 8 4 3
f 9 7 5
f 9 1 7
f 9 2 1
f 10 8 2
f 10 5 4
f 10 4 8
f 10 9 5
f 10 2 9

