# https://github.com/mikedh/trimesh
v 0.38666340 -0.18877833 0.36158208
v 0.39331131 -0.18847364 0.28505707
v 0.38756744 0.22807153 0.36153962
v 0.36496505 0.22805234 0.36144506
v 0.33071646 -0.18805272 0.28461307
v 0.36646590 -0.18867864 0.36156049
v 0.39228085 0.23299002 0.26915123
v 0.33082186 -0.18926042 0.28466091
v 0.33075138 0.23316370 0.26915534
v 0.33081825 0.22652945 0.28455619
v 0.33064735 0.23281635 0.28170045
f 1 2 3
f 6 1 3
f 6 3 4
f 6 4 5
f 7 3 2
f 7 2 5
f 8 6 5
f 8 5 2
f 8 2 1
f 8 1 6
f 9 7 5
f 10 5 4
f 11 4 3
f 11 3 7
f 11 7 9
f 11 10 4
f 11 9 5
f 11 5 10

