# https://github.com/mikedh/trimesh
v -0.39230753 0.18057237 0.49977257
v -0.38585214 0.18054487 0.46905881
v -0.38467490 0.21977889 0.46857020
v -0.68473257 0.21959880 0.50027983
v -0.68464594 0.18064185 0.48128309
v -0.38399195 0.21831998 0.51534309
v -0.68461461 0.18057527 0.49978216
v -0.68475492 0.22077924 0.48111955
v -0.38550152 0.19597221 0.51539106
v -0.48461654 0.18060124 0.49991646
f 5 3 2
f 6 2 3
f 7 5 2
f 7 2 1
f 7 4 5
f 8 5 4
f 8 3 5
f 8 6 3
f 8 4 6
f 9 1 2
f 9 2 6
f 9 6 4
f 9 4 7
f 10 9 7
f 10 7 1
f 10 1 9

