# https://github.com/mikedh/trimesh
v -0.02307736 -0.23279715 0.43846527
v -0.02307792 -0.23272069 0.37692554
v -0.02277386 -0.20929685 0.43848345
v -0.31539427 -0.20962951 0.43851945
v -0.31539053 -0.23310042 0.34615497
v -0.02275201 -0.21000451 0.37702859
v -0.31539049 -0.23312503 0.43846362
v -0.06930121 -0.21046662 0.34620401
v -0.31533525 -0.20989292 0.34613002
v -0.06923385 -0.23276426 0.34615261
f 1 3 4
f 6 1 2
f 6 3 1
f 7 5 1
f 7 1 4
f 7 4 5
f 9 4 3
f 9 3 6
f 9 6 8
f 9 5 4
f 10 8 6
f 10 6 2
f 10 9 8
f 10 5 9
f 10 2 1
f 10 1 5

