# https://github.com/mikedh/trimesh
v 0.79854440 -0.18870800 0.54615702
v 0.79862786 -0.18869069 0.43846123
v 0.79816436 0.23392476 0.54607477
v 0.76806612 0.23371578 0.54616492
v 0.73023911 -0.18842570 0.48214167
v 0.76749482 0.23348293 0.43846050
v 0.73076175 -0.18866735 0.49909175
v 0.79807547 0.23384899 0.43846573
v 0.73079431 0.22194410 0.49950623
v 0.76543947 -0.18868698 0.43846393
v 0.76628717 -0.18872271 0.54615907
v 0.73078291 0.22190495 0.48098454
f 1 2 3
f 1 3 4
f 8 3 2
f 8 2 6
f 8 6 4
f 8 4 3
f 9 4 6
f 9 5 7
f 10 6 2
f 10 7 5
f 11 1 4
f 11 9 7
f 11 4 9
f 11 7 10
f 11 10 2
f 11 2 1
f 12 9 6
f 12 5 9
f 12 10 5
f 12 6 10

