# https://github.com/mikedh/trimesh
v -0.76384971 0.10364335 0.57692182
v -0.73082092 0.10370789 0.48150329
v -0.73078609 0.22073059 0.49958583
v -0.79786126 0.23335946 0.57693006
v -0.79752131 0.10366234 0.37694373
v -0.76431849 0.23288679 0.57691177
v -0.73076679 0.10365093 0.49933587
v -0.79773071 0.10365771 0.57695694
v -0.76452484 0.23297442 0.37693126
v -0.73067816 0.19610730 0.49976991
v -0.76457073 0.10368073 0.37691347
v -0.73090306 0.22114769 0.48076229
v -0.79762827 0.23323508 0.37688544
f 7 1 5
f 8 5 1
f 8 4 5
f 8 6 4
f 8 1 6
f 9 4 6
f 10 6 1
f 10 3 6
f 10 1 7
f 10 7 2
f 11 7 5
f 11 2 7
f 12 11 9
f 12 2 11
f 12 10 2
f 12 3 10
f 12 9 6
f 12 6 3
f 13 5 4
f 13 4 9
f 13 11 5
f 13 9 11

