# https://github.com/mikedh/trimesh
v 0.33042581 -0.18881489 0.50001775
v 0.33043890 -0.18838054 0.48212846
v 0.28453969 0.10366582 0.50032287
v 0.13074824 0.10363956 0.50059713
v 0.13077499 -0.18843672 0.48268925
v 0.28469498 0.10371112 0.48269676
v 0.13074414 -0.18857025 0.50095111
v 0.13072402 0.10372719 0.48302011
v 0.33064522 -0.08104206 0.48270898
v 0.33054529 -0.08101332 0.49971987
f 5 2 1
f 7 1 3
f 7 3 4
f 7 5 1
f 8 4 3
f 8 3 6
f 8 7 4
f 8 5 7
f 8 6 2
f 8 2 5
f 9 1 2
f 9 2 6
f 10 9 6
f 10 6 3
f 10 3 1
f 10 1 9

