# https://github.com/mikedh/trimesh
v -0.39230671 -0.23314240 0.33077241
v -0.39227264 -0.21623582 0.23069065
v -0.38541518 -0.18877452 0.29999281
v -0.73087617 -0.18944059 0.28401518
v -0.73071828 -0.23176419 0.24772539
v -0.48462197 -0.19048372 0.23160965
v -0.59226222 -0.20998122 0.33066200
v -0.39232672 -0.23179636 0.24740409
v -0.39231482 -0.19368030 0.23136068
v -0.73057048 -0.19488726 0.23129426
v -0.38871430 -0.20695750 0.33066076
v -0.68461577 -0.23329628 0.31539055
v -0.72903097 -0.21551734 0.23160282
v -0.40766444 -0.21018632 0.33071320
v -0.59230939 -0.23327382 0.33077350
v -0.73077452 -0.23328531 0.30000405
v -0.68464425 -0.20966514 0.31536656
f 6 4 3
f 7 3 4
f 8 2 3
f 8 3 1
f 8 5 2
f 9 6 3
f 9 3 2
f 10 5 4
f 10 4 6
f 10 9 2
f 10 6 9
f 11 1 3
f 11 3 7
f 13 10 2
f 13 2 5
f 13 5 10
f 14 11 7
f 14 1 11
f 15 12 1
f 15 14 7
f 15 1 14
f 16 8 1
f 16 1 12
f 16 5 8
f 16 4 5
f 17 7 4
f 17 16 12
f 17 4 16
f 17 15 7
f 17 12 15

