# https://github.com/mikedh/trimesh
v 0.76818976 0.19573785 0.19241091
v 0.76616049 0.20428482 0.00127085
v 0.76952821 0.22015353 0.19253722
v 0.74318554 0.22120717 0.19244111
v 0.74377474 0.18066757 0.10484924
v 0.76376724 0.22001585 0.00125833
v 0.74341559 0.19492245 0.19242464
v 0.76648152 0.18040647 0.10430819
v 0.74363524 0.21985288 0.00121269
v 0.74291593 0.20244135 0.00102052
f 6 3 2
f 6 4 3
f 7 1 3
f 7 3 4
f 8 2 3
f 8 3 1
f 8 7 5
f 8 1 7
f 9 4 6
f 10 8 5
f 10 2 8
f 10 5 7
f 10 7 4
f 10 4 9
f 10 9 6
f 10 6 2

