# https://github.com/mikedh/trimesh
v -0.73077022 -0.23331054 0.48461499
v -0.74171322 -0.22249416 0.19235285
v -0.73078743 -0.12712084 0.48125172
v -0.79790608 -0.12713243 0.48462035
v -0.79786240 -0.23264190 0.48459266
v -0.76927126 -0.12700068 0.23071545
v -0.74144513 -0.20189618 0.19220357
v -0.79703492 -0.23305303 0.25072429
v -0.74463204 -0.12710549 0.23111227
v -0.79792846 -0.23234861 0.37689936
v -0.79671725 -0.12711973 0.24971946
v -0.76559135 -0.20034964 0.19240880
v -0.76762568 -0.22224310 0.19247310
f 1 3 4
f 5 1 4
f 6 4 3
f 7 1 2
f 7 3 1
f 8 2 1
f 8 1 5
f 9 6 3
f 9 3 7
f 10 8 5
f 10 5 4
f 11 4 6
f 11 10 4
f 11 8 10
f 12 9 7
f 12 6 9
f 12 11 6
f 13 12 7
f 13 7 2
f 13 2 8
f 13 8 11
f 13 11 12

