# https://github.com/mikedh/trimesh
v -0.76379251 -0.18868760 0.57690183
v -0.73081687 -0.18871373 0.48123962
v -0.73076679 0.10365093 0.49933587
v -0.79773071 0.10365771 0.57695694
v -0.79812729 -0.18872055 0.48460957
v -0.76384971 0.10364335 0.57692182
v -0.73075302 -0.18865701 0.49918904
v -0.79825568 -0.18869247 0.57693808
v -0.79760465 0.10366346 0.48460039
v -0.73075614 0.10363567 0.48150390
f 6 1 3
f 6 3 4
f 7 1 2
f 7 3 1
f 8 6 4
f 8 1 6
f 8 5 2
f 8 2 1
f 9 2 5
f 9 4 3
f 9 8 4
f 9 5 8
f 10 7 2
f 10 3 7
f 10 9 3
f 10 2 9

