# https://github.com/mikedh/trimesh
v -0.31538487 -0.00404239 0.73048354
v -0.31541248 -0.00402869 0.69518630
v -0.31537880 0.23356150 0.69348677
v -0.39230390 0.23376615 0.72725428
v -0.39230794 -0.00404231 0.73057602
v -0.38478139 -0.00404473 0.66921031
v -0.31543462 0.23361580 0.72750127
v -0.36660465 -0.00404982 0.66923592
v -0.38457673 0.21661539 0.66917671
v -0.39225754 0.23352323 0.69532368
v -0.36611183 0.21603952 0.66920558
f 1 2 3
f 7 1 3
f 7 3 4
f 7 5 1
f 7 4 5
f 8 3 2
f 8 2 1
f 8 1 5
f 8 5 6
f 9 8 6
f 10 6 5
f 10 5 4
f 10 9 6
f 10 4 3
f 10 3 9
f 11 9 3
f 11 3 8
f 11 8 9

