# https://github.com/mikedh/trimesh
v 0.73077611 -0.23282001 0.31538529
v 0.73158716 -0.21660897 0.23122648
v 0.73062609 -0.18872785 0.28612565
v 0.42310954 -0.18910676 0.28514243
v 0.42284402 -0.21798628 0.23109919
v 0.42053900 -0.19192567 0.23149230
v 0.42305958 -0.20893750 0.33074635
v 0.73079855 -0.20960639 0.31529049
v 0.73081061 -0.22933704 0.24773483
v 0.73052072 -0.19519430 0.23107719
v 0.42307747 -0.23288934 0.33077360
v 0.62306019 -0.20964615 0.33073267
v 0.68412393 -0.21843328 0.23130710
v 0.62307587 -0.23278910 0.33077324
f 6 4 3
f 7 3 4
f 7 4 6
f 8 1 2
f 8 2 3
f 9 2 1
f 10 6 3
f 10 3 2
f 10 2 5
f 10 5 6
f 11 9 1
f 11 5 9
f 11 7 6
f 11 6 5
f 12 1 8
f 12 8 3
f 12 3 7
f 13 9 5
f 13 5 2
f 13 2 9
f 14 11 1
f 14 1 12
f 14 12 7
f 14 7 11

