# https://github.com/mikedh/trimesh
v -0.73079474 -0.18868078 0.73084592
v -0.73082097 -0.18893727 0.69589452
v -0.73079318 0.23369422 0.72781179
v -0.79806286 0.23292804 0.73085994
v -0.79847722 -0.18880637 0.73094404
v -0.79804741 0.23333372 0.66932956
v -0.74621846 0.23283960 0.73036894
v -0.73080461 0.23322650 0.69668300
v -0.79855557 -0.18867965 0.66929421
v -0.73078489 -0.11175140 0.73075150
v -0.76436044 0.23278491 0.66921848
v -0.76355558 -0.18867327 0.66926526
f 5 2 1
f 5 1 4
f 6 4 3
f 7 3 4
f 8 6 3
f 9 5 4
f 9 4 6
f 9 2 5
f 10 3 7
f 10 8 3
f 10 1 2
f 10 2 8
f 10 7 4
f 10 4 1
f 11 8 2
f 11 6 8
f 11 9 6
f 12 11 2
f 12 2 9
f 12 9 11

