# https://github.com/mikedh/trimesh
v 0.76710210 -0.18861245 0.12573316
v 0.76683233 -0.18787279 0.10567439
v 0.76717322 0.18058951 0.12650508
v 0.74308698 0.18091302 0.12725124
v 0.71517058 -0.00942057 0.12686693
v 0.74377474 0.18066757 0.10484924
v 0.74184474 -0.18909556 0.12648364
v 0.76648152 0.18040647 0.10430819
v 0.71571746 0.01214091 0.10698855
v 0.74272305 -0.18898613 0.10516715
v 0.71569810 0.01382399 0.12645583
v 0.71546231 -0.00814441 0.10708877
f 1 2 3
f 1 3 4
f 7 1 4
f 7 4 5
f 8 3 2
f 8 6 4
f 8 4 3
f 9 4 6
f 10 2 1
f 10 1 7
f 10 9 6
f 10 8 2
f 10 6 8
f 11 9 5
f 11 5 4
f 11 4 9
f 12 10 7
f 12 7 5
f 12 5 9
f 12 9 10

