# https://github.com/mikedh/trimesh
v -0.48461634 -0.23324643 0.48461849
v -0.48461621 -0.23320545 0.43846110
v -0.48461355 -0.12711743 0.49974668
v -0.59230848 -0.12711696 0.49956596
v -0.59230830 -0.23330338 0.43846210
v -0.48459222 -0.12715871 0.48173498
v -0.48461364 -0.18865931 0.49977847
v -0.59230752 -0.23333215 0.48461724
v -0.59231599 -0.12711443 0.48175493
v -0.59231086 -0.18865976 0.49945525
v -0.48464475 -0.20963067 0.43845948
v -0.59222980 -0.20961489 0.43859246
f 5 2 1
f 6 1 2
f 7 3 4
f 7 6 3
f 7 1 6
f 8 5 1
f 8 1 7
f 9 4 3
f 9 3 6
f 10 8 7
f 10 7 4
f 10 4 9
f 10 9 5
f 10 5 8
f 11 9 6
f 11 6 2
f 11 2 5
f 12 11 5
f 12 5 9
f 12 9 11

