# https://github.com/mikedh/trimesh
v 0.62307692 -0.12711469 0.49927760
v 0.62309704 -0.12717468 0.48233244
v 0.62309206 0.18068808 0.48164723
v 0.48461518 0.18057345 0.49991513
v 0.42308000 -0.12711955 0.49950748
v 0.62307665 0.18057423 0.49967361
v 0.42316151 -0.12718348 0.48215397
v 0.42306429 0.14992070 0.48204966
v 0.42307734 0.14980436 0.49988782
v 0.48461547 0.18070947 0.48176040
f 5 1 4
f 6 4 1
f 6 1 2
f 6 2 3
f 7 3 2
f 7 2 1
f 7 1 5
f 8 7 5
f 9 8 5
f 9 5 4
f 10 3 7
f 10 7 8
f 10 6 3
f 10 4 6
f 10 9 4
f 10 8 9

