# https://github.com/mikedh/trimesh
v 0.79872155 0.16520591 0.30008621
v 0.79680060 0.16521955 0.24966269
v 0.79822613 0.23394911 0.30001097
v 0.73088321 0.23278397 0.28431431
v 0.73096780 0.16515135 0.28599314
v 0.76952821 0.22015353 0.19253722
v 0.79714197 0.23313457 0.25045228
v 0.76949966 0.16513256 0.23116660
v 0.74341559 0.19492245 0.19242464
v 0.73074737 0.23229645 0.24798323
v 0.73065390 0.16512283 0.24995302
v 0.76818976 0.19573785 0.19241091
v 0.74318554 0.22120717 0.19244111
v 0.74319859 0.16575732 0.23091620
v 0.76929683 0.19731043 0.19240029
f 5 1 3
f 5 3 4
f 7 1 2
f 7 3 1
f 7 2 6
f 8 2 1
f 8 1 5
f 10 4 3
f 10 3 7
f 11 8 5
f 11 5 4
f 11 4 10
f 12 2 8
f 12 8 9
f 13 10 7
f 13 7 6
f 13 11 10
f 13 9 11
f 14 11 9
f 14 9 8
f 14 8 11
f 15 6 2
f 15 2 12
f 15 13 6
f 15 12 9
f 15 9 13

