# https://github.com/mikedh/trimesh
v 0.08461412 -0.23291348 0.59230856
v 0.08461957 -0.23240992 0.26926122
v 0.08472537 -0.18794927 0.28445671
v 0.00977995 -0.18862200 0.59230475
v 0.00769112 -0.23295238 0.59231006
v 0.00768338 -0.23229775 0.26927699
v 0.08449127 -0.18878303 0.50108423
v 0.01344181 -0.18747857 0.28470002
v 0.08464135 -0.21061032 0.59230281
v 0.08454806 -0.18846705 0.48259215
f 1 2 3
f 5 2 1
f 5 1 4
f 6 3 2
f 6 5 4
f 6 2 5
f 8 6 4
f 8 3 6
f 9 1 3
f 9 7 4
f 9 4 1
f 10 4 7
f 10 8 4
f 10 3 8
f 10 9 3
f 10 7 9

