# https://github.com/mikedh/trimesh
v -0.68461344 0.10365064 0.49963669
v -0.68466436 0.10370708 0.48169239
v -0.68475492 0.22077924 0.48111955
v -0.73078609 0.22073059 0.49958583
v -0.73082092 0.10370789 0.48150329
v -0.68473257 0.21959880 0.50027983
v -0.68457442 0.19607928 0.49990975
v -0.73075614 0.10363567 0.48150390
v -0.73076679 0.10365093 0.49933587
v -0.73090306 0.22114769 0.48076229
v -0.73067816 0.19610730 0.49976991
f 6 3 4
f 7 1 2
f 7 2 3
f 7 6 1
f 7 3 6
f 8 2 1
f 9 1 6
f 9 8 1
f 9 5 8
f 10 4 3
f 10 8 5
f 10 3 2
f 10 2 8
f 10 9 4
f 10 5 9
f 11 9 6
f 11 6 4
f 11 4 9

