# https://github.com/mikedh/trimesh
v 0.73096780 0.16515135 0.28599314
v 0.74202488 0.16523891 0.23730596
v 0.73088321 0.23278397 0.28431431
v 0.59223746 0.23225397 0.28365955
v 0.59232569 0.16525074 0.25044690
v 0.59231295 0.21914458 0.22730674
v 0.59227982 0.16512820 0.28550710
v 0.72924197 0.22020280 0.22963109
v 0.59237595 0.19448146 0.23058916
v 0.59213323 0.23197252 0.24764241
v 0.74266485 0.18108565 0.23066805
v 0.73074737 0.23229645 0.24798323
f 1 2 3
f 7 1 3
f 7 3 4
f 7 5 2
f 7 2 1
f 9 2 5
f 9 5 6
f 10 6 5
f 10 5 7
f 10 7 4
f 10 4 3
f 11 3 2
f 11 2 9
f 11 9 6
f 11 6 8
f 12 8 6
f 12 6 10
f 12 10 3
f 12 11 8
f 12 3 11

