# https://github.com/mikedh/trimesh
v 0.42307604 -0.23294268 0.66923175
v 0.42307902 -0.23255536 0.26925113
v 0.42304206 -0.18817705 0.28511416
v 0.36693456 -0.18869213 0.66914445
v 0.33077883 -0.23258195 0.26924982
v 0.42323707 -0.18889917 0.49968074
v 0.33077129 -0.23293363 0.66923172
v 0.33071646 -0.18805272 0.28461307
v 0.38675468 -0.18873107 0.66924395
v 0.33042581 -0.18881489 0.50001775
v 0.42307454 -0.20890083 0.66935298
v 0.33090662 -0.20882254 0.66931561
f 5 2 1
f 6 1 2
f 6 2 3
f 7 5 1
f 8 3 2
f 8 2 5
f 8 4 3
f 9 6 3
f 9 3 4
f 10 4 8
f 10 8 5
f 10 5 7
f 11 1 6
f 11 6 9
f 11 7 1
f 12 9 4
f 12 11 9
f 12 7 11
f 12 10 7
f 12 4 10

