# https://github.com/mikedh/trimesh
v -0.74209795 -0.18919899 0.12461456
v -0.74363671 -0.18868465 0.10404410
v -0.71575685 -0.00407817 0.10715896
v -0.76962511 0.18049230 0.12364846
v -0.76696344 -0.18852025 0.12424263
v -0.76920524 0.18078174 0.10270870
v -0.71529897 -0.00400402 0.12832712
v -0.71589942 -0.01097856 0.10712884
v -0.76742527 -0.18863208 0.10231992
v -0.74378059 0.18107932 0.10431270
v -0.74329148 0.18146610 0.12612011
v -0.71566717 -0.01177224 0.12707004
f 7 5 1
f 8 1 2
f 8 3 7
f 9 2 1
f 9 1 5
f 9 5 4
f 9 4 6
f 10 9 6
f 10 2 9
f 10 8 2
f 10 3 8
f 11 4 5
f 11 5 7
f 11 7 3
f 11 3 10
f 11 10 6
f 11 6 4
f 12 8 7
f 12 7 1
f 12 1 8

