# https://github.com/mikedh/trimesh
v 0.08449127 -0.18878303 0.50108423
v 0.08454806 -0.18846705 0.48259215
v 0.08468161 0.22070711 0.48132068
v 0.00742987 0.21804109 0.51514560
v 0.00944048 -0.18893231 0.42311863
v 0.08467504 0.21964661 0.50063279
v 0.01003260 -0.18862593 0.51540298
v 0.00700160 0.21970920 0.42314863
v 0.00900845 0.21951187 0.42316610
v 0.00943409 -0.18862231 0.42307160
f 5 2 1
f 6 3 4
f 6 1 2
f 6 2 3
f 7 5 1
f 7 6 4
f 7 1 6
f 8 4 3
f 9 8 3
f 10 8 9
f 10 4 8
f 10 7 4
f 10 5 7
f 10 9 3
f 10 3 2
f 10 2 5

