# https://github.com/mikedh/trimesh
v 0.33077242 -0.23285497 0.51538635
v 0.33077446 -0.23286707 0.42307585
v 0.33043890 -0.18838054 0.48212846
v 0.08449127 -0.18878303 0.50108423
v 0.08461283 -0.23291871 0.51538605
v 0.08460934 -0.20993510 0.42307916
v 0.33076942 -0.18865733 0.50000846
v 0.33095008 -0.20889750 0.42309558
v 0.08454806 -0.18846705 0.48259215
v 0.08461592 -0.23275911 0.42307807
f 5 2 1
f 5 1 4
f 7 4 1
f 8 2 6
f 8 3 7
f 8 7 1
f 8 1 2
f 9 6 4
f 9 8 6
f 9 3 8
f 9 7 3
f 9 4 7
f 10 5 4
f 10 4 6
f 10 6 2
f 10 2 5

