# https://github.com/mikedh/trimesh
v -0.73077618 -0.12711148 0.28350935
v -0.74463204 -0.12710549 0.23111227
v -0.74399026 0.16556313 0.23057684
v -0.79748879 0.16522999 0.30003698
v -0.79765560 -0.12715970 0.31540370
v -0.79656052 0.16521389 0.24956104
v -0.73077933 0.16518395 0.28373429
v -0.77019059 0.16513470 0.23055444
v -0.79671725 -0.12711973 0.24971946
v -0.76353627 0.16521175 0.29998872
v -0.76927126 -0.12700068 0.23071545
v -0.79738127 0.10366905 0.31543188
v -0.76432178 -0.12713685 0.31538035
v -0.76433837 0.10368511 0.31536569
f 1 2 3
f 5 2 1
f 6 4 3
f 7 1 3
f 8 6 3
f 9 5 4
f 9 4 6
f 9 2 5
f 9 6 8
f 10 7 3
f 10 3 4
f 11 8 3
f 11 3 2
f 11 9 8
f 11 2 9
f 12 10 4
f 12 4 5
f 13 5 1
f 13 1 7
f 13 12 5
f 14 13 7
f 14 7 10
f 14 10 12
f 14 12 13

