# https://github.com/mikedh/trimesh
v -0.17692295 -0.23343436 0.72996540
v -0.06916169 -0.18871203 0.69474011
v -0.06923266 -0.12711961 0.73027158
v -0.26923097 -0.12711921 0.73056509
v -0.26923248 -0.23330234 0.68461872
v -0.06920384 -0.12714491 0.69472370
v -0.06923149 -0.18865825 0.73034995
v -0.17692471 -0.23321701 0.68461560
v -0.26923062 -0.23345279 0.72991915
v -0.11536320 -0.12711249 0.69505997
v -0.26922788 -0.12712154 0.69530620
f 6 3 2
f 7 3 4
f 7 1 2
f 7 2 3
f 8 2 1
f 8 1 5
f 8 6 2
f 8 5 6
f 9 5 1
f 9 4 5
f 9 7 4
f 9 1 7
f 10 4 3
f 10 3 6
f 11 10 6
f 11 6 5
f 11 5 4
f 11 4 10

