# https://github.com/mikedh/trimesh
v 0.73077409 -0.23270496 0.48461500
v 0.73077570 -0.23273475 0.43845962
v 0.73081570 -0.12710948 0.48228150
v 0.42308000 -0.12711955 0.49950748
v 0.42307701 -0.23288433 0.48461710
v 0.42303393 -0.20813299 0.43863819
v 0.62307692 -0.12711469 0.49927760
v 0.73083841 -0.20866620 0.43861138
v 0.42308024 -0.18866242 0.49967549
v 0.42316151 -0.12718348 0.48215397
v 0.42307477 -0.23288589 0.43846106
v 0.62307840 -0.18866928 0.49946038
f 5 2 1
f 7 1 3
f 7 3 4
f 8 1 2
f 8 3 1
f 8 6 3
f 9 5 1
f 9 6 5
f 9 4 6
f 10 6 4
f 10 4 3
f 10 3 6
f 11 2 5
f 11 5 6
f 11 8 2
f 11 6 8
f 12 9 1
f 12 1 7
f 12 7 4
f 12 4 9

