# https://github.com/mikedh/trimesh
v 0.73079102 -0.00402517 0.73118526
v 0.73085896 -0.00398868 0.69512413
v 0.73078557 0.23322947 0.69554375
v 0.62308646 0.23308348 0.72757574
v 0.60769238 -0.00404208 0.73074135
v 0.73091287 0.23268362 0.73006805
v 0.62307144 0.23295945 0.69345628
v 0.66930625 0.22665598 0.73065105
v 0.62305615 -0.00398838 0.69505628
v 0.60769245 0.01134249 0.73071474
v 0.68476192 0.23242951 0.72980492
f 5 2 1
f 6 3 4
f 6 1 2
f 6 2 3
f 7 3 2
f 7 4 3
f 8 5 1
f 8 1 6
f 9 7 2
f 9 2 5
f 9 5 7
f 10 7 5
f 10 4 7
f 10 8 4
f 10 5 8
f 11 8 6
f 11 6 4
f 11 4 8

