# https://github.com/mikedh/trimesh
v 0.08461270 -0.23299284 0.66922997
v 0.08461412 -0.23291348 0.59230856
v 0.08464135 -0.21061032 0.59230281
v -0.01138975 -0.18888358 0.66912702
v -0.02307810 -0.23297205 0.59231003
v 0.08463504 -0.21071211 0.66915156
v -0.02307943 -0.23303447 0.66923185
v -0.01192941 -0.18897960 0.59230574
v 0.00946538 -0.18884702 0.66914497
v 0.00978441 -0.18888295 0.59232648
f 1 2 3
f 5 2 1
f 5 3 2
f 6 1 3
f 7 5 1
f 8 3 5
f 8 7 4
f 8 5 7
f 9 6 3
f 9 1 6
f 9 7 1
f 9 4 7
f 10 8 4
f 10 4 9
f 10 9 3
f 10 3 8

