# https://github.com/mikedh/trimesh
v 0.33077373 -0.23281702 0.36153771
v 0.33077883 -0.23258195 0.26924982
v 0.33071646 -0.18805272 0.28461307
v 0.08472537 -0.18794927 0.28445671
v 0.08461602 -0.23272765 0.36153927
v 0.33091601 -0.20968373 0.36166878
v 0.08461957 -0.23240992 0.26926122
v 0.33082186 -0.18926042 0.28466091
v 0.08469897 -0.21042057 0.36160362
v 0.08450360 -0.18937716 0.28452472
f 3 2 4
f 5 2 1
f 6 1 2
f 6 5 1
f 6 3 4
f 7 4 2
f 7 2 5
f 8 6 2
f 8 2 3
f 8 3 6
f 9 6 4
f 9 5 6
f 10 7 5
f 10 4 7
f 10 9 4
f 10 5 9

