# https://github.com/mikedh/trimesh
v 0.59233901 0.16525673 0.28550645
v 0.59232569 0.16525074 0.25044690
v 0.59228750 0.23300521 0.26918561
v 0.33075138 0.23316370 0.26915534
v 0.28462680 0.16521835 0.28475983
v 0.59231295 0.21914458 0.22730674
v 0.28459424 0.19602590 0.28468168
v 0.59213323 0.23197252 0.24764241
v 0.28459453 0.19779870 0.22936500
v 0.59237595 0.19448146 0.23058916
v 0.33073084 0.21941067 0.22734630
v 0.28461196 0.16534568 0.25058161
v 0.33073609 0.23149860 0.24777340
v 0.28459756 0.19502060 0.23018235
f 5 2 1
f 7 1 3
f 7 3 4
f 7 5 1
f 8 4 3
f 8 3 6
f 9 7 4
f 10 1 2
f 10 9 6
f 10 6 3
f 10 3 1
f 11 8 6
f 11 6 9
f 12 2 5
f 12 5 7
f 12 7 9
f 13 4 8
f 13 8 11
f 13 11 9
f 13 9 4
f 14 10 2
f 14 2 12
f 14 12 9
f 14 9 10

