# https://github.com/mikedh/trimesh
v 0.28462680 0.16521835 0.28475983
v 0.33076132 0.19786193 0.22945984
v 0.33064735 0.23281635 0.28170045
v 0.08468976 0.23235360 0.28186677
v 0.08449941 0.16525286 0.25000247
v 0.08455926 0.21959441 0.22643345
v 0.33081825 0.22652945 0.28455619
v 0.28461196 0.16534568 0.25058161
v 0.08461674 0.16518784 0.28439075
v 0.33073084 0.21941067 0.22734630
v 0.08461250 0.23127765 0.24620046
v 0.08461787 0.19531483 0.22950592
v 0.28463654 0.22665927 0.28454706
v 0.33088627 0.19587643 0.28473287
v 0.22308343 0.16515205 0.28479796
v 0.33073609 0.23149860 0.24777340
v 0.28459756 0.19502060 0.23018235
v 0.13081436 0.19585773 0.28449144
v 0.11547460 0.16512452 0.28457369
v 0.19236724 0.21120573 0.28448011
f 9 4 5
f 10 2 6
f 11 4 3
f 11 6 5
f 11 5 4
f 12 6 2
f 12 5 6
f 13 7 3
f 13 3 4
f 14 10 7
f 14 2 10
f 14 8 2
f 14 1 8
f 14 7 13
f 15 8 1
f 15 5 8
f 15 14 13
f 15 1 14
f 16 3 7
f 16 7 10
f 16 11 3
f 16 10 6
f 16 6 11
f 17 8 5
f 17 5 12
f 17 12 2
f 17 2 8
f 18 4 9
f 18 15 13
f 19 9 5
f 19 5 15
f 19 18 9
f 19 15 18
f 20 18 13
f 20 13 4
f 20 4 18

