# https://github.com/mikedh/trimesh
v 0.73080384 -0.23054066 0.73113350
v 0.73076602 -0.23263084 0.66922769
v 0.73093244 -0.18929525 0.69544028
v 0.48461568 -0.18865744 0.73068356
v 0.48462245 -0.23315446 0.72981961
v 0.48460602 -0.20857898 0.66923560
v 0.73081210 -0.18866390 0.73111215
v 0.50009419 -0.23051786 0.73076839
v 0.73075178 -0.20896785 0.66939554
v 0.48459956 -0.18900130 0.69528639
v 0.48461258 -0.23290261 0.66923058
v 0.68464741 -0.20844257 0.66941547
v 0.68459408 -0.18903096 0.69554731
f 1 2 3
f 5 2 1
f 7 1 3
f 8 5 1
f 8 4 5
f 8 7 4
f 8 1 7
f 9 3 2
f 9 2 6
f 10 4 7
f 10 5 4
f 11 6 2
f 11 2 5
f 11 10 6
f 11 5 10
f 12 9 6
f 12 3 9
f 12 6 10
f 13 10 7
f 13 7 3
f 13 12 10
f 13 3 12

