# https://github.com/mikedh/trimesh
v -0.31538600 -0.23334616 0.68461770
v -0.31538017 -0.21641698 0.23065385
v -0.31511030 -0.18862481 0.50023834
v -0.38486497 -0.18875353 0.68456427
v -0.39232672 -0.23179636 0.24740409
v -0.31553088 -0.20939374 0.68494960
v -0.31540406 -0.23183183 0.24757968
v -0.39230840 -0.23340451 0.68461937
v -0.39231482 -0.19368030 0.23136068
v -0.36540618 -0.18874893 0.68464667
v -0.31538803 -0.19380909 0.23132710
v -0.39227264 -0.21623582 0.23069065
f 6 1 3
f 7 2 3
f 7 3 1
f 7 5 2
f 8 6 4
f 8 1 6
f 8 7 1
f 8 5 7
f 9 4 3
f 9 8 4
f 9 5 8
f 10 6 3
f 10 3 4
f 10 4 6
f 11 9 3
f 11 3 2
f 11 2 9
f 12 9 2
f 12 2 5
f 12 5 9

