# https://github.com/mikedh/trimesh
v 0.00904657 -0.00404335 0.43847628
v 0.00913922 -0.00403911 0.33077975
v 0.00768568 0.22648410 0.28402937
v -0.01063905 0.22005110 0.43858235
v -0.02308074 0.10364516 0.28417159
v 0.00701692 0.21986487 0.43853166
v 0.01033282 0.10364683 0.28599661
v -0.01013689 -0.00401148 0.33078652
v -0.02308762 0.22665302 0.28374892
v -0.01014016 -0.00406806 0.43841352
f 6 3 4
f 6 4 1
f 7 1 2
f 7 6 1
f 7 3 6
f 7 5 3
f 7 2 5
f 8 5 2
f 9 5 4
f 9 4 3
f 9 3 5
f 10 8 2
f 10 2 1
f 10 1 4
f 10 4 5
f 10 5 8

