# https://github.com/mikedh/trimesh
v 0.00991194 -0.18862755 0.53078665
v 0.00934681 -0.18862623 0.43849143
v 0.00701692 0.21986487 0.43853166
v -0.06927995 0.21931973 0.50085489
v -0.06914171 -0.18885278 0.50111682
v 0.00702492 0.21775627 0.53056780
v -0.01206374 -0.18923879 0.53080369
v -0.06929794 -0.18833450 0.48264377
v -0.06916733 0.22050983 0.48137604
v -0.01026420 -0.18878008 0.43847929
v -0.00971564 0.21776510 0.53046951
v -0.01063905 0.22005110 0.43858235
f 1 2 3
f 6 1 3
f 7 2 1
f 7 1 6
f 7 4 5
f 8 5 4
f 9 6 3
f 9 8 4
f 10 7 5
f 10 2 7
f 10 5 8
f 10 3 2
f 10 8 9
f 11 7 6
f 11 4 7
f 11 9 4
f 11 6 9
f 12 10 9
f 12 9 3
f 12 3 10

