# https://github.com/mikedh/trimesh
v 0.00942975 0.16517984 0.36153740
v 0.08449941 0.16525286 0.25000247
v 0.08468976 0.23235360 0.28186677
v 0.00715072 0.21971520 0.36142903
v 0.00764383 0.21944069 0.22620653
v 0.00901014 0.21957195 0.36140547
v 0.08461674 0.16518784 0.28439075
v 0.00771555 0.16530261 0.24983195
v 0.08455926 0.21959441 0.22643345
v 0.00802946 0.23129780 0.28230438
v 0.00762940 0.19537101 0.22927279
v 0.08461250 0.23127765 0.24620046
v 0.08461787 0.19531483 0.22950592
v 0.00774129 0.23112211 0.24641328
v 0.05388810 0.21943026 0.22622097
f 6 3 4
f 6 4 1
f 7 6 1
f 7 3 6
f 8 1 4
f 8 7 1
f 8 2 7
f 10 4 3
f 11 2 8
f 11 8 4
f 11 4 5
f 12 9 5
f 13 7 2
f 13 2 11
f 13 3 7
f 13 12 3
f 13 9 12
f 14 5 4
f 14 4 10
f 14 12 5
f 14 10 3
f 14 3 12
f 15 13 11
f 15 11 5
f 15 5 9
f 15 9 13

