# https://github.com/mikedh/trimesh
v 0.00769240 -0.23295564 0.53076958
v 0.00769015 -0.23278728 0.43846569
v 0.01173827 -0.18859418 0.50252128
v -0.31511030 -0.18862481 0.50023834
v -0.31539049 -0.23312503 0.43846362
v 0.00934681 -0.18862623 0.43849143
v 0.00991194 -0.18862755 0.53078665
v -0.31538590 -0.23324338 0.53077127
v -0.31539427 -0.20962951 0.43851945
v -0.31532661 -0.20943190 0.53059572
v -0.31552555 -0.18877967 0.48236414
v -0.01206374 -0.18923879 0.53080369
v -0.01026420 -0.18878008 0.43847929
f 1 2 3
f 5 2 1
f 6 3 2
f 6 4 3
f 7 1 3
f 7 3 4
f 8 5 1
f 11 4 6
f 11 10 4
f 11 8 10
f 11 9 5
f 11 5 8
f 12 10 8
f 12 7 4
f 12 4 10
f 12 8 1
f 12 1 7
f 13 11 6
f 13 9 11
f 13 5 9
f 13 6 2
f 13 2 5

