# https://github.com/mikedh/trimesh
v -0.39230767 -0.23323687 0.57692168
v -0.39230844 -0.23323565 0.48461620
v -0.38521322 -0.18868482 0.51530112
v -0.73044545 -0.18864929 0.49919520
v -0.73076760 -0.23334212 0.57692399
v -0.39257751 -0.18871023 0.48226940
v -0.73077022 -0.23331054 0.48461499
v -0.38890644 -0.20675654 0.57692625
v -0.73081687 -0.18871373 0.48123962
v -0.73067641 -0.20934861 0.57690560
f 1 2 3
f 5 2 1
f 6 3 2
f 6 4 3
f 7 2 5
f 8 5 1
f 8 1 3
f 9 7 5
f 9 4 6
f 9 6 2
f 9 2 7
f 10 8 3
f 10 3 4
f 10 5 8
f 10 9 5
f 10 4 9

