# https://github.com/mikedh/trimesh
v 0.71517058 -0.00942057 0.12686693
v 0.71546231 -0.00814441 0.10708877
v 0.71569810 0.01382399 0.12645583
v -0.74281982 0.02659391 0.12499969
v -0.71589942 -0.01097856 0.10712884
v -0.74352274 0.02696397 0.10492430
v -0.62246067 0.01009493 0.13048491
v 0.60685135 -0.00997815 0.12871049
v 0.71571746 0.01214091 0.10698855
v -0.73140171 -0.00364240 0.10632529
v 0.60738432 0.01357379 0.12931121
v -0.71566717 -0.01177224 0.12707004
v -0.59189683 0.01200779 0.13002273
v -0.73066469 -0.00399564 0.12778834
v -0.62234667 -0.01073101 0.12989369
f 1 2 3
f 6 4 3
f 8 5 2
f 8 2 1
f 9 6 3
f 9 3 2
f 9 2 6
f 10 4 6
f 10 6 2
f 10 2 5
f 11 3 4
f 11 7 8
f 11 8 1
f 11 1 3
f 12 5 8
f 12 10 5
f 13 11 4
f 13 4 7
f 13 7 11
f 14 7 4
f 14 4 10
f 14 10 12
f 15 12 8
f 15 8 7
f 15 14 12
f 15 7 14

