# https://github.com/mikedh/trimesh
v 0.38727130 -0.18873268 0.51538474
v 0.38679772 -0.18874078 0.42306910
v 0.38788094 0.22787994 0.42303250
v 0.36620064 0.22805156 0.51533788
v 0.33042581 -0.18881489 0.50001775
v 0.38720641 0.22781485 0.51540390
v 0.36472277 0.22790456 0.42308156
v 0.36652641 -0.18867976 0.42304445
v 0.33075569 0.22136975 0.50036947
v 0.33043890 -0.18838054 0.48212846
v 0.33079302 0.22181921 0.48123814
f 1 2 3
f 5 2 1
f 5 1 4
f 6 1 3
f 6 3 4
f 6 4 1
f 7 4 3
f 8 7 3
f 8 3 2
f 8 2 5
f 9 5 4
f 10 8 5
f 10 7 8
f 10 5 9
f 11 9 4
f 11 4 7
f 11 10 9
f 11 7 10

