# https://github.com/mikedh/trimesh
v 0.08461570 -0.18865788 0.73023260
v 0.08458909 -0.18872301 0.69464407
v 0.08457124 0.23310638 0.72707348
v -0.02310661 0.23312036 0.72711942
v -0.02307764 -0.18865894 0.73027818
v -0.01061167 0.21548952 0.66922017
v -0.01138975 -0.18888358 0.66912702
v 0.08453220 0.23299692 0.69294381
v -0.02306064 0.23269533 0.69270582
v 0.00946538 -0.18884702 0.66914497
v 0.00874779 0.21575980 0.67000224
f 1 2 3
f 1 3 4
f 5 1 4
f 7 2 1
f 7 1 5
f 8 3 2
f 8 4 3
f 9 7 5
f 9 5 4
f 9 6 7
f 9 8 6
f 9 4 8
f 10 7 6
f 10 8 2
f 10 2 7
f 11 10 6
f 11 6 8
f 11 8 10

