# https://github.com/mikedh/trimesh
v 0.73077570 -0.23273475 0.43845962
v 0.73077611 -0.23282001 0.31538529
v 0.73083841 -0.20866620 0.43861138
v 0.42303393 -0.20813299 0.43863819
v 0.42307477 -0.23288589 0.43846106
v 0.62310325 -0.20934292 0.31532327
v 0.73079855 -0.20960639 0.31529049
v 0.42305958 -0.20893750 0.33074635
v 0.42307747 -0.23288934 0.33077360
v 0.62307585 -0.23275866 0.31538868
f 1 2 3
f 1 3 4
f 5 2 1
f 5 1 4
f 6 4 3
f 7 6 3
f 7 3 2
f 8 4 6
f 9 8 6
f 9 2 5
f 9 5 4
f 9 4 8
f 10 9 6
f 10 2 9
f 10 7 2
f 10 6 7

