# https://github.com/mikedh/trimesh
v -0.01854093 0.02985751 0.03524969
v -0.00755442 0.03386487 0.01524195
v -0.00765391 0.03452410 0.03525889
v -0.00733237 0.03680775 0.03528598
v -0.01753847 0.03225192 0.01000578
v -0.00718521 0.03621087 0.01533639
v -0.01730223 0.03322506 0.03531586
v -0.01688580 0.02673713 0.00934025
v -0.01098192 0.03592851 0.03531807
v -0.01150246 0.02946435 0.00925450
v -0.01857656 0.02716795 0.01049814
v -0.00968578 0.03564044 0.01535485
v -0.01341714 0.03423405 0.01003960
v -0.01814946 0.02662163 0.00979105
v -0.01596268 0.03311507 0.01001728
v -0.01476769 0.03448798 0.03531876
v -0.01113572 0.03510381 0.01001062
v -0.01082464 0.03556102 0.02203563
f 6 3 2
f 6 4 3
f 7 1 3
f 7 5 1
f 8 3 1
f 9 7 3
f 9 3 4
f 10 2 3
f 10 3 8
f 10 6 2
f 10 8 5
f 11 1 5
f 12 9 4
f 12 4 6
f 14 8 1
f 14 1 11
f 14 11 5
f 14 5 8
f 15 5 7
f 15 10 5
f 16 7 9
f 16 15 7
f 16 13 15
f 17 12 6
f 17 6 10
f 17 15 13
f 17 10 15
f 17 16 9
f 17 13 16
f 18 17 9
f 18 9 12
f 18 12 17

