# https://github.com/mikedh/trimesh
v 0.00715024 -0.03938791 0.13831378
v 0.02073480 -0.02966289 0.06986746
v 0.01701780 -0.03448326 0.07392021
v 0.02254785 -0.03165172 0.13811725
v 0.00751765 -0.03763044 0.12839903
v 0.02002446 -0.03262082 0.06990527
v 0.01836085 -0.03584722 0.13812375
v 0.00740245 -0.03816442 0.13816798
v 0.02252927 -0.03034425 0.11376552
v 0.00745931 -0.03594801 0.08046422
v 0.01071132 -0.03843189 0.11651964
v 0.02098372 -0.03439208 0.13815595
v 0.02237813 -0.03009178 0.10577837
v 0.02104640 -0.03341554 0.10588511
v 0.00700064 -0.03876900 0.10186745
v 0.01106709 -0.03682551 0.06989234
v 0.01209726 -0.03845211 0.13514525
v 0.01199411 -0.03843019 0.13818252
v 0.02095632 -0.03450126 0.13650785
v 0.01970280 -0.03449393 0.11254609
v 0.00948699 -0.03854000 0.10853179
v 0.01334420 -0.03603181 0.06992966
v 0.00712419 -0.03808106 0.08054642
v 0.01157827 -0.03444619 0.06984760
v 0.01852710 -0.03352017 0.06991604
v 0.01839778 -0.03580278 0.13248628
v 0.01455743 -0.03712604 0.11786299
v 0.01331187 -0.03716079 0.10320475
v 0.01883347 -0.03094145 0.06981016
v 0.01704782 -0.03582052 0.11119703
v 0.01587079 -0.03579255 0.09389514
f 8 1 4
f 9 8 4
f 9 5 8
f 10 8 5
f 12 4 1
f 13 6 2
f 13 2 10
f 13 10 5
f 13 5 9
f 14 9 4
f 14 13 9
f 14 6 13
f 15 1 8
f 15 8 10
f 18 12 1
f 18 7 12
f 18 17 7
f 18 1 17
f 19 14 4
f 19 4 12
f 19 12 7
f 20 6 14
f 20 14 19
f 21 1 15
f 21 17 1
f 21 11 17
f 21 16 11
f 23 15 10
f 23 10 16
f 23 21 15
f 23 16 21
f 24 16 10
f 24 10 2
f 25 20 3
f 25 6 20
f 25 3 22
f 25 22 16
f 25 16 6
f 26 20 19
f 26 19 7
f 26 7 17
f 27 17 11
f 27 26 17
f 28 11 16
f 28 16 22
f 28 27 11
f 29 24 2
f 29 2 6
f 29 6 16
f 29 16 24
f 30 3 20
f 30 20 26
f 30 26 27
f 31 28 22
f 31 27 28
f 31 30 27
f 31 22 3
f 31 3 30

