# https://github.com/mikedh/trimesh
v 0.00984397 -0.03714270 0.06988760
v 0.01823386 -0.02993378 0.03525590
v 0.01754377 -0.03282405 0.03529878
v 0.01820481 -0.03130971 0.06985595
v 0.01038012 -0.03483807 0.06983811
v 0.01849581 -0.03043823 0.05385346
v 0.01753392 -0.03407963 0.06989802
v 0.01334420 -0.03603181 0.06992966
v 0.01039822 -0.03354403 0.03524032
v 0.01083583 -0.03584166 0.03932656
v 0.01571649 -0.03448072 0.05264271
v 0.01723462 -0.03053041 0.03524618
v 0.00961476 -0.03613192 0.03931753
v 0.01046072 -0.03368653 0.04187079
v 0.01198452 -0.03576683 0.04731426
v 0.01596987 -0.03493654 0.06991148
v 0.01341630 -0.03479679 0.03532325
v 0.00987172 -0.03589924 0.03528019
v 0.01328332 -0.03578041 0.06061874
v 0.01451782 -0.03446206 0.03800867
v 0.01598593 -0.03361275 0.03532296
v 0.01709511 -0.03311350 0.03667268
f 6 3 2
f 6 5 4
f 7 6 4
f 7 3 6
f 8 5 1
f 8 4 5
f 8 7 4
f 11 3 7
f 12 9 2
f 12 2 3
f 13 1 5
f 13 5 9
f 13 10 1
f 14 6 2
f 14 2 9
f 14 9 5
f 14 5 6
f 15 1 10
f 16 11 7
f 16 7 8
f 17 15 10
f 18 12 3
f 18 9 12
f 18 3 17
f 18 13 9
f 18 17 10
f 18 10 13
f 19 8 1
f 19 1 15
f 19 15 17
f 19 16 8
f 19 11 16
f 20 19 17
f 20 11 19
f 21 20 17
f 21 17 3
f 21 11 20
f 22 21 3
f 22 3 11
f 22 11 21

