# https://github.com/mikedh/trimesh
v 0.03697821 -0.01089919 0.13818553
v 0.03858391 -0.00673047 0.11515660
v 0.03900616 0.00755070 0.13817500
v 0.03649390 0.01215897 0.13816308
v 0.03537946 0.01190004 0.11512593
v 0.03916978 -0.00784044 0.13647948
v 0.03666037 -0.00681699 0.11512898
v 0.03668218 -0.01083638 0.13642343
v 0.03788113 0.01020612 0.11518257
v 0.03854957 -0.01063664 0.13647076
v 0.03910020 0.00246357 0.11785189
v 0.03897274 -0.00786315 0.13817658
v 0.03666577 0.00674567 0.11508541
v 0.03748504 0.01172375 0.11514638
v 0.03913245 -0.00142410 0.11785586
v 0.03907831 0.00500029 0.12185349
v 0.03837590 -0.01059587 0.13817629
v 0.03809341 0.01153949 0.13816094
v 0.03901816 -0.00527054 0.12184124
v 0.03897260 0.00885712 0.13646933
v 0.03903247 -0.00660251 0.12716478
v 0.03896173 0.00754945 0.12849264
v 0.03896465 0.00885636 0.13755553
v 0.03763914 0.01137477 0.11652391
v 0.03901767 0.00630878 0.12451619
f 1 3 4
f 8 1 4
f 8 4 5
f 8 5 7
f 8 7 2
f 10 2 6
f 10 8 2
f 10 1 8
f 11 2 9
f 12 6 3
f 12 3 1
f 13 7 5
f 13 2 7
f 14 5 4
f 14 13 5
f 14 9 2
f 14 2 13
f 15 2 11
f 16 3 6
f 16 15 11
f 16 6 15
f 16 11 9
f 17 10 6
f 17 6 12
f 17 12 1
f 17 1 10
f 18 14 4
f 18 4 3
f 19 15 6
f 19 2 15
f 20 3 16
f 21 19 6
f 21 6 2
f 21 2 19
f 22 9 20
f 23 20 18
f 23 18 3
f 23 3 20
f 24 20 9
f 24 9 14
f 24 14 18
f 24 18 20
f 25 22 20
f 25 20 16
f 25 16 9
f 25 9 22

