# https://github.com/mikedh/trimesh
v -0.01137167 -0.02011080 0.00896189
v -0.01141392 -0.02015527 0.00110796
v -0.01139368 0.00785048 0.00226923
v -0.01803879 0.00783865 0.00891614
v -0.01813646 -0.02021342 0.00064640
v -0.01138500 0.00784491 0.00891395
v -0.01681088 -0.02022039 0.00074427
v -0.01804518 -0.02009795 0.00898951
v -0.01818590 0.00789654 0.00171381
v -0.01803670 -0.01079133 0.00897210
v -0.01138905 -0.01078977 0.00896065
v -0.01549110 0.00789402 0.00203064
v -0.01814263 -0.01889017 0.00075418
f 1 2 3
f 6 1 3
f 7 5 2
f 7 2 1
f 8 7 1
f 8 5 7
f 9 3 2
f 9 2 5
f 9 4 6
f 9 8 4
f 10 6 4
f 10 4 8
f 11 8 1
f 11 1 6
f 11 10 8
f 11 6 10
f 12 9 6
f 12 6 3
f 12 3 9
f 13 9 5
f 13 5 8
f 13 8 9

