# https://github.com/mikedh/trimesh
v 0.03634812 -0.00675544 0.05125150
v 0.03517627 -0.00659815 0.01801117
v 0.03642074 0.00631900 0.05129799
v 0.03264466 0.01187242 0.04192367
v 0.03289131 -0.00685273 0.01795719
v 0.03498132 0.00749427 0.01801910
v 0.03404504 0.00788715 0.05123682
v 0.03645558 0.00109952 0.03799962
v 0.03381863 -0.00709332 0.04187086
v 0.03480566 0.01171812 0.04194219
v 0.03270898 0.00787840 0.01796075
v 0.03656032 -0.00528024 0.05129360
v 0.03641234 0.00374215 0.04197277
v 0.03429361 -0.00688944 0.05122317
v 0.03523774 0.01017066 0.04197411
v 0.03613298 0.00775860 0.05125929
v 0.03256310 0.01184432 0.03926445
v 0.03642837 -0.00137155 0.03799505
v 0.03641716 0.00242022 0.03931300
v 0.03514764 0.01014724 0.03931533
v 0.03471387 0.01169028 0.03928361
f 8 2 6
f 9 5 2
f 9 2 1
f 9 4 5
f 11 6 2
f 11 2 5
f 12 3 7
f 12 8 3
f 12 1 2
f 13 6 3
f 13 3 8
f 14 9 1
f 14 7 4
f 14 4 9
f 14 12 7
f 14 1 12
f 16 7 3
f 16 15 10
f 16 3 6
f 16 10 4
f 16 4 7
f 17 11 5
f 17 5 4
f 17 4 10
f 18 12 2
f 18 2 8
f 18 8 12
f 19 13 8
f 19 8 6
f 19 6 13
f 20 10 15
f 20 16 6
f 20 15 16
f 21 17 10
f 21 6 11
f 21 11 17
f 21 20 6
f 21 10 20

