# https://github.com/mikedh/trimesh
v 0.00455326 -0.03852205 0.08053330
v 0.00979204 -0.03559221 0.02730506
v 0.01079001 -0.03722914 0.08056620
v 0.01130717 -0.03494521 0.08051813
v 0.00059890 -0.03491181 0.02727934
v 0.01106709 -0.03682551 0.06989234
v 0.00462241 -0.03638686 0.08051367
v 0.00056947 -0.03703487 0.02729749
v 0.00993243 -0.03348025 0.02728385
v 0.01163249 -0.03466408 0.07648177
v 0.00830365 -0.03720687 0.05928082
v 0.00061652 -0.03650333 0.07651547
v 0.00341898 -0.03474403 0.02720808
v 0.01157827 -0.03444619 0.06984760
v 0.00826845 -0.03596402 0.02733622
v 0.00437766 -0.03727298 0.04464892
v 0.01077092 -0.03716566 0.07790581
v 0.00059550 -0.03872588 0.07653422
v 0.00050359 -0.03741159 0.03930855
v 0.00065035 -0.03613540 0.06715303
v 0.00695661 -0.03720997 0.05264472
v 0.00947739 -0.03716510 0.06726185
f 7 1 3
f 7 3 4
f 10 4 3
f 10 3 6
f 11 2 6
f 11 3 1
f 12 1 7
f 12 7 4
f 12 4 10
f 13 8 5
f 13 5 9
f 13 9 2
f 13 2 8
f 14 10 6
f 14 6 2
f 14 2 9
f 14 9 5
f 15 8 2
f 15 2 11
f 16 1 8
f 16 8 15
f 17 6 3
f 18 8 1
f 18 1 12
f 19 12 5
f 19 5 8
f 19 18 12
f 19 8 18
f 20 12 10
f 20 10 14
f 20 14 5
f 20 5 12
f 21 11 1
f 21 1 16
f 21 16 15
f 21 15 11
f 22 11 6
f 22 6 17
f 22 17 3
f 22 3 11

