# https://github.com/mikedh/trimesh
v -0.03581982 0.01811519 0.13812522
v -0.02520736 0.02427469 0.03525666
v -0.03297187 0.01938043 0.13629689
v -0.03039187 0.02412544 0.13813227
v -0.02914709 0.02319625 0.03530786
v -0.02950588 0.02450172 0.13636918
v -0.03367519 0.01898613 0.13812771
v -0.02934353 0.01889962 0.03524672
v -0.03289037 0.02314009 0.13812138
v -0.02541932 0.02448503 0.04588242
v -0.02586794 0.02353074 0.03523682
v -0.03222690 0.01825052 0.03528852
v -0.03560019 0.01796069 0.12715368
v -0.02816463 0.02447328 0.10711301
v -0.03158426 0.01945676 0.10439006
v -0.03378868 0.02150041 0.12850992
v -0.03294601 0.01794056 0.04863017
v -0.03244488 0.02275331 0.11653463
v -0.03507265 0.01904567 0.12718377
v -0.03391456 0.02167776 0.13809254
v -0.03242118 0.02019898 0.06860160
v -0.02979652 0.02279583 0.04465461
v -0.03531661 0.01910347 0.13812669
v -0.03112444 0.02020647 0.03533121
v -0.03111892 0.02143781 0.05529211
v -0.03241257 0.01891485 0.04865290
f 7 6 4
f 7 3 6
f 8 3 7
f 9 6 5
f 9 4 6
f 10 2 5
f 10 5 6
f 10 8 2
f 11 5 2
f 11 2 8
f 12 11 8
f 12 5 11
f 13 8 7
f 13 7 1
f 14 10 6
f 14 6 3
f 14 3 10
f 15 10 3
f 15 3 8
f 15 8 10
f 17 12 8
f 17 8 13
f 18 16 9
f 18 9 5
f 19 13 1
f 19 17 13
f 20 9 16
f 21 19 16
f 21 17 19
f 22 18 5
f 22 16 18
f 23 9 20
f 23 4 9
f 23 7 4
f 23 1 7
f 23 19 1
f 23 20 16
f 23 16 19
f 24 22 5
f 24 5 12
f 25 21 16
f 25 16 22
f 25 24 21
f 25 22 24
f 26 24 12
f 26 12 17
f 26 17 21
f 26 21 24

