# https://github.com/mikedh/trimesh
v 0.02474928 0.01862662 0.00942197
v 0.02459792 0.01851964 0.00024818
v 0.01574060 0.03291175 0.01004274
v -0.00842090 0.03578078 0.01004787
v -0.01804018 0.01850201 0.00892626
v 0.00438974 0.03567814 0.00041863
v 0.02338178 0.02773311 0.01004085
v 0.00823647 0.03565485 0.01005948
v -0.01722626 0.03180592 0.00066342
v -0.01753847 0.03225192 0.01000578
v 0.02356046 0.02677994 0.00056976
v 0.01194798 0.03414919 0.00210342
v -0.00587290 0.03568960 0.00056252
v -0.01804950 0.01850291 0.00087502
v -0.01341714 0.03423405 0.01003960
v 0.02082911 0.02907815 0.00052923
v 0.00684903 0.03553097 0.00104288
v -0.01094258 0.03448341 0.00059005
v -0.01810132 0.02123026 0.00071845
v -0.01582844 0.03274685 0.00117734
v 0.01954955 0.03021798 0.00100973
v 0.00820319 0.03554263 0.00737388
v 0.01068824 0.03418768 0.00051642
v -0.00836778 0.03555203 0.00212892
v -0.01596268 0.03311507 0.01001728
v -0.01477003 0.03303702 0.00065409
v 0.01457350 0.03291382 0.00099133
v 0.02336802 0.02768968 0.00872621
v -0.01215849 0.03428089 0.00101096
v -0.01340038 0.03419235 0.00871010
v 0.01572122 0.03287658 0.00869927
f 5 2 1
f 8 6 4
f 8 7 3
f 9 6 2
f 10 5 1
f 10 1 7
f 11 7 1
f 11 1 2
f 12 8 3
f 13 4 6
f 14 2 5
f 15 10 7
f 15 8 4
f 15 7 8
f 16 11 2
f 16 2 6
f 17 6 8
f 18 13 6
f 18 6 9
f 19 9 2
f 19 2 14
f 19 10 9
f 19 14 5
f 19 5 10
f 20 9 10
f 21 3 7
f 21 11 16
f 22 17 8
f 22 8 12
f 22 12 17
f 23 16 6
f 23 6 17
f 23 17 12
f 24 15 4
f 24 4 13
f 24 13 18
f 25 20 10
f 25 10 15
f 26 18 9
f 26 9 20
f 27 23 12
f 27 21 16
f 27 16 23
f 28 21 7
f 28 7 11
f 28 11 21
f 29 24 18
f 29 26 20
f 29 18 26
f 30 25 15
f 30 20 25
f 30 29 20
f 30 15 24
f 30 24 29
f 31 27 12
f 31 12 3
f 31 3 21
f 31 21 27

