# https://github.com/mikedh/trimesh
v 0.00713497 -0.03936440 0.12048208
v 0.00712419 -0.03808106 0.08054642
v 0.00745931 -0.03594801 0.08046422
v -0.00346910 -0.03808691 0.12043960
v -0.00338468 -0.03854663 0.07653962
v 0.00726590 -0.03749849 0.12045608
v 0.00745203 -0.03737741 0.11642791
v 0.00183949 -0.03865436 0.07657603
v -0.00337763 -0.03987489 0.12046211
v -0.00763733 -0.03592719 0.08046875
v 0.00747313 -0.03605369 0.08314680
v 0.00453185 -0.03840215 0.07654430
v -0.00197943 -0.03863510 0.07657492
v -0.00759598 -0.03697542 0.10579375
v 0.00434595 -0.03859649 0.08190129
v 0.00460617 -0.03621850 0.07652826
v -0.00765530 -0.03602882 0.08313989
v -0.00720848 -0.03892871 0.10585501
v -0.00343164 -0.03638098 0.07652149
v -0.00724161 -0.03806115 0.08054954
v -0.00581222 -0.03852640 0.08723894
f 6 4 1
f 7 1 2
f 7 6 1
f 9 1 4
f 9 8 1
f 11 7 2
f 11 2 3
f 11 3 6
f 11 6 7
f 12 2 1
f 12 3 2
f 12 8 5
f 13 9 5
f 13 5 8
f 13 8 9
f 14 4 6
f 14 9 4
f 15 12 1
f 15 1 8
f 15 8 12
f 16 10 3
f 16 3 12
f 17 14 6
f 17 6 3
f 17 3 10
f 18 5 9
f 18 9 14
f 19 5 10
f 19 10 16
f 19 16 12
f 19 12 5
f 20 17 10
f 20 10 5
f 20 18 14
f 20 14 17
f 21 20 5
f 21 5 18
f 21 18 20

