# https://github.com/mikedh/trimesh
v -0.03060165 -0.01776990 0.05388544
v -0.02931128 -0.01780344 0.01793720
v -0.03377642 -0.00562671 0.02723975
v -0.03692250 -0.00531402 0.05393627
v -0.03344321 -0.01718293 0.05392447
v -0.03493482 -0.00935738 0.01798259
v -0.03483833 -0.00559595 0.05386475
v -0.02971770 -0.01802079 0.03391028
v -0.03520102 -0.01295577 0.05395854
v -0.03256524 -0.00976246 0.01791304
v -0.03600503 -0.00537437 0.02730924
v -0.03206174 -0.01714571 0.01798902
v -0.03667703 -0.00525098 0.04595656
v -0.03418568 -0.00563694 0.03786794
v -0.03420371 -0.01557078 0.05394377
v -0.03656069 -0.00783995 0.05395073
v -0.03387037 -0.01295752 0.01799805
v -0.02991414 -0.01672155 0.01790587
v -0.03369736 -0.01541527 0.03799757
v -0.03510961 -0.01157858 0.03799308
v -0.03648110 -0.00661355 0.04596542
v -0.03533478 -0.00916874 0.02733853
v -0.03283507 -0.01554540 0.01800727
v -0.03505008 -0.01288553 0.04863155
v -0.03507992 -0.01042117 0.02868666
v -0.03647252 -0.00782415 0.05129760
f 7 4 1
f 8 2 3
f 8 1 5
f 10 6 3
f 10 3 2
f 11 3 6
f 12 8 5
f 12 2 8
f 13 7 3
f 13 4 7
f 13 3 11
f 14 8 3
f 14 3 7
f 14 7 1
f 14 1 8
f 15 5 1
f 15 1 9
f 16 4 13
f 16 9 1
f 16 1 4
f 17 6 12
f 18 10 2
f 18 2 12
f 18 12 6
f 18 6 10
f 19 12 5
f 19 5 15
f 20 9 16
f 21 16 13
f 21 13 11
f 22 11 6
f 23 19 17
f 23 17 12
f 23 12 19
f 24 19 15
f 24 15 9
f 24 17 19
f 24 20 17
f 24 9 20
f 25 6 17
f 25 17 20
f 25 22 6
f 25 20 16
f 25 16 22
f 26 21 11
f 26 11 22
f 26 22 16
f 26 16 21

