# https://github.com/mikedh/trimesh
v -0.00461637 -0.04009095 0.13759013
v -0.00336579 -0.03945499 0.10583468
v -0.00350455 -0.03826038 0.12841974
v -0.02436965 -0.03168203 0.13835511
v -0.01476188 -0.03712975 0.11783758
v -0.00751264 -0.03669069 0.09779954
v -0.00485002 -0.03860277 0.13817105
v -0.00339376 -0.04002902 0.12844477
v -0.00963281 -0.03847291 0.10720910
v -0.01488141 -0.03740421 0.13817226
v -0.00341264 -0.03759214 0.10580924
v -0.02420021 -0.03144054 0.11116638
v -0.00466666 -0.03966900 0.13832153
v -0.00463736 -0.04007205 0.13380154
v -0.00736307 -0.03859543 0.09783499
v -0.01087917 -0.03847929 0.11783460
v -0.01745321 -0.03334738 0.11109952
v -0.01856188 -0.03582151 0.13760264
v -0.01099711 -0.03864992 0.13820295
v -0.00714695 -0.03873845 0.10054521
v -0.01162897 -0.03555956 0.09778798
v -0.01105404 -0.03775208 0.09786724
v -0.00579512 -0.03985448 0.13379658
v -0.02240997 -0.03339137 0.13813806
v -0.01977117 -0.03451382 0.11120328
v -0.01854192 -0.03579654 0.13512064
v -0.00578964 -0.03988821 0.13765982
v -0.00842661 -0.03850188 0.10055143
v -0.00913554 -0.03628985 0.09775307
v -0.01344870 -0.03713872 0.10321443
v -0.02398531 -0.03233751 0.13805951
v -0.02357064 -0.03192260 0.11120390
v -0.01729456 -0.03580054 0.11119189
v -0.02220025 -0.03327058 0.11916644
f 7 3 4
f 11 8 2
f 11 3 8
f 11 4 3
f 13 3 7
f 13 8 3
f 13 1 8
f 13 7 4
f 14 8 1
f 14 2 8
f 15 11 2
f 15 6 11
f 16 10 5
f 17 11 6
f 17 6 12
f 17 12 4
f 17 4 11
f 19 10 16
f 19 13 4
f 19 4 10
f 20 14 9
f 20 15 2
f 20 2 14
f 21 12 6
f 22 12 21
f 22 9 16
f 23 16 9
f 23 9 14
f 23 19 16
f 24 18 10
f 24 10 4
f 26 5 10
f 26 10 18
f 27 1 13
f 27 13 19
f 27 19 23
f 27 23 14
f 27 14 1
f 28 20 9
f 28 15 20
f 28 22 15
f 28 9 22
f 29 21 6
f 29 6 15
f 29 22 21
f 29 15 22
f 30 22 16
f 30 16 5
f 30 25 22
f 31 24 4
f 31 4 12
f 32 12 22
f 32 22 25
f 33 26 25
f 33 5 26
f 33 30 5
f 33 25 30
f 34 26 18
f 34 18 24
f 34 25 26
f 34 24 31
f 34 32 25
f 34 31 12
f 34 12 32

