# https://github.com/mikedh/trimesh
v 0.01753392 -0.03407963 0.06989802
v 0.03035262 -0.01961886 0.01801163
v 0.02711305 -0.02686006 0.06727116
v 0.03238280 -0.02000394 0.06988501
v 0.02948232 -0.02070574 0.06983543
v 0.02964693 -0.02306658 0.05398517
v 0.02717120 -0.02691000 0.06993099
v 0.02446278 -0.02666259 0.00998718
v 0.01792045 -0.02945626 0.01796719
v 0.03117506 -0.02187077 0.06993213
v 0.03153640 -0.01954168 0.04463221
v 0.02216725 -0.03055999 0.05397822
v 0.02577746 -0.02534303 0.00998962
v 0.02700201 -0.02090839 0.01784333
v 0.01883347 -0.03094145 0.06981016
v 0.01754377 -0.03282405 0.03529878
v 0.01852710 -0.03352017 0.06991604
v 0.02978610 -0.02053546 0.01802898
v 0.02331742 -0.02931946 0.04597563
v 0.02516408 -0.02599205 0.01002726
v 0.01734911 -0.03371546 0.05527137
v 0.01956538 -0.03182090 0.04067085
v 0.02093859 -0.03200404 0.06992581
v 0.03097501 -0.02175216 0.06329185
v 0.02843384 -0.02290348 0.02467911
v 0.02576088 -0.02557930 0.01406163
v 0.02512771 -0.02602332 0.00995339
v 0.02329751 -0.02801651 0.01804005
v 0.01828862 -0.03316812 0.05529087
v 0.02087470 -0.03186724 0.06461011
v 0.01849463 -0.03222719 0.03533250
f 7 3 6
f 10 4 5
f 10 7 6
f 11 5 4
f 11 4 2
f 13 6 3
f 13 8 9
f 14 9 5
f 14 13 9
f 14 2 13
f 14 11 2
f 14 5 11
f 15 9 1
f 15 1 5
f 15 5 9
f 16 9 8
f 17 10 5
f 17 5 1
f 18 2 4
f 18 13 2
f 19 3 7
f 19 7 12
f 19 8 3
f 20 3 8
f 21 1 9
f 21 9 16
f 21 17 1
f 23 12 7
f 23 7 10
f 23 10 17
f 24 10 6
f 24 6 18
f 24 18 4
f 24 4 10
f 25 18 6
f 25 6 13
f 25 13 18
f 26 20 13
f 26 13 3
f 26 3 20
f 27 20 8
f 27 8 13
f 27 13 20
f 28 16 8
f 28 8 19
f 28 19 12
f 28 12 22
f 29 21 16
f 29 16 22
f 29 17 21
f 30 22 12
f 30 12 23
f 30 29 22
f 30 23 17
f 30 17 29
f 31 28 22
f 31 22 16
f 31 16 28

