# https://github.com/mikedh/trimesh
v 0.02153774 -0.03409045 0.13815759
v 0.03318073 -0.01845431 0.06990561
v 0.02879077 -0.02839740 0.13812872
v 0.03570354 -0.01837507 0.13812798
v 0.02142352 -0.02913954 0.06983300
v 0.03363482 -0.02174805 0.12984363
v 0.03357628 -0.01930931 0.13816995
v 0.02593605 -0.02803487 0.06993001
v 0.03489120 -0.01925165 0.12585280
v 0.03386346 -0.02178640 0.13810962
v 0.03112340 -0.02564955 0.13813977
v 0.02254785 -0.03165172 0.13811725
v 0.03413260 -0.01824398 0.09388587
v 0.03009806 -0.01967346 0.06981070
v 0.02479572 -0.03192855 0.13660437
v 0.02002446 -0.03262082 0.06990527
v 0.03267865 -0.01948290 0.06992124
v 0.03541447 -0.01824035 0.12582943
v 0.03106672 -0.02556145 0.13384899
v 0.02144984 -0.03074362 0.10575829
v 0.02717120 -0.02691000 0.06993099
v 0.02840795 -0.02820248 0.12451011
v 0.02474369 -0.03190734 0.13812126
v 0.02215664 -0.03323135 0.12050327
v 0.02465180 -0.02931013 0.07258896
v 0.03117506 -0.02187077 0.06993213
v 0.03278477 -0.01963818 0.13363757
v 0.02010127 -0.03399612 0.10584265
v 0.02843811 -0.02550913 0.07126854
v 0.02240910 -0.03357153 0.13809755
v 0.02093859 -0.03200404 0.06992581
v 0.02462792 -0.03067087 0.10321560
v 0.03232242 -0.02043316 0.07526582
v 0.03100092 -0.02305165 0.08591264
v 0.02292434 -0.03098576 0.13499463
v 0.03142167 -0.01976915 0.10572653
v 0.02090308 -0.03317940 0.09788918
v 0.01995428 -0.03377564 0.09786411
v 0.02210868 -0.03191506 0.08724099
v 0.02980078 -0.02417644 0.07658939
f 10 9 4
f 10 6 9
f 11 7 1
f 11 1 3
f 11 4 7
f 11 10 4
f 12 1 7
f 14 13 2
f 14 7 13
f 16 5 8
f 17 9 6
f 18 4 9
f 18 2 13
f 18 13 7
f 18 7 4
f 18 17 2
f 18 9 17
f 19 6 10
f 19 10 11
f 19 11 3
f 21 8 5
f 21 5 14
f 22 3 15
f 22 8 21
f 22 19 3
f 23 15 3
f 23 3 1
f 25 8 22
f 26 2 17
f 26 21 14
f 26 14 2
f 27 12 7
f 27 7 14
f 28 1 12
f 28 12 20
f 28 24 1
f 29 22 21
f 29 19 22
f 29 21 26
f 30 23 1
f 30 15 23
f 30 24 15
f 30 1 24
f 31 16 8
f 31 8 25
f 32 25 22
f 32 22 15
f 33 26 17
f 33 17 6
f 33 6 26
f 34 26 6
f 34 6 19
f 35 27 20
f 35 20 12
f 35 12 27
f 36 27 14
f 36 14 5
f 36 5 20
f 36 20 27
f 37 24 28
f 37 16 31
f 38 28 20
f 38 20 5
f 38 5 16
f 38 37 28
f 38 16 37
f 39 31 25
f 39 25 32
f 39 37 31
f 39 24 37
f 39 32 15
f 39 15 24
f 40 29 26
f 40 26 34
f 40 34 19
f 40 19 29

