# https://github.com/mikedh/trimesh
v 0.00053130 -0.03873002 0.07657128
v 0.00056947 -0.03703487 0.02729749
v 0.00065427 -0.03607384 0.06581884
v -0.00763733 -0.03592719 0.08046875
v -0.00717010 -0.03631549 0.02731845
v 0.00061652 -0.03650333 0.07651547
v -0.00329335 -0.03730335 0.03930789
v -0.00724161 -0.03806115 0.08054954
v -0.00755453 -0.03411011 0.02726227
v -0.00068518 -0.03735064 0.03664698
v -0.00770164 -0.03471253 0.04853712
v -0.00344920 -0.03654151 0.08050818
v -0.00339237 -0.03866508 0.08052913
v 0.00059890 -0.03491181 0.02727934
v -0.00352566 -0.03473598 0.02722785
v 0.00052951 -0.03869296 0.07524130
v -0.00065092 -0.03867691 0.07524270
v -0.00449832 -0.03727845 0.04196943
v -0.00065321 -0.03871483 0.07657264
v -0.00709845 -0.03718931 0.05264228
f 1 2 3
f 6 1 3
f 6 3 4
f 7 5 2
f 10 7 2
f 11 8 4
f 11 5 8
f 11 9 5
f 11 4 3
f 12 6 4
f 12 4 8
f 13 12 8
f 13 1 6
f 13 6 12
f 14 3 2
f 14 11 3
f 14 9 11
f 15 2 5
f 15 5 9
f 15 14 2
f 15 9 14
f 16 10 2
f 16 2 1
f 17 13 7
f 17 7 10
f 17 10 16
f 18 13 8
f 18 5 7
f 18 7 13
f 19 1 13
f 19 13 17
f 19 17 16
f 19 16 1
f 20 18 8
f 20 8 5
f 20 5 18

