# https://github.com/mikedh/trimesh
v -0.03317920 0.00660271 0.01795770
v -0.02223026 0.02266225 0.00941924
v -0.03033154 0.00657068 0.00931270
v -0.02520736 0.02427469 0.03525666
v -0.02857046 0.02275690 0.01000767
v -0.03293780 0.01096160 0.03520548
v -0.02253895 0.02430495 0.01074322
v -0.03547294 0.00634074 0.01002885
v -0.03112444 0.02020647 0.03533121
v -0.02206336 0.02384731 0.00993742
v -0.03385570 0.01273607 0.01002249
v -0.03557564 0.00638000 0.01799709
v -0.03511502 0.01128421 0.03532753
v -0.02914709 0.02319625 0.03530786
v -0.03523676 0.00754444 0.01002786
v -0.03239608 0.01637998 0.01401037
v -0.03541416 0.01024224 0.03531442
v -0.03108806 0.01894687 0.01534778
v -0.03251593 0.01771369 0.03532949
v -0.03373710 0.01388076 0.02201665
f 3 2 4
f 5 2 3
f 6 1 3
f 6 3 4
f 7 5 4
f 10 7 4
f 10 4 2
f 10 2 5
f 10 5 7
f 11 5 3
f 12 8 3
f 12 3 1
f 13 4 9
f 14 9 4
f 14 4 5
f 14 5 9
f 15 11 3
f 15 3 8
f 16 5 11
f 17 12 1
f 17 1 6
f 17 6 4
f 17 4 13
f 17 8 12
f 17 15 8
f 17 13 11
f 17 11 15
f 18 9 5
f 18 5 16
f 19 13 9
f 19 18 16
f 19 9 18
f 19 16 11
f 20 19 11
f 20 11 13
f 20 13 19

