# https://github.com/mikedh/trimesh
v -0.02396435 0.02712188 0.06984748
v -0.01029544 0.03386226 0.03525059
v -0.01017377 0.03502248 0.06986076
v -0.00976478 0.03732978 0.06991069
v -0.02112064 0.03056512 0.02732840
v -0.00970157 0.03719776 0.06459452
v -0.02402428 0.02587869 0.04722483
v -0.02268750 0.03096184 0.06990749
v -0.01474042 0.03559723 0.06992566
v -0.00981168 0.03626497 0.03530783
v -0.02372967 0.02552943 0.02727257
v -0.02261384 0.02946150 0.02731905
v -0.01085406 0.03688143 0.06459277
v -0.01981689 0.03293957 0.06993413
v -0.01776528 0.03267436 0.02730467
v -0.01089942 0.03701277 0.06992084
v -0.01217926 0.03552872 0.03533339
v -0.02100931 0.03158680 0.05395795
v -0.01718746 0.03418672 0.06328497
v -0.01975243 0.03154917 0.02866398
v -0.01912302 0.02928513 0.02727490
v -0.02302130 0.02619889 0.02726360
v -0.01340340 0.03551376 0.04862833
v -0.01875094 0.03209140 0.02732833
v -0.01592203 0.03419190 0.04329866
f 6 3 2
f 6 4 3
f 7 2 3
f 7 3 1
f 10 6 2
f 11 2 7
f 12 7 1
f 12 1 8
f 12 11 7
f 12 8 5
f 13 4 6
f 13 6 10
f 14 8 1
f 15 10 2
f 15 12 5
f 16 4 13
f 16 9 14
f 16 3 4
f 16 14 1
f 16 1 3
f 17 13 10
f 17 10 15
f 18 5 8
f 18 8 14
f 19 15 14
f 19 14 9
f 20 14 15
f 20 18 14
f 20 5 18
f 21 15 2
f 21 2 11
f 22 11 12
f 22 12 15
f 22 21 11
f 22 15 21
f 23 16 13
f 23 9 16
f 23 13 17
f 24 20 15
f 24 15 5
f 24 5 20
f 25 23 17
f 25 17 15
f 25 15 19
f 25 19 9
f 25 9 23

