# https://github.com/mikedh/trimesh
v -0.03885010 0.00776787 0.13827352
v -0.03151935 0.01860462 0.08850723
v -0.03691017 0.00387176 0.11113010
v -0.03367519 0.01898613 0.13812771
v -0.03426814 0.01794146 0.08853629
v -0.03235083 0.01911882 0.11776271
v -0.03757174 0.00801855 0.13813395
v -0.03581982 0.01811519 0.13812522
v -0.03542042 0.00812206 0.08847905
v -0.03711000 0.00390313 0.11511549
v -0.03781256 0.01133696 0.11917610
v -0.03270295 0.01639820 0.08847501
v -0.03882321 0.00382565 0.11115662
v -0.03637408 0.01642473 0.12851232
v -0.03755236 0.00777552 0.08852459
v -0.03894932 0.00383225 0.11514569
v -0.03639932 0.01268618 0.08855792
v -0.03788856 0.01273706 0.13813060
v -0.03799995 0.00760747 0.10320576
v -0.03503729 0.01651002 0.09255445
v -0.03770803 0.01263545 0.12850251
v -0.03645663 0.01657657 0.13811711
f 6 3 2
f 6 5 4
f 6 2 5
f 7 4 1
f 8 1 4
f 8 4 5
f 9 2 3
f 10 6 4
f 10 3 6
f 10 4 7
f 10 7 1
f 12 5 2
f 12 2 9
f 14 8 5
f 15 12 9
f 15 5 12
f 15 9 3
f 15 3 13
f 16 10 1
f 16 1 11
f 16 15 13
f 16 13 3
f 16 3 10
f 17 15 11
f 17 5 15
f 18 11 1
f 18 1 8
f 19 16 11
f 19 11 15
f 19 15 16
f 20 17 14
f 20 14 5
f 20 5 17
f 21 17 11
f 21 14 17
f 21 18 14
f 21 11 18
f 22 18 8
f 22 8 14
f 22 14 18

