# https://github.com/mikedh/trimesh
v -0.03483833 -0.00559595 0.05386475
v -0.03404671 -0.00546987 0.03260891
v -0.02965573 0.01911355 0.04855483
v -0.03311136 0.01806144 0.05394213
v -0.03657352 0.00246808 0.03532837
v -0.03017925 0.01859510 0.05389987
v -0.03620058 -0.00539719 0.03262841
v -0.03656752 0.00757111 0.05395004
v -0.02934353 0.01889962 0.03524672
v -0.03511502 0.01128421 0.03532753
v -0.03692250 -0.00531402 0.05393627
v -0.03430827 0.00253705 0.03259840
v -0.03528911 0.01273904 0.05395975
v -0.03649972 0.00496395 0.03931522
v -0.03251593 0.01771369 0.03532949
v -0.03646842 0.00251328 0.03261779
v -0.03381970 0.01652357 0.05396045
v -0.03657095 -0.00140249 0.03399734
v -0.03644688 0.00753964 0.04996435
v -0.03371000 0.01511607 0.03533104
v -0.03657694 0.00112271 0.03399562
v -0.03660084 -0.00397139 0.03797905
v -0.03504357 0.01261083 0.04597969
v -0.03650992 -0.00524456 0.04064190
f 1 2 3
f 6 1 3
f 6 3 4
f 7 2 1
f 9 3 2
f 9 4 3
f 11 1 6
f 11 7 1
f 11 8 5
f 12 9 2
f 13 10 8
f 13 8 11
f 14 5 8
f 15 4 9
f 16 14 10
f 16 5 14
f 16 15 9
f 16 9 12
f 16 12 2
f 16 2 7
f 17 11 6
f 17 6 4
f 17 13 11
f 17 4 15
f 18 16 7
f 19 14 8
f 19 8 10
f 19 10 14
f 20 16 10
f 20 15 16
f 20 17 15
f 20 13 17
f 21 18 11
f 21 11 5
f 21 5 16
f 21 16 18
f 22 18 7
f 22 11 18
f 23 20 10
f 23 10 13
f 23 13 20
f 24 22 7
f 24 7 11
f 24 11 22

