# https://github.com/mikedh/trimesh
v 0.03820730 0.00791378 0.11112509
v 0.03467879 0.00772308 0.00999876
v 0.03542556 0.01793348 0.12316494
v 0.03270276 0.01859141 0.12311269
v 0.03087916 0.00775451 0.01021391
v 0.02861637 0.01853888 0.01796566
v 0.03775278 0.01180457 0.12312353
v 0.03658425 0.00755198 0.06327051
v 0.03624139 0.00806951 0.11110319
v 0.03135184 0.01786774 0.01805986
v 0.02954147 0.01910736 0.05118667
v 0.03376079 0.01133602 0.01002811
v 0.03657628 0.01535401 0.12316546
v 0.03526408 0.00756031 0.02732600
v 0.03219016 0.01908524 0.11774845
v 0.03545852 0.01244622 0.12307081
v 0.03012509 0.01142349 0.01079225
v 0.03626349 0.01144075 0.07926079
v 0.03624967 0.01257630 0.08856699
v 0.03361744 0.01263598 0.01801841
v 0.03224466 0.01640137 0.02334687
v 0.03358662 0.01770196 0.07259127
v 0.03490787 0.01393042 0.06461828
f 7 1 2
f 8 2 1
f 9 1 7
f 9 8 1
f 9 5 8
f 11 10 6
f 11 3 10
f 11 6 5
f 12 2 5
f 12 6 10
f 13 3 4
f 14 8 5
f 14 5 2
f 14 2 8
f 15 9 4
f 15 5 9
f 15 11 5
f 15 4 3
f 15 3 11
f 16 9 7
f 16 4 9
f 16 13 4
f 16 7 13
f 17 12 5
f 17 5 6
f 17 6 12
f 18 7 2
f 18 2 12
f 19 13 7
f 19 18 12
f 19 7 18
f 20 12 10
f 21 20 10
f 22 21 10
f 22 10 3
f 22 3 13
f 22 13 21
f 23 21 13
f 23 20 21
f 23 13 19
f 23 19 12
f 23 12 20

