# https://github.com/mikedh/trimesh
v -0.02848514 0.02367328 0.02729585
v -0.01807865 0.02391399 0.00055017
v -0.01809022 0.02387231 0.00903427
v -0.01776528 0.03267436 0.02730467
v -0.02344636 0.02768800 0.00123061
v -0.01746470 0.03212752 0.00335229
v -0.01912302 0.02928513 0.02727490
v -0.02777474 0.02313411 0.00101002
v -0.02112064 0.03056512 0.02732840
v -0.01765679 0.03117507 0.00030115
v -0.02440533 0.02486906 0.02724925
v -0.02719986 0.02388100 0.00115758
v -0.02786008 0.02443479 0.02732507
v -0.02219768 0.02897626 0.00338106
v -0.01844515 0.03155902 0.00339505
v -0.01875094 0.03209140 0.02732833
v -0.02691870 0.02342580 0.00031213
v -0.02093629 0.03027395 0.01402085
v -0.01970368 0.03031071 0.00070941
v -0.02643150 0.02427024 0.00050603
f 6 3 2
f 6 4 3
f 7 3 4
f 8 2 3
f 8 3 1
f 10 6 2
f 11 1 3
f 11 3 7
f 12 8 1
f 13 11 7
f 13 1 11
f 13 12 1
f 13 5 12
f 14 13 9
f 14 5 13
f 15 4 6
f 16 7 4
f 16 15 9
f 16 4 15
f 16 13 7
f 16 9 13
f 17 10 2
f 17 2 8
f 18 15 14
f 18 14 9
f 18 9 15
f 19 5 14
f 19 14 15
f 19 15 6
f 19 6 10
f 20 12 5
f 20 5 19
f 20 19 10
f 20 10 17
f 20 17 8
f 20 8 12

