# https://github.com/mikedh/trimesh
v -0.03649403 -0.01241262 0.13813826
v -0.03552737 -0.00683271 0.08052102
v -0.03525467 0.00783049 0.08052922
v -0.03757174 0.00801855 0.13813395
v -0.03920659 -0.00525524 0.12582821
v -0.03665420 0.00812470 0.12174418
v -0.03542388 -0.01215131 0.11513081
v -0.03902064 -0.00782003 0.13815402
v -0.03790148 0.00376169 0.08055080
v -0.03736919 0.00774375 0.08053776
v -0.03543149 -0.00814760 0.08851073
v -0.03814786 -0.01177187 0.13816360
v -0.03907521 0.00757722 0.13812471
v -0.03757039 -0.00673023 0.08053647
v -0.03746728 -0.01195873 0.11515139
v -0.03910669 -0.00781455 0.13515411
v -0.03926879 0.00110577 0.11917002
v -0.03920292 0.00493670 0.12450591
v -0.03911694 0.00756138 0.13381824
v -0.03754980 -0.00805138 0.08852436
v -0.03918367 -0.00650128 0.12982460
v -0.03777554 -0.01165422 0.12183920
v -0.03790337 -0.00404294 0.08055594
v -0.03788681 0.00495732 0.08455937
v -0.03925102 -0.00138237 0.11918054
v -0.03789592 -0.00524202 0.08455373
v -0.03921386 -0.00270693 0.12051065
f 6 4 1
f 7 6 1
f 7 3 6
f 10 6 3
f 10 4 6
f 10 3 2
f 11 2 3
f 11 3 7
f 12 1 4
f 12 4 8
f 13 8 4
f 14 10 2
f 14 9 10
f 15 7 1
f 15 1 12
f 16 8 13
f 16 12 8
f 18 9 17
f 19 13 4
f 19 4 10
f 19 10 18
f 19 18 17
f 20 14 2
f 20 2 11
f 20 11 7
f 20 7 15
f 20 16 14
f 21 16 13
f 21 14 16
f 21 17 5
f 21 19 17
f 21 13 19
f 22 15 12
f 22 12 16
f 22 20 15
f 22 16 20
f 23 17 9
f 23 9 14
f 24 18 10
f 24 10 9
f 24 9 18
f 25 5 17
f 25 17 23
f 26 21 5
f 26 5 23
f 26 23 14
f 26 14 21
f 27 25 23
f 27 23 5
f 27 5 25

