# https://github.com/mikedh/trimesh
v 0.03357628 -0.01930931 0.13816995
v 0.03657737 -0.01052834 0.08057989
v 0.03776890 -0.01298102 0.13816555
v 0.03745473 -0.00696330 0.13635402
v 0.03071304 -0.01930501 0.08050644
v 0.03940040 -0.00662129 0.13647788
v 0.03662571 -0.01155461 0.13802794
v 0.03378193 -0.01807144 0.08058194
v 0.03224247 -0.01938283 0.11908313
v 0.03626642 -0.00699191 0.10578571
v 0.03762097 -0.01167042 0.11785623
v 0.03837590 -0.01059587 0.13817629
v 0.03570354 -0.01837507 0.13812798
v 0.03384812 -0.01259777 0.08048458
v 0.03086080 -0.01940259 0.08714135
v 0.03819472 -0.00666564 0.10585581
v 0.03918377 -0.00658980 0.13115944
v 0.03916978 -0.00784044 0.13647948
v 0.03492584 -0.01545064 0.08058219
v 0.03625824 -0.01675402 0.12984350
v 0.03134503 -0.01823620 0.08048711
v 0.03436327 -0.01092946 0.08051053
v 0.03760535 -0.01296975 0.12849552
v 0.03640613 -0.01682761 0.13810643
v 0.03625492 -0.01540479 0.11520042
v 0.03626189 -0.01163448 0.08058283
v 0.03623087 -0.01293611 0.09122790
f 7 4 1
f 9 1 4
f 12 7 1
f 12 1 3
f 12 6 4
f 12 4 7
f 13 3 1
f 13 1 8
f 15 8 1
f 15 5 8
f 15 1 9
f 15 9 4
f 15 10 5
f 15 4 10
f 16 6 2
f 16 2 10
f 17 10 4
f 17 4 6
f 17 16 10
f 17 6 16
f 18 12 3
f 18 6 12
f 18 11 2
f 18 2 6
f 19 8 14
f 20 13 8
f 20 8 19
f 21 14 8
f 21 8 5
f 22 10 2
f 22 2 14
f 22 5 10
f 22 21 5
f 22 14 21
f 23 18 3
f 23 11 18
f 24 3 13
f 24 13 20
f 24 23 3
f 24 20 23
f 25 23 20
f 25 20 19
f 26 2 11
f 26 11 23
f 26 19 14
f 26 14 2
f 27 25 19
f 27 19 26
f 27 26 23
f 27 23 25

