# https://github.com/mikedh/trimesh
v 0.00592380 0.03183957 0.00994143
v 0.00615323 0.03321386 0.01200078
v 0.00611416 0.03416849 0.01792983
v -0.00720403 0.03627785 0.01799061
v -0.00842090 0.03578078 0.01004787
v -0.01139980 0.03052079 0.00993330
v 0.00575627 0.03618531 0.01003346
v -0.00754429 0.03400245 0.01795995
v -0.01120448 0.03523787 0.01532331
v -0.00611453 0.03087297 0.00920884
v 0.00579224 0.03644892 0.01798705
v -0.01167803 0.03263522 0.01521815
v -0.00968578 0.03564044 0.01535485
v -0.01113572 0.03510381 0.01001062
v -0.01183398 0.03193384 0.01188302
f 1 2 3
f 6 1 3
f 7 2 1
f 7 3 2
f 7 5 4
f 9 8 4
f 10 5 7
f 10 7 1
f 10 1 6
f 11 7 4
f 11 3 7
f 11 8 3
f 11 4 8
f 12 6 3
f 12 3 8
f 12 8 9
f 13 9 4
f 13 4 5
f 14 10 6
f 14 5 10
f 14 13 5
f 14 9 13
f 15 12 9
f 15 9 14
f 15 14 6
f 15 6 12

