# https://github.com/mikedh/trimesh
v -0.03220179 0.02348441 0.12313877
v -0.02324891 0.02898932 0.02729120
v -0.02463813 0.02522440 0.04453822
v -0.02449447 0.03153764 0.12312842
v -0.02725574 0.02656991 0.05794704
v -0.02270457 0.02958827 0.03397872
v -0.02847336 0.02479536 0.12308277
v -0.03157777 0.02437987 0.12316381
v -0.02607241 0.02776590 0.05926300
v -0.02848514 0.02367328 0.02729585
v -0.02440533 0.02486906 0.02724925
v -0.02462766 0.02649815 0.06981308
v -0.02523774 0.03092979 0.12315691
v -0.02472991 0.02776362 0.02867472
v -0.02988614 0.02394001 0.06860119
v -0.02911091 0.02317041 0.03397833
v -0.02333654 0.03044084 0.06987980
v -0.02581572 0.02767508 0.12307668
v -0.02399448 0.02839741 0.02731718
v -0.02723845 0.02522863 0.02868551
v -0.03046627 0.02321365 0.06857763
v -0.03176131 0.02318599 0.10718300
v -0.02600253 0.02648046 0.02736525
v -0.02855469 0.02392733 0.03400052
v -0.02786008 0.02443479 0.02732507
f 8 1 7
f 11 2 6
f 11 10 2
f 11 3 7
f 12 11 6
f 12 3 11
f 13 5 8
f 13 9 5
f 13 8 7
f 14 5 9
f 15 8 5
f 16 10 11
f 17 12 6
f 17 4 12
f 17 6 2
f 17 2 4
f 18 7 3
f 18 3 12
f 18 12 4
f 18 13 7
f 18 4 13
f 19 13 4
f 19 4 2
f 19 2 10
f 19 14 9
f 19 9 13
f 21 1 8
f 21 8 15
f 21 10 16
f 22 16 11
f 22 11 7
f 22 21 16
f 22 7 1
f 22 1 21
f 23 20 5
f 23 5 14
f 23 14 19
f 24 15 5
f 24 21 15
f 24 10 21
f 25 20 23
f 25 10 24
f 25 24 5
f 25 5 20
f 25 23 19
f 25 19 10

