# https://github.com/mikedh/trimesh
v -0.03304615 -0.00953146 0.02726995
v -0.03017922 -0.00950668 0.00977003
v -0.03304022 0.01061062 0.03525698
v -0.03541416 0.01024224 0.03531442
v -0.03512443 -0.00777842 0.01003554
v -0.03401939 -0.00565400 0.03256745
v -0.03476461 -0.00931059 0.00999979
v -0.03033154 0.00657068 0.00931270
v -0.03441482 0.00254273 0.03525563
v -0.03620058 -0.00539719 0.03262841
v -0.03091987 -0.00972308 0.01055854
v -0.03547294 0.00634074 0.01002885
v -0.03533478 -0.00916874 0.02733853
v -0.03656962 0.00251756 0.03527615
v -0.03236508 0.01079065 0.01793199
v -0.03476201 0.01036593 0.01798663
v -0.03258116 0.01090345 0.02325481
f 1 2 3
f 6 1 3
f 8 3 2
f 8 7 5
f 8 2 7
f 9 6 3
f 9 3 4
f 10 1 6
f 11 7 2
f 11 2 1
f 11 1 7
f 12 8 5
f 13 10 5
f 13 5 7
f 13 7 1
f 13 1 10
f 14 9 4
f 14 4 12
f 14 12 5
f 14 5 10
f 14 10 6
f 14 6 9
f 15 8 12
f 16 15 12
f 16 12 4
f 17 4 3
f 17 3 8
f 17 8 15
f 17 16 4
f 17 15 16

