# https://github.com/mikedh/trimesh
v 0.03383947 -0.01041929 0.00603254
v 0.03357170 -0.01035592 0.00105587
v 0.03092623 0.01760951 0.00216525
v 0.01918442 0.01845498 0.00884643
v 0.01923197 -0.01078142 0.00881774
v 0.03364375 0.01133146 0.00603131
v 0.02338515 -0.01082570 0.00069054
v 0.03516802 -0.00399474 0.00602959
v 0.03106365 0.01765372 0.00604086
v 0.03508998 0.00239943 0.00106063
v 0.03310100 -0.01055394 0.00033456
v 0.01932516 0.01859549 0.00059908
v 0.03506752 0.00494763 0.00603449
v 0.03508688 -0.00396439 0.00337673
v 0.03361157 0.01132099 0.00470114
v 0.03505558 -0.00264354 0.00112406
v 0.01930016 -0.01081205 0.00120755
v 0.03019333 0.01790802 0.00037024
v 0.03510385 0.00373676 0.00207739
v 0.03359437 -0.00906114 0.00042974
v 0.03376235 0.01011176 0.00104806
v 0.03382934 0.00886382 0.00050504
v 0.03503078 0.00493845 0.00469911
v 0.03225685 0.01380705 0.00053096
v 0.03113233 0.01645682 0.00058420
f 7 1 5
f 8 5 1
f 8 4 5
f 9 4 6
f 11 2 1
f 11 1 7
f 12 11 7
f 13 6 4
f 13 4 8
f 14 8 1
f 14 1 2
f 15 9 6
f 15 3 9
f 15 6 13
f 16 14 2
f 16 10 8
f 16 8 14
f 17 12 7
f 17 7 5
f 17 5 4
f 17 4 12
f 18 11 12
f 18 9 3
f 18 12 4
f 18 4 9
f 19 13 8
f 19 8 10
f 20 10 16
f 20 16 2
f 20 2 11
f 21 3 15
f 21 19 10
f 22 10 20
f 22 21 10
f 22 20 11
f 22 11 18
f 23 21 15
f 23 15 13
f 23 13 19
f 23 19 21
f 24 3 21
f 24 22 18
f 24 21 22
f 25 24 18
f 25 18 3
f 25 3 24

