# https://github.com/mikedh/trimesh
v 0.00741581 0.03804813 0.13819431
v 0.00598914 0.03625270 0.08051333
v 0.00568514 0.03835487 0.08055820
v -0.00715047 0.03954210 0.13816744
v -0.01168617 0.03698800 0.13813398
v 0.00696337 0.03961186 0.12980543
v 0.00734910 0.03624926 0.08849273
v -0.01100744 0.03859834 0.13820371
v -0.00744541 0.03603899 0.08051846
v -0.00068273 0.03973732 0.11117936
v 0.00697887 0.03957919 0.13815794
v 0.00749553 0.03712065 0.11109200
v 0.00696737 0.03836513 0.08856067
v -0.00732204 0.03811657 0.08053361
v -0.01138774 0.03581133 0.10315381
v 0.00437080 0.03969220 0.11651430
v -0.00709636 0.03960398 0.12980950
v -0.00583641 0.03836133 0.08055578
v -0.01118697 0.03784396 0.10317420
v 0.00053594 0.03974608 0.11118071
v 0.00568703 0.03961126 0.12050221
v -0.00326659 0.03968850 0.11384488
v -0.01086742 0.03821043 0.11118250
v 0.00320280 0.03970842 0.11384584
v -0.00452331 0.03963356 0.11651631
f 7 1 5
f 7 2 3
f 8 5 1
f 11 1 6
f 11 8 1
f 11 4 8
f 12 6 1
f 12 1 7
f 13 7 3
f 13 12 7
f 13 6 12
f 14 3 2
f 14 2 9
f 15 7 5
f 15 14 9
f 15 9 2
f 15 2 7
f 16 11 6
f 17 4 11
f 17 8 4
f 18 3 14
f 18 14 17
f 19 15 5
f 19 5 8
f 19 14 15
f 20 11 16
f 20 17 11
f 20 10 17
f 20 18 10
f 20 3 18
f 21 13 3
f 21 3 16
f 21 16 6
f 21 6 13
f 22 17 10
f 22 10 18
f 23 17 14
f 23 14 19
f 23 19 8
f 23 8 17
f 24 20 16
f 24 16 3
f 24 3 20
f 25 22 18
f 25 18 17
f 25 17 22

