# https://github.com/mikedh/trimesh
v 0.01922992 -0.01079188 0.00881777
v 0.01930016 -0.01081205 0.00120755
v 0.01932516 0.01859549 0.00059908
v -0.00739745 0.01849622 0.00889181
v -0.01138704 -0.01079449 0.00211351
v 0.01918442 0.01845498 0.00884643
v 0.01935942 0.01728948 0.00070365
v 0.01131466 -0.01085789 0.00203239
v -0.01138905 -0.01078977 0.00896065
v -0.00748017 0.01868098 0.00182888
v 0.01802858 0.01862069 0.00070562
v 0.01124367 0.01849446 0.00884659
v -0.01139157 0.01183568 0.00891073
v -0.01139604 0.01184783 0.00216823
f 5 3 2
f 7 1 2
f 7 2 3
f 7 6 1
f 7 3 6
f 8 5 2
f 8 2 1
f 9 6 4
f 9 1 6
f 9 8 1
f 9 5 8
f 10 3 5
f 11 6 3
f 11 3 10
f 12 10 4
f 12 4 6
f 12 11 10
f 12 6 11
f 13 9 4
f 13 4 10
f 14 13 10
f 14 10 5
f 14 5 9
f 14 9 13

