# https://github.com/mikedh/trimesh
v 0.00987172 -0.03589924 0.03528019
v 0.02249613 -0.02729429 0.00032006
v 0.01696184 -0.03176560 0.00112325
v 0.02295175 -0.02912591 0.03528949
v 0.01529455 -0.02687836 0.00899164
v 0.02079802 -0.02927197 0.00103261
v 0.01341630 -0.03479679 0.03532325
v 0.01039822 -0.03354403 0.03524032
v 0.02321706 -0.02808482 0.01796918
v 0.01660267 -0.02816357 0.00017109
v 0.01630609 -0.03160992 0.00031957
v 0.01957950 -0.03053254 0.00602469
v 0.00965865 -0.03519338 0.01002200
v 0.01723462 -0.03053041 0.03524618
v 0.02232987 -0.02962698 0.03533274
v 0.01673836 -0.02702225 0.00936356
v 0.02205172 -0.02804286 0.00065253
v 0.01840918 -0.03067207 0.00062524
v 0.01571649 -0.03315565 0.02068825
v 0.02201121 -0.02930087 0.02202083
v 0.01196557 -0.03444771 0.01005328
v 0.01597380 -0.03226296 0.00103712
v 0.00999237 -0.02972515 0.00919963
v 0.02089370 -0.03066244 0.03534017
v 0.01827920 -0.03182569 0.02335020
f 8 1 7
f 9 5 4
f 10 5 2
f 11 10 2
f 12 3 6
f 13 7 1
f 14 4 5
f 14 5 8
f 15 14 8
f 15 4 14
f 16 9 2
f 16 2 5
f 16 5 9
f 17 9 6
f 17 2 9
f 18 6 3
f 18 17 6
f 18 11 2
f 18 2 17
f 19 3 12
f 20 9 4
f 20 15 12
f 20 4 15
f 20 12 6
f 20 6 9
f 21 7 13
f 22 13 11
f 22 21 13
f 22 3 19
f 22 19 7
f 22 7 21
f 22 18 3
f 22 11 18
f 23 10 11
f 23 11 13
f 23 5 10
f 23 8 5
f 23 13 1
f 23 1 8
f 24 15 8
f 24 8 7
f 24 12 15
f 25 24 7
f 25 7 19
f 25 19 12
f 25 12 24

