# https://github.com/mikedh/trimesh
v -0.01108525 -0.03502336 0.01799285
v -0.01102101 -0.03491774 0.01004162
v -0.01278823 -0.02825492 0.00909543
v -0.02487384 -0.02023671 0.00975359
v -0.02406585 -0.02739502 0.01001729
v -0.01198896 -0.03239067 0.01787587
v -0.01149480 -0.02968153 0.00936760
v -0.01980694 -0.03086547 0.01798921
v -0.01980081 -0.03065884 0.01007147
v -0.02344796 -0.02019090 0.00917690
v -0.01217310 -0.03461525 0.01800053
v -0.02523054 -0.02324122 0.01792105
v -0.01211833 -0.03447778 0.01005386
v -0.02346416 -0.02800417 0.01138372
v -0.02544890 -0.02065341 0.01052876
v -0.02352647 -0.02805570 0.01802128
f 7 1 2
f 7 2 3
f 7 6 1
f 7 3 6
f 9 5 3
f 10 5 4
f 10 3 5
f 10 6 3
f 11 2 1
f 12 10 4
f 12 6 10
f 12 1 6
f 13 9 3
f 13 3 2
f 13 2 11
f 13 11 8
f 13 8 9
f 14 9 8
f 14 5 9
f 15 12 4
f 15 4 5
f 15 5 12
f 16 8 11
f 16 11 1
f 16 1 12
f 16 14 8
f 16 12 5
f 16 5 14

