# https://github.com/mikedh/trimesh
v 0.01946595 -0.02838625 0.01793703
v 0.03008414 -0.01944183 0.01004979
v 0.02978610 -0.02053546 0.01802898
v 0.03165930 -0.01094721 0.01524926
v 0.01673836 -0.02702225 0.00936356
v 0.03145212 -0.01220696 0.01795601
v 0.02379965 -0.02728222 0.01001970
v 0.02885774 -0.01092013 0.00932543
v 0.02853810 -0.02181971 0.01005030
v 0.02395790 -0.02742443 0.01800262
v 0.01686296 -0.02856008 0.01094207
v 0.03042704 -0.01051902 0.01058711
v 0.02962722 -0.02047859 0.01405436
v 0.01839150 -0.02881168 0.01518878
v 0.01653268 -0.02803654 0.01002774
f 6 3 2
f 6 2 4
f 6 1 3
f 6 5 1
f 8 6 4
f 8 5 6
f 9 8 2
f 9 7 5
f 9 5 8
f 10 3 1
f 10 9 3
f 10 7 9
f 12 8 4
f 12 4 2
f 12 2 8
f 13 9 2
f 13 2 3
f 13 3 9
f 14 10 1
f 14 7 10
f 14 11 7
f 15 1 5
f 15 5 7
f 15 7 11
f 15 14 1
f 15 11 14

