# https://github.com/mikedh/trimesh
v -0.03583257 -0.00013575 0.06986125
v -0.03017925 0.01859510 0.05389987
v -0.03097975 0.01911655 0.08316080
v -0.03151935 0.01860462 0.08850723
v -0.03642961 0.01013762 0.06460109
v -0.03732203 -0.00010392 0.05392709
v -0.03755236 0.00777552 0.08852459
v -0.03311136 0.01806144 0.05394213
v -0.03542245 -0.00014393 0.05390425
v -0.03542042 0.00812206 0.08847905
v -0.03783358 -0.00013299 0.06988477
v -0.03656752 0.00757111 0.05395004
v -0.03135887 0.01651263 0.05386646
v -0.03426814 0.01794146 0.08853629
v -0.03596788 0.00257282 0.08050416
v -0.03797970 0.00251989 0.08052728
v -0.03528911 0.01273904 0.05395975
v -0.03533138 0.00130433 0.05389419
v -0.03676676 0.01146588 0.08854764
v -0.03646249 0.00885105 0.05795226
v -0.03506276 0.01517450 0.07392491
v -0.03539460 0.01532128 0.08854909
v -0.03642125 0.01131340 0.07392577
v -0.03371398 0.01778519 0.06727276
v -0.03381970 0.01652357 0.05396045
v -0.03504496 0.01387048 0.05795987
f 1 2 3
f 1 3 4
f 8 3 2
f 9 2 1
f 10 4 7
f 11 9 1
f 11 6 9
f 13 8 2
f 13 6 12
f 13 2 9
f 14 4 3
f 14 3 8
f 15 10 7
f 15 1 4
f 15 4 10
f 16 7 12
f 16 15 7
f 16 11 1
f 16 1 15
f 16 12 6
f 16 6 11
f 17 13 12
f 17 8 13
f 18 13 9
f 18 9 6
f 18 6 13
f 19 7 4
f 20 17 12
f 20 5 17
f 20 12 7
f 20 7 5
f 22 19 4
f 22 4 14
f 22 21 19
f 22 14 21
f 23 17 5
f 23 5 7
f 23 7 19
f 23 19 21
f 24 21 14
f 24 14 8
f 25 8 17
f 25 24 8
f 25 21 24
f 26 23 21
f 26 17 23
f 26 25 17
f 26 21 25

