# https://github.com/mikedh/trimesh
v 0.00826845 -0.03596402 0.02733622
v 0.00965865 -0.03519338 0.01002200
v 0.00994818 -0.03086557 0.00985117
v -0.01149480 -0.02968153 0.00936760
v -0.00706759 -0.03594821 0.01007625
v -0.01013599 -0.02971473 0.00920115
v 0.00993243 -0.03348025 0.02728385
v 0.00687722 -0.03590377 0.01006048
v -0.00717010 -0.03631549 0.02731845
v -0.01102101 -0.03491774 0.01004162
v 0.00979204 -0.03559221 0.02730506
v -0.00755453 -0.03411011 0.02726227
v 0.01035662 -0.03210003 0.01225408
v -0.01103331 -0.03499614 0.01531312
v 0.01029864 -0.03330692 0.02586995
v -0.01185694 -0.03199214 0.01373382
v -0.01147703 -0.03235267 0.01527230
v -0.01187702 -0.03066704 0.01039119
f 6 3 2
f 7 6 4
f 7 3 6
f 8 6 2
f 8 5 6
f 9 1 7
f 9 8 1
f 9 5 8
f 10 6 5
f 10 4 6
f 10 5 9
f 11 7 1
f 11 8 2
f 11 1 8
f 12 9 7
f 12 7 4
f 13 2 3
f 14 10 9
f 14 9 12
f 15 11 2
f 15 2 13
f 15 7 11
f 15 13 3
f 15 3 7
f 16 12 4
f 16 10 14
f 17 16 14
f 17 14 12
f 17 12 16
f 18 16 4
f 18 4 10
f 18 10 16

