# https://github.com/mikedh/trimesh
v 0.03090707 -0.01862507 0.01798499
v 0.03515373 -0.00523891 0.01003892
v 0.03521045 0.00632668 0.01800942
v 0.03105592 0.01230018 0.01365796
v 0.02885774 -0.01092013 0.00932543
v 0.03467879 0.00772308 0.00999876
v 0.03270898 0.00787840 0.01796075
v 0.03517627 -0.00659815 0.01801117
v 0.03062937 -0.01846975 0.01000750
v 0.02885470 0.01197703 0.00963073
v 0.03518946 0.00496432 0.01002503
v 0.03491525 0.00778044 0.01797812
v 0.03117171 -0.01809691 0.01804202
v 0.03362088 -0.01159647 0.01004686
v 0.02955291 0.01229930 0.01053784
v 0.03501360 0.00629684 0.01135278
v 0.03239193 -0.01547459 0.01804229
v 0.03091924 -0.01792220 0.01005204
v 0.03501496 -0.00654469 0.01266883
v 0.03386348 -0.01168683 0.01802461
v 0.03224826 -0.01539617 0.01402077
f 9 1 5
f 10 5 1
f 10 6 5
f 10 7 4
f 10 1 7
f 11 2 5
f 11 5 6
f 11 8 2
f 11 3 8
f 12 6 4
f 12 7 3
f 12 4 7
f 13 7 1
f 13 3 7
f 14 9 5
f 14 5 2
f 15 10 4
f 15 4 6
f 15 6 10
f 16 11 6
f 16 3 11
f 16 12 3
f 16 6 12
f 17 8 3
f 17 3 13
f 18 13 1
f 18 1 9
f 18 17 13
f 18 9 14
f 19 14 2
f 19 2 8
f 20 17 14
f 20 8 17
f 20 19 8
f 20 14 19
f 21 18 14
f 21 14 17
f 21 17 18

