# https://github.com/mikedh/trimesh
v -0.01103356 -0.03631782 0.05394513
v -0.01108525 -0.03502336 0.01799285
v -0.01154334 -0.03255162 0.01795127
v -0.03344321 -0.01718293 0.05392447
v -0.02364082 -0.02950378 0.05396592
v -0.03206174 -0.01714571 0.01798902
v -0.01197533 -0.03366485 0.05384344
v -0.01097457 -0.03619293 0.04995584
v -0.01717166 -0.03317330 0.03666605
v -0.01223122 -0.03592786 0.05396155
v -0.01980694 -0.03086547 0.01798921
v -0.02931128 -0.01780344 0.01793720
v -0.02987942 -0.02314780 0.05396120
v -0.01992833 -0.03216890 0.05395024
v -0.01471807 -0.03445277 0.03933519
v -0.01319106 -0.03188958 0.01790922
v -0.01587937 -0.03315516 0.02069731
v -0.03289444 -0.01693012 0.03531611
v -0.02738357 -0.02426831 0.01801234
v -0.03026908 -0.01836007 0.05384122
v -0.03294403 -0.01820339 0.05393903
v -0.01972981 -0.03184713 0.04199085
v -0.02090876 -0.03054966 0.03001238
v -0.01340424 -0.03446079 0.02602085
v -0.01217310 -0.03461525 0.01800053
v -0.01845764 -0.03182390 0.02203045
v -0.03008937 -0.02061360 0.01802042
v -0.02352647 -0.02805570 0.01802128
v -0.02611033 -0.02668239 0.03800012
v -0.03243431 -0.01789092 0.03534119
v -0.02851200 -0.02295327 0.01937108
v -0.02221404 -0.02928070 0.02202701
v -0.02856827 -0.02418220 0.04199269
v -0.02476394 -0.02799601 0.04066298
v -0.03106703 -0.01920560 0.02070103
v -0.03111497 -0.02042369 0.03800470
v -0.02728785 -0.02547537 0.03933197
v -0.02977508 -0.02307851 0.04997225
v -0.03153329 -0.01816750 0.01801159
f 7 4 1
f 8 1 2
f 8 2 3
f 8 7 1
f 8 3 7
f 10 1 4
f 10 2 1
f 13 5 10
f 14 10 5
f 15 14 9
f 15 10 14
f 16 3 2
f 16 2 11
f 16 12 3
f 16 11 12
f 17 15 9
f 18 12 6
f 18 4 12
f 19 12 11
f 19 6 12
f 20 7 3
f 20 3 12
f 20 12 4
f 20 4 7
f 21 13 10
f 21 10 4
f 22 14 11
f 22 11 9
f 22 9 14
f 23 14 5
f 23 11 14
f 24 2 10
f 24 10 15
f 24 15 17
f 25 17 11
f 25 11 2
f 25 24 17
f 25 2 24
f 26 17 9
f 26 9 11
f 26 11 17
f 27 6 19
f 28 19 11
f 29 5 13
f 29 19 28
f 30 21 4
f 30 4 18
f 30 18 6
f 31 27 19
f 32 23 5
f 32 5 28
f 32 28 11
f 32 11 23
f 33 31 19
f 34 29 28
f 34 28 5
f 34 5 29
f 36 27 31
f 36 35 27
f 36 13 21
f 36 21 30
f 36 30 35
f 37 29 13
f 37 13 33
f 37 33 19
f 37 19 29
f 38 33 13
f 38 31 33
f 38 36 31
f 38 13 36
f 39 35 30
f 39 30 6
f 39 6 27
f 39 27 35

