# https://github.com/mikedh/trimesh
v -0.03238002 -0.02073004 0.13751714
v -0.03002174 -0.01877765 0.05390626
v -0.03571167 -0.00687416 0.08850479
v -0.03814786 -0.01177187 0.13816360
v -0.03294403 -0.01820339 0.05393903
v -0.03633550 -0.00832795 0.11509926
v -0.03033895 -0.02031628 0.08850210
v -0.03516468 -0.01931442 0.13814750
v -0.03355348 -0.01107660 0.05386307
v -0.03098376 -0.02074104 0.10974947
v -0.03841422 -0.00792703 0.11516755
v -0.03649403 -0.01241262 0.13813826
v -0.03637037 -0.01676518 0.13383074
v -0.03515381 -0.00702016 0.06982911
v -0.03116985 -0.01674108 0.05386368
v -0.03332422 -0.01968739 0.08853332
v -0.03591495 -0.01060177 0.05393293
v -0.03311959 -0.02032623 0.13823702
v -0.03636474 -0.01680393 0.13814870
v -0.03729843 -0.00668636 0.06990863
v -0.03297529 -0.01271863 0.05384695
v -0.03508233 -0.01922853 0.12983016
v -0.03653053 -0.01040489 0.06994235
v -0.03503848 -0.01416167 0.06194904
v -0.03786843 -0.01293016 0.13808659
v -0.03775842 -0.00675881 0.08851853
v -0.03372190 -0.01667733 0.05528891
v -0.03520102 -0.01295577 0.05395854
v -0.03776479 -0.01043775 0.11252047
v -0.03772464 -0.01292734 0.13250341
v -0.03642175 -0.01158994 0.07657866
f 7 2 3
f 7 5 2
f 10 6 1
f 10 3 6
f 10 7 3
f 11 6 3
f 11 4 6
f 12 6 4
f 12 1 6
f 14 3 2
f 14 2 9
f 15 9 2
f 15 2 5
f 16 5 7
f 16 7 10
f 16 10 1
f 16 1 8
f 17 14 9
f 18 8 1
f 18 1 12
f 18 12 4
f 19 13 8
f 19 18 4
f 19 8 18
f 20 3 14
f 20 14 17
f 21 15 5
f 21 9 15
f 21 17 9
f 21 5 17
f 22 5 16
f 22 16 8
f 22 8 13
f 23 20 17
f 23 11 20
f 25 19 4
f 25 13 19
f 26 20 11
f 26 11 3
f 26 3 20
f 27 22 13
f 27 5 22
f 27 13 24
f 28 27 24
f 28 17 5
f 28 5 27
f 29 4 11
f 29 11 23
f 30 24 13
f 30 13 25
f 30 29 23
f 30 25 4
f 30 4 29
f 31 23 17
f 31 17 28
f 31 30 23
f 31 28 24
f 31 24 30

