# https://github.com/mikedh/trimesh
v 0.00572914 -0.03610772 0.01005093
v 0.02902822 -0.01952183 0.00039747
v 0.02973460 -0.02001579 0.00998986
v -0.01803579 -0.02010865 0.00898956
v -0.01741481 -0.03108270 0.00039412
v -0.01732685 -0.03208539 0.01004987
v 0.01455910 -0.03313696 0.00212946
v -0.01813646 -0.02021342 0.00064640
v 0.02853810 -0.02181971 0.01005030
v -0.00447207 -0.03592168 0.00213774
v 0.00945526 -0.03442381 0.00045810
v -0.00706759 -0.03594821 0.01007625
v 0.01463443 -0.03335467 0.01002600
v 0.02335466 -0.02685495 0.00064580
v 0.02838065 -0.02166202 0.00344645
v -0.00835728 -0.03459065 0.00037727
v 0.01072817 -0.03443132 0.00116726
v 0.01581511 -0.03196839 0.00042791
v 0.02379965 -0.02728222 0.01001970
v 0.02708631 -0.02301076 0.00117281
v 0.00434441 -0.03582124 0.00116381
v -0.01085111 -0.03449660 0.00221001
v 0.01088192 -0.03483874 0.01003328
v 0.01321306 -0.03316464 0.00053174
v 0.02582663 -0.02425764 0.00069448
v 0.02858245 -0.02047003 0.00056179
v -0.00322246 -0.03586660 0.00112211
v 0.00567025 -0.03585596 0.00343254
v -0.00583741 -0.03588243 0.00473497
v -0.01211833 -0.03447778 0.01005386
v -0.01718358 -0.03180238 0.00211459
v -0.01341270 -0.03306264 0.00050598
v -0.01469978 -0.03313310 0.00340913
v -0.01608235 -0.03197902 0.00061112
v -0.01209901 -0.03442587 0.00872514
f 3 2 4
f 6 3 4
f 8 4 2
f 8 2 5
f 8 6 4
f 8 5 6
f 9 3 6
f 12 9 6
f 12 1 9
f 12 10 1
f 13 9 1
f 15 2 3
f 15 3 9
f 16 5 2
f 18 2 14
f 18 16 2
f 18 11 16
f 18 14 7
f 19 13 7
f 19 7 14
f 19 9 13
f 19 15 9
f 20 19 14
f 20 15 19
f 21 16 11
f 21 11 17
f 21 1 10
f 22 16 10
f 23 13 1
f 23 17 7
f 23 7 13
f 24 17 11
f 24 11 18
f 24 18 7
f 24 7 17
f 25 20 14
f 25 14 2
f 26 2 15
f 26 15 20
f 26 25 2
f 26 20 25
f 27 21 10
f 27 10 16
f 27 16 21
f 28 21 17
f 28 1 21
f 28 23 1
f 28 17 23
f 29 22 10
f 29 10 12
f 29 12 22
f 30 12 6
f 31 6 5
f 32 5 16
f 32 16 22
f 33 30 6
f 33 6 31
f 34 31 5
f 34 5 32
f 34 33 31
f 34 32 22
f 34 22 33
f 35 33 22
f 35 30 33
f 35 22 12
f 35 12 30

