{"scene":0,"scenes":[{"nodes":[0]}],"asset":{"version":"2.0","generator":"https://github.com/mikedh/trimesh"},"accessors":[{"componentType":5125,"type":"SCALAR","bufferView":0,"count":71856,"max":[71742],"min":[0]},{"componentType":5126,"type":"VEC3","byteOffset":0,"bufferView":1,"count":71743,"max":[0.03999999910593033,0.13842637836933136,0.04045554995536804],"min":[-0.03999999910593033,0.0,-0.04045554995536804]},{"componentType":5126,"type":"VEC2","byteOffset":0,"bufferView":3,"count":71743,"max":[0.9995527863502502,0.9995462894439697],"min":[0.00044722718303091824,0.00045371055603027344]}],"meshes":[{"name":"geometry_0.001","extras":{"units":"meters","from_gltf_primitive":false,"name":"geometry_0.001","node":"geometry_0.002"},"primitives":[{"attributes":{"POSITION":1,"TEXCOORD_0":2},"indices":0,"mode":4,"material":0}]}],"images":[{"bufferView":2,"mimeType":"image/png"}],"textures":[{"source":0}],"materials":[{"pbrMetallicRoughness":{"baseColorTexture":{"index":0}},"name":"Material_0.001","doubleSided":false}],"nodes":[{"name":"world","children":[1]},{"name":"geometry_0.001","mesh":0}],"buffers":[{"uri":"gltf_buffer_0.bin","byteLength":287424},{"uri":"gltf_buffer_1.bin","byteLength":860916},{"uri":"gltf_buffer_2.bin","byteLength":852364},{"uri":"gltf_buffer_3.bin","byteLength":573944}],"bufferViews":[{"buffer":0,"byteOffset":0,"byteLength":287424},{"buffer":1,"byteOffset":0,"byteLength":860916},{"buffer":2,"byteOffset":0,"byteLength":852364},{"buffer":3,"byteOffset":0,"byteLength":573944}]}