# https://github.com/mikedh/trimesh
v 0.00060201 -0.02948123 0.00897792
v 0.00057899 -0.02925119 0.00896449
v 0.00059380 -0.01079054 0.00889600
v -0.01803670 -0.01079133 0.00897210
v -0.01804518 -0.02009795 0.00898951
v -0.00736095 -0.02922780 0.00900916
v -0.01803579 -0.02010865 0.00898956
v 0.00060260 -0.01078426 0.00889597
v -0.00739920 -0.02948444 0.00902604
v -0.01804233 -0.01078147 0.00897207
f 1 2 3
f 1 3 4
f 6 5 2
f 6 2 1
f 7 1 4
f 7 4 5
f 7 5 6
f 8 3 2
f 8 2 5
f 8 4 3
f 9 7 6
f 9 6 1
f 9 1 7
f 10 8 5
f 10 5 4
f 10 4 8

