# https://github.com/mikedh/trimesh
v 0.03809341 0.01153949 0.13816094
v 0.03775278 0.01180457 0.12312353
v 0.03110454 0.02526042 0.13116022
v 0.01895041 0.03528273 0.13829200
v 0.03545852 0.01244622 0.12307081
v 0.03109449 0.02533062 0.13812931
v 0.03493297 0.01901433 0.12451448
v 0.03793920 0.01146742 0.12582143
v 0.03649390 0.01215897 0.13816308
v 0.02475509 0.03165006 0.13250263
v 0.03632929 0.01651563 0.13816146
v 0.03376020 0.02160175 0.13814840
v 0.01894076 0.03523732 0.12313613
v 0.01997571 0.03311113 0.13814594
v 0.02848638 0.02788895 0.12317793
v 0.02463426 0.03164081 0.13817281
v 0.03777707 0.01276459 0.13814199
v 0.03657628 0.01535401 0.12316546
v 0.03363885 0.02154691 0.12717722
v 0.02086064 0.03431674 0.13814077
v 0.03549419 0.01245988 0.12440074
v 0.02018525 0.03200339 0.12305900
v 0.02227891 0.03318462 0.12316453
v 0.03254198 0.02291493 0.12317523
v 0.03624110 0.01645686 0.12716160
v 0.03757797 0.01269175 0.12583286
v 0.02020890 0.03204130 0.12438853
v 0.02595504 0.03040326 0.12716554
v 0.02092266 0.03423873 0.12849235
v 0.02979884 0.02655613 0.12584278
v 0.02726869 0.02909266 0.12451125
v 0.01991503 0.03468312 0.12315552
f 8 5 2
f 9 1 4
f 9 8 1
f 9 5 8
f 11 4 1
f 12 3 6
f 12 11 7
f 12 6 4
f 12 4 11
f 14 9 4
f 15 10 6
f 15 6 3
f 16 4 6
f 16 6 10
f 17 11 1
f 17 1 8
f 19 12 7
f 19 3 12
f 20 13 4
f 20 16 10
f 20 4 16
f 21 5 9
f 21 9 14
f 22 5 21
f 22 14 4
f 22 4 13
f 23 22 13
f 23 15 22
f 24 2 5
f 24 22 15
f 24 5 22
f 24 18 2
f 24 7 18
f 24 19 7
f 24 3 19
f 25 18 7
f 25 7 11
f 25 11 17
f 25 17 18
f 26 18 17
f 26 17 8
f 26 8 2
f 26 2 18
f 27 22 21
f 27 21 14
f 27 14 22
f 28 23 10
f 29 20 10
f 29 10 23
f 29 13 20
f 30 24 15
f 30 15 3
f 30 3 24
f 31 15 23
f 31 23 28
f 31 28 10
f 31 10 15
f 32 29 23
f 32 23 13
f 32 13 29

