# https://github.com/mikedh/trimesh
v 0.02462131 0.01988176 0.00987855
v 0.02516079 0.02032734 0.01075225
v 0.02391632 0.02454371 0.01801246
v 0.00579224 0.03644892 0.01798705
v 0.01574060 0.03291175 0.01004274
v 0.00611416 0.03416849 0.01792983
v 0.02338178 0.02773311 0.01004085
v 0.01834461 0.03165151 0.01801283
v 0.02343134 0.02001183 0.00932724
v 0.00595161 0.03080974 0.00924389
v 0.02499770 0.02290571 0.01519714
v 0.01326289 0.03424424 0.01801038
v 0.01829305 0.03156389 0.01402781
v 0.02346457 0.02793657 0.01800331
v 0.00575627 0.03618531 0.01003346
v 0.00826411 0.03586960 0.01800291
v 0.02201321 0.02902516 0.01403035
v 0.00823647 0.03565485 0.01005948
v 0.02211395 0.02907628 0.01800523
v 0.01324147 0.03418849 0.01534391
f 1 2 3
f 6 3 4
f 7 2 1
f 9 1 3
f 9 3 6
f 9 7 1
f 9 5 7
f 10 6 4
f 10 9 6
f 10 5 9
f 11 3 2
f 11 2 7
f 12 8 5
f 12 3 8
f 13 7 5
f 13 5 8
f 14 8 3
f 14 11 7
f 14 3 11
f 15 10 4
f 16 4 3
f 16 3 12
f 17 13 8
f 17 14 7
f 17 7 13
f 18 5 10
f 18 10 15
f 18 15 4
f 18 4 16
f 19 17 8
f 19 8 14
f 19 14 17
f 20 12 5
f 20 5 18
f 20 18 16
f 20 16 12

