# https://github.com/mikedh/trimesh
v 0.03071304 -0.01930501 0.08050644
v 0.03513865 -0.00678264 0.01797118
v 0.03539407 -0.01431247 0.08056609
v 0.03489614 -0.00702230 0.06720162
v 0.02747927 -0.02027362 0.01794395
v 0.03685278 -0.00685315 0.06720679
v 0.03436327 -0.01092946 0.08051053
v 0.02815734 -0.02071527 0.04188766
v 0.03289131 -0.00685273 0.01795719
v 0.03035262 -0.01961886 0.01801163
v 0.03651246 -0.01078356 0.08052768
v 0.03378193 -0.01807144 0.08058194
v 0.02948232 -0.02070574 0.06983543
v 0.02867557 -0.01830429 0.01783562
v 0.03521691 -0.00660406 0.01934093
v 0.03357301 -0.01290226 0.02069147
v 0.03267865 -0.01948290 0.06992124
v 0.03253151 -0.00843821 0.01791241
v 0.03386348 -0.01168683 0.01802461
v 0.03358096 -0.01543091 0.04598136
v 0.03239193 -0.01547459 0.01804229
v 0.03497801 -0.00774330 0.01935459
v 0.03494518 -0.01159491 0.04464677
v 0.03488989 -0.01419743 0.06594738
v 0.03224126 -0.01671900 0.02734184
v 0.03489025 -0.01286924 0.05398009
v 0.03357608 -0.01669389 0.05930047
v 0.03117171 -0.01809691 0.01804202
v 0.03229451 -0.01925018 0.05797209
f 7 4 1
f 7 6 4
f 9 8 4
f 9 5 8
f 10 8 5
f 11 2 6
f 11 7 3
f 11 6 7
f 12 7 1
f 12 3 7
f 13 1 4
f 13 4 8
f 13 8 10
f 14 5 9
f 14 10 5
f 15 6 2
f 15 2 9
f 15 9 4
f 15 4 6
f 17 12 1
f 17 1 13
f 17 13 10
f 18 14 9
f 18 9 2
f 18 2 14
f 19 14 2
f 19 10 14
f 21 19 16
f 21 10 19
f 21 16 20
f 22 19 2
f 22 2 11
f 23 16 19
f 23 22 11
f 23 19 22
f 24 20 16
f 25 21 20
f 26 23 11
f 26 11 3
f 26 3 24
f 26 24 16
f 26 16 23
f 27 24 3
f 27 3 12
f 27 20 24
f 27 25 20
f 27 12 17
f 27 17 25
f 28 10 21
f 28 21 25
f 29 17 10
f 29 10 28
f 29 28 25
f 29 25 17

