# https://github.com/mikedh/trimesh
v 0.00566728 -0.03980984 0.13818910
v 0.00713497 -0.03936440 0.12048208
v 0.00726590 -0.03749849 0.12045608
v -0.00485002 -0.03860277 0.13817105
v -0.00337763 -0.03987489 0.12046211
v 0.00740245 -0.03816442 0.13816798
v 0.00185853 -0.03998169 0.12182602
v -0.00452515 -0.03997501 0.13814177
v -0.00346910 -0.03808691 0.12043960
v -0.00482700 -0.03809427 0.12842376
v 0.00715024 -0.03938791 0.13831378
v 0.00562996 -0.03985428 0.13115385
v -0.00200358 -0.03998386 0.12182549
v -0.00469784 -0.03989768 0.12844938
v -0.00448176 -0.03997987 0.12982119
f 5 3 2
f 6 2 3
f 7 5 2
f 8 7 1
f 9 3 5
f 10 6 3
f 10 4 6
f 10 3 9
f 10 9 5
f 11 6 4
f 11 2 6
f 11 8 1
f 11 4 8
f 12 7 2
f 12 1 7
f 12 11 1
f 12 2 11
f 13 5 7
f 13 7 8
f 14 8 4
f 14 4 10
f 14 10 5
f 15 13 8
f 15 8 14
f 15 14 5
f 15 5 13

