# https://github.com/mikedh/trimesh
v 0.03400409 0.01148476 0.01799913
v 0.03361559 0.01174928 0.00999074
v 0.02992181 0.02032437 0.01804366
v 0.02412899 0.02733660 0.01798379
v 0.02476360 0.01729060 0.00912908
v 0.02724192 0.02283159 0.00063919
v 0.02480556 0.02670169 0.01800567
v 0.03233533 0.01514421 0.01003489
v 0.02885470 0.01197703 0.00963073
v 0.03151848 0.01247267 0.01786768
v 0.02404868 0.02600482 0.00033667
v 0.03361744 0.01263598 0.01801841
v 0.02722275 0.02406822 0.01801718
v 0.02842718 0.02146316 0.00102524
v 0.03395577 0.01144641 0.01671293
v 0.02596393 0.02224091 0.01788843
v 0.02752514 0.01331040 0.00923767
v 0.02388999 0.02707709 0.00468530
v 0.02964417 0.02017586 0.00869717
v 0.03019333 0.01790802 0.00037024
v 0.02459792 0.01851964 0.00024818
v 0.02455522 0.02646107 0.00471249
v 0.02970605 0.01898156 0.00051064
v 0.02576635 0.02526038 0.00603098
v 0.02478877 0.02545676 0.00050389
v 0.02706879 0.02395512 0.01267219
f 10 7 4
f 10 1 7
f 10 9 1
f 12 7 1
f 12 3 7
f 12 8 3
f 12 1 2
f 12 2 8
f 13 7 3
f 14 13 3
f 15 9 2
f 15 2 1
f 15 1 9
f 16 10 4
f 16 4 5
f 16 5 10
f 17 10 5
f 17 9 10
f 18 5 4
f 19 14 3
f 19 3 8
f 20 8 2
f 20 2 9
f 20 11 6
f 21 17 5
f 21 11 20
f 21 20 9
f 21 9 17
f 21 18 11
f 21 5 18
f 22 18 4
f 22 4 7
f 23 19 8
f 23 14 19
f 23 8 20
f 23 20 6
f 23 6 14
f 24 22 7
f 24 7 13
f 24 14 6
f 24 6 22
f 25 22 6
f 25 6 11
f 25 11 18
f 25 18 22
f 26 24 13
f 26 13 14
f 26 14 24

