# https://github.com/mikedh/trimesh
v 0.03358749 0.01834659 0.08053714
v 0.03105340 0.01840861 0.01797811
v 0.02712194 0.02654966 0.06063383
v 0.01786030 0.03439832 0.08052948
v 0.01850957 0.03154137 0.08048215
v 0.01736251 0.03223817 0.01799478
v 0.02999605 0.02407642 0.08055846
v 0.02821279 0.01914920 0.01792315
v 0.01976523 0.03326430 0.08057403
v 0.02211395 0.02907628 0.01800523
v 0.01734478 0.03345019 0.04729119
v 0.03227930 0.02019207 0.07259414
v 0.02838165 0.02262696 0.01806240
v 0.03149176 0.01794179 0.02332746
v 0.03078994 0.01908191 0.08049839
v 0.01870965 0.02900208 0.01794675
v 0.03251100 0.02033020 0.08057916
v 0.02352783 0.03049839 0.08056218
v 0.02300437 0.02493374 0.01500730
v 0.02086416 0.03156298 0.05396357
v 0.01957303 0.03291209 0.06728251
v 0.03236469 0.01907091 0.05931445
v 0.02976970 0.02392870 0.06993321
v 0.02580254 0.02655838 0.03669147
v 0.02992181 0.02032437 0.01804366
v 0.03290007 0.01800334 0.05928317
v 0.02595109 0.02775011 0.06196111
v 0.02499770 0.02290571 0.01519714
v 0.02232623 0.02560680 0.01521616
v 0.01834461 0.03165151 0.01801283
v 0.02340284 0.03031302 0.07125693
v 0.02843161 0.02527035 0.06461373
v 0.03097994 0.02149363 0.06064850
v 0.02434740 0.02354938 0.01502873
v 0.02074991 0.03032646 0.02469290
v 0.01828944 0.03290085 0.04731428
v 0.02206144 0.03031521 0.04598762
v 0.02463912 0.02903534 0.06461250
f 9 4 5
f 11 6 5
f 11 5 4
f 14 8 2
f 14 2 1
f 15 5 8
f 15 9 5
f 15 8 14
f 16 8 5
f 16 5 6
f 17 1 12
f 17 15 1
f 17 9 15
f 18 17 7
f 18 9 17
f 19 10 13
f 21 11 4
f 21 4 9
f 21 9 20
f 22 12 1
f 22 1 2
f 22 2 12
f 23 7 17
f 24 13 10
f 24 3 13
f 25 12 2
f 25 13 23
f 26 15 14
f 26 14 1
f 26 1 15
f 27 18 7
f 27 7 3
f 27 24 10
f 27 3 24
f 28 2 8
f 28 25 2
f 28 13 25
f 29 16 6
f 29 6 19
f 29 19 8
f 29 8 16
f 30 19 6
f 30 10 19
f 31 20 9
f 31 9 18
f 32 23 13
f 32 13 3
f 32 3 7
f 32 7 23
f 33 23 17
f 33 17 12
f 33 25 23
f 33 12 25
f 34 28 8
f 34 8 19
f 34 19 13
f 34 13 28
f 35 30 20
f 35 20 10
f 35 10 30
f 36 21 20
f 36 20 30
f 36 11 21
f 36 30 6
f 36 6 11
f 37 10 20
f 37 20 31
f 38 27 10
f 38 37 31
f 38 10 37
f 38 31 18
f 38 18 27

