# https://github.com/mikedh/trimesh
v -0.01786794 -0.03178787 0.00999941
v -0.01741481 -0.03108270 0.00039412
v -0.01791330 0.02367749 0.00901335
v -0.02857046 0.02275690 0.01000767
v -0.03515550 -0.00657099 0.00472434
v -0.01809022 0.02387231 0.00903427
v -0.03127395 -0.01675704 0.00060188
v -0.03536012 -0.00660978 0.01003243
v -0.02352049 -0.02682810 0.00059843
v -0.02864411 0.02157212 0.00056946
v -0.01980081 -0.03065884 0.01007147
v -0.03394154 -0.01162237 0.00605170
v -0.03238836 -0.01415040 0.00048787
v -0.02761484 0.02296322 0.00056164
v -0.03523676 0.00754444 0.01002786
v -0.02406585 -0.02739502 0.01001729
v -0.02094686 -0.02920841 0.00108572
v -0.03476461 -0.00931059 0.00999979
v -0.03524644 0.00116425 0.00051978
v -0.03375455 -0.01157778 0.00207953
v -0.02983444 0.02024325 0.00120927
v -0.01807865 0.02391399 0.00055017
v -0.03247774 -0.01539271 0.00608425
v -0.02224650 -0.02800704 0.00065543
v -0.01842773 -0.03063878 0.00058205
v -0.01978480 -0.03053281 0.00738051
v -0.03267207 0.01394203 0.00053144
v -0.03363655 -0.01029687 0.00042956
v -0.03526037 -0.00140943 0.00057526
v -0.02851504 0.02273144 0.00736269
v -0.03241062 -0.01536117 0.00475737
v -0.03513952 0.00625476 0.00215654
v -0.03385570 0.01273607 0.01002249
v -0.03508963 -0.00520866 0.00095844
v -0.03517296 0.00496347 0.00098655
v -0.03241450 0.01516058 0.00104439
v -0.03376878 0.01266430 0.00604492
v -0.03381663 0.01136568 0.00109703
v -0.03389230 0.01016308 0.00058264
v -0.03512272 0.00753849 0.00738506
f 1 2 3
f 6 1 3
f 6 4 1
f 11 1 4
f 13 9 7
f 13 2 9
f 14 4 6
f 15 8 11
f 16 7 9
f 16 11 8
f 18 8 5
f 18 16 8
f 19 8 15
f 20 18 5
f 20 12 18
f 20 13 7
f 21 14 10
f 22 14 6
f 22 6 3
f 22 3 2
f 23 7 16
f 23 12 20
f 23 18 12
f 23 16 18
f 24 9 2
f 24 17 16
f 24 16 9
f 25 2 1
f 25 24 2
f 25 17 24
f 26 1 11
f 26 11 16
f 26 16 17
f 26 25 1
f 26 17 25
f 27 10 14
f 28 2 13
f 28 13 20
f 28 19 27
f 28 22 2
f 28 27 14
f 28 14 22
f 29 8 19
f 29 19 28
f 30 21 4
f 30 4 14
f 30 14 21
f 31 23 20
f 31 20 7
f 31 7 23
f 33 4 21
f 33 15 11
f 33 11 4
f 34 5 8
f 34 8 29
f 34 20 5
f 34 29 28
f 34 28 20
f 35 19 15
f 35 15 32
f 36 33 21
f 36 21 10
f 36 10 27
f 37 15 33
f 37 33 36
f 38 35 32
f 38 36 27
f 38 37 36
f 39 27 19
f 39 19 35
f 39 38 27
f 39 35 38
f 40 32 15
f 40 15 37
f 40 38 32
f 40 37 38

