# https://github.com/mikedh/trimesh
v 0.03515297 0.01846833 0.12312172
v 0.03412376 0.01795705 0.08987971
v 0.02844278 0.02787629 0.12184340
v 0.01894076 0.03523732 0.12313613
v 0.03234834 0.01917643 0.12307550
v 0.02219616 0.03185795 0.08856599
v 0.02848638 0.02788895 0.12317793
v 0.03118620 0.02285804 0.08856317
v 0.03408834 0.02049110 0.12316691
v 0.01966859 0.03118956 0.08848246
v 0.02227891 0.03318462 0.12316453
v 0.03102028 0.02409352 0.10588220
v 0.02728481 0.02771870 0.09655207
v 0.01991503 0.03468312 0.12315552
v 0.03359458 0.01902173 0.08989547
v 0.02018525 0.03200339 0.12305900
v 0.01897940 0.03403316 0.08852744
v 0.03099307 0.01921526 0.08846354
v 0.02455751 0.03041565 0.09922273
v 0.03254198 0.02291493 0.12317523
v 0.02848201 0.02653529 0.09788062
v 0.03382366 0.01846975 0.08851461
v 0.03274701 0.02047052 0.08854635
v 0.01864271 0.03481291 0.10585100
v 0.01990758 0.03346842 0.08854837
v 0.02996479 0.02079443 0.08845519
v 0.02339390 0.03163645 0.10589369
v 0.02978969 0.02521966 0.10055731
v 0.02087921 0.03292272 0.09122300
f 5 2 1
f 9 5 1
f 12 3 7
f 13 8 6
f 14 4 5
f 14 5 9
f 14 7 11
f 15 9 1
f 16 5 4
f 17 6 8
f 17 4 14
f 18 2 5
f 18 16 10
f 18 5 16
f 19 11 7
f 19 7 3
f 19 13 6
f 19 3 13
f 20 8 12
f 20 12 7
f 20 14 9
f 20 7 14
f 21 8 13
f 21 13 3
f 22 15 1
f 22 1 2
f 22 2 18
f 23 9 15
f 23 20 9
f 23 8 20
f 23 22 8
f 23 15 22
f 24 16 4
f 24 10 16
f 24 17 10
f 24 4 17
f 25 17 14
f 25 14 11
f 25 6 17
f 26 18 10
f 26 10 17
f 26 22 18
f 26 17 8
f 26 8 22
f 27 19 6
f 27 6 11
f 27 11 19
f 28 12 8
f 28 8 21
f 28 21 3
f 28 3 12
f 29 25 11
f 29 11 6
f 29 6 25

