# https://github.com/mikedh/trimesh
v 0.00598914 0.03625270 0.08051333
v 0.00611416 0.03416849 0.01792983
v 0.00579224 0.03644892 0.01798705
v -0.00732204 0.03811657 0.08053361
v -0.01048109 0.03434095 0.05253080
v 0.00568514 0.03835487 0.08055820
v 0.00618064 0.03577185 0.06717645
v -0.00744541 0.03603899 0.08051846
v -0.00754429 0.03400245 0.01795995
v -0.00067671 0.03706776 0.02067387
v 0.00618912 0.03442632 0.02593340
v -0.01017377 0.03502248 0.06986076
v -0.00583641 0.03836133 0.08055578
v -0.00720403 0.03627785 0.01799061
v -0.01029544 0.03386226 0.03525059
v 0.00438960 0.03835251 0.07125100
v -0.00976478 0.03732978 0.06991069
v -0.00453114 0.03832857 0.06991552
v 0.00567158 0.03827050 0.07656670
v 0.00183550 0.03704917 0.02333865
v -0.00200124 0.03837807 0.06458920
v -0.00712606 0.03690398 0.03666648
v -0.00981168 0.03626497 0.03530783
v -0.00463116 0.03702201 0.02865510
v -0.00582167 0.03828055 0.07656917
v 0.00049803 0.03705499 0.02066613
v -0.00961450 0.03688519 0.05262082
v -0.00197025 0.03703026 0.02199617
v 0.00183072 0.03835816 0.06459736
f 7 6 1
f 7 3 6
f 7 1 5
f 8 1 6
f 11 2 3
f 11 3 7
f 11 7 5
f 11 5 2
f 12 5 1
f 12 1 8
f 12 8 4
f 13 8 6
f 13 4 8
f 14 3 2
f 14 2 9
f 14 10 3
f 15 9 2
f 15 2 5
f 15 14 9
f 17 12 4
f 17 5 12
f 19 16 6
f 19 6 3
f 19 3 16
f 20 16 3
f 21 13 6
f 21 6 16
f 21 18 13
f 23 15 5
f 23 5 17
f 23 14 15
f 24 22 18
f 24 14 22
f 24 18 21
f 25 4 13
f 25 13 18
f 25 22 4
f 25 18 22
f 26 20 3
f 26 3 10
f 27 17 4
f 27 4 22
f 27 23 17
f 27 22 14
f 27 14 23
f 28 10 14
f 28 14 24
f 28 24 21
f 28 21 10
f 29 16 20
f 29 20 26
f 29 21 16
f 29 26 10
f 29 10 21

