# https://github.com/mikedh/trimesh
v 0.03396883 -0.01046673 0.01003884
v 0.03499414 -0.00520035 0.00604408
v 0.03115631 0.01770803 0.01002458
v 0.01124367 0.01849446 0.00884659
v 0.01123589 -0.00679867 0.00885078
v 0.03106365 0.01765372 0.00604086
v 0.03518946 0.00496432 0.01002503
v 0.03383947 -0.01041929 0.00603254
v 0.03515373 -0.00523891 0.01003892
v 0.03376079 0.01133602 0.01002811
v 0.03506752 0.00494763 0.00603449
v 0.01922992 -0.01079188 0.00881777
v 0.03233533 0.01514421 0.01003489
v 0.03364375 0.01133146 0.00603131
v 0.03225978 0.01514968 0.00736391
f 5 1 3
f 5 3 4
f 6 4 3
f 6 5 4
f 8 5 6
f 9 8 2
f 9 1 8
f 11 2 8
f 11 9 2
f 11 7 9
f 12 8 1
f 12 1 5
f 12 5 8
f 13 3 1
f 13 1 9
f 13 9 7
f 13 7 10
f 14 10 7
f 14 7 11
f 14 11 8
f 14 8 6
f 15 6 3
f 15 3 13
f 15 14 6
f 15 13 10
f 15 10 14

