# https://github.com/mikedh/trimesh
v 0.01979846 0.03280935 0.13636517
v 0.01966859 0.03118956 0.08848246
v 0.01839649 0.03437626 0.08856336
v 0.00717888 0.03932329 0.13835281
v 0.00602366 0.03641782 0.08582917
v 0.01845076 0.03569514 0.13820184
v 0.01986505 0.03137039 0.09913079
v 0.00741581 0.03804813 0.13819431
v 0.00971645 0.03768944 0.08587808
v 0.01839768 0.03551942 0.12316710
v 0.00604335 0.03651301 0.08847673
v 0.01941122 0.03347090 0.13817141
v 0.01021527 0.03545452 0.08580714
v 0.00569934 0.03849480 0.08589475
v 0.01460931 0.03684734 0.10852108
v 0.01075400 0.03818536 0.10985288
v 0.00571423 0.03858213 0.08855385
v 0.00892915 0.03578442 0.08580386
v 0.01716074 0.03552155 0.10320848
v 0.01588933 0.03563325 0.08855876
v 0.01582424 0.03685690 0.12581610
v 0.01336375 0.03682208 0.09389754
v 0.00827616 0.03823312 0.09254853
v 0.01208363 0.03817878 0.12315859
v 0.01212348 0.03704848 0.08855438
v 0.00695032 0.03827960 0.08590149
v 0.01209854 0.03825401 0.13817954
v 0.01588685 0.03689138 0.13819813
f 7 2 3
f 7 3 1
f 7 5 2
f 7 1 5
f 9 3 2
f 10 6 1
f 10 1 3
f 11 5 1
f 11 1 8
f 11 8 4
f 12 6 4
f 12 4 8
f 12 8 1
f 12 1 6
f 13 9 2
f 13 2 5
f 17 11 4
f 17 4 16
f 17 14 5
f 17 5 11
f 18 13 5
f 18 5 14
f 18 14 9
f 18 9 13
f 19 10 3
f 20 3 9
f 20 19 3
f 21 6 10
f 21 10 19
f 21 20 15
f 21 19 20
f 22 15 20
f 23 17 16
f 23 16 9
f 24 21 15
f 24 16 4
f 24 22 16
f 24 15 22
f 25 9 16
f 25 16 22
f 25 22 20
f 25 20 9
f 26 23 9
f 26 9 14
f 26 14 17
f 26 17 23
f 27 24 4
f 27 21 24
f 28 27 4
f 28 4 6
f 28 6 21
f 28 21 27

