# https://github.com/mikedh/trimesh
v -0.01138500 0.00784491 0.00891395
v -0.00739559 0.01184470 0.00229009
v -0.00739745 0.01849622 0.00889181
v -0.01804018 0.01850201 0.00892626
v -0.01818590 0.00789654 0.00171381
v -0.01804950 0.01850291 0.00087502
v -0.00739722 0.01183878 0.00888341
v -0.01139368 0.00785048 0.00226923
v -0.01803879 0.00783865 0.00891614
v -0.00748017 0.01868098 0.00182888
f 1 3 4
f 6 5 4
f 7 1 2
f 7 2 3
f 7 3 1
f 8 2 1
f 8 6 2
f 8 5 6
f 9 1 4
f 9 4 5
f 9 8 1
f 9 5 8
f 10 3 2
f 10 2 6
f 10 6 4
f 10 4 3

