# https://github.com/mikedh/trimesh
v 0.03312507 0.01158596 0.05394584
v 0.03304138 0.01156759 0.05126651
v 0.03290007 0.01800334 0.05928317
v 0.02715835 0.02642823 0.05923347
v 0.02817573 0.02180923 0.05919661
v 0.02972849 0.02270606 0.05130219
v 0.02983159 0.01924676 0.05918803
v 0.02994146 0.02300232 0.05930428
v 0.03260492 0.01785316 0.05129919
v 0.02699004 0.02628500 0.05391828
v 0.03236469 0.01907091 0.05931445
v 0.02772007 0.02578116 0.05927646
v 0.03105747 0.01648617 0.05119534
v 0.03225163 0.01900753 0.05663790
v 0.02926410 0.02332986 0.05127677
v 0.03276308 0.01237668 0.05120381
v 0.02862008 0.02076481 0.05382199
v 0.02754496 0.02563701 0.05396384
f 1 2 3
f 5 2 1
f 7 5 1
f 7 1 3
f 9 3 2
f 10 5 4
f 11 7 3
f 11 5 7
f 11 3 9
f 11 6 8
f 12 4 5
f 12 11 8
f 12 5 11
f 12 10 4
f 14 11 9
f 14 9 6
f 14 6 11
f 15 12 8
f 15 8 6
f 15 13 10
f 15 6 9
f 15 9 13
f 16 13 9
f 16 9 2
f 16 2 13
f 17 13 2
f 17 2 5
f 17 5 10
f 17 10 13
f 18 15 10
f 18 10 12
f 18 12 15

