# https://github.com/mikedh/trimesh
v 0.03743178 -0.01069304 0.10583203
v 0.03637536 -0.00658598 0.05130162
v 0.03788113 0.01020612 0.11518257
v 0.03537946 0.01190004 0.11512593
v 0.03391505 -0.01080248 0.06721486
v 0.03613298 0.00775860 0.05125929
v 0.03666037 -0.00681699 0.11512898
v 0.03858391 -0.00673047 0.11515660
v 0.03606148 -0.01066721 0.06723499
v 0.03736085 0.01168622 0.11115753
v 0.03404504 0.00788715 0.05123682
v 0.03512247 -0.01116798 0.10310385
v 0.03632320 -0.00781830 0.05661507
v 0.03535974 -0.01082955 0.10580712
v 0.03779875 0.00111503 0.08189854
v 0.03429361 -0.00688944 0.05122317
v 0.03748504 0.01172375 0.11514638
v 0.03525884 0.01185836 0.11113877
v 0.03771450 0.00499659 0.08723125
v 0.03780905 -0.00141172 0.08189934
v 0.03642074 0.00631900 0.05129799
v 0.03778678 -0.00271277 0.08322705
v 0.03776829 0.00244657 0.08323322
v 0.03629129 0.00750092 0.05396571
v 0.03767267 0.00631261 0.09123012
f 7 3 4
f 8 3 7
f 10 3 6
f 12 9 1
f 12 5 9
f 12 4 5
f 13 8 1
f 13 2 8
f 13 9 2
f 13 1 9
f 14 8 7
f 14 1 8
f 14 12 1
f 14 7 4
f 14 4 12
f 16 9 5
f 16 2 9
f 16 5 11
f 16 11 6
f 16 6 2
f 17 10 4
f 17 4 3
f 17 3 10
f 18 11 5
f 18 5 4
f 18 4 10
f 18 10 6
f 18 6 11
f 20 15 8
f 21 2 6
f 21 20 2
f 21 15 20
f 22 20 8
f 22 8 2
f 22 2 20
f 23 21 19
f 23 15 21
f 23 8 15
f 23 19 3
f 23 3 8
f 24 21 6
f 24 6 3
f 24 3 21
f 25 21 3
f 25 3 19
f 25 19 21

