# https://github.com/mikedh/trimesh
v -0.00736307 -0.03859543 0.09783499
v -0.00736554 -0.03597004 0.01530678
v -0.00775461 -0.03343356 0.01516811
v -0.01162897 -0.03555956 0.09778798
v -0.01105404 -0.03775208 0.09786724
v -0.01147703 -0.03235267 0.01527230
v -0.00751264 -0.03669069 0.09779954
v -0.00843218 -0.03719588 0.05927828
v -0.01103331 -0.03499614 0.01531312
v -0.01177369 -0.03463873 0.07781876
v -0.00709817 -0.03612413 0.02067347
v -0.00714731 -0.03743559 0.05927029
v -0.01086383 -0.03716764 0.07790873
v -0.00774931 -0.03630777 0.09111222
v -0.01177305 -0.03333296 0.04321538
v -0.00773766 -0.03497839 0.05649985
f 7 5 1
f 7 4 5
f 8 1 5
f 9 6 3
f 9 3 2
f 9 2 8
f 10 9 5
f 10 5 4
f 11 2 3
f 11 3 7
f 12 8 2
f 12 1 8
f 12 2 11
f 12 11 7
f 12 7 1
f 13 9 8
f 13 8 5
f 13 5 9
f 14 10 4
f 14 4 7
f 15 10 6
f 15 6 9
f 15 9 10
f 16 14 7
f 16 7 3
f 16 3 6
f 16 6 10
f 16 10 14

