# https://github.com/mikedh/trimesh
v -0.02415861 -0.02751396 0.01798872
v -0.02397674 -0.02604836 0.00033174
v -0.02601910 -0.00940574 0.00898232
v -0.03493482 -0.00935738 0.01798259
v -0.03107107 -0.01783236 0.00216871
v -0.03256524 -0.00976246 0.01791304
v -0.02481273 -0.01751587 0.00909822
v -0.02725129 -0.02420320 0.01007181
v -0.02476770 -0.01748453 0.00037673
v -0.03461086 -0.00925663 0.00602765
v -0.02588779 -0.02248903 0.01786263
v -0.02487650 -0.02685091 0.01801155
v -0.02849656 -0.02161959 0.00111615
v -0.02402585 -0.02735117 0.00870205
v -0.03008937 -0.02061360 0.01802042
v -0.03373698 -0.01293250 0.01137958
v -0.03079489 -0.01714706 0.00034940
v -0.02476222 -0.02669096 0.00874696
v -0.02976712 -0.02042063 0.00611065
v -0.02738357 -0.02426831 0.01801234
v -0.03394154 -0.01162237 0.00605170
v -0.03387037 -0.01295752 0.01799805
v -0.03247774 -0.01539271 0.00608425
v -0.02988478 -0.01924533 0.00065625
v -0.02592884 -0.02545799 0.00742460
v -0.02726088 -0.02294207 0.00064959
v -0.02488395 -0.02561851 0.00069837
f 6 3 4
f 7 1 2
f 7 3 1
f 9 7 2
f 9 3 7
f 10 4 3
f 10 3 9
f 11 6 1
f 11 1 3
f 11 3 6
f 12 6 4
f 12 1 6
f 14 2 1
f 15 12 4
f 16 4 10
f 17 10 9
f 17 9 2
f 18 12 8
f 18 14 1
f 18 1 12
f 19 13 8
f 19 8 15
f 19 15 5
f 19 5 13
f 20 15 8
f 20 8 12
f 20 12 15
f 21 16 10
f 21 17 5
f 21 10 17
f 22 15 4
f 22 4 16
f 23 5 15
f 23 22 16
f 23 15 22
f 23 21 5
f 23 16 21
f 24 13 5
f 24 5 17
f 25 18 8
f 25 8 13
f 26 24 17
f 26 17 2
f 26 13 24
f 26 25 13
f 27 2 14
f 27 14 18
f 27 18 25
f 27 26 2
f 27 25 26

