# https://github.com/mikedh/trimesh
v -0.02409886 -0.03129560 0.10585015
v -0.02429570 -0.02895083 0.05392890
v -0.02966129 -0.01936799 0.05386949
v -0.03379626 -0.01998651 0.10582334
v -0.02993954 -0.02556653 0.10588032
v -0.03264622 -0.01875720 0.05390744
v -0.03081096 -0.02063867 0.10577209
v -0.02548155 -0.02481745 0.05387593
v -0.02742742 -0.02800730 0.09789856
v -0.03386423 -0.01869613 0.08851685
v -0.02987942 -0.02314780 0.05396120
v -0.02478495 -0.03075787 0.10588376
v -0.03262982 -0.02187429 0.10588078
v -0.02401620 -0.03000677 0.07257158
v -0.02601348 -0.02675878 0.10575880
v -0.02748493 -0.02259095 0.05386763
v -0.03297562 -0.01822032 0.05526908
v -0.03094257 -0.01939326 0.08849080
v -0.02858794 -0.02550143 0.07126817
v -0.02508919 -0.02829211 0.05395647
v -0.02992411 -0.02419743 0.07657618
v -0.03152266 -0.02073221 0.05394495
v -0.02404661 -0.03121896 0.10319337
v -0.02859019 -0.02686708 0.10055578
v -0.02723049 -0.02684041 0.06862521
v -0.03242250 -0.01925298 0.05528549
v -0.03111231 -0.02172301 0.06061928
f 10 4 7
f 11 6 2
f 13 7 4
f 13 12 7
f 13 5 12
f 14 2 8
f 14 1 12
f 15 12 1
f 15 7 12
f 16 6 3
f 16 3 8
f 16 8 2
f 16 2 6
f 17 6 4
f 17 4 10
f 17 3 6
f 18 10 7
f 18 17 10
f 18 3 17
f 18 7 15
f 18 15 8
f 18 8 3
f 20 12 9
f 20 14 12
f 20 2 14
f 20 11 2
f 21 13 11
f 21 5 13
f 21 19 5
f 21 11 19
f 22 13 4
f 22 6 11
f 23 14 8
f 23 1 14
f 23 15 1
f 23 8 15
f 24 19 9
f 24 5 19
f 24 12 5
f 24 9 12
f 25 20 9
f 25 9 19
f 25 19 11
f 25 11 20
f 26 22 4
f 26 4 6
f 26 6 22
f 27 22 11
f 27 11 13
f 27 13 22

