# https://github.com/mikedh/trimesh
v 0.01847567 0.03150600 0.07915981
v 0.01808702 0.02942088 0.01796643
v 0.01708360 0.03418277 0.06195655
v 0.00591973 0.03845573 0.08585109
v 0.00602366 0.03641782 0.08582917
v 0.00579224 0.03644892 0.01798705
v 0.01484422 0.03608856 0.08854590
v 0.01736251 0.03223817 0.01799478
v 0.01850559 0.03015525 0.04587249
v 0.00568863 0.03714269 0.04064654
v 0.00611416 0.03416849 0.01792983
v 0.01734967 0.03469393 0.08056499
v 0.01547048 0.03359318 0.08849071
v 0.00973135 0.03777523 0.08853405
v 0.01326289 0.03424424 0.01801038
v 0.00625264 0.03468795 0.03656628
v 0.01456677 0.03550468 0.06593397
v 0.01212348 0.03704848 0.08855438
v 0.01018969 0.03557256 0.08846871
v 0.00946088 0.03688259 0.05529821
v 0.01581734 0.03311330 0.01800004
v 0.01204966 0.03685519 0.08056888
v 0.00947445 0.03554854 0.01800916
v 0.01072154 0.03690265 0.06725471
v 0.01196832 0.03552544 0.03932875
f 9 1 5
f 9 2 8
f 10 5 4
f 10 4 6
f 11 10 6
f 11 5 10
f 11 8 2
f 12 8 3
f 12 9 8
f 12 1 9
f 13 5 1
f 13 12 7
f 13 1 12
f 14 4 5
f 16 9 5
f 16 5 11
f 16 11 2
f 16 2 9
f 17 12 3
f 17 7 12
f 18 13 7
f 19 14 5
f 19 5 13
f 19 18 14
f 19 13 18
f 20 6 4
f 20 4 14
f 21 3 8
f 21 6 15
f 21 11 6
f 21 8 11
f 21 17 3
f 21 15 17
f 22 18 7
f 22 7 17
f 23 15 6
f 23 6 20
f 24 22 17
f 24 20 14
f 24 14 18
f 24 18 22
f 25 23 20
f 25 20 24
f 25 15 23
f 25 24 17
f 25 17 15

