# https://github.com/mikedh/trimesh
v 0.03008414 -0.01944183 0.01004979
v 0.03310100 -0.01055394 0.00033456
v 0.03396883 -0.01046673 0.01003884
v -0.01136543 -0.01078610 0.00896051
v -0.01141392 -0.02015527 0.00110796
v -0.01138704 -0.01079449 0.00211351
v 0.03221622 -0.01412083 0.00108366
v -0.01137167 -0.02011080 0.00896189
v 0.03391750 -0.01044044 0.00869213
v -0.01143059 -0.01218662 0.00204461
v 0.03362088 -0.01159647 0.01004686
v 0.02902822 -0.01952183 0.00039747
v 0.03357941 -0.01154705 0.00872394
v 0.03237045 -0.01288096 0.00042632
v 0.02966627 -0.01917321 0.00108263
v 0.01800364 -0.02021782 0.00068954
v 0.02992230 -0.01806952 0.00046060
v 0.00059493 -0.02010950 0.00891097
f 6 2 5
f 8 1 4
f 9 2 6
f 9 7 2
f 9 6 4
f 9 4 3
f 10 6 5
f 10 4 6
f 10 8 4
f 10 5 8
f 11 1 7
f 11 3 4
f 11 4 1
f 12 5 2
f 13 11 7
f 13 7 9
f 13 9 3
f 13 3 11
f 14 12 2
f 14 2 7
f 15 7 1
f 15 1 12
f 16 8 5
f 16 5 12
f 16 12 1
f 17 14 7
f 17 12 14
f 17 15 12
f 17 7 15
f 18 16 1
f 18 1 8
f 18 8 16

