# https://github.com/mikedh/trimesh
v -0.01240097 -0.03777441 0.11117189
v -0.01103356 -0.03631782 0.05394513
v -0.01170065 -0.03571894 0.10312721
v -0.02674418 -0.02605322 0.10710670
v -0.02364082 -0.02950378 0.05396592
v -0.01197533 -0.03366485 0.05384344
v -0.01300143 -0.03542742 0.11112113
v -0.01111380 -0.03793159 0.10318460
v -0.01726496 -0.03445856 0.07126732
v -0.02670131 -0.02601610 0.10577810
v -0.01592730 -0.03446731 0.05397022
v -0.02615151 -0.02689684 0.11113449
v -0.01342797 -0.03579509 0.06062962
v -0.01098764 -0.03750526 0.09122534
v -0.02479279 -0.02553155 0.05390229
v -0.02178392 -0.02826166 0.05384014
v -0.02092489 -0.03189948 0.06196960
v -0.02491168 -0.03089439 0.11119289
v -0.01223122 -0.03592786 0.05396155
v -0.01591981 -0.03579990 0.09257474
v -0.01838354 -0.03317216 0.05529868
v -0.01353918 -0.03736917 0.11118521
v -0.02131647 -0.03357334 0.11119254
v -0.01471257 -0.03578777 0.07526207
v -0.02225219 -0.03054781 0.05397392
v -0.01847305 -0.03449091 0.09123331
v -0.01971607 -0.03319200 0.07527033
f 6 3 2
f 7 3 4
f 8 7 1
f 8 3 7
f 10 4 3
f 10 3 6
f 11 6 2
f 12 7 4
f 13 8 1
f 13 2 8
f 14 8 2
f 14 2 3
f 14 3 8
f 15 10 6
f 15 5 4
f 15 4 10
f 16 6 11
f 16 15 6
f 16 5 15
f 18 12 4
f 18 4 5
f 18 5 17
f 19 13 11
f 19 11 2
f 19 2 13
f 21 11 9
f 22 12 18
f 22 1 7
f 22 7 12
f 22 13 1
f 23 18 17
f 23 22 18
f 23 20 22
f 24 20 9
f 24 9 11
f 24 11 13
f 24 22 20
f 24 13 22
f 25 21 17
f 25 17 5
f 25 11 21
f 25 16 11
f 25 5 16
f 26 9 20
f 26 20 23
f 27 21 9
f 27 26 23
f 27 9 26
f 27 23 17
f 27 17 21

