# https://github.com/mikedh/trimesh
v -0.02515198 0.02829932 0.12310207
v -0.00762402 0.03558417 0.06983372
v -0.00761299 0.03684931 0.10311181
v -0.01136301 0.03840032 0.12312111
v -0.02414751 0.02979180 0.06990199
v -0.00727224 0.03787130 0.06989460
v -0.01154609 0.03631236 0.12311409
v -0.02536130 0.02579353 0.06984110
v -0.02236426 0.03312744 0.12316152
v -0.00713900 0.03849506 0.09254528
v -0.01474042 0.03559723 0.06992566
v -0.00718316 0.03883478 0.10318761
v -0.02462766 0.02649815 0.06981308
v -0.02537385 0.02718883 0.09913908
v -0.02385746 0.03201394 0.12315471
v -0.01485035 0.03715009 0.12315587
v -0.01089942 0.03701277 0.06992084
v -0.01981689 0.03293957 0.06993413
v -0.02540002 0.02583090 0.07116995
v -0.02352066 0.03034050 0.07125976
v -0.00965912 0.03827823 0.10321716
v -0.01217670 0.03683945 0.07923341
v -0.01966640 0.03424444 0.10455302
v -0.02223571 0.03294096 0.11519483
v -0.01723366 0.03551772 0.10454429
v -0.01597026 0.03554465 0.08588645
f 7 1 3
f 8 2 3
f 9 1 7
f 10 3 2
f 10 2 6
f 11 6 2
f 12 7 3
f 12 4 7
f 12 3 10
f 12 10 6
f 13 8 5
f 13 2 8
f 13 11 2
f 13 5 11
f 15 1 9
f 15 14 1
f 15 5 14
f 16 9 7
f 16 7 4
f 17 6 11
f 18 11 5
f 19 1 14
f 19 8 3
f 19 3 1
f 19 14 5
f 19 5 8
f 20 5 15
f 20 18 5
f 21 12 6
f 21 6 17
f 21 17 4
f 21 4 12
f 22 16 4
f 22 4 17
f 22 17 11
f 22 11 16
f 23 9 16
f 24 20 15
f 24 15 9
f 24 18 20
f 24 23 18
f 24 9 23
f 25 23 16
f 26 11 18
f 26 18 23
f 26 23 25
f 26 25 16
f 26 16 11

