# https://github.com/mikedh/trimesh
v -0.03424503 -0.01085330 0.06987014
v -0.03355348 -0.01107660 0.05386307
v -0.03596788 0.00257282 0.08050416
v -0.03798539 0.00243598 0.08054940
v -0.03591495 -0.01060177 0.05393293
v -0.03552737 -0.00683271 0.08052102
v -0.03395659 -0.01115490 0.06450102
v -0.03541931 -0.00019769 0.05386852
v -0.03653053 -0.01040489 0.06994235
v -0.03563581 0.00254643 0.06986905
v -0.03394938 -0.00975682 0.05384980
v -0.03732203 -0.00010392 0.05392709
v -0.03757039 -0.00673023 0.08053647
v -0.03771880 0.00250645 0.06988979
v -0.03799039 -0.00271175 0.08055607
v -0.03656069 -0.00783995 0.05395073
v -0.03794784 -0.00140181 0.07523353
v -0.03641948 -0.00907520 0.05794930
v -0.03793360 -0.00271383 0.07789328
v -0.03794290 0.00111594 0.07523072
v -0.03790006 0.00243938 0.07656965
f 6 1 3
f 6 3 4
f 7 2 3
f 7 3 1
f 7 5 2
f 9 7 1
f 9 5 7
f 10 3 2
f 10 2 8
f 11 8 2
f 11 2 5
f 12 10 8
f 12 11 5
f 12 8 11
f 13 9 1
f 13 1 6
f 14 4 3
f 14 3 10
f 14 10 12
f 15 13 6
f 15 6 4
f 16 12 5
f 16 9 13
f 17 15 4
f 18 16 5
f 18 5 9
f 18 9 16
f 19 16 13
f 19 13 15
f 19 15 17
f 19 17 12
f 19 12 16
f 20 14 12
f 20 12 17
f 20 17 4
f 21 20 4
f 21 4 14
f 21 14 20

