# https://github.com/mikedh/trimesh
v -0.03228929 0.02355640 0.13833856
v -0.01154609 0.03631236 0.12311409
v -0.01168617 0.03698800 0.13813398
v -0.01100744 0.03859834 0.13820371
v -0.02236426 0.03312744 0.12316152
v -0.02882014 0.02505717 0.13364545
v -0.02492603 0.03163131 0.13810790
v -0.01136301 0.03840032 0.12312111
v -0.02978481 0.02471440 0.13804663
v -0.03220179 0.02348441 0.12313877
v -0.02110255 0.03430979 0.13810137
v -0.01096731 0.03856977 0.12448171
v -0.02847336 0.02479536 0.12308277
v -0.02856661 0.02792212 0.12318009
v -0.02481471 0.03170708 0.13386899
v -0.01857067 0.03552378 0.12450120
v -0.01317716 0.03570321 0.12307982
v -0.03131636 0.02536391 0.13808651
v -0.02101719 0.03423309 0.12850116
v -0.02744638 0.02902200 0.12451460
v -0.01485035 0.03715009 0.12315587
v -0.03157777 0.02437987 0.12316381
v -0.01220456 0.03816297 0.12449253
v -0.01600554 0.03689345 0.13813027
v -0.03124932 0.02525489 0.13249340
v -0.01220504 0.03825622 0.13814966
v -0.01606375 0.03684120 0.12981101
f 1 3 4
f 3 2 4
f 6 2 3
f 9 6 3
f 9 3 1
f 11 7 1
f 12 4 2
f 12 2 8
f 13 9 1
f 13 6 9
f 13 1 10
f 13 2 6
f 13 10 5
f 14 5 10
f 15 7 11
f 17 8 2
f 17 2 13
f 17 13 5
f 17 5 8
f 18 10 1
f 18 1 7
f 18 15 14
f 18 7 15
f 19 15 11
f 19 5 15
f 19 16 5
f 19 11 16
f 20 15 5
f 20 5 14
f 20 14 15
f 21 8 5
f 21 5 16
f 22 14 10
f 23 12 8
f 23 8 21
f 24 11 1
f 24 1 4
f 25 18 14
f 25 14 22
f 25 22 10
f 25 10 18
f 26 4 12
f 26 12 23
f 26 24 4
f 27 21 16
f 27 16 11
f 27 11 24
f 27 23 21
f 27 26 23
f 27 24 26

