# https://github.com/mikedh/trimesh
v -0.02098471 -0.03258862 0.13813111
v -0.01941252 -0.03215227 0.11113789
v -0.03256148 -0.02077859 0.13809818
v -0.03480992 -0.01982831 0.13819999
v -0.02621243 -0.02946934 0.10587743
v -0.01969973 -0.03266922 0.12975801
v -0.02491168 -0.03089439 0.11119289
v -0.03081096 -0.02063867 0.10577209
v -0.02546859 -0.03012948 0.10584603
v -0.02612430 -0.03063477 0.13811452
v -0.03156138 -0.02121130 0.13101099
v -0.03379626 -0.01998651 0.10582334
v -0.02735875 -0.02525413 0.10574099
v -0.02614594 -0.03065159 0.13513045
v -0.03367758 -0.02179154 0.13819589
v -0.03425349 -0.01955091 0.11250689
v -0.02993954 -0.02556653 0.10588032
v -0.02858794 -0.02821992 0.12849383
v -0.03377532 -0.02176756 0.13382392
v -0.02742589 -0.02934971 0.12982657
v -0.02989663 -0.02690475 0.13813864
v -0.03113814 -0.02436728 0.11119486
v -0.03262982 -0.02187429 0.10588078
v -0.02986686 -0.02688374 0.13384239
f 1 3 4
f 6 3 1
f 7 6 1
f 7 2 6
f 8 6 2
f 8 4 3
f 9 7 5
f 9 2 7
f 11 8 3
f 11 3 6
f 11 6 8
f 13 8 2
f 13 2 9
f 13 12 8
f 13 9 12
f 14 7 1
f 14 1 10
f 15 10 1
f 15 1 4
f 16 4 8
f 16 8 12
f 17 12 9
f 17 9 5
f 18 5 7
f 18 17 5
f 19 15 4
f 19 4 16
f 19 16 12
f 20 18 7
f 20 7 14
f 20 14 18
f 21 18 14
f 21 14 10
f 21 10 15
f 21 15 19
f 22 17 18
f 23 22 19
f 23 19 12
f 23 12 17
f 23 17 22
f 24 21 19
f 24 19 22
f 24 22 18
f 24 18 21

