# https://github.com/mikedh/trimesh
v 0.03382366 0.01846975 0.08851461
v 0.03358749 0.01834659 0.08053714
v 0.02206214 0.03165879 0.08057019
v 0.01484422 0.03608856 0.08854590
v 0.03099307 0.01921526 0.08846354
v 0.01588753 0.03303078 0.08047700
v 0.02890406 0.02563628 0.08855278
v 0.02999605 0.02407642 0.08055846
v 0.01519391 0.03570420 0.08052999
v 0.01600725 0.03331773 0.08843932
v 0.03078994 0.01908191 0.08049839
v 0.02219616 0.03185795 0.08856599
v 0.03118620 0.02285804 0.08856317
v 0.01478693 0.03595858 0.08322203
v 0.01839649 0.03437626 0.08856336
v 0.03274701 0.02047052 0.08854635
v 0.01588933 0.03563325 0.08855876
v 0.01734967 0.03469393 0.08056499
v 0.03251100 0.02033020 0.08057916
v 0.01830229 0.03419548 0.08191937
v 0.01582641 0.03550270 0.08323668
v 0.03100503 0.02276256 0.08190686
f 8 6 3
f 8 3 7
f 9 3 6
f 10 6 5
f 10 5 4
f 10 4 6
f 11 5 6
f 11 2 1
f 11 1 5
f 11 8 2
f 11 6 8
f 12 7 3
f 13 8 7
f 13 7 12
f 14 9 6
f 14 6 4
f 14 4 9
f 15 13 12
f 15 12 3
f 16 1 2
f 16 5 1
f 16 4 5
f 17 9 4
f 17 13 15
f 17 16 13
f 17 4 16
f 18 3 9
f 18 17 15
f 19 16 2
f 19 2 8
f 20 18 15
f 20 15 3
f 20 3 18
f 21 18 9
f 21 9 17
f 21 17 18
f 22 19 8
f 22 8 13
f 22 13 16
f 22 16 19

