# https://github.com/mikedh/trimesh
v -0.08070171 -0.03092390 0.07694220
v -0.07897878 -0.03029173 0.06456521
v -0.08243019 -0.01773591 0.12759846
v -0.08586601 0.01966122 0.12708651
v -0.08810583 0.00105296 0.07448927
v -0.07956302 0.02028041 0.05499121
v -0.08443912 -0.02616374 0.07145379
v -0.08790008 -0.01395681 0.12067346
v -0.08227942 0.02012574 0.12757816
v -0.08801318 0.01956783 0.09618308
v -0.08248768 -0.02941798 0.06510740
v -0.08632714 -0.01733426 0.12720695
v -0.08795226 -0.01706191 0.08684879
v -0.08299009 0.01977022 0.05559859
v -0.08226473 0.02029610 0.07048883
v -0.08799620 0.01958432 0.10546185
v -0.08408489 -0.02992200 0.07729155
v -0.08465187 -0.01400514 0.05899929
v -0.08799418 0.00732987 0.12385480
v -0.08797995 -0.01706150 0.11467745
v -0.08807364 0.01049996 0.07751696
v -0.08491052 0.01957306 0.06521413
v -0.08518709 -0.02632311 0.07749279
v -0.08336596 -0.01738827 0.05552625
v -0.08465837 0.00732704 0.05588444
v -0.08809390 -0.01097844 0.07754534
v -0.08801648 -0.00808810 0.12385632
v -0.08791699 0.01323009 0.12068546
v -0.08803560 0.01637739 0.11463355
v -0.08803920 0.01643622 0.08684375
v -0.08016928 -0.01794330 0.05484923
v -0.08475567 -0.00491313 0.05586467
v -0.08479649 0.01318652 0.05905873
v -0.08797123 -0.01395556 0.08064917
v -0.08801276 0.01328953 0.08068501
v -0.08810018 -0.00182134 0.07451538
f 1 2 3
f 9 3 2
f 9 2 6
f 11 2 1
f 12 9 4
f 12 3 9
f 12 1 3
f 15 9 6
f 15 6 14
f 16 4 9
f 16 15 10
f 16 9 15
f 17 11 1
f 17 7 11
f 17 1 12
f 19 12 4
f 20 17 12
f 20 12 8
f 22 15 14
f 22 10 15
f 23 7 17
f 23 20 13
f 23 17 20
f 24 11 7
f 24 7 18
f 24 2 11
f 25 5 21
f 26 13 20
f 26 18 7
f 27 8 12
f 27 12 19
f 27 20 8
f 27 26 20
f 27 5 26
f 28 19 4
f 29 27 19
f 29 5 27
f 29 21 5
f 29 16 10
f 29 19 28
f 29 28 4
f 29 4 16
f 30 10 22
f 30 29 10
f 30 21 29
f 31 6 2
f 31 2 24
f 31 14 6
f 31 25 14
f 31 24 25
f 32 5 25
f 32 18 26
f 32 25 24
f 32 24 18
f 33 22 14
f 33 14 25
f 33 25 21
f 33 21 22
f 34 23 13
f 34 13 26
f 34 26 7
f 34 7 23
f 35 30 22
f 35 22 21
f 35 21 30
f 36 32 26
f 36 26 5
f 36 5 32

