# https://github.com/mikedh/trimesh
v 0.03268477 -0.01193087 0.26320209
v 0.04809311 -0.00179726 0.23059238
v 0.03157122 0.01863193 0.27227207
v 0.01210621 0.04141310 0.25011632
v 0.00634024 0.04030368 0.24762127
v 0.03441810 0.03900951 0.21890087
v 0.03469031 0.01075092 0.27244983
v 0.03600500 -0.01181032 0.25087195
v 0.01146025 0.03667812 0.27229704
v 0.02657704 0.04106434 0.22640232
v 0.04410341 -0.00207927 0.23292412
v 0.03594033 -0.01095081 0.26267742
v 0.04089383 0.02763433 0.22985409
v 0.03395574 -0.01221546 0.25745627
v 0.00616599 0.03948900 0.25053240
v 0.01965805 0.03249035 0.27222130
v 0.03182036 0.01182635 0.27270877
v 0.03245055 0.04035862 0.21972192
v 0.03672792 -0.00755178 0.26228384
v 0.03920401 -0.01101989 0.24991084
v 0.04729009 0.01016909 0.23023648
v 0.02811025 0.02432353 0.27218055
v 0.01402520 0.03279828 0.27264253
v 0.02892786 0.03953503 0.23318952
v 0.03570780 0.03703818 0.21971410
v 0.01414843 0.03561411 0.27226607
v 0.02711303 0.04071036 0.23388859
f 9 4 5
f 10 5 4
f 11 6 2
f 11 8 5
f 11 2 8
f 12 7 1
f 13 3 7
f 14 5 8
f 14 12 1
f 15 9 5
f 15 1 9
f 15 14 1
f 15 5 14
f 17 1 7
f 17 7 3
f 18 5 10
f 18 11 5
f 18 6 11
f 19 12 2
f 19 2 7
f 19 7 12
f 20 8 2
f 20 2 12
f 20 14 8
f 20 12 14
f 21 13 7
f 21 7 2
f 22 3 13
f 22 17 3
f 23 9 1
f 23 1 17
f 23 22 16
f 23 17 22
f 24 6 18
f 24 16 22
f 24 22 13
f 24 13 6
f 25 21 2
f 25 2 6
f 25 6 13
f 25 13 21
f 26 23 16
f 26 9 23
f 27 4 9
f 27 9 26
f 27 26 16
f 27 16 24
f 27 10 4
f 27 24 18
f 27 18 10

