# https://github.com/mikedh/trimesh
v -0.07704795 -0.03067736 0.15000601
v -0.07660864 -0.03050241 0.14034781
v -0.07460125 0.02917424 0.14922930
v -0.07807801 -0.02899457 0.14831648
v -0.08321622 -0.02962734 0.12721330
v -0.08158573 0.01321802 0.14849044
v -0.07947900 -0.03038201 0.12767432
v -0.08156515 -0.02908315 0.13605151
v -0.08159816 -0.01393888 0.14849407
v -0.08586601 0.01966122 0.12708651
v -0.08146375 -0.02011097 0.14525980
v -0.07823180 0.02836733 0.14844843
v -0.08479878 -0.01081711 0.13919088
v -0.08214610 0.02059812 0.12800121
v -0.08150465 0.01942973 0.14530880
v -0.08466501 0.01046232 0.13922224
v -0.08527525 -0.02311201 0.12701929
v -0.07699822 0.02987346 0.14042319
v -0.08045761 0.02904521 0.13973411
v -0.08470342 0.01948822 0.13306148
v -0.08476110 -0.02295765 0.12997455
v -0.08452496 0.01631729 0.13602338
v -0.08454669 -0.01704391 0.13603481
f 1 2 3
f 6 1 3
f 7 2 1
f 7 1 5
f 7 3 2
f 8 5 1
f 8 1 4
f 9 1 6
f 10 7 5
f 11 4 1
f 11 1 9
f 11 8 4
f 12 6 3
f 13 9 6
f 13 11 9
f 14 7 10
f 15 6 12
f 16 13 6
f 16 10 13
f 16 6 15
f 17 13 10
f 17 10 5
f 18 3 7
f 18 7 14
f 18 12 3
f 18 14 10
f 19 15 12
f 19 18 10
f 19 12 18
f 20 10 16
f 20 19 10
f 20 15 19
f 21 17 5
f 21 5 8
f 21 8 11
f 22 20 16
f 22 16 15
f 22 15 20
f 23 21 11
f 23 11 13
f 23 13 17
f 23 17 21

