# https://github.com/mikedh/trimesh
v 0.05575409 -0.03929779 0.19016829
v 0.06638355 -0.01091012 0.18933663
v 0.04809311 -0.00179726 0.23059238
v 0.04114214 0.01713302 0.23167576
v 0.05985973 0.01787524 0.19221844
v 0.04458533 -0.00197443 0.23180745
v 0.05860384 -0.02549927 0.19787984
v 0.06639272 0.01023278 0.18936259
v 0.05049865 0.01805209 0.21111652
v 0.05475333 -0.03865363 0.19276031
v 0.04340741 0.00806189 0.23259151
v 0.06353341 -0.02320199 0.18940310
v 0.05699899 -0.03816706 0.18916266
v 0.06522995 -0.01070077 0.19196381
v 0.06490896 0.01671523 0.19009141
v 0.04326234 0.01786302 0.22639418
v 0.05567957 -0.02850151 0.20112201
v 0.04618065 0.01583610 0.22964274
v 0.05568804 -0.01963778 0.20743497
v 0.06017332 -0.03211431 0.18919370
v 0.05598233 -0.03755320 0.19177160
v 0.06192783 -0.01968352 0.19488236
v 0.04943832 0.00694507 0.22663494
v 0.05910581 -0.03155393 0.19179549
v 0.06179754 -0.01370819 0.19806429
v 0.06240180 -0.02282469 0.19200599
v 0.06523465 0.01014520 0.19199033
v 0.06260994 0.01611083 0.19527656
v 0.05875515 -0.01373435 0.20434587
v 0.06185628 0.01306450 0.19810255
f 9 5 1
f 10 3 6
f 10 6 4
f 10 4 1
f 11 6 3
f 11 4 6
f 13 1 5
f 14 2 8
f 15 5 9
f 15 13 5
f 15 8 13
f 16 9 1
f 16 1 4
f 16 15 9
f 17 3 10
f 18 11 3
f 18 4 11
f 18 16 4
f 18 15 16
f 19 17 7
f 19 3 17
f 20 13 8
f 20 8 2
f 20 2 12
f 20 12 7
f 21 10 1
f 21 1 13
f 21 17 10
f 21 13 20
f 22 12 2
f 23 18 3
f 24 20 7
f 24 7 17
f 24 21 20
f 24 17 21
f 25 22 2
f 25 2 14
f 25 14 3
f 26 22 19
f 26 19 7
f 26 7 12
f 26 12 22
f 27 23 3
f 27 8 15
f 27 14 8
f 27 3 14
f 28 15 18
f 28 18 23
f 28 27 15
f 29 25 3
f 29 3 19
f 29 19 22
f 29 22 25
f 30 28 23
f 30 23 27
f 30 27 28

