# https://github.com/mikedh/trimesh
v 0.01506501 -0.03879870 0.32749195
v 0.03920401 -0.01101989 0.24991084
v 0.03392203 -0.02196611 0.32699349
v 0.03373160 -0.01200675 0.32239650
v 0.01358067 -0.03299191 0.27262760
v 0.03751993 -0.01138509 0.32283755
v 0.03673401 -0.01430378 0.32742980
v 0.02572193 -0.03398172 0.24928398
v 0.01408378 -0.03401148 0.31289288
v 0.03224442 -0.01293882 0.26361839
v 0.03758964 -0.01059747 0.25591781
v 0.03386581 -0.01536775 0.32678431
v 0.03764675 -0.01642915 0.24939009
v 0.02008385 -0.03678809 0.32699161
v 0.01677709 -0.03559402 0.25109257
v 0.01123037 -0.03683566 0.29469383
v 0.01677250 -0.03554406 0.32688989
v 0.03197643 -0.01254618 0.30994276
v 0.03537486 -0.01293506 0.25165031
v 0.01700349 -0.03985807 0.24918201
v 0.03149055 -0.02790471 0.24918817
v 0.01186665 -0.03837379 0.31355915
v 0.01475557 -0.04075592 0.24958147
v 0.01441523 -0.03984854 0.25247880
v 0.01222504 -0.03624870 0.27241524
f 7 1 3
f 7 6 4
f 7 2 6
f 11 6 2
f 11 4 6
f 12 7 4
f 12 1 7
f 13 7 3
f 13 2 7
f 14 3 1
f 15 5 10
f 16 9 5
f 17 9 1
f 17 4 9
f 17 12 4
f 17 1 12
f 18 9 4
f 18 5 9
f 18 10 5
f 18 11 10
f 18 4 11
f 19 11 2
f 19 10 11
f 19 15 10
f 19 2 15
f 20 2 13
f 20 8 14
f 21 13 3
f 21 20 13
f 21 8 20
f 21 14 8
f 21 3 14
f 22 1 9
f 22 9 16
f 23 15 2
f 23 2 20
f 23 22 16
f 23 1 22
f 23 20 14
f 23 14 1
f 24 5 15
f 24 15 23
f 25 24 23
f 25 23 16
f 25 16 5
f 25 5 24

