# https://github.com/mikedh/trimesh
v 0.04049916 0.02944088 0.00611052
v 0.04090738 0.02966297 0.00109584
v 0.02512869 0.06134579 0.00746105
v -0.02966368 0.06298505 0.01284156
v -0.04136547 0.02965199 0.00086274
v -0.03227262 0.06196171 0.01355230
v 0.04101322 0.04560161 0.00568595
v 0.02488145 0.06082149 0.00023109
v -0.04112719 0.02945755 0.00578690
v -0.03082656 0.05964569 0.00075535
v 0.04080899 0.04541112 0.00028837
v -0.04124400 0.04555626 0.00570369
v -0.04120728 0.04532405 0.00025544
v -0.03333458 0.06041202 0.01232934
f 5 2 1
f 6 1 3
f 6 3 4
f 7 1 2
f 7 3 1
f 8 4 3
f 9 5 1
f 9 1 6
f 10 6 4
f 10 4 8
f 11 2 5
f 11 7 2
f 11 8 3
f 11 3 7
f 12 9 6
f 12 5 9
f 13 10 8
f 13 5 12
f 13 11 5
f 13 8 11
f 14 13 12
f 14 12 6
f 14 6 10
f 14 10 13

