# https://github.com/mikedh/trimesh
v -0.03242014 0.04612068 0.20997779
v 0.00306861 0.07929089 0.16666439
v -0.00328334 0.06588545 0.20239193
v -0.00632304 0.08347219 0.16424997
v -0.04672039 0.05713054 0.18059757
v 0.00267277 0.08271016 0.16702744
v -0.00341183 0.06140255 0.20332077
v -0.03322493 0.04708462 0.20745274
v -0.03241948 0.07183425 0.16602612
v -0.02964399 0.05451652 0.20744198
v 0.00303369 0.07223873 0.18184206
v 0.00275357 0.08371948 0.16439342
v 0.00271770 0.07712355 0.17978788
v -0.01697953 0.05435539 0.21099802
v -0.04231332 0.05586469 0.18921739
v -0.02393142 0.07582067 0.17283814
v -0.03037902 0.07699085 0.16414539
v -0.00623995 0.08239649 0.16697186
v 0.00319307 0.07338381 0.17949720
v -0.01325277 0.05608142 0.21018310
v -0.03013142 0.04741164 0.21083308
v -0.04591229 0.05623419 0.18320445
v -0.01768055 0.06032362 0.20734831
v -0.02142781 0.08042022 0.16429137
v -0.03822804 0.06359952 0.18198683
v -0.00319585 0.06783467 0.19862518
v -0.04457704 0.05812254 0.18233445
v -0.02370808 0.06319547 0.19771582
v -0.01215382 0.06156913 0.20808971
v -0.01198470 0.07901982 0.17306794
v -0.04542467 0.05896422 0.17975072
v -0.04124743 0.05740663 0.18825947
v -0.01504502 0.07264651 0.18540865
v -0.02632700 0.06023113 0.20085651
v -0.02995169 0.07604084 0.16671572
v -0.01498137 0.06633268 0.19779466
v -0.01800695 0.07900354 0.16986018
v -0.02949517 0.06025338 0.19770994
v -0.02106687 0.07942937 0.16687474
f 8 5 2
f 8 2 1
f 8 1 5
f 9 2 5
f 11 3 7
f 11 7 1
f 12 4 6
f 12 2 9
f 13 3 11
f 13 12 6
f 15 1 10
f 17 12 9
f 17 4 12
f 17 9 5
f 18 13 6
f 18 6 4
f 19 13 11
f 19 2 12
f 19 12 13
f 19 11 1
f 19 1 2
f 20 7 3
f 20 1 7
f 21 14 10
f 21 10 1
f 21 20 14
f 21 1 20
f 22 5 1
f 22 1 15
f 23 10 14
f 24 17 16
f 24 4 17
f 26 3 13
f 26 13 18
f 27 22 15
f 27 5 22
f 29 20 3
f 29 3 26
f 29 23 14
f 29 14 20
f 30 18 4
f 30 4 24
f 30 26 18
f 31 25 17
f 31 17 5
f 31 5 27
f 32 15 10
f 32 10 25
f 32 27 15
f 32 31 27
f 32 25 31
f 33 16 28
f 33 29 26
f 33 26 30
f 34 10 23
f 34 23 28
f 35 28 16
f 35 16 17
f 35 17 25
f 36 33 28
f 36 28 23
f 36 23 29
f 36 29 33
f 37 33 30
f 37 30 24
f 37 16 33
f 38 25 10
f 38 10 34
f 38 35 25
f 38 34 28
f 38 28 35
f 39 37 24
f 39 24 16
f 39 16 37

