# https://github.com/mikedh/trimesh
v 0.01429758 -0.03973728 0.32699905
v 0.01798524 -0.04168800 0.24355542
v 0.01706417 -0.03270486 0.26041929
v -0.01741295 -0.03264482 0.31933703
v -0.01490500 -0.04342192 0.24291603
v 0.01699983 -0.03284746 0.31616306
v 0.01451021 -0.04353488 0.24294915
v -0.01458949 -0.03942755 0.32700050
v -0.01765287 -0.03614276 0.24804924
v -0.01751070 -0.03243528 0.26046477
v 0.01677250 -0.03554406 0.32688989
v 0.01944027 -0.03786744 0.25086692
v 0.01886056 -0.03691050 0.24421545
v -0.01694060 -0.03504446 0.32684038
v -0.01666908 -0.03803127 0.24459867
f 7 2 1
f 7 1 5
f 8 5 1
f 10 6 3
f 10 4 6
f 10 9 4
f 11 6 4
f 11 1 2
f 11 8 1
f 12 3 6
f 12 11 2
f 12 6 11
f 13 7 5
f 13 2 7
f 13 12 2
f 13 3 12
f 13 10 3
f 13 9 10
f 14 4 9
f 14 11 4
f 14 8 11
f 14 9 5
f 14 5 8
f 15 13 5
f 15 5 9
f 15 9 13

