# https://github.com/mikedh/trimesh
v -0.03359501 -0.01523695 0.32678574
v -0.03157333 -0.01577264 0.26043812
v -0.03129499 -0.01559488 0.31627242
v -0.03481524 0.01144413 0.32680680
v -0.03820761 -0.01363420 0.24952289
v -0.03184250 0.02015999 0.26301211
v -0.03413714 -0.01569555 0.25103244
v -0.03781412 -0.01056125 0.32699634
v -0.03838361 0.01298879 0.24959084
v -0.03638199 -0.01403248 0.32736658
v -0.03209965 0.02030268 0.25048071
v -0.03603119 0.01912711 0.24979512
v -0.03801236 0.00993235 0.32706087
f 1 3 4
f 6 3 2
f 6 4 3
f 7 2 3
f 7 3 1
f 10 7 1
f 10 5 7
f 10 8 5
f 10 1 4
f 11 6 2
f 11 2 7
f 11 7 5
f 12 6 11
f 12 11 5
f 12 5 9
f 13 12 9
f 13 4 6
f 13 6 12
f 13 10 4
f 13 8 10
f 13 9 5
f 13 5 8

