# https://github.com/mikedh/trimesh
v 0.05438829 -0.04458539 0.18624843
v 0.07512208 -0.02914596 0.15783294
v 0.06834916 0.00718249 0.18573582
v 0.06818297 0.03034775 0.16644962
v 0.05854385 -0.04739168 0.16634500
v 0.07876814 0.01333919 0.15807264
v 0.06061260 0.01722568 0.19104266
v 0.06485928 -0.01977677 0.18865084
v 0.06589771 -0.04422797 0.16401073
v 0.07967415 -0.00185440 0.15832557
v 0.07281056 0.02873142 0.16437093
v 0.07098489 0.03015556 0.15976104
v 0.05892907 -0.02175631 0.19182913
v 0.06557398 0.01612273 0.18895071
v 0.06388147 -0.04359639 0.15952422
v 0.06193635 -0.02867549 0.18861865
v 0.07460623 0.01005016 0.17008891
v 0.07436037 -0.01996289 0.16679348
v 0.06834452 -0.00796052 0.18571590
v 0.06931976 0.03070128 0.16366755
v 0.07530289 0.02853900 0.15786986
v 0.05457910 -0.04170548 0.18953144
v 0.06971801 -0.04166455 0.15809526
v 0.07865596 -0.00180767 0.16110077
v 0.06844607 0.01605243 0.18262364
v 0.06809769 -0.03191105 0.17292977
v 0.07468071 -0.01075665 0.17008046
v 0.07436135 0.02824122 0.16067132
v 0.06496686 -0.04383957 0.16672490
v 0.07779095 0.01318372 0.16074796
v 0.07424286 -0.02885352 0.16054411
v 0.06503206 -0.02866759 0.18228108
v 0.05579272 -0.04335755 0.18527720
v 0.06884603 -0.04123459 0.16090887
v 0.05586765 -0.04053050 0.18852278
v 0.06809702 -0.03771829 0.16675842
f 7 5 1
f 7 4 5
f 9 1 5
f 10 2 6
f 14 13 8
f 14 7 13
f 14 11 4
f 14 4 7
f 15 5 12
f 16 8 13
f 17 10 6
f 18 2 10
f 19 14 8
f 19 3 14
f 20 12 5
f 20 5 4
f 20 4 11
f 21 6 2
f 21 15 12
f 21 20 11
f 21 12 20
f 22 13 7
f 22 7 1
f 22 16 13
f 23 9 5
f 23 5 15
f 23 21 2
f 23 15 21
f 24 17 3
f 24 10 17
f 24 3 19
f 25 14 3
f 25 3 17
f 25 11 14
f 27 19 8
f 27 8 18
f 27 24 19
f 27 18 10
f 27 10 24
f 28 21 11
f 28 6 21
f 29 1 9
f 30 25 17
f 30 17 6
f 30 11 25
f 30 28 11
f 30 6 28
f 31 2 18
f 31 18 26
f 31 23 2
f 32 26 18
f 32 18 8
f 32 8 16
f 32 16 26
f 33 22 1
f 33 1 29
f 34 29 9
f 34 9 23
f 34 23 31
f 35 29 26
f 35 26 16
f 35 16 22
f 35 33 29
f 35 22 33
f 36 26 29
f 36 29 34
f 36 34 31
f 36 31 26

