# https://github.com/mikedh/trimesh
v 0.02083730 -0.08069433 0.16408562
v 0.02233971 -0.07578845 0.16604268
v 0.01681694 -0.04275583 0.24262914
v -0.00986671 -0.04056077 0.24437080
v -0.01343522 -0.07756300 0.16648923
v 0.01987616 -0.03880660 0.23880863
v -0.00920574 -0.07688030 0.17930167
v 0.01886056 -0.03691050 0.24421545
v -0.01303464 -0.05621554 0.20979659
v 0.02209691 -0.05294101 0.20981948
v 0.00889151 -0.07688565 0.17934637
v -0.00896112 -0.04556478 0.24251685
v -0.01253591 -0.08239219 0.16476423
v 0.01326820 -0.03932107 0.24502199
v -0.01364941 -0.05857392 0.20496732
v -0.01064359 -0.04262657 0.23912292
v 0.02289964 -0.07378569 0.16964261
v 0.02072202 -0.05895389 0.20790869
v 0.01105409 -0.04510260 0.24224906
v -0.00311300 -0.08002488 0.17318870
v -0.01190232 -0.07340652 0.18536542
v -0.01208642 -0.06181855 0.20777205
v 0.02325691 -0.05539646 0.20493515
v 0.01749688 -0.07352621 0.18231493
v 0.00265851 -0.08002865 0.17316025
v -0.01208004 -0.08027175 0.17018759
v -0.01191862 -0.06710438 0.19784900
v 0.02334168 -0.05861813 0.19880078
v 0.02027247 -0.06113688 0.20421478
v 0.01716892 -0.06407480 0.20101841
v 0.01143820 -0.07344970 0.18539949
v 0.01465867 -0.07978452 0.16999040
v 0.02039884 -0.07974998 0.16673219
f 5 2 1
f 8 3 6
f 10 5 6
f 13 5 1
f 14 8 4
f 14 3 8
f 14 4 12
f 15 9 6
f 15 6 5
f 15 5 13
f 16 6 9
f 16 8 6
f 16 4 8
f 16 9 15
f 16 12 4
f 17 2 5
f 17 1 2
f 18 6 3
f 19 12 11
f 19 14 12
f 19 3 14
f 20 12 7
f 21 7 12
f 22 16 15
f 22 12 16
f 22 15 13
f 22 13 21
f 23 17 5
f 23 5 10
f 23 10 6
f 23 6 18
f 25 11 12
f 25 12 20
f 25 20 13
f 25 13 1
f 26 20 7
f 26 13 20
f 26 21 13
f 26 7 21
f 27 22 21
f 27 21 12
f 27 12 22
f 28 23 18
f 28 18 1
f 28 1 17
f 28 17 23
f 29 18 3
f 30 3 19
f 30 19 24
f 30 29 3
f 30 24 29
f 31 24 19
f 31 19 11
f 31 11 24
f 32 24 11
f 32 25 1
f 32 11 25
f 33 29 24
f 33 1 18
f 33 18 29
f 33 32 1
f 33 24 32

