# https://github.com/mikedh/trimesh
v 0.02528713 0.08409569 0.14046336
v 0.02528096 0.08771505 0.07720196
v 0.02381621 0.09187625 0.12388899
v 0.01490019 0.09235223 0.13308912
v 0.01574030 0.09028888 0.07706683
v 0.02376889 0.08858826 0.13908235
v 0.02603085 0.08561716 0.13454027
v 0.01941111 0.08926975 0.07676798
v 0.01566391 0.08697384 0.14031655
v 0.02386749 0.09202046 0.07758775
v 0.02065303 0.09181725 0.12983289
v 0.01513489 0.09063084 0.13960532
v 0.01524567 0.09412024 0.07735090
v 0.01795304 0.09182270 0.13296752
v 0.01947493 0.08581926 0.14099015
f 7 1 2
f 7 6 1
f 7 3 6
f 8 2 1
f 8 1 5
f 9 5 1
f 9 4 5
f 10 2 8
f 10 7 2
f 10 3 7
f 11 6 3
f 11 3 4
f 12 4 9
f 13 10 8
f 13 8 5
f 13 5 4
f 13 4 3
f 13 3 10
f 14 11 4
f 14 4 12
f 14 12 6
f 14 6 11
f 15 12 9
f 15 9 1
f 15 1 6
f 15 6 12

