# https://github.com/mikedh/trimesh
v -0.02128883 -0.09003637 0.13613843
v -0.02208512 -0.09263364 0.12116988
v -0.02256833 -0.08175947 0.14991115
v -0.05422603 -0.05268445 0.16558939
v -0.05228192 -0.07582639 0.12726451
v -0.02281827 -0.08862835 0.12141922
v -0.03602932 -0.08642027 0.12688380
v -0.05458202 -0.06897451 0.12784220
v -0.04255054 -0.08378121 0.12083294
v -0.03011539 -0.08953937 0.12388090
v -0.03608020 -0.07432316 0.16388443
v -0.05592067 -0.05405592 0.16021530
v -0.04479235 -0.07994066 0.13288879
v -0.04733924 -0.08047996 0.12122710
v -0.03032013 -0.08988234 0.12079787
v -0.02416170 -0.08918260 0.13600531
v -0.02196154 -0.08599055 0.14925527
v -0.03704779 -0.06784564 0.16695870
v -0.05127212 -0.06258210 0.16404901
v -0.04220567 -0.08306019 0.12696937
v -0.03913534 -0.07995463 0.14523512
v -0.04588435 -0.08153939 0.12091463
v -0.03641288 -0.08718010 0.12078713
v -0.02994721 -0.08621864 0.13906018
v -0.02139534 -0.08735085 0.14557860
v -0.05260965 -0.05404336 0.16627640
v -0.03385853 -0.07531446 0.16438345
v -0.04744313 -0.07082633 0.15436913
v -0.02427683 -0.08651252 0.14531478
v -0.03624666 -0.07697998 0.15759291
v -0.04186219 -0.07080985 0.16366933
v -0.05053831 -0.07072560 0.14812174
v -0.03002918 -0.08331923 0.14837326
v -0.03874374 -0.07686578 0.15426367
v -0.04762075 -0.06777297 0.16050769
v -0.05080929 -0.06491049 0.16060440
v -0.05067728 -0.07392852 0.13902821
v -0.03305636 -0.08298533 0.14515732
v -0.04177645 -0.07359416 0.15736949
f 6 4 3
f 6 1 2
f 6 3 1
f 12 8 5
f 12 4 6
f 12 6 8
f 14 5 8
f 14 8 6
f 15 6 2
f 15 2 10
f 16 10 2
f 16 2 1
f 19 4 12
f 19 12 5
f 20 13 5
f 20 5 14
f 21 20 7
f 21 13 20
f 22 14 6
f 22 20 14
f 22 9 20
f 22 15 9
f 22 6 15
f 23 15 10
f 23 10 7
f 23 9 15
f 23 20 9
f 23 7 20
f 24 7 10
f 24 10 16
f 24 21 7
f 25 1 3
f 25 3 17
f 25 16 1
f 26 18 3
f 26 3 4
f 26 19 18
f 26 4 19
f 27 17 3
f 27 3 18
f 29 24 16
f 29 16 25
f 29 25 17
f 30 27 11
f 31 11 27
f 31 30 11
f 31 27 18
f 31 18 19
f 32 19 5
f 33 24 29
f 33 29 17
f 33 17 27
f 33 27 30
f 34 28 21
f 34 21 30
f 34 30 31
f 35 31 19
f 35 28 31
f 36 32 28
f 36 19 32
f 36 35 19
f 36 28 35
f 37 32 5
f 37 5 13
f 37 13 21
f 37 21 28
f 37 28 32
f 38 33 30
f 38 30 21
f 38 21 24
f 38 24 33
f 39 34 31
f 39 31 28
f 39 28 34

