# https://github.com/mikedh/trimesh
v -0.03487953 -0.07437907 0.16534850
v -0.03312995 -0.07149997 0.17333161
v -0.05958004 -0.04940837 0.16972792
v -0.05667737 -0.01386636 0.20782432
v -0.07155167 -0.01493078 0.16613668
v -0.03569986 -0.04982454 0.20773971
v -0.04723661 -0.06160089 0.17271413
v -0.03704779 -0.06784564 0.16695870
v -0.06363036 -0.04737970 0.16401556
v -0.04704056 -0.03730926 0.20733050
v -0.03915544 -0.07104314 0.16687433
v -0.05174686 -0.01481094 0.20994048
v -0.03970583 -0.07196736 0.16421426
v -0.07327274 -0.02638709 0.16437506
v -0.05713212 -0.05625822 0.16394273
v -0.04408396 -0.04615920 0.20089575
v -0.05905488 -0.03763758 0.18531014
v -0.03536908 -0.05823847 0.19469086
v -0.03666821 -0.04140539 0.21052585
v -0.05019107 -0.01858614 0.21085467
v -0.04502136 -0.06831129 0.16383958
v -0.07568329 -0.01452036 0.16529296
v -0.03809920 -0.05214583 0.20096950
v -0.05632414 -0.04934219 0.17589688
v -0.06271336 -0.04677618 0.16671940
v -0.06907537 -0.03492732 0.16691855
v -0.05326229 -0.02573187 0.20750707
v -0.03556524 -0.07032459 0.17273337
v -0.03332729 -0.05339670 0.20499656
v -0.03378361 -0.05085895 0.20851851
v -0.04127758 -0.06118164 0.18208055
v -0.06868819 -0.01997141 0.17932643
v -0.07241539 -0.01398204 0.17335876
v -0.03555403 -0.05219928 0.20425386
v -0.04692065 -0.04018902 0.20409508
v -0.05338993 -0.05525138 0.17272509
v -0.06997707 -0.03539725 0.16425369
v -0.06220536 -0.03763806 0.17901151
v -0.05909285 -0.03131472 0.19156366
v -0.05627469 -0.01656327 0.20755692
v -0.03317860 -0.05935939 0.19538246
v -0.04439928 -0.06743908 0.16644278
v -0.03825185 -0.05800966 0.19140908
v -0.07198136 -0.02286479 0.17006367
v -0.06271437 -0.01385357 0.19512105
v -0.05625044 -0.05571402 0.16654245
v -0.06221246 -0.03449209 0.18216461
v -0.06225428 -0.02266290 0.19169568
v -0.06849006 -0.02585539 0.17605601
v -0.07199281 -0.01691079 0.17320491
v -0.06231029 -0.01667930 0.19490610
v -0.05609846 -0.02257852 0.20422794
v -0.07228427 -0.02610782 0.16703648
f 8 2 1
f 8 1 5
f 12 8 5
f 12 5 4
f 13 5 1
f 13 1 11
f 15 3 9
f 16 6 10
f 19 2 8
f 19 8 12
f 20 12 4
f 20 19 12
f 20 10 19
f 21 13 11
f 21 7 15
f 21 15 9
f 21 9 14
f 22 5 13
f 22 21 14
f 22 13 21
f 23 16 7
f 23 6 16
f 24 17 3
f 25 9 3
f 25 3 17
f 27 10 20
f 28 11 1
f 28 1 2
f 29 2 19
f 30 19 10
f 30 10 6
f 30 29 19
f 31 23 7
f 31 28 18
f 31 11 28
f 33 5 22
f 34 6 23
f 34 30 6
f 34 18 29
f 34 29 30
f 35 24 16
f 35 16 10
f 35 10 17
f 35 17 24
f 36 24 3
f 36 15 7
f 36 7 16
f 36 16 24
f 37 26 14
f 37 14 9
f 37 9 26
f 38 25 17
f 38 26 9
f 38 9 25
f 39 17 10
f 39 10 27
f 40 27 20
f 40 20 4
f 41 28 2
f 41 18 28
f 41 29 18
f 41 2 29
f 42 31 7
f 42 7 21
f 42 21 11
f 42 11 31
f 43 31 18
f 43 23 31
f 43 34 23
f 43 18 34
f 44 22 14
f 45 4 5
f 45 5 33
f 46 36 3
f 46 3 15
f 46 15 36
f 47 26 38
f 47 38 17
f 47 17 39
f 49 39 48
f 49 47 39
f 49 26 47
f 49 48 32
f 49 32 44
f 50 33 22
f 50 22 44
f 50 44 32
f 50 45 33
f 51 40 4
f 51 4 45
f 51 48 40
f 51 32 48
f 51 50 32
f 51 45 50
f 52 48 39
f 52 39 27
f 52 27 40
f 52 40 48
f 53 49 44
f 53 44 14
f 53 14 26
f 53 26 49

