# https://github.com/mikedh/trimesh
v -0.02451873 -0.05693167 0.20847756
v -0.02403760 -0.05575169 0.21093680
v -0.04819003 -0.03501478 0.20799643
v -0.04015295 -0.00186174 0.25010134
v -0.05347091 -0.00220929 0.21079199
v -0.02594310 -0.03660508 0.24265955
v -0.02749957 -0.04892576 0.21111353
v -0.05790900 -0.00179258 0.20843363
v -0.03721222 -0.00214361 0.25099641
v -0.03573131 -0.01984525 0.24967712
v -0.02402012 -0.03788621 0.24325468
v -0.03569986 -0.04982454 0.20773971
v -0.03870124 -0.00225667 0.24537574
v -0.04408246 -0.00165086 0.23953487
v -0.04176152 -0.04369277 0.20776456
v -0.05403428 -0.02296307 0.20794445
v -0.03214102 -0.01955282 0.25141318
v -0.02365601 -0.04334788 0.23321339
v -0.02694008 -0.05587521 0.20787302
v -0.04490062 -0.00218024 0.22995434
v -0.05670326 -0.00170250 0.21100753
v -0.04145075 -0.00170714 0.24623816
v -0.03410298 -0.02775777 0.24231656
v -0.05751928 -0.00796880 0.20822557
v -0.03746593 -0.01609966 0.24927481
v -0.03066440 -0.02224021 0.25102851
v -0.03122254 -0.03340315 0.23902260
v -0.04032925 -0.01053306 0.24578550
f 7 2 1
f 7 1 5
f 8 5 1
f 11 1 2
f 11 10 6
f 12 11 6
f 13 9 2
f 13 2 7
f 14 9 13
f 15 12 6
f 16 3 10
f 16 15 3
f 16 12 15
f 17 9 4
f 17 4 10
f 18 11 2
f 18 2 9
f 18 9 11
f 19 1 11
f 19 11 12
f 19 8 1
f 20 13 7
f 20 7 5
f 20 14 13
f 21 8 4
f 21 5 8
f 21 20 5
f 21 14 20
f 22 4 9
f 22 9 14
f 22 21 4
f 22 14 21
f 23 10 3
f 23 3 15
f 23 6 10
f 24 12 16
f 24 19 12
f 24 8 19
f 24 4 8
f 25 16 10
f 25 10 4
f 25 24 16
f 26 11 9
f 26 9 17
f 26 17 10
f 26 10 11
f 27 23 15
f 27 15 6
f 27 6 23
f 28 25 4
f 28 4 24
f 28 24 25

