# https://github.com/mikedh/trimesh
v 0.07992447 -0.03078920 0.12786057
v 0.08740836 -0.02029720 0.08371082
v 0.08747481 0.00106409 0.12999280
v 0.07098489 0.03015556 0.15976104
v 0.08180133 -0.03032890 0.08345324
v 0.08535082 0.02874426 0.08362375
v 0.07733507 -0.01435134 0.16175896
v 0.08747223 -0.02030185 0.11782357
v 0.07407607 -0.01808760 0.15972236
v 0.08845487 0.00737544 0.07743046
v 0.08410310 0.02834365 0.12677718
v 0.08186893 0.02960570 0.08344396
v 0.07781370 0.01934987 0.15770872
v 0.08402943 -0.02891062 0.12678931
v 0.08873700 -0.00184083 0.07743975
v 0.08747925 0.02262347 0.10848931
v 0.07189340 0.03038819 0.15676406
v 0.08534077 0.00751119 0.07711610
v 0.07865596 -0.00180767 0.16110077
v 0.07530289 0.02853900 0.15786986
v 0.08410482 0.01632220 0.13921414
v 0.08150894 -0.03096847 0.11832435
v 0.08514309 -0.02936421 0.08365735
v 0.07825554 -0.01703693 0.15788032
v 0.08745125 -0.02309619 0.10854087
v 0.08762657 -0.01091557 0.12694071
v 0.08743752 0.02259982 0.08997331
v 0.08745505 0.01949277 0.11777201
v 0.08555894 -0.00197236 0.07709948
v 0.07827577 -0.00193477 0.16211896
v 0.07760217 0.02833062 0.15143026
v 0.08414312 0.01038755 0.14227127
v 0.08424802 -0.01080460 0.14237552
v 0.08737729 -0.02304884 0.09303072
v 0.08758967 0.01954713 0.08371092
v 0.08728015 0.01321435 0.12680803
v 0.07778138 -0.01391242 0.16075923
v 0.08099942 0.01323005 0.15149093
v 0.08055446 0.02514546 0.14525736
v 0.07753102 0.02520693 0.15447928
v 0.08406823 -0.01706612 0.13915143
v 0.08747935 -0.00179059 0.13000636
v 0.08722260 0.01633967 0.12386820
v 0.08097673 -0.01393000 0.15148885
f 9 5 1
f 9 4 5
f 9 7 4
f 12 5 4
f 12 11 6
f 12 6 10
f 16 6 11
f 17 12 4
f 17 11 12
f 18 12 10
f 18 5 12
f 20 17 4
f 22 14 1
f 22 1 5
f 23 15 2
f 23 5 15
f 23 22 5
f 23 14 22
f 24 9 1
f 24 1 14
f 24 7 9
f 25 15 8
f 25 8 14
f 25 14 23
f 26 15 3
f 26 8 15
f 27 16 10
f 27 6 16
f 28 15 10
f 28 10 16
f 28 3 15
f 28 16 11
f 29 15 5
f 29 5 18
f 29 18 10
f 29 10 15
f 30 4 7
f 30 20 4
f 30 13 20
f 31 11 17
f 31 17 20
f 33 32 19
f 33 3 32
f 34 2 15
f 34 15 25
f 34 25 23
f 34 23 2
f 35 27 10
f 35 10 6
f 35 6 27
f 36 3 28
f 36 32 3
f 36 21 32
f 37 30 7
f 37 19 30
f 37 7 24
f 38 30 19
f 38 13 30
f 38 19 32
f 38 32 21
f 39 21 11
f 39 11 31
f 39 38 21
f 39 13 38
f 40 31 20
f 40 20 13
f 40 39 31
f 40 13 39
f 41 24 14
f 41 26 33
f 41 14 8
f 41 8 26
f 42 33 26
f 42 26 3
f 42 3 33
f 43 36 28
f 43 28 11
f 43 11 21
f 43 21 36
f 44 33 19
f 44 19 37
f 44 37 24
f 44 41 33
f 44 24 41

