# https://github.com/mikedh/trimesh
v -0.07905783 0.02066015 0.14112153
v -0.05694792 0.05791391 0.04251135
v -0.05746039 0.05829149 0.14985456
v -0.05880925 0.05633778 0.15035656
v -0.07830571 0.04659040 0.09297140
v -0.08474164 0.02002141 0.06466424
v -0.07487949 0.04352700 0.13912534
v -0.07194815 0.05547473 0.07757405
v -0.08153385 0.02051912 0.06413687
v -0.08531542 0.01957437 0.13005876
v -0.07123402 0.04450502 0.14910801
v -0.08141354 0.03422523 0.06838269
v -0.07212961 0.05561876 0.11765395
v -0.07076665 0.04424026 0.04317523
v -0.08126622 0.03732125 0.12062036
v -0.08306533 0.01972731 0.13959090
v -0.06569191 0.04685317 0.15048947
v -0.06399214 0.05603080 0.14870246
v -0.07832362 0.04354619 0.07449215
v -0.06523151 0.04639341 0.04180049
v -0.08177723 0.03165025 0.06525237
v -0.06352466 0.05567270 0.04361765
v -0.08132649 0.03148675 0.13305656
v -0.08461233 0.03160472 0.09304099
v -0.07831563 0.04657948 0.10540368
v -0.07501401 0.04932740 0.12379472
v -0.08540432 0.01964657 0.06819157
v -0.06298508 0.05046585 0.15102136
v -0.06904751 0.05505278 0.13588573
v -0.07521400 0.04941133 0.07447097
v -0.07487540 0.04623779 0.06226489
v -0.05981221 0.05388993 0.04118556
v -0.06880992 0.05519708 0.05916458
v -0.08452655 0.02836552 0.12063190
v -0.07809486 0.04344879 0.12380520
v -0.08475099 0.02223083 0.12997892
v -0.08172306 0.02539958 0.13922584
v -0.08136609 0.03739834 0.07753804
v -0.08460020 0.03155047 0.10853517
v -0.08499924 0.02223014 0.06828076
v -0.07172228 0.04608077 0.14507819
v -0.07498941 0.04616540 0.13299690
v -0.07182689 0.04620308 0.04996036
v -0.06619682 0.05225979 0.04368920
v -0.07192111 0.05241533 0.06537938
v -0.08454530 0.02516242 0.12688442
v -0.08451869 0.02842023 0.07751761
v -0.07167881 0.04922379 0.13898773
v -0.06878519 0.04927777 0.14826202
v -0.07174529 0.04928836 0.05609654
v -0.06953631 0.04666527 0.04357087
v -0.06607458 0.05527306 0.04991593
v -0.08462392 0.02526781 0.07149225
v -0.06602344 0.05518449 0.14509362
f 1 2 3
f 1 3 4
f 9 2 1
f 13 3 2
f 13 2 8
f 13 8 5
f 14 9 6
f 16 9 1
f 16 1 11
f 17 11 1
f 18 4 3
f 18 3 13
f 20 9 14
f 21 14 6
f 25 13 5
f 25 5 24
f 26 13 25
f 27 16 10
f 27 6 9
f 27 9 16
f 28 17 1
f 28 1 4
f 28 4 18
f 28 18 11
f 28 11 17
f 29 18 13
f 29 13 26
f 30 19 5
f 30 5 8
f 31 12 19
f 31 21 12
f 31 19 30
f 32 2 9
f 32 9 20
f 32 22 2
f 32 20 14
f 33 8 2
f 33 2 22
f 34 23 15
f 35 23 7
f 35 15 23
f 35 26 25
f 35 25 15
f 36 10 16
f 37 16 11
f 37 11 7
f 37 7 23
f 37 36 16
f 37 23 36
f 38 19 12
f 38 24 5
f 38 5 19
f 39 25 24
f 39 15 25
f 39 34 15
f 39 10 34
f 39 27 10
f 39 24 27
f 40 21 6
f 40 6 27
f 41 7 11
f 42 29 26
f 42 35 7
f 42 26 35
f 43 14 21
f 43 21 31
f 44 32 14
f 44 22 32
f 45 31 30
f 45 30 8
f 45 8 33
f 46 34 10
f 46 10 36
f 46 36 23
f 46 23 34
f 47 12 21
f 47 38 12
f 47 24 38
f 47 40 27
f 47 27 24
f 48 7 41
f 48 42 7
f 48 29 42
f 49 41 11
f 49 11 18
f 49 48 41
f 49 29 48
f 50 43 31
f 50 44 43
f 50 45 33
f 50 31 45
f 51 44 14
f 51 14 43
f 51 43 44
f 52 33 22
f 52 22 44
f 52 50 33
f 52 44 50
f 53 47 21
f 53 21 40
f 53 40 47
f 54 49 18
f 54 18 29
f 54 29 49

