# https://github.com/mikedh/trimesh
v 0.01509472 -0.09444852 0.12099073
v 0.04508560 -0.07917879 0.08329952
v 0.03862590 -0.08624049 0.12066214
v 0.04391749 -0.07761341 0.12757541
v 0.01562992 -0.09079309 0.07709557
v 0.04200468 -0.08353158 0.12668581
v 0.01572300 -0.09102885 0.12140117
v 0.03275939 -0.08944596 0.08376643
v 0.04252010 -0.08451249 0.08368189
v 0.02964329 -0.08942620 0.12699834
v 0.01506130 -0.09433229 0.07736987
v 0.03280741 -0.08937998 0.11768248
v 0.03919578 -0.08045447 0.12840160
v 0.02589636 -0.08685514 0.12800653
v 0.02360103 -0.09259600 0.08074752
v 0.02449050 -0.09191001 0.07730052
v 0.03873921 -0.08659951 0.08376998
v 0.02359093 -0.09238990 0.12076962
v 0.02430417 -0.09125240 0.12710787
v 0.01945718 -0.08982547 0.07656524
v 0.02110463 -0.09306078 0.07750813
v 0.02521085 -0.08797523 0.07709282
f 5 4 2
f 6 2 4
f 7 5 1
f 7 4 5
f 9 6 3
f 9 2 6
f 10 3 6
f 11 1 5
f 12 3 10
f 13 10 6
f 13 6 4
f 14 13 4
f 14 4 7
f 15 1 11
f 15 8 12
f 16 2 9
f 16 8 15
f 17 9 3
f 17 3 12
f 17 12 8
f 17 16 9
f 17 8 16
f 18 12 10
f 18 15 12
f 18 1 15
f 19 14 7
f 19 7 1
f 19 10 13
f 19 13 14
f 19 18 10
f 19 1 18
f 20 16 11
f 20 11 5
f 20 5 2
f 21 16 15
f 21 15 11
f 21 11 16
f 22 20 2
f 22 2 16
f 22 16 20

