# https://github.com/mikedh/trimesh
v 0.02095397 -0.07789216 0.02520945
v 0.02069862 -0.06530421 0.00154214
v 0.02171864 -0.05221279 0.00598369
v -0.02857931 -0.05239895 0.00585896
v -0.02081593 -0.07039484 0.01006315
v -0.02860181 -0.05243779 0.00033765
v -0.02911993 -0.06909556 0.02319322
v 0.02289021 -0.07131876 0.02218259
v 0.00554484 -0.07053417 0.00377708
v 0.02187857 -0.05251041 0.00066491
v -0.02128925 -0.07765182 0.02497479
v -0.02712110 -0.06228310 0.00087838
v 0.01472390 -0.07381964 0.01302894
v -0.02757950 -0.07520634 0.02473094
v -0.00608296 -0.07683909 0.01616175
v -0.01201687 -0.06786122 0.00144584
v 0.01154961 -0.06796861 0.00148846
v 0.02047138 -0.06723256 0.00417357
v -0.02669918 -0.06448440 0.00367103
v -0.02708624 -0.07422553 0.02191884
v -0.01498683 -0.07688877 0.01920967
v 0.00582042 -0.07686802 0.01611319
v -0.00312271 -0.07058057 0.00365607
v 0.01459237 -0.07052574 0.00686749
v 0.02050161 -0.07661069 0.02192816
v -0.02396125 -0.06444290 0.00160353
v -0.01515895 -0.07040267 0.00686532
v -0.02087871 -0.07660271 0.02217197
v 0.01472240 -0.07691840 0.01909460
f 6 4 3
f 7 3 4
f 7 4 6
f 8 1 2
f 8 7 1
f 8 3 7
f 10 6 3
f 10 8 2
f 10 3 8
f 12 7 6
f 12 6 10
f 14 11 1
f 14 1 7
f 14 7 12
f 15 1 11
f 17 12 10
f 17 10 2
f 17 16 12
f 18 2 1
f 18 17 2
f 19 14 12
f 20 11 14
f 20 19 5
f 20 14 19
f 21 15 11
f 22 9 13
f 22 1 15
f 23 22 15
f 23 9 22
f 23 17 9
f 23 16 17
f 24 13 9
f 24 9 17
f 24 18 13
f 24 17 18
f 25 18 1
f 25 13 18
f 26 5 19
f 26 19 12
f 26 12 16
f 27 15 21
f 27 23 15
f 27 16 23
f 27 21 5
f 27 26 16
f 27 5 26
f 28 20 5
f 28 5 21
f 28 21 11
f 28 11 20
f 29 22 13
f 29 13 25
f 29 25 1
f 29 1 22

