# https://github.com/mikedh/trimesh
v 0.01587327 0.09185254 0.10878803
v 0.02505360 0.08339241 0.05501765
v 0.00862434 0.09524502 0.07761010
v -0.01522813 0.09539087 0.10856464
v -0.02250278 0.08057429 0.04227070
v 0.01490765 0.09550658 0.10858223
v 0.01554117 0.08010746 0.03615237
v -0.01641694 0.09211416 0.10879672
v -0.01824983 0.09165170 0.06533789
v -0.00322314 0.09524791 0.07447766
v 0.02528096 0.08771505 0.07720196
v 0.01486641 0.08579050 0.04059623
v -0.02320860 0.08944853 0.08301547
v 0.00272133 0.09524244 0.07448752
v -0.01517552 0.09511233 0.08685917
v 0.02386749 0.09202046 0.07758775
v 0.01518959 0.08444982 0.03683043
v -0.00930168 0.08860210 0.04680648
v -0.02110987 0.08878071 0.05601994
v 0.00885602 0.09203951 0.05912025
v -0.00938280 0.09520400 0.07763294
v -0.02157015 0.09336974 0.08366971
v 0.01482239 0.09511692 0.08689462
v 0.02643620 0.08614495 0.06693414
v -0.01295437 0.08043753 0.03598101
v 0.02442161 0.08770970 0.05555297
v -0.00937620 0.09199408 0.05908692
v 0.00861687 0.08868953 0.04678976
v -0.02325793 0.08321362 0.05120051
v -0.02108771 0.08520220 0.04386043
v 0.02065548 0.09164955 0.06837585
v -0.02106340 0.09206442 0.07143428
v 0.01488544 0.08863463 0.04992906
v -0.01527304 0.09166433 0.06229642
v -0.01527594 0.08852213 0.04992928
v 0.01167168 0.08532890 0.03757165
v -0.01209933 0.08524223 0.03758860
v 0.01489494 0.09178314 0.06227201
v 0.02373602 0.09168985 0.07455896
v 0.01173394 0.09511636 0.08075682
v -0.01213750 0.09511298 0.08068897
v 0.02382826 0.08878444 0.05917148
f 7 2 1
f 7 1 5
f 8 5 1
f 8 6 4
f 8 1 6
f 10 4 6
f 11 6 1
f 11 1 2
f 13 8 4
f 13 5 8
f 14 10 6
f 14 6 3
f 16 6 11
f 17 2 7
f 20 14 3
f 20 10 14
f 21 15 4
f 21 4 10
f 22 13 4
f 22 4 15
f 23 3 6
f 23 6 16
f 24 16 11
f 24 11 2
f 25 17 7
f 25 7 5
f 26 2 17
f 26 24 2
f 26 16 24
f 26 17 12
f 27 10 20
f 27 21 10
f 28 27 20
f 28 18 27
f 29 5 13
f 29 13 22
f 30 29 19
f 30 5 29
f 32 9 19
f 32 29 22
f 32 19 29
f 32 21 9
f 33 26 12
f 33 28 20
f 33 12 28
f 34 9 21
f 34 21 27
f 34 19 9
f 35 27 18
f 35 34 27
f 35 19 34
f 35 30 19
f 36 28 12
f 36 12 17
f 37 25 5
f 37 5 30
f 37 18 28
f 37 28 36
f 37 35 18
f 37 30 35
f 37 36 17
f 37 17 25
f 38 20 3
f 38 3 31
f 38 33 20
f 39 31 16
f 39 16 26
f 40 23 16
f 40 16 31
f 40 31 3
f 40 3 23
f 41 32 22
f 41 22 15
f 41 15 21
f 41 21 32
f 42 38 31
f 42 26 33
f 42 33 38
f 42 39 26
f 42 31 39

