# https://github.com/mikedh/trimesh
v 0.04325632 -0.08271185 0.12727467
v 0.08514309 -0.02936421 0.08365735
v 0.06862740 -0.06232663 0.10857504
v 0.08358957 -0.02986482 0.12731974
v 0.07992447 -0.03078920 0.12786057
v 0.08095705 -0.04111016 0.11464335
v 0.06861111 -0.05916645 0.12667748
v 0.04252010 -0.08451249 0.08368189
v 0.08486475 -0.02921209 0.12077951
v 0.07778062 -0.04731360 0.08371307
v 0.05943575 -0.07115087 0.12070143
v 0.04524402 -0.07656708 0.12811925
v 0.07846381 -0.03465748 0.12818260
v 0.07465214 -0.04999729 0.12666963
v 0.08156774 -0.03112920 0.08324029
v 0.08423020 -0.03214067 0.08371979
v 0.08077199 -0.03791378 0.12692738
v 0.07472316 -0.05317886 0.11152296
v 0.06567749 -0.06519688 0.08373786
v 0.05101208 -0.07747224 0.12672416
v 0.06551997 -0.06507682 0.11764674
v 0.04254905 -0.08454385 0.11783550
v 0.04508560 -0.07917879 0.08329952
v 0.08093011 -0.04112568 0.08687056
v 0.08390378 -0.03202551 0.12063057
v 0.07773880 -0.04721004 0.11768984
v 0.07475015 -0.05330548 0.08993345
v 0.07170701 -0.05633087 0.12069500
v 0.05353148 -0.07724749 0.08693647
v 0.06264235 -0.06788068 0.12070048
v 0.04451982 -0.08339970 0.11768053
v 0.05679912 -0.07419430 0.08374359
v 0.06870204 -0.06219072 0.09001724
v 0.04768600 -0.08028604 0.12386821
v 0.05345220 -0.07727302 0.11470817
v 0.04452353 -0.08341786 0.08376721
v 0.04533159 -0.08140281 0.12690336
f 9 5 4
f 9 2 5
f 13 4 5
f 13 12 7
f 13 5 12
f 14 13 7
f 15 5 2
f 15 2 10
f 16 9 6
f 16 2 9
f 16 10 2
f 17 4 13
f 17 13 14
f 19 15 10
f 20 12 1
f 20 7 12
f 22 12 8
f 22 1 12
f 23 12 5
f 23 5 15
f 23 8 12
f 23 15 19
f 24 16 6
f 24 10 16
f 25 9 4
f 25 4 17
f 25 17 6
f 25 6 9
f 26 17 14
f 26 6 17
f 26 18 6
f 27 6 18
f 27 24 6
f 27 10 24
f 27 18 3
f 27 19 10
f 28 14 7
f 28 3 18
f 28 21 3
f 28 7 21
f 28 26 14
f 28 18 26
f 30 20 11
f 30 7 20
f 30 21 7
f 30 11 3
f 30 3 21
f 31 1 22
f 32 23 19
f 32 8 23
f 33 27 3
f 33 19 27
f 33 32 19
f 33 3 32
f 35 11 20
f 35 34 31
f 35 20 34
f 35 31 29
f 35 29 32
f 35 32 3
f 35 3 11
f 36 31 22
f 36 22 8
f 36 29 31
f 36 32 29
f 36 8 32
f 37 34 20
f 37 20 1
f 37 1 31
f 37 31 34

