# https://github.com/mikedh/trimesh
v -0.06866097 -0.05389811 0.07373539
v -0.05127610 -0.05292608 0.02328039
v -0.08191621 -0.01814049 0.06413283
v -0.08511292 -0.01766726 0.06459399
v -0.07158944 -0.04099591 0.04083192
v -0.06830345 -0.01813652 0.02290195
v -0.08408489 -0.02992200 0.07729155
v -0.06994222 -0.05264042 0.07711221
v -0.06861895 -0.04984912 0.04694906
v -0.07596223 -0.01706409 0.03098468
v -0.07802430 -0.03489118 0.05295335
v -0.05286819 -0.05438825 0.02869258
v -0.08070171 -0.03092390 0.07694220
v -0.05975189 -0.04979896 0.02550924
v -0.07436139 -0.05146028 0.07732525
v -0.08202740 -0.01712034 0.04969507
v -0.08142787 -0.02906543 0.05912738
v -0.07195543 -0.05003447 0.05923424
v -0.07185729 -0.02900370 0.02846771
v -0.08223872 -0.03540456 0.07751547
v -0.06549355 -0.04961070 0.03783927
v -0.05268726 -0.05081695 0.02264823
v -0.08152459 -0.02018127 0.04983083
v -0.06542338 -0.04083899 0.02551306
v -0.07348441 -0.01715075 0.02452527
v -0.07649790 -0.04777795 0.07741985
v -0.08152215 -0.03513413 0.07145450
v -0.07811504 -0.02296539 0.04074102
v -0.07225048 -0.02298942 0.02504404
v -0.07507146 -0.04691295 0.06528930
v -0.07798380 -0.04105780 0.06537782
v -0.07481714 -0.02284674 0.03151670
f 6 3 2
f 7 3 4
f 8 2 3
f 10 3 6
f 12 8 1
f 12 2 8
f 12 1 9
f 13 8 3
f 13 3 7
f 14 2 12
f 15 1 8
f 16 4 3
f 16 3 10
f 17 7 4
f 18 11 5
f 18 5 9
f 18 9 1
f 18 1 15
f 19 5 11
f 20 13 7
f 20 8 13
f 21 9 5
f 21 14 12
f 21 12 9
f 22 6 2
f 22 2 14
f 23 11 17
f 23 17 4
f 23 4 16
f 24 5 19
f 24 21 5
f 24 14 21
f 24 22 14
f 25 10 6
f 25 6 22
f 25 22 24
f 26 15 8
f 26 8 20
f 27 17 11
f 27 20 7
f 27 7 17
f 28 19 11
f 28 11 23
f 28 23 16
f 28 16 10
f 29 25 24
f 29 24 19
f 30 18 15
f 30 15 26
f 30 11 18
f 31 26 20
f 31 20 27
f 31 30 26
f 31 27 11
f 31 11 30
f 32 29 19
f 32 19 28
f 32 28 10
f 32 10 25
f 32 25 29

