# https://github.com/mikedh/trimesh
v -0.05174686 -0.01481094 0.20994048
v -0.03721222 -0.00214361 0.25099641
v -0.07524752 0.01684847 0.16511525
v -0.03340192 0.01770627 0.25089727
v -0.03469927 0.01855778 0.24503450
v -0.04046240 0.00988776 0.24589793
v -0.07513189 -0.01389962 0.16689689
v -0.03800568 -0.00215338 0.24802911
v -0.07133984 0.01721748 0.16609704
v -0.03759342 0.01571242 0.24935135
v -0.05667737 -0.01386636 0.20782432
v -0.07193377 0.00729538 0.17633524
v -0.07155167 -0.01493078 0.16613668
v -0.06963878 0.01752312 0.16988933
v -0.06237039 0.01609901 0.19499197
v -0.04050603 0.00095347 0.24904641
v -0.03456216 0.01475752 0.25114560
v -0.07613565 0.01335461 0.16430845
v -0.04125940 0.01833603 0.22984152
v -0.05405625 -0.01538494 0.20485412
v -0.06858978 0.01308030 0.18253946
v -0.04043804 -0.00165520 0.24918382
v -0.07614013 -0.01407550 0.16430431
v -0.07203552 0.01627358 0.17325597
v -0.06855429 -0.01380344 0.18242347
v -0.07196931 -0.00806558 0.17629544
v -0.06989445 -0.01527042 0.17001664
v -0.07511693 0.01319530 0.16692292
f 5 4 2
f 8 5 2
f 8 2 1
f 8 1 5
f 10 5 3
f 10 4 5
f 11 1 2
f 14 9 3
f 14 3 5
f 15 10 3
f 15 6 10
f 16 10 6
f 17 2 4
f 17 4 10
f 17 16 2
f 17 10 16
f 18 3 9
f 19 13 9
f 19 5 1
f 19 14 5
f 19 9 14
f 20 1 11
f 20 19 1
f 20 13 19
f 21 12 16
f 21 16 6
f 21 6 15
f 22 11 2
f 22 2 16
f 23 18 9
f 23 9 13
f 24 21 15
f 24 15 3
f 25 11 22
f 25 7 23
f 25 23 20
f 25 20 11
f 26 22 16
f 26 16 12
f 26 25 22
f 26 7 25
f 26 23 7
f 26 12 18
f 26 18 23
f 27 23 13
f 27 13 20
f 27 20 23
f 28 24 3
f 28 3 18
f 28 18 12
f 28 12 21
f 28 21 24

