# https://github.com/mikedh/trimesh
v 0.07840301 -0.04599219 0.08346972
v 0.08401585 -0.02016762 0.05902445
v 0.08786168 -0.01721462 0.08368038
v 0.08165843 0.03034943 0.08318796
v 0.07306520 0.02979593 0.04217951
v 0.08756202 0.01046156 0.07137746
v 0.08535082 0.02874426 0.08362375
v 0.08402135 -0.03213895 0.08072834
v 0.07405777 -0.04534590 0.05544896
v 0.07436422 -0.04863036 0.06476950
v 0.08753426 -0.01087707 0.07138102
v 0.08077948 0.01627705 0.04372021
v 0.07899518 -0.04477417 0.08364535
v 0.08758967 0.01954713 0.08371092
v 0.07496425 0.03058125 0.04776439
v 0.08396354 -0.02898827 0.07144802
v 0.07387258 -0.04837411 0.06173524
v 0.08750669 0.00105138 0.06826022
v 0.08409323 0.02530199 0.06532505
v 0.07687167 -0.01807300 0.04197230
v 0.08423020 -0.03214067 0.08371979
v 0.08069886 -0.03813947 0.07151245
v 0.08414808 0.02839134 0.07142983
v 0.07791367 0.02832787 0.04372875
v 0.08736988 -0.01713244 0.07753651
v 0.07771509 -0.04102241 0.06220534
v 0.08429020 0.00733651 0.05276029
v 0.08737186 0.01950116 0.08070028
v 0.07482056 0.02412394 0.04150188
v 0.08067539 -0.01701933 0.04374542
v 0.07784964 -0.04425798 0.07147741
v 0.08063363 0.02520219 0.04987526
v 0.08123581 0.02839758 0.05594666
v 0.08403464 -0.02309535 0.06217717
v 0.07487911 -0.04409876 0.05604635
v 0.07520162 -0.04732333 0.06524686
v 0.08075106 -0.03212615 0.05905178
v 0.08400277 0.01636647 0.05601125
v 0.08428130 -0.00803039 0.05277042
v 0.07775195 -0.03807098 0.05604769
v 0.07468872 -0.04708925 0.06223875
v 0.08749189 -0.00178620 0.06826120
f 10 1 4
f 10 4 5
f 13 7 4
f 13 4 1
f 14 3 6
f 14 7 13
f 15 5 4
f 17 10 5
f 17 5 9
f 18 6 3
f 20 9 5
f 21 13 8
f 21 8 3
f 21 14 13
f 21 3 14
f 22 16 8
f 22 8 13
f 23 15 4
f 23 4 7
f 24 5 15
f 25 3 8
f 25 8 16
f 25 11 3
f 27 6 18
f 28 14 6
f 28 6 19
f 28 19 23
f 28 23 7
f 28 7 14
f 29 20 5
f 29 12 20
f 29 24 12
f 29 5 24
f 30 9 20
f 30 20 12
f 31 22 13
f 31 13 1
f 31 1 10
f 31 26 22
f 32 12 24
f 33 23 19
f 33 32 24
f 33 19 32
f 33 24 15
f 33 15 23
f 34 25 16
f 34 2 11
f 34 11 25
f 35 17 9
f 36 10 17
f 36 31 10
f 36 26 31
f 37 16 22
f 37 34 16
f 37 30 2
f 37 2 34
f 38 19 6
f 38 6 27
f 38 27 12
f 38 32 19
f 38 12 32
f 39 27 18
f 39 11 2
f 39 2 30
f 39 30 12
f 39 12 27
f 40 35 9
f 40 9 30
f 40 30 37
f 40 26 35
f 40 37 22
f 40 22 26
f 41 36 17
f 41 17 35
f 41 35 26
f 41 26 36
f 42 39 18
f 42 11 39
f 42 18 3
f 42 3 11

