# https://github.com/mikedh/trimesh
v -0.02534461 -0.04278234 0.00649494
v -0.02558523 -0.04305732 0.00108574
v -0.02558918 0.02967284 0.00167521
v -0.05458407 0.02990647 0.00705252
v -0.05746725 -0.03052106 0.01061991
v -0.05704606 0.02012331 0.00018613
v -0.02539589 0.02953609 0.00653308
v -0.04123354 -0.04298915 0.00564728
v -0.05375043 0.02951637 0.00017952
v -0.05762881 0.02024500 0.00676532
v -0.05643771 -0.03007468 0.00026604
v -0.05876176 -0.02475726 0.00922016
v -0.04127442 -0.04299353 0.00028898
f 1 2 3
f 7 1 3
f 7 3 4
f 7 5 1
f 7 4 5
f 8 2 1
f 8 1 5
f 9 3 2
f 9 6 4
f 9 4 3
f 10 5 4
f 10 4 6
f 12 10 6
f 12 5 10
f 12 11 5
f 12 6 11
f 13 2 8
f 13 8 5
f 13 5 11
f 13 9 2
f 13 11 6
f 13 6 9

