# https://github.com/mikedh/trimesh
v -0.05210545 -0.06640332 0.15514137
v -0.05338372 -0.06766572 0.14942527
v -0.07281691 0.00750947 0.16540497
v -0.07675469 0.00738554 0.16454611
v -0.07586752 -0.03520327 0.14858989
v -0.05550324 -0.05056463 0.16630093
v -0.06299728 -0.05590997 0.15145673
v -0.07799667 0.00752047 0.15025487
v -0.05203256 -0.06329580 0.16129429
v -0.07515422 -0.02007430 0.16394647
v -0.06366908 -0.05645179 0.14856474
v -0.05517770 -0.06623024 0.14881595
v -0.08236723 -0.00498303 0.14877057
v -0.07616555 0.00763437 0.15693756
v -0.06227183 -0.04985256 0.16352519
v -0.06979149 -0.04741661 0.14861140
v -0.05950784 -0.05873809 0.15433595
v -0.08190954 0.00749256 0.14954066
v -0.07833242 -0.00493207 0.16082550
v -0.07888789 -0.02618785 0.14855000
v -0.08230793 0.00420346 0.14874251
v -0.07174684 -0.03186620 0.16373702
v -0.05265239 -0.06072138 0.16476841
v -0.06908033 -0.04693289 0.15141640
v -0.05939123 -0.05556344 0.16037587
v -0.05383687 -0.06498472 0.15446909
v -0.07806136 -0.01687530 0.15767421
v -0.08152855 -0.00493679 0.15152865
v -0.07828095 0.00414977 0.16080836
v -0.07506920 -0.03485037 0.15139294
v -0.07484445 -0.02592110 0.16062252
v -0.05434309 -0.05934365 0.16401452
v -0.06863680 -0.04371688 0.15736145
v -0.07802870 -0.02593483 0.15142003
v -0.07911322 0.00732597 0.15799944
v -0.08147243 0.00416267 0.15148691
v -0.05371749 -0.06192121 0.16053385
v -0.07174393 -0.03474197 0.16057962
f 1 2 3
f 8 3 2
f 9 1 3
f 9 3 6
f 10 6 3
f 10 3 4
f 12 2 1
f 12 8 2
f 14 4 3
f 14 3 8
f 16 11 7
f 16 5 11
f 17 7 11
f 17 11 12
f 18 14 8
f 18 4 14
f 19 10 4
f 20 11 5
f 21 12 11
f 21 20 13
f 21 11 20
f 21 18 8
f 21 8 12
f 22 15 6
f 22 6 10
f 23 9 6
f 23 6 15
f 24 16 7
f 24 7 15
f 24 5 16
f 25 15 7
f 25 7 17
f 26 17 12
f 26 12 1
f 26 1 9
f 27 10 19
f 27 13 20
f 28 21 13
f 28 27 19
f 28 13 27
f 29 19 4
f 29 28 19
f 30 20 5
f 31 22 10
f 31 30 22
f 32 9 23
f 32 25 17
f 32 23 15
f 32 15 25
f 33 24 15
f 33 15 22
f 33 30 5
f 33 5 24
f 34 27 20
f 34 10 27
f 34 31 10
f 34 20 30
f 34 30 31
f 35 29 4
f 35 4 18
f 36 21 28
f 36 28 29
f 36 29 35
f 36 35 18
f 36 18 21
f 37 26 9
f 37 9 32
f 37 32 17
f 37 17 26
f 38 33 22
f 38 22 30
f 38 30 33

