# https://github.com/mikedh/trimesh
v -0.08153385 0.02051912 0.06413687
v -0.05388442 0.02015839 0.00036546
v -0.05400614 0.02004305 0.00560955
v -0.07157613 0.04654723 0.06412995
v -0.06848241 0.03409975 0.02552649
v -0.05240482 0.04425004 0.00551202
v -0.06920364 0.01925553 0.01590178
v -0.08122947 0.03148590 0.06221033
v -0.05566865 0.04676405 0.02263959
v -0.07170515 0.04301621 0.04393469
v -0.06285963 0.01922239 0.00348984
v -0.08238520 0.01959331 0.05270228
v -0.08177723 0.03165025 0.06525237
v -0.06561212 0.04309901 0.02859711
v -0.05270100 0.03828124 0.00076613
v -0.06533316 0.02788087 0.01322397
v -0.08474164 0.02002141 0.06466424
v -0.07832597 0.02209625 0.04071351
v -0.07655372 0.04414561 0.06507078
v -0.06852773 0.03705958 0.02858254
v -0.06074188 0.01952178 0.00069929
v -0.06227155 0.02210003 0.00381662
v -0.07164366 0.02518538 0.02536816
v -0.05634027 0.03682189 0.00408221
v -0.08106134 0.02516548 0.05294868
v -0.07549941 0.01941252 0.03120246
v -0.07817499 0.03424704 0.05293316
v -0.06858763 0.02214184 0.01619803
v -0.05980353 0.02520885 0.00155341
v -0.05410535 0.03727374 0.00147454
v -0.05614489 0.04265580 0.01013669
v -0.07879622 0.01951185 0.04053694
v -0.07496139 0.02206170 0.03142878
v -0.07495262 0.04339046 0.05608149
v -0.05908430 0.03096116 0.00383159
v -0.05374634 0.04316016 0.00655522
v -0.07482654 0.04034682 0.05001345
f 1 3 4
f 6 3 2
f 9 4 3
f 9 3 6
f 10 4 9
f 11 2 3
f 12 11 3
f 12 7 11
f 13 1 4
f 14 10 9
f 14 9 6
f 15 6 2
f 17 12 3
f 17 3 1
f 17 1 13
f 17 13 8
f 19 8 13
f 19 13 4
f 19 4 10
f 20 14 5
f 20 10 14
f 21 15 2
f 21 2 11
f 22 11 7
f 23 5 16
f 23 20 5
f 23 18 20
f 24 16 5
f 24 5 14
f 25 17 8
f 25 12 17
f 25 18 12
f 26 7 12
f 27 8 19
f 27 25 8
f 27 18 25
f 27 20 18
f 27 10 20
f 28 22 7
f 28 16 22
f 28 23 16
f 28 7 23
f 29 21 11
f 29 11 22
f 29 15 21
f 30 24 6
f 30 6 15
f 30 15 29
f 31 24 14
f 31 14 6
f 32 26 12
f 32 12 18
f 32 18 26
f 33 23 7
f 33 7 26
f 33 26 18
f 33 18 23
f 34 27 19
f 34 19 10
f 35 29 22
f 35 22 16
f 35 16 24
f 35 30 29
f 35 24 30
f 36 31 6
f 36 6 24
f 36 24 31
f 37 34 10
f 37 10 27
f 37 27 34

