# https://github.com/mikedh/trimesh
v 0.04101322 0.04560161 0.00568595
v 0.04080899 0.04541112 0.00028837
v 0.03906391 0.07726031 0.04348071
v 0.02422488 0.08408176 0.04326639
v 0.02488111 0.04509405 0.00601983
v 0.02921525 0.06353244 0.00400163
v 0.04214573 0.06941348 0.03856824
v 0.03888106 0.05540807 0.00170324
v 0.02628345 0.07912351 0.03157100
v 0.02376067 0.06758272 0.00635295
v 0.02506626 0.04546603 0.00100061
v 0.04127060 0.07144251 0.04212811
v 0.03810819 0.06367808 0.01329616
v 0.02706270 0.08322184 0.04356621
v 0.02392527 0.08319940 0.04042213
v 0.02444197 0.06318293 0.00081724
v 0.02598807 0.07910724 0.04155518
v 0.03554770 0.05814156 0.00195290
v 0.03840775 0.07304785 0.03161791
v 0.03561436 0.07597594 0.03461415
v 0.02385990 0.07983420 0.03130981
v 0.02677190 0.08233629 0.04072213
v 0.03819798 0.05766066 0.00394297
v 0.02968222 0.06146164 0.00161100
v 0.02614465 0.06680870 0.00681894
v 0.03860410 0.07650918 0.04060045
v 0.02942421 0.07896456 0.03470051
f 5 2 1
f 7 1 2
f 8 7 2
f 11 2 5
f 11 5 10
f 12 5 1
f 12 1 7
f 12 7 3
f 13 7 8
f 14 12 3
f 14 4 12
f 15 10 5
f 15 5 4
f 15 4 14
f 16 11 10
f 16 10 6
f 16 8 2
f 16 2 11
f 17 12 4
f 17 4 5
f 17 5 12
f 18 6 13
f 19 3 7
f 19 7 13
f 20 14 3
f 21 15 9
f 21 9 10
f 21 10 15
f 22 15 14
f 22 9 15
f 23 18 13
f 23 13 8
f 23 8 18
f 24 16 6
f 24 6 18
f 24 18 8
f 24 8 16
f 25 19 13
f 25 13 6
f 25 6 10
f 25 20 19
f 25 10 9
f 25 9 20
f 26 20 3
f 26 3 19
f 26 19 20
f 27 20 9
f 27 9 22
f 27 22 14
f 27 14 20

