# https://github.com/mikedh/trimesh
v 0.02430417 -0.09125240 0.12710787
v 0.08665211 -0.01749233 0.12729570
v 0.06212851 -0.06182654 0.14196327
v 0.07407607 -0.01808760 0.15972236
v 0.01581635 -0.08314606 0.15026892
v 0.07427606 -0.03477830 0.15435178
v 0.06615529 -0.06246945 0.12681338
v 0.08285405 -0.01782503 0.12771266
v 0.04138713 -0.07121808 0.16386629
v 0.07825554 -0.01703693 0.15788032
v 0.04200468 -0.08353158 0.12668581
v 0.07444851 -0.04673414 0.13584858
v 0.02589636 -0.08685514 0.12800653
v 0.01609980 -0.07727003 0.16628137
v 0.06232618 -0.04999062 0.16370695
v 0.08433436 -0.02022868 0.13606924
v 0.08481328 -0.01718643 0.13619450
v 0.08476887 -0.02628837 0.12701696
v 0.03533818 -0.08301176 0.14212215
v 0.05334689 -0.07388375 0.13278120
v 0.07136164 -0.05303510 0.13295338
v 0.01489257 -0.08694409 0.15165436
v 0.06216218 -0.05247245 0.16034758
v 0.06703927 -0.04180564 0.16447623
v 0.07744870 -0.02890159 0.15136385
v 0.08137399 -0.01707413 0.14857290
v 0.03578781 -0.08678036 0.12706670
v 0.05101208 -0.07747224 0.12672416
v 0.06239277 -0.06506383 0.13281357
v 0.05342108 -0.07078227 0.14207846
v 0.06570404 -0.06208522 0.12984714
v 0.08166404 -0.03547889 0.12705248
v 0.01478122 -0.08354370 0.16077836
v 0.01503523 -0.08782954 0.14889358
v 0.07123505 -0.04378200 0.15120642
v 0.07425369 -0.03197339 0.15754057
v 0.06104112 -0.04394433 0.16607848
v 0.08061021 -0.03506623 0.13289306
v 0.08084995 -0.02009378 0.14841282
v 0.02678024 -0.08916339 0.13294503
v 0.02714786 -0.09033083 0.12712959
v 0.03543899 -0.08630606 0.12977059
v 0.04428821 -0.07678795 0.14507060
v 0.04411935 -0.07068276 0.16046571
v 0.07235591 -0.05364506 0.12698032
v 0.01512388 -0.08194848 0.16456497
v 0.02623366 -0.08283694 0.15422807
v 0.06589771 -0.04422797 0.16401073
v 0.07773297 -0.02006853 0.15768713
v 0.07744856 -0.03205110 0.14821425
v 0.08422646 -0.02611189 0.12995479
v 0.02392858 -0.09003102 0.13312057
v 0.04168926 -0.08294348 0.12968696
v 0.03261795 -0.08602528 0.13589216
v 0.05064247 -0.07695442 0.12973947
v 0.03529294 -0.07992043 0.15128056
v 0.04710292 -0.07377517 0.14800690
v 0.01785532 -0.08298537 0.16060806
v 0.01781400 -0.08638016 0.15145973
v 0.02637663 -0.08594787 0.14518905
v 0.02362145 -0.07996157 0.16367429
f 8 2 1
f 10 8 4
f 13 8 1
f 13 1 5
f 13 5 8
f 14 8 5
f 14 4 8
f 17 2 8
f 17 8 10
f 17 16 2
f 18 11 1
f 18 1 2
f 18 7 11
f 18 2 16
f 23 15 9
f 23 3 21
f 24 10 4
f 26 17 10
f 26 16 17
f 28 11 7
f 29 28 7
f 29 20 28
f 30 3 23
f 30 29 3
f 30 20 29
f 31 21 3
f 31 29 7
f 31 3 29
f 32 7 18
f 33 14 5
f 33 5 22
f 34 22 5
f 34 5 1
f 35 23 21
f 35 21 12
f 35 6 24
f 36 24 6
f 37 24 4
f 37 4 14
f 37 14 9
f 37 9 15
f 37 15 24
f 38 32 18
f 38 12 32
f 39 16 26
f 39 26 10
f 41 1 11
f 41 11 27
f 41 40 1
f 41 27 40
f 42 27 11
f 42 40 27
f 44 30 23
f 44 23 9
f 45 32 12
f 45 12 21
f 45 7 32
f 45 31 7
f 45 21 31
f 46 9 14
f 46 14 33
f 48 35 24
f 48 24 15
f 48 15 23
f 48 23 35
f 49 10 24
f 49 24 36
f 49 36 25
f 49 39 10
f 49 25 39
f 50 36 6
f 50 25 36
f 50 6 35
f 50 35 12
f 50 12 38
f 50 39 25
f 50 16 39
f 51 38 18
f 51 18 16
f 51 50 38
f 51 16 50
f 52 34 1
f 52 1 40
f 53 42 11
f 53 19 42
f 53 43 19
f 54 42 19
f 54 40 42
f 55 28 20
f 55 43 53
f 55 53 11
f 55 11 28
f 56 43 9
f 56 19 43
f 57 30 44
f 57 43 55
f 57 55 20
f 57 20 30
f 57 44 9
f 57 9 43
f 58 33 22
f 58 46 33
f 59 22 34
f 59 34 52
f 59 58 22
f 59 47 58
f 60 52 40
f 60 59 52
f 60 47 59
f 60 40 54
f 60 54 19
f 60 56 47
f 60 19 56
f 61 56 9
f 61 47 56
f 61 58 47
f 61 9 46
f 61 46 58

