# https://github.com/mikedh/trimesh
v 0.01779915 -0.09245999 0.12984913
v 0.02453138 -0.09202546 0.12107068
v 0.01553772 -0.07767063 0.16539520
v -0.01292318 -0.07800798 0.16551286
v -0.01251364 -0.09483515 0.12104154
v 0.02516602 -0.08794645 0.12135288
v 0.00267496 -0.08629635 0.15764297
v 0.02442389 -0.08529917 0.14906586
v 0.02112294 -0.09320032 0.12088883
v 0.02516785 -0.08112139 0.14977317
v -0.01305298 -0.09153040 0.12138561
v 0.01155814 -0.08299489 0.16376140
v 0.00897075 -0.09259971 0.13604381
v -0.01199342 -0.08293730 0.16370338
v 0.02371888 -0.08940400 0.13606203
v 0.01512388 -0.08194848 0.16456497
v 0.02589636 -0.08685514 0.12800653
v -0.01381871 -0.09007495 0.12848568
v -0.00629465 -0.09273293 0.13609401
v 0.01461979 -0.08602357 0.15445285
v -0.00313419 -0.08629786 0.15761665
v 0.02091417 -0.09283360 0.12390363
v 0.01779852 -0.08931318 0.14219803
v 0.02592981 -0.08327294 0.14094301
v -0.01344641 -0.08011796 0.16029575
v -0.01208532 -0.08957507 0.14527861
v 0.00268531 -0.08948889 0.14836384
v 0.01478122 -0.08354370 0.16077836
v 0.01469708 -0.09240256 0.13293880
v 0.02387167 -0.08667111 0.14533945
v -0.01209212 -0.09286727 0.13307592
v -0.00314844 -0.08950271 0.14832674
f 9 6 2
f 9 5 6
f 10 6 4
f 10 4 3
f 11 6 5
f 11 4 6
f 13 5 9
f 15 2 8
f 16 10 3
f 16 8 10
f 16 3 4
f 16 14 12
f 16 4 14
f 17 8 2
f 17 2 6
f 18 11 5
f 18 4 11
f 19 5 13
f 20 12 7
f 21 7 12
f 21 12 14
f 22 9 2
f 22 2 15
f 22 15 1
f 22 1 9
f 23 1 15
f 23 20 13
f 23 8 20
f 24 10 8
f 24 8 17
f 24 17 6
f 24 6 10
f 25 14 4
f 25 4 18
f 26 25 18
f 26 14 25
f 26 21 14
f 27 19 13
f 27 20 7
f 27 13 20
f 28 16 12
f 28 12 20
f 28 20 8
f 28 8 16
f 29 23 13
f 29 1 23
f 29 13 9
f 29 9 1
f 30 23 15
f 30 15 8
f 30 8 23
f 31 26 18
f 31 18 5
f 31 5 19
f 31 19 26
f 32 27 7
f 32 7 21
f 32 21 26
f 32 26 19
f 32 19 27

