# https://github.com/mikedh/trimesh
v -0.03067652 0.01951149 0.27237280
v 0.01291040 0.03748878 0.25089539
v 0.01261999 0.03329164 0.29132823
v -0.01170863 0.03616771 0.29146459
v -0.02172004 0.03824797 0.23735023
v 0.01120304 0.04211656 0.24910441
v -0.01678010 0.03081465 0.29129911
v 0.01328592 0.03551473 0.25738458
v -0.03603119 0.01912711 0.24979512
v 0.01152798 0.03665235 0.29144526
v -0.00902239 0.04246770 0.24926916
v -0.01665663 0.04060128 0.23853061
v -0.02919182 0.03022700 0.24915278
v -0.03207220 0.01863531 0.26548748
v 0.00259267 0.04146167 0.25560067
v -0.01753267 0.03915577 0.24918842
v -0.01535970 0.03459162 0.29137555
v -0.03492632 0.02174773 0.24927724
v -0.03528710 0.01883458 0.25271079
v -0.02612835 0.03321751 0.24921584
v -0.02793054 0.02391215 0.27224394
v -0.02298335 0.03688314 0.23827075
f 7 1 3
f 9 5 2
f 9 2 8
f 10 2 6
f 10 8 2
f 10 3 8
f 10 7 3
f 10 4 7
f 11 4 10
f 12 6 2
f 12 2 5
f 12 11 6
f 14 8 3
f 14 3 1
f 15 11 10
f 15 10 6
f 15 6 11
f 16 12 5
f 16 4 11
f 16 11 12
f 17 7 4
f 17 16 5
f 17 4 16
f 17 1 7
f 18 9 1
f 19 9 8
f 19 8 14
f 19 14 1
f 19 1 9
f 20 17 5
f 20 5 13
f 20 13 17
f 21 17 13
f 21 1 17
f 21 18 1
f 21 13 18
f 22 18 13
f 22 13 5
f 22 5 9
f 22 9 18

