# https://github.com/mikedh/trimesh
v 0.03770674 -0.05256057 0.00757052
v 0.05030667 -0.03037210 0.00031168
v 0.05076462 0.03611269 0.00640682
v -0.02539589 0.02953609 0.00653308
v -0.02552768 -0.05250088 0.00043074
v 0.05011641 0.03580957 0.00017028
v 0.05038252 -0.03035525 0.00617602
v 0.03742362 -0.05216223 0.00003794
v -0.02541689 -0.05238284 0.00587008
v 0.04086350 0.03598141 0.00082099
v -0.02556196 -0.03353068 0.00159023
v 0.04061121 0.03572704 0.00569363
v -0.02543962 0.02955460 0.00168679
f 1 3 4
f 6 3 2
f 7 1 2
f 7 2 3
f 7 3 1
f 8 2 1
f 8 1 5
f 8 6 2
f 8 5 6
f 9 5 1
f 9 1 4
f 10 3 6
f 11 9 4
f 11 5 9
f 12 10 4
f 12 4 3
f 12 3 10
f 13 10 6
f 13 6 5
f 13 5 11
f 13 11 4
f 13 4 10

