# https://github.com/mikedh/trimesh
v 0.02488145 0.06082149 0.00023109
v 0.02597348 0.06292350 0.00923487
v -0.01295668 0.06139988 0.00559816
v 0.01510758 0.09019242 0.05570560
v 0.02362515 0.08231713 0.03757826
v 0.02587920 0.08284411 0.05415473
v 0.02364852 0.07597801 0.02228200
v -0.01349780 0.07987167 0.03507282
v 0.02442161 0.08770970 0.05555297
v 0.02376316 0.06459273 0.00165048
v 0.00874359 0.08229583 0.02844972
v 0.01621430 0.08576996 0.05430368
v 0.01757321 0.08523520 0.04077675
v 0.01792166 0.08961237 0.05583627
v -0.01223103 0.06804920 0.00153438
v -0.01258005 0.08485111 0.03672364
v 0.01152528 0.06992748 0.00387481
v 0.02361490 0.08542669 0.04687702
v 0.01501483 0.08944421 0.05284836
v 0.01757780 0.07922283 0.02537129
v 0.01763505 0.06717635 0.00202163
v -0.01284522 0.06118019 0.00022248
v -0.00928166 0.08224571 0.02851181
v 0.01775712 0.08892956 0.05302190
v 0.02061057 0.08217996 0.03461693
v 0.01160652 0.07915253 0.02221316
v 0.02333050 0.06642535 0.00404333
v -0.01204988 0.07891404 0.02230823
v -0.01207478 0.06968061 0.00374006
v -0.01218778 0.08292509 0.03129757
f 1 2 3
f 6 3 2
f 7 6 2
f 8 3 6
f 9 7 5
f 9 6 7
f 10 7 2
f 10 2 1
f 12 8 6
f 12 4 8
f 14 6 9
f 14 12 6
f 14 4 12
f 16 8 4
f 16 15 8
f 18 9 5
f 18 5 13
f 19 13 11
f 19 16 4
f 19 11 16
f 20 11 13
f 20 7 17
f 21 10 1
f 21 1 15
f 21 15 17
f 21 17 7
f 22 15 1
f 22 1 3
f 22 3 8
f 22 8 15
f 23 16 11
f 23 11 17
f 24 14 9
f 24 9 18
f 24 18 13
f 24 13 19
f 24 19 4
f 24 4 14
f 25 20 13
f 25 13 5
f 25 5 7
f 25 7 20
f 26 20 17
f 26 17 11
f 26 11 20
f 27 21 7
f 27 7 10
f 27 10 21
f 29 23 17
f 29 17 15
f 29 28 23
f 29 15 16
f 29 16 28
f 30 28 16
f 30 16 23
f 30 23 28

