# https://github.com/mikedh/trimesh
v -0.02803739 -0.07014051 0.01481456
v -0.02712110 -0.06228310 0.00087838
v -0.02534461 -0.04278234 0.00649494
v -0.06942474 -0.03025503 0.02366516
v -0.05832535 -0.05105710 0.02457382
v -0.05758280 -0.02938842 0.00073230
v -0.02541689 -0.05238284 0.00587008
v -0.04527917 -0.05940075 0.01574740
v -0.04955679 -0.05433841 0.02252908
v -0.02558523 -0.04305732 0.00108574
v -0.04107811 -0.03023311 0.00636613
v -0.05934348 -0.04346841 0.01644888
v -0.02748214 -0.06896385 0.01231701
v -0.03579893 -0.06478308 0.01300317
v -0.03650179 -0.06582232 0.01552973
v -0.04724955 -0.04931199 0.00388335
v -0.06370851 -0.03186638 0.02216846
v -0.06651146 -0.03819508 0.02496544
v -0.02552768 -0.05250088 0.00043074
v -0.06630217 -0.02904492 0.01587842
v -0.04133821 -0.03039852 0.00092358
v -0.03008415 -0.06801712 0.01287076
v -0.03057394 -0.06919295 0.01536389
v -0.03859047 -0.06115123 0.01015479
v -0.05025532 -0.04350178 0.00162849
v -0.05319386 -0.04934075 0.01337322
v -0.06335364 -0.04421010 0.02514458
v -0.06304552 -0.02895850 0.00970956
v -0.06552604 -0.03165250 0.01631565
v -0.02970234 -0.06138163 0.00144524
v -0.04117996 -0.05523946 0.00388762
v -0.03873761 -0.05542770 0.00155637
v -0.05907214 -0.03464645 0.00698959
v -0.05659231 -0.04961895 0.01936631
v -0.06555085 -0.03770321 0.02224383
v -0.06235669 -0.04362203 0.02236796
v -0.05683373 -0.03188659 0.00120339
v -0.06222849 -0.03157893 0.01018442
f 7 3 1
f 9 5 1
f 9 1 3
f 13 7 1
f 15 5 8
f 17 9 3
f 17 11 4
f 17 3 11
f 18 17 4
f 18 9 17
f 19 2 6
f 19 13 2
f 19 7 13
f 19 10 3
f 19 3 7
f 20 4 11
f 21 6 11
f 21 19 6
f 21 10 19
f 21 11 3
f 21 3 10
f 22 13 1
f 23 1 5
f 23 5 15
f 23 22 1
f 23 15 14
f 23 14 22
f 24 15 8
f 24 14 15
f 26 16 8
f 26 25 16
f 26 12 25
f 27 5 9
f 27 9 18
f 28 20 11
f 28 11 6
f 29 4 20
f 29 20 28
f 30 22 14
f 30 2 13
f 30 13 22
f 30 14 24
f 31 24 8
f 31 8 16
f 32 25 6
f 32 6 2
f 32 2 30
f 32 30 24
f 32 24 31
f 32 31 16
f 32 16 25
f 33 25 12
f 34 26 8
f 34 8 5
f 34 12 26
f 35 27 18
f 35 18 4
f 35 4 29
f 35 33 12
f 35 29 33
f 36 5 27
f 36 34 5
f 36 12 34
f 36 35 12
f 36 27 35
f 37 6 25
f 37 25 33
f 37 28 6
f 38 33 29
f 38 29 28
f 38 37 33
f 38 28 37

