# https://github.com/mikedh/trimesh
v -0.02793977 -0.08240010 0.04298360
v -0.02702048 -0.07127623 0.01588610
v -0.02951136 -0.06339358 0.01306513
v -0.07201774 -0.05195286 0.06468676
v -0.05355932 -0.06787218 0.04696197
v -0.02976431 -0.07698611 0.04153858
v -0.02721270 -0.08073253 0.03737959
v -0.05512851 -0.07221980 0.06508131
v -0.05255027 -0.05137833 0.01493639
v -0.06654465 -0.05469352 0.06397535
v -0.04178681 -0.07054943 0.03152576
v -0.03576850 -0.07681862 0.03766211
v -0.06264719 -0.06195378 0.05619137
v -0.04513499 -0.07551137 0.06428015
v -0.03311229 -0.06088619 0.01254537
v -0.03885638 -0.06464417 0.01622085
v -0.04750104 -0.06144222 0.02238439
v -0.05393711 -0.07078304 0.05633606
v -0.03055503 -0.08131633 0.04337069
v -0.03267313 -0.07027691 0.01950744
v -0.06944046 -0.05620576 0.06529125
v -0.05946127 -0.05238241 0.02865615
v -0.04272946 -0.05399744 0.01276903
v -0.04774811 -0.06758002 0.03470947
v -0.04164814 -0.06449742 0.01936654
v -0.02978105 -0.07972480 0.03777238
v -0.02963883 -0.07023254 0.01640228
v -0.06688755 -0.05071998 0.04344176
v -0.05975243 -0.06163407 0.04707860
v -0.05337540 -0.05568378 0.02243541
v -0.05124568 -0.05343003 0.01565666
v -0.06857893 -0.05296413 0.05315996
v -0.06064402 -0.05048173 0.02812270
v -0.06571576 -0.05272838 0.04397338
v -0.05505667 -0.05087735 0.01842037
v -0.06900317 -0.05587733 0.06223971
v -0.06990369 -0.05063017 0.05277454
v -0.06568499 -0.05568681 0.05015910
v -0.05384867 -0.05287197 0.01913220
f 7 2 3
f 7 6 1
f 7 3 6
f 10 6 3
f 14 8 1
f 14 1 6
f 14 6 10
f 15 3 2
f 16 15 2
f 16 9 15
f 18 5 12
f 18 13 5
f 18 8 13
f 19 1 8
f 19 18 12
f 19 8 18
f 20 12 11
f 21 13 8
f 21 8 14
f 21 14 10
f 21 10 4
f 23 10 3
f 23 3 15
f 23 4 10
f 23 15 9
f 24 12 5
f 24 11 12
f 25 24 17
f 25 11 24
f 25 20 11
f 25 16 20
f 26 19 12
f 26 7 1
f 26 1 19
f 26 12 20
f 26 20 2
f 26 2 7
f 27 20 16
f 27 16 2
f 27 2 20
f 29 5 13
f 30 17 24
f 30 29 22
f 30 24 5
f 30 5 29
f 31 25 17
f 31 9 16
f 31 16 25
f 31 17 30
f 34 22 29
f 34 33 22
f 34 28 33
f 34 32 28
f 35 22 33
f 35 23 9
f 36 21 4
f 36 4 32
f 36 13 21
f 37 32 4
f 37 28 32
f 37 33 28
f 37 35 33
f 37 4 23
f 37 23 35
f 38 34 29
f 38 29 13
f 38 32 34
f 38 36 32
f 38 13 36
f 39 30 22
f 39 22 35
f 39 31 30
f 39 35 9
f 39 9 31

