# https://github.com/mikedh/trimesh
v 0.01573681 0.07798454 0.16590261
v 0.01587327 0.09185254 0.10878803
v 0.01476161 0.09167559 0.13596112
v -0.01529528 0.09213669 0.13308699
v -0.01619701 0.07785161 0.16578942
v 0.01490765 0.09550658 0.10858223
v 0.01647425 0.08007194 0.16039310
v -0.01641694 0.09211416 0.10879672
v 0.01167589 0.08549699 0.15754351
v 0.01485291 0.09520529 0.11470954
v -0.01666871 0.07982694 0.16044837
v -0.01522813 0.09539087 0.10856464
v 0.01474294 0.08243466 0.16387088
v -0.00632024 0.09191020 0.13921398
v -0.01517195 0.08223465 0.16376583
v -0.01519046 0.09521714 0.11155284
v 0.00585130 0.09523674 0.12392096
v 0.01162797 0.08869269 0.14836844
v -0.01526759 0.08888714 0.14530497
v -0.01206886 0.08533223 0.15752171
v 0.01167183 0.09511454 0.12076697
v -0.01212572 0.09531581 0.11770617
v 0.00586059 0.09195881 0.13922269
v -0.01212350 0.09204184 0.13608553
v -0.01209791 0.08854918 0.14830640
v -0.00629394 0.09515865 0.12390241
f 5 2 1
f 7 1 2
f 8 2 5
f 10 2 6
f 10 7 2
f 10 3 7
f 11 8 5
f 11 4 8
f 12 6 2
f 12 2 8
f 13 5 1
f 13 1 7
f 13 7 3
f 15 11 5
f 15 5 13
f 16 12 8
f 16 8 4
f 18 13 3
f 18 9 13
f 19 4 11
f 19 11 15
f 20 9 14
f 20 19 15
f 20 15 13
f 20 13 9
f 21 10 6
f 21 6 17
f 21 17 3
f 21 3 10
f 22 17 6
f 22 6 12
f 22 12 16
f 22 16 4
f 23 14 9
f 23 9 18
f 23 17 14
f 23 18 3
f 23 3 17
f 24 4 19
f 25 20 14
f 25 19 20
f 25 24 19
f 25 14 24
f 26 14 17
f 26 17 22
f 26 24 14
f 26 22 4
f 26 4 24

