# https://github.com/mikedh/trimesh
v -0.01227159 -0.09346389 0.13009694
v -0.01238566 -0.09406354 0.12707050
v -0.00986671 -0.04056077 0.24437080
v -0.02615285 -0.03094958 0.24436835
v -0.03376826 -0.08143704 0.14879883
v -0.01381871 -0.09007495 0.12848568
v -0.00920647 -0.05908351 0.21434658
v -0.02181264 -0.09187066 0.12725757
v -0.02750023 -0.03234409 0.23896733
v -0.01041258 -0.05618085 0.21122569
v -0.01208004 -0.08027175 0.17018759
v -0.02281467 -0.03925205 0.24227972
v -0.01536958 -0.09350363 0.12703300
v -0.03601277 -0.07609465 0.15017662
v -0.01224272 -0.09039276 0.14245820
v -0.00896112 -0.04556478 0.24251685
v -0.01380280 -0.03909210 0.24502140
v -0.03257988 -0.05238913 0.20750413
v -0.02247601 -0.08778868 0.12769941
v -0.01830099 -0.08924247 0.14212696
v -0.00963747 -0.06158509 0.20934003
v -0.02665735 -0.07028628 0.18207970
v -0.02430288 -0.03245555 0.24499358
v -0.01141047 -0.04495056 0.24225669
v -0.03295164 -0.07335277 0.16981632
v -0.03626017 -0.04414695 0.20720090
v -0.01524878 -0.09289546 0.12993431
v -0.02106735 -0.08931460 0.13909519
v -0.01827919 -0.08288535 0.16060609
v -0.01790470 -0.07341410 0.18225472
v -0.02980764 -0.06713832 0.18523009
v -0.03691363 -0.05153793 0.19523783
v -0.02412859 -0.07978760 0.16365116
v -0.01511265 -0.07972089 0.16996136
v -0.03240173 -0.06738821 0.18217508
v -0.03301024 -0.07982655 0.15429913
v -0.02671722 -0.07329586 0.17589875
v -0.03211903 -0.05492241 0.20398780
f 6 3 2
f 7 1 2
f 9 4 3
f 9 3 6
f 10 7 2
f 10 2 3
f 10 3 7
f 13 2 1
f 14 8 5
f 15 1 7
f 15 7 11
f 16 7 3
f 17 16 3
f 18 12 4
f 19 13 8
f 19 6 2
f 19 2 13
f 19 8 14
f 20 1 15
f 21 16 11
f 21 11 7
f 21 7 16
f 23 17 3
f 23 3 4
f 23 4 12
f 23 12 17
f 24 17 12
f 24 16 17
f 25 14 5
f 26 19 14
f 26 9 6
f 26 6 19
f 26 18 4
f 26 4 9
f 27 13 1
f 27 1 20
f 27 8 13
f 28 5 8
f 28 27 20
f 28 8 27
f 29 20 15
f 29 15 11
f 30 11 16
f 30 24 22
f 30 16 24
f 31 24 12
f 31 22 24
f 31 25 22
f 32 18 26
f 32 26 14
f 32 14 25
f 33 28 20
f 33 20 29
f 34 29 11
f 34 11 30
f 34 33 29
f 34 30 33
f 35 31 12
f 35 25 31
f 35 32 25
f 35 18 32
f 36 33 25
f 36 25 5
f 36 5 28
f 36 28 33
f 37 22 25
f 37 25 33
f 37 33 30
f 37 30 22
f 38 35 12
f 38 12 18
f 38 18 35

