# https://github.com/mikedh/trimesh
v 0.01509472 -0.09444852 0.12099073
v 0.01589729 -0.08609282 0.05446393
v 0.01572300 -0.09102885 0.12140117
v -0.03497253 -0.08401046 0.12127985
v -0.02100972 -0.09251377 0.07459931
v -0.01381871 -0.09007495 0.12848568
v 0.01603639 -0.08684227 0.05760169
v -0.02239606 -0.08417689 0.05501001
v -0.02247601 -0.08778868 0.12769941
v -0.00942313 -0.09605152 0.11463659
v 0.00897686 -0.09273579 0.06218644
v -0.03420572 -0.08857414 0.08360673
v -0.01238566 -0.09406354 0.12707050
v 0.01490296 -0.09014430 0.05589705
v -0.01803572 -0.08954696 0.05607043
v -0.00314529 -0.09604324 0.08066440
v -0.03515249 -0.08432112 0.08341618
v -0.02413794 -0.09248212 0.08378720
v 0.00263557 -0.09588095 0.12079292
v -0.02181264 -0.09187066 0.12725757
v 0.01473138 -0.09240751 0.06534071
v -0.00939898 -0.09270018 0.06225505
v -0.02173658 -0.08831439 0.05559066
v -0.03406417 -0.08823854 0.12099128
v -0.01185934 -0.09610352 0.09312228
v -0.00309778 -0.09585606 0.12075211
v 0.01161566 -0.09605136 0.08992551
v -0.02085687 -0.09267207 0.12394328
v 0.00273576 -0.09609986 0.08066036
v -0.00936777 -0.09609245 0.08689056
v -0.02115378 -0.08943999 0.05924728
v -0.03325673 -0.08934668 0.11462854
v 0.01161469 -0.09603260 0.11161854
v -0.01837534 -0.09285869 0.12707522
v -0.01207315 -0.09606481 0.10843067
v -0.03032013 -0.08988234 0.12079787
v -0.03325905 -0.08947312 0.09000811
v -0.02416385 -0.09243738 0.11759689
f 3 2 4
f 6 1 3
f 7 2 3
f 7 3 1
f 8 4 2
f 9 6 3
f 9 3 4
f 13 1 6
f 14 2 7
f 17 4 8
f 18 12 5
f 19 1 13
f 20 13 6
f 20 6 9
f 21 14 7
f 21 7 1
f 21 11 14
f 22 15 14
f 22 14 11
f 22 5 15
f 23 8 2
f 23 2 14
f 23 14 15
f 23 17 8
f 23 12 17
f 24 17 12
f 24 4 17
f 24 20 9
f 24 9 4
f 25 18 5
f 26 19 13
f 26 13 10
f 26 10 19
f 27 21 1
f 29 22 11
f 29 16 22
f 29 11 21
f 29 21 27
f 30 22 16
f 30 5 22
f 30 25 5
f 30 29 25
f 30 16 29
f 31 23 15
f 31 15 5
f 31 5 12
f 31 12 23
f 32 24 12
f 33 27 1
f 33 1 19
f 33 19 10
f 33 29 27
f 33 10 25
f 33 25 29
f 34 28 10
f 34 10 13
f 34 13 20
f 34 20 28
f 35 25 10
f 35 10 28
f 35 18 25
f 36 28 20
f 36 20 24
f 36 24 32
f 37 32 12
f 37 12 18
f 38 35 28
f 38 18 35
f 38 37 18
f 38 32 37
f 38 36 32
f 38 28 36

