# https://github.com/mikedh/trimesh
v 0.05834376 -0.07288437 0.08358904
v 0.08367452 -0.01750005 0.05537163
v 0.07935891 -0.03701052 0.08340444
v 0.08058740 -0.01804818 0.05468154
v 0.05889359 -0.06112926 0.04281550
v 0.06238096 -0.06402514 0.08323176
v 0.07687167 -0.01807300 0.04197230
v 0.07469686 -0.05020584 0.07150336
v 0.08151532 -0.01715649 0.04664519
v 0.06208959 -0.05102983 0.04135646
v 0.08192268 -0.02621583 0.05580915
v 0.07580737 -0.05076579 0.08369256
v 0.06222156 -0.06492606 0.06231592
v 0.05809463 -0.06350325 0.04628463
v 0.07441565 -0.03783104 0.04384447
v 0.08105910 -0.02001838 0.04678305
v 0.05982362 -0.07142966 0.08370512
v 0.06811025 -0.05293916 0.05013188
v 0.07163406 -0.05599498 0.07446509
v 0.05771345 -0.06935858 0.06193089
v 0.07140734 -0.04393929 0.04378398
v 0.07750904 -0.03495571 0.05006282
v 0.08035030 -0.01748054 0.04290549
v 0.08127950 -0.02604582 0.05289348
v 0.06217652 -0.06194131 0.05311432
v 0.06263432 -0.06793542 0.07757828
v 0.07157785 -0.05009839 0.05614527
v 0.06840122 -0.05905808 0.06837236
v 0.05789786 -0.07259607 0.07737867
v 0.06576035 -0.05310785 0.04377469
v 0.07769269 -0.02901803 0.04375517
v 0.05972155 -0.06205739 0.04690646
v 0.05781516 -0.06628009 0.05259494
v 0.05932997 -0.06784269 0.06234456
v 0.07222649 -0.05664002 0.08367751
v 0.06237782 -0.05899711 0.04695946
v 0.05949459 -0.06479585 0.05311070
v 0.06298677 -0.06829383 0.08370399
v 0.06049291 -0.05969407 0.04346320
f 3 2 4
f 6 1 3
f 6 3 4
f 7 6 4
f 7 1 6
f 9 7 4
f 9 4 2
f 10 1 7
f 11 2 3
f 12 11 3
f 12 8 11
f 14 10 5
f 14 1 10
f 16 9 2
f 17 12 3
f 17 3 1
f 19 8 12
f 21 5 10
f 21 10 15
f 22 11 8
f 22 21 15
f 23 15 10
f 23 10 7
f 23 7 9
f 23 9 16
f 24 16 2
f 24 2 11
f 24 11 22
f 27 8 19
f 27 18 21
f 27 22 8
f 27 21 22
f 28 27 19
f 28 18 27
f 28 25 18
f 28 13 25
f 28 26 13
f 28 19 26
f 29 1 14
f 29 26 1
f 29 20 26
f 30 21 18
f 30 5 21
f 31 22 15
f 31 24 22
f 31 16 24
f 31 23 16
f 31 15 23
f 32 14 5
f 33 29 14
f 33 20 29
f 34 26 20
f 34 20 13
f 34 13 26
f 35 26 19
f 35 19 12
f 36 30 18
f 36 18 25
f 37 32 25
f 37 25 13
f 37 13 20
f 37 20 33
f 37 33 14
f 37 14 32
f 38 35 12
f 38 12 17
f 38 26 35
f 38 17 1
f 38 1 26
f 39 36 25
f 39 25 32
f 39 32 5
f 39 5 30
f 39 30 36

