# https://github.com/mikedh/trimesh
v 0.02355481 0.03699045 0.24634823
v 0.04595431 0.03830161 0.20883415
v 0.03598783 0.07432129 0.16420460
v 0.00275357 0.08371948 0.16439342
v -0.02043761 0.04146718 0.23268325
v 0.03829381 0.06849488 0.16604614
v 0.02047054 0.07261845 0.18223284
v 0.03498400 0.06049789 0.19157526
v -0.02093493 0.03702157 0.24956120
v 0.03960374 0.06362142 0.17305826
v -0.01988934 0.05352063 0.21053736
v 0.02102154 0.08059685 0.16433454
v 0.00834834 0.04436466 0.24549434
v 0.04479177 0.04041566 0.20809681
v 0.01955358 0.03855887 0.24888478
v 0.04491195 0.03764002 0.21139441
v 0.00306861 0.07929089 0.16666439
v -0.01850550 0.05936983 0.20853732
v -0.02208864 0.03870574 0.24395615
v -0.02050090 0.05126738 0.21414522
v 0.02961249 0.07627612 0.16692616
v 0.00901324 0.08335470 0.16423594
v 0.03493554 0.05100075 0.20714458
v 0.02086417 0.03739427 0.24981037
v 0.01409097 0.04119096 0.24886618
v 0.04152013 0.03720754 0.21744525
v -0.00564389 0.04466388 0.24573617
v 0.02370420 0.07594753 0.17297243
v 0.03000248 0.07725888 0.16420990
v 0.03542923 0.07342856 0.16688800
v 0.01455723 0.07581557 0.17917123
v 0.04029561 0.03941784 0.21668594
v -0.01152525 0.04179476 0.24900129
v 0.00264138 0.07293208 0.18867119
v 0.02034223 0.06634835 0.19463259
v 0.01749370 0.07925474 0.16988644
v -0.01193594 0.06361462 0.20432201
v -0.02001172 0.03798261 0.24874989
v 0.00894114 0.08230043 0.16697828
v 0.02074223 0.07956651 0.16703780
v -0.00313208 0.07289889 0.18865252
v 0.00267277 0.08271016 0.16702744
f 6 4 3
f 10 6 3
f 10 3 2
f 10 2 6
f 14 2 3
f 14 3 8
f 16 9 5
f 16 5 2
f 16 2 14
f 17 11 4
f 17 4 6
f 17 6 11
f 18 4 11
f 19 5 9
f 19 9 18
f 20 11 6
f 20 6 2
f 20 2 5
f 20 5 19
f 20 19 18
f 20 18 11
f 22 3 4
f 23 14 8
f 24 23 8
f 24 1 23
f 24 9 1
f 25 24 15
f 26 1 9
f 26 9 16
f 27 25 13
f 29 21 3
f 29 12 21
f 29 22 12
f 29 3 22
f 30 8 3
f 30 3 21
f 30 24 8
f 30 21 15
f 30 15 24
f 31 25 7
f 31 13 25
f 32 23 1
f 32 14 23
f 32 1 26
f 32 26 16
f 32 16 14
f 33 9 24
f 33 24 25
f 33 25 27
f 34 27 13
f 34 13 31
f 35 21 28
f 35 25 15
f 35 15 21
f 35 28 7
f 35 7 25
f 36 12 22
f 36 31 7
f 36 7 28
f 37 33 27
f 37 18 33
f 38 33 18
f 38 18 9
f 38 9 33
f 39 34 31
f 39 36 22
f 39 31 36
f 40 36 28
f 40 12 36
f 40 28 21
f 40 21 12
f 41 37 27
f 41 27 34
f 41 4 18
f 41 18 37
f 42 34 39
f 42 41 34
f 42 4 41
f 42 39 22
f 42 22 4

