# https://github.com/mikedh/trimesh
v -0.07150266 0.05697993 0.08356635
v -0.02180763 0.08470680 0.04300865
v -0.02305054 0.08860416 0.07691507
v -0.02227168 0.09250053 0.07716857
v -0.05098316 0.07648168 0.06847721
v -0.02125142 0.08606638 0.04672915
v -0.03450418 0.08852139 0.08355244
v -0.02335684 0.07989697 0.04129855
v -0.02131436 0.08943525 0.05901235
v -0.03587182 0.08224465 0.05297570
v -0.03713523 0.08364023 0.08303482
v -0.05712914 0.07370627 0.08375276
v -0.06559037 0.05987688 0.08331470
v -0.02697055 0.08520426 0.05001108
v -0.03601689 0.08574698 0.06838045
v -0.06216934 0.05707074 0.04292683
v -0.04532616 0.08261714 0.08378784
v -0.06997114 0.05898532 0.08368738
v -0.02414719 0.08524966 0.04698966
v -0.03003100 0.08209505 0.04405522
v -0.04504074 0.07921794 0.06234127
v -0.03047805 0.08959082 0.07752122
v -0.02693232 0.08837271 0.06233548
v -0.05975390 0.06707310 0.06235218
v -0.05529015 0.05935948 0.04189219
v -0.05715657 0.07338885 0.08065002
v -0.03900015 0.08560329 0.07764471
v -0.03933575 0.08613213 0.08375115
v -0.02425807 0.08860175 0.05925082
v -0.04519364 0.07339540 0.04374675
v -0.03894104 0.08215383 0.05928695
v -0.03018964 0.08880539 0.07148985
v -0.06719210 0.05611076 0.05574530
v -0.05663303 0.07023210 0.06232875
v -0.06293932 0.06750412 0.08073269
v -0.04198811 0.08235456 0.06840027
v -0.04517289 0.08236409 0.08080943
v -0.03587042 0.07924587 0.04388759
v -0.04483942 0.07593738 0.05019859
v -0.05980727 0.06402339 0.05310880
v -0.06421549 0.05621098 0.04650121
v -0.06307338 0.06765377 0.08372396
v -0.06909036 0.05826721 0.07143019
v -0.05388509 0.06992040 0.05321217
v -0.06574257 0.05813914 0.05612922
v -0.07059157 0.05628503 0.07121311
v -0.06077757 0.05909676 0.04344821
v -0.05099173 0.07012597 0.04699843
v -0.06282603 0.05822124 0.04701520
f 7 3 4
f 8 6 3
f 8 2 6
f 9 4 3
f 9 3 6
f 11 3 7
f 13 8 3
f 13 3 11
f 13 11 7
f 18 13 7
f 18 1 13
f 18 17 12
f 19 6 2
f 20 10 14
f 20 19 2
f 20 14 19
f 22 15 7
f 22 7 4
f 23 14 10
f 23 10 15
f 25 13 1
f 25 8 13
f 26 12 17
f 27 7 15
f 28 18 7
f 28 17 18
f 28 7 27
f 29 19 14
f 29 9 6
f 29 6 19
f 29 14 23
f 29 23 4
f 29 4 9
f 30 25 16
f 30 8 25
f 31 15 10
f 32 23 15
f 32 15 22
f 32 22 4
f 32 4 23
f 34 26 5
f 34 24 26
f 35 26 24
f 36 27 15
f 36 21 5
f 36 31 21
f 36 15 31
f 37 28 27
f 37 17 28
f 37 27 36
f 37 36 5
f 37 26 17
f 37 5 26
f 38 10 20
f 38 20 2
f 38 2 8
f 38 8 30
f 39 38 30
f 39 10 38
f 39 31 10
f 39 21 31
f 39 5 21
f 40 24 34
f 41 25 1
f 41 16 25
f 42 35 18
f 42 18 12
f 42 12 26
f 42 26 35
f 43 35 24
f 43 1 18
f 43 18 35
f 44 34 5
f 44 5 39
f 44 40 34
f 45 24 40
f 45 43 24
f 46 41 1
f 46 33 41
f 46 1 43
f 46 45 33
f 46 43 45
f 47 16 41
f 47 40 44
f 47 30 16
f 48 44 39
f 48 39 30
f 48 47 44
f 48 30 47
f 49 45 40
f 49 41 33
f 49 33 45
f 49 47 41
f 49 40 47

