# https://github.com/mikedh/trimesh
v 0.08080392 0.02927395 0.05531106
v 0.07869118 0.02862085 0.04656665
v 0.06443913 0.05985610 0.05556248
v 0.04034646 0.07620591 0.04272958
v 0.05007847 0.01999853 0.00590754
v 0.05757018 0.06205206 0.05464879
v 0.07464761 0.04315277 0.05295245
v 0.06701176 0.02040269 0.02005320
v 0.07182171 0.04961745 0.05600751
v 0.07696919 0.02992510 0.05491323
v 0.07780584 0.03418079 0.04988686
v 0.05077980 0.04330503 0.00194402
v 0.07516156 0.04359497 0.05593446
v 0.04269567 0.07014343 0.04137511
v 0.07786036 0.03150941 0.04681883
v 0.06182755 0.02514945 0.00407064
v 0.06507994 0.04891794 0.03472533
v 0.03967218 0.05363699 0.00093535
v 0.07904367 0.03474161 0.05574477
v 0.04061121 0.03572704 0.00569363
v 0.06301315 0.01940993 0.00324018
v 0.07224642 0.02853575 0.02795754
v 0.07122874 0.04612058 0.04694829
v 0.06502520 0.04008716 0.02243933
v 0.04707418 0.06980182 0.03781938
v 0.05031829 0.02016177 0.00064437
v 0.03884148 0.06471305 0.01580423
v 0.05921120 0.02816659 0.00185228
v 0.07124506 0.04037864 0.03767282
v 0.07129439 0.04927287 0.05317748
v 0.05601246 0.04870444 0.01645437
v 0.06499657 0.03395926 0.01637790
v 0.04502540 0.07362453 0.04365376
v 0.05925251 0.05822234 0.03770732
v 0.04086350 0.03598141 0.00082099
v 0.03943011 0.07468158 0.03705497
v 0.03892557 0.05863350 0.00628055
v 0.06109140 0.01969081 0.00096740
v 0.07144588 0.03146174 0.02831316
v 0.07428814 0.04030591 0.04691306
v 0.06808719 0.04612089 0.03779005
v 0.06535665 0.05506554 0.04689794
v 0.06194042 0.04270315 0.01946309
v 0.05648521 0.03414726 0.00190677
v 0.06271394 0.05846390 0.04687853
v 0.05918543 0.05493342 0.03166645
v 0.03907628 0.07098610 0.02800951
v 0.04172135 0.07348387 0.03758198
v 0.04686937 0.06080312 0.01951350
v 0.04194743 0.05268241 0.00166687
v 0.05269661 0.04272617 0.00405661
v 0.06195525 0.03678773 0.01337290
v 0.04448520 0.07293344 0.04084203
v 0.04147526 0.06978940 0.02859982
v 0.04136124 0.06343880 0.01653426
v 0.05277738 0.05483406 0.01946072
v 0.04085694 0.05769353 0.00697731
v 0.04966647 0.05164334 0.01027533
v 0.03907720 0.06799659 0.02178918
v 0.04677926 0.05456643 0.01027232
f 6 3 4
f 8 2 1
f 9 3 6
f 10 9 6
f 10 8 1
f 10 5 8
f 14 10 6
f 14 6 4
f 14 5 10
f 15 11 1
f 15 1 2
f 19 11 7
f 19 7 13
f 19 1 11
f 19 10 1
f 19 13 9
f 19 9 10
f 20 14 4
f 20 5 14
f 21 2 8
f 21 8 5
f 22 21 16
f 22 2 21
f 26 5 20
f 26 21 5
f 28 16 21
f 29 11 15
f 30 7 23
f 30 13 7
f 30 9 13
f 30 3 9
f 32 22 16
f 32 16 28
f 33 4 3
f 33 3 25
f 35 26 20
f 35 18 26
f 36 20 4
f 37 20 27
f 37 35 20
f 37 18 35
f 38 28 21
f 38 21 26
f 38 26 18
f 39 29 15
f 39 24 29
f 39 32 24
f 39 22 32
f 39 15 2
f 39 2 22
f 40 29 23
f 40 23 7
f 40 7 11
f 40 11 29
f 41 29 24
f 41 24 17
f 41 23 29
f 42 3 30
f 42 17 34
f 42 41 17
f 42 30 23
f 42 23 41
f 43 17 24
f 44 28 38
f 44 38 18
f 44 18 12
f 45 34 25
f 45 25 3
f 45 42 34
f 45 3 42
f 46 34 17
f 46 43 31
f 46 17 43
f 47 27 20
f 47 20 36
f 48 36 4
f 48 4 33
f 49 25 34
f 50 12 18
f 50 18 37
f 51 31 43
f 51 44 12
f 52 43 24
f 52 24 32
f 52 32 28
f 52 28 44
f 52 51 43
f 52 44 51
f 53 48 33
f 53 33 25
f 53 25 48
f 54 47 36
f 54 36 48
f 54 48 25
f 54 25 49
f 55 37 27
f 56 46 31
f 56 49 34
f 56 34 46
f 57 50 37
f 57 55 49
f 57 37 55
f 58 51 12
f 58 31 51
f 58 56 31
f 58 12 50
f 59 27 47
f 59 47 54
f 59 55 27
f 59 54 49
f 59 49 55
f 60 58 50
f 60 50 57
f 60 57 49
f 60 49 56
f 60 56 58

