# https://github.com/mikedh/trimesh
v 0.01490296 -0.09014430 0.05589705
v 0.02280476 -0.07417335 0.02853179
v 0.01589729 -0.08609282 0.05446393
v -0.05002843 -0.07362073 0.05536212
v -0.01517237 -0.07971150 0.02562223
v 0.02275981 -0.07980362 0.04155043
v -0.04858855 -0.07494372 0.05594800
v 0.01473800 -0.07986584 0.02564153
v -0.02911993 -0.06909556 0.02319322
v -0.01540637 -0.09006206 0.05594665
v 0.02109695 -0.08491899 0.04316533
v 0.02208611 -0.07206396 0.02325271
v -0.02757950 -0.07520634 0.02473094
v -0.02711891 -0.08672876 0.05609711
v 0.00900543 -0.08954299 0.04986981
v 0.02095397 -0.07789216 0.02520945
v -0.04904678 -0.07240067 0.04949940
v -0.02333316 -0.07108269 0.02226813
v -0.04525312 -0.07728284 0.05603369
v -0.02683743 -0.07987164 0.03466958
v 0.01478254 -0.08940030 0.05300050
v 0.01154894 -0.08307847 0.03137906
v -0.01215716 -0.08615824 0.04070938
v -0.04593329 -0.07252316 0.04322119
v -0.02406945 -0.07965401 0.03156401
v -0.02987099 -0.08283850 0.04701221
v 0.01168441 -0.08626184 0.04066656
v 0.01748576 -0.08294406 0.03453461
v -0.00906461 -0.08949059 0.04995153
v -0.01207526 -0.08293370 0.03148588
v -0.01791068 -0.08601937 0.04384387
v -0.02708921 -0.07712456 0.02836259
v -0.04769763 -0.07368968 0.05018135
v -0.04174697 -0.07658639 0.04709007
v 0.02051601 -0.08319217 0.03761256
v 0.02047339 -0.07961260 0.02855576
v -0.01782454 -0.08288419 0.03465814
v -0.01527351 -0.08932354 0.05298737
v -0.02689327 -0.08598525 0.05317759
v -0.04491172 -0.07350551 0.04397236
v -0.02413699 -0.07688523 0.02539379
v -0.04489160 -0.07665609 0.05325477
f 6 2 4
f 6 4 3
f 6 3 1
f 7 1 3
f 7 3 4
f 11 6 1
f 12 4 2
f 14 10 1
f 15 1 10
f 16 2 6
f 16 6 11
f 16 12 2
f 16 8 12
f 17 12 9
f 17 4 12
f 18 12 8
f 18 8 5
f 18 9 12
f 18 13 9
f 18 5 13
f 19 14 1
f 19 1 7
f 21 11 1
f 21 1 15
f 22 5 8
f 24 17 9
f 24 9 13
f 26 14 19
f 27 21 15
f 27 15 22
f 27 11 21
f 28 27 22
f 28 11 27
f 28 22 8
f 29 15 10
f 29 22 15
f 30 5 22
f 30 29 23
f 30 22 29
f 32 25 20
f 33 17 24
f 33 7 4
f 33 4 17
f 34 20 26
f 34 32 20
f 34 26 19
f 35 16 11
f 35 11 28
f 36 28 8
f 36 8 16
f 36 35 28
f 36 16 35
f 37 25 5
f 37 5 30
f 37 30 23
f 37 23 31
f 37 31 20
f 37 20 25
f 38 10 14
f 38 14 31
f 38 29 10
f 38 31 23
f 38 23 29
f 39 26 20
f 39 20 31
f 39 31 14
f 39 14 26
f 40 24 13
f 40 13 32
f 40 32 34
f 40 33 24
f 41 32 13
f 41 13 5
f 41 5 25
f 41 25 32
f 42 19 7
f 42 7 33
f 42 33 40
f 42 40 34
f 42 34 19

