# https://github.com/mikedh/trimesh
v 0.07716549 -0.02986152 0.04293600
v 0.07854182 -0.02613617 0.04349800
v 0.07306520 0.02979593 0.04217951
v 0.07186051 0.03034912 0.03847732
v 0.06291358 -0.01397794 0.00168504
v 0.08180015 0.00732806 0.04340213
v 0.07324451 -0.03063392 0.04211306
v 0.06822652 -0.02884801 0.01906525
v 0.07867902 0.02555184 0.04338766
v 0.07134474 -0.01071207 0.01610248
v 0.05007847 0.01999853 0.00590754
v 0.07433609 -0.02583138 0.03161809
v 0.07153033 -0.03115699 0.03834196
v 0.07736303 0.02917815 0.04288727
v 0.08177137 -0.00806204 0.04343821
v 0.07143487 0.01027968 0.01609003
v 0.06802460 -0.01976500 0.01310386
v 0.05038252 -0.03035525 0.00617602
v 0.06895138 0.03061927 0.03160513
v 0.07771069 -0.02586653 0.04081485
v 0.07441488 -0.02895100 0.03458027
v 0.07766173 0.01624683 0.03451076
v 0.07777743 -0.00492175 0.03121888
v 0.06529684 0.00717016 0.00362766
v 0.05954672 -0.02595211 0.00165076
v 0.06832190 -0.01070714 0.00999159
v 0.05753616 -0.02947805 0.00096559
v 0.07755145 -0.01688148 0.03452533
v 0.07765952 0.02215644 0.03760733
v 0.07782753 0.00419687 0.03126056
v 0.05031829 0.02016177 0.00064437
v 0.06459770 0.02901040 0.01175509
v 0.06195448 -0.02868485 0.00705305
v 0.06212177 -0.02279928 0.00381967
v 0.06525899 -0.00780757 0.00389704
v 0.05030667 -0.03037210 0.00031168
v 0.08088643 -0.00800908 0.04072952
v 0.07474558 0.02837651 0.03444047
v 0.07131667 0.01922726 0.01922216
v 0.08092477 0.00725475 0.04065735
v 0.06109140 0.01969081 0.00096740
v 0.07784947 0.02537246 0.04068180
v 0.07128579 0.02822182 0.02517506
v 0.06501673 0.01916392 0.00678690
v 0.06247654 0.01616424 0.00137331
v 0.06822063 0.02528251 0.01612406
v 0.06831861 0.01030011 0.00987022
v 0.06505011 0.02527946 0.00994818
v 0.06557121 0.02818278 0.01290565
f 7 1 2
f 7 2 3
f 9 3 2
f 13 8 1
f 13 1 7
f 14 4 3
f 14 3 9
f 15 9 2
f 15 6 9
f 17 12 8
f 17 10 12
f 18 7 3
f 18 3 11
f 18 13 7
f 19 11 3
f 19 3 4
f 19 4 14
f 20 2 1
f 21 1 8
f 21 8 12
f 21 20 1
f 21 12 20
f 23 10 16
f 24 16 10
f 26 10 17
f 26 24 10
f 27 8 13
f 27 5 25
f 28 15 2
f 28 2 20
f 28 10 23
f 28 20 12
f 28 12 10
f 29 9 6
f 29 6 22
f 30 16 22
f 30 23 16
f 32 19 14
f 32 31 11
f 32 11 19
f 33 17 8
f 33 27 25
f 33 8 27
f 34 25 5
f 34 33 25
f 34 17 33
f 34 26 17
f 34 5 26
f 35 26 5
f 35 5 24
f 35 24 26
f 36 27 13
f 36 13 18
f 36 18 11
f 36 11 31
f 37 28 23
f 37 15 28
f 39 29 22
f 39 22 16
f 40 30 22
f 40 22 6
f 40 6 15
f 40 15 37
f 40 37 23
f 40 23 30
f 41 5 27
f 41 36 31
f 41 27 36
f 41 31 32
f 42 38 14
f 42 14 9
f 42 9 29
f 42 29 38
f 43 32 14
f 43 14 38
f 43 38 29
f 43 29 39
f 45 24 5
f 45 5 41
f 45 41 44
f 46 43 39
f 46 39 44
f 47 44 39
f 47 39 16
f 47 16 24
f 47 45 44
f 47 24 45
f 48 44 41
f 48 41 32
f 48 46 44
f 49 32 43
f 49 43 46
f 49 48 32
f 49 46 48

