# https://github.com/mikedh/trimesh
v 0.07281056 0.02873142 0.16437093
v 0.08450184 0.02946093 0.12121899
v 0.06827505 0.05531243 0.13888657
v 0.05054964 0.05825948 0.16559357
v 0.06818297 0.03034775 0.16644962
v 0.06053731 0.06508011 0.12137237
v 0.05889813 0.05486128 0.16346873
v 0.07757147 0.04009064 0.13600773
v 0.08099932 0.03030790 0.12158686
v 0.07201946 0.05584160 0.12084371
v 0.06805639 0.04308330 0.16053795
v 0.06511194 0.04595676 0.16369719
v 0.05492416 0.06265633 0.14713939
v 0.08194442 0.02867779 0.13628552
v 0.08156116 0.03770374 0.12077986
v 0.06636800 0.06207102 0.12708829
v 0.07450840 0.04914832 0.12976219
v 0.07121909 0.04917822 0.14204703
v 0.07432771 0.03721628 0.15141117
v 0.07113050 0.03401646 0.16369617
v 0.06500822 0.05213683 0.15444009
v 0.05615969 0.05078864 0.16704985
v 0.05428201 0.06207934 0.15007416
v 0.07530289 0.02853900 0.15786986
v 0.06704338 0.06256150 0.12092280
v 0.08085477 0.03748205 0.12672414
v 0.06858384 0.05832070 0.12976465
v 0.05974566 0.06431014 0.12760074
v 0.06261834 0.05840330 0.14835041
v 0.07440241 0.04323996 0.14217926
v 0.07751547 0.03433222 0.14522182
v 0.06826948 0.04898556 0.15126017
v 0.05185738 0.05629275 0.16639112
v 0.07448312 0.03137313 0.15763182
v 0.08118073 0.03130764 0.13606342
v 0.07750088 0.04330223 0.12976437
v 0.06520390 0.05801610 0.14204957
v 0.07168009 0.05562628 0.12381743
v 0.07846154 0.02858956 0.14856152
v 0.07763893 0.03140162 0.14838225
v 0.08075385 0.03430630 0.13301363
f 9 1 5
f 9 5 4
f 9 4 6
f 12 5 1
f 13 6 4
f 14 9 2
f 15 9 6
f 15 2 9
f 17 15 10
f 18 17 3
f 20 12 1
f 20 11 12
f 20 19 11
f 21 7 12
f 22 12 7
f 22 5 12
f 23 13 4
f 23 4 7
f 24 1 9
f 24 9 14
f 25 15 6
f 25 10 15
f 25 6 16
f 26 2 15
f 27 3 17
f 28 16 6
f 28 6 13
f 28 13 16
f 29 16 13
f 29 7 21
f 29 23 7
f 29 13 23
f 30 8 17
f 30 17 18
f 31 30 19
f 31 8 30
f 32 18 3
f 32 3 21
f 32 30 18
f 32 11 19
f 32 19 30
f 32 21 12
f 32 12 11
f 33 22 7
f 33 7 4
f 33 4 5
f 33 5 22
f 34 20 1
f 34 1 24
f 34 19 20
f 35 14 2
f 36 17 8
f 36 8 26
f 36 26 15
f 36 15 17
f 37 27 16
f 37 3 27
f 37 16 29
f 37 29 21
f 37 21 3
f 38 16 27
f 38 25 16
f 38 10 25
f 38 27 17
f 38 17 10
f 39 24 14
f 40 31 19
f 40 19 34
f 40 34 24
f 40 24 39
f 40 35 31
f 40 39 14
f 40 14 35
f 41 26 8
f 41 8 31
f 41 31 35
f 41 35 2
f 41 2 26

