# https://github.com/mikedh/trimesh
v 0.06704338 0.06256150 0.12092280
v 0.06389716 0.05941178 0.05262203
v 0.05060679 0.07940554 0.08692994
v 0.02455644 0.09118979 0.12737754
v 0.02598807 0.07910724 0.04155518
v 0.04470649 0.08235110 0.12384975
v 0.06702440 0.06251338 0.07744586
v 0.05183783 0.06271629 0.04177901
v 0.02515904 0.08720513 0.12768983
v 0.03832369 0.07896649 0.04705279
v 0.05062668 0.07939102 0.11463631
v 0.03591043 0.08872805 0.09305871
v 0.06588667 0.06103298 0.06456962
v 0.06552696 0.06447761 0.12067007
v 0.06065030 0.05934320 0.04331688
v 0.02388425 0.08622158 0.04978428
v 0.06512268 0.06357894 0.12735310
v 0.05813634 0.06604858 0.12807643
v 0.03591299 0.08873021 0.10853723
v 0.03588451 0.08549371 0.06546829
v 0.05948796 0.07037368 0.07452458
v 0.05356548 0.07656419 0.08065978
v 0.04138963 0.07599582 0.04393246
v 0.02422488 0.08408176 0.04326639
v 0.02407177 0.09281604 0.08682670
v 0.04770714 0.07975419 0.12698300
v 0.02933365 0.08572571 0.12817269
v 0.03850088 0.08551501 0.12693992
v 0.04165929 0.08558820 0.11152024
v 0.04480297 0.08248983 0.07769115
v 0.02954483 0.08515552 0.05323861
v 0.06263998 0.06722668 0.07452412
v 0.06251942 0.06446260 0.06235238
v 0.04634559 0.06735408 0.04131721
v 0.02945054 0.08225272 0.04385737
v 0.02408714 0.09282500 0.11470633
v 0.02400093 0.08940625 0.06212095
v 0.03280910 0.08879235 0.07770568
v 0.05650682 0.07325257 0.12378319
v 0.03274491 0.08863281 0.12385477
v 0.04166893 0.08568953 0.09311889
v 0.05046407 0.07642785 0.06528899
v 0.02670787 0.08534554 0.05004919
v 0.06550295 0.06437190 0.07763553
v 0.06244763 0.06138020 0.05309511
v 0.05333012 0.06720544 0.04386153
v 0.02693366 0.09195828 0.11466166
v 0.02685327 0.08857770 0.06231061
v 0.02694910 0.09193347 0.08689245
v 0.03857176 0.08563869 0.07455464
v 0.06364104 0.06541863 0.12714509
v 0.06244153 0.06754647 0.12377724
v 0.05341574 0.07647528 0.12072427
v 0.02992019 0.08936991 0.12710071
v 0.04436241 0.07915074 0.05943035
v 0.05343981 0.07323454 0.06230759
v 0.05942125 0.06102578 0.04392625
v 0.02971088 0.08867582 0.06842340
v 0.04158970 0.08224766 0.06534453
v 0.04734318 0.07314192 0.04697881
v 0.05027641 0.07304523 0.05322263
f 13 7 1
f 13 1 2
f 14 1 7
f 15 2 1
f 16 9 4
f 17 1 14
f 17 15 1
f 18 9 5
f 18 5 8
f 18 8 15
f 18 15 17
f 22 3 11
f 22 11 14
f 24 5 9
f 24 9 16
f 26 18 17
f 26 11 6
f 27 4 9
f 27 9 18
f 27 18 26
f 28 26 6
f 28 27 26
f 28 4 27
f 29 6 11
f 29 28 6
f 29 19 28
f 30 3 22
f 31 20 10
f 32 7 13
f 32 21 22
f 33 32 13
f 33 21 32
f 34 15 8
f 34 8 5
f 34 24 23
f 34 5 24
f 35 10 23
f 35 23 24
f 35 31 10
f 36 25 16
f 36 16 4
f 37 16 25
f 40 28 19
f 41 29 11
f 41 11 3
f 41 12 19
f 41 19 29
f 41 3 30
f 42 30 22
f 42 22 21
f 43 24 16
f 43 35 24
f 43 31 35
f 44 14 7
f 44 7 32
f 44 32 22
f 44 22 14
f 45 2 15
f 45 33 13
f 45 13 2
f 46 34 23
f 46 15 34
f 46 33 45
f 47 19 12
f 47 25 36
f 47 40 19
f 47 36 4
f 48 20 31
f 48 31 43
f 48 43 16
f 48 16 37
f 49 12 38
f 49 47 12
f 49 25 47
f 50 20 38
f 50 38 12
f 50 41 30
f 50 12 41
f 51 39 26
f 51 26 17
f 51 17 14
f 52 14 11
f 52 51 14
f 52 39 51
f 53 11 26
f 53 26 39
f 53 52 11
f 53 39 52
f 54 4 28
f 54 28 40
f 54 47 4
f 54 40 47
f 55 23 10
f 55 10 20
f 56 42 21
f 56 21 33
f 56 33 46
f 57 46 45
f 57 45 15
f 57 15 46
f 58 38 20
f 58 20 48
f 58 49 38
f 58 25 49
f 58 48 37
f 58 37 25
f 59 50 30
f 59 20 50
f 59 55 20
f 59 30 42
f 59 42 55
f 60 46 23
f 60 23 55
f 61 56 46
f 61 46 60
f 61 42 56
f 61 60 55
f 61 55 42

