# https://github.com/mikedh/trimesh
v -0.06021742 -0.03176789 0.01556147
v -0.05643771 -0.03007468 0.00026604
v -0.05704606 0.02012331 0.00018613
v -0.07917892 0.02112296 0.05439765
v -0.08129891 -0.01691112 0.04687193
v -0.05956409 0.02099531 0.00887608
v -0.07008993 -0.02942355 0.02463363
v -0.08016928 -0.01794330 0.05484923
v -0.07498345 0.01022642 0.02526879
v -0.07192493 0.01914726 0.02201710
v -0.08299009 0.01977022 0.05559859
v -0.06452289 -0.03085273 0.02310347
v -0.08336596 -0.01738827 0.05552625
v -0.07186006 -0.01391010 0.01911949
v -0.06074188 0.01952178 0.00069929
v -0.08155708 0.00726919 0.04373172
v -0.08165158 0.01948098 0.04976078
v -0.07504942 -0.01677220 0.02830744
v -0.05960467 -0.02583888 0.00158741
v -0.06859965 0.01590759 0.01301915
v -0.08149609 -0.00796031 0.04371929
v -0.07508958 0.01613697 0.02817248
v -0.08133142 0.01629394 0.04682635
v -0.07189342 -0.01990284 0.02204233
v -0.05968182 -0.02885902 0.00356441
v -0.06306840 -0.01084486 0.00136531
v -0.06285963 0.01922239 0.00348984
v -0.07819730 -0.01114879 0.03435869
v -0.07829926 0.01041031 0.03437920
v -0.06568803 -0.01385005 0.00671000
v -0.05758280 -0.02938842 0.00073230
v -0.06883221 -0.02606401 0.01908839
v -0.07510895 -0.00789430 0.02511859
v -0.06312982 0.01016478 0.00139221
v -0.06912838 -0.02905330 0.02196992
f 1 2 3
f 6 1 3
f 6 4 1
f 7 2 1
f 8 1 4
f 10 4 6
f 11 8 4
f 12 7 1
f 12 1 8
f 13 5 7
f 13 12 8
f 13 7 12
f 13 8 11
f 15 10 6
f 15 6 3
f 15 3 2
f 16 13 11
f 17 11 4
f 17 4 10
f 18 7 5
f 20 9 10
f 21 5 13
f 21 13 16
f 22 17 10
f 22 10 9
f 23 16 11
f 23 11 17
f 23 17 22
f 24 18 14
f 24 7 18
f 26 15 2
f 27 20 10
f 27 10 15
f 28 18 5
f 28 5 21
f 29 23 22
f 29 22 9
f 29 16 23
f 30 24 14
f 30 26 19
f 31 25 19
f 31 2 7
f 31 26 2
f 31 19 26
f 32 19 25
f 32 30 19
f 32 24 30
f 33 14 18
f 33 18 28
f 33 29 9
f 33 28 21
f 33 21 16
f 33 16 29
f 33 30 14
f 33 26 30
f 34 9 20
f 34 20 27
f 34 27 15
f 34 15 26
f 34 33 9
f 34 26 33
f 35 32 25
f 35 7 24
f 35 24 32
f 35 31 7
f 35 25 31

