# https://github.com/mikedh/trimesh
v 0.01689711 0.03537907 0.32692841
v 0.01660713 0.03113702 0.29131251
v 0.00845070 0.04173826 0.32702422
v -0.00895016 0.04164312 0.32703823
v -0.01412777 0.03517795 0.32238880
v -0.00317909 0.03866974 0.29785903
v -0.01223959 0.04050597 0.32713665
v 0.01401263 0.03564029 0.29148217
v 0.01693657 0.03187093 0.30692108
v -0.00606625 0.04171363 0.32367919
v -0.01291863 0.03294133 0.29132315
v 0.01449581 0.03972011 0.32698788
v -0.01335427 0.03714247 0.32703447
v -0.01170863 0.03616771 0.29146459
v 0.00571589 0.03860985 0.29787904
v -0.00904025 0.04171911 0.32608953
v 0.01377899 0.03278277 0.29130638
f 7 3 4
f 9 2 1
f 9 1 5
f 11 9 5
f 11 2 9
f 12 7 1
f 12 3 7
f 12 8 3
f 12 1 2
f 12 2 8
f 13 7 5
f 13 5 1
f 13 1 7
f 14 11 5
f 14 5 7
f 15 3 8
f 15 10 3
f 15 6 10
f 15 14 6
f 15 8 14
f 16 10 6
f 16 4 3
f 16 3 10
f 16 6 14
f 16 14 7
f 16 7 4
f 17 8 2
f 17 2 11
f 17 14 8
f 17 11 14

