# https://github.com/mikedh/trimesh
v 0.04734830 0.01595700 0.22703791
v 0.07589796 0.01644456 0.16437560
v 0.06273040 0.04952328 0.16388405
v 0.03722323 0.07311859 0.16510753
v 0.04130977 0.01850906 0.22992662
v 0.04186515 0.07063209 0.16395624
v 0.06800905 0.02809232 0.17612818
v 0.07150263 0.01731329 0.16650419
v 0.07537814 0.01951307 0.16419475
v 0.03290104 0.03746786 0.23050401
v 0.04282347 0.02765033 0.22628858
v 0.04024594 0.01819642 0.23271146
v 0.03943055 0.06711860 0.16711775
v 0.06934364 0.03767832 0.16419650
v 0.06557398 0.01612273 0.18895071
v 0.05306032 0.05778176 0.16961862
v 0.03567747 0.06149458 0.18899769
v 0.06482725 0.02514767 0.18540357
v 0.04946297 0.04239033 0.19775575
v 0.04373509 0.02176160 0.22988415
v 0.03697926 0.02481020 0.23272677
v 0.07118670 0.02215444 0.17301417
v 0.04126651 0.06658620 0.17275530
v 0.03601970 0.07129411 0.17042460
v 0.04051011 0.05447165 0.19452661
v 0.06850707 0.03715769 0.16683331
v 0.06500580 0.01906574 0.18863435
v 0.03746562 0.03308332 0.22949335
v 0.05281276 0.05190102 0.17907394
v 0.04545528 0.01640256 0.23077139
v 0.04606967 0.02444153 0.22304607
v 0.07488297 0.01640324 0.16703831
v 0.04707224 0.06365521 0.16961175
v 0.04128132 0.06974871 0.16669664
v 0.03773047 0.06041291 0.18830891
v 0.06184328 0.04894439 0.16661943
v 0.03459515 0.03634410 0.22966288
v 0.04309260 0.03021280 0.22293594
v 0.04362639 0.05134847 0.19456334
v 0.07438636 0.01928289 0.16686263
f 6 2 4
f 8 2 1
f 8 4 2
f 9 6 3
f 9 2 6
f 12 8 1
f 12 5 8
f 13 8 5
f 13 4 8
f 13 5 12
f 14 9 3
f 15 1 2
f 16 3 6
f 22 14 7
f 22 9 14
f 22 7 18
f 24 10 17
f 24 21 10
f 24 4 13
f 24 13 12
f 24 12 21
f 24 17 23
f 25 17 10
f 26 19 11
f 26 14 3
f 26 18 7
f 26 7 14
f 27 22 18
f 27 15 22
f 28 20 11
f 28 21 20
f 28 10 21
f 30 12 1
f 30 18 20
f 30 27 18
f 30 1 15
f 30 15 27
f 30 21 12
f 30 20 21
f 31 20 18
f 31 11 20
f 31 26 11
f 31 18 26
f 32 15 2
f 32 2 9
f 33 16 6
f 33 25 16
f 34 24 23
f 34 6 4
f 34 4 24
f 34 33 6
f 34 23 33
f 35 23 17
f 35 17 25
f 35 33 23
f 35 25 33
f 36 26 3
f 36 19 26
f 36 29 19
f 36 3 16
f 36 16 29
f 37 28 19
f 37 10 28
f 38 28 11
f 38 11 19
f 38 19 28
f 39 29 16
f 39 16 25
f 39 25 10
f 39 10 37
f 39 37 19
f 39 19 29
f 40 32 9
f 40 9 22
f 40 22 15
f 40 15 32

