# https://github.com/mikedh/trimesh
v 0.02468147 -0.09247463 0.08353269
v 0.06150047 -0.05376134 0.04490175
v 0.01624597 -0.09060415 0.07654004
v 0.06073765 -0.05320206 0.04202792
v 0.04462788 -0.07382598 0.04380189
v 0.06071675 -0.06606724 0.08335225
v 0.05747281 -0.06291278 0.04338903
v 0.01490725 -0.08663825 0.04359571
v 0.02538910 -0.08838410 0.08335248
v 0.04768405 -0.08023299 0.07465581
v 0.05936951 -0.05455947 0.04125677
v 0.03276145 -0.08599878 0.06233751
v 0.01506130 -0.09433229 0.07736987
v 0.01578273 -0.08198633 0.04203830
v 0.05679912 -0.07419430 0.08374359
v 0.05623190 -0.07096408 0.06234396
v 0.02656819 -0.08316351 0.04370653
v 0.03860752 -0.08636085 0.08075036
v 0.04436113 -0.07990287 0.06243359
v 0.02097932 -0.09272941 0.07462796
v 0.01960614 -0.08069023 0.04119299
v 0.01492022 -0.09347059 0.07136406
v 0.03009785 -0.09058209 0.08367656
v 0.05335466 -0.07057161 0.05324203
v 0.05076040 -0.07692050 0.06844437
v 0.05663815 -0.07402944 0.08070118
v 0.03268116 -0.08280714 0.05017627
v 0.03873921 -0.08659951 0.08376998
v 0.03541834 -0.08616396 0.06850406
v 0.02110463 -0.09306078 0.07750813
v 0.01786827 -0.08959477 0.05599908
v 0.05040791 -0.07069468 0.04703666
v 0.05633093 -0.06793115 0.05311565
v 0.03845820 -0.07970990 0.05016131
v 0.02957485 -0.08920579 0.07157083
v 0.02645300 -0.08614590 0.05308191
v 0.01490296 -0.09014430 0.05589705
v 0.01789838 -0.09287349 0.07144035
v 0.05669819 -0.06513187 0.04685472
v 0.02677814 -0.08917065 0.06537123
v 0.01756183 -0.08613372 0.04380662
f 6 2 4
f 6 4 3
f 7 4 2
f 7 2 6
f 9 6 3
f 11 7 5
f 11 4 7
f 13 9 3
f 13 1 9
f 14 3 4
f 14 4 11
f 14 13 3
f 15 6 9
f 16 7 6
f 21 14 11
f 21 11 5
f 21 5 17
f 21 17 8
f 21 8 14
f 22 14 8
f 22 13 14
f 22 20 13
f 23 15 9
f 23 9 1
f 24 19 5
f 25 10 19
f 25 24 16
f 25 19 24
f 26 16 6
f 26 6 15
f 26 25 16
f 26 15 10
f 26 10 25
f 27 17 5
f 27 19 12
f 28 18 10
f 28 10 15
f 28 23 18
f 28 15 23
f 29 12 19
f 29 19 10
f 29 10 18
f 30 1 13
f 30 13 20
f 30 23 1
f 32 24 5
f 32 5 7
f 33 7 16
f 33 16 24
f 33 24 32
f 34 27 5
f 34 5 19
f 34 19 27
f 35 30 20
f 35 23 30
f 35 29 18
f 35 18 23
f 36 27 12
f 36 17 27
f 37 31 22
f 37 22 8
f 37 8 31
f 38 31 20
f 38 20 22
f 38 22 31
f 39 33 32
f 39 32 7
f 39 7 33
f 40 12 29
f 40 29 35
f 40 36 12
f 40 35 20
f 40 20 31
f 40 31 36
f 41 36 31
f 41 31 8
f 41 8 17
f 41 17 36

