# https://github.com/mikedh/trimesh
v -0.05138767 0.01718010 0.20979848
v -0.03051118 0.07408353 0.17039379
v -0.05941397 0.05184135 0.16656827
v -0.03764163 0.07928522 0.14937941
v -0.07799667 0.00752047 0.15025487
v -0.05034300 0.06396443 0.16352926
v -0.03371322 0.04440869 0.21092109
v -0.03142999 0.07612910 0.16504727
v -0.07168799 0.02816030 0.16676820
v -0.07424129 0.04439201 0.13970046
v -0.03375934 0.07040097 0.16703934
v -0.03064854 0.05320803 0.20849335
v -0.04010026 0.07348070 0.15072828
v -0.04136296 0.06990837 0.16646448
v -0.07675469 0.00738554 0.16454611
v -0.05278437 0.03082515 0.20410405
v -0.07660138 0.03052107 0.14127867
v -0.06654924 0.05278734 0.14852787
v -0.03030966 0.05559331 0.20493056
v -0.04089027 0.04523979 0.20715066
v -0.03297846 0.07319014 0.16992077
v -0.04461582 0.07297067 0.15433656
v -0.07240521 0.00762573 0.16646026
v -0.08045761 0.02904521 0.13973411
v -0.06537534 0.03992163 0.16979874
v -0.05565212 0.01659139 0.20882080
v -0.04230202 0.07670864 0.14843257
v -0.05652279 0.06089591 0.15727010
v -0.04442240 0.06045395 0.17891974
v -0.04712282 0.04253124 0.20097275
v -0.03664259 0.07773167 0.15503393
v -0.03014302 0.06132169 0.19523081
v -0.05068265 0.06676802 0.15734757
v -0.07800803 0.02219237 0.15451390
v -0.07155469 0.04021630 0.15435821
v -0.06914592 0.04693165 0.14095661
v -0.08190954 0.00749256 0.14954066
v -0.06220588 0.03109361 0.18538826
v -0.06546469 0.04905988 0.15733259
v -0.04737367 0.03678315 0.20751933
v -0.04974752 0.02110640 0.21061899
v -0.06878982 0.01934354 0.17942049
v -0.04183756 0.07597488 0.15119432
v -0.06264859 0.05491659 0.15432849
v -0.05341969 0.06080006 0.16356356
v -0.03225242 0.06033887 0.19456799
v -0.03792385 0.04816541 0.20710638
v -0.05022253 0.05475586 0.17898259
v -0.03873633 0.07279493 0.16364698
v -0.07806334 0.03419591 0.14224263
v -0.07216512 0.04328612 0.14834652
v -0.07871834 0.03445408 0.13931403
v -0.07911322 0.00732597 0.15799944
v -0.06533389 0.03410078 0.17605458
v -0.05300549 0.03661165 0.19782557
v -0.05351943 0.02500248 0.20766791
v -0.06239002 0.04276211 0.17274501
v -0.06929148 0.01629183 0.17963707
v -0.06536642 0.02200362 0.18551581
v -0.03901340 0.07643845 0.15457084
v -0.06582708 0.05232473 0.15127375
v -0.03285630 0.05201751 0.20781218
v -0.05331741 0.04869292 0.18217713
v -0.07531616 0.04055218 0.14231077
f 7 1 5
f 11 7 5
f 11 2 7
f 11 8 2
f 11 5 8
f 13 8 5
f 13 5 4
f 13 4 8
f 17 4 5
f 19 12 7
f 19 7 2
f 20 7 12
f 21 2 8
f 23 5 1
f 24 17 5
f 26 23 1
f 26 15 23
f 27 4 10
f 27 10 18
f 29 14 6
f 31 21 8
f 31 8 4
f 32 19 2
f 32 2 21
f 32 21 14
f 33 6 14
f 33 14 22
f 33 28 6
f 33 22 27
f 33 27 18
f 33 18 28
f 36 10 4
f 36 4 17
f 36 17 24
f 37 24 5
f 37 34 24
f 39 35 25
f 40 20 30
f 40 7 20
f 41 26 1
f 41 1 7
f 41 7 40
f 42 9 34
f 43 27 22
f 43 4 27
f 44 28 18
f 44 3 28
f 44 39 3
f 45 28 3
f 45 6 28
f 46 14 29
f 46 32 14
f 46 19 32
f 47 20 12
f 48 30 20
f 48 29 6
f 48 6 45
f 48 45 3
f 48 47 29
f 48 20 47
f 49 14 21
f 49 21 31
f 49 22 14
f 50 24 34
f 50 34 9
f 50 9 35
f 51 18 10
f 51 35 39
f 52 36 24
f 52 10 36
f 52 24 50
f 53 37 5
f 53 15 34
f 53 34 37
f 53 23 15
f 53 5 23
f 54 9 38
f 54 35 9
f 54 25 35
f 55 38 16
f 55 54 38
f 55 16 40
f 55 40 30
f 56 16 38
f 56 40 16
f 56 41 40
f 56 26 41
f 57 39 25
f 57 3 39
f 57 25 54
f 57 54 55
f 58 15 26
f 58 26 42
f 58 42 34
f 58 34 15
f 59 38 9
f 59 9 42
f 59 42 26
f 59 56 38
f 59 26 56
f 60 43 22
f 60 31 4
f 60 4 43
f 60 49 31
f 60 22 49
f 61 44 18
f 61 39 44
f 61 51 39
f 61 18 51
f 62 46 29
f 62 12 19
f 62 19 46
f 62 47 12
f 62 29 47
f 63 48 3
f 63 30 48
f 63 55 30
f 63 57 55
f 63 3 57
f 64 50 35
f 64 35 51
f 64 51 10
f 64 52 50
f 64 10 52

