# https://github.com/mikedh/trimesh
v 0.03690683 0.00738009 0.31345096
v 0.03555690 0.00707668 0.27232842
v 0.03425323 0.02151864 0.32673600
v 0.01449581 0.03972011 0.32698788
v 0.01377899 0.03278277 0.29130638
v 0.03496722 0.01148528 0.32660289
v 0.03756565 0.01066709 0.32744177
v 0.03349513 0.00732131 0.31349704
v 0.02811025 0.02432353 0.27218055
v 0.03406233 0.01259563 0.27226324
v 0.02549262 0.03255751 0.32719178
v 0.01689711 0.03537907 0.32692841
v 0.03287492 0.00790158 0.27256832
v 0.01146025 0.03667812 0.27229704
v 0.02808362 0.02994643 0.32693150
v 0.01152798 0.03665235 0.29144526
v 0.03276860 0.00778271 0.30389846
v 0.01965805 0.03249035 0.27222130
v 0.01402520 0.03279828 0.27264253
v 0.01414843 0.03561411 0.27226607
v 0.01688653 0.03859643 0.32700846
f 7 1 2
f 8 2 1
f 8 7 6
f 8 1 7
f 10 7 2
f 10 3 7
f 10 9 3
f 11 7 3
f 11 4 7
f 12 7 4
f 12 6 7
f 12 8 6
f 12 5 8
f 13 2 8
f 14 2 13
f 14 10 2
f 14 9 10
f 15 11 3
f 15 3 9
f 15 9 11
f 16 12 4
f 16 5 12
f 16 14 5
f 16 4 14
f 17 13 8
f 17 8 5
f 17 5 13
f 18 11 9
f 19 14 13
f 19 13 5
f 19 5 14
f 20 14 4
f 20 18 9
f 20 9 14
f 21 4 11
f 21 11 18
f 21 20 4
f 21 18 20

