# https://github.com/mikedh/trimesh
v 0.05744437 0.05619181 0.16428980
v 0.06786970 0.06013810 0.12724858
v 0.04161493 0.08230339 0.13286150
v 0.01513489 0.09063084 0.13960532
v 0.01573681 0.07798454 0.16590261
v 0.02455644 0.09118979 0.12737754
v 0.05616909 0.06715432 0.14511629
v 0.04863333 0.05953526 0.16657109
v 0.01622909 0.08665592 0.14116032
v 0.03829124 0.07310535 0.16366302
v 0.04770714 0.07975419 0.12698300
v 0.06263878 0.05780437 0.14955990
v 0.05985306 0.06378927 0.12861039
v 0.06047677 0.05608366 0.15802399
v 0.01482137 0.08902755 0.14535382
v 0.02577647 0.08701983 0.12809977
v 0.05032061 0.07341430 0.14210791
v 0.04711532 0.06685950 0.16350207
v 0.01938835 0.07668487 0.16684095
v 0.02992019 0.08936991 0.12710071
v 0.05649726 0.07011512 0.13583108
v 0.06213712 0.06425143 0.13584227
v 0.06685789 0.05939570 0.13328314
v 0.05911232 0.05814666 0.15740769
v 0.02689432 0.08850813 0.13591106
v 0.03820620 0.07605366 0.15734349
v 0.05053473 0.07617169 0.13285770
v 0.04703942 0.06998355 0.15728955
v 0.01526878 0.08192580 0.16489206
v 0.06636800 0.06207102 0.12708829
v 0.05905637 0.06408327 0.14508346
v 0.05633025 0.05789828 0.16361267
v 0.01786453 0.08848453 0.14518381
v 0.02971033 0.08885815 0.12984642
v 0.03554717 0.08200895 0.14504506
v 0.04744546 0.07926172 0.12963213
v 0.05011569 0.06998039 0.15124588
v 0.01494989 0.08346218 0.16112082
v 0.02633856 0.07914839 0.16365755
v 0.06549605 0.06126142 0.13284446
v 0.03581962 0.08544284 0.13289031
v 0.01479495 0.08594029 0.15467906
v 0.03249170 0.07896823 0.15737479
v 0.02055620 0.08227140 0.16058415
v 0.03255776 0.08529225 0.13902665
v 0.01782887 0.08538205 0.15448117
f 13 8 5
f 13 2 8
f 13 5 9
f 14 8 2
f 14 1 8
f 15 9 5
f 15 4 9
f 16 9 4
f 16 4 6
f 16 13 9
f 16 6 2
f 16 2 13
f 18 10 8
f 18 8 1
f 19 5 8
f 19 8 10
f 21 17 7
f 22 21 7
f 23 14 2
f 23 12 14
f 23 22 12
f 24 14 12
f 24 1 14
f 25 6 4
f 26 17 3
f 27 3 17
f 27 21 11
f 27 17 21
f 28 18 7
f 28 17 26
f 28 26 10
f 28 10 18
f 29 5 19
f 30 20 11
f 30 2 6
f 30 6 20
f 30 11 21
f 30 21 22
f 31 22 7
f 31 12 22
f 31 24 12
f 31 7 24
f 32 18 1
f 32 1 24
f 32 24 7
f 32 7 18
f 33 25 4
f 33 4 15
f 34 20 6
f 34 6 25
f 35 26 3
f 36 27 11
f 36 11 3
f 36 3 27
f 37 28 7
f 37 7 17
f 37 17 28
f 38 5 29
f 39 29 19
f 39 19 10
f 40 23 2
f 40 2 30
f 40 30 22
f 40 22 23
f 41 20 34
f 41 3 11
f 41 11 20
f 41 35 3
f 42 15 5
f 42 5 38
f 42 33 15
f 43 39 10
f 43 10 26
f 43 26 35
f 44 29 39
f 45 41 34
f 45 34 25
f 45 35 41
f 45 43 35
f 45 25 39
f 45 39 43
f 46 38 29
f 46 29 44
f 46 42 38
f 46 33 42
f 46 25 33
f 46 44 39
f 46 39 25

