# https://github.com/mikedh/trimesh
v -0.06399214 0.05603080 0.14870246
v -0.01636758 0.09123620 0.08322400
v -0.01619701 0.07785161 0.16578942
v -0.01541729 0.09276485 0.13007331
v -0.05409170 0.07654197 0.08694196
v -0.01538316 0.08327492 0.16102782
v -0.06559037 0.05987688 0.08331470
v -0.04194388 0.08236695 0.12981073
v -0.01577506 0.09469483 0.08356112
v -0.03637083 0.07401120 0.16414707
v -0.05581612 0.05979242 0.15046142
v -0.06599102 0.06453870 0.11150056
v -0.02992318 0.08535488 0.14209485
v -0.01531314 0.08579394 0.15464444
v -0.02730365 0.09189649 0.11155207
v -0.03315078 0.08847011 0.07765694
v -0.03853506 0.06808673 0.16571710
v -0.01570586 0.08171471 0.16480611
v -0.04758456 0.07304581 0.14821753
v -0.07150266 0.05697993 0.08356635
v -0.05414664 0.07650301 0.11146048
v -0.02099436 0.08843489 0.14217909
v -0.02999692 0.08841048 0.12979403
v -0.02720293 0.09179357 0.08689419
v -0.04532616 0.08261714 0.08378784
v -0.02143800 0.09279833 0.07753754
v -0.02665255 0.07892976 0.16360588
v -0.02000075 0.07659941 0.16658443
v -0.06258816 0.05808276 0.14817232
v -0.03866964 0.07908870 0.14815400
v -0.07066412 0.05638610 0.12407047
v -0.06307338 0.06765377 0.08372396
v -0.04519468 0.08253652 0.11767235
v -0.05095058 0.07613148 0.12974644
v -0.02412866 0.09158722 0.12379292
v -0.02411002 0.08832703 0.13899999
v -0.02305054 0.08860416 0.07691507
v -0.02424387 0.09191966 0.07758548
v -0.02094421 0.08206157 0.16054369
v -0.03606167 0.06929645 0.16638007
v -0.04481313 0.07909432 0.13577614
v -0.03285912 0.08206870 0.14819062
v -0.06715551 0.05607203 0.13944580
v -0.06606883 0.06445154 0.08692639
v -0.05712914 0.07370627 0.08375276
v -0.03319849 0.08859517 0.12066795
v -0.05685129 0.07351044 0.11750720
v -0.05983396 0.06410742 0.14205208
v -0.01828850 0.09218102 0.12993035
v -0.03525074 0.08382423 0.07704863
v -0.02989575 0.08625563 0.07666383
v -0.01806637 0.08523212 0.15436346
v -0.03567982 0.07600366 0.16049675
v -0.06997114 0.05898532 0.08368738
v -0.03905197 0.08572075 0.12062653
v -0.06289310 0.06751868 0.11774785
v -0.05368939 0.07011349 0.14208473
v -0.06571446 0.05811349 0.13901511
v -0.03304731 0.07594179 0.16371691
v -0.06922230 0.05835154 0.12377973
v -0.05674396 0.07030874 0.13292760
v -0.06576538 0.06127454 0.12978645
v -0.06265001 0.06431319 0.13296428
f 6 3 2
f 7 2 3
f 9 6 2
f 11 3 1
f 14 9 4
f 14 6 9
f 15 4 9
f 17 10 1
f 17 1 3
f 18 3 6
f 20 7 3
f 20 3 11
f 20 11 1
f 22 14 4
f 23 8 13
f 24 15 9
f 25 24 16
f 25 15 24
f 25 5 21
f 26 9 2
f 26 24 9
f 27 10 18
f 28 3 18
f 28 18 10
f 29 1 10
f 29 10 19
f 30 13 8
f 31 12 20
f 32 16 20
f 33 25 21
f 33 15 25
f 34 8 33
f 35 4 15
f 36 23 13
f 36 13 22
f 37 26 2
f 37 2 7
f 37 7 20
f 38 16 24
f 38 24 26
f 39 27 18
f 39 13 27
f 40 17 3
f 40 3 28
f 40 28 10
f 40 10 17
f 41 30 8
f 41 19 30
f 41 34 19
f 41 8 34
f 42 27 13
f 42 13 30
f 43 31 20
f 43 20 1
f 43 1 29
f 44 20 12
f 44 12 32
f 45 5 25
f 45 25 16
f 45 16 32
f 45 21 5
f 45 32 12
f 45 12 21
f 46 35 15
f 46 23 35
f 47 34 33
f 47 33 21
f 48 29 19
f 49 35 23
f 49 23 36
f 49 4 35
f 49 36 22
f 49 22 4
f 50 20 16
f 51 16 38
f 51 50 16
f 51 37 20
f 51 20 50
f 51 38 26
f 51 26 37
f 52 39 18
f 52 14 22
f 52 22 13
f 52 13 39
f 52 18 6
f 52 6 14
f 53 42 30
f 53 27 42
f 53 30 19
f 53 19 10
f 54 44 32
f 54 32 20
f 54 20 44
f 55 46 15
f 55 15 33
f 55 33 8
f 55 8 23
f 55 23 46
f 56 47 21
f 56 21 12
f 57 48 19
f 57 19 34
f 58 43 29
f 58 29 48
f 59 53 10
f 59 10 27
f 59 27 53
f 60 56 12
f 60 12 31
f 61 34 47
f 61 47 56
f 61 57 34
f 61 48 57
f 62 31 43
f 62 60 31
f 62 56 60
f 63 62 43
f 63 43 58
f 63 58 48
f 63 48 61
f 63 61 56
f 63 56 62

