# https://github.com/mikedh/trimesh
v 0.08480583 0.02860690 0.12085066
v 0.08180697 0.02862994 0.05887605
v 0.07473453 0.05241481 0.08375385
v 0.06053731 0.06508011 0.12137237
v 0.07696919 0.02992510 0.05491323
v 0.07201946 0.05584160 0.12084371
v 0.08396796 0.03145935 0.07757275
v 0.08099932 0.03030790 0.12158686
v 0.06567206 0.05846147 0.05608269
v 0.08088721 0.04028767 0.11764799
v 0.06851580 0.06153449 0.08375015
v 0.08483361 0.02860552 0.07747024
v 0.07775726 0.04349882 0.06833841
v 0.05757018 0.06205206 0.05464879
v 0.06215324 0.06281343 0.12176237
v 0.08395180 0.03150013 0.12074012
v 0.07796296 0.03743184 0.05600501
v 0.07463002 0.05230590 0.11756702
v 0.08105403 0.04045449 0.08374896
v 0.06704338 0.06256150 0.12092280
v 0.07141683 0.05545689 0.07154837
v 0.08099838 0.03136710 0.05904247
v 0.05797667 0.06593337 0.06737591
v 0.06624597 0.05706544 0.12171923
v 0.08080392 0.02927395 0.05531106
v 0.07454438 0.04622846 0.05926475
v 0.06855685 0.06129815 0.11768544
v 0.07792138 0.04654267 0.08057411
v 0.08097882 0.03739213 0.07146978
v 0.06571312 0.06149452 0.06538442
v 0.05767471 0.06542054 0.06429120
v 0.07542073 0.03420789 0.05426924
v 0.06837483 0.05497460 0.05621396
v 0.07744288 0.04038170 0.05916001
v 0.07460584 0.04931866 0.06837901
v 0.08059388 0.03436518 0.06226850
v 0.05907513 0.06028928 0.05433791
f 5 2 1
f 8 5 1
f 12 1 2
f 14 8 4
f 14 5 8
f 15 4 8
f 16 8 1
f 16 6 8
f 16 10 6
f 16 12 7
f 16 1 12
f 18 6 10
f 19 16 7
f 19 10 16
f 20 15 6
f 20 4 15
f 21 11 3
f 22 12 2
f 23 20 11
f 23 4 20
f 24 15 8
f 24 8 6
f 24 6 15
f 25 2 5
f 25 22 2
f 25 17 22
f 27 6 18
f 27 20 6
f 27 11 20
f 27 18 3
f 27 3 11
f 28 18 10
f 28 10 19
f 28 3 18
f 28 21 3
f 29 19 7
f 29 28 19
f 29 13 28
f 30 11 21
f 30 23 11
f 31 14 4
f 31 4 23
f 31 23 30
f 31 30 9
f 31 9 14
f 32 25 5
f 32 17 25
f 33 26 17
f 33 30 21
f 33 9 30
f 33 17 32
f 34 26 13
f 34 17 26
f 34 13 29
f 35 13 26
f 35 28 13
f 35 21 28
f 35 33 21
f 35 26 33
f 36 29 7
f 36 34 29
f 36 22 17
f 36 17 34
f 36 7 12
f 36 12 22
f 37 32 5
f 37 5 14
f 37 14 9
f 37 33 32
f 37 9 33

