# https://github.com/mikedh/trimesh
v 0.02159155 -0.08005431 0.16507860
v 0.06483057 -0.04534711 0.16487138
v 0.02267510 -0.03644203 0.24900550
v 0.03745355 -0.00218536 0.25111798
v 0.05372138 -0.00221966 0.21106285
v 0.03677122 -0.01894204 0.24897315
v 0.01271310 -0.03753099 0.25066335
v 0.04482276 -0.06845111 0.16402194
v 0.02319919 -0.07491198 0.16716232
v 0.03362827 -0.02489914 0.24897784
v 0.05811801 -0.00184475 0.20873069
v 0.01818439 -0.03887019 0.25004279
v 0.04141720 -0.00227718 0.23919262
v 0.05985883 -0.05313800 0.16390125
v 0.01304736 -0.03836730 0.24790029
v 0.06396546 -0.04475891 0.16756688
v 0.04071030 -0.00171549 0.24931135
v 0.01743934 -0.05861379 0.21091823
v 0.01367673 -0.03695117 0.25141262
v 0.03795808 -0.06743605 0.17577487
v 0.02712170 -0.07833700 0.16435635
v 0.06358497 -0.04766723 0.16428569
v 0.04974237 -0.05534791 0.17898761
v 0.02091227 -0.07795526 0.17044332
v 0.03826832 -0.00226427 0.24844483
v 0.05563935 -0.01365301 0.21067436
v 0.05582336 -0.05245180 0.17274485
v 0.04012235 -0.00756308 0.24922180
v 0.04973878 -0.00170676 0.22680510
v 0.01746539 -0.04076172 0.24629281
v 0.03579633 -0.07441801 0.16401474
v 0.02631411 -0.07342804 0.17599457
v 0.03083073 -0.03058406 0.24553008
v 0.04097405 -0.05797382 0.18833960
v 0.02373828 -0.07714420 0.17014420
v 0.05248883 -0.02837228 0.20731515
v 0.05264698 -0.04025798 0.19465638
v 0.06271863 -0.04708469 0.16696578
v 0.04647616 -0.04602709 0.19772952
v 0.05251905 -0.01958042 0.21379297
v 0.05689260 -0.00176197 0.21129108
v 0.03828397 -0.07028126 0.16966598
v 0.02601579 -0.06401072 0.19465391
v 0.03521331 -0.07359183 0.16657933
v 0.04405081 -0.06444496 0.17272260
v 0.02546516 -0.03592287 0.24563814
v 0.02668102 -0.07737297 0.16702692
v 0.05903268 -0.05246736 0.16663690
v 0.03173937 -0.06098076 0.19453177
v 0.04417701 -0.06761650 0.16661366
v 0.04673574 -0.05838650 0.17895927
f 9 5 2
f 9 2 1
f 10 6 4
f 11 2 5
f 12 3 10
f 13 5 9
f 15 9 1
f 15 13 9
f 16 6 10
f 17 13 4
f 19 12 10
f 19 10 4
f 19 4 7
f 19 7 12
f 20 3 12
f 22 1 2
f 22 2 16
f 22 21 1
f 22 14 21
f 23 8 14
f 24 15 1
f 24 7 15
f 24 18 7
f 24 12 18
f 25 15 7
f 25 7 4
f 25 4 13
f 25 13 15
f 26 16 2
f 26 2 11
f 27 23 14
f 28 17 4
f 28 4 6
f 28 26 11
f 28 11 17
f 29 5 13
f 29 13 17
f 30 18 12
f 30 12 7
f 30 7 18
f 31 21 14
f 31 14 8
f 32 12 24
f 33 10 3
f 34 3 20
f 35 24 1
f 35 1 21
f 35 32 24
f 36 6 16
f 37 16 10
f 37 10 27
f 38 22 16
f 38 37 27
f 38 16 37
f 39 27 10
f 39 23 27
f 39 33 23
f 39 10 33
f 40 28 6
f 40 26 28
f 40 6 36
f 40 36 16
f 40 16 26
f 41 29 17
f 41 17 11
f 41 11 5
f 41 5 29
f 42 31 8
f 43 32 20
f 43 12 32
f 44 20 32
f 44 42 20
f 44 31 42
f 44 21 31
f 45 34 20
f 46 33 3
f 46 3 34
f 46 23 33
f 47 35 21
f 47 32 35
f 47 44 32
f 47 21 44
f 48 38 27
f 48 27 14
f 48 14 22
f 48 22 38
f 49 43 20
f 49 20 12
f 49 12 43
f 50 45 20
f 50 8 45
f 50 42 8
f 50 20 42
f 51 45 8
f 51 8 23
f 51 34 45
f 51 46 34
f 51 23 46

