# https://github.com/mikedh/trimesh
v -0.01536777 -0.03846184 0.32749556
v -0.01584151 -0.04256119 0.24394621
v -0.02921032 -0.01660237 0.27568450
v -0.03638199 -0.01403248 0.32736658
v -0.03540755 -0.02536765 0.24292240
v -0.03238732 -0.01620324 0.32482046
v -0.01865981 -0.03088782 0.26380292
v -0.02020121 -0.03639230 0.32689674
v -0.03773269 -0.01445405 0.25030361
v -0.01885158 -0.03076066 0.31288468
v -0.02918650 -0.01667021 0.29437614
v -0.03359501 -0.01523695 0.32678574
v -0.01466997 -0.03967212 0.25243438
v -0.02080823 -0.04032624 0.24293214
v -0.03161564 -0.02497999 0.32702482
v -0.03747848 -0.02060575 0.24388355
v -0.03413714 -0.01569555 0.25103244
v -0.01839725 -0.03388652 0.32652696
v -0.03473096 -0.01931412 0.32706438
v -0.03275984 -0.01654511 0.25465638
v -0.01809814 -0.03687217 0.24548493
v -0.03195470 -0.02303760 0.24520493
f 8 2 1
f 9 4 3
f 10 1 7
f 11 3 4
f 11 6 10
f 11 10 7
f 11 7 3
f 12 4 1
f 12 11 4
f 12 6 11
f 13 7 1
f 13 1 2
f 14 5 2
f 14 2 8
f 15 8 1
f 15 1 4
f 15 14 8
f 15 5 14
f 16 4 9
f 16 2 5
f 17 9 3
f 17 16 9
f 18 10 6
f 18 1 10
f 18 12 1
f 18 6 12
f 19 15 4
f 19 4 16
f 19 16 5
f 19 5 15
f 20 17 3
f 20 3 7
f 20 7 17
f 21 17 7
f 21 7 13
f 21 13 2
f 22 21 2
f 22 2 16
f 22 16 17
f 22 17 21

