# https://github.com/mikedh/trimesh
v -0.03705839 0.01653465 0.25010634
v -0.01805003 0.05817711 0.21106407
v -0.02319031 0.03571162 0.24901282
v -0.01850550 0.05936983 0.20853732
v -0.05055131 0.01794469 0.21107640
v -0.02093493 0.03702157 0.24956120
v -0.02072409 0.03814378 0.23889291
v -0.02103945 0.05239585 0.21162264
v -0.04480610 0.04005796 0.20787170
v -0.01851650 0.04099782 0.24356737
v -0.03285630 0.05201751 0.20781218
v -0.02492945 0.02948610 0.25151375
v -0.03551840 0.01872210 0.24235276
v -0.01787379 0.05154075 0.22346058
v -0.05430318 0.02229852 0.20813710
v -0.03160577 0.02721972 0.24913946
v -0.02123696 0.05855752 0.20810676
v -0.03767217 0.04203298 0.21659939
v -0.03863344 0.01589833 0.24631415
v -0.03340192 0.01770627 0.25089727
v -0.01794317 0.04311504 0.23984746
v -0.03492632 0.02174773 0.24927724
v -0.05565212 0.01659139 0.20882080
v -0.02553042 0.03560577 0.24557856
v -0.05024922 0.01586091 0.22036356
v -0.05448516 0.01626185 0.21140033
f 8 5 4
f 8 4 2
f 10 4 6
f 11 3 6
f 12 10 6
f 12 7 10
f 13 8 7
f 13 5 8
f 14 8 2
f 14 7 8
f 15 9 11
f 16 1 12
f 16 12 6
f 16 6 3
f 17 11 6
f 17 6 4
f 17 15 11
f 18 11 9
f 18 3 11
f 18 9 16
f 20 12 1
f 20 1 19
f 20 19 5
f 20 5 13
f 20 13 7
f 20 7 12
f 21 10 7
f 21 7 14
f 21 14 2
f 21 2 4
f 21 4 10
f 22 15 1
f 22 9 15
f 22 16 9
f 22 1 16
f 23 4 5
f 23 1 15
f 23 17 4
f 23 15 17
f 24 18 16
f 24 16 3
f 24 3 18
f 25 5 19
f 26 19 1
f 26 1 23
f 26 25 19
f 26 23 5
f 26 5 25

