# https://github.com/mikedh/trimesh
v 0.03386581 -0.01536775 0.32678431
v 0.03594033 -0.01095081 0.26267742
v 0.03736727 -0.01341640 0.32706753
v 0.03694153 0.01352904 0.32737202
v 0.03338183 0.01648501 0.26596308
v 0.03756751 0.01285937 0.32705883
v 0.03713699 -0.01339082 0.32361168
v 0.03268477 -0.01193087 0.26320209
v 0.03437891 0.01172701 0.32512963
v 0.03388041 0.01670835 0.26287705
v 0.03568038 0.01088880 0.32697509
v 0.03278796 -0.01508288 0.32256619
v 0.03452646 0.01554934 0.26235352
v 0.03294676 0.01117684 0.26329518
f 1 3 4
f 6 3 2
f 6 4 3
f 7 1 2
f 7 2 3
f 7 3 1
f 8 2 1
f 9 4 5
f 10 5 4
f 10 4 6
f 11 9 1
f 11 1 4
f 11 4 9
f 12 8 1
f 12 1 9
f 13 10 6
f 13 6 2
f 13 2 8
f 14 5 10
f 14 8 12
f 14 12 9
f 14 9 5
f 14 13 8
f 14 10 13

