# https://github.com/mikedh/trimesh
v -0.05192642 -0.07541846 0.13015387
v -0.05208588 -0.07549942 0.06820328
v -0.07611993 -0.02139811 0.15056957
v -0.08632714 -0.01733426 0.12720695
v -0.07216331 -0.05629737 0.11468281
v -0.08365586 -0.01797382 0.07702910
v -0.05528295 -0.06008694 0.15034546
v -0.05718257 -0.07416500 0.10231972
v -0.07192807 -0.04386175 0.14826410
v -0.05566878 -0.06696744 0.06399495
v -0.08229321 -0.01823422 0.12806456
v -0.08465796 -0.02915990 0.08068296
v -0.05196765 -0.06919264 0.14877654
v -0.06907541 -0.05911770 0.07466912
v -0.06006711 -0.07111763 0.11156200
v -0.07754513 -0.02983258 0.14914839
v -0.08132618 -0.03498065 0.12691366
v -0.07641087 -0.02094402 0.14974918
v -0.08705913 -0.01748076 0.07731332
v -0.05946767 -0.06178795 0.14819099
v -0.06300137 -0.06832313 0.09003589
v -0.07830672 -0.04428676 0.07753692
v -0.06944046 -0.05620576 0.06529125
v -0.07175813 -0.05307181 0.12980453
v -0.08447694 -0.02903994 0.12062581
v -0.08126354 -0.03212504 0.13305847
v -0.06276291 -0.06504257 0.12977822
v -0.05984823 -0.06782128 0.06546728
v -0.05715526 -0.07409809 0.09307513
v -0.06302338 -0.06831070 0.10843364
v -0.07204094 -0.05634712 0.08372013
v -0.07201774 -0.05195286 0.06468676
v -0.07839833 -0.04419044 0.12062235
v -0.06861524 -0.05296659 0.14195704
v -0.07890993 -0.02926100 0.14543142
v -0.08446813 -0.02588760 0.12692349
v -0.05374223 -0.06785969 0.14817071
v -0.05376949 -0.07390986 0.12976714
v -0.06895735 -0.05896588 0.12378988
v -0.06588857 -0.06182310 0.06840071
v -0.05393682 -0.07398616 0.06841348
v -0.05322560 -0.07371810 0.06472447
v -0.06014160 -0.07116496 0.08999346
v -0.06654465 -0.05469352 0.06397535
v -0.08518709 -0.02632311 0.07749279
v -0.07515611 -0.05014861 0.07757012
v -0.07197837 -0.05318536 0.06839242
v -0.07519990 -0.05016074 0.12061668
v -0.08137891 -0.03812374 0.11780478
v -0.07815149 -0.04118982 0.12990902
v -0.06273794 -0.06187907 0.13890688
v -0.07795245 -0.03483823 0.14211413
v -0.05668387 -0.07095587 0.06547123
v -0.08136187 -0.03810377 0.08059704
v -0.07797352 -0.03239588 0.14528191
v -0.07479118 -0.03787270 0.14823898
f 8 2 1
f 10 7 2
f 10 3 7
f 11 6 4
f 13 1 2
f 13 2 7
f 15 8 1
f 16 3 4
f 16 9 7
f 16 7 3
f 18 10 6
f 18 3 10
f 18 6 11
f 18 11 4
f 18 4 3
f 19 4 6
f 20 13 7
f 20 7 9
f 25 19 12
f 25 4 19
f 26 25 17
f 29 2 8
f 30 21 8
f 30 8 15
f 30 5 21
f 30 15 27
f 31 21 5
f 31 14 21
f 31 5 22
f 32 19 6
f 32 28 23
f 33 22 5
f 34 20 9
f 34 9 24
f 35 16 4
f 36 4 25
f 36 25 26
f 36 35 4
f 36 26 35
f 37 1 13
f 37 13 20
f 38 27 15
f 38 15 1
f 38 37 27
f 38 1 37
f 39 30 27
f 39 5 30
f 39 34 24
f 40 28 21
f 40 21 14
f 40 14 23
f 40 23 28
f 41 2 29
f 42 10 2
f 42 2 41
f 42 28 32
f 43 29 8
f 43 8 21
f 43 41 29
f 43 21 28
f 44 32 6
f 44 6 10
f 44 42 32
f 44 10 42
f 45 12 19
f 45 19 32
f 45 32 22
f 46 31 22
f 46 14 31
f 47 32 23
f 47 23 14
f 47 14 46
f 47 46 22
f 47 22 32
f 48 33 5
f 48 39 24
f 48 5 39
f 49 33 17
f 49 17 25
f 49 25 12
f 50 24 9
f 50 26 17
f 50 17 33
f 50 48 24
f 50 33 48
f 51 20 34
f 51 37 20
f 51 27 37
f 51 39 27
f 51 34 39
f 52 50 9
f 52 26 50
f 53 42 41
f 53 28 42
f 53 43 28
f 53 41 43
f 54 45 22
f 54 12 45
f 54 49 12
f 54 22 33
f 54 33 49
f 55 35 26
f 55 26 52
f 55 16 35
f 56 55 52
f 56 52 9
f 56 9 16
f 56 16 55

