# https://github.com/mikedh/trimesh
v -0.04112719 0.02945755 0.00578690
v -0.01284522 0.06118019 0.00022248
v -0.01326522 0.08267135 0.04169539
v -0.01549294 0.08651289 0.04339901
v -0.05647344 0.05187464 0.02263924
v -0.01223103 0.06804920 0.00153438
v -0.01295668 0.06139988 0.00559816
v -0.07076665 0.04424026 0.04317523
v -0.01225106 0.08614177 0.04042143
v -0.03871024 0.07269574 0.03178263
v -0.05075335 0.04320378 0.00187407
v -0.01242456 0.08699381 0.04325033
v -0.01786228 0.07899997 0.02546962
v -0.04840626 0.07087855 0.04360783
v -0.03577801 0.05789152 0.00184041
v -0.04136547 0.02965199 0.00086274
v -0.06354145 0.04361243 0.02504855
v -0.06953631 0.04666527 0.04357087
v -0.01218778 0.08292509 0.03129757
v -0.02681216 0.08225333 0.04085532
v -0.05034165 0.06085315 0.02576038
v -0.02432869 0.06465579 0.00186536
v -0.05375043 0.02951637 0.00017952
v -0.05023224 0.04566512 0.00368097
v -0.02737407 0.08301591 0.04363452
v -0.06878314 0.04629173 0.04070698
v -0.01802819 0.06989380 0.00682822
v -0.01531086 0.08564322 0.04058282
v -0.02681481 0.07606108 0.02556004
v -0.05075335 0.06665321 0.03785400
v -0.03865372 0.06662801 0.01944786
v -0.07000931 0.04382209 0.04030751
v -0.05458407 0.02990647 0.00705252
v -0.06248334 0.04590740 0.02576462
v -0.04718959 0.05160775 0.00684200
v -0.06352466 0.05567270 0.04361765
v -0.03559189 0.07584985 0.03479414
v -0.01523748 0.06764796 0.00181709
v -0.02091350 0.08205347 0.03457038
v -0.02399716 0.07276223 0.01625121
v -0.04788631 0.07017895 0.04081682
v -0.02967286 0.06335880 0.00388303
v -0.05345336 0.05766683 0.02578391
v -0.04116024 0.05738557 0.00699918
v -0.06264798 0.05208296 0.03476316
v -0.03954899 0.07702373 0.04359038
v -0.01511840 0.08242971 0.03142793
v -0.02388107 0.06954786 0.01003296
v -0.05955985 0.05776778 0.03795075
v -0.03544535 0.06350451 0.01012538
v -0.04443078 0.06057381 0.01642464
v -0.03904580 0.07624515 0.04077264
v -0.06283020 0.05513771 0.04075804
f 7 1 2
f 7 3 1
f 7 2 6
f 8 1 3
f 9 7 6
f 12 8 3
f 12 9 4
f 12 3 7
f 12 7 9
f 16 2 1
f 18 12 4
f 18 8 12
f 19 9 6
f 22 6 2
f 22 2 15
f 23 15 2
f 23 11 15
f 23 2 16
f 23 17 11
f 23 16 1
f 24 11 17
f 24 15 11
f 25 18 4
f 26 8 18
f 27 19 6
f 28 4 9
f 28 9 19
f 31 10 29
f 31 30 10
f 31 21 30
f 32 23 8
f 32 17 23
f 32 26 17
f 32 8 26
f 33 23 1
f 33 1 8
f 33 8 23
f 34 24 17
f 34 5 24
f 34 17 26
f 35 24 5
f 35 15 24
f 36 25 14
f 36 18 25
f 36 14 30
f 36 26 18
f 37 25 20
f 37 29 10
f 37 20 29
f 38 27 6
f 38 6 22
f 38 22 27
f 39 20 25
f 39 25 4
f 39 4 28
f 39 29 20
f 39 13 29
f 40 29 13
f 40 13 27
f 40 31 29
f 41 30 14
f 41 10 30
f 42 22 15
f 42 31 40
f 43 35 5
f 43 21 35
f 44 15 35
f 45 34 26
f 45 5 34
f 45 43 5
f 46 14 25
f 46 25 37
f 46 41 14
f 47 39 28
f 47 28 19
f 47 13 39
f 47 27 13
f 47 19 27
f 48 40 27
f 48 27 22
f 48 42 40
f 48 22 42
f 49 36 30
f 49 30 21
f 49 21 43
f 49 43 45
f 50 42 15
f 50 15 44
f 50 31 42
f 51 44 35
f 51 35 21
f 51 21 31
f 51 50 44
f 51 31 50
f 52 46 37
f 52 37 10
f 52 10 41
f 52 41 46
f 53 49 45
f 53 36 49
f 53 45 26
f 53 26 36

