# https://github.com/mikedh/trimesh
v 0.02109695 -0.08491899 0.04316533
v 0.07716549 -0.02986152 0.04293600
v 0.04056147 -0.03012778 0.00599563
v 0.07535044 -0.02925783 0.03738406
v 0.05306429 -0.06476410 0.03783020
v 0.02275981 -0.07980362 0.04155043
v 0.06313835 -0.05644942 0.04353136
v 0.02137337 -0.06383535 0.00061983
v 0.07253940 -0.03150959 0.04107319
v 0.07537347 -0.03532139 0.04349174
v 0.04783551 -0.07145362 0.04358385
v 0.05023400 -0.04378677 0.00190559
v 0.02171864 -0.05221279 0.00598369
v 0.02393699 -0.08402710 0.04344762
v 0.07452020 -0.03213509 0.03769089
v 0.03810609 -0.06727472 0.01951614
v 0.03270073 -0.08054250 0.04367759
v 0.05293270 -0.05264352 0.01655722
v 0.04087633 -0.03038194 0.00094638
v 0.02071911 -0.06837814 0.00631903
v 0.07460086 -0.03495533 0.04083749
v 0.05966462 -0.02905779 0.00347330
v 0.04442026 -0.07049681 0.03468253
v 0.03833421 -0.05564611 0.00173113
v 0.03877826 -0.07732296 0.04365441
v 0.05608229 -0.05849424 0.03167969
v 0.05753616 -0.02947805 0.00096559
v 0.02187857 -0.05251041 0.00066491
v 0.02080770 -0.08408737 0.04038091
v 0.06854826 -0.04708223 0.04075259
v 0.06917139 -0.02923441 0.02164426
v 0.05582963 -0.04644279 0.01338381
v 0.04735566 -0.07080615 0.04086810
v 0.03532349 -0.07341335 0.02865382
v 0.05013482 -0.06148773 0.02597070
v 0.04384082 -0.05518421 0.00712973
v 0.02946387 -0.06168147 0.00198272
v 0.05614960 -0.06160946 0.03786088
v 0.05585872 -0.03754754 0.00401685
v 0.02359997 -0.07983838 0.03160191
v 0.06804580 -0.04380768 0.03471130
v 0.06929486 -0.04751132 0.04349642
v 0.06227704 -0.05274474 0.03473654
v 0.07111238 -0.03484363 0.03168377
v 0.04967135 -0.04921336 0.00716969
v 0.03829313 -0.07042873 0.02594851
v 0.02640480 -0.07335994 0.01927650
v 0.03834408 -0.07661205 0.04087766
v 0.05016852 -0.06449391 0.03180558
v 0.05304869 -0.05846567 0.02580890
v 0.04404669 -0.06126298 0.01647703
v 0.03219023 -0.06726386 0.01337547
v 0.06250611 -0.05589271 0.04082425
v 0.05683011 -0.03210592 0.00141226
v 0.06829444 -0.03189007 0.02191756
v 0.02364960 -0.08321483 0.04069735
v 0.03239393 -0.07973464 0.04091998
v 0.02073215 -0.08066687 0.03125326
v 0.06502804 -0.04679996 0.03163760
v 0.02608857 -0.07034811 0.01335344
v 0.05891107 -0.03165083 0.00399502
v 0.02355414 -0.06755361 0.00677926
f 3 2 4
f 6 1 2
f 9 6 2
f 9 2 3
f 9 3 6
f 11 5 7
f 13 6 3
f 13 1 6
f 14 10 2
f 14 2 1
f 15 4 2
f 17 10 14
f 21 15 2
f 21 2 10
f 22 19 3
f 22 3 4
f 25 11 7
f 25 7 10
f 25 10 17
f 27 24 8
f 27 12 24
f 27 19 22
f 28 13 3
f 28 3 19
f 28 20 13
f 28 8 20
f 28 27 8
f 28 19 27
f 29 1 13
f 31 22 4
f 31 4 15
f 33 5 11
f 33 25 23
f 33 11 25
f 35 26 5
f 36 24 12
f 37 20 8
f 37 8 24
f 38 7 5
f 38 5 26
f 39 32 12
f 41 21 10
f 41 10 30
f 42 30 10
f 42 10 7
f 43 26 18
f 44 31 15
f 44 15 21
f 44 21 41
f 45 32 18
f 45 12 32
f 45 36 12
f 45 18 36
f 46 34 16
f 46 16 23
f 46 23 34
f 47 16 34
f 47 34 40
f 48 25 17
f 48 34 23
f 48 23 25
f 49 35 5
f 49 23 35
f 49 33 23
f 49 5 33
f 50 35 18
f 50 18 26
f 50 26 35
f 51 35 23
f 51 23 16
f 51 16 24
f 51 24 36
f 51 36 18
f 51 18 35
f 52 37 24
f 52 24 16
f 52 16 47
f 53 38 26
f 53 7 38
f 53 26 43
f 53 43 30
f 53 42 7
f 53 30 42
f 54 27 22
f 54 39 12
f 54 12 27
f 55 22 31
f 55 44 41
f 55 31 44
f 55 32 39
f 56 17 14
f 56 29 40
f 56 14 1
f 56 1 29
f 57 40 34
f 57 56 40
f 57 17 56
f 57 48 17
f 57 34 48
f 58 40 29
f 58 47 40
f 58 20 47
f 58 29 13
f 58 13 20
f 59 41 30
f 59 30 43
f 59 55 41
f 59 32 55
f 59 43 18
f 59 18 32
f 60 52 47
f 60 47 20
f 60 37 52
f 61 54 22
f 61 39 54
f 61 55 39
f 61 22 55
f 62 60 20
f 62 20 37
f 62 37 60

