# https://github.com/mikedh/trimesh
v -0.03441893 0.00799138 0.32237508
v -0.01526885 0.03459607 0.27237040
v -0.01432427 0.03224013 0.29123342
v -0.01223959 0.04050597 0.32713665
v -0.03221070 0.02456455 0.32695997
v -0.01170863 0.03616771 0.29146459
v -0.01506818 0.03329980 0.31295724
v -0.03357975 0.00792168 0.26334195
v -0.03725310 0.01036425 0.32739452
v -0.02570361 0.03247735 0.32577792
v -0.03231710 0.00844808 0.29753039
v -0.01451335 0.03628827 0.32678707
v -0.03209965 0.02030268 0.25048071
v -0.01714101 0.03836528 0.32703896
v -0.03803230 0.00750352 0.32282863
v -0.03247989 0.00854872 0.27261974
v -0.03481524 0.01144413 0.32680680
v -0.01173870 0.03937901 0.32020603
v -0.03113481 0.02161796 0.25110587
v -0.03512366 0.01900390 0.32697034
v -0.01765790 0.03324133 0.27229365
v -0.03642691 0.00716008 0.26263788
v -0.03340192 0.01770627 0.25089727
v -0.03504389 0.01290349 0.26232786
f 6 2 4
f 7 3 6
f 8 6 3
f 8 2 6
f 11 7 1
f 11 3 7
f 11 1 8
f 12 1 7
f 12 4 9
f 13 2 8
f 14 9 4
f 14 5 9
f 14 10 5
f 14 4 2
f 15 1 9
f 16 11 8
f 16 8 3
f 16 3 11
f 17 12 9
f 17 9 1
f 17 1 12
f 18 12 7
f 18 7 6
f 18 6 4
f 18 4 12
f 19 2 13
f 19 13 5
f 19 5 10
f 20 9 5
f 20 5 13
f 20 15 9
f 21 14 2
f 21 10 14
f 21 19 10
f 21 2 19
f 22 8 1
f 22 1 15
f 23 13 8
f 23 8 22
f 23 20 13
f 24 23 22
f 24 22 15
f 24 15 20
f 24 20 23

