# https://github.com/mikedh/trimesh
v -0.03406417 -0.08823854 0.12099128
v -0.02173658 -0.08831439 0.05559066
v -0.03817439 -0.08092157 0.12763357
v -0.05458202 -0.06897451 0.12784220
v -0.05085288 -0.07717656 0.07151996
v -0.02341175 -0.08356397 0.05412564
v -0.05090157 -0.07708862 0.12696493
v -0.02298964 -0.08896826 0.08331444
v -0.03042621 -0.09023032 0.08377556
v -0.05234374 -0.07046645 0.12828488
v -0.05416199 -0.06849624 0.06445034
v -0.04498696 -0.08337313 0.09304354
v -0.02131586 -0.09008829 0.06211684
v -0.02222049 -0.09308621 0.08347907
v -0.04358835 -0.07739732 0.12827513
v -0.05002843 -0.07362073 0.05536212
v -0.04496790 -0.08336175 0.10849339
v -0.04211299 -0.08295492 0.07154258
v -0.03005723 -0.08938844 0.07466403
v -0.03949159 -0.08000903 0.12809965
v -0.03663748 -0.07768702 0.05407702
v -0.05242280 -0.07271788 0.05874755
v -0.03898918 -0.08619483 0.11758056
v -0.04802874 -0.08007091 0.07757131
v -0.03904791 -0.08621079 0.08383930
v -0.03585531 -0.08279434 0.05621896
v -0.04495711 -0.08003707 0.06556798
v -0.03641288 -0.08718010 0.12078713
v -0.04802118 -0.08008450 0.12069712
v -0.03603648 -0.08623595 0.07160097
v -0.02711891 -0.08672876 0.05609711
v -0.04525312 -0.07728284 0.05603369
v -0.05097725 -0.07404772 0.05928284
v -0.02419318 -0.08924526 0.06229448
v -0.04858855 -0.07494372 0.05594800
f 7 1 3
f 7 4 5
f 8 3 1
f 8 6 3
f 10 6 4
f 10 3 6
f 10 4 7
f 11 5 4
f 11 4 6
f 12 7 5
f 13 2 6
f 13 6 8
f 14 8 1
f 14 1 9
f 14 13 8
f 15 10 7
f 17 7 12
f 19 14 9
f 19 13 14
f 20 15 7
f 20 7 3
f 20 3 10
f 20 10 15
f 21 16 11
f 21 11 6
f 21 6 2
f 22 5 11
f 22 11 16
f 23 9 1
f 23 17 12
f 24 12 5
f 24 5 18
f 25 24 18
f 25 12 24
f 25 23 12
f 25 9 23
f 25 19 9
f 26 21 2
f 26 16 21
f 27 18 5
f 27 26 18
f 28 23 1
f 28 1 7
f 29 7 17
f 29 17 23
f 29 28 7
f 29 23 28
f 30 25 18
f 30 19 25
f 30 18 26
f 31 26 2
f 31 30 26
f 31 19 30
f 32 16 26
f 32 26 27
f 33 22 16
f 33 27 5
f 33 5 22
f 34 31 2
f 34 2 13
f 34 13 19
f 34 19 31
f 35 32 27
f 35 27 33
f 35 33 16
f 35 16 32

