{"scene":0,"scenes":[{"nodes":[0]}],"asset":{"version":"2.0","generator":"https://github.com/mikedh/trimesh"},"accessors":[{"componentType":5125,"type":"SCALAR","bufferView":0,"count":81912,"max":[81883],"min":[0]},{"componentType":5126,"type":"VEC3","byteOffset":0,"bufferView":1,"count":81884,"max":[0.09000000357627869,0.3275529146194458,0.09726564586162567],"min":[-0.09000000357627869,0.0,-0.09726564586162567]},{"componentType":5126,"type":"VEC2","byteOffset":0,"bufferView":3,"count":81884,"max":[0.9995843768119812,0.9995527863502502],"min":[0.00041562761180102825,0.00044721364974975586]}],"meshes":[{"name":"geometry_0.002","extras":{"units":"meters","from_gltf_primitive":false,"name":"geometry_0.002","node":"geometry_0.001"},"primitives":[{"attributes":{"POSITION":1,"TEXCOORD_0":2},"indices":0,"mode":4,"material":0}]}],"images":[{"bufferView":2,"mimeType":"image/png"}],"textures":[{"source":0}],"materials":[{"pbrMetallicRoughness":{"baseColorTexture":{"index":0}},"name":"Material_0.002","doubleSided":false}],"nodes":[{"name":"world","children":[1]},{"name":"geometry_0.002","mesh":0}],"buffers":[{"uri":"gltf_buffer_0.bin","byteLength":327648},{"uri":"gltf_buffer_1.bin","byteLength":982608},{"uri":"gltf_buffer_2.bin","byteLength":829600},{"uri":"gltf_buffer_3.bin","byteLength":655072}],"bufferViews":[{"buffer":0,"byteOffset":0,"byteLength":327648},{"buffer":1,"byteOffset":0,"byteLength":982608},{"buffer":2,"byteOffset":0,"byteLength":829600},{"buffer":3,"byteOffset":0,"byteLength":655072}]}