# https://github.com/mikedh/trimesh
v 0.04467993 0.01567258 -0.01327178
v 0.07156718 0.02546928 -0.01295525
v 0.02572242 0.03788319 -0.01372567
v 0.01136660 0.03902047 -0.02711997
v 0.02516275 0.01557399 -0.03996070
v 0.07046192 0.03702065 -0.01621592
v 0.04270078 0.01677733 -0.01363300
v 0.04268067 0.01496448 -0.02209790
v 0.06995713 0.03669525 -0.01328314
v 0.02248272 0.03904314 -0.02282883
v 0.01145046 0.02912669 -0.03718679
v 0.02681822 0.01511001 -0.03899341
v 0.02426110 0.01968549 -0.03868036
v 0.01036112 0.03529589 -0.03327580
v 0.03084259 0.01481319 -0.03579954
v 0.01248640 0.03497305 -0.03294741
v 0.03764626 0.01490619 -0.02861650
f 1 2 3
f 7 1 3
f 7 3 4
f 7 5 1
f 8 2 1
f 9 3 2
f 9 2 6
f 10 6 4
f 10 4 3
f 10 9 6
f 10 3 9
f 11 7 4
f 11 5 7
f 12 6 2
f 12 5 6
f 12 1 5
f 13 11 6
f 13 6 5
f 13 5 11
f 14 11 4
f 14 4 6
f 15 12 2
f 15 8 1
f 15 1 12
f 16 14 6
f 16 6 11
f 16 11 14
f 17 15 2
f 17 2 8
f 17 8 15

