# https://github.com/mikedh/trimesh
v 0.00850323 -0.05212860 -0.01404542
v 0.01651174 -0.04453083 -0.01615017
v -0.03835217 -0.02853717 -0.01358749
v -0.03805143 -0.00863391 -0.03118172
v 0.00582451 -0.01698973 -0.04728288
v 0.01608529 -0.00863904 -0.04606196
v 0.01559191 -0.04907241 -0.01434140
v -0.03837169 -0.04331700 -0.01637593
v -0.01492177 -0.00798518 -0.04769860
v -0.02533376 -0.04213263 -0.01339175
v 0.01016083 -0.03497701 -0.03546057
v 0.01455918 -0.03058932 -0.03766343
v 0.01487000 -0.00802935 -0.04751253
v -0.02611447 -0.01694276 -0.04023920
v -0.01089150 -0.05187510 -0.01420632
v -0.03759113 -0.04245277 -0.01305094
v 0.01466967 -0.04204020 -0.02615221
v 0.01678579 -0.01145041 -0.04517351
v 0.00564431 -0.03059883 -0.04012174
v 0.01018866 -0.02151239 -0.04450977
v -0.03658881 -0.00817664 -0.03453506
v 0.00571766 -0.04207716 -0.02880713
v -0.01040371 -0.02621839 -0.04233902
v 0.01016773 -0.01488165 -0.04720320
v 0.01013188 -0.02611051 -0.04219857
v 0.01478780 -0.01036148 -0.04712120
v -0.03107530 -0.01258544 -0.03819316
v 0.00562539 -0.04693780 -0.02175669
v 0.01021068 -0.03964121 -0.03073454
v -0.02126907 -0.02364393 -0.03980861
v -0.00582492 -0.01713021 -0.04723596
v -0.01019508 -0.03514561 -0.03544582
v -0.03257869 -0.01703325 -0.03519877
v -0.00801620 -0.04199226 -0.02868792
v -0.02828135 -0.01918456 -0.03767874
v -0.01481849 -0.01950614 -0.04462368
v -0.00568788 -0.03059748 -0.04012450
v -0.01705289 -0.03274178 -0.03524606
v -0.03501495 -0.01707981 -0.03294892
v -0.01257550 -0.04445094 -0.02405429
v -0.01020403 -0.03986759 -0.03072928
v -0.02806102 -0.02368442 -0.03519785
v -0.03060845 -0.01467081 -0.03778857
v -0.01484566 -0.01019109 -0.04728005
v -0.01047996 -0.02169989 -0.04472047
v -0.01496357 -0.02395490 -0.04247962
v -0.02367750 -0.02825382 -0.03521532
v -0.01711783 -0.03962247 -0.02842389
v -0.01037967 -0.01493333 -0.04731961
v -0.02151560 -0.03285871 -0.03289403
f 6 3 2
f 6 4 3
f 7 2 3
f 8 3 4
f 10 7 3
f 10 1 7
f 13 5 9
f 13 4 6
f 16 10 3
f 16 3 8
f 16 8 15
f 16 15 1
f 16 1 10
f 17 7 1
f 17 11 12
f 17 12 2
f 17 2 7
f 18 6 2
f 18 2 12
f 18 13 6
f 19 12 11
f 21 13 9
f 21 4 13
f 21 8 4
f 22 17 1
f 22 19 11
f 24 20 5
f 24 5 13
f 25 19 5
f 25 5 20
f 25 20 12
f 25 12 19
f 26 18 12
f 26 12 20
f 26 20 24
f 26 24 13
f 26 13 18
f 27 21 9
f 27 9 14
f 28 22 1
f 28 1 15
f 29 22 11
f 29 11 17
f 29 17 22
f 31 9 5
f 31 5 19
f 34 28 15
f 34 22 28
f 35 14 30
f 35 8 33
f 36 30 14
f 37 31 19
f 37 23 31
f 37 32 23
f 37 19 22
f 37 34 32
f 37 22 34
f 38 23 32
f 39 33 8
f 39 8 21
f 39 21 27
f 39 27 33
f 40 34 15
f 40 15 8
f 41 32 34
f 41 40 8
f 41 34 40
f 42 35 30
f 42 30 8
f 42 8 35
f 43 35 33
f 43 33 27
f 43 27 14
f 43 14 35
f 44 36 14
f 44 14 9
f 45 31 23
f 46 30 36
f 46 38 30
f 46 23 38
f 46 45 23
f 46 36 45
f 47 8 30
f 47 30 38
f 48 38 32
f 48 32 41
f 48 41 8
f 48 8 38
f 49 44 9
f 49 9 31
f 49 36 44
f 49 45 36
f 49 31 45
f 50 47 38
f 50 38 8
f 50 8 47

