# https://github.com/mikedh/trimesh
v 0.03759076 0.04001139 -0.01403215
v 0.04073121 0.04062093 -0.07299074
v 0.03856573 0.06922014 -0.01365195
v 0.00355800 0.07944909 -0.02105424
v 0.00368919 0.05787250 -0.07287168
v 0.00364877 0.06668281 -0.01302024
v 0.04081983 0.04080330 -0.01637359
v 0.01567449 0.04461520 -0.01853644
v 0.03600241 0.07098891 -0.07264329
v 0.04001518 0.05697682 -0.01295480
v 0.01542244 0.07726202 -0.01321092
v 0.00365293 0.05703547 -0.01314221
v 0.03883515 0.06939677 -0.07265910
v 0.00355570 0.07970048 -0.07288581
v 0.02239308 0.07614311 -0.01378196
v 0.00375785 0.05704504 -0.02333586
v 0.01588410 0.04511882 -0.01625739
v 0.03606944 0.07103926 -0.05501664
v 0.02927359 0.07370102 -0.01367927
v 0.02450079 0.07596013 -0.07252590
v 0.01519279 0.07844327 -0.06229903
v 0.01056873 0.07874478 -0.02103888
v 0.01511000 0.07844180 -0.07267626
v 0.02454717 0.07587960 -0.05019556
v 0.01280895 0.07850016 -0.03079437
f 7 1 2
f 8 5 2
f 8 2 1
f 10 1 7
f 10 7 2
f 11 4 6
f 11 10 3
f 11 6 10
f 12 6 4
f 12 10 6
f 12 1 10
f 13 10 2
f 13 3 10
f 14 12 4
f 14 5 12
f 14 9 13
f 14 13 2
f 14 2 5
f 16 12 5
f 16 5 8
f 16 8 12
f 17 12 8
f 17 8 1
f 17 1 12
f 18 13 9
f 18 3 13
f 19 15 11
f 19 11 3
f 19 3 18
f 20 18 9
f 22 4 11
f 22 11 15
f 22 21 14
f 22 14 4
f 23 20 9
f 23 9 14
f 23 21 20
f 23 14 21
f 24 15 19
f 24 19 18
f 24 18 20
f 24 21 15
f 24 20 21
f 25 22 15
f 25 15 21
f 25 21 22

