# https://github.com/mikedh/trimesh
v -0.04488643 0.03278133 -0.01316787
v 0.00368919 0.05787250 -0.07287168
v 0.00365165 0.05706421 -0.02105119
v -0.02489493 0.07474176 -0.01323297
v -0.07179131 0.03413317 -0.07273382
v 0.00355800 0.07944909 -0.02105424
v -0.02545092 0.05698917 -0.01304401
v -0.02492542 0.03679015 -0.02520892
v -0.07176704 0.03407464 -0.01363660
v -0.02230616 0.07646266 -0.07269279
v -0.02608558 0.03846482 -0.01618737
v -0.04646832 0.03386624 -0.07285521
v -0.07237382 0.03199503 -0.01327143
v -0.05016046 0.06182597 -0.07239828
v 0.00355570 0.07970048 -0.07288581
v -0.01053633 0.07879224 -0.02105701
v -0.03762280 0.04004694 -0.01319050
v -0.07264176 0.03213555 -0.07279485
v -0.05244113 0.05941619 -0.01368840
v -0.04315804 0.06641720 -0.01381160
v -0.02231268 0.07621854 -0.02105654
v -0.01292773 0.07876868 -0.07265118
v -0.04316634 0.06664903 -0.07267553
v -0.06157797 0.05012504 -0.01383960
v -0.04999832 0.06158095 -0.01411410
v -0.02916942 0.07367738 -0.01377207
v -0.01281810 0.07846872 -0.02594007
v -0.06176864 0.05009389 -0.07258314
v -0.06665900 0.04328109 -0.01387034
v -0.02934201 0.07399004 -0.07261020
v -0.06668995 0.04329766 -0.07259561
f 6 3 2
f 7 6 4
f 7 3 6
f 8 2 3
f 11 3 7
f 11 8 3
f 11 1 8
f 12 2 8
f 12 8 1
f 13 1 7
f 13 7 4
f 15 6 2
f 15 2 12
f 16 4 6
f 16 6 15
f 17 11 7
f 17 7 1
f 17 1 11
f 18 13 9
f 18 9 5
f 18 12 1
f 18 1 13
f 18 15 12
f 19 13 4
f 20 19 4
f 21 4 16
f 22 16 15
f 22 15 10
f 22 10 21
f 23 10 15
f 23 15 18
f 23 14 20
f 24 13 19
f 25 20 14
f 25 14 19
f 25 19 20
f 26 20 4
f 26 4 21
f 27 22 21
f 27 21 16
f 27 16 22
f 28 23 18
f 28 14 23
f 28 24 19
f 28 19 14
f 29 9 13
f 29 13 24
f 29 24 28
f 29 5 9
f 30 26 21
f 30 21 10
f 30 10 23
f 30 23 20
f 30 20 26
f 31 28 18
f 31 18 5
f 31 29 28
f 31 5 29

