# https://github.com/mikedh/trimesh
v 0.03274073 -0.05454633 -0.01300620
v 0.04486804 -0.04243218 -0.01300227
v 0.04542621 -0.01100347 -0.01352736
v 0.01092230 0.03273176 -0.03559696
v 0.01060836 -0.00822484 -0.04878686
v 0.01559191 -0.04907241 -0.01434140
v 0.02244956 -0.05303706 -0.03559926
v 0.03725817 0.01022630 -0.03077699
v 0.02092960 -0.04326192 -0.01349337
v 0.01030836 -0.02876622 -0.04052429
v 0.01603548 -0.05541276 -0.01871909
v 0.01907153 0.01225969 -0.04453893
v 0.04184202 0.01554152 -0.02309644
v 0.04225692 -0.00798151 -0.02614704
v 0.01055992 0.03161291 -0.03670652
v 0.01820154 -0.05456959 -0.03559733
v 0.01831195 -0.05493442 -0.01624692
v 0.02438232 0.02670766 -0.03402170
v 0.03730954 -0.01249926 -0.03070521
v 0.04225185 0.00563026 -0.02622704
v 0.01021619 0.01931508 -0.04506345
v 0.01031896 -0.01953177 -0.04539446
v 0.01599702 -0.05530208 -0.03073335
v 0.01753105 0.03146124 -0.03416930
v 0.03984108 0.01485289 -0.02612310
v 0.02597605 0.01464915 -0.03979954
v 0.02588139 -0.00570187 -0.04244220
v 0.04320871 0.01277829 -0.02240738
v 0.01020060 0.02380079 -0.04262193
v 0.01036170 0.01254060 -0.04764524
v 0.01696889 0.03038717 -0.03538701
v 0.04227901 0.01251170 -0.02396087
v 0.01464717 0.02588130 -0.03988646
v 0.03052070 0.01011366 -0.03776999
v 0.03028325 -0.01258436 -0.03771067
v 0.01695736 -0.00557711 -0.04712769
v 0.01230031 0.01906572 -0.04456910
v 0.02355897 0.02581806 -0.03525362
v 0.02816118 0.00787735 -0.04020729
v 0.02814118 -0.01017302 -0.04012969
v 0.02138925 -0.00793868 -0.04467291
v 0.01487000 -0.00802935 -0.04751253
v 0.01704208 0.00337230 -0.04723362
v 0.01245675 0.01237164 -0.04710475
v 0.01236791 0.02357163 -0.04213320
v 0.02146558 0.00566569 -0.04484791
v 0.02375470 -0.01258019 -0.04251047
v 0.01935621 -0.01263340 -0.04477945
v 0.01459012 0.01009110 -0.04706196
v 0.02589072 0.00337794 -0.04242972
f 1 2 3
f 7 2 1
f 9 6 1
f 9 1 3
f 9 3 4
f 9 4 6
f 11 6 10
f 13 4 3
f 14 3 2
f 15 10 6
f 15 6 4
f 16 5 7
f 16 7 1
f 17 11 1
f 17 1 6
f 17 6 11
f 19 14 2
f 19 2 7
f 20 3 14
f 22 16 10
f 22 5 16
f 22 10 21
f 23 11 10
f 23 10 16
f 23 16 1
f 23 1 11
f 24 4 13
f 24 13 18
f 25 18 13
f 26 18 25
f 27 20 14
f 28 13 3
f 28 3 20
f 29 21 10
f 29 10 15
f 30 22 21
f 30 5 22
f 31 15 4
f 31 4 24
f 32 20 8
f 32 8 25
f 32 28 20
f 32 25 13
f 32 13 28
f 33 29 15
f 33 15 31
f 34 26 25
f 34 25 8
f 34 8 20
f 35 19 7
f 37 30 21
f 37 33 26
f 37 26 12
f 38 18 26
f 38 26 33
f 38 33 31
f 38 31 24
f 38 24 18
f 39 34 20
f 39 20 27
f 39 26 34
f 40 35 7
f 40 27 14
f 40 14 19
f 40 19 35
f 41 36 27
f 42 7 5
f 42 5 36
f 43 27 36
f 43 36 5
f 43 5 30
f 44 37 12
f 44 30 37
f 45 37 21
f 45 21 29
f 45 29 33
f 45 33 37
f 46 12 26
f 46 26 39
f 46 27 43
f 47 40 7
f 47 27 40
f 47 41 27
f 47 7 41
f 48 41 7
f 48 36 41
f 48 42 36
f 48 7 42
f 49 43 30
f 49 30 44
f 49 44 12
f 49 46 43
f 49 12 46
f 50 46 39
f 50 39 27
f 50 27 46

