# https://github.com/mikedh/trimesh
v -0.01547088 -0.07752912 -0.01320109
v -0.01547910 -0.07736343 -0.07280263
v -0.01913043 -0.03941571 -0.02478288
v -0.06990913 -0.03671948 -0.01328150
v -0.05000021 -0.06162822 -0.07256666
v -0.01667670 -0.04525553 -0.01355722
v -0.02929527 -0.07391461 -0.01376627
v -0.04181071 -0.03905675 -0.07276284
v -0.03759478 -0.03761952 -0.01313859
v -0.01569102 -0.04228113 -0.02579399
v -0.02915056 -0.07361662 -0.07260745
v -0.02452359 -0.07592419 -0.01429819
v -0.05250876 -0.05955539 -0.01388128
v -0.06912328 -0.03867211 -0.07274641
v -0.02596110 -0.03583017 -0.02399988
v -0.01665932 -0.05487702 -0.07278156
v -0.04328126 -0.06645651 -0.07260360
v -0.02232475 -0.07647467 -0.01386186
v -0.02225504 -0.07601586 -0.07255974
v -0.04324147 -0.06663820 -0.01389306
v -0.06163761 -0.05013122 -0.01388697
v -0.02210768 -0.04245706 -0.01379236
v -0.02402418 -0.03671901 -0.02463038
v -0.07012591 -0.03689300 -0.07265407
v -0.06165158 -0.04996730 -0.07261378
v -0.02453105 -0.07586815 -0.02344960
v -0.05003328 -0.06173362 -0.01413569
v -0.06663511 -0.04323730 -0.01388837
v -0.06657146 -0.04329261 -0.07246917
v -0.06930396 -0.03868663 -0.01374320
f 9 4 1
f 9 1 6
f 10 6 1
f 10 1 2
f 10 3 6
f 13 1 4
f 14 8 2
f 15 6 3
f 15 4 9
f 16 8 3
f 16 3 10
f 16 10 2
f 16 2 8
f 17 11 7
f 17 2 11
f 17 14 2
f 18 2 1
f 18 1 7
f 18 7 12
f 19 11 2
f 19 2 18
f 20 7 1
f 20 1 13
f 20 17 7
f 20 5 17
f 21 13 4
f 22 15 9
f 22 9 6
f 22 6 15
f 23 15 3
f 23 3 8
f 23 8 15
f 24 4 15
f 24 15 8
f 24 8 14
f 25 17 5
f 25 14 17
f 25 5 13
f 25 13 21
f 26 11 19
f 26 12 7
f 26 7 11
f 26 19 18
f 26 18 12
f 27 20 13
f 27 13 5
f 27 5 20
f 28 21 4
f 29 25 21
f 29 21 28
f 29 14 25
f 29 24 14
f 30 28 4
f 30 4 24
f 30 29 28
f 30 24 29

