# https://github.com/mikedh/trimesh
v -0.01600272 -0.02343569 -0.04112612
v 0.01097488 -0.00852198 -0.04789961
v 0.02248272 0.03904314 -0.02282883
v -0.02542748 0.04455114 -0.01425867
v -0.02175012 0.01004357 -0.04458020
v -0.03815015 0.02830876 -0.01360056
v 0.02326571 0.03794155 -0.02372595
v -0.00807659 -0.00575995 -0.04986518
v -0.00796165 0.02814021 -0.04030094
v -0.02829161 0.03816233 -0.01357519
v -0.03805143 -0.00863391 -0.03118172
v -0.03506923 0.02371030 -0.02847825
v -0.01508901 -0.02209500 -0.04341042
v 0.00107648 0.04554100 -0.02233013
v -0.00567760 0.00785402 -0.04971832
v 0.01985691 0.04072407 -0.02227623
v -0.03762437 0.03762356 -0.01324460
v -0.02439103 -0.02215217 -0.03880827
v -0.03509480 0.01008025 -0.03525830
v -0.02372088 0.02357854 -0.03735368
v 0.00575566 -0.00796879 -0.04979590
v -0.01267108 0.03969308 -0.02840487
v -0.01710680 0.00560393 -0.04708017
v -0.01239737 0.01920778 -0.04465511
v 0.01020060 0.02380079 -0.04262193
v 0.01500110 0.04297195 -0.02223646
v 0.01717111 0.03735842 -0.02851627
v -0.03076115 -0.00337575 -0.04008386
v -0.03065477 0.01924834 -0.03519515
v -0.02374500 0.03253652 -0.03056479
v -0.00577259 -0.00799959 -0.04983825
v 0.01060836 -0.00822484 -0.04878686
v 0.00335504 0.00791661 -0.04989252
v -0.00342518 0.04448597 -0.02395463
v -0.00804561 0.00571011 -0.04969049
v -0.01701998 0.02816748 -0.03755604
v -0.02145110 0.01674849 -0.04225752
v -0.00339625 0.01695119 -0.04726512
v -0.01558025 0.04431039 -0.01615519
v 0.02155849 0.03728422 -0.02606950
v 0.00799748 0.04209943 -0.02615002
v -0.03458895 -0.01308312 -0.03503444
v -0.02601597 0.00783142 -0.04255626
v -0.01699236 -0.00583911 -0.04725634
v -0.03625423 -0.01051648 -0.03418811
v -0.03041216 0.02364769 -0.03292929
v -0.02170712 0.03978924 -0.02390806
v -0.01707306 -0.01735799 -0.04464718
v 0.02212096 0.03613643 -0.02698842
v 0.00796698 0.00567203 -0.04967520
v -0.01036285 0.04211256 -0.02613065
v -0.00353514 0.04553592 -0.02232059
v -0.01475960 0.01007622 -0.04710635
v -0.01235493 0.02368524 -0.04228734
v -0.01917221 0.03277016 -0.03309993
v -0.02363577 0.01906995 -0.03992354
v -0.02815312 0.01217725 -0.03987715
v 0.00335214 0.02586339 -0.04248497
v 0.00337353 0.01705502 -0.04718476
v 0.01955677 0.03966415 -0.02408046
v 0.01465139 0.04203068 -0.02386288
v 0.00101149 0.04452241 -0.02388349
v -0.02592281 -0.01026380 -0.04236889
v -0.03064406 0.00332584 -0.04003263
f 6 1 3
f 7 1 2
f 7 3 1
f 10 6 3
f 13 2 1
f 16 10 3
f 16 4 10
f 17 10 4
f 17 6 10
f 17 11 6
f 18 1 6
f 18 6 11
f 18 13 1
f 19 17 12
f 19 11 17
f 29 19 12
f 31 21 13
f 31 8 21
f 32 2 13
f 32 13 21
f 33 21 8
f 33 8 15
f 35 15 8
f 35 8 23
f 37 24 5
f 38 33 15
f 39 26 14
f 39 14 4
f 39 4 16
f 39 16 26
f 40 3 7
f 41 14 26
f 42 18 11
f 43 5 23
f 44 23 8
f 44 43 23
f 44 28 43
f 45 11 19
f 45 19 28
f 45 42 11
f 45 28 42
f 46 29 12
f 46 30 20
f 46 12 17
f 46 17 30
f 47 30 17
f 47 17 4
f 48 31 13
f 48 8 31
f 48 44 8
f 48 13 18
f 49 7 2
f 49 2 32
f 49 40 7
f 49 25 27
f 49 27 40
f 50 32 21
f 50 21 33
f 50 49 32
f 50 25 49
f 51 34 9
f 51 9 22
f 51 47 4
f 51 22 47
f 52 4 14
f 52 14 34
f 52 51 4
f 52 34 51
f 53 35 23
f 53 23 5
f 53 5 24
f 53 15 35
f 53 38 15
f 53 24 38
f 54 36 9
f 54 24 37
f 54 37 20
f 54 20 36
f 54 38 24
f 54 9 38
f 55 36 20
f 55 20 30
f 55 22 9
f 55 9 36
f 55 47 22
f 55 30 47
f 56 20 37
f 56 46 20
f 56 29 46
f 57 37 5
f 57 56 37
f 57 29 56
f 57 5 43
f 57 43 19
f 57 19 29
f 58 38 9
f 58 9 34
f 58 41 27
f 58 27 25
f 59 33 38
f 59 50 33
f 59 25 50
f 59 58 25
f 59 38 58
f 60 16 3
f 60 3 40
f 60 26 16
f 61 41 26
f 61 27 41
f 61 26 60
f 61 60 40
f 61 40 27
f 62 34 14
f 62 14 41
f 62 58 34
f 62 41 58
f 63 42 28
f 63 18 42
f 63 48 18
f 63 28 44
f 63 44 48
f 64 43 28
f 64 28 19
f 64 19 43

