# https://github.com/mikedh/trimesh
v 0.07756983 0.01550480 -0.01314885
v 0.07798068 0.01560673 -0.07296274
v 0.06171168 0.04997474 -0.01426366
v 0.03934003 0.06803109 -0.01303881
v 0.05501085 0.01661985 -0.07284928
v 0.05001708 0.06168550 -0.07255421
v 0.05933857 0.05237886 -0.01356632
v 0.07376116 0.02934035 -0.01360801
v 0.06426674 0.01576189 -0.01292542
v 0.06663198 0.04322247 -0.07261868
v 0.04187048 0.03919969 -0.07291688
v 0.04998560 0.06161761 -0.01401507
v 0.06179935 0.05005884 -0.07241493
v 0.07588481 0.02448554 -0.01622800
v 0.06657022 0.04325485 -0.01386293
v 0.03973752 0.06860918 -0.07287871
v 0.04005970 0.03761831 -0.01304928
v 0.05232843 0.05939064 -0.01359153
v 0.07632407 0.02230412 -0.01365257
v 0.07589711 0.02445555 -0.07255678
v 0.04330740 0.06673152 -0.07247922
v 0.05498642 0.01674234 -0.03560377
v 0.04319247 0.06654746 -0.01384525
f 7 4 1
f 8 7 1
f 9 5 2
f 9 2 1
f 9 1 4
f 11 2 5
f 13 7 3
f 13 10 6
f 15 3 7
f 15 7 8
f 15 8 10
f 15 13 3
f 15 10 13
f 16 10 2
f 16 6 10
f 16 2 11
f 17 9 4
f 17 16 11
f 17 4 16
f 17 11 5
f 18 4 7
f 18 7 13
f 18 13 6
f 18 6 12
f 19 14 8
f 19 8 1
f 19 1 2
f 19 2 14
f 20 10 8
f 20 8 14
f 20 14 2
f 20 2 10
f 21 12 6
f 21 6 16
f 22 17 5
f 22 5 9
f 22 9 17
f 23 18 12
f 23 4 18
f 23 12 21
f 23 21 16
f 23 16 4

