# https://github.com/mikedh/trimesh
v -0.03759478 -0.03761952 -0.01313859
v -0.03596743 -0.02202655 -0.02918773
v -0.03762280 0.04004694 -0.01319050
v -0.04485527 0.04001701 -0.01305441
v -0.07876673 -0.01290356 -0.03559895
v -0.03598760 0.02433159 -0.02695585
v -0.06929008 -0.03908075 -0.03560556
v -0.07866567 -0.01286157 -0.01383622
v -0.03741645 -0.03744363 -0.01412220
v -0.07291299 0.03223480 -0.03559857
v -0.06665458 -0.03756787 -0.01297118
v -0.07719416 -0.02020056 -0.03560072
v -0.04274294 -0.03782805 -0.03559818
v -0.04022644 0.04023673 -0.02107096
v -0.07237382 0.03199503 -0.01327143
v -0.07880795 0.01290375 -0.03560510
v -0.07670044 -0.02004117 -0.01341767
v -0.03629695 -0.02461044 -0.02711402
v -0.04588457 0.03345292 -0.03558410
v -0.03767746 0.04010002 -0.01413396
v -0.07594648 0.02443383 -0.01416861
v -0.07863343 0.01288268 -0.01370661
v -0.03624225 0.01046529 -0.03411508
v -0.07402753 0.02939837 -0.01379390
v -0.07595223 0.02443356 -0.03560209
v -0.03625423 -0.01051648 -0.03418811
v -0.07638892 0.02238766 -0.01369321
v -0.07407812 0.02945404 -0.03559968
v -0.03608768 -0.01754075 -0.03168485
f 1 3 4
f 9 2 6
f 9 6 3
f 9 3 1
f 11 1 4
f 11 7 1
f 12 8 5
f 13 9 1
f 13 1 7
f 14 10 4
f 15 4 10
f 15 11 4
f 16 5 8
f 16 12 5
f 16 7 12
f 16 13 7
f 17 7 11
f 17 12 7
f 17 8 12
f 17 11 15
f 18 13 2
f 18 2 9
f 18 9 13
f 19 14 6
f 19 10 14
f 20 14 4
f 20 4 3
f 20 3 6
f 20 6 14
f 22 17 15
f 22 8 17
f 22 21 16
f 22 16 8
f 23 19 6
f 23 6 2
f 23 13 19
f 24 15 10
f 25 16 21
f 25 13 16
f 25 19 13
f 25 10 19
f 26 13 23
f 27 22 15
f 27 15 24
f 27 24 21
f 27 21 22
f 28 24 10
f 28 10 25
f 28 25 21
f 28 21 24
f 29 26 23
f 29 23 2
f 29 2 13
f 29 13 26

