# https://github.com/mikedh/trimesh
v 0.04005970 0.03761831 -0.01304928
v 0.04009625 0.03768037 -0.01401890
v 0.01542244 0.07726202 -0.01321092
v -0.01055493 0.07861288 -0.01366488
v -0.03762437 0.03762356 -0.01324460
v 0.01640273 0.03904659 -0.02462548
v 0.04002241 0.05698051 -0.01295481
v 0.02694295 0.03634020 -0.02247991
v -0.03757426 0.05698382 -0.01300632
v 0.01056873 0.07874478 -0.02103888
v -0.01602039 0.04064895 -0.02396994
v -0.02489493 0.07474176 -0.01323297
v 0.01047246 0.07856946 -0.01360704
v 0.01556206 0.07784244 -0.02104608
v -0.03736765 0.03752536 -0.01414427
v -0.02312573 0.05199238 -0.02369019
v -0.02231268 0.07621854 -0.02105654
v 0.01519405 0.05520180 -0.02351836
v -0.02593847 0.05059392 -0.02343639
v -0.02230657 0.07606571 -0.01377172
v -0.01053633 0.07879224 -0.02105701
v -0.02509899 0.07537756 -0.02105398
f 7 1 2
f 8 2 1
f 8 1 5
f 8 7 2
f 9 7 3
f 9 5 1
f 9 1 7
f 11 6 8
f 12 9 3
f 12 3 4
f 13 4 3
f 14 3 7
f 14 7 8
f 14 13 3
f 14 10 13
f 15 11 8
f 15 8 5
f 15 5 9
f 16 6 11
f 18 14 8
f 18 8 6
f 18 10 14
f 18 6 16
f 19 15 9
f 19 16 11
f 19 11 15
f 20 12 4
f 21 16 17
f 21 18 16
f 21 10 18
f 21 13 10
f 21 4 13
f 21 20 4
f 21 17 20
f 22 9 12
f 22 20 17
f 22 12 20
f 22 19 9
f 22 17 16
f 22 16 19

