# https://github.com/mikedh/trimesh
v -0.05352617 -0.01865862 -0.03562908
v -0.05524024 -0.01352968 -0.07284024
v -0.04588457 0.03345292 -0.03558410
v -0.07291299 0.03223480 -0.03559857
v -0.07719416 -0.02020056 -0.03560072
v -0.04646832 0.03386624 -0.07285521
v -0.05939113 -0.02061052 -0.07286505
v -0.05503011 -0.01343835 -0.03559280
v -0.04702671 0.03180122 -0.03557660
v -0.07871066 0.01291033 -0.07262327
v -0.07692891 -0.02012025 -0.07275513
v -0.07880795 0.01290375 -0.03560510
v -0.07264176 0.03213555 -0.07279485
v -0.07871316 -0.01293112 -0.07261062
v -0.07595223 0.02443356 -0.03560209
v -0.07876673 -0.01290356 -0.03559895
v -0.07580812 0.02438713 -0.07261957
v -0.07401098 0.02937662 -0.07254183
v -0.07407812 0.02945404 -0.03559968
f 6 4 3
f 6 1 2
f 6 3 1
f 7 2 1
f 7 1 5
f 7 6 2
f 8 5 1
f 8 1 3
f 9 3 4
f 9 8 3
f 9 5 8
f 11 7 5
f 13 4 6
f 13 11 10
f 13 6 7
f 13 7 11
f 14 11 5
f 14 10 11
f 14 12 10
f 15 10 12
f 16 14 5
f 16 12 14
f 16 15 12
f 16 9 4
f 16 5 9
f 17 13 10
f 17 10 15
f 18 17 15
f 18 4 13
f 18 13 17
f 19 18 15
f 19 4 18
f 19 16 4
f 19 15 16

