{"scene":0,"scenes":[{"nodes":[0]}],"asset":{"version":"2.0","generator":"https://github.com/mikedh/trimesh"},"accessors":[{"componentType":5125,"type":"SCALAR","bufferView":0,"count":89082,"max":[88947],"min":[0]},{"componentType":5126,"type":"VEC3","byteOffset":0,"bufferView":1,"count":88948,"max":[0.07999999821186066,0.0,0.08001171052455902],"min":[-0.07999999821186066,-0.07317854464054108,-0.08001171052455902]},{"componentType":5126,"type":"VEC2","byteOffset":0,"bufferView":3,"count":88948,"max":[0.9995412826538086,0.9995567202568054],"min":[0.00045871559996157885,0.0004432797431945801]}],"meshes":[{"name":"geometry_0.002","extras":{"units":"meters","from_gltf_primitive":false,"name":"geometry_0.002","node":"geometry_0.001"},"primitives":[{"attributes":{"POSITION":1,"TEXCOORD_0":2},"indices":0,"mode":4,"material":0}]}],"images":[{"bufferView":2,"mimeType":"image/png"}],"textures":[{"source":0}],"materials":[{"pbrMetallicRoughness":{"baseColorTexture":{"index":0}},"name":"Material_0.002","doubleSided":false}],"nodes":[{"name":"world","children":[1]},{"name":"geometry_0.002","mesh":0}],"buffers":[{"uri":"gltf_buffer_0.bin","byteLength":356328},{"uri":"gltf_buffer_1.bin","byteLength":1067376},{"uri":"gltf_buffer_2.bin","byteLength":932848},{"uri":"gltf_buffer_3.bin","byteLength":711584}],"bufferViews":[{"buffer":0,"byteOffset":0,"byteLength":356328},{"buffer":1,"byteOffset":0,"byteLength":1067376},{"buffer":2,"byteOffset":0,"byteLength":932848},{"buffer":3,"byteOffset":0,"byteLength":711584}]}