# https://github.com/mikedh/trimesh
v 0.01493861 -0.04710187 -0.00073421
v 0.04674919 -0.01279895 -0.00282213
v 0.04726468 0.00811119 -0.00063968
v -0.01041442 0.04709129 -0.00065646
v -0.04679463 -0.01464619 -0.00309337
v 0.02621278 0.03986162 -0.00271732
v -0.03967964 -0.02835508 -0.00051910
v 0.04470220 -0.01952864 -0.00063309
v 0.01490695 -0.04703701 -0.00273643
v 0.04462708 0.01710848 -0.00251508
v 0.02619274 0.04012155 -0.00058605
v -0.03056279 0.03749858 -0.00272015
v -0.01038461 0.04678393 -0.00287375
v 0.04703473 -0.01270058 -0.00071069
v -0.01494813 -0.04728548 -0.00063177
v -0.02593375 -0.04194948 -0.00293581
v 0.02834163 -0.03999928 -0.00268732
v 0.04705287 0.00799506 -0.00280657
v 0.01040572 0.04685745 -0.00266749
v 0.03994520 0.02621350 -0.00068649
v -0.04687816 -0.01484425 -0.00051880
v -0.03744441 0.03054340 -0.00286753
v -0.02392755 0.04199604 -0.00266765
v 0.04458076 -0.01949261 -0.00264826
v 0.02841870 -0.03999767 -0.00068842
v -0.01502833 -0.04725634 -0.00275042
v 0.02148642 -0.04426698 -0.00275585
v -0.02595889 -0.04206982 -0.00069761
v -0.03769967 -0.03088369 -0.00292377
v 0.03974286 0.02621717 -0.00267404
v 0.01726590 0.04471873 -0.00264717
v 0.01044880 0.04705290 -0.00062483
v 0.04468562 0.01712719 -0.00068121
v -0.03969011 -0.02832702 -0.00283378
v -0.04719982 0.01265244 -0.00065139
v -0.02400030 0.04217728 -0.00067255
v 0.03965866 -0.02837988 -0.00255208
v 0.02147080 -0.04438435 -0.00075430
v -0.02167802 -0.04455813 -0.00071530
v 0.01717010 0.04495925 -0.00067035
v -0.03758040 0.03059814 -0.00061853
v -0.04694746 0.01249567 -0.00293443
v 0.03976879 -0.02831198 -0.00069578
v -0.02165199 -0.04453095 -0.00278229
v -0.04234930 0.02400297 -0.00069512
v -0.03063001 0.03763311 -0.00071068
v -0.04473809 0.01934577 -0.00066152
v -0.04210860 0.02398702 -0.00272652
v -0.04450947 0.01918546 -0.00286835
f 11 8 3
f 11 7 8
f 14 3 8
f 15 8 7
f 16 5 2
f 18 10 3
f 18 13 6
f 18 2 5
f 18 5 13
f 18 14 2
f 18 3 14
f 19 13 4
f 19 6 13
f 20 11 3
f 21 7 11
f 22 13 5
f 22 12 13
f 23 13 12
f 23 4 13
f 24 14 8
f 24 2 14
f 25 15 1
f 25 8 15
f 26 9 1
f 26 1 15
f 26 16 9
f 27 16 2
f 27 9 16
f 27 2 17
f 28 15 7
f 29 5 16
f 29 28 7
f 29 16 28
f 30 18 6
f 30 10 18
f 30 20 10
f 30 6 11
f 30 11 20
f 31 11 6
f 31 6 19
f 32 19 4
f 33 20 3
f 33 3 10
f 33 10 20
f 34 21 5
f 34 7 21
f 34 29 7
f 34 5 29
f 35 5 21
f 36 23 12
f 36 4 23
f 37 24 8
f 37 17 2
f 37 2 24
f 37 25 17
f 38 1 9
f 38 9 27
f 38 25 1
f 38 27 17
f 38 17 25
f 39 26 15
f 39 15 28
f 40 32 11
f 40 11 31
f 40 31 19
f 40 19 32
f 41 21 11
f 41 11 32
f 41 32 4
f 41 4 36
f 41 35 21
f 42 22 5
f 42 5 35
f 43 37 8
f 43 8 25
f 43 25 37
f 44 39 28
f 44 28 16
f 44 16 26
f 44 26 39
f 45 41 22
f 46 41 36
f 46 36 12
f 46 12 22
f 46 22 41
f 47 35 41
f 47 41 45
f 48 45 22
f 48 47 45
f 49 48 22
f 49 22 42
f 49 47 48
f 49 42 35
f 49 35 47

