# https://github.com/mikedh/trimesh
v 0.01528816 -0.07852336 -0.01427131
v 0.06426361 -0.04242690 -0.07307933
v 0.06425804 -0.04242522 -0.01300991
v -0.01596036 -0.04554159 -0.01349352
v -0.01547910 -0.07736343 -0.07280263
v -0.01591820 -0.04534479 -0.01624423
v -0.01547088 -0.07752912 -0.01320109
v 0.05019748 -0.06175142 -0.01385412
v 0.02935912 -0.07393317 -0.07270779
v -0.01593810 -0.05516607 -0.07286504
v -0.01291704 -0.07873823 -0.01390427
v 0.06174864 -0.05010152 -0.07275540
v 0.02238790 -0.07646487 -0.01369772
v 0.02235052 -0.07641526 -0.07271123
v 0.03675172 -0.04426616 -0.07297253
v 0.01300841 -0.07863918 -0.07265539
v 0.01293732 -0.07874874 -0.01381299
v 0.06173023 -0.05006918 -0.01367060
v 0.04328165 -0.06656830 -0.07274722
v 0.04336741 -0.06672952 -0.01387918
v 0.02463439 -0.07613298 -0.01425530
v -0.01043787 -0.07860386 -0.07259345
v 0.01529148 -0.07845645 -0.02831971
v 0.05001075 -0.06165426 -0.07275365
v 0.03612582 -0.07115137 -0.01415856
v 0.02452696 -0.07588733 -0.06709366
v -0.01268748 -0.07847476 -0.05981075
v 0.03602464 -0.07108533 -0.04526410
v 0.03145023 -0.07344014 -0.03073194
v 0.02941475 -0.07418748 -0.01384301
v 0.03147214 -0.07346626 -0.01430468
f 6 3 2
f 6 4 3
f 7 3 4
f 10 4 6
f 10 7 4
f 10 5 7
f 10 2 5
f 11 7 5
f 12 2 3
f 13 3 7
f 14 5 2
f 14 2 9
f 15 10 6
f 15 6 2
f 15 2 10
f 16 5 14
f 17 7 11
f 17 13 7
f 17 1 13
f 17 16 1
f 17 11 16
f 18 12 3
f 18 3 8
f 18 8 12
f 19 9 2
f 20 8 3
f 20 3 13
f 20 19 8
f 21 13 1
f 22 16 11
f 22 5 16
f 23 16 14
f 23 1 16
f 23 21 1
f 24 19 2
f 24 2 12
f 24 12 8
f 24 8 19
f 25 19 20
f 26 14 9
f 26 23 14
f 26 21 23
f 27 22 11
f 27 11 5
f 27 5 22
f 28 9 19
f 28 19 25
f 29 28 25
f 29 9 28
f 29 26 9
f 29 21 26
f 30 25 20
f 30 20 13
f 30 13 21
f 31 29 25
f 31 25 30
f 31 30 21
f 31 21 29

