# https://github.com/mikedh/trimesh
v 0.05698574 -0.04244195 -0.01299343
v 0.04491127 0.02546788 -0.01311470
v 0.04255508 -0.04002113 -0.02085592
v 0.04476227 0.02541880 -0.01399907
v 0.06426354 0.02545827 -0.03559729
v 0.03896047 0.01632436 -0.02454609
v 0.04486804 -0.04243218 -0.01300227
v 0.06426283 0.02545789 -0.01292592
v 0.05073169 0.02603146 -0.03559312
v 0.05779716 -0.00120812 -0.03563211
v 0.04306100 0.01595120 -0.01355565
v 0.06427046 -0.00121021 -0.01294213
v 0.03949237 0.01405408 -0.02496160
f 6 2 4
f 7 3 1
f 7 6 3
f 8 2 7
f 9 4 2
f 9 8 5
f 9 2 8
f 9 6 4
f 10 5 1
f 10 1 3
f 10 9 5
f 10 3 9
f 11 7 2
f 11 2 6
f 11 6 7
f 12 1 5
f 12 5 8
f 12 8 7
f 12 7 1
f 13 9 3
f 13 3 6
f 13 6 9

