# https://github.com/mikedh/trimesh
v 0.06350621 -0.04673929 -0.01316748
v 0.07838944 -0.01512592 -0.07273250
v 0.07860071 -0.01287124 -0.01366915
v 0.06426674 0.01576189 -0.01292542
v 0.03815498 -0.04309411 -0.07300982
v 0.07842231 0.01523644 -0.06958481
v 0.07756983 0.01550480 -0.01314885
v 0.07102575 -0.03605215 -0.01409178
v 0.06386095 -0.04695476 -0.07301396
v 0.03759422 -0.04001886 -0.01402913
v 0.07846757 -0.01528579 -0.06953871
v 0.05529282 0.01594871 -0.07309113
v 0.05699057 -0.04242811 -0.01299341
v 0.07858549 0.01286123 -0.01369698
v 0.07395116 -0.02935277 -0.01365295
v 0.03863757 -0.04372512 -0.01639583
v 0.06665972 -0.04332826 -0.01378073
v 0.07587905 -0.02453346 -0.07273790
v 0.05524625 0.01598838 -0.03559897
v 0.07831277 0.01516739 -0.07277571
v 0.05701765 -0.00121032 -0.01301331
v 0.07641061 -0.02240819 -0.01368373
v 0.06670141 -0.04330925 -0.07275448
v 0.06472553 -0.04592735 -0.01359930
v 0.07106029 -0.03606883 -0.05983384
v 0.07592822 -0.02453999 -0.01395862
v 0.06492704 -0.04600090 -0.07271882
f 7 1 3
f 11 2 6
f 12 7 6
f 12 5 10
f 12 9 5
f 13 7 4
f 13 1 7
f 13 10 1
f 14 7 3
f 14 6 7
f 14 11 6
f 14 3 11
f 16 9 1
f 16 5 9
f 16 10 5
f 16 1 10
f 17 15 1
f 17 8 15
f 18 9 2
f 18 2 11
f 19 4 7
f 19 7 12
f 19 12 10
f 19 10 4
f 20 12 6
f 20 6 2
f 20 2 9
f 20 9 12
f 21 13 4
f 21 4 10
f 21 10 13
f 22 3 1
f 22 1 15
f 23 9 18
f 24 17 1
f 24 1 9
f 25 18 15
f 25 15 8
f 25 23 18
f 25 8 17
f 25 17 23
f 26 18 11
f 26 11 3
f 26 3 22
f 26 22 15
f 26 15 18
f 27 23 17
f 27 17 24
f 27 24 9
f 27 9 23

