# https://github.com/mikedh/trimesh
v -0.04274294 -0.03782805 -0.03559818
v -0.04287295 -0.03791312 -0.07283587
v -0.05482570 -0.01282707 -0.02349407
v -0.05523724 -0.01245872 -0.03563543
v -0.07174753 -0.03406597 -0.01369116
v -0.05524024 -0.01352968 -0.07284024
v -0.06665458 -0.03756787 -0.01297118
v -0.07670044 -0.02004117 -0.01341767
v -0.07176071 -0.03408112 -0.07249693
v -0.05255630 -0.02077936 -0.02346046
v -0.05939167 -0.01333723 -0.07285739
v -0.06666873 -0.02061349 -0.01295644
v -0.06990913 -0.03671948 -0.01328150
v -0.07586629 -0.02450882 -0.05983259
v -0.07012591 -0.03689300 -0.07265407
v -0.05458636 -0.01388217 -0.02338261
v -0.07388906 -0.02933997 -0.01370428
v -0.07692891 -0.02012025 -0.07275513
v -0.07586935 -0.02444159 -0.01406670
v -0.07394176 -0.02926047 -0.07256422
v -0.07640993 -0.02232318 -0.01378628
v -0.07649233 -0.02229980 -0.07252243
f 1 2 3
f 6 3 2
f 6 4 3
f 7 2 1
f 8 3 4
f 10 7 1
f 10 1 3
f 11 8 4
f 11 4 6
f 11 6 2
f 12 8 7
f 12 3 8
f 12 7 10
f 13 7 8
f 15 2 7
f 15 7 13
f 15 13 5
f 15 5 9
f 16 12 10
f 16 10 3
f 16 3 12
f 17 13 8
f 17 5 13
f 17 9 5
f 18 11 2
f 18 2 15
f 18 8 11
f 19 14 17
f 20 17 14
f 20 9 17
f 20 18 15
f 20 15 9
f 21 19 17
f 21 17 8
f 21 8 18
f 22 20 14
f 22 18 20
f 22 21 18
f 22 14 19
f 22 19 21

